  0
SECTION
  2
HEADER
  9
$ACADVER
  1
AC1015
  9
$ACADMAINTVER
 70
     6
  9
$DWGCODEPAGE
  3
ANSI_1252
  9
$INSBASE
 10
0.0
 20
0.0
 30
0.0
  9
$EXTMIN
 10
0.0
 20
0.0
 30
0.0
  9
$EXTMAX
 10
134.0
 20
84.0
 30
0.0
  9
$LIMMIN
 10
0.0
 20
0.0
  9
$LIMMAX
 10
420.0
 20
297.0
  9
$ORTHOMODE
 70
     0
  9
$REGENMODE
 70
     1
  9
$FILLMODE
 70
     1
  9
$QTEXTMODE
 70
     0
  9
$MIRRTEXT
 70
     1
  9
$LTSCALE
 40
1.0
  9
$ATTMODE
 70
     1
  9
$TEXTSIZE
 40
3.5
  9
$TRACEWID
 40
1.0
  9
$TEXTSTYLE
  7
Standard
  9
$CLAYER
  8
0
  9
$CELTYPE
  6
ByLayer
  9
$CECOLOR
 62
   256
  9
$CELTSCALE
 40
1.0
  9
$DISPSILH
 70
     0
  9
$DIMSCALE
 40
1.0
  9
$DIMASZ
 40
3.556
  9
$DIMEXO
 40
1.0
  9
$DIMDLI
 40
3.75
  9
$DIMRND
 40
0.0
  9
$DIMDLE
 40
0.0
  9
$DIMEXE
 40
1.0
  9
$DIMTP
 40
0.0
  9
$DIMTM
 40
0.0
  9
$DIMTXT
 40
3.5
  9
$DIMCEN
 40
2.5
  9
$DIMTSZ
 40
0.0
  9
$DIMTOL
 70
     0
  9
$DIMLIM
 70
     0
  9
$DIMTIH
 70
     1
  9
$DIMTOH
 70
     1
  9
$DIMSE1
 70
     0
  9
$DIMSE2
 70
     0
  9
$DIMTAD
 70
     1
  9
$DIMZIN
 70
     0
  9
$DIMBLK
  1

  9
$DIMASO
 70
     1
  9
$DIMSHO
 70
     1
  9
$DIMPOST
  1

  9
$DIMAPOST
  1

  9
$DIMALT
 70
     0
  9
$DIMALTD
 70
     3
  9
$DIMALTF
 40
0.0393700787
  9
$DIMLFAC
 40
1.0
  9
$DIMTOFL
 70
     1
  9
$DIMTVP
 40
0.0
  9
$DIMTIX
 70
     0
  9
$DIMSOXD
 70
     0
  9
$DIMSAH
 70
     0
  9
$DIMBLK1
  1

  9
$DIMBLK2
  1

  9
$DIMSTYLE
  2
ISO-25
  9
$DIMCLRD
 70
     0
  9
$DIMCLRE
 70
     0
  9
$DIMCLRT
 70
     0
  9
$DIMTFAC
 40
1.0
  9
$DIMGAP
 40
1.524
  9
$DIMJUST
 70
     0
  9
$DIMSD1
 70
     0
  9
$DIMSD2
 70
     0
  9
$DIMTOLJ
 70
     0
  9
$DIMTZIN
 70
     0
  9
$DIMALTZ
 70
     0
  9
$DIMALTTZ
 70
     0
  9
$DIMUPT
 70
     0
  9
$DIMDEC
 70
     2
  9
$DIMTDEC
 70
     2
  9
$DIMALTU
 70
     2
  9
$DIMALTTD
 70
     3
  9
$DIMTXSTY
  7
Standard
  9
$DIMAUNIT
 70
     0
  9
$DIMADEC
 70
     2
  9
$DIMALTRND
 40
0.0
  9
$DIMAZIN
 70
     0
  9
$DIMDSEP
 70
    44
  9
$DIMATFIT
 70
     3
  9
$DIMFRAC
 70
     0
  9
$DIMLDRBLK
  1

  9
$DIMLUNIT
 70
     2
  9
$DIMLWD
 70
    -2
  9
$DIMLWE
 70
    -2
  9
$DIMTMOVE
 70
     0
  9
$LUNITS
 70
     2
  9
$LUPREC
 70
     2
  9
$SKETCHINC
 40
1.0
  9
$FILLETRAD
 40
10.0
  9
$AUNITS
 70
     0
  9
$AUPREC
 70
     2
  9
$MENU
  1
.
  9
$ELEVATION
 40
0.0
  9
$PELEVATION
 40
0.0
  9
$THICKNESS
 40
0.0
  9
$LIMCHECK
 70
     0
  9
$CHAMFERA
 40
0.0
  9
$CHAMFERB
 40
0.0
  9
$CHAMFERC
 40
0.0
  9
$CHAMFERD
 40
0.0
  9
$SKPOLY
 70
     0
  9
$TDCREATE
 40
2458218.602334954
  9
$TDUCREATE
 40
2458218.20650162
  9
$TDUPDATE
 40
2458218.602371401
  9
$TDUUPDATE
 40
2458218.206538067
  9
$TDINDWG
 40
0.0000000116
  9
$TDUSRTIMER
 40
0.0000000116
  9
$USRTIMER
 70
     1
  9
$ANGBASE
 50
0.0
  9
$ANGDIR
 70
     0
  9
$PDMODE
 70
     0
  9
$PDSIZE
 40
-1.0
  9
$PLINEWID
 40
0.0
  9
$SPLFRAME
 70
     0
  9
$SPLINETYPE
 70
     6
  9
$SPLINESEGS
 70
     8
  9
$HANDSEED
  5
367
  9
$SURFTAB1
 70
     6
  9
$SURFTAB2
 70
     6
  9
$SURFTYPE
 70
     6
  9
$SURFU
 70
     6
  9
$SURFV
 70
     6
  9
$UCSBASE
  2

  9
$UCSNAME
  2

  9
$UCSORG
 10
0.0
 20
0.0
 30
0.0
  9
$UCSXDIR
 10
1.0
 20
0.0
 30
0.0
  9
$UCSYDIR
 10
0.0
 20
1.0
 30
0.0
  9
$UCSORTHOREF
  2

  9
$UCSORTHOVIEW
 70
     0
  9
$UCSORGTOP
 10
0.0
 20
0.0
 30
0.0
  9
$UCSORGBOTTOM
 10
0.0
 20
0.0
 30
0.0
  9
$UCSORGLEFT
 10
0.0
 20
0.0
 30
0.0
  9
$UCSORGRIGHT
 10
0.0
 20
0.0
 30
0.0
  9
$UCSORGFRONT
 10
0.0
 20
0.0
 30
0.0
  9
$UCSORGBACK
 10
0.0
 20
0.0
 30
0.0
  9
$PUCSBASE
  2

  9
$PUCSNAME
  2

  9
$PUCSORG
 10
0.0
 20
0.0
 30
0.0
  9
$PUCSXDIR
 10
1.0
 20
0.0
 30
0.0
  9
$PUCSYDIR
 10
0.0
 20
1.0
 30
0.0
  9
$PUCSORTHOREF
  2

  9
$PUCSORTHOVIEW
 70
     0
  9
$PUCSORGTOP
 10
0.0
 20
0.0
 30
0.0
  9
$PUCSORGBOTTOM
 10
0.0
 20
0.0
 30
0.0
  9
$PUCSORGLEFT
 10
0.0
 20
0.0
 30
0.0
  9
$PUCSORGRIGHT
 10
0.0
 20
0.0
 30
0.0
  9
$PUCSORGFRONT
 10
0.0
 20
0.0
 30
0.0
  9
$PUCSORGBACK
 10
0.0
 20
0.0
 30
0.0
  9
$USERI1
 70
     0
  9
$USERI2
 70
     0
  9
$USERI3
 70
     0
  9
$USERI4
 70
     0
  9
$USERI5
 70
     0
  9
$USERR1
 40
0.0
  9
$USERR2
 40
0.0
  9
$USERR3
 40
0.0
  9
$USERR4
 40
0.0
  9
$USERR5
 40
0.0
  9
$WORLDVIEW
 70
     1
  9
$SHADEDGE
 70
     3
  9
$SHADEDIF
 70
    70
  9
$TILEMODE
 70
     1
  9
$MAXACTVP
 70
    64
  9
$PINSBASE
 10
0.0
 20
0.0
 30
0.0
  9
$PLIMCHECK
 70
     0
  9
$PEXTMIN
 10
1.0000000000E+20
 20
1.0000000000E+20
 30
1.0000000000E+20
  9
$PEXTMAX
 10
-1.0000000000E+20
 20
-1.0000000000E+20
 30
-1.0000000000E+20
  9
$PLIMMIN
 10
0.0
 20
0.0
  9
$PLIMMAX
 10
420.0
 20
297.0
  9
$UNITMODE
 70
     0
  9
$VISRETAIN
 70
     1
  9
$PLINEGEN
 70
     0
  9
$PSLTSCALE
 70
     1
  9
$TREEDEPTH
 70
  3020
  9
$CMLSTYLE
  2
Standard
  9
$CMLJUST
 70
     0
  9
$CMLSCALE
 40
20.0
  9
$PROXYGRAPHICS
 70
     1
  9
$MEASUREMENT
 70
     1
  9
$CELWEIGHT
370
    -1
  9
$ENDCAPS
280
     0
  9
$JOINSTYLE
280
     0
  9
$LWDISPLAY
290
     1
  9
$INSUNITS
 70
     4
  9
$HYPERLINKBASE
  1

  9
$STYLESHEET
  1

  9
$XEDIT
290
     1
  9
$CEPSNTYPE
380
     0
  9
$PSTYLEMODE
290
     1
  9
$FINGERPRINTGUID
  2
{9A737F84-0E58-4EF4-B400-061CE5324688}
  9
$VERSIONGUID
  2
{FAEB1C32-E019-11D5-929B-00C0DF256EC4}
  9
$EXTNAMES
290
     1
  9
$PSVPSCALE
 40
0.0
  9
$OLESTARTUP
290
     0
  0
ENDSEC
  0
SECTION
  2
CLASSES
  0
CLASS
  1
ACDBDICTIONARYWDFLT
  2
AcDbDictionaryWithDefault
  3
ObjectDBX Classes
 90
        0
280
     0
281
     0
  0
CLASS
  1
VISUALSTYLE
  2
AcDbVisualStyle
  3
ObjectDBX Classes
 90
     4095
280
     0
281
     0
  0
CLASS
  1
MATERIAL
  2
AcDbMaterial
  3
ObjectDBX Classes
 90
     1153
280
     0
281
     0
  0
CLASS
  1
SCALE
  2
AcDbScale
  3
ObjectDBX Classes
 90
     1153
280
     0
281
     0
  0
CLASS
  1
TABLESTYLE
  2
AcDbTableStyle
  3
ObjectDBX Classes
 90
     4095
280
     0
281
     0
  0
CLASS
  1
MLEADERSTYLE
  2
AcDbMLeaderStyle
  3
ACDB_MLEADERSTYLE_CLASS
 90
     4095
280
     0
281
     0
  0
CLASS
  1
SUN
  2
AcDbSun
  3
SCENEOE
 90
     1153
280
     0
281
     0
  0
CLASS
  1
ACDBPLACEHOLDER
  2
AcDbPlaceHolder
  3
ObjectDBX Classes
 90
        0
280
     0
281
     0
  0
CLASS
  1
LAYOUT
  2
AcDbLayout
  3
ObjectDBX Classes
 90
        0
280
     0
281
     0
  0
ENDSEC
  0
SECTION
  2
TABLES
  0
TABLE
  2
VPORT
  5
8
330
0
100
AcDbSymbolTable
 70
     1
  0
VPORT
  5
29
330
8
100
AcDbSymbolTableRecord
100
AcDbViewportTableRecord
  2
*Active
 70
     0
 10
0.0
 20
0.0
 11
1.0
 21
1.0
 12
67.0
 22
42.0
 13
0.0
 23
0.0
 14
10.0
 24
10.0
 15
10.0
 25
10.0
 16
0.0
 26
0.0
 36
1.0
 17
0.0
 27
0.0
 37
0.0
 40
85.68
 41
1.5952380952
 42
50.0
 43
0.0
 44
0.0
 50
0.0
 51
0.0
 71
     0
 72
   100
 73
     1
 74
     3
 75
     0
 76
     0
 77
     0
 78
     0
281
     0
 65
     1
110
0.0
120
0.0
130
0.0
111
1.0
121
0.0
131
0.0
112
0.0
122
1.0
132
0.0
 79
     0
146
0.0
  0
ENDTAB
  0
TABLE
  2
LTYPE
  5
5
330
0
100
AcDbSymbolTable
 70
     6
  0
LTYPE
  5
14
330
5
100
AcDbSymbolTableRecord
100
AcDbLinetypeTableRecord
  2
ByBlock
 70
     0
  3

 72
    65
 73
     0
 40
0.0
  0
LTYPE
  5
15
330
5
100
AcDbSymbolTableRecord
100
AcDbLinetypeTableRecord
  2
ByLayer
 70
     0
  3

 72
    65
 73
     0
 40
0.0
  0
LTYPE
  5
16
330
5
100
AcDbSymbolTableRecord
100
AcDbLinetypeTableRecord
  2
Continuous
 70
     0
  3
Solid line
 72
    65
 73
     0
 40
0.0
  0
LTYPE
  5
6E
330
5
100
AcDbSymbolTableRecord
100
AcDbLinetypeTableRecord
  2
HIDDEN
 70
     0
  3
Hidden __ __ __ __ __ __ __ __ __ __ __ __ __ __
 72
    65
 73
     2
 40
1.905
 49
1.27
 74
     0
 49
-0.635
 74
     0
  0
LTYPE
  5
6F
330
5
100
AcDbSymbolTableRecord
100
AcDbLinetypeTableRecord
  2
PHANTOM
 70
     0
  3
Phantom ______  __  __  ______  __  __  ______
 72
    65
 73
     6
 40
12.7
 49
6.35
 74
     0
 49
-1.27
 74
     0
 49
1.27
 74
     0
 49
-1.27
 74
     0
 49
1.27
 74
     0
 49
-1.27
 74
     0
  0
LTYPE
  5
70
330
5
100
AcDbSymbolTableRecord
100
AcDbLinetypeTableRecord
  2
CENTER
 70
     0
  3
Center ____ _ ____ _ ____ _ ____ _ ____ _ ____
 72
    65
 73
     4
 40
10.16
 49
6.35
 74
     0
 49
-1.27
 74
     0
 49
1.27
 74
     0
 49
-1.27
 74
     0
  0
LTYPE
  5
71
330
5
100
AcDbSymbolTableRecord
100
AcDbLinetypeTableRecord
  2
CENTERX2
 70
     0
  3
Center (2x) ________  __  ________  __  _____
 72
    65
 73
     4
 40
20.32
 49
12.7
 74
     0
 49
-2.54
 74
     0
 49
2.54
 74
     0
 49
-2.54
 74
     0
  0
LTYPE
  5
72
330
5
100
AcDbSymbolTableRecord
100
AcDbLinetypeTableRecord
  2
DOT2
 70
     0
  3
Dot (.5x) ........................................
 72
    65
 73
     2
 40
0.635
 49
0.0
 74
     0
 49
-0.635
 74
     0
  0
ENDTAB
  0
TABLE
  2
LAYER
  5
2
330
0
100
AcDbSymbolTable
 70
     1
  0
LAYER
  5
10
330
2
100
AcDbSymbolTableRecord
100
AcDbLayerTableRecord
  2
0
 70
     0
 62
     7
  6
Continuous
370
    -3
390
F
  0
ENDTAB
  0
TABLE
  2
STYLE
  5
3
330
0
100
AcDbSymbolTable
 70
     1
  0
STYLE
  5
11
330
3
100
AcDbSymbolTableRecord
100
AcDbTextStyleTableRecord
  2
Standard
 70
     0
 40
0.0
 41
1.0
 50
0.0
 71
     0
 42
3.5
  3
txt
  4

  0
ENDTAB
  0
TABLE
  2
VIEW
  5
6
330
0
100
AcDbSymbolTable
 70
     0
  0
ENDTAB
  0
TABLE
  2
UCS
  5
7
330
0
100
AcDbSymbolTable
 70
     0
  0
ENDTAB
  0
TABLE
  2
APPID
  5
9
330
0
100
AcDbSymbolTable
 70
     1
  0
APPID
  5
12
330
9
100
AcDbSymbolTableRecord
100
AcDbRegAppTableRecord
  2
ACAD
 70
     0
  0
ENDTAB
  0
TABLE
  2
DIMSTYLE
  5
A
330
0
100
AcDbSymbolTable
 70
     1
100
AcDbDimStyleTable
  0
DIMSTYLE
105
27
330
A
100
AcDbSymbolTableRecord
100
AcDbDimStyleTableRecord
  2
ISO-25
 70
     0
 41
2.5
 42
0.625
 43
3.75
 44
1.25
 73
     0
 74
     0
 77
     1
 78
     8
140
2.5
141
2.5
143
0.0393700787
147
0.625
171
     3
172
     1
178
     0
271
     2
272
     2
274
     3
278
    44
283
     0
284
     8
340
11
  0
ENDTAB
  0
TABLE
  2
BLOCK_RECORD
  5
1
330
0
100
AcDbSymbolTable
 70
     1
  0
BLOCK_RECORD
  5
1F
330
1
100
AcDbSymbolTableRecord
100
AcDbBlockTableRecord
  2
*Model_Space
340
22
  0
BLOCK_RECORD
  5
1B
330
1
100
AcDbSymbolTableRecord
100
AcDbBlockTableRecord
  2
*Paper_Space
340
1E
  0
BLOCK_RECORD
  5
23
330
1
100
AcDbSymbolTableRecord
100
AcDbBlockTableRecord
  2
*Paper_Space0
340
26
  0
ENDTAB
  0
ENDSEC
  0
SECTION
  2
BLOCKS
  0
BLOCK
  5
20
330
1F
100
AcDbEntity
  8
0
100
AcDbBlockBegin
  2
*Model_Space
 70
     0
 10
0.0
 20
0.0
 30
0.0
  3
*Model_Space
  1

  0
ENDBLK
  5
21
330
1F
100
AcDbEntity
  8
0
100
AcDbBlockEnd
  0
BLOCK
  5
1C
330
1B
100
AcDbEntity
 67
     1
  8
0
100
AcDbBlockBegin
  2
*Paper_Space
 70
     0
 10
0.0
 20
0.0
 30
0.0
  3
*Paper_Space
  1

  0
ENDBLK
  5
1D
330
1B
100
AcDbEntity
 67
     1
  8
0
100
AcDbBlockEnd
  0
BLOCK
  5
24
330
23
100
AcDbEntity
  8
0
100
AcDbBlockBegin
  2
*Paper_Space0
 70
     0
 10
0.0
 20
0.0
 30
0.0
  3
*Paper_Space0
  1

  0
ENDBLK
  5
25
330
23
100
AcDbEntity
  8
0
100
AcDbBlockEnd
  0
ENDSEC
  0
SECTION
  2
ENTITIES
  0
LINE
  5
73
330
1F
100
AcDbEntity
  8
0
  6
Continuous
 62
     7
370
    15
100
AcDbLine
 10
23.5
 20
53.8771324027
 30
0.0
 11
21.0358983849
 21
55.2997821335
 31
0.0
  0
ARC
  5
74
330
1F
100
AcDbEntity
  8
0
  6
Continuous
 62
     7
370
    15
100
AcDbCircle
 10
21.5358983849
 20
56.1658075373
 30
0.0
 40
1.0
100
AcDbArc
 50
180.0
 51
240.0
  0
LINE
  5
75
330
1F
100
AcDbEntity
  8
0
  6
Continuous
 62
     7
370
    15
100
AcDbLine
 10
20.5358983849
 20
56.1658075373
 30
0.0
 11
20.5358983849
 21
59.0111069989
 31
0.0
  0
ARC
  5
76
330
1F
100
AcDbEntity
  8
0
  6
Continuous
 62
     7
370
    15
100
AcDbCircle
 10
21.5358983849
 20
59.0111069989
 30
0.0
 40
1.0
100
AcDbArc
 50
120.0
 51
180.0
  0
LINE
  5
77
330
1F
100
AcDbEntity
  8
0
  6
Continuous
 62
     7
370
    15
100
AcDbLine
 10
21.0358983849
 20
59.8771324027
 30
0.0
 11
23.5
 21
61.2997821335
 31
0.0
  0
ARC
  5
78
330
1F
100
AcDbEntity
  8
0
  6
Continuous
 62
     7
370
    15
100
AcDbCircle
 10
24.0
 20
60.4337567297
 30
0.0
 40
1.000000000000002
100
AcDbArc
 50
60.0
 51
120.0
  0
LINE
  5
79
330
1F
100
AcDbEntity
  8
0
  6
Continuous
 62
     7
370
    15
100
AcDbLine
 10
24.5
 20
61.2997821335
 30
0.0
 11
26.9641016151
 21
59.8771324027
 31
0.0
  0
ARC
  5
7A
330
1F
100
AcDbEntity
  8
0
  6
Continuous
 62
     7
370
    15
100
AcDbCircle
 10
26.4641016151
 20
59.0111069989
 30
0.0
 40
1.0
100
AcDbArc
 50
0.0
 51
60.0
  0
LINE
  5
7B
330
1F
100
AcDbEntity
  8
0
  6
Continuous
 62
     7
370
    15
100
AcDbLine
 10
27.4641016151
 20
59.0111069989
 30
0.0
 11
27.4641016151
 21
56.1658075373
 31
0.0
  0
ARC
  5
7C
330
1F
100
AcDbEntity
  8
0
  6
Continuous
 62
     7
370
    15
100
AcDbCircle
 10
26.4641016151
 20
56.1658075373
 30
0.0
 40
1.000000000000004
100
AcDbArc
 50
300.0
 51
0.0
  0
LINE
  5
7D
330
1F
100
AcDbEntity
  8
0
  6
Continuous
 62
     7
370
    15
100
AcDbLine
 10
26.9641016151
 20
55.2997821335
 30
0.0
 11
24.5
 21
53.8771324027
 31
0.0
  0
ARC
  5
7E
330
1F
100
AcDbEntity
  8
0
  6
Continuous
 62
     7
370
    15
100
AcDbCircle
 10
24.0
 20
54.7431578065
 30
0.0
 40
1.000000000000006
100
AcDbArc
 50
240.0
 51
300.0
  0
LINE
  5
7F
330
1F
100
AcDbEntity
  8
0
  6
Continuous
 62
     7
370
    15
100
AcDbLine
 10
37.0
 20
61.6713610368
 30
0.0
 11
34.5358983849
 21
63.0940107676
 31
0.0
  0
ARC
  5
80
330
1F
100
AcDbEntity
  8
0
  6
Continuous
 62
     7
370
    15
100
AcDbCircle
 10
35.0358983849
 20
63.9600361714
 30
0.0
 40
1.000000000000002
100
AcDbArc
 50
180.0
 51
240.0
  0
LINE
  5
81
330
1F
100
AcDbEntity
  8
0
  6
Continuous
 62
     7
370
    15
100
AcDbLine
 10
34.0358983849
 20
63.9600361714
 30
0.0
 11
34.0358983849
 21
66.805335633
 31
0.0
  0
ARC
  5
82
330
1F
100
AcDbEntity
  8
0
  6
Continuous
 62
     7
370
    15
100
AcDbCircle
 10
35.0358983849
 20
66.805335633
 30
0.0
 40
1.000000000000008
100
AcDbArc
 50
120.0
 51
180.0
  0
LINE
  5
83
330
1F
100
AcDbEntity
  8
0
  6
Continuous
 62
     7
370
    15
100
AcDbLine
 10
34.5358983849
 20
67.6713610368
 30
0.0
 11
37.0
 21
69.0940107676
 31
0.0
  0
ARC
  5
84
330
1F
100
AcDbEntity
  8
0
  6
Continuous
 62
     7
370
    15
100
AcDbCircle
 10
37.5
 20
68.2279853638
 30
0.0
 40
0.9999999999999959
100
AcDbArc
 50
60.0
 51
120.0
  0
LINE
  5
85
330
1F
100
AcDbEntity
  8
0
  6
Continuous
 62
     7
370
    15
100
AcDbLine
 10
38.0
 20
69.0940107676
 30
0.0
 11
40.4641016151
 21
67.6713610368
 31
0.0
  0
ARC
  5
86
330
1F
100
AcDbEntity
  8
0
  6
Continuous
 62
     7
370
    15
100
AcDbCircle
 10
39.9641016151
 20
66.805335633
 30
0.0
 40
1.000000000000008
100
AcDbArc
 50
0.0
 51
60.0
  0
LINE
  5
87
330
1F
100
AcDbEntity
  8
0
  6
Continuous
 62
     7
370
    15
100
AcDbLine
 10
40.9641016151
 20
66.805335633
 30
0.0
 11
40.9641016151
 21
63.9600361714
 31
0.0
  0
ARC
  5
88
330
1F
100
AcDbEntity
  8
0
  6
Continuous
 62
     7
370
    15
100
AcDbCircle
 10
39.9641016151
 20
63.9600361714
 30
0.0
 40
1.000000000000002
100
AcDbArc
 50
300.0
 51
0.0
  0
LINE
  5
89
330
1F
100
AcDbEntity
  8
0
  6
Continuous
 62
     7
370
    15
100
AcDbLine
 10
40.4641016151
 20
63.0940107676
 30
0.0
 11
38.0
 21
61.6713610368
 31
0.0
  0
ARC
  5
8A
330
1F
100
AcDbEntity
  8
0
  6
Continuous
 62
     7
370
    15
100
AcDbCircle
 10
37.5
 20
62.5373864406
 30
0.0
 40
1.000000000000008
100
AcDbArc
 50
240.0
 51
300.0
  0
LINE
  5
8B
330
1F
100
AcDbEntity
  8
0
  6
Continuous
 62
     7
370
    15
100
AcDbLine
 10
50.5
 20
69.4655896708
 30
0.0
 11
48.0358983849
 21
70.8882394016
 31
0.0
  0
ARC
  5
8C
330
1F
100
AcDbEntity
  8
0
  6
Continuous
 62
     7
370
    15
100
AcDbCircle
 10
48.5358983849
 20
71.7542648054
 30
0.0
 40
1.000000000000008
100
AcDbArc
 50
180.0
 51
240.0
  0
LINE
  5
8D
330
1F
100
AcDbEntity
  8
0
  6
Continuous
 62
     7
370
    15
100
AcDbLine
 10
47.5358983849
 20
71.7542648054
 30
0.0
 11
47.5358983849
 21
74.5995642671
 31
0.0
  0
ARC
  5
8E
330
1F
100
AcDbEntity
  8
0
  6
Continuous
 62
     7
370
    15
100
AcDbCircle
 10
48.5358983849
 20
74.5995642671
 30
0.0
 40
1.000000000000008
100
AcDbArc
 50
120.0
 51
180.0
  0
LINE
  5
8F
330
1F
100
AcDbEntity
  8
0
  6
Continuous
 62
     7
370
    15
100
AcDbLine
 10
48.0358983849
 20
75.4655896708
 30
0.0
 11
50.5
 21
76.8882394016
 31
0.0
  0
ARC
  5
90
330
1F
100
AcDbEntity
  8
0
  6
Continuous
 62
     7
370
    15
100
AcDbCircle
 10
51.0
 20
76.0222139979
 30
0.0
 40
1.000000000000012
100
AcDbArc
 50
60.0
 51
120.0
  0
LINE
  5
91
330
1F
100
AcDbEntity
  8
0
  6
Continuous
 62
     7
370
    15
100
AcDbLine
 10
51.5
 20
76.8882394016
 30
0.0
 11
53.9641016151
 21
75.4655896708
 31
0.0
  0
ARC
  5
92
330
1F
100
AcDbEntity
  8
0
  6
Continuous
 62
     7
370
    15
100
AcDbCircle
 10
53.4641016151
 20
74.5995642671
 30
0.0
 40
1.0
100
AcDbArc
 50
0.0
 51
60.0
  0
LINE
  5
93
330
1F
100
AcDbEntity
  8
0
  6
Continuous
 62
     7
370
    15
100
AcDbLine
 10
54.4641016151
 20
74.5995642671
 30
0.0
 11
54.4641016151
 21
71.7542648054
 31
0.0
  0
ARC
  5
94
330
1F
100
AcDbEntity
  8
0
  6
Continuous
 62
     7
370
    15
100
AcDbCircle
 10
53.4641016151
 20
71.7542648054
 30
0.0
 40
1.000000000000008
100
AcDbArc
 50
300.0
 51
0.0
  0
LINE
  5
95
330
1F
100
AcDbEntity
  8
0
  6
Continuous
 62
     7
370
    15
100
AcDbLine
 10
53.9641016151
 20
70.8882394016
 30
0.0
 11
51.5
 21
69.4655896708
 31
0.0
  0
ARC
  5
96
330
1F
100
AcDbEntity
  8
0
  6
Continuous
 62
     7
370
    15
100
AcDbCircle
 10
51.0
 20
70.3316150746
 30
0.0
 40
1.000000000000012
100
AcDbArc
 50
240.0
 51
300.0
  0
LINE
  5
97
330
1F
100
AcDbEntity
  8
0
  6
Continuous
 62
     7
370
    15
100
AcDbLine
 10
28.0
 20
46.0829037687
 30
0.0
 11
25.5358983849
 21
47.5055534995
 31
0.0
  0
ARC
  5
98
330
1F
100
AcDbEntity
  8
0
  6
Continuous
 62
     7
370
    15
100
AcDbCircle
 10
26.0358983849
 20
48.3715789032
 30
0.0
 40
1.0
100
AcDbArc
 50
180.0
 51
240.0
  0
LINE
  5
99
330
1F
100
AcDbEntity
  8
0
  6
Continuous
 62
     7
370
    15
100
AcDbLine
 10
25.0358983849
 20
48.3715789032
 30
0.0
 11
25.0358983849
 21
51.2168783649
 31
0.0
  0
ARC
  5
9A
330
1F
100
AcDbEntity
  8
0
  6
Continuous
 62
     7
370
    15
100
AcDbCircle
 10
26.0358983849
 20
51.2168783649
 30
0.0
 40
1.0
100
AcDbArc
 50
120.0
 51
180.0
  0
LINE
  5
9B
330
1F
100
AcDbEntity
  8
0
  6
Continuous
 62
     7
370
    15
100
AcDbLine
 10
25.5358983849
 20
52.0829037687
 30
0.0
 11
28.0
 21
53.5055534995
 31
0.0
  0
ARC
  5
9C
330
1F
100
AcDbEntity
  8
0
  6
Continuous
 62
     7
370
    15
100
AcDbCircle
 10
28.5
 20
52.6395280957
 30
0.0
 40
1.000000000000002
100
AcDbArc
 50
60.0
 51
120.0
  0
LINE
  5
9D
330
1F
100
AcDbEntity
  8
0
  6
Continuous
 62
     7
370
    15
100
AcDbLine
 10
29.0
 20
53.5055534995
 30
0.0
 11
31.4641016151
 21
52.0829037687
 31
0.0
  0
ARC
  5
9E
330
1F
100
AcDbEntity
  8
0
  6
Continuous
 62
     7
370
    15
100
AcDbCircle
 10
30.9641016151
 20
51.2168783649
 30
0.0
 40
1.000000000000008
100
AcDbArc
 50
0.0
 51
60.0
  0
LINE
  5
9F
330
1F
100
AcDbEntity
  8
0
  6
Continuous
 62
     7
370
    15
100
AcDbLine
 10
31.9641016151
 20
51.2168783649
 30
0.0
 11
31.9641016151
 21
48.3715789032
 31
0.0
  0
ARC
  5
A0
330
1F
100
AcDbEntity
  8
0
  6
Continuous
 62
     7
370
    15
100
AcDbCircle
 10
30.9641016151
 20
48.3715789032
 30
0.0
 40
1.0
100
AcDbArc
 50
300.0
 51
0.0
  0
LINE
  5
A1
330
1F
100
AcDbEntity
  8
0
  6
Continuous
 62
     7
370
    15
100
AcDbLine
 10
31.4641016151
 20
47.5055534995
 30
0.0
 11
29.0
 21
46.0829037687
 31
0.0
  0
ARC
  5
A2
330
1F
100
AcDbEntity
  8
0
  6
Continuous
 62
     7
370
    15
100
AcDbCircle
 10
28.5
 20
46.9489291724
 30
0.0
 40
1.000000000000002
100
AcDbArc
 50
240.0
 51
300.0
  0
LINE
  5
A3
330
1F
100
AcDbEntity
  8
0
  6
Continuous
 62
     7
370
    15
100
AcDbLine
 10
41.5
 20
53.8771324027
 30
0.0
 11
39.0358983849
 21
55.2997821335
 31
0.0
  0
ARC
  5
A4
330
1F
100
AcDbEntity
  8
0
  6
Continuous
 62
     7
370
    15
100
AcDbCircle
 10
39.5358983849
 20
56.1658075373
 30
0.0
 40
1.000000000000007
100
AcDbArc
 50
180.0
 51
240.0
  0
LINE
  5
A5
330
1F
100
AcDbEntity
  8
0
  6
Continuous
 62
     7
370
    15
100
AcDbLine
 10
38.5358983849
 20
56.1658075373
 30
0.0
 11
38.5358983849
 21
59.0111069989
 31
0.0
  0
ARC
  5
A6
330
1F
100
AcDbEntity
  8
0
  6
Continuous
 62
     7
370
    15
100
AcDbCircle
 10
39.5358983849
 20
59.0111069989
 30
0.0
 40
1.000000000000007
100
AcDbArc
 50
120.0
 51
180.0
  0
LINE
  5
A7
330
1F
100
AcDbEntity
  8
0
  6
Continuous
 62
     7
370
    15
100
AcDbLine
 10
39.0358983849
 20
59.8771324027
 30
0.0
 11
41.5
 21
61.2997821335
 31
0.0
  0
ARC
  5
A8
330
1F
100
AcDbEntity
  8
0
  6
Continuous
 62
     7
370
    15
100
AcDbCircle
 10
42.0
 20
60.4337567297
 30
0.0
 40
1.000000000000002
100
AcDbArc
 50
60.0
 51
120.0
  0
LINE
  5
A9
330
1F
100
AcDbEntity
  8
0
  6
Continuous
 62
     7
370
    15
100
AcDbLine
 10
42.5
 20
61.2997821335
 30
0.0
 11
44.9641016151
 21
59.8771324027
 31
0.0
  0
ARC
  5
AA
330
1F
100
AcDbEntity
  8
0
  6
Continuous
 62
     7
370
    15
100
AcDbCircle
 10
44.4641016151
 20
59.0111069989
 30
0.0
 40
1.000000000000007
100
AcDbArc
 50
0.0
 51
60.0
  0
LINE
  5
AB
330
1F
100
AcDbEntity
  8
0
  6
Continuous
 62
     7
370
    15
100
AcDbLine
 10
45.4641016151
 20
59.0111069989
 30
0.0
 11
45.4641016151
 21
56.1658075373
 31
0.0
  0
ARC
  5
AC
330
1F
100
AcDbEntity
  8
0
  6
Continuous
 62
     7
370
    15
100
AcDbCircle
 10
44.4641016151
 20
56.1658075373
 30
0.0
 40
1.000000000000007
100
AcDbArc
 50
300.0
 51
0.0
  0
LINE
  5
AD
330
1F
100
AcDbEntity
  8
0
  6
Continuous
 62
     7
370
    15
100
AcDbLine
 10
44.9641016151
 20
55.2997821335
 30
0.0
 11
42.5
 21
53.8771324027
 31
0.0
  0
ARC
  5
AE
330
1F
100
AcDbEntity
  8
0
  6
Continuous
 62
     7
370
    15
100
AcDbCircle
 10
42.0
 20
54.7431578065
 30
0.0
 40
1.000000000000008
100
AcDbArc
 50
240.0
 51
300.0
  0
LINE
  5
AF
330
1F
100
AcDbEntity
  8
0
  6
Continuous
 62
     7
370
    15
100
AcDbLine
 10
55.0
 20
61.6713610368
 30
0.0
 11
52.5358983849
 21
63.0940107676
 31
0.0
  0
ARC
  5
B0
330
1F
100
AcDbEntity
  8
0
  6
Continuous
 62
     7
370
    15
100
AcDbCircle
 10
53.0358983849
 20
63.9600361714
 30
0.0
 40
1.000000000000002
100
AcDbArc
 50
180.0
 51
240.0
  0
LINE
  5
B1
330
1F
100
AcDbEntity
  8
0
  6
Continuous
 62
     7
370
    15
100
AcDbLine
 10
52.0358983849
 20
63.9600361714
 30
0.0
 11
52.0358983849
 21
66.805335633
 31
0.0
  0
ARC
  5
B2
330
1F
100
AcDbEntity
  8
0
  6
Continuous
 62
     7
370
    15
100
AcDbCircle
 10
53.0358983849
 20
66.805335633
 30
0.0
 40
1.000000000000008
100
AcDbArc
 50
120.0
 51
180.0
  0
LINE
  5
B3
330
1F
100
AcDbEntity
  8
0
  6
Continuous
 62
     7
370
    15
100
AcDbLine
 10
52.5358983849
 20
67.6713610368
 30
0.0
 11
55.0
 21
69.0940107676
 31
0.0
  0
ARC
  5
B4
330
1F
100
AcDbEntity
  8
0
  6
Continuous
 62
     7
370
    15
100
AcDbCircle
 10
55.5
 20
68.2279853638
 30
0.0
 40
0.9999999999999959
100
AcDbArc
 50
60.0
 51
120.0
  0
LINE
  5
B5
330
1F
100
AcDbEntity
  8
0
  6
Continuous
 62
     7
370
    15
100
AcDbLine
 10
56.0
 20
69.0940107676
 30
0.0
 11
58.4641016151
 21
67.6713610368
 31
0.0
  0
ARC
  5
B6
330
1F
100
AcDbEntity
  8
0
  6
Continuous
 62
     7
370
    15
100
AcDbCircle
 10
57.9641016151
 20
66.805335633
 30
0.0
 40
1.000000000000008
100
AcDbArc
 50
0.0
 51
60.0
  0
LINE
  5
B7
330
1F
100
AcDbEntity
  8
0
  6
Continuous
 62
     7
370
    15
100
AcDbLine
 10
58.9641016151
 20
66.805335633
 30
0.0
 11
58.9641016151
 21
63.9600361714
 31
0.0
  0
ARC
  5
B8
330
1F
100
AcDbEntity
  8
0
  6
Continuous
 62
     7
370
    15
100
AcDbCircle
 10
57.9641016151
 20
63.9600361714
 30
0.0
 40
1.000000000000002
100
AcDbArc
 50
300.0
 51
0.0
  0
LINE
  5
B9
330
1F
100
AcDbEntity
  8
0
  6
Continuous
 62
     7
370
    15
100
AcDbLine
 10
58.4641016151
 20
63.0940107676
 30
0.0
 11
56.0
 21
61.6713610368
 31
0.0
  0
ARC
  5
BA
330
1F
100
AcDbEntity
  8
0
  6
Continuous
 62
     7
370
    15
100
AcDbCircle
 10
55.5
 20
62.5373864406
 30
0.0
 40
1.000000000000008
100
AcDbArc
 50
240.0
 51
300.0
  0
LINE
  5
BB
330
1F
100
AcDbEntity
  8
0
  6
Continuous
 62
     7
370
    15
100
AcDbLine
 10
23.5
 20
38.2886751346
 30
0.0
 11
21.0358983849
 21
39.7113248654
 31
0.0
  0
ARC
  5
BC
330
1F
100
AcDbEntity
  8
0
  6
Continuous
 62
     7
370
    15
100
AcDbCircle
 10
21.5358983849
 20
40.5773502692
 30
0.0
 40
1.000000000000006
100
AcDbArc
 50
180.0
 51
240.0
  0
LINE
  5
BD
330
1F
100
AcDbEntity
  8
0
  6
Continuous
 62
     7
370
    15
100
AcDbLine
 10
20.5358983849
 20
40.5773502692
 30
0.0
 11
20.5358983849
 21
43.4226497308
 31
0.0
  0
ARC
  5
BE
330
1F
100
AcDbEntity
  8
0
  6
Continuous
 62
     7
370
    15
100
AcDbCircle
 10
21.5358983849
 20
43.4226497308
 30
0.0
 40
1.000000000000004
100
AcDbArc
 50
120.0
 51
180.0
  0
LINE
  5
BF
330
1F
100
AcDbEntity
  8
0
  6
Continuous
 62
     7
370
    15
100
AcDbLine
 10
21.0358983849
 20
44.2886751346
 30
0.0
 11
23.5
 21
45.7113248654
 31
0.0
  0
ARC
  5
C0
330
1F
100
AcDbEntity
  8
0
  6
Continuous
 62
     7
370
    15
100
AcDbCircle
 10
24.0
 20
44.8452994616
 30
0.0
 40
1.000000000000002
100
AcDbArc
 50
60.0
 51
120.0
  0
LINE
  5
C1
330
1F
100
AcDbEntity
  8
0
  6
Continuous
 62
     7
370
    15
100
AcDbLine
 10
24.5
 20
45.7113248654
 30
0.0
 11
26.9641016151
 21
44.2886751346
 31
0.0
  0
ARC
  5
C2
330
1F
100
AcDbEntity
  8
0
  6
Continuous
 62
     7
370
    15
100
AcDbCircle
 10
26.4641016151
 20
43.4226497308
 30
0.0
 40
1.000000000000004
100
AcDbArc
 50
0.0
 51
60.0
  0
LINE
  5
C3
330
1F
100
AcDbEntity
  8
0
  6
Continuous
 62
     7
370
    15
100
AcDbLine
 10
27.4641016151
 20
43.4226497308
 30
0.0
 11
27.4641016151
 21
40.5773502692
 31
0.0
  0
ARC
  5
C4
330
1F
100
AcDbEntity
  8
0
  6
Continuous
 62
     7
370
    15
100
AcDbCircle
 10
26.4641016151
 20
40.5773502692
 30
0.0
 40
1.000000000000004
100
AcDbArc
 50
300.0
 51
0.0
  0
LINE
  5
C5
330
1F
100
AcDbEntity
  8
0
  6
Continuous
 62
     7
370
    15
100
AcDbLine
 10
26.9641016151
 20
39.7113248654
 30
0.0
 11
24.5
 21
38.2886751346
 31
0.0
  0
ARC
  5
C6
330
1F
100
AcDbEntity
  8
0
  6
Continuous
 62
     7
370
    15
100
AcDbCircle
 10
24.0
 20
39.1547005384
 30
0.0
 40
1.0
100
AcDbArc
 50
240.0
 51
300.0
  0
LINE
  5
C7
330
1F
100
AcDbEntity
  8
0
  6
Continuous
 62
     7
370
    15
100
AcDbLine
 10
37.0
 20
46.0829037687
 30
0.0
 11
34.5358983849
 21
47.5055534995
 31
0.0
  0
ARC
  5
C8
330
1F
100
AcDbEntity
  8
0
  6
Continuous
 62
     7
370
    15
100
AcDbCircle
 10
35.0358983849
 20
48.3715789032
 30
0.0
 40
1.000000000000002
100
AcDbArc
 50
180.0
 51
240.0
  0
LINE
  5
C9
330
1F
100
AcDbEntity
  8
0
  6
Continuous
 62
     7
370
    15
100
AcDbLine
 10
34.0358983849
 20
48.3715789032
 30
0.0
 11
34.0358983849
 21
51.2168783649
 31
0.0
  0
ARC
  5
CA
330
1F
100
AcDbEntity
  8
0
  6
Continuous
 62
     7
370
    15
100
AcDbCircle
 10
35.0358983849
 20
51.2168783649
 30
0.0
 40
1.0
100
AcDbArc
 50
120.0
 51
180.0
  0
LINE
  5
CB
330
1F
100
AcDbEntity
  8
0
  6
Continuous
 62
     7
370
    15
100
AcDbLine
 10
34.5358983849
 20
52.0829037687
 30
0.0
 11
37.0
 21
53.5055534995
 31
0.0
  0
ARC
  5
CC
330
1F
100
AcDbEntity
  8
0
  6
Continuous
 62
     7
370
    15
100
AcDbCircle
 10
37.5
 20
52.6395280957
 30
0.0
 40
1.000000000000008
100
AcDbArc
 50
60.0
 51
120.0
  0
LINE
  5
CD
330
1F
100
AcDbEntity
  8
0
  6
Continuous
 62
     7
370
    15
100
AcDbLine
 10
38.0
 20
53.5055534995
 30
0.0
 11
40.4641016151
 21
52.0829037687
 31
0.0
  0
ARC
  5
CE
330
1F
100
AcDbEntity
  8
0
  6
Continuous
 62
     7
370
    15
100
AcDbCircle
 10
39.9641016151
 20
51.2168783649
 30
0.0
 40
1.000000000000002
100
AcDbArc
 50
0.0
 51
60.0
  0
LINE
  5
CF
330
1F
100
AcDbEntity
  8
0
  6
Continuous
 62
     7
370
    15
100
AcDbLine
 10
40.9641016151
 20
51.2168783649
 30
0.0
 11
40.9641016151
 21
48.3715789032
 31
0.0
  0
ARC
  5
D0
330
1F
100
AcDbEntity
  8
0
  6
Continuous
 62
     7
370
    15
100
AcDbCircle
 10
39.9641016151
 20
48.3715789032
 30
0.0
 40
1.0
100
AcDbArc
 50
300.0
 51
0.0
  0
LINE
  5
D1
330
1F
100
AcDbEntity
  8
0
  6
Continuous
 62
     7
370
    15
100
AcDbLine
 10
40.4641016151
 20
47.5055534995
 30
0.0
 11
38.0
 21
46.0829037687
 31
0.0
  0
ARC
  5
D2
330
1F
100
AcDbEntity
  8
0
  6
Continuous
 62
     7
370
    15
100
AcDbCircle
 10
37.5
 20
46.9489291724
 30
0.0
 40
1.000000000000002
100
AcDbArc
 50
240.0
 51
300.0
  0
LINE
  5
D3
330
1F
100
AcDbEntity
  8
0
  6
Continuous
 62
     7
370
    15
100
AcDbLine
 10
50.5
 20
53.8771324027
 30
0.0
 11
48.0358983849
 21
55.2997821335
 31
0.0
  0
ARC
  5
D4
330
1F
100
AcDbEntity
  8
0
  6
Continuous
 62
     7
370
    15
100
AcDbCircle
 10
48.5358983849
 20
56.1658075373
 30
0.0
 40
1.000000000000002
100
AcDbArc
 50
180.0
 51
240.0
  0
LINE
  5
D5
330
1F
100
AcDbEntity
  8
0
  6
Continuous
 62
     7
370
    15
100
AcDbLine
 10
47.5358983849
 20
56.1658075373
 30
0.0
 11
47.5358983849
 21
59.0111069989
 31
0.0
  0
ARC
  5
D6
330
1F
100
AcDbEntity
  8
0
  6
Continuous
 62
     7
370
    15
100
AcDbCircle
 10
48.5358983849
 20
59.0111069989
 30
0.0
 40
1.0
100
AcDbArc
 50
120.0
 51
180.0
  0
LINE
  5
D7
330
1F
100
AcDbEntity
  8
0
  6
Continuous
 62
     7
370
    15
100
AcDbLine
 10
48.0358983849
 20
59.8771324027
 30
0.0
 11
50.5
 21
61.2997821335
 31
0.0
  0
ARC
  5
D8
330
1F
100
AcDbEntity
  8
0
  6
Continuous
 62
     7
370
    15
100
AcDbCircle
 10
51.0
 20
60.4337567297
 30
0.0
 40
1.000000000000002
100
AcDbArc
 50
60.0
 51
120.0
  0
LINE
  5
D9
330
1F
100
AcDbEntity
  8
0
  6
Continuous
 62
     7
370
    15
100
AcDbLine
 10
51.5
 20
61.2997821335
 30
0.0
 11
53.9641016151
 21
59.8771324027
 31
0.0
  0
ARC
  5
DA
330
1F
100
AcDbEntity
  8
0
  6
Continuous
 62
     7
370
    15
100
AcDbCircle
 10
53.4641016151
 20
59.0111069989
 30
0.0
 40
1.000000000000002
100
AcDbArc
 50
0.0
 51
60.0
  0
LINE
  5
DB
330
1F
100
AcDbEntity
  8
0
  6
Continuous
 62
     7
370
    15
100
AcDbLine
 10
54.4641016151
 20
59.0111069989
 30
0.0
 11
54.4641016151
 21
56.1658075373
 31
0.0
  0
ARC
  5
DC
330
1F
100
AcDbEntity
  8
0
  6
Continuous
 62
     7
370
    15
100
AcDbCircle
 10
53.4641016151
 20
56.1658075373
 30
0.0
 40
1.0
100
AcDbArc
 50
300.0
 51
0.0
  0
LINE
  5
DD
330
1F
100
AcDbEntity
  8
0
  6
Continuous
 62
     7
370
    15
100
AcDbLine
 10
53.9641016151
 20
55.2997821335
 30
0.0
 11
51.5
 21
53.8771324027
 31
0.0
  0
ARC
  5
DE
330
1F
100
AcDbEntity
  8
0
  6
Continuous
 62
     7
370
    15
100
AcDbCircle
 10
51.0
 20
54.7431578065
 30
0.0
 40
1.000000000000008
100
AcDbArc
 50
240.0
 51
300.0
  0
LINE
  5
DF
330
1F
100
AcDbEntity
  8
0
  6
Continuous
 62
     7
370
    15
100
AcDbLine
 10
64.0
 20
61.6713610368
 30
0.0
 11
61.5358983849
 21
63.0940107676
 31
0.0
  0
ARC
  5
E0
330
1F
100
AcDbEntity
  8
0
  6
Continuous
 62
     7
370
    15
100
AcDbCircle
 10
62.0358983849
 20
63.9600361714
 30
0.0
 40
1.000000000000002
100
AcDbArc
 50
180.0
 51
240.0
  0
LINE
  5
E1
330
1F
100
AcDbEntity
  8
0
  6
Continuous
 62
     7
370
    15
100
AcDbLine
 10
61.0358983849
 20
63.9600361714
 30
0.0
 11
61.0358983849
 21
66.805335633
 31
0.0
  0
ARC
  5
E2
330
1F
100
AcDbEntity
  8
0
  6
Continuous
 62
     7
370
    15
100
AcDbCircle
 10
62.0358983849
 20
66.805335633
 30
0.0
 40
1.000000000000008
100
AcDbArc
 50
120.0
 51
180.0
  0
LINE
  5
E3
330
1F
100
AcDbEntity
  8
0
  6
Continuous
 62
     7
370
    15
100
AcDbLine
 10
61.5358983849
 20
67.6713610368
 30
0.0
 11
64.0
 21
69.0940107676
 31
0.0
  0
ARC
  5
E4
330
1F
100
AcDbEntity
  8
0
  6
Continuous
 62
     7
370
    15
100
AcDbCircle
 10
64.5
 20
68.2279853638
 30
0.0
 40
0.9999999999999959
100
AcDbArc
 50
60.0
 51
120.0
  0
LINE
  5
E5
330
1F
100
AcDbEntity
  8
0
  6
Continuous
 62
     7
370
    15
100
AcDbLine
 10
65.0
 20
69.0940107676
 30
0.0
 11
67.4641016151
 21
67.6713610368
 31
0.0
  0
ARC
  5
E6
330
1F
100
AcDbEntity
  8
0
  6
Continuous
 62
     7
370
    15
100
AcDbCircle
 10
66.9641016151
 20
66.805335633
 30
0.0
 40
1.000000000000008
100
AcDbArc
 50
0.0
 51
60.0
  0
LINE
  5
E7
330
1F
100
AcDbEntity
  8
0
  6
Continuous
 62
     7
370
    15
100
AcDbLine
 10
67.9641016151
 20
66.805335633
 30
0.0
 11
67.9641016151
 21
63.9600361714
 31
0.0
  0
ARC
  5
E8
330
1F
100
AcDbEntity
  8
0
  6
Continuous
 62
     7
370
    15
100
AcDbCircle
 10
66.9641016151
 20
63.9600361714
 30
0.0
 40
1.0
100
AcDbArc
 50
300.0
 51
0.0
  0
LINE
  5
E9
330
1F
100
AcDbEntity
  8
0
  6
Continuous
 62
     7
370
    15
100
AcDbLine
 10
67.4641016151
 20
63.0940107676
 30
0.0
 11
65.0
 21
61.6713610368
 31
0.0
  0
ARC
  5
EA
330
1F
100
AcDbEntity
  8
0
  6
Continuous
 62
     7
370
    15
100
AcDbCircle
 10
64.5
 20
62.5373864406
 30
0.0
 40
1.000000000000002
100
AcDbArc
 50
240.0
 51
300.0
  0
LINE
  5
EB
330
1F
100
AcDbEntity
  8
0
  6
Continuous
 62
     7
370
    15
100
AcDbLine
 10
28.0
 20
30.4944465005
 30
0.0
 11
25.5358983849
 21
31.9170962313
 31
0.0
  0
ARC
  5
EC
330
1F
100
AcDbEntity
  8
0
  6
Continuous
 62
     7
370
    15
100
AcDbCircle
 10
26.0358983849
 20
32.7831216351
 30
0.0
 40
1.0
100
AcDbArc
 50
180.0
 51
240.0
  0
LINE
  5
ED
330
1F
100
AcDbEntity
  8
0
  6
Continuous
 62
     7
370
    15
100
AcDbLine
 10
25.0358983849
 20
32.7831216351
 30
0.0
 11
25.0358983849
 21
35.6284210968
 31
0.0
  0
ARC
  5
EE
330
1F
100
AcDbEntity
  8
0
  6
Continuous
 62
     7
370
    15
100
AcDbCircle
 10
26.0358983849
 20
35.6284210968
 30
0.0
 40
1.0
100
AcDbArc
 50
120.0
 51
180.0
  0
LINE
  5
EF
330
1F
100
AcDbEntity
  8
0
  6
Continuous
 62
     7
370
    15
100
AcDbLine
 10
25.5358983849
 20
36.4944465005
 30
0.0
 11
28.0
 21
37.9170962313
 31
0.0
  0
ARC
  5
F0
330
1F
100
AcDbEntity
  8
0
  6
Continuous
 62
     7
370
    15
100
AcDbCircle
 10
28.5
 20
37.0510708276
 30
0.0
 40
1.000000000000008
100
AcDbArc
 50
60.0
 51
120.0
  0
LINE
  5
F1
330
1F
100
AcDbEntity
  8
0
  6
Continuous
 62
     7
370
    15
100
AcDbLine
 10
29.0
 20
37.9170962313
 30
0.0
 11
31.4641016151
 21
36.4944465005
 31
0.0
  0
ARC
  5
F2
330
1F
100
AcDbEntity
  8
0
  6
Continuous
 62
     7
370
    15
100
AcDbCircle
 10
30.9641016151
 20
35.6284210968
 30
0.0
 40
1.000000000000002
100
AcDbArc
 50
0.0
 51
60.0
  0
LINE
  5
F3
330
1F
100
AcDbEntity
  8
0
  6
Continuous
 62
     7
370
    15
100
AcDbLine
 10
31.9641016151
 20
35.6284210968
 30
0.0
 11
31.9641016151
 21
32.7831216351
 31
0.0
  0
ARC
  5
F4
330
1F
100
AcDbEntity
  8
0
  6
Continuous
 62
     7
370
    15
100
AcDbCircle
 10
30.9641016151
 20
32.7831216351
 30
0.0
 40
1.000000000000004
100
AcDbArc
 50
300.0
 51
0.0
  0
LINE
  5
F5
330
1F
100
AcDbEntity
  8
0
  6
Continuous
 62
     7
370
    15
100
AcDbLine
 10
31.4641016151
 20
31.9170962313
 30
0.0
 11
29.0
 21
30.4944465005
 31
0.0
  0
ARC
  5
F6
330
1F
100
AcDbEntity
  8
0
  6
Continuous
 62
     7
370
    15
100
AcDbCircle
 10
28.5
 20
31.3604719043
 30
0.0
 40
1.000000000000001
100
AcDbArc
 50
240.0
 51
300.0
  0
LINE
  5
F7
330
1F
100
AcDbEntity
  8
0
  6
Continuous
 62
     7
370
    15
100
AcDbLine
 10
41.5
 20
38.2886751346
 30
0.0
 11
39.0358983849
 21
39.7113248654
 31
0.0
  0
ARC
  5
F8
330
1F
100
AcDbEntity
  8
0
  6
Continuous
 62
     7
370
    15
100
AcDbCircle
 10
39.5358983849
 20
40.5773502692
 30
0.0
 40
1.000000000000008
100
AcDbArc
 50
180.0
 51
240.0
  0
LINE
  5
F9
330
1F
100
AcDbEntity
  8
0
  6
Continuous
 62
     7
370
    15
100
AcDbLine
 10
38.5358983849
 20
40.5773502692
 30
0.0
 11
38.5358983849
 21
43.4226497308
 31
0.0
  0
ARC
  5
FA
330
1F
100
AcDbEntity
  8
0
  6
Continuous
 62
     7
370
    15
100
AcDbCircle
 10
39.5358983849
 20
43.4226497308
 30
0.0
 40
1.000000000000007
100
AcDbArc
 50
120.0
 51
180.0
  0
LINE
  5
FB
330
1F
100
AcDbEntity
  8
0
  6
Continuous
 62
     7
370
    15
100
AcDbLine
 10
39.0358983849
 20
44.2886751346
 30
0.0
 11
41.5
 21
45.7113248654
 31
0.0
  0
ARC
  5
FC
330
1F
100
AcDbEntity
  8
0
  6
Continuous
 62
     7
370
    15
100
AcDbCircle
 10
42.0
 20
44.8452994616
 30
0.0
 40
1.000000000000002
100
AcDbArc
 50
60.0
 51
120.0
  0
LINE
  5
FD
330
1F
100
AcDbEntity
  8
0
  6
Continuous
 62
     7
370
    15
100
AcDbLine
 10
42.5
 20
45.7113248654
 30
0.0
 11
44.9641016151
 21
44.2886751346
 31
0.0
  0
ARC
  5
FE
330
1F
100
AcDbEntity
  8
0
  6
Continuous
 62
     7
370
    15
100
AcDbCircle
 10
44.4641016151
 20
43.4226497308
 30
0.0
 40
1.000000000000007
100
AcDbArc
 50
0.0
 51
60.0
  0
LINE
  5
FF
330
1F
100
AcDbEntity
  8
0
  6
Continuous
 62
     7
370
    15
100
AcDbLine
 10
45.4641016151
 20
43.4226497308
 30
0.0
 11
45.4641016151
 21
40.5773502692
 31
0.0
  0
ARC
  5
100
330
1F
100
AcDbEntity
  8
0
  6
Continuous
 62
     7
370
    15
100
AcDbCircle
 10
44.4641016151
 20
40.5773502692
 30
0.0
 40
1.000000000000007
100
AcDbArc
 50
300.0
 51
0.0
  0
LINE
  5
101
330
1F
100
AcDbEntity
  8
0
  6
Continuous
 62
     7
370
    15
100
AcDbLine
 10
44.9641016151
 20
39.7113248654
 30
0.0
 11
42.5
 21
38.2886751346
 31
0.0
  0
ARC
  5
102
330
1F
100
AcDbEntity
  8
0
  6
Continuous
 62
     7
370
    15
100
AcDbCircle
 10
42.0
 20
39.1547005384
 30
0.0
 40
1.000000000000002
100
AcDbArc
 50
240.0
 51
300.0
  0
LINE
  5
103
330
1F
100
AcDbEntity
  8
0
  6
Continuous
 62
     7
370
    15
100
AcDbLine
 10
55.0
 20
46.0829037687
 30
0.0
 11
52.5358983849
 21
47.5055534995
 31
0.0
  0
ARC
  5
104
330
1F
100
AcDbEntity
  8
0
  6
Continuous
 62
     7
370
    15
100
AcDbCircle
 10
53.0358983849
 20
48.3715789032
 30
0.0
 40
1.000000000000002
100
AcDbArc
 50
180.0
 51
240.0
  0
LINE
  5
105
330
1F
100
AcDbEntity
  8
0
  6
Continuous
 62
     7
370
    15
100
AcDbLine
 10
52.0358983849
 20
48.3715789032
 30
0.0
 11
52.0358983849
 21
51.2168783649
 31
0.0
  0
ARC
  5
106
330
1F
100
AcDbEntity
  8
0
  6
Continuous
 62
     7
370
    15
100
AcDbCircle
 10
53.0358983849
 20
51.2168783649
 30
0.0
 40
1.0
100
AcDbArc
 50
120.0
 51
180.0
  0
LINE
  5
107
330
1F
100
AcDbEntity
  8
0
  6
Continuous
 62
     7
370
    15
100
AcDbLine
 10
52.5358983849
 20
52.0829037687
 30
0.0
 11
55.0
 21
53.5055534995
 31
0.0
  0
ARC
  5
108
330
1F
100
AcDbEntity
  8
0
  6
Continuous
 62
     7
370
    15
100
AcDbCircle
 10
55.5
 20
52.6395280957
 30
0.0
 40
1.000000000000002
100
AcDbArc
 50
60.0
 51
120.0
  0
LINE
  5
109
330
1F
100
AcDbEntity
  8
0
  6
Continuous
 62
     7
370
    15
100
AcDbLine
 10
56.0
 20
53.5055534995
 30
0.0
 11
58.4641016151
 21
52.0829037687
 31
0.0
  0
ARC
  5
10A
330
1F
100
AcDbEntity
  8
0
  6
Continuous
 62
     7
370
    15
100
AcDbCircle
 10
57.9641016151
 20
51.2168783649
 30
0.0
 40
1.000000000000008
100
AcDbArc
 50
0.0
 51
60.0
  0
LINE
  5
10B
330
1F
100
AcDbEntity
  8
0
  6
Continuous
 62
     7
370
    15
100
AcDbLine
 10
58.9641016151
 20
51.2168783649
 30
0.0
 11
58.9641016151
 21
48.3715789032
 31
0.0
  0
ARC
  5
10C
330
1F
100
AcDbEntity
  8
0
  6
Continuous
 62
     7
370
    15
100
AcDbCircle
 10
57.9641016151
 20
48.3715789032
 30
0.0
 40
1.0
100
AcDbArc
 50
300.0
 51
0.0
  0
LINE
  5
10D
330
1F
100
AcDbEntity
  8
0
  6
Continuous
 62
     7
370
    15
100
AcDbLine
 10
58.4641016151
 20
47.5055534995
 30
0.0
 11
56.0
 21
46.0829037687
 31
0.0
  0
ARC
  5
10E
330
1F
100
AcDbEntity
  8
0
  6
Continuous
 62
     7
370
    15
100
AcDbCircle
 10
55.5
 20
46.9489291724
 30
0.0
 40
1.000000000000002
100
AcDbArc
 50
240.0
 51
300.0
  0
LINE
  5
10F
330
1F
100
AcDbEntity
  8
0
  6
Continuous
 62
     7
370
    15
100
AcDbLine
 10
68.5
 20
53.8771324027
 30
0.0
 11
66.0358983849
 21
55.2997821335
 31
0.0
  0
ARC
  5
110
330
1F
100
AcDbEntity
  8
0
  6
Continuous
 62
     7
370
    15
100
AcDbCircle
 10
66.5358983849
 20
56.1658075373
 30
0.0
 40
1.000000000000002
100
AcDbArc
 50
180.0
 51
240.0
  0
LINE
  5
111
330
1F
100
AcDbEntity
  8
0
  6
Continuous
 62
     7
370
    15
100
AcDbLine
 10
65.5358983849
 20
56.1658075373
 30
0.0
 11
65.5358983849
 21
59.0111069989
 31
0.0
  0
ARC
  5
112
330
1F
100
AcDbEntity
  8
0
  6
Continuous
 62
     7
370
    15
100
AcDbCircle
 10
66.5358983849
 20
59.0111069989
 30
0.0
 40
1.0
100
AcDbArc
 50
120.0
 51
180.0
  0
LINE
  5
113
330
1F
100
AcDbEntity
  8
0
  6
Continuous
 62
     7
370
    15
100
AcDbLine
 10
66.0358983849
 20
59.8771324027
 30
0.0
 11
68.5
 21
61.2997821335
 31
0.0
  0
ARC
  5
114
330
1F
100
AcDbEntity
  8
0
  6
Continuous
 62
     7
370
    15
100
AcDbCircle
 10
69.0
 20
60.4337567297
 30
0.0
 40
1.000000000000002
100
AcDbArc
 50
60.0
 51
120.0
  0
LINE
  5
115
330
1F
100
AcDbEntity
  8
0
  6
Continuous
 62
     7
370
    15
100
AcDbLine
 10
69.5
 20
61.2997821335
 30
0.0
 11
71.9641016151
 21
59.8771324027
 31
0.0
  0
ARC
  5
116
330
1F
100
AcDbEntity
  8
0
  6
Continuous
 62
     7
370
    15
100
AcDbCircle
 10
71.4641016151
 20
59.0111069989
 30
0.0
 40
1.000000000000002
100
AcDbArc
 50
0.0
 51
60.0
  0
LINE
  5
117
330
1F
100
AcDbEntity
  8
0
  6
Continuous
 62
     7
370
    15
100
AcDbLine
 10
72.4641016151
 20
59.0111069989
 30
0.0
 11
72.4641016151
 21
56.1658075373
 31
0.0
  0
ARC
  5
118
330
1F
100
AcDbEntity
  8
0
  6
Continuous
 62
     7
370
    15
100
AcDbCircle
 10
71.4641016151
 20
56.1658075373
 30
0.0
 40
1.0
100
AcDbArc
 50
300.0
 51
0.0
  0
LINE
  5
119
330
1F
100
AcDbEntity
  8
0
  6
Continuous
 62
     7
370
    15
100
AcDbLine
 10
71.9641016151
 20
55.2997821335
 30
0.0
 11
69.5
 21
53.8771324027
 31
0.0
  0
ARC
  5
11A
330
1F
100
AcDbEntity
  8
0
  6
Continuous
 62
     7
370
    15
100
AcDbCircle
 10
69.0
 20
54.7431578065
 30
0.0
 40
1.000000000000014
100
AcDbArc
 50
240.0
 51
300.0
  0
LINE
  5
11B
330
1F
100
AcDbEntity
  8
0
  6
Continuous
 62
     7
370
    15
100
AcDbLine
 10
19.0
 20
30.4944465005
 30
0.0
 11
16.5358983849
 21
31.9170962313
 31
0.0
  0
ARC
  5
11C
330
1F
100
AcDbEntity
  8
0
  6
Continuous
 62
     7
370
    15
100
AcDbCircle
 10
17.0358983849
 20
32.7831216351
 30
0.0
 40
1.000000000000004
100
AcDbArc
 50
180.0
 51
240.0
  0
LINE
  5
11D
330
1F
100
AcDbEntity
  8
0
  6
Continuous
 62
     7
370
    15
100
AcDbLine
 10
16.0358983849
 20
32.7831216351
 30
0.0
 11
16.0358983849
 21
35.6284210968
 31
0.0
  0
ARC
  5
11E
330
1F
100
AcDbEntity
  8
0
  6
Continuous
 62
     7
370
    15
100
AcDbCircle
 10
17.0358983849
 20
35.6284210968
 30
0.0
 40
1.000000000000004
100
AcDbArc
 50
120.0
 51
180.0
  0
LINE
  5
11F
330
1F
100
AcDbEntity
  8
0
  6
Continuous
 62
     7
370
    15
100
AcDbLine
 10
16.5358983849
 20
36.4944465005
 30
0.0
 11
19.0
 21
37.9170962313
 31
0.0
  0
ARC
  5
120
330
1F
100
AcDbEntity
  8
0
  6
Continuous
 62
     7
370
    15
100
AcDbCircle
 10
19.5
 20
37.0510708276
 30
0.0
 40
1.00000000000001
100
AcDbArc
 50
60.0
 51
120.0
  0
LINE
  5
121
330
1F
100
AcDbEntity
  8
0
  6
Continuous
 62
     7
370
    15
100
AcDbLine
 10
20.0
 20
37.9170962313
 30
0.0
 11
22.4641016151
 21
36.4944465005
 31
0.0
  0
ARC
  5
122
330
1F
100
AcDbEntity
  8
0
  6
Continuous
 62
     7
370
    15
100
AcDbCircle
 10
21.9641016151
 20
35.6284210968
 30
0.0
 40
1.000000000000004
100
AcDbArc
 50
0.0
 51
60.0
  0
LINE
  5
123
330
1F
100
AcDbEntity
  8
0
  6
Continuous
 62
     7
370
    15
100
AcDbLine
 10
22.9641016151
 20
35.6284210968
 30
0.0
 11
22.9641016151
 21
32.7831216351
 31
0.0
  0
ARC
  5
124
330
1F
100
AcDbEntity
  8
0
  6
Continuous
 62
     7
370
    15
100
AcDbCircle
 10
21.9641016151
 20
32.7831216351
 30
0.0
 40
1.000000000000004
100
AcDbArc
 50
300.0
 51
0.0
  0
LINE
  5
125
330
1F
100
AcDbEntity
  8
0
  6
Continuous
 62
     7
370
    15
100
AcDbLine
 10
22.4641016151
 20
31.9170962313
 30
0.0
 11
20.0
 21
30.4944465005
 31
0.0
  0
ARC
  5
126
330
1F
100
AcDbEntity
  8
0
  6
Continuous
 62
     7
370
    15
100
AcDbCircle
 10
19.5
 20
31.3604719043
 30
0.0
 40
1.0
100
AcDbArc
 50
240.0
 51
300.0
  0
LINE
  5
127
330
1F
100
AcDbEntity
  8
0
  6
Continuous
 62
     7
370
    15
100
AcDbLine
 10
41.5
 20
22.7002178665
 30
0.0
 11
39.0358983849
 21
24.1228675973
 31
0.0
  0
ARC
  5
128
330
1F
100
AcDbEntity
  8
0
  6
Continuous
 62
     7
370
    15
100
AcDbCircle
 10
39.5358983849
 20
24.9888930011
 30
0.0
 40
1.000000000000007
100
AcDbArc
 50
180.0
 51
240.0
  0
LINE
  5
129
330
1F
100
AcDbEntity
  8
0
  6
Continuous
 62
     7
370
    15
100
AcDbLine
 10
38.5358983849
 20
24.9888930011
 30
0.0
 11
38.5358983849
 21
27.8341924627
 31
0.0
  0
ARC
  5
12A
330
1F
100
AcDbEntity
  8
0
  6
Continuous
 62
     7
370
    15
100
AcDbCircle
 10
39.5358983849
 20
27.8341924627
 30
0.0
 40
1.000000000000007
100
AcDbArc
 50
120.0
 51
180.0
  0
LINE
  5
12B
330
1F
100
AcDbEntity
  8
0
  6
Continuous
 62
     7
370
    15
100
AcDbLine
 10
39.0358983849
 20
28.7002178665
 30
0.0
 11
41.5
 21
30.1228675973
 31
0.0
  0
ARC
  5
12C
330
1F
100
AcDbEntity
  8
0
  6
Continuous
 62
     7
370
    15
100
AcDbCircle
 10
42.0
 20
29.2568421935
 30
0.0
 40
1.000000000000006
100
AcDbArc
 50
60.0
 51
120.0
  0
LINE
  5
12D
330
1F
100
AcDbEntity
  8
0
  6
Continuous
 62
     7
370
    15
100
AcDbLine
 10
42.5
 20
30.1228675973
 30
0.0
 11
44.9641016151
 21
28.7002178665
 31
0.0
  0
ARC
  5
12E
330
1F
100
AcDbEntity
  8
0
  6
Continuous
 62
     7
370
    15
100
AcDbCircle
 10
44.4641016151
 20
27.8341924627
 30
0.0
 40
1.000000000000007
100
AcDbArc
 50
0.0
 51
60.0
  0
LINE
  5
12F
330
1F
100
AcDbEntity
  8
0
  6
Continuous
 62
     7
370
    15
100
AcDbLine
 10
45.4641016151
 20
27.8341924627
 30
0.0
 11
45.4641016151
 21
24.9888930011
 31
0.0
  0
ARC
  5
130
330
1F
100
AcDbEntity
  8
0
  6
Continuous
 62
     7
370
    15
100
AcDbCircle
 10
44.4641016151
 20
24.9888930011
 30
0.0
 40
1.000000000000007
100
AcDbArc
 50
300.0
 51
0.0
  0
LINE
  5
131
330
1F
100
AcDbEntity
  8
0
  6
Continuous
 62
     7
370
    15
100
AcDbLine
 10
44.9641016151
 20
24.1228675973
 30
0.0
 11
42.5
 21
22.7002178665
 31
0.0
  0
ARC
  5
132
330
1F
100
AcDbEntity
  8
0
  6
Continuous
 62
     7
370
    15
100
AcDbCircle
 10
42.0
 20
23.5662432703
 30
0.0
 40
0.9999999999999994
100
AcDbArc
 50
240.0
 51
300.0
  0
LINE
  5
133
330
1F
100
AcDbEntity
  8
0
  6
Continuous
 62
     7
370
    15
100
AcDbLine
 10
55.0
 20
30.4944465005
 30
0.0
 11
52.5358983849
 21
31.9170962313
 31
0.0
  0
ARC
  5
134
330
1F
100
AcDbEntity
  8
0
  6
Continuous
 62
     7
370
    15
100
AcDbCircle
 10
53.0358983849
 20
32.7831216351
 30
0.0
 40
1.000000000000002
100
AcDbArc
 50
180.0
 51
240.0
  0
LINE
  5
135
330
1F
100
AcDbEntity
  8
0
  6
Continuous
 62
     7
370
    15
100
AcDbLine
 10
52.0358983849
 20
32.7831216351
 30
0.0
 11
52.0358983849
 21
35.6284210968
 31
0.0
  0
ARC
  5
136
330
1F
100
AcDbEntity
  8
0
  6
Continuous
 62
     7
370
    15
100
AcDbCircle
 10
53.0358983849
 20
35.6284210968
 30
0.0
 40
1.0
100
AcDbArc
 50
120.0
 51
180.0
  0
LINE
  5
137
330
1F
100
AcDbEntity
  8
0
  6
Continuous
 62
     7
370
    15
100
AcDbLine
 10
52.5358983849
 20
36.4944465005
 30
0.0
 11
55.0
 21
37.9170962313
 31
0.0
  0
ARC
  5
138
330
1F
100
AcDbEntity
  8
0
  6
Continuous
 62
     7
370
    15
100
AcDbCircle
 10
55.5
 20
37.0510708276
 30
0.0
 40
1.000000000000008
100
AcDbArc
 50
60.0
 51
120.0
  0
LINE
  5
139
330
1F
100
AcDbEntity
  8
0
  6
Continuous
 62
     7
370
    15
100
AcDbLine
 10
56.0
 20
37.9170962313
 30
0.0
 11
58.4641016151
 21
36.4944465005
 31
0.0
  0
ARC
  5
13A
330
1F
100
AcDbEntity
  8
0
  6
Continuous
 62
     7
370
    15
100
AcDbCircle
 10
57.9641016151
 20
35.6284210968
 30
0.0
 40
1.000000000000002
100
AcDbArc
 50
0.0
 51
60.0
  0
LINE
  5
13B
330
1F
100
AcDbEntity
  8
0
  6
Continuous
 62
     7
370
    15
100
AcDbLine
 10
58.9641016151
 20
35.6284210968
 30
0.0
 11
58.9641016151
 21
32.7831216351
 31
0.0
  0
ARC
  5
13C
330
1F
100
AcDbEntity
  8
0
  6
Continuous
 62
     7
370
    15
100
AcDbCircle
 10
57.9641016151
 20
32.7831216351
 30
0.0
 40
1.0
100
AcDbArc
 50
300.0
 51
0.0
  0
LINE
  5
13D
330
1F
100
AcDbEntity
  8
0
  6
Continuous
 62
     7
370
    15
100
AcDbLine
 10
58.4641016151
 20
31.9170962313
 30
0.0
 11
56.0
 21
30.4944465005
 31
0.0
  0
ARC
  5
13E
330
1F
100
AcDbEntity
  8
0
  6
Continuous
 62
     7
370
    15
100
AcDbCircle
 10
55.5
 20
31.3604719043
 30
0.0
 40
1.000000000000002
100
AcDbArc
 50
240.0
 51
300.0
  0
LINE
  5
13F
330
1F
100
AcDbEntity
  8
0
  6
Continuous
 62
     7
370
    15
100
AcDbLine
 10
68.5
 20
38.2886751346
 30
0.0
 11
66.0358983849
 21
39.7113248654
 31
0.0
  0
ARC
  5
140
330
1F
100
AcDbEntity
  8
0
  6
Continuous
 62
     7
370
    15
100
AcDbCircle
 10
66.5358983849
 20
40.5773502692
 30
0.0
 40
1.000000000000008
100
AcDbArc
 50
180.0
 51
240.0
  0
LINE
  5
141
330
1F
100
AcDbEntity
  8
0
  6
Continuous
 62
     7
370
    15
100
AcDbLine
 10
65.5358983849
 20
40.5773502692
 30
0.0
 11
65.5358983849
 21
43.4226497308
 31
0.0
  0
ARC
  5
142
330
1F
100
AcDbEntity
  8
0
  6
Continuous
 62
     7
370
    15
100
AcDbCircle
 10
66.5358983849
 20
43.4226497308
 30
0.0
 40
1.0
100
AcDbArc
 50
120.0
 51
180.0
  0
LINE
  5
143
330
1F
100
AcDbEntity
  8
0
  6
Continuous
 62
     7
370
    15
100
AcDbLine
 10
66.0358983849
 20
44.2886751346
 30
0.0
 11
68.5
 21
45.7113248654
 31
0.0
  0
ARC
  5
144
330
1F
100
AcDbEntity
  8
0
  6
Continuous
 62
     7
370
    15
100
AcDbCircle
 10
69.0
 20
44.8452994616
 30
0.0
 40
1.000000000000002
100
AcDbArc
 50
60.0
 51
120.0
  0
LINE
  5
145
330
1F
100
AcDbEntity
  8
0
  6
Continuous
 62
     7
370
    15
100
AcDbLine
 10
69.5
 20
45.7113248654
 30
0.0
 11
71.9641016151
 21
44.2886751346
 31
0.0
  0
ARC
  5
146
330
1F
100
AcDbEntity
  8
0
  6
Continuous
 62
     7
370
    15
100
AcDbCircle
 10
71.4641016151
 20
43.4226497308
 30
0.0
 40
1.000000000000002
100
AcDbArc
 50
0.0
 51
60.0
  0
LINE
  5
147
330
1F
100
AcDbEntity
  8
0
  6
Continuous
 62
     7
370
    15
100
AcDbLine
 10
72.4641016151
 20
43.4226497308
 30
0.0
 11
72.4641016151
 21
40.5773502692
 31
0.0
  0
ARC
  5
148
330
1F
100
AcDbEntity
  8
0
  6
Continuous
 62
     7
370
    15
100
AcDbCircle
 10
71.4641016151
 20
40.5773502692
 30
0.0
 40
1.000000000000002
100
AcDbArc
 50
300.0
 51
0.0
  0
LINE
  5
149
330
1F
100
AcDbEntity
  8
0
  6
Continuous
 62
     7
370
    15
100
AcDbLine
 10
71.9641016151
 20
39.7113248654
 30
0.0
 11
69.5
 21
38.2886751346
 31
0.0
  0
ARC
  5
14A
330
1F
100
AcDbEntity
  8
0
  6
Continuous
 62
     7
370
    15
100
AcDbCircle
 10
69.0
 20
39.1547005384
 30
0.0
 40
1.000000000000002
100
AcDbArc
 50
240.0
 51
300.0
  0
LINE
  5
14B
330
1F
100
AcDbEntity
  8
0
  6
Continuous
 62
     7
370
    15
100
AcDbLine
 10
73.0
 20
61.6713610368
 30
0.0
 11
70.5358983849
 21
63.0940107676
 31
0.0
  0
ARC
  5
14C
330
1F
100
AcDbEntity
  8
0
  6
Continuous
 62
     7
370
    15
100
AcDbCircle
 10
71.0358983849
 20
63.9600361714
 30
0.0
 40
1.000000000000002
100
AcDbArc
 50
180.0
 51
240.0
  0
LINE
  5
14D
330
1F
100
AcDbEntity
  8
0
  6
Continuous
 62
     7
370
    15
100
AcDbLine
 10
70.0358983849
 20
63.9600361714
 30
0.0
 11
70.0358983849
 21
66.805335633
 31
0.0
  0
ARC
  5
14E
330
1F
100
AcDbEntity
  8
0
  6
Continuous
 62
     7
370
    15
100
AcDbCircle
 10
71.0358983849
 20
66.805335633
 30
0.0
 40
1.000000000000008
100
AcDbArc
 50
120.0
 51
180.0
  0
LINE
  5
14F
330
1F
100
AcDbEntity
  8
0
  6
Continuous
 62
     7
370
    15
100
AcDbLine
 10
70.5358983849
 20
67.6713610368
 30
0.0
 11
73.0
 21
69.0940107676
 31
0.0
  0
ARC
  5
150
330
1F
100
AcDbEntity
  8
0
  6
Continuous
 62
     7
370
    15
100
AcDbCircle
 10
73.5
 20
68.2279853638
 30
0.0
 40
0.9999999999999959
100
AcDbArc
 50
60.0
 51
120.0
  0
LINE
  5
151
330
1F
100
AcDbEntity
  8
0
  6
Continuous
 62
     7
370
    15
100
AcDbLine
 10
74.0
 20
69.0940107676
 30
0.0
 11
76.4641016151
 21
67.6713610368
 31
0.0
  0
ARC
  5
152
330
1F
100
AcDbEntity
  8
0
  6
Continuous
 62
     7
370
    15
100
AcDbCircle
 10
75.9641016151
 20
66.805335633
 30
0.0
 40
1.000000000000008
100
AcDbArc
 50
0.0
 51
60.0
  0
LINE
  5
153
330
1F
100
AcDbEntity
  8
0
  6
Continuous
 62
     7
370
    15
100
AcDbLine
 10
76.9641016151
 20
66.805335633
 30
0.0
 11
76.9641016151
 21
63.9600361714
 31
0.0
  0
ARC
  5
154
330
1F
100
AcDbEntity
  8
0
  6
Continuous
 62
     7
370
    15
100
AcDbCircle
 10
75.9641016151
 20
63.9600361714
 30
0.0
 40
1.0
100
AcDbArc
 50
300.0
 51
0.0
  0
LINE
  5
155
330
1F
100
AcDbEntity
  8
0
  6
Continuous
 62
     7
370
    15
100
AcDbLine
 10
76.4641016151
 20
63.0940107676
 30
0.0
 11
74.0
 21
61.6713610368
 31
0.0
  0
ARC
  5
156
330
1F
100
AcDbEntity
  8
0
  6
Continuous
 62
     7
370
    15
100
AcDbCircle
 10
73.5
 20
62.5373864406
 30
0.0
 40
1.000000000000008
100
AcDbArc
 50
240.0
 51
300.0
  0
LINE
  5
157
330
1F
100
AcDbEntity
  8
0
  6
Continuous
 62
     7
370
    15
100
AcDbLine
 10
37.0
 20
14.9059892324
 30
0.0
 11
34.5358983849
 21
16.3286389632
 31
0.0
  0
ARC
  5
158
330
1F
100
AcDbEntity
  8
0
  6
Continuous
 62
     7
370
    15
100
AcDbCircle
 10
35.0358983849
 20
17.194664367
 30
0.0
 40
1.000000000000002
100
AcDbArc
 50
180.0
 51
240.0
  0
LINE
  5
159
330
1F
100
AcDbEntity
  8
0
  6
Continuous
 62
     7
370
    15
100
AcDbLine
 10
34.0358983849
 20
17.194664367
 30
0.0
 11
34.0358983849
 21
20.0399638286
 31
0.0
  0
ARC
  5
15A
330
1F
100
AcDbEntity
  8
0
  6
Continuous
 62
     7
370
    15
100
AcDbCircle
 10
35.0358983849
 20
20.0399638286
 30
0.0
 40
1.0
100
AcDbArc
 50
120.0
 51
180.0
  0
LINE
  5
15B
330
1F
100
AcDbEntity
  8
0
  6
Continuous
 62
     7
370
    15
100
AcDbLine
 10
34.5358983849
 20
20.9059892324
 30
0.0
 11
37.0
 21
22.3286389632
 31
0.0
  0
ARC
  5
15C
330
1F
100
AcDbEntity
  8
0
  6
Continuous
 62
     7
370
    15
100
AcDbCircle
 10
37.5
 20
21.4626135594
 30
0.0
 40
1.000000000000002
100
AcDbArc
 50
60.0
 51
120.0
  0
LINE
  5
15D
330
1F
100
AcDbEntity
  8
0
  6
Continuous
 62
     7
370
    15
100
AcDbLine
 10
38.0
 20
22.3286389632
 30
0.0
 11
40.4641016151
 21
20.9059892324
 31
0.0
  0
ARC
  5
15E
330
1F
100
AcDbEntity
  8
0
  6
Continuous
 62
     7
370
    15
100
AcDbCircle
 10
39.9641016151
 20
20.0399638286
 30
0.0
 40
1.0
100
AcDbArc
 50
0.0
 51
60.0
  0
LINE
  5
15F
330
1F
100
AcDbEntity
  8
0
  6
Continuous
 62
     7
370
    15
100
AcDbLine
 10
40.9641016151
 20
20.0399638286
 30
0.0
 11
40.9641016151
 21
17.194664367
 31
0.0
  0
ARC
  5
160
330
1F
100
AcDbEntity
  8
0
  6
Continuous
 62
     7
370
    15
100
AcDbCircle
 10
39.9641016151
 20
17.194664367
 30
0.0
 40
1.0
100
AcDbArc
 50
300.0
 51
0.0
  0
LINE
  5
161
330
1F
100
AcDbEntity
  8
0
  6
Continuous
 62
     7
370
    15
100
AcDbLine
 10
40.4641016151
 20
16.3286389632
 30
0.0
 11
38.0
 21
14.9059892324
 31
0.0
  0
ARC
  5
162
330
1F
100
AcDbEntity
  8
0
  6
Continuous
 62
     7
370
    15
100
AcDbCircle
 10
37.5
 20
15.7720146362
 30
0.0
 40
1.0
100
AcDbArc
 50
240.0
 51
300.0
  0
LINE
  5
163
330
1F
100
AcDbEntity
  8
0
  6
Continuous
 62
     7
370
    15
100
AcDbLine
 10
50.5
 20
22.7002178665
 30
0.0
 11
48.0358983849
 21
24.1228675973
 31
0.0
  0
ARC
  5
164
330
1F
100
AcDbEntity
  8
0
  6
Continuous
 62
     7
370
    15
100
AcDbCircle
 10
48.5358983849
 20
24.9888930011
 30
0.0
 40
1.000000000000002
100
AcDbArc
 50
180.0
 51
240.0
  0
LINE
  5
165
330
1F
100
AcDbEntity
  8
0
  6
Continuous
 62
     7
370
    15
100
AcDbLine
 10
47.5358983849
 20
24.9888930011
 30
0.0
 11
47.5358983849
 21
27.8341924627
 31
0.0
  0
ARC
  5
166
330
1F
100
AcDbEntity
  8
0
  6
Continuous
 62
     7
370
    15
100
AcDbCircle
 10
48.5358983849
 20
27.8341924627
 30
0.0
 40
1.0
100
AcDbArc
 50
120.0
 51
180.0
  0
LINE
  5
167
330
1F
100
AcDbEntity
  8
0
  6
Continuous
 62
     7
370
    15
100
AcDbLine
 10
48.0358983849
 20
28.7002178665
 30
0.0
 11
50.5
 21
30.1228675973
 31
0.0
  0
ARC
  5
168
330
1F
100
AcDbEntity
  8
0
  6
Continuous
 62
     7
370
    15
100
AcDbCircle
 10
51.0
 20
29.2568421935
 30
0.0
 40
1.000000000000002
100
AcDbArc
 50
60.0
 51
120.0
  0
LINE
  5
169
330
1F
100
AcDbEntity
  8
0
  6
Continuous
 62
     7
370
    15
100
AcDbLine
 10
51.5
 20
30.1228675973
 30
0.0
 11
53.9641016151
 21
28.7002178665
 31
0.0
  0
ARC
  5
16A
330
1F
100
AcDbEntity
  8
0
  6
Continuous
 62
     7
370
    15
100
AcDbCircle
 10
53.4641016151
 20
27.8341924627
 30
0.0
 40
1.0
100
AcDbArc
 50
0.0
 51
60.0
  0
LINE
  5
16B
330
1F
100
AcDbEntity
  8
0
  6
Continuous
 62
     7
370
    15
100
AcDbLine
 10
54.4641016151
 20
27.8341924627
 30
0.0
 11
54.4641016151
 21
24.9888930011
 31
0.0
  0
ARC
  5
16C
330
1F
100
AcDbEntity
  8
0
  6
Continuous
 62
     7
370
    15
100
AcDbCircle
 10
53.4641016151
 20
24.9888930011
 30
0.0
 40
1.0
100
AcDbArc
 50
300.0
 51
0.0
  0
LINE
  5
16D
330
1F
100
AcDbEntity
  8
0
  6
Continuous
 62
     7
370
    15
100
AcDbLine
 10
53.9641016151
 20
24.1228675973
 30
0.0
 11
51.5
 21
22.7002178665
 31
0.0
  0
ARC
  5
16E
330
1F
100
AcDbEntity
  8
0
  6
Continuous
 62
     7
370
    15
100
AcDbCircle
 10
51.0
 20
23.5662432703
 30
0.0
 40
0.9999999999999994
100
AcDbArc
 50
240.0
 51
300.0
  0
LINE
  5
16F
330
1F
100
AcDbEntity
  8
0
  6
Continuous
 62
     7
370
    15
100
AcDbLine
 10
64.0
 20
30.4944465005
 30
0.0
 11
61.5358983849
 21
31.9170962313
 31
0.0
  0
ARC
  5
170
330
1F
100
AcDbEntity
  8
0
  6
Continuous
 62
     7
370
    15
100
AcDbCircle
 10
62.0358983849
 20
32.7831216351
 30
0.0
 40
1.000000000000002
100
AcDbArc
 50
180.0
 51
240.0
  0
LINE
  5
171
330
1F
100
AcDbEntity
  8
0
  6
Continuous
 62
     7
370
    15
100
AcDbLine
 10
61.0358983849
 20
32.7831216351
 30
0.0
 11
61.0358983849
 21
35.6284210968
 31
0.0
  0
ARC
  5
172
330
1F
100
AcDbEntity
  8
0
  6
Continuous
 62
     7
370
    15
100
AcDbCircle
 10
62.0358983849
 20
35.6284210968
 30
0.0
 40
1.0
100
AcDbArc
 50
120.0
 51
180.0
  0
LINE
  5
173
330
1F
100
AcDbEntity
  8
0
  6
Continuous
 62
     7
370
    15
100
AcDbLine
 10
61.5358983849
 20
36.4944465005
 30
0.0
 11
64.0
 21
37.9170962313
 31
0.0
  0
ARC
  5
174
330
1F
100
AcDbEntity
  8
0
  6
Continuous
 62
     7
370
    15
100
AcDbCircle
 10
64.5
 20
37.0510708276
 30
0.0
 40
1.000000000000008
100
AcDbArc
 50
60.0
 51
120.0
  0
LINE
  5
175
330
1F
100
AcDbEntity
  8
0
  6
Continuous
 62
     7
370
    15
100
AcDbLine
 10
65.0
 20
37.9170962313
 30
0.0
 11
67.4641016151
 21
36.4944465005
 31
0.0
  0
ARC
  5
176
330
1F
100
AcDbEntity
  8
0
  6
Continuous
 62
     7
370
    15
100
AcDbCircle
 10
66.9641016151
 20
35.6284210968
 30
0.0
 40
1.000000000000002
100
AcDbArc
 50
0.0
 51
60.0
  0
LINE
  5
177
330
1F
100
AcDbEntity
  8
0
  6
Continuous
 62
     7
370
    15
100
AcDbLine
 10
67.9641016151
 20
35.6284210968
 30
0.0
 11
67.9641016151
 21
32.7831216351
 31
0.0
  0
ARC
  5
178
330
1F
100
AcDbEntity
  8
0
  6
Continuous
 62
     7
370
    15
100
AcDbCircle
 10
66.9641016151
 20
32.7831216351
 30
0.0
 40
1.0
100
AcDbArc
 50
300.0
 51
0.0
  0
LINE
  5
179
330
1F
100
AcDbEntity
  8
0
  6
Continuous
 62
     7
370
    15
100
AcDbLine
 10
67.4641016151
 20
31.9170962313
 30
0.0
 11
65.0
 21
30.4944465005
 31
0.0
  0
ARC
  5
17A
330
1F
100
AcDbEntity
  8
0
  6
Continuous
 62
     7
370
    15
100
AcDbCircle
 10
64.5
 20
31.3604719043
 30
0.0
 40
0.999999999999999
100
AcDbArc
 50
240.0
 51
300.0
  0
LINE
  5
17B
330
1F
100
AcDbEntity
  8
0
  6
Continuous
 62
     7
370
    15
100
AcDbLine
 10
77.5
 20
38.2886751346
 30
0.0
 11
75.0358983849
 21
39.7113248654
 31
0.0
  0
ARC
  5
17C
330
1F
100
AcDbEntity
  8
0
  6
Continuous
 62
     7
370
    15
100
AcDbCircle
 10
75.5358983849
 20
40.5773502692
 30
0.0
 40
1.000000000000008
100
AcDbArc
 50
180.0
 51
240.0
  0
LINE
  5
17D
330
1F
100
AcDbEntity
  8
0
  6
Continuous
 62
     7
370
    15
100
AcDbLine
 10
74.5358983849
 20
40.5773502692
 30
0.0
 11
74.5358983849
 21
43.4226497308
 31
0.0
  0
ARC
  5
17E
330
1F
100
AcDbEntity
  8
0
  6
Continuous
 62
     7
370
    15
100
AcDbCircle
 10
75.5358983849
 20
43.4226497308
 30
0.0
 40
1.0
100
AcDbArc
 50
120.0
 51
180.0
  0
LINE
  5
17F
330
1F
100
AcDbEntity
  8
0
  6
Continuous
 62
     7
370
    15
100
AcDbLine
 10
75.0358983849
 20
44.2886751346
 30
0.0
 11
77.5
 21
45.7113248654
 31
0.0
  0
ARC
  5
180
330
1F
100
AcDbEntity
  8
0
  6
Continuous
 62
     7
370
    15
100
AcDbCircle
 10
78.0
 20
44.8452994616
 30
0.0
 40
1.000000000000002
100
AcDbArc
 50
60.0
 51
120.0
  0
LINE
  5
181
330
1F
100
AcDbEntity
  8
0
  6
Continuous
 62
     7
370
    15
100
AcDbLine
 10
78.5
 20
45.7113248654
 30
0.0
 11
80.9641016151
 21
44.2886751346
 31
0.0
  0
ARC
  5
182
330
1F
100
AcDbEntity
  8
0
  6
Continuous
 62
     7
370
    15
100
AcDbCircle
 10
80.4641016151
 20
43.4226497308
 30
0.0
 40
1.000000000000002
100
AcDbArc
 50
0.0
 51
60.0
  0
LINE
  5
183
330
1F
100
AcDbEntity
  8
0
  6
Continuous
 62
     7
370
    15
100
AcDbLine
 10
81.4641016151
 20
43.4226497308
 30
0.0
 11
81.4641016151
 21
40.5773502692
 31
0.0
  0
ARC
  5
184
330
1F
100
AcDbEntity
  8
0
  6
Continuous
 62
     7
370
    15
100
AcDbCircle
 10
80.4641016151
 20
40.5773502692
 30
0.0
 40
1.000000000000002
100
AcDbArc
 50
300.0
 51
0.0
  0
LINE
  5
185
330
1F
100
AcDbEntity
  8
0
  6
Continuous
 62
     7
370
    15
100
AcDbLine
 10
80.9641016151
 20
39.7113248654
 30
0.0
 11
78.5
 21
38.2886751346
 31
0.0
  0
ARC
  5
186
330
1F
100
AcDbEntity
  8
0
  6
Continuous
 62
     7
370
    15
100
AcDbCircle
 10
78.0
 20
39.1547005384
 30
0.0
 40
1.000000000000008
100
AcDbArc
 50
240.0
 51
300.0
  0
LINE
  5
187
330
1F
100
AcDbEntity
  8
0
  6
Continuous
 62
     7
370
    15
100
AcDbLine
 10
28.0
 20
14.9059892324
 30
0.0
 11
25.5358983849
 21
16.3286389632
 31
0.0
  0
ARC
  5
188
330
1F
100
AcDbEntity
  8
0
  6
Continuous
 62
     7
370
    15
100
AcDbCircle
 10
26.0358983849
 20
17.194664367
 30
0.0
 40
1.0
100
AcDbArc
 50
180.0
 51
240.0
  0
LINE
  5
189
330
1F
100
AcDbEntity
  8
0
  6
Continuous
 62
     7
370
    15
100
AcDbLine
 10
25.0358983849
 20
17.194664367
 30
0.0
 11
25.0358983849
 21
20.0399638286
 31
0.0
  0
ARC
  5
18A
330
1F
100
AcDbEntity
  8
0
  6
Continuous
 62
     7
370
    15
100
AcDbCircle
 10
26.0358983849
 20
20.0399638286
 30
0.0
 40
1.0
100
AcDbArc
 50
120.0
 51
180.0
  0
LINE
  5
18B
330
1F
100
AcDbEntity
  8
0
  6
Continuous
 62
     7
370
    15
100
AcDbLine
 10
25.5358983849
 20
20.9059892324
 30
0.0
 11
28.0
 21
22.3286389632
 31
0.0
  0
ARC
  5
18C
330
1F
100
AcDbEntity
  8
0
  6
Continuous
 62
     7
370
    15
100
AcDbCircle
 10
28.5
 20
21.4626135594
 30
0.0
 40
1.000000000000005
100
AcDbArc
 50
60.0
 51
120.0
  0
LINE
  5
18D
330
1F
100
AcDbEntity
  8
0
  6
Continuous
 62
     7
370
    15
100
AcDbLine
 10
29.0
 20
22.3286389632
 30
0.0
 11
31.4641016151
 21
20.9059892324
 31
0.0
  0
ARC
  5
18E
330
1F
100
AcDbEntity
  8
0
  6
Continuous
 62
     7
370
    15
100
AcDbCircle
 10
30.9641016151
 20
20.0399638286
 30
0.0
 40
1.0
100
AcDbArc
 50
0.0
 51
60.0
  0
LINE
  5
18F
330
1F
100
AcDbEntity
  8
0
  6
Continuous
 62
     7
370
    15
100
AcDbLine
 10
31.9641016151
 20
20.0399638286
 30
0.0
 11
31.9641016151
 21
17.194664367
 31
0.0
  0
ARC
  5
190
330
1F
100
AcDbEntity
  8
0
  6
Continuous
 62
     7
370
    15
100
AcDbCircle
 10
30.9641016151
 20
17.194664367
 30
0.0
 40
1.000000000000004
100
AcDbArc
 50
300.0
 51
0.0
  0
LINE
  5
191
330
1F
100
AcDbEntity
  8
0
  6
Continuous
 62
     7
370
    15
100
AcDbLine
 10
31.4641016151
 20
16.3286389632
 30
0.0
 11
29.0
 21
14.9059892324
 31
0.0
  0
ARC
  5
192
330
1F
100
AcDbEntity
  8
0
  6
Continuous
 62
     7
370
    15
100
AcDbCircle
 10
28.5
 20
15.7720146362
 30
0.0
 40
1.000000000000002
100
AcDbArc
 50
240.0
 51
300.0
  0
LINE
  5
193
330
1F
100
AcDbEntity
  8
0
  6
Continuous
 62
     7
370
    15
100
AcDbLine
 10
50.5
 20
7.1117605984
 30
0.0
 11
48.0358983849
 21
8.5344103292
 31
0.0
  0
ARC
  5
194
330
1F
100
AcDbEntity
  8
0
  6
Continuous
 62
     7
370
    15
100
AcDbCircle
 10
48.5358983849
 20
9.4004357329
 30
0.0
 40
1.0
100
AcDbArc
 50
180.0
 51
240.0
  0
LINE
  5
195
330
1F
100
AcDbEntity
  8
0
  6
Continuous
 62
     7
370
    15
100
AcDbLine
 10
47.5358983849
 20
9.4004357329
 30
0.0
 11
47.5358983849
 21
12.2457351946
 31
0.0
  0
ARC
  5
196
330
1F
100
AcDbEntity
  8
0
  6
Continuous
 62
     7
370
    15
100
AcDbCircle
 10
48.5358983849
 20
12.2457351946
 30
0.0
 40
1.0
100
AcDbArc
 50
120.0
 51
180.0
  0
LINE
  5
197
330
1F
100
AcDbEntity
  8
0
  6
Continuous
 62
     7
370
    15
100
AcDbLine
 10
48.0358983849
 20
13.1117605984
 30
0.0
 11
50.5
 21
14.5344103292
 31
0.0
  0
ARC
  5
198
330
1F
100
AcDbEntity
  8
0
  6
Continuous
 62
     7
370
    15
100
AcDbCircle
 10
51.0
 20
13.6683849254
 30
0.0
 40
1.0
100
AcDbArc
 50
60.0
 51
120.0
  0
LINE
  5
199
330
1F
100
AcDbEntity
  8
0
  6
Continuous
 62
     7
370
    15
100
AcDbLine
 10
51.5
 20
14.5344103292
 30
0.0
 11
53.9641016151
 21
13.1117605984
 31
0.0
  0
ARC
  5
19A
330
1F
100
AcDbEntity
  8
0
  6
Continuous
 62
     7
370
    15
100
AcDbCircle
 10
53.4641016151
 20
12.2457351946
 30
0.0
 40
1.0
100
AcDbArc
 50
0.0
 51
60.0
  0
LINE
  5
19B
330
1F
100
AcDbEntity
  8
0
  6
Continuous
 62
     7
370
    15
100
AcDbLine
 10
54.4641016151
 20
12.2457351946
 30
0.0
 11
54.4641016151
 21
9.4004357329
 31
0.0
  0
ARC
  5
19C
330
1F
100
AcDbEntity
  8
0
  6
Continuous
 62
     7
370
    15
100
AcDbCircle
 10
53.4641016151
 20
9.4004357329
 30
0.0
 40
1.0
100
AcDbArc
 50
300.0
 51
0.0
  0
LINE
  5
19D
330
1F
100
AcDbEntity
  8
0
  6
Continuous
 62
     7
370
    15
100
AcDbLine
 10
53.9641016151
 20
8.5344103292
 30
0.0
 11
51.5
 21
7.1117605984
 31
0.0
  0
ARC
  5
19E
330
1F
100
AcDbEntity
  8
0
  6
Continuous
 62
     7
370
    15
100
AcDbCircle
 10
51.0
 20
7.9777860021
 30
0.0
 40
1.000000000000002
100
AcDbArc
 50
240.0
 51
300.0
  0
LINE
  5
19F
330
1F
100
AcDbEntity
  8
0
  6
Continuous
 62
     7
370
    15
100
AcDbLine
 10
64.0
 20
14.9059892324
 30
0.0
 11
61.5358983849
 21
16.3286389632
 31
0.0
  0
ARC
  5
1A0
330
1F
100
AcDbEntity
  8
0
  6
Continuous
 62
     7
370
    15
100
AcDbCircle
 10
62.0358983849
 20
17.194664367
 30
0.0
 40
1.000000000000002
100
AcDbArc
 50
180.0
 51
240.0
  0
LINE
  5
1A1
330
1F
100
AcDbEntity
  8
0
  6
Continuous
 62
     7
370
    15
100
AcDbLine
 10
61.0358983849
 20
17.194664367
 30
0.0
 11
61.0358983849
 21
20.0399638286
 31
0.0
  0
ARC
  5
1A2
330
1F
100
AcDbEntity
  8
0
  6
Continuous
 62
     7
370
    15
100
AcDbCircle
 10
62.0358983849
 20
20.0399638286
 30
0.0
 40
1.0
100
AcDbArc
 50
120.0
 51
180.0
  0
LINE
  5
1A3
330
1F
100
AcDbEntity
  8
0
  6
Continuous
 62
     7
370
    15
100
AcDbLine
 10
61.5358983849
 20
20.9059892324
 30
0.0
 11
64.0
 21
22.3286389632
 31
0.0
  0
ARC
  5
1A4
330
1F
100
AcDbEntity
  8
0
  6
Continuous
 62
     7
370
    15
100
AcDbCircle
 10
64.5
 20
21.4626135594
 30
0.0
 40
1.000000000000002
100
AcDbArc
 50
60.0
 51
120.0
  0
LINE
  5
1A5
330
1F
100
AcDbEntity
  8
0
  6
Continuous
 62
     7
370
    15
100
AcDbLine
 10
65.0
 20
22.3286389632
 30
0.0
 11
67.4641016151
 21
20.9059892324
 31
0.0
  0
ARC
  5
1A6
330
1F
100
AcDbEntity
  8
0
  6
Continuous
 62
     7
370
    15
100
AcDbCircle
 10
66.9641016151
 20
20.0399638286
 30
0.0
 40
1.000000000000002
100
AcDbArc
 50
0.0
 51
60.0
  0
LINE
  5
1A7
330
1F
100
AcDbEntity
  8
0
  6
Continuous
 62
     7
370
    15
100
AcDbLine
 10
67.9641016151
 20
20.0399638286
 30
0.0
 11
67.9641016151
 21
17.194664367
 31
0.0
  0
ARC
  5
1A8
330
1F
100
AcDbEntity
  8
0
  6
Continuous
 62
     7
370
    15
100
AcDbCircle
 10
66.9641016151
 20
17.194664367
 30
0.0
 40
1.0
100
AcDbArc
 50
300.0
 51
0.0
  0
LINE
  5
1A9
330
1F
100
AcDbEntity
  8
0
  6
Continuous
 62
     7
370
    15
100
AcDbLine
 10
67.4641016151
 20
16.3286389632
 30
0.0
 11
65.0
 21
14.9059892324
 31
0.0
  0
ARC
  5
1AA
330
1F
100
AcDbEntity
  8
0
  6
Continuous
 62
     7
370
    15
100
AcDbCircle
 10
64.5
 20
15.7720146362
 30
0.0
 40
1.0
100
AcDbArc
 50
240.0
 51
300.0
  0
LINE
  5
1AB
330
1F
100
AcDbEntity
  8
0
  6
Continuous
 62
     7
370
    15
100
AcDbLine
 10
77.5
 20
22.7002178665
 30
0.0
 11
75.0358983849
 21
24.1228675973
 31
0.0
  0
ARC
  5
1AC
330
1F
100
AcDbEntity
  8
0
  6
Continuous
 62
     7
370
    15
100
AcDbCircle
 10
75.5358983849
 20
24.9888930011
 30
0.0
 40
1.000000000000005
100
AcDbArc
 50
180.0
 51
240.0
  0
LINE
  5
1AD
330
1F
100
AcDbEntity
  8
0
  6
Continuous
 62
     7
370
    15
100
AcDbLine
 10
74.5358983849
 20
24.9888930011
 30
0.0
 11
74.5358983849
 21
27.8341924627
 31
0.0
  0
ARC
  5
1AE
330
1F
100
AcDbEntity
  8
0
  6
Continuous
 62
     7
370
    15
100
AcDbCircle
 10
75.5358983849
 20
27.8341924627
 30
0.0
 40
1.0
100
AcDbArc
 50
120.0
 51
180.0
  0
LINE
  5
1AF
330
1F
100
AcDbEntity
  8
0
  6
Continuous
 62
     7
370
    15
100
AcDbLine
 10
75.0358983849
 20
28.7002178665
 30
0.0
 11
77.5
 21
30.1228675973
 31
0.0
  0
ARC
  5
1B0
330
1F
100
AcDbEntity
  8
0
  6
Continuous
 62
     7
370
    15
100
AcDbCircle
 10
78.0
 20
29.2568421935
 30
0.0
 40
1.000000000000002
100
AcDbArc
 50
60.0
 51
120.0
  0
LINE
  5
1B1
330
1F
100
AcDbEntity
  8
0
  6
Continuous
 62
     7
370
    15
100
AcDbLine
 10
78.5
 20
30.1228675973
 30
0.0
 11
80.9641016151
 21
28.7002178665
 31
0.0
  0
ARC
  5
1B2
330
1F
100
AcDbEntity
  8
0
  6
Continuous
 62
     7
370
    15
100
AcDbCircle
 10
80.4641016151
 20
27.8341924627
 30
0.0
 40
1.000000000000002
100
AcDbArc
 50
0.0
 51
60.0
  0
LINE
  5
1B3
330
1F
100
AcDbEntity
  8
0
  6
Continuous
 62
     7
370
    15
100
AcDbLine
 10
81.4641016151
 20
27.8341924627
 30
0.0
 11
81.4641016151
 21
24.9888930011
 31
0.0
  0
ARC
  5
1B4
330
1F
100
AcDbEntity
  8
0
  6
Continuous
 62
     7
370
    15
100
AcDbCircle
 10
80.4641016151
 20
24.9888930011
 30
0.0
 40
1.0
100
AcDbArc
 50
300.0
 51
0.0
  0
LINE
  5
1B5
330
1F
100
AcDbEntity
  8
0
  6
Continuous
 62
     7
370
    15
100
AcDbLine
 10
80.9641016151
 20
24.1228675973
 30
0.0
 11
78.5
 21
22.7002178665
 31
0.0
  0
ARC
  5
1B6
330
1F
100
AcDbEntity
  8
0
  6
Continuous
 62
     7
370
    15
100
AcDbCircle
 10
78.0
 20
23.5662432703
 30
0.0
 40
0.999999999999999
100
AcDbArc
 50
240.0
 51
300.0
  0
LINE
  5
1B7
330
1F
100
AcDbEntity
  8
0
  6
Continuous
 62
     7
370
    15
100
AcDbLine
 10
82.0
 20
46.0829037687
 30
0.0
 11
79.5358983849
 21
47.5055534995
 31
0.0
  0
ARC
  5
1B8
330
1F
100
AcDbEntity
  8
0
  6
Continuous
 62
     7
370
    15
100
AcDbCircle
 10
80.0358983849
 20
48.3715789032
 30
0.0
 40
1.000000000000002
100
AcDbArc
 50
180.0
 51
240.0
  0
LINE
  5
1B9
330
1F
100
AcDbEntity
  8
0
  6
Continuous
 62
     7
370
    15
100
AcDbLine
 10
79.0358983849
 20
48.3715789032
 30
0.0
 11
79.0358983849
 21
51.2168783649
 31
0.0
  0
ARC
  5
1BA
330
1F
100
AcDbEntity
  8
0
  6
Continuous
 62
     7
370
    15
100
AcDbCircle
 10
80.0358983849
 20
51.2168783649
 30
0.0
 40
1.0
100
AcDbArc
 50
120.0
 51
180.0
  0
LINE
  5
1BB
330
1F
100
AcDbEntity
  8
0
  6
Continuous
 62
     7
370
    15
100
AcDbLine
 10
79.5358983849
 20
52.0829037687
 30
0.0
 11
82.0
 21
53.5055534995
 31
0.0
  0
ARC
  5
1BC
330
1F
100
AcDbEntity
  8
0
  6
Continuous
 62
     7
370
    15
100
AcDbCircle
 10
82.5
 20
52.6395280957
 30
0.0
 40
1.000000000000008
100
AcDbArc
 50
60.0
 51
120.0
  0
LINE
  5
1BD
330
1F
100
AcDbEntity
  8
0
  6
Continuous
 62
     7
370
    15
100
AcDbLine
 10
83.0
 20
53.5055534995
 30
0.0
 11
85.4641016151
 21
52.0829037687
 31
0.0
  0
ARC
  5
1BE
330
1F
100
AcDbEntity
  8
0
  6
Continuous
 62
     7
370
    15
100
AcDbCircle
 10
84.9641016151
 20
51.2168783649
 30
0.0
 40
1.000000000000002
100
AcDbArc
 50
0.0
 51
60.0
  0
LINE
  5
1BF
330
1F
100
AcDbEntity
  8
0
  6
Continuous
 62
     7
370
    15
100
AcDbLine
 10
85.9641016151
 20
51.2168783649
 30
0.0
 11
85.9641016151
 21
48.3715789032
 31
0.0
  0
ARC
  5
1C0
330
1F
100
AcDbEntity
  8
0
  6
Continuous
 62
     7
370
    15
100
AcDbCircle
 10
84.9641016151
 20
48.3715789032
 30
0.0
 40
1.0
100
AcDbArc
 50
300.0
 51
0.0
  0
LINE
  5
1C1
330
1F
100
AcDbEntity
  8
0
  6
Continuous
 62
     7
370
    15
100
AcDbLine
 10
85.4641016151
 20
47.5055534995
 30
0.0
 11
83.0
 21
46.0829037687
 31
0.0
  0
ARC
  5
1C2
330
1F
100
AcDbEntity
  8
0
  6
Continuous
 62
     7
370
    15
100
AcDbCircle
 10
82.5
 20
46.9489291724
 30
0.0
 40
1.000000000000008
100
AcDbArc
 50
240.0
 51
300.0
  0
LINE
  5
1C3
330
1F
100
AcDbEntity
  8
0
  6
Continuous
 62
     7
370
    15
100
AcDbLine
 10
59.5
 20
7.1117605984
 30
0.0
 11
57.0358983849
 21
8.5344103292
 31
0.0
  0
ARC
  5
1C4
330
1F
100
AcDbEntity
  8
0
  6
Continuous
 62
     7
370
    15
100
AcDbCircle
 10
57.5358983849
 20
9.4004357329
 30
0.0
 40
1.0
100
AcDbArc
 50
180.0
 51
240.0
  0
LINE
  5
1C5
330
1F
100
AcDbEntity
  8
0
  6
Continuous
 62
     7
370
    15
100
AcDbLine
 10
56.5358983849
 20
9.4004357329
 30
0.0
 11
56.5358983849
 21
12.2457351946
 31
0.0
  0
ARC
  5
1C6
330
1F
100
AcDbEntity
  8
0
  6
Continuous
 62
     7
370
    15
100
AcDbCircle
 10
57.5358983849
 20
12.2457351946
 30
0.0
 40
1.0
100
AcDbArc
 50
120.0
 51
180.0
  0
LINE
  5
1C7
330
1F
100
AcDbEntity
  8
0
  6
Continuous
 62
     7
370
    15
100
AcDbLine
 10
57.0358983849
 20
13.1117605984
 30
0.0
 11
59.5
 21
14.5344103292
 31
0.0
  0
ARC
  5
1C8
330
1F
100
AcDbEntity
  8
0
  6
Continuous
 62
     7
370
    15
100
AcDbCircle
 10
60.0
 20
13.6683849254
 30
0.0
 40
1.0
100
AcDbArc
 50
60.0
 51
120.0
  0
LINE
  5
1C9
330
1F
100
AcDbEntity
  8
0
  6
Continuous
 62
     7
370
    15
100
AcDbLine
 10
60.5
 20
14.5344103292
 30
0.0
 11
62.9641016151
 21
13.1117605984
 31
0.0
  0
ARC
  5
1CA
330
1F
100
AcDbEntity
  8
0
  6
Continuous
 62
     7
370
    15
100
AcDbCircle
 10
62.4641016151
 20
12.2457351946
 30
0.0
 40
1.0
100
AcDbArc
 50
0.0
 51
60.0
  0
LINE
  5
1CB
330
1F
100
AcDbEntity
  8
0
  6
Continuous
 62
     7
370
    15
100
AcDbLine
 10
63.4641016151
 20
12.2457351946
 30
0.0
 11
63.4641016151
 21
9.4004357329
 31
0.0
  0
ARC
  5
1CC
330
1F
100
AcDbEntity
  8
0
  6
Continuous
 62
     7
370
    15
100
AcDbCircle
 10
62.4641016151
 20
9.4004357329
 30
0.0
 40
1.0
100
AcDbArc
 50
300.0
 51
0.0
  0
LINE
  5
1CD
330
1F
100
AcDbEntity
  8
0
  6
Continuous
 62
     7
370
    15
100
AcDbLine
 10
62.9641016151
 20
8.5344103292
 30
0.0
 11
60.5
 21
7.1117605984
 31
0.0
  0
ARC
  5
1CE
330
1F
100
AcDbEntity
  8
0
  6
Continuous
 62
     7
370
    15
100
AcDbCircle
 10
60.0
 20
7.9777860021
 30
0.0
 40
0.999999999999999
100
AcDbArc
 50
240.0
 51
300.0
  0
LINE
  5
1CF
330
1F
100
AcDbEntity
  8
0
  6
Continuous
 62
     7
370
    15
100
AcDbLine
 10
73.0
 20
14.9059892324
 30
0.0
 11
70.5358983849
 21
16.3286389632
 31
0.0
  0
ARC
  5
1D0
330
1F
100
AcDbEntity
  8
0
  6
Continuous
 62
     7
370
    15
100
AcDbCircle
 10
71.0358983849
 20
17.194664367
 30
0.0
 40
1.000000000000005
100
AcDbArc
 50
180.0
 51
240.0
  0
LINE
  5
1D1
330
1F
100
AcDbEntity
  8
0
  6
Continuous
 62
     7
370
    15
100
AcDbLine
 10
70.0358983849
 20
17.194664367
 30
0.0
 11
70.0358983849
 21
20.0399638286
 31
0.0
  0
ARC
  5
1D2
330
1F
100
AcDbEntity
  8
0
  6
Continuous
 62
     7
370
    15
100
AcDbCircle
 10
71.0358983849
 20
20.0399638286
 30
0.0
 40
1.0
100
AcDbArc
 50
120.0
 51
180.0
  0
LINE
  5
1D3
330
1F
100
AcDbEntity
  8
0
  6
Continuous
 62
     7
370
    15
100
AcDbLine
 10
70.5358983849
 20
20.9059892324
 30
0.0
 11
73.0
 21
22.3286389632
 31
0.0
  0
ARC
  5
1D4
330
1F
100
AcDbEntity
  8
0
  6
Continuous
 62
     7
370
    15
100
AcDbCircle
 10
73.5
 20
21.4626135594
 30
0.0
 40
1.000000000000002
100
AcDbArc
 50
60.0
 51
120.0
  0
LINE
  5
1D5
330
1F
100
AcDbEntity
  8
0
  6
Continuous
 62
     7
370
    15
100
AcDbLine
 10
74.0
 20
22.3286389632
 30
0.0
 11
76.4641016151
 21
20.9059892324
 31
0.0
  0
ARC
  5
1D6
330
1F
100
AcDbEntity
  8
0
  6
Continuous
 62
     7
370
    15
100
AcDbCircle
 10
75.9641016151
 20
20.0399638286
 30
0.0
 40
1.000000000000002
100
AcDbArc
 50
0.0
 51
60.0
  0
LINE
  5
1D7
330
1F
100
AcDbEntity
  8
0
  6
Continuous
 62
     7
370
    15
100
AcDbLine
 10
76.9641016151
 20
20.0399638286
 30
0.0
 11
76.9641016151
 21
17.194664367
 31
0.0
  0
ARC
  5
1D8
330
1F
100
AcDbEntity
  8
0
  6
Continuous
 62
     7
370
    15
100
AcDbCircle
 10
75.9641016151
 20
17.194664367
 30
0.0
 40
1.0
100
AcDbArc
 50
300.0
 51
0.0
  0
LINE
  5
1D9
330
1F
100
AcDbEntity
  8
0
  6
Continuous
 62
     7
370
    15
100
AcDbLine
 10
76.4641016151
 20
16.3286389632
 30
0.0
 11
74.0
 21
14.9059892324
 31
0.0
  0
ARC
  5
1DA
330
1F
100
AcDbEntity
  8
0
  6
Continuous
 62
     7
370
    15
100
AcDbCircle
 10
73.5
 20
15.7720146362
 30
0.0
 40
1.000000000000002
100
AcDbArc
 50
240.0
 51
300.0
  0
LINE
  5
1DB
330
1F
100
AcDbEntity
  8
0
  6
Continuous
 62
     7
370
    15
100
AcDbLine
 10
0.0
 20
84.0
 30
0.0
 11
0.0
 21
0.0
 31
0.0
  0
LINE
  5
1DC
330
1F
100
AcDbEntity
  8
0
  6
Continuous
 62
     7
370
    15
100
AcDbLine
 10
0.0
 20
0.0
 30
0.0
 11
134.0
 21
0.0
 31
0.0
  0
LINE
  5
1DD
330
1F
100
AcDbEntity
  8
0
  6
Continuous
 62
     7
370
    15
100
AcDbLine
 10
134.0
 20
0.0
 30
0.0
 11
134.0
 21
84.0
 31
0.0
  0
LINE
  5
1DE
330
1F
100
AcDbEntity
  8
0
  6
Continuous
 62
     7
370
    15
100
AcDbLine
 10
134.0
 20
84.0
 30
0.0
 11
0.0
 21
84.0
 31
0.0
  0
CIRCLE
  5
1DF
330
1F
100
AcDbEntity
  8
0
  6
Continuous
 62
     7
370
    15
100
AcDbCircle
 10
4.5
 20
4.5
 30
0.0
 40
1.69999999999999
  0
CIRCLE
  5
1E0
330
1F
100
AcDbEntity
  8
0
  6
Continuous
 62
     7
370
    15
100
AcDbCircle
 10
129.5
 20
4.5
 30
0.0
 40
1.699999999999979
  0
CIRCLE
  5
1E1
330
1F
100
AcDbEntity
  8
0
  6
Continuous
 62
     7
370
    15
100
AcDbCircle
 10
129.5
 20
79.5
 30
0.0
 40
1.699999999999974
  0
CIRCLE
  5
1E2
330
1F
100
AcDbEntity
  8
0
  6
Continuous
 62
     7
370
    15
100
AcDbCircle
 10
4.5
 20
79.5
 30
0.0
 40
1.699999999999989
  0
CIRCLE
  5
1E3
330
1F
100
AcDbEntity
  8
0
  6
Continuous
 62
     7
370
    15
100
AcDbCircle
 10
15.25
 20
6.25
 30
0.0
 40
2.399999999999999
  0
CIRCLE
  5
1E4
330
1F
100
AcDbEntity
  8
0
  6
Continuous
 62
     7
370
    15
100
AcDbCircle
 10
86.75
 20
6.25
 30
0.0
 40
2.399999999999999
  0
CIRCLE
  5
1E5
330
1F
100
AcDbEntity
  8
0
  6
Continuous
 62
     7
370
    15
100
AcDbCircle
 10
86.75
 20
77.75
 30
0.0
 40
2.400000000000006
  0
CIRCLE
  5
1E6
330
1F
100
AcDbEntity
  8
0
  6
Continuous
 62
     7
370
    15
100
AcDbCircle
 10
15.25
 20
77.75
 30
0.0
 40
2.400000000000006
  0
LINE
  5
1E7
330
1F
100
AcDbEntity
  8
0
  6
Continuous
 62
     7
370
    15
100
AcDbLine
 10
122.0
 20
55.5
 30
0.0
 11
93.5
 21
55.5
 31
0.0
  0
LINE
  5
1E8
330
1F
100
AcDbEntity
  8
0
  6
Continuous
 62
     7
370
    15
100
AcDbLine
 10
122.0
 20
8.0
 30
0.0
 11
122.0
 21
55.5
 31
0.0
  0
LINE
  5
1E9
330
1F
100
AcDbEntity
  8
0
  6
Continuous
 62
     7
370
    15
100
AcDbLine
 10
93.5
 20
8.0
 30
0.0
 11
122.0
 21
8.0
 31
0.0
  0
LINE
  5
1EA
330
1F
100
AcDbEntity
  8
0
  6
Continuous
 62
     7
370
    15
100
AcDbLine
 10
93.5
 20
55.5
 30
0.0
 11
93.5
 21
8.0
 31
0.0
  0
LINE
  5
1EB
330
1F
100
AcDbEntity
  8
0
  6
Continuous
 62
     7
370
    15
100
AcDbLine
 10
112.6
 20
71.2399712641
 30
0.0
 11
112.6
 21
67.7600287359
 31
0.0
  0
ARC
  5
1EC
330
1F
100
AcDbEntity
  8
0
  6
Continuous
 62
     7
370
    15
100
AcDbCircle
 10
116.75
 20
69.5
 30
0.0
 40
4.500000000000016
100
AcDbArc
 50
22.7468512744
 51
157.2531487256
  0
LINE
  5
1ED
330
1F
100
AcDbEntity
  8
0
  6
Continuous
 62
     7
370
    15
100
AcDbLine
 10
120.9
 20
67.7600287359
 30
0.0
 11
120.9
 21
71.2399712641
 31
0.0
  0
ARC
  5
1EE
330
1F
100
AcDbEntity
  8
0
  6
Continuous
 62
     7
370
    15
100
AcDbCircle
 10
116.75
 20
69.5
 30
0.0
 40
4.500000000000011
100
AcDbArc
 50
202.7468512744
 51
337.2531487256
  0
LINE
  5
1EF
330
1F
100
AcDbEntity
  8
0
  6
Continuous
 62
     7
370
    15
100
AcDbLine
 10
94.6
 20
71.2399712641
 30
0.0
 11
94.6
 21
67.7600287359
 31
0.0
  0
ARC
  5
1F0
330
1F
100
AcDbEntity
  8
0
  6
Continuous
 62
     7
370
    15
100
AcDbCircle
 10
98.75
 20
69.5
 30
0.0
 40
4.500000000000016
100
AcDbArc
 50
22.7468512744
 51
157.2531487256
  0
LINE
  5
1F1
330
1F
100
AcDbEntity
  8
0
  6
Continuous
 62
     7
370
    15
100
AcDbLine
 10
102.9
 20
67.7600287359
 30
0.0
 11
102.9
 21
71.2399712641
 31
0.0
  0
ARC
  5
1F2
330
1F
100
AcDbEntity
  8
0
  6
Continuous
 62
     7
370
    15
100
AcDbCircle
 10
98.75
 20
69.5
 30
0.0
 40
4.500000000000011
100
AcDbArc
 50
202.7468512744
 51
337.2531487256
  0
LINE
  5
1F3
330
1F
100
AcDbEntity
  8
0
  6
Continuous
 62
     7
370
    15
100
AcDbLine
 10
86.5
 20
38.2886751346
 30
0.0
 11
84.0358983849
 21
39.7113248654
 31
0.0
  0
ARC
  5
1F4
330
1F
100
AcDbEntity
  8
0
  6
Continuous
 62
     7
370
    15
100
AcDbCircle
 10
84.5358983849
 20
40.5773502692
 30
0.0
 40
1.000000000000008
100
AcDbArc
 50
180.0
 51
240.0
  0
LINE
  5
1F5
330
1F
100
AcDbEntity
  8
0
  6
Continuous
 62
     7
370
    15
100
AcDbLine
 10
83.5358983849
 20
40.5773502692
 30
0.0
 11
83.5358983849
 21
43.4226497308
 31
0.0
  0
ARC
  5
1F6
330
1F
100
AcDbEntity
  8
0
  6
Continuous
 62
     7
370
    15
100
AcDbCircle
 10
84.5358983849
 20
43.4226497308
 30
0.0
 40
1.0
100
AcDbArc
 50
120.0
 51
180.0
  0
LINE
  5
1F7
330
1F
100
AcDbEntity
  8
0
  6
Continuous
 62
     7
370
    15
100
AcDbLine
 10
84.0358983849
 20
44.2886751346
 30
0.0
 11
86.5
 21
45.7113248654
 31
0.0
  0
ARC
  5
1F8
330
1F
100
AcDbEntity
  8
0
  6
Continuous
 62
     7
370
    15
100
AcDbCircle
 10
87.0
 20
44.8452994616
 30
0.0
 40
1.000000000000009
100
AcDbArc
 50
60.0
 51
120.0
  0
LINE
  5
1F9
330
1F
100
AcDbEntity
  8
0
  6
Continuous
 62
     7
370
    15
100
AcDbLine
 10
87.5
 20
45.7113248654
 30
0.0
 11
89.9641016151
 21
44.2886751346
 31
0.0
  0
ARC
  5
1FA
330
1F
100
AcDbEntity
  8
0
  6
Continuous
 62
     7
370
    15
100
AcDbCircle
 10
89.4641016151
 20
43.4226497308
 30
0.0
 40
1.000000000000002
100
AcDbArc
 50
0.0
 51
60.0
  0
LINE
  5
1FB
330
1F
100
AcDbEntity
  8
0
  6
Continuous
 62
     7
370
    15
100
AcDbLine
 10
90.4641016151
 20
43.4226497308
 30
0.0
 11
90.4641016151
 21
40.5773502692
 31
0.0
  0
ARC
  5
1FC
330
1F
100
AcDbEntity
  8
0
  6
Continuous
 62
     7
370
    15
100
AcDbCircle
 10
89.4641016151
 20
40.5773502692
 30
0.0
 40
1.000000000000002
100
AcDbArc
 50
300.0
 51
0.0
  0
LINE
  5
1FD
330
1F
100
AcDbEntity
  8
0
  6
Continuous
 62
     7
370
    15
100
AcDbLine
 10
89.9641016151
 20
39.7113248654
 30
0.0
 11
87.5
 21
38.2886751346
 31
0.0
  0
ARC
  5
1FE
330
1F
100
AcDbEntity
  8
0
  6
Continuous
 62
     7
370
    15
100
AcDbCircle
 10
87.0
 20
39.1547005384
 30
0.0
 40
1.000000000000008
100
AcDbArc
 50
240.0
 51
300.0
  0
LINE
  5
1FF
330
1F
100
AcDbEntity
  8
0
  6
Continuous
 62
     7
370
    15
100
AcDbLine
 10
68.5
 20
7.1117605984
 30
0.0
 11
66.0358983849
 21
8.5344103292
 31
0.0
  0
ARC
  5
200
330
1F
100
AcDbEntity
  8
0
  6
Continuous
 62
     7
370
    15
100
AcDbCircle
 10
66.5358983849
 20
9.4004357329
 30
0.0
 40
1.000000000000004
100
AcDbArc
 50
180.0
 51
240.0
  0
LINE
  5
201
330
1F
100
AcDbEntity
  8
0
  6
Continuous
 62
     7
370
    15
100
AcDbLine
 10
65.5358983849
 20
9.4004357329
 30
0.0
 11
65.5358983849
 21
12.2457351946
 31
0.0
  0
ARC
  5
202
330
1F
100
AcDbEntity
  8
0
  6
Continuous
 62
     7
370
    15
100
AcDbCircle
 10
66.5358983849
 20
12.2457351946
 30
0.0
 40
1.0
100
AcDbArc
 50
120.0
 51
180.0
  0
LINE
  5
203
330
1F
100
AcDbEntity
  8
0
  6
Continuous
 62
     7
370
    15
100
AcDbLine
 10
66.0358983849
 20
13.1117605984
 30
0.0
 11
68.5
 21
14.5344103292
 31
0.0
  0
ARC
  5
204
330
1F
100
AcDbEntity
  8
0
  6
Continuous
 62
     7
370
    15
100
AcDbCircle
 10
69.0
 20
13.6683849254
 30
0.0
 40
1.0
100
AcDbArc
 50
60.0
 51
120.0
  0
LINE
  5
205
330
1F
100
AcDbEntity
  8
0
  6
Continuous
 62
     7
370
    15
100
AcDbLine
 10
69.5
 20
14.5344103292
 30
0.0
 11
71.9641016151
 21
13.1117605984
 31
0.0
  0
ARC
  5
206
330
1F
100
AcDbEntity
  8
0
  6
Continuous
 62
     7
370
    15
100
AcDbCircle
 10
71.4641016151
 20
12.2457351946
 30
0.0
 40
1.000000000000004
100
AcDbArc
 50
0.0
 51
60.0
  0
LINE
  5
207
330
1F
100
AcDbEntity
  8
0
  6
Continuous
 62
     7
370
    15
100
AcDbLine
 10
72.4641016151
 20
12.2457351946
 30
0.0
 11
72.4641016151
 21
9.4004357329
 31
0.0
  0
ARC
  5
208
330
1F
100
AcDbEntity
  8
0
  6
Continuous
 62
     7
370
    15
100
AcDbCircle
 10
71.4641016151
 20
9.4004357329
 30
0.0
 40
1.0
100
AcDbArc
 50
300.0
 51
0.0
  0
LINE
  5
209
330
1F
100
AcDbEntity
  8
0
  6
Continuous
 62
     7
370
    15
100
AcDbLine
 10
71.9641016151
 20
8.5344103292
 30
0.0
 11
69.5
 21
7.1117605984
 31
0.0
  0
ARC
  5
20A
330
1F
100
AcDbEntity
  8
0
  6
Continuous
 62
     7
370
    15
100
AcDbCircle
 10
69.0
 20
7.9777860021
 30
0.0
 40
1.000000000000001
100
AcDbArc
 50
240.0
 51
300.0
  0
LINE
  5
20B
330
1F
100
AcDbEntity
  8
0
  6
Continuous
 62
     7
370
    15
100
AcDbLine
 10
32.5
 20
7.1117605984
 30
0.0
 11
30.0358983849
 21
8.5344103292
 31
0.0
  0
ARC
  5
20C
330
1F
100
AcDbEntity
  8
0
  6
Continuous
 62
     7
370
    15
100
AcDbCircle
 10
30.5358983849
 20
9.4004357329
 30
0.0
 40
1.0
100
AcDbArc
 50
180.0
 51
240.0
  0
LINE
  5
20D
330
1F
100
AcDbEntity
  8
0
  6
Continuous
 62
     7
370
    15
100
AcDbLine
 10
29.5358983849
 20
9.4004357329
 30
0.0
 11
29.5358983849
 21
12.2457351946
 31
0.0
  0
ARC
  5
20E
330
1F
100
AcDbEntity
  8
0
  6
Continuous
 62
     7
370
    15
100
AcDbCircle
 10
30.5358983849
 20
12.2457351946
 30
0.0
 40
1.0
100
AcDbArc
 50
120.0
 51
180.0
  0
LINE
  5
20F
330
1F
100
AcDbEntity
  8
0
  6
Continuous
 62
     7
370
    15
100
AcDbLine
 10
30.0358983849
 20
13.1117605984
 30
0.0
 11
32.5
 21
14.5344103292
 31
0.0
  0
ARC
  5
210
330
1F
100
AcDbEntity
  8
0
  6
Continuous
 62
     7
370
    15
100
AcDbCircle
 10
33.0
 20
13.6683849254
 30
0.0
 40
1.0
100
AcDbArc
 50
60.0
 51
120.0
  0
LINE
  5
211
330
1F
100
AcDbEntity
  8
0
  6
Continuous
 62
     7
370
    15
100
AcDbLine
 10
33.5
 20
14.5344103292
 30
0.0
 11
35.9641016151
 21
13.1117605984
 31
0.0
  0
ARC
  5
212
330
1F
100
AcDbEntity
  8
0
  6
Continuous
 62
     7
370
    15
100
AcDbCircle
 10
35.4641016151
 20
12.2457351946
 30
0.0
 40
1.0
100
AcDbArc
 50
0.0
 51
60.0
  0
LINE
  5
213
330
1F
100
AcDbEntity
  8
0
  6
Continuous
 62
     7
370
    15
100
AcDbLine
 10
36.4641016151
 20
12.2457351946
 30
0.0
 11
36.4641016151
 21
9.4004357329
 31
0.0
  0
ARC
  5
214
330
1F
100
AcDbEntity
  8
0
  6
Continuous
 62
     7
370
    15
100
AcDbCircle
 10
35.4641016151
 20
9.4004357329
 30
0.0
 40
1.0
100
AcDbArc
 50
300.0
 51
0.0
  0
LINE
  5
215
330
1F
100
AcDbEntity
  8
0
  6
Continuous
 62
     7
370
    15
100
AcDbLine
 10
35.9641016151
 20
8.5344103292
 30
0.0
 11
33.5
 21
7.1117605984
 31
0.0
  0
ARC
  5
216
330
1F
100
AcDbEntity
  8
0
  6
Continuous
 62
     7
370
    15
100
AcDbCircle
 10
33.0
 20
7.9777860021
 30
0.0
 40
0.999999999999999
100
AcDbArc
 50
240.0
 51
300.0
  0
LINE
  5
217
330
1F
100
AcDbEntity
  8
0
  6
Continuous
 62
     7
370
    15
100
AcDbLine
 10
82.0
 20
30.4944465005
 30
0.0
 11
79.5358983849
 21
31.9170962313
 31
0.0
  0
ARC
  5
218
330
1F
100
AcDbEntity
  8
0
  6
Continuous
 62
     7
370
    15
100
AcDbCircle
 10
80.0358983849
 20
32.7831216351
 30
0.0
 40
1.000000000000002
100
AcDbArc
 50
180.0
 51
240.0
  0
LINE
  5
219
330
1F
100
AcDbEntity
  8
0
  6
Continuous
 62
     7
370
    15
100
AcDbLine
 10
79.0358983849
 20
32.7831216351
 30
0.0
 11
79.0358983849
 21
35.6284210968
 31
0.0
  0
ARC
  5
21A
330
1F
100
AcDbEntity
  8
0
  6
Continuous
 62
     7
370
    15
100
AcDbCircle
 10
80.0358983849
 20
35.6284210968
 30
0.0
 40
1.0
100
AcDbArc
 50
120.0
 51
180.0
  0
LINE
  5
21B
330
1F
100
AcDbEntity
  8
0
  6
Continuous
 62
     7
370
    15
100
AcDbLine
 10
79.5358983849
 20
36.4944465005
 30
0.0
 11
82.0
 21
37.9170962313
 31
0.0
  0
ARC
  5
21C
330
1F
100
AcDbEntity
  8
0
  6
Continuous
 62
     7
370
    15
100
AcDbCircle
 10
82.5
 20
37.0510708276
 30
0.0
 40
1.000000000000008
100
AcDbArc
 50
60.0
 51
120.0
  0
LINE
  5
21D
330
1F
100
AcDbEntity
  8
0
  6
Continuous
 62
     7
370
    15
100
AcDbLine
 10
83.0
 20
37.9170962313
 30
0.0
 11
85.4641016151
 21
36.4944465005
 31
0.0
  0
ARC
  5
21E
330
1F
100
AcDbEntity
  8
0
  6
Continuous
 62
     7
370
    15
100
AcDbCircle
 10
84.9641016151
 20
35.6284210968
 30
0.0
 40
1.000000000000002
100
AcDbArc
 50
0.0
 51
60.0
  0
LINE
  5
21F
330
1F
100
AcDbEntity
  8
0
  6
Continuous
 62
     7
370
    15
100
AcDbLine
 10
85.9641016151
 20
35.6284210968
 30
0.0
 11
85.9641016151
 21
32.7831216351
 31
0.0
  0
ARC
  5
220
330
1F
100
AcDbEntity
  8
0
  6
Continuous
 62
     7
370
    15
100
AcDbCircle
 10
84.9641016151
 20
32.7831216351
 30
0.0
 40
1.0
100
AcDbArc
 50
300.0
 51
0.0
  0
LINE
  5
221
330
1F
100
AcDbEntity
  8
0
  6
Continuous
 62
     7
370
    15
100
AcDbLine
 10
85.4641016151
 20
31.9170962313
 30
0.0
 11
83.0
 21
30.4944465005
 31
0.0
  0
ARC
  5
222
330
1F
100
AcDbEntity
  8
0
  6
Continuous
 62
     7
370
    15
100
AcDbCircle
 10
82.5
 20
31.3604719043
 30
0.0
 40
1.000000000000008
100
AcDbArc
 50
240.0
 51
300.0
  0
LINE
  5
223
330
1F
100
AcDbEntity
  8
0
  6
Continuous
 62
     7
370
    15
100
AcDbLine
 10
68.5
 20
22.7002178665
 30
0.0
 11
66.0358983849
 21
24.1228675973
 31
0.0
  0
ARC
  5
224
330
1F
100
AcDbEntity
  8
0
  6
Continuous
 62
     7
370
    15
100
AcDbCircle
 10
66.5358983849
 20
24.9888930011
 30
0.0
 40
1.000000000000005
100
AcDbArc
 50
180.0
 51
240.0
  0
LINE
  5
225
330
1F
100
AcDbEntity
  8
0
  6
Continuous
 62
     7
370
    15
100
AcDbLine
 10
65.5358983849
 20
24.9888930011
 30
0.0
 11
65.5358983849
 21
27.8341924627
 31
0.0
  0
ARC
  5
226
330
1F
100
AcDbEntity
  8
0
  6
Continuous
 62
     7
370
    15
100
AcDbCircle
 10
66.5358983849
 20
27.8341924627
 30
0.0
 40
1.0
100
AcDbArc
 50
120.0
 51
180.0
  0
LINE
  5
227
330
1F
100
AcDbEntity
  8
0
  6
Continuous
 62
     7
370
    15
100
AcDbLine
 10
66.0358983849
 20
28.7002178665
 30
0.0
 11
68.5
 21
30.1228675973
 31
0.0
  0
ARC
  5
228
330
1F
100
AcDbEntity
  8
0
  6
Continuous
 62
     7
370
    15
100
AcDbCircle
 10
69.0
 20
29.2568421935
 30
0.0
 40
1.000000000000002
100
AcDbArc
 50
60.0
 51
120.0
  0
LINE
  5
229
330
1F
100
AcDbEntity
  8
0
  6
Continuous
 62
     7
370
    15
100
AcDbLine
 10
69.5
 20
30.1228675973
 30
0.0
 11
71.9641016151
 21
28.7002178665
 31
0.0
  0
ARC
  5
22A
330
1F
100
AcDbEntity
  8
0
  6
Continuous
 62
     7
370
    15
100
AcDbCircle
 10
71.4641016151
 20
27.8341924627
 30
0.0
 40
1.000000000000002
100
AcDbArc
 50
0.0
 51
60.0
  0
LINE
  5
22B
330
1F
100
AcDbEntity
  8
0
  6
Continuous
 62
     7
370
    15
100
AcDbLine
 10
72.4641016151
 20
27.8341924627
 30
0.0
 11
72.4641016151
 21
24.9888930011
 31
0.0
  0
ARC
  5
22C
330
1F
100
AcDbEntity
  8
0
  6
Continuous
 62
     7
370
    15
100
AcDbCircle
 10
71.4641016151
 20
24.9888930011
 30
0.0
 40
1.0
100
AcDbArc
 50
300.0
 51
0.0
  0
LINE
  5
22D
330
1F
100
AcDbEntity
  8
0
  6
Continuous
 62
     7
370
    15
100
AcDbLine
 10
71.9641016151
 20
24.1228675973
 30
0.0
 11
69.5
 21
22.7002178665
 31
0.0
  0
ARC
  5
22E
330
1F
100
AcDbEntity
  8
0
  6
Continuous
 62
     7
370
    15
100
AcDbCircle
 10
69.0
 20
23.5662432703
 30
0.0
 40
0.999999999999999
100
AcDbArc
 50
240.0
 51
300.0
  0
LINE
  5
22F
330
1F
100
AcDbEntity
  8
0
  6
Continuous
 62
     7
370
    15
100
AcDbLine
 10
55.0
 20
14.9059892324
 30
0.0
 11
52.5358983849
 21
16.3286389632
 31
0.0
  0
ARC
  5
230
330
1F
100
AcDbEntity
  8
0
  6
Continuous
 62
     7
370
    15
100
AcDbCircle
 10
53.0358983849
 20
17.194664367
 30
0.0
 40
1.000000000000002
100
AcDbArc
 50
180.0
 51
240.0
  0
LINE
  5
231
330
1F
100
AcDbEntity
  8
0
  6
Continuous
 62
     7
370
    15
100
AcDbLine
 10
52.0358983849
 20
17.194664367
 30
0.0
 11
52.0358983849
 21
20.0399638286
 31
0.0
  0
ARC
  5
232
330
1F
100
AcDbEntity
  8
0
  6
Continuous
 62
     7
370
    15
100
AcDbCircle
 10
53.0358983849
 20
20.0399638286
 30
0.0
 40
1.0
100
AcDbArc
 50
120.0
 51
180.0
  0
LINE
  5
233
330
1F
100
AcDbEntity
  8
0
  6
Continuous
 62
     7
370
    15
100
AcDbLine
 10
52.5358983849
 20
20.9059892324
 30
0.0
 11
55.0
 21
22.3286389632
 31
0.0
  0
ARC
  5
234
330
1F
100
AcDbEntity
  8
0
  6
Continuous
 62
     7
370
    15
100
AcDbCircle
 10
55.5
 20
21.4626135594
 30
0.0
 40
1.000000000000002
100
AcDbArc
 50
60.0
 51
120.0
  0
LINE
  5
235
330
1F
100
AcDbEntity
  8
0
  6
Continuous
 62
     7
370
    15
100
AcDbLine
 10
56.0
 20
22.3286389632
 30
0.0
 11
58.4641016151
 21
20.9059892324
 31
0.0
  0
ARC
  5
236
330
1F
100
AcDbEntity
  8
0
  6
Continuous
 62
     7
370
    15
100
AcDbCircle
 10
57.9641016151
 20
20.0399638286
 30
0.0
 40
1.0
100
AcDbArc
 50
0.0
 51
60.0
  0
LINE
  5
237
330
1F
100
AcDbEntity
  8
0
  6
Continuous
 62
     7
370
    15
100
AcDbLine
 10
58.9641016151
 20
20.0399638286
 30
0.0
 11
58.9641016151
 21
17.194664367
 31
0.0
  0
ARC
  5
238
330
1F
100
AcDbEntity
  8
0
  6
Continuous
 62
     7
370
    15
100
AcDbCircle
 10
57.9641016151
 20
17.194664367
 30
0.0
 40
1.0
100
AcDbArc
 50
300.0
 51
0.0
  0
LINE
  5
239
330
1F
100
AcDbEntity
  8
0
  6
Continuous
 62
     7
370
    15
100
AcDbLine
 10
58.4641016151
 20
16.3286389632
 30
0.0
 11
56.0
 21
14.9059892324
 31
0.0
  0
ARC
  5
23A
330
1F
100
AcDbEntity
  8
0
  6
Continuous
 62
     7
370
    15
100
AcDbCircle
 10
55.5
 20
15.7720146362
 30
0.0
 40
1.0
100
AcDbArc
 50
240.0
 51
300.0
  0
LINE
  5
23B
330
1F
100
AcDbEntity
  8
0
  6
Continuous
 62
     7
370
    15
100
AcDbLine
 10
41.5
 20
7.1117605984
 30
0.0
 11
39.0358983849
 21
8.5344103292
 31
0.0
  0
ARC
  5
23C
330
1F
100
AcDbEntity
  8
0
  6
Continuous
 62
     7
370
    15
100
AcDbCircle
 10
39.5358983849
 20
9.4004357329
 30
0.0
 40
1.000000000000007
100
AcDbArc
 50
180.0
 51
240.0
  0
LINE
  5
23D
330
1F
100
AcDbEntity
  8
0
  6
Continuous
 62
     7
370
    15
100
AcDbLine
 10
38.5358983849
 20
9.4004357329
 30
0.0
 11
38.5358983849
 21
12.2457351946
 31
0.0
  0
ARC
  5
23E
330
1F
100
AcDbEntity
  8
0
  6
Continuous
 62
     7
370
    15
100
AcDbCircle
 10
39.5358983849
 20
12.2457351946
 30
0.0
 40
1.000000000000007
100
AcDbArc
 50
120.0
 51
180.0
  0
LINE
  5
23F
330
1F
100
AcDbEntity
  8
0
  6
Continuous
 62
     7
370
    15
100
AcDbLine
 10
39.0358983849
 20
13.1117605984
 30
0.0
 11
41.5
 21
14.5344103292
 31
0.0
  0
ARC
  5
240
330
1F
100
AcDbEntity
  8
0
  6
Continuous
 62
     7
370
    15
100
AcDbCircle
 10
42.0
 20
13.6683849254
 30
0.0
 40
1.000000000000004
100
AcDbArc
 50
60.0
 51
120.0
  0
LINE
  5
241
330
1F
100
AcDbEntity
  8
0
  6
Continuous
 62
     7
370
    15
100
AcDbLine
 10
42.5
 20
14.5344103292
 30
0.0
 11
44.9641016151
 21
13.1117605984
 31
0.0
  0
ARC
  5
242
330
1F
100
AcDbEntity
  8
0
  6
Continuous
 62
     7
370
    15
100
AcDbCircle
 10
44.4641016151
 20
12.2457351946
 30
0.0
 40
1.000000000000007
100
AcDbArc
 50
0.0
 51
60.0
  0
LINE
  5
243
330
1F
100
AcDbEntity
  8
0
  6
Continuous
 62
     7
370
    15
100
AcDbLine
 10
45.4641016151
 20
12.2457351946
 30
0.0
 11
45.4641016151
 21
9.4004357329
 31
0.0
  0
ARC
  5
244
330
1F
100
AcDbEntity
  8
0
  6
Continuous
 62
     7
370
    15
100
AcDbCircle
 10
44.4641016151
 20
9.4004357329
 30
0.0
 40
1.000000000000007
100
AcDbArc
 50
300.0
 51
0.0
  0
LINE
  5
245
330
1F
100
AcDbEntity
  8
0
  6
Continuous
 62
     7
370
    15
100
AcDbLine
 10
44.9641016151
 20
8.5344103292
 30
0.0
 11
42.5
 21
7.1117605984
 31
0.0
  0
ARC
  5
246
330
1F
100
AcDbEntity
  8
0
  6
Continuous
 62
     7
370
    15
100
AcDbCircle
 10
42.0
 20
7.9777860021
 30
0.0
 40
0.999999999999999
100
AcDbArc
 50
240.0
 51
300.0
  0
LINE
  5
247
330
1F
100
AcDbEntity
  8
0
  6
Continuous
 62
     7
370
    15
100
AcDbLine
 10
77.5
 20
53.8771324027
 30
0.0
 11
75.0358983849
 21
55.2997821335
 31
0.0
  0
ARC
  5
248
330
1F
100
AcDbEntity
  8
0
  6
Continuous
 62
     7
370
    15
100
AcDbCircle
 10
75.5358983849
 20
56.1658075373
 30
0.0
 40
1.000000000000002
100
AcDbArc
 50
180.0
 51
240.0
  0
LINE
  5
249
330
1F
100
AcDbEntity
  8
0
  6
Continuous
 62
     7
370
    15
100
AcDbLine
 10
74.5358983849
 20
56.1658075373
 30
0.0
 11
74.5358983849
 21
59.0111069989
 31
0.0
  0
ARC
  5
24A
330
1F
100
AcDbEntity
  8
0
  6
Continuous
 62
     7
370
    15
100
AcDbCircle
 10
75.5358983849
 20
59.0111069989
 30
0.0
 40
1.0
100
AcDbArc
 50
120.0
 51
180.0
  0
LINE
  5
24B
330
1F
100
AcDbEntity
  8
0
  6
Continuous
 62
     7
370
    15
100
AcDbLine
 10
75.0358983849
 20
59.8771324027
 30
0.0
 11
77.5
 21
61.2997821335
 31
0.0
  0
ARC
  5
24C
330
1F
100
AcDbEntity
  8
0
  6
Continuous
 62
     7
370
    15
100
AcDbCircle
 10
78.0
 20
60.4337567297
 30
0.0
 40
1.000000000000002
100
AcDbArc
 50
60.0
 51
120.0
  0
LINE
  5
24D
330
1F
100
AcDbEntity
  8
0
  6
Continuous
 62
     7
370
    15
100
AcDbLine
 10
78.5
 20
61.2997821335
 30
0.0
 11
80.9641016151
 21
59.8771324027
 31
0.0
  0
ARC
  5
24E
330
1F
100
AcDbEntity
  8
0
  6
Continuous
 62
     7
370
    15
100
AcDbCircle
 10
80.4641016151
 20
59.0111069989
 30
0.0
 40
1.000000000000002
100
AcDbArc
 50
0.0
 51
60.0
  0
LINE
  5
24F
330
1F
100
AcDbEntity
  8
0
  6
Continuous
 62
     7
370
    15
100
AcDbLine
 10
81.4641016151
 20
59.0111069989
 30
0.0
 11
81.4641016151
 21
56.1658075373
 31
0.0
  0
ARC
  5
250
330
1F
100
AcDbEntity
  8
0
  6
Continuous
 62
     7
370
    15
100
AcDbCircle
 10
80.4641016151
 20
56.1658075373
 30
0.0
 40
1.0
100
AcDbArc
 50
300.0
 51
0.0
  0
LINE
  5
251
330
1F
100
AcDbEntity
  8
0
  6
Continuous
 62
     7
370
    15
100
AcDbLine
 10
80.9641016151
 20
55.2997821335
 30
0.0
 11
78.5
 21
53.8771324027
 31
0.0
  0
ARC
  5
252
330
1F
100
AcDbEntity
  8
0
  6
Continuous
 62
     7
370
    15
100
AcDbCircle
 10
78.0
 20
54.7431578065
 30
0.0
 40
1.000000000000014
100
AcDbArc
 50
240.0
 51
300.0
  0
LINE
  5
253
330
1F
100
AcDbEntity
  8
0
  6
Continuous
 62
     7
370
    15
100
AcDbLine
 10
73.0
 20
30.4944465005
 30
0.0
 11
70.5358983849
 21
31.9170962313
 31
0.0
  0
ARC
  5
254
330
1F
100
AcDbEntity
  8
0
  6
Continuous
 62
     7
370
    15
100
AcDbCircle
 10
71.0358983849
 20
32.7831216351
 30
0.0
 40
1.000000000000002
100
AcDbArc
 50
180.0
 51
240.0
  0
LINE
  5
255
330
1F
100
AcDbEntity
  8
0
  6
Continuous
 62
     7
370
    15
100
AcDbLine
 10
70.0358983849
 20
32.7831216351
 30
0.0
 11
70.0358983849
 21
35.6284210968
 31
0.0
  0
ARC
  5
256
330
1F
100
AcDbEntity
  8
0
  6
Continuous
 62
     7
370
    15
100
AcDbCircle
 10
71.0358983849
 20
35.6284210968
 30
0.0
 40
1.0
100
AcDbArc
 50
120.0
 51
180.0
  0
LINE
  5
257
330
1F
100
AcDbEntity
  8
0
  6
Continuous
 62
     7
370
    15
100
AcDbLine
 10
70.5358983849
 20
36.4944465005
 30
0.0
 11
73.0
 21
37.9170962313
 31
0.0
  0
ARC
  5
258
330
1F
100
AcDbEntity
  8
0
  6
Continuous
 62
     7
370
    15
100
AcDbCircle
 10
73.5
 20
37.0510708276
 30
0.0
 40
1.000000000000008
100
AcDbArc
 50
60.0
 51
120.0
  0
LINE
  5
259
330
1F
100
AcDbEntity
  8
0
  6
Continuous
 62
     7
370
    15
100
AcDbLine
 10
74.0
 20
37.9170962313
 30
0.0
 11
76.4641016151
 21
36.4944465005
 31
0.0
  0
ARC
  5
25A
330
1F
100
AcDbEntity
  8
0
  6
Continuous
 62
     7
370
    15
100
AcDbCircle
 10
75.9641016151
 20
35.6284210968
 30
0.0
 40
1.000000000000002
100
AcDbArc
 50
0.0
 51
60.0
  0
LINE
  5
25B
330
1F
100
AcDbEntity
  8
0
  6
Continuous
 62
     7
370
    15
100
AcDbLine
 10
76.9641016151
 20
35.6284210968
 30
0.0
 11
76.9641016151
 21
32.7831216351
 31
0.0
  0
ARC
  5
25C
330
1F
100
AcDbEntity
  8
0
  6
Continuous
 62
     7
370
    15
100
AcDbCircle
 10
75.9641016151
 20
32.7831216351
 30
0.0
 40
1.0
100
AcDbArc
 50
300.0
 51
0.0
  0
LINE
  5
25D
330
1F
100
AcDbEntity
  8
0
  6
Continuous
 62
     7
370
    15
100
AcDbLine
 10
76.4641016151
 20
31.9170962313
 30
0.0
 11
74.0
 21
30.4944465005
 31
0.0
  0
ARC
  5
25E
330
1F
100
AcDbEntity
  8
0
  6
Continuous
 62
     7
370
    15
100
AcDbCircle
 10
73.5
 20
31.3604719043
 30
0.0
 40
1.000000000000002
100
AcDbArc
 50
240.0
 51
300.0
  0
LINE
  5
25F
330
1F
100
AcDbEntity
  8
0
  6
Continuous
 62
     7
370
    15
100
AcDbLine
 10
59.5
 20
22.7002178665
 30
0.0
 11
57.0358983849
 21
24.1228675973
 31
0.0
  0
ARC
  5
260
330
1F
100
AcDbEntity
  8
0
  6
Continuous
 62
     7
370
    15
100
AcDbCircle
 10
57.5358983849
 20
24.9888930011
 30
0.0
 40
1.000000000000002
100
AcDbArc
 50
180.0
 51
240.0
  0
LINE
  5
261
330
1F
100
AcDbEntity
  8
0
  6
Continuous
 62
     7
370
    15
100
AcDbLine
 10
56.5358983849
 20
24.9888930011
 30
0.0
 11
56.5358983849
 21
27.8341924627
 31
0.0
  0
ARC
  5
262
330
1F
100
AcDbEntity
  8
0
  6
Continuous
 62
     7
370
    15
100
AcDbCircle
 10
57.5358983849
 20
27.8341924627
 30
0.0
 40
1.0
100
AcDbArc
 50
120.0
 51
180.0
  0
LINE
  5
263
330
1F
100
AcDbEntity
  8
0
  6
Continuous
 62
     7
370
    15
100
AcDbLine
 10
57.0358983849
 20
28.7002178665
 30
0.0
 11
59.5
 21
30.1228675973
 31
0.0
  0
ARC
  5
264
330
1F
100
AcDbEntity
  8
0
  6
Continuous
 62
     7
370
    15
100
AcDbCircle
 10
60.0
 20
29.2568421935
 30
0.0
 40
1.000000000000002
100
AcDbArc
 50
60.0
 51
120.0
  0
LINE
  5
265
330
1F
100
AcDbEntity
  8
0
  6
Continuous
 62
     7
370
    15
100
AcDbLine
 10
60.5
 20
30.1228675973
 30
0.0
 11
62.9641016151
 21
28.7002178665
 31
0.0
  0
ARC
  5
266
330
1F
100
AcDbEntity
  8
0
  6
Continuous
 62
     7
370
    15
100
AcDbCircle
 10
62.4641016151
 20
27.8341924627
 30
0.0
 40
0.9999999999999954
100
AcDbArc
 50
0.0
 51
60.0
  0
LINE
  5
267
330
1F
100
AcDbEntity
  8
0
  6
Continuous
 62
     7
370
    15
100
AcDbLine
 10
63.4641016151
 20
27.8341924627
 30
0.0
 11
63.4641016151
 21
24.9888930011
 31
0.0
  0
ARC
  5
268
330
1F
100
AcDbEntity
  8
0
  6
Continuous
 62
     7
370
    15
100
AcDbCircle
 10
62.4641016151
 20
24.9888930011
 30
0.0
 40
1.0
100
AcDbArc
 50
300.0
 51
0.0
  0
LINE
  5
269
330
1F
100
AcDbEntity
  8
0
  6
Continuous
 62
     7
370
    15
100
AcDbLine
 10
62.9641016151
 20
24.1228675973
 30
0.0
 11
60.5
 21
22.7002178665
 31
0.0
  0
ARC
  5
26A
330
1F
100
AcDbEntity
  8
0
  6
Continuous
 62
     7
370
    15
100
AcDbCircle
 10
60.0
 20
23.5662432703
 30
0.0
 40
0.9999999999999959
100
AcDbArc
 50
240.0
 51
300.0
  0
LINE
  5
26B
330
1F
100
AcDbEntity
  8
0
  6
Continuous
 62
     7
370
    15
100
AcDbLine
 10
46.0
 20
14.9059892324
 30
0.0
 11
43.5358983849
 21
16.3286389632
 31
0.0
  0
ARC
  5
26C
330
1F
100
AcDbEntity
  8
0
  6
Continuous
 62
     7
370
    15
100
AcDbCircle
 10
44.0358983849
 20
17.194664367
 30
0.0
 40
1.000000000000002
100
AcDbArc
 50
180.0
 51
240.0
  0
LINE
  5
26D
330
1F
100
AcDbEntity
  8
0
  6
Continuous
 62
     7
370
    15
100
AcDbLine
 10
43.0358983849
 20
17.194664367
 30
0.0
 11
43.0358983849
 21
20.0399638286
 31
0.0
  0
ARC
  5
26E
330
1F
100
AcDbEntity
  8
0
  6
Continuous
 62
     7
370
    15
100
AcDbCircle
 10
44.0358983849
 20
20.0399638286
 30
0.0
 40
1.0
100
AcDbArc
 50
120.0
 51
180.0
  0
LINE
  5
26F
330
1F
100
AcDbEntity
  8
0
  6
Continuous
 62
     7
370
    15
100
AcDbLine
 10
43.5358983849
 20
20.9059892324
 30
0.0
 11
46.0
 21
22.3286389632
 31
0.0
  0
ARC
  5
270
330
1F
100
AcDbEntity
  8
0
  6
Continuous
 62
     7
370
    15
100
AcDbCircle
 10
46.5
 20
21.4626135594
 30
0.0
 40
1.000000000000002
100
AcDbArc
 50
60.0
 51
120.0
  0
LINE
  5
271
330
1F
100
AcDbEntity
  8
0
  6
Continuous
 62
     7
370
    15
100
AcDbLine
 10
47.0
 20
22.3286389632
 30
0.0
 11
49.4641016151
 21
20.9059892324
 31
0.0
  0
ARC
  5
272
330
1F
100
AcDbEntity
  8
0
  6
Continuous
 62
     7
370
    15
100
AcDbCircle
 10
48.9641016151
 20
20.0399638286
 30
0.0
 40
1.0
100
AcDbArc
 50
0.0
 51
60.0
  0
LINE
  5
273
330
1F
100
AcDbEntity
  8
0
  6
Continuous
 62
     7
370
    15
100
AcDbLine
 10
49.9641016151
 20
20.0399638286
 30
0.0
 11
49.9641016151
 21
17.194664367
 31
0.0
  0
ARC
  5
274
330
1F
100
AcDbEntity
  8
0
  6
Continuous
 62
     7
370
    15
100
AcDbCircle
 10
48.9641016151
 20
17.194664367
 30
0.0
 40
1.0
100
AcDbArc
 50
300.0
 51
0.0
  0
LINE
  5
275
330
1F
100
AcDbEntity
  8
0
  6
Continuous
 62
     7
370
    15
100
AcDbLine
 10
49.4641016151
 20
16.3286389632
 30
0.0
 11
47.0
 21
14.9059892324
 31
0.0
  0
ARC
  5
276
330
1F
100
AcDbEntity
  8
0
  6
Continuous
 62
     7
370
    15
100
AcDbCircle
 10
46.5
 20
15.7720146362
 30
0.0
 40
1.0
100
AcDbArc
 50
240.0
 51
300.0
  0
LINE
  5
277
330
1F
100
AcDbEntity
  8
0
  6
Continuous
 62
     7
370
    15
100
AcDbLine
 10
23.5
 20
22.7002178665
 30
0.0
 11
21.0358983849
 21
24.1228675973
 31
0.0
  0
ARC
  5
278
330
1F
100
AcDbEntity
  8
0
  6
Continuous
 62
     7
370
    15
100
AcDbCircle
 10
21.5358983849
 20
24.9888930011
 30
0.0
 40
1.000000000000004
100
AcDbArc
 50
180.0
 51
240.0
  0
LINE
  5
279
330
1F
100
AcDbEntity
  8
0
  6
Continuous
 62
     7
370
    15
100
AcDbLine
 10
20.5358983849
 20
24.9888930011
 30
0.0
 11
20.5358983849
 21
27.8341924627
 31
0.0
  0
ARC
  5
27A
330
1F
100
AcDbEntity
  8
0
  6
Continuous
 62
     7
370
    15
100
AcDbCircle
 10
21.5358983849
 20
27.8341924627
 30
0.0
 40
1.000000000000004
100
AcDbArc
 50
120.0
 51
180.0
  0
LINE
  5
27B
330
1F
100
AcDbEntity
  8
0
  6
Continuous
 62
     7
370
    15
100
AcDbLine
 10
21.0358983849
 20
28.7002178665
 30
0.0
 11
23.5
 21
30.1228675973
 31
0.0
  0
ARC
  5
27C
330
1F
100
AcDbEntity
  8
0
  6
Continuous
 62
     7
370
    15
100
AcDbCircle
 10
24.0
 20
29.2568421935
 30
0.0
 40
1.000000000000001
100
AcDbArc
 50
60.0
 51
120.0
  0
LINE
  5
27D
330
1F
100
AcDbEntity
  8
0
  6
Continuous
 62
     7
370
    15
100
AcDbLine
 10
24.5
 20
30.1228675973
 30
0.0
 11
26.9641016151
 21
28.7002178665
 31
0.0
  0
ARC
  5
27E
330
1F
100
AcDbEntity
  8
0
  6
Continuous
 62
     7
370
    15
100
AcDbCircle
 10
26.4641016151
 20
27.8341924627
 30
0.0
 40
1.000000000000004
100
AcDbArc
 50
0.0
 51
60.0
  0
LINE
  5
27F
330
1F
100
AcDbEntity
  8
0
  6
Continuous
 62
     7
370
    15
100
AcDbLine
 10
27.4641016151
 20
27.8341924627
 30
0.0
 11
27.4641016151
 21
24.9888930011
 31
0.0
  0
ARC
  5
280
330
1F
100
AcDbEntity
  8
0
  6
Continuous
 62
     7
370
    15
100
AcDbCircle
 10
26.4641016151
 20
24.9888930011
 30
0.0
 40
1.000000000000004
100
AcDbArc
 50
300.0
 51
0.0
  0
LINE
  5
281
330
1F
100
AcDbEntity
  8
0
  6
Continuous
 62
     7
370
    15
100
AcDbLine
 10
26.9641016151
 20
24.1228675973
 30
0.0
 11
24.5
 21
22.7002178665
 31
0.0
  0
ARC
  5
282
330
1F
100
AcDbEntity
  8
0
  6
Continuous
 62
     7
370
    15
100
AcDbCircle
 10
24.0
 20
23.5662432703
 30
0.0
 40
0.9999999999999977
100
AcDbArc
 50
240.0
 51
300.0
  0
LINE
  5
283
330
1F
100
AcDbEntity
  8
0
  6
Continuous
 62
     7
370
    15
100
AcDbLine
 10
73.0
 20
46.0829037687
 30
0.0
 11
70.5358983849
 21
47.5055534995
 31
0.0
  0
ARC
  5
284
330
1F
100
AcDbEntity
  8
0
  6
Continuous
 62
     7
370
    15
100
AcDbCircle
 10
71.0358983849
 20
48.3715789032
 30
0.0
 40
1.000000000000002
100
AcDbArc
 50
180.0
 51
240.0
  0
LINE
  5
285
330
1F
100
AcDbEntity
  8
0
  6
Continuous
 62
     7
370
    15
100
AcDbLine
 10
70.0358983849
 20
48.3715789032
 30
0.0
 11
70.0358983849
 21
51.2168783649
 31
0.0
  0
ARC
  5
286
330
1F
100
AcDbEntity
  8
0
  6
Continuous
 62
     7
370
    15
100
AcDbCircle
 10
71.0358983849
 20
51.2168783649
 30
0.0
 40
1.0
100
AcDbArc
 50
120.0
 51
180.0
  0
LINE
  5
287
330
1F
100
AcDbEntity
  8
0
  6
Continuous
 62
     7
370
    15
100
AcDbLine
 10
70.5358983849
 20
52.0829037687
 30
0.0
 11
73.0
 21
53.5055534995
 31
0.0
  0
ARC
  5
288
330
1F
100
AcDbEntity
  8
0
  6
Continuous
 62
     7
370
    15
100
AcDbCircle
 10
73.5
 20
52.6395280957
 30
0.0
 40
1.000000000000002
100
AcDbArc
 50
60.0
 51
120.0
  0
LINE
  5
289
330
1F
100
AcDbEntity
  8
0
  6
Continuous
 62
     7
370
    15
100
AcDbLine
 10
74.0
 20
53.5055534995
 30
0.0
 11
76.4641016151
 21
52.0829037687
 31
0.0
  0
ARC
  5
28A
330
1F
100
AcDbEntity
  8
0
  6
Continuous
 62
     7
370
    15
100
AcDbCircle
 10
75.9641016151
 20
51.2168783649
 30
0.0
 40
1.000000000000008
100
AcDbArc
 50
0.0
 51
60.0
  0
LINE
  5
28B
330
1F
100
AcDbEntity
  8
0
  6
Continuous
 62
     7
370
    15
100
AcDbLine
 10
76.9641016151
 20
51.2168783649
 30
0.0
 11
76.9641016151
 21
48.3715789032
 31
0.0
  0
ARC
  5
28C
330
1F
100
AcDbEntity
  8
0
  6
Continuous
 62
     7
370
    15
100
AcDbCircle
 10
75.9641016151
 20
48.3715789032
 30
0.0
 40
1.0
100
AcDbArc
 50
300.0
 51
0.0
  0
LINE
  5
28D
330
1F
100
AcDbEntity
  8
0
  6
Continuous
 62
     7
370
    15
100
AcDbLine
 10
76.4641016151
 20
47.5055534995
 30
0.0
 11
74.0
 21
46.0829037687
 31
0.0
  0
ARC
  5
28E
330
1F
100
AcDbEntity
  8
0
  6
Continuous
 62
     7
370
    15
100
AcDbCircle
 10
73.5
 20
46.9489291724
 30
0.0
 40
1.000000000000008
100
AcDbArc
 50
240.0
 51
300.0
  0
LINE
  5
28F
330
1F
100
AcDbEntity
  8
0
  6
Continuous
 62
     7
370
    15
100
AcDbLine
 10
59.5
 20
38.2886751346
 30
0.0
 11
57.0358983849
 21
39.7113248654
 31
0.0
  0
ARC
  5
290
330
1F
100
AcDbEntity
  8
0
  6
Continuous
 62
     7
370
    15
100
AcDbCircle
 10
57.5358983849
 20
40.5773502692
 30
0.0
 40
1.000000000000008
100
AcDbArc
 50
180.0
 51
240.0
  0
LINE
  5
291
330
1F
100
AcDbEntity
  8
0
  6
Continuous
 62
     7
370
    15
100
AcDbLine
 10
56.5358983849
 20
40.5773502692
 30
0.0
 11
56.5358983849
 21
43.4226497308
 31
0.0
  0
ARC
  5
292
330
1F
100
AcDbEntity
  8
0
  6
Continuous
 62
     7
370
    15
100
AcDbCircle
 10
57.5358983849
 20
43.4226497308
 30
0.0
 40
1.0
100
AcDbArc
 50
120.0
 51
180.0
  0
LINE
  5
293
330
1F
100
AcDbEntity
  8
0
  6
Continuous
 62
     7
370
    15
100
AcDbLine
 10
57.0358983849
 20
44.2886751346
 30
0.0
 11
59.5
 21
45.7113248654
 31
0.0
  0
ARC
  5
294
330
1F
100
AcDbEntity
  8
0
  6
Continuous
 62
     7
370
    15
100
AcDbCircle
 10
60.0
 20
44.8452994616
 30
0.0
 40
1.000000000000002
100
AcDbArc
 50
60.0
 51
120.0
  0
LINE
  5
295
330
1F
100
AcDbEntity
  8
0
  6
Continuous
 62
     7
370
    15
100
AcDbLine
 10
60.5
 20
45.7113248654
 30
0.0
 11
62.9641016151
 21
44.2886751346
 31
0.0
  0
ARC
  5
296
330
1F
100
AcDbEntity
  8
0
  6
Continuous
 62
     7
370
    15
100
AcDbCircle
 10
62.4641016151
 20
43.4226497308
 30
0.0
 40
0.9999999999999984
100
AcDbArc
 50
0.0
 51
60.0
  0
LINE
  5
297
330
1F
100
AcDbEntity
  8
0
  6
Continuous
 62
     7
370
    15
100
AcDbLine
 10
63.4641016151
 20
43.4226497308
 30
0.0
 11
63.4641016151
 21
40.5773502692
 31
0.0
  0
ARC
  5
298
330
1F
100
AcDbEntity
  8
0
  6
Continuous
 62
     7
370
    15
100
AcDbCircle
 10
62.4641016151
 20
40.5773502692
 30
0.0
 40
1.000000000000002
100
AcDbArc
 50
300.0
 51
0.0
  0
LINE
  5
299
330
1F
100
AcDbEntity
  8
0
  6
Continuous
 62
     7
370
    15
100
AcDbLine
 10
62.9641016151
 20
39.7113248654
 30
0.0
 11
60.5
 21
38.2886751346
 31
0.0
  0
ARC
  5
29A
330
1F
100
AcDbEntity
  8
0
  6
Continuous
 62
     7
370
    15
100
AcDbCircle
 10
60.0
 20
39.1547005384
 30
0.0
 40
1.000000000000002
100
AcDbArc
 50
240.0
 51
300.0
  0
LINE
  5
29B
330
1F
100
AcDbEntity
  8
0
  6
Continuous
 62
     7
370
    15
100
AcDbLine
 10
46.0
 20
30.4944465005
 30
0.0
 11
43.5358983849
 21
31.9170962313
 31
0.0
  0
ARC
  5
29C
330
1F
100
AcDbEntity
  8
0
  6
Continuous
 62
     7
370
    15
100
AcDbCircle
 10
44.0358983849
 20
32.7831216351
 30
0.0
 40
1.000000000000002
100
AcDbArc
 50
180.0
 51
240.0
  0
LINE
  5
29D
330
1F
100
AcDbEntity
  8
0
  6
Continuous
 62
     7
370
    15
100
AcDbLine
 10
43.0358983849
 20
32.7831216351
 30
0.0
 11
43.0358983849
 21
35.6284210968
 31
0.0
  0
ARC
  5
29E
330
1F
100
AcDbEntity
  8
0
  6
Continuous
 62
     7
370
    15
100
AcDbCircle
 10
44.0358983849
 20
35.6284210968
 30
0.0
 40
1.0
100
AcDbArc
 50
120.0
 51
180.0
  0
LINE
  5
29F
330
1F
100
AcDbEntity
  8
0
  6
Continuous
 62
     7
370
    15
100
AcDbLine
 10
43.5358983849
 20
36.4944465005
 30
0.0
 11
46.0
 21
37.9170962313
 31
0.0
  0
ARC
  5
2A0
330
1F
100
AcDbEntity
  8
0
  6
Continuous
 62
     7
370
    15
100
AcDbCircle
 10
46.5
 20
37.0510708276
 30
0.0
 40
1.000000000000008
100
AcDbArc
 50
60.0
 51
120.0
  0
LINE
  5
2A1
330
1F
100
AcDbEntity
  8
0
  6
Continuous
 62
     7
370
    15
100
AcDbLine
 10
47.0
 20
37.9170962313
 30
0.0
 11
49.4641016151
 21
36.4944465005
 31
0.0
  0
ARC
  5
2A2
330
1F
100
AcDbEntity
  8
0
  6
Continuous
 62
     7
370
    15
100
AcDbCircle
 10
48.9641016151
 20
35.6284210968
 30
0.0
 40
1.000000000000002
100
AcDbArc
 50
0.0
 51
60.0
  0
LINE
  5
2A3
330
1F
100
AcDbEntity
  8
0
  6
Continuous
 62
     7
370
    15
100
AcDbLine
 10
49.9641016151
 20
35.6284210968
 30
0.0
 11
49.9641016151
 21
32.7831216351
 31
0.0
  0
ARC
  5
2A4
330
1F
100
AcDbEntity
  8
0
  6
Continuous
 62
     7
370
    15
100
AcDbCircle
 10
48.9641016151
 20
32.7831216351
 30
0.0
 40
1.0
100
AcDbArc
 50
300.0
 51
0.0
  0
LINE
  5
2A5
330
1F
100
AcDbEntity
  8
0
  6
Continuous
 62
     7
370
    15
100
AcDbLine
 10
49.4641016151
 20
31.9170962313
 30
0.0
 11
47.0
 21
30.4944465005
 31
0.0
  0
ARC
  5
2A6
330
1F
100
AcDbEntity
  8
0
  6
Continuous
 62
     7
370
    15
100
AcDbCircle
 10
46.5
 20
31.3604719043
 30
0.0
 40
1.000000000000002
100
AcDbArc
 50
240.0
 51
300.0
  0
LINE
  5
2A7
330
1F
100
AcDbEntity
  8
0
  6
Continuous
 62
     7
370
    15
100
AcDbLine
 10
32.5
 20
22.7002178665
 30
0.0
 11
30.0358983849
 21
24.1228675973
 31
0.0
  0
ARC
  5
2A8
330
1F
100
AcDbEntity
  8
0
  6
Continuous
 62
     7
370
    15
100
AcDbCircle
 10
30.5358983849
 20
24.9888930011
 30
0.0
 40
1.0
100
AcDbArc
 50
180.0
 51
240.0
  0
LINE
  5
2A9
330
1F
100
AcDbEntity
  8
0
  6
Continuous
 62
     7
370
    15
100
AcDbLine
 10
29.5358983849
 20
24.9888930011
 30
0.0
 11
29.5358983849
 21
27.8341924627
 31
0.0
  0
ARC
  5
2AA
330
1F
100
AcDbEntity
  8
0
  6
Continuous
 62
     7
370
    15
100
AcDbCircle
 10
30.5358983849
 20
27.8341924627
 30
0.0
 40
1.0
100
AcDbArc
 50
120.0
 51
180.0
  0
LINE
  5
2AB
330
1F
100
AcDbEntity
  8
0
  6
Continuous
 62
     7
370
    15
100
AcDbLine
 10
30.0358983849
 20
28.7002178665
 30
0.0
 11
32.5
 21
30.1228675973
 31
0.0
  0
ARC
  5
2AC
330
1F
100
AcDbEntity
  8
0
  6
Continuous
 62
     7
370
    15
100
AcDbCircle
 10
33.0
 20
29.2568421935
 30
0.0
 40
1.000000000000002
100
AcDbArc
 50
60.0
 51
120.0
  0
LINE
  5
2AD
330
1F
100
AcDbEntity
  8
0
  6
Continuous
 62
     7
370
    15
100
AcDbLine
 10
33.5
 20
30.1228675973
 30
0.0
 11
35.9641016151
 21
28.7002178665
 31
0.0
  0
ARC
  5
2AE
330
1F
100
AcDbEntity
  8
0
  6
Continuous
 62
     7
370
    15
100
AcDbCircle
 10
35.4641016151
 20
27.8341924627
 30
0.0
 40
1.0
100
AcDbArc
 50
0.0
 51
60.0
  0
LINE
  5
2AF
330
1F
100
AcDbEntity
  8
0
  6
Continuous
 62
     7
370
    15
100
AcDbLine
 10
36.4641016151
 20
27.8341924627
 30
0.0
 11
36.4641016151
 21
24.9888930011
 31
0.0
  0
ARC
  5
2B0
330
1F
100
AcDbEntity
  8
0
  6
Continuous
 62
     7
370
    15
100
AcDbCircle
 10
35.4641016151
 20
24.9888930011
 30
0.0
 40
1.0
100
AcDbArc
 50
300.0
 51
0.0
  0
LINE
  5
2B1
330
1F
100
AcDbEntity
  8
0
  6
Continuous
 62
     7
370
    15
100
AcDbLine
 10
35.9641016151
 20
24.1228675973
 30
0.0
 11
33.5
 21
22.7002178665
 31
0.0
  0
ARC
  5
2B2
330
1F
100
AcDbEntity
  8
0
  6
Continuous
 62
     7
370
    15
100
AcDbCircle
 10
33.0
 20
23.5662432703
 30
0.0
 40
0.9999999999999959
100
AcDbArc
 50
240.0
 51
300.0
  0
LINE
  5
2B3
330
1F
100
AcDbEntity
  8
0
  6
Continuous
 62
     7
370
    15
100
AcDbLine
 10
68.5
 20
69.4655896708
 30
0.0
 11
66.0358983849
 21
70.8882394016
 31
0.0
  0
ARC
  5
2B4
330
1F
100
AcDbEntity
  8
0
  6
Continuous
 62
     7
370
    15
100
AcDbCircle
 10
66.5358983849
 20
71.7542648054
 30
0.0
 40
1.000000000000008
100
AcDbArc
 50
180.0
 51
240.0
  0
LINE
  5
2B5
330
1F
100
AcDbEntity
  8
0
  6
Continuous
 62
     7
370
    15
100
AcDbLine
 10
65.5358983849
 20
71.7542648054
 30
0.0
 11
65.5358983849
 21
74.5995642671
 31
0.0
  0
ARC
  5
2B6
330
1F
100
AcDbEntity
  8
0
  6
Continuous
 62
     7
370
    15
100
AcDbCircle
 10
66.5358983849
 20
74.5995642671
 30
0.0
 40
1.000000000000008
100
AcDbArc
 50
120.0
 51
180.0
  0
LINE
  5
2B7
330
1F
100
AcDbEntity
  8
0
  6
Continuous
 62
     7
370
    15
100
AcDbLine
 10
66.0358983849
 20
75.4655896708
 30
0.0
 11
68.5
 21
76.8882394016
 31
0.0
  0
ARC
  5
2B8
330
1F
100
AcDbEntity
  8
0
  6
Continuous
 62
     7
370
    15
100
AcDbCircle
 10
69.0
 20
76.0222139979
 30
0.0
 40
1.000000000000008
100
AcDbArc
 50
60.0
 51
120.0
  0
LINE
  5
2B9
330
1F
100
AcDbEntity
  8
0
  6
Continuous
 62
     7
370
    15
100
AcDbLine
 10
69.5
 20
76.8882394016
 30
0.0
 11
71.9641016151
 21
75.4655896708
 31
0.0
  0
ARC
  5
2BA
330
1F
100
AcDbEntity
  8
0
  6
Continuous
 62
     7
370
    15
100
AcDbCircle
 10
71.4641016151
 20
74.5995642671
 30
0.0
 40
1.0
100
AcDbArc
 50
0.0
 51
60.0
  0
LINE
  5
2BB
330
1F
100
AcDbEntity
  8
0
  6
Continuous
 62
     7
370
    15
100
AcDbLine
 10
72.4641016151
 20
74.5995642671
 30
0.0
 11
72.4641016151
 21
71.7542648054
 31
0.0
  0
ARC
  5
2BC
330
1F
100
AcDbEntity
  8
0
  6
Continuous
 62
     7
370
    15
100
AcDbCircle
 10
71.4641016151
 20
71.7542648054
 30
0.0
 40
1.0
100
AcDbArc
 50
300.0
 51
0.0
  0
LINE
  5
2BD
330
1F
100
AcDbEntity
  8
0
  6
Continuous
 62
     7
370
    15
100
AcDbLine
 10
71.9641016151
 20
70.8882394016
 30
0.0
 11
69.5
 21
69.4655896708
 31
0.0
  0
ARC
  5
2BE
330
1F
100
AcDbEntity
  8
0
  6
Continuous
 62
     7
370
    15
100
AcDbCircle
 10
69.0
 20
70.3316150746
 30
0.0
 40
1.000000000000008
100
AcDbArc
 50
240.0
 51
300.0
  0
LINE
  5
2BF
330
1F
100
AcDbEntity
  8
0
  6
Continuous
 62
     7
370
    15
100
AcDbLine
 10
64.0
 20
46.0829037687
 30
0.0
 11
61.5358983849
 21
47.5055534995
 31
0.0
  0
ARC
  5
2C0
330
1F
100
AcDbEntity
  8
0
  6
Continuous
 62
     7
370
    15
100
AcDbCircle
 10
62.0358983849
 20
48.3715789032
 30
0.0
 40
1.000000000000002
100
AcDbArc
 50
180.0
 51
240.0
  0
LINE
  5
2C1
330
1F
100
AcDbEntity
  8
0
  6
Continuous
 62
     7
370
    15
100
AcDbLine
 10
61.0358983849
 20
48.3715789032
 30
0.0
 11
61.0358983849
 21
51.2168783649
 31
0.0
  0
ARC
  5
2C2
330
1F
100
AcDbEntity
  8
0
  6
Continuous
 62
     7
370
    15
100
AcDbCircle
 10
62.0358983849
 20
51.2168783649
 30
0.0
 40
1.0
100
AcDbArc
 50
120.0
 51
180.0
  0
LINE
  5
2C3
330
1F
100
AcDbEntity
  8
0
  6
Continuous
 62
     7
370
    15
100
AcDbLine
 10
61.5358983849
 20
52.0829037687
 30
0.0
 11
64.0
 21
53.5055534995
 31
0.0
  0
ARC
  5
2C4
330
1F
100
AcDbEntity
  8
0
  6
Continuous
 62
     7
370
    15
100
AcDbCircle
 10
64.5
 20
52.6395280957
 30
0.0
 40
1.000000000000002
100
AcDbArc
 50
60.0
 51
120.0
  0
LINE
  5
2C5
330
1F
100
AcDbEntity
  8
0
  6
Continuous
 62
     7
370
    15
100
AcDbLine
 10
65.0
 20
53.5055534995
 30
0.0
 11
67.4641016151
 21
52.0829037687
 31
0.0
  0
ARC
  5
2C6
330
1F
100
AcDbEntity
  8
0
  6
Continuous
 62
     7
370
    15
100
AcDbCircle
 10
66.9641016151
 20
51.2168783649
 30
0.0
 40
1.000000000000008
100
AcDbArc
 50
0.0
 51
60.0
  0
LINE
  5
2C7
330
1F
100
AcDbEntity
  8
0
  6
Continuous
 62
     7
370
    15
100
AcDbLine
 10
67.9641016151
 20
51.2168783649
 30
0.0
 11
67.9641016151
 21
48.3715789032
 31
0.0
  0
ARC
  5
2C8
330
1F
100
AcDbEntity
  8
0
  6
Continuous
 62
     7
370
    15
100
AcDbCircle
 10
66.9641016151
 20
48.3715789032
 30
0.0
 40
1.0
100
AcDbArc
 50
300.0
 51
0.0
  0
LINE
  5
2C9
330
1F
100
AcDbEntity
  8
0
  6
Continuous
 62
     7
370
    15
100
AcDbLine
 10
67.4641016151
 20
47.5055534995
 30
0.0
 11
65.0
 21
46.0829037687
 31
0.0
  0
ARC
  5
2CA
330
1F
100
AcDbEntity
  8
0
  6
Continuous
 62
     7
370
    15
100
AcDbCircle
 10
64.5
 20
46.9489291724
 30
0.0
 40
0.9999999999999959
100
AcDbArc
 50
240.0
 51
300.0
  0
LINE
  5
2CB
330
1F
100
AcDbEntity
  8
0
  6
Continuous
 62
     7
370
    15
100
AcDbLine
 10
50.5
 20
38.2886751346
 30
0.0
 11
48.0358983849
 21
39.7113248654
 31
0.0
  0
ARC
  5
2CC
330
1F
100
AcDbEntity
  8
0
  6
Continuous
 62
     7
370
    15
100
AcDbCircle
 10
48.5358983849
 20
40.5773502692
 30
0.0
 40
1.000000000000008
100
AcDbArc
 50
180.0
 51
240.0
  0
LINE
  5
2CD
330
1F
100
AcDbEntity
  8
0
  6
Continuous
 62
     7
370
    15
100
AcDbLine
 10
47.5358983849
 20
40.5773502692
 30
0.0
 11
47.5358983849
 21
43.4226497308
 31
0.0
  0
ARC
  5
2CE
330
1F
100
AcDbEntity
  8
0
  6
Continuous
 62
     7
370
    15
100
AcDbCircle
 10
48.5358983849
 20
43.4226497308
 30
0.0
 40
1.000000000000007
100
AcDbArc
 50
120.0
 51
180.0
  0
LINE
  5
2CF
330
1F
100
AcDbEntity
  8
0
  6
Continuous
 62
     7
370
    15
100
AcDbLine
 10
48.0358983849
 20
44.2886751346
 30
0.0
 11
50.5
 21
45.7113248654
 31
0.0
  0
ARC
  5
2D0
330
1F
100
AcDbEntity
  8
0
  6
Continuous
 62
     7
370
    15
100
AcDbCircle
 10
51.0
 20
44.8452994616
 30
0.0
 40
1.000000000000002
100
AcDbArc
 50
60.0
 51
120.0
  0
LINE
  5
2D1
330
1F
100
AcDbEntity
  8
0
  6
Continuous
 62
     7
370
    15
100
AcDbLine
 10
51.5
 20
45.7113248654
 30
0.0
 11
53.9641016151
 21
44.2886751346
 31
0.0
  0
ARC
  5
2D2
330
1F
100
AcDbEntity
  8
0
  6
Continuous
 62
     7
370
    15
100
AcDbCircle
 10
53.4641016151
 20
43.4226497308
 30
0.0
 40
1.000000000000007
100
AcDbArc
 50
0.0
 51
60.0
  0
LINE
  5
2D3
330
1F
100
AcDbEntity
  8
0
  6
Continuous
 62
     7
370
    15
100
AcDbLine
 10
54.4641016151
 20
43.4226497308
 30
0.0
 11
54.4641016151
 21
40.5773502692
 31
0.0
  0
ARC
  5
2D4
330
1F
100
AcDbEntity
  8
0
  6
Continuous
 62
     7
370
    15
100
AcDbCircle
 10
53.4641016151
 20
40.5773502692
 30
0.0
 40
1.000000000000007
100
AcDbArc
 50
300.0
 51
0.0
  0
LINE
  5
2D5
330
1F
100
AcDbEntity
  8
0
  6
Continuous
 62
     7
370
    15
100
AcDbLine
 10
53.9641016151
 20
39.7113248654
 30
0.0
 11
51.5
 21
38.2886751346
 31
0.0
  0
ARC
  5
2D6
330
1F
100
AcDbEntity
  8
0
  6
Continuous
 62
     7
370
    15
100
AcDbCircle
 10
51.0
 20
39.1547005384
 30
0.0
 40
1.000000000000002
100
AcDbArc
 50
240.0
 51
300.0
  0
LINE
  5
2D7
330
1F
100
AcDbEntity
  8
0
  6
Continuous
 62
     7
370
    15
100
AcDbLine
 10
37.0
 20
30.4944465005
 30
0.0
 11
34.5358983849
 21
31.9170962313
 31
0.0
  0
ARC
  5
2D8
330
1F
100
AcDbEntity
  8
0
  6
Continuous
 62
     7
370
    15
100
AcDbCircle
 10
35.0358983849
 20
32.7831216351
 30
0.0
 40
1.000000000000002
100
AcDbArc
 50
180.0
 51
240.0
  0
LINE
  5
2D9
330
1F
100
AcDbEntity
  8
0
  6
Continuous
 62
     7
370
    15
100
AcDbLine
 10
34.0358983849
 20
32.7831216351
 30
0.0
 11
34.0358983849
 21
35.6284210968
 31
0.0
  0
ARC
  5
2DA
330
1F
100
AcDbEntity
  8
0
  6
Continuous
 62
     7
370
    15
100
AcDbCircle
 10
35.0358983849
 20
35.6284210968
 30
0.0
 40
1.0
100
AcDbArc
 50
120.0
 51
180.0
  0
LINE
  5
2DB
330
1F
100
AcDbEntity
  8
0
  6
Continuous
 62
     7
370
    15
100
AcDbLine
 10
34.5358983849
 20
36.4944465005
 30
0.0
 11
37.0
 21
37.9170962313
 31
0.0
  0
ARC
  5
2DC
330
1F
100
AcDbEntity
  8
0
  6
Continuous
 62
     7
370
    15
100
AcDbCircle
 10
37.5
 20
37.0510708276
 30
0.0
 40
1.000000000000008
100
AcDbArc
 50
60.0
 51
120.0
  0
LINE
  5
2DD
330
1F
100
AcDbEntity
  8
0
  6
Continuous
 62
     7
370
    15
100
AcDbLine
 10
38.0
 20
37.9170962313
 30
0.0
 11
40.4641016151
 21
36.4944465005
 31
0.0
  0
ARC
  5
2DE
330
1F
100
AcDbEntity
  8
0
  6
Continuous
 62
     7
370
    15
100
AcDbCircle
 10
39.9641016151
 20
35.6284210968
 30
0.0
 40
1.000000000000002
100
AcDbArc
 50
0.0
 51
60.0
  0
LINE
  5
2DF
330
1F
100
AcDbEntity
  8
0
  6
Continuous
 62
     7
370
    15
100
AcDbLine
 10
40.9641016151
 20
35.6284210968
 30
0.0
 11
40.9641016151
 21
32.7831216351
 31
0.0
  0
ARC
  5
2E0
330
1F
100
AcDbEntity
  8
0
  6
Continuous
 62
     7
370
    15
100
AcDbCircle
 10
39.9641016151
 20
32.7831216351
 30
0.0
 40
1.0
100
AcDbArc
 50
300.0
 51
0.0
  0
LINE
  5
2E1
330
1F
100
AcDbEntity
  8
0
  6
Continuous
 62
     7
370
    15
100
AcDbLine
 10
40.4641016151
 20
31.9170962313
 30
0.0
 11
38.0
 21
30.4944465005
 31
0.0
  0
ARC
  5
2E2
330
1F
100
AcDbEntity
  8
0
  6
Continuous
 62
     7
370
    15
100
AcDbCircle
 10
37.5
 20
31.3604719043
 30
0.0
 40
1.000000000000002
100
AcDbArc
 50
240.0
 51
300.0
  0
LINE
  5
2E3
330
1F
100
AcDbEntity
  8
0
  6
Continuous
 62
     7
370
    15
100
AcDbLine
 10
14.5
 20
38.2886751346
 30
0.0
 11
12.0358983849
 21
39.7113248654
 31
0.0
  0
ARC
  5
2E4
330
1F
100
AcDbEntity
  8
0
  6
Continuous
 62
     7
370
    15
100
AcDbCircle
 10
12.5358983849
 20
40.5773502692
 30
0.0
 40
1.000000000000009
100
AcDbArc
 50
180.0
 51
240.0
  0
LINE
  5
2E5
330
1F
100
AcDbEntity
  8
0
  6
Continuous
 62
     7
370
    15
100
AcDbLine
 10
11.5358983849
 20
40.5773502692
 30
0.0
 11
11.5358983849
 21
43.4226497308
 31
0.0
  0
ARC
  5
2E6
330
1F
100
AcDbEntity
  8
0
  6
Continuous
 62
     7
370
    15
100
AcDbCircle
 10
12.5358983849
 20
43.4226497308
 30
0.0
 40
1.0
100
AcDbArc
 50
120.0
 51
180.0
  0
LINE
  5
2E7
330
1F
100
AcDbEntity
  8
0
  6
Continuous
 62
     7
370
    15
100
AcDbLine
 10
12.0358983849
 20
44.2886751346
 30
0.0
 11
14.5
 21
45.7113248654
 31
0.0
  0
ARC
  5
2E8
330
1F
100
AcDbEntity
  8
0
  6
Continuous
 62
     7
370
    15
100
AcDbCircle
 10
15.0
 20
44.8452994616
 30
0.0
 40
1.000000000000001
100
AcDbArc
 50
60.0
 51
120.0
  0
LINE
  5
2E9
330
1F
100
AcDbEntity
  8
0
  6
Continuous
 62
     7
370
    15
100
AcDbLine
 10
15.5
 20
45.7113248654
 30
0.0
 11
17.9641016151
 21
44.2886751346
 31
0.0
  0
ARC
  5
2EA
330
1F
100
AcDbEntity
  8
0
  6
Continuous
 62
     7
370
    15
100
AcDbCircle
 10
17.4641016151
 20
43.4226497308
 30
0.0
 40
1.0
100
AcDbArc
 50
0.0
 51
60.0
  0
LINE
  5
2EB
330
1F
100
AcDbEntity
  8
0
  6
Continuous
 62
     7
370
    15
100
AcDbLine
 10
18.4641016151
 20
43.4226497308
 30
0.0
 11
18.4641016151
 21
40.5773502692
 31
0.0
  0
ARC
  5
2EC
330
1F
100
AcDbEntity
  8
0
  6
Continuous
 62
     7
370
    15
100
AcDbCircle
 10
17.4641016151
 20
40.5773502692
 30
0.0
 40
1.000000000000004
100
AcDbArc
 50
300.0
 51
0.0
  0
LINE
  5
2ED
330
1F
100
AcDbEntity
  8
0
  6
Continuous
 62
     7
370
    15
100
AcDbLine
 10
17.9641016151
 20
39.7113248654
 30
0.0
 11
15.5
 21
38.2886751346
 31
0.0
  0
ARC
  5
2EE
330
1F
100
AcDbEntity
  8
0
  6
Continuous
 62
     7
370
    15
100
AcDbCircle
 10
15.0
 20
39.1547005384
 30
0.0
 40
0.9999999999999993
100
AcDbArc
 50
240.0
 51
300.0
  0
LINE
  5
2EF
330
1F
100
AcDbEntity
  8
0
  6
Continuous
 62
     7
370
    15
100
AcDbLine
 10
59.5
 20
53.8771324027
 30
0.0
 11
57.0358983849
 21
55.2997821335
 31
0.0
  0
ARC
  5
2F0
330
1F
100
AcDbEntity
  8
0
  6
Continuous
 62
     7
370
    15
100
AcDbCircle
 10
57.5358983849
 20
56.1658075373
 30
0.0
 40
1.000000000000002
100
AcDbArc
 50
180.0
 51
240.0
  0
LINE
  5
2F1
330
1F
100
AcDbEntity
  8
0
  6
Continuous
 62
     7
370
    15
100
AcDbLine
 10
56.5358983849
 20
56.1658075373
 30
0.0
 11
56.5358983849
 21
59.0111069989
 31
0.0
  0
ARC
  5
2F2
330
1F
100
AcDbEntity
  8
0
  6
Continuous
 62
     7
370
    15
100
AcDbCircle
 10
57.5358983849
 20
59.0111069989
 30
0.0
 40
1.0
100
AcDbArc
 50
120.0
 51
180.0
  0
LINE
  5
2F3
330
1F
100
AcDbEntity
  8
0
  6
Continuous
 62
     7
370
    15
100
AcDbLine
 10
57.0358983849
 20
59.8771324027
 30
0.0
 11
59.5
 21
61.2997821335
 31
0.0
  0
ARC
  5
2F4
330
1F
100
AcDbEntity
  8
0
  6
Continuous
 62
     7
370
    15
100
AcDbCircle
 10
60.0
 20
60.4337567297
 30
0.0
 40
1.000000000000002
100
AcDbArc
 50
60.0
 51
120.0
  0
LINE
  5
2F5
330
1F
100
AcDbEntity
  8
0
  6
Continuous
 62
     7
370
    15
100
AcDbLine
 10
60.5
 20
61.2997821335
 30
0.0
 11
62.9641016151
 21
59.8771324027
 31
0.0
  0
ARC
  5
2F6
330
1F
100
AcDbEntity
  8
0
  6
Continuous
 62
     7
370
    15
100
AcDbCircle
 10
62.4641016151
 20
59.0111069989
 30
0.0
 40
0.9999999999999984
100
AcDbArc
 50
0.0
 51
60.0
  0
LINE
  5
2F7
330
1F
100
AcDbEntity
  8
0
  6
Continuous
 62
     7
370
    15
100
AcDbLine
 10
63.4641016151
 20
59.0111069989
 30
0.0
 11
63.4641016151
 21
56.1658075373
 31
0.0
  0
ARC
  5
2F8
330
1F
100
AcDbEntity
  8
0
  6
Continuous
 62
     7
370
    15
100
AcDbCircle
 10
62.4641016151
 20
56.1658075373
 30
0.0
 40
1.0
100
AcDbArc
 50
300.0
 51
0.0
  0
LINE
  5
2F9
330
1F
100
AcDbEntity
  8
0
  6
Continuous
 62
     7
370
    15
100
AcDbLine
 10
62.9641016151
 20
55.2997821335
 30
0.0
 11
60.5
 21
53.8771324027
 31
0.0
  0
ARC
  5
2FA
330
1F
100
AcDbEntity
  8
0
  6
Continuous
 62
     7
370
    15
100
AcDbCircle
 10
60.0
 20
54.7431578065
 30
0.0
 40
1.000000000000008
100
AcDbArc
 50
240.0
 51
300.0
  0
LINE
  5
2FB
330
1F
100
AcDbEntity
  8
0
  6
Continuous
 62
     7
370
    15
100
AcDbLine
 10
46.0
 20
46.0829037687
 30
0.0
 11
43.5358983849
 21
47.5055534995
 31
0.0
  0
ARC
  5
2FC
330
1F
100
AcDbEntity
  8
0
  6
Continuous
 62
     7
370
    15
100
AcDbCircle
 10
44.0358983849
 20
48.3715789032
 30
0.0
 40
1.000000000000002
100
AcDbArc
 50
180.0
 51
240.0
  0
LINE
  5
2FD
330
1F
100
AcDbEntity
  8
0
  6
Continuous
 62
     7
370
    15
100
AcDbLine
 10
43.0358983849
 20
48.3715789032
 30
0.0
 11
43.0358983849
 21
51.2168783649
 31
0.0
  0
ARC
  5
2FE
330
1F
100
AcDbEntity
  8
0
  6
Continuous
 62
     7
370
    15
100
AcDbCircle
 10
44.0358983849
 20
51.2168783649
 30
0.0
 40
1.0
100
AcDbArc
 50
120.0
 51
180.0
  0
LINE
  5
2FF
330
1F
100
AcDbEntity
  8
0
  6
Continuous
 62
     7
370
    15
100
AcDbLine
 10
43.5358983849
 20
52.0829037687
 30
0.0
 11
46.0
 21
53.5055534995
 31
0.0
  0
ARC
  5
300
330
1F
100
AcDbEntity
  8
0
  6
Continuous
 62
     7
370
    15
100
AcDbCircle
 10
46.5
 20
52.6395280957
 30
0.0
 40
1.000000000000008
100
AcDbArc
 50
60.0
 51
120.0
  0
LINE
  5
301
330
1F
100
AcDbEntity
  8
0
  6
Continuous
 62
     7
370
    15
100
AcDbLine
 10
47.0
 20
53.5055534995
 30
0.0
 11
49.4641016151
 21
52.0829037687
 31
0.0
  0
ARC
  5
302
330
1F
100
AcDbEntity
  8
0
  6
Continuous
 62
     7
370
    15
100
AcDbCircle
 10
48.9641016151
 20
51.2168783649
 30
0.0
 40
1.000000000000002
100
AcDbArc
 50
0.0
 51
60.0
  0
LINE
  5
303
330
1F
100
AcDbEntity
  8
0
  6
Continuous
 62
     7
370
    15
100
AcDbLine
 10
49.9641016151
 20
51.2168783649
 30
0.0
 11
49.9641016151
 21
48.3715789032
 31
0.0
  0
ARC
  5
304
330
1F
100
AcDbEntity
  8
0
  6
Continuous
 62
     7
370
    15
100
AcDbCircle
 10
48.9641016151
 20
48.3715789032
 30
0.0
 40
1.0
100
AcDbArc
 50
300.0
 51
0.0
  0
LINE
  5
305
330
1F
100
AcDbEntity
  8
0
  6
Continuous
 62
     7
370
    15
100
AcDbLine
 10
49.4641016151
 20
47.5055534995
 30
0.0
 11
47.0
 21
46.0829037687
 31
0.0
  0
ARC
  5
306
330
1F
100
AcDbEntity
  8
0
  6
Continuous
 62
     7
370
    15
100
AcDbCircle
 10
46.5
 20
46.9489291724
 30
0.0
 40
1.000000000000002
100
AcDbArc
 50
240.0
 51
300.0
  0
LINE
  5
307
330
1F
100
AcDbEntity
  8
0
  6
Continuous
 62
     7
370
    15
100
AcDbLine
 10
32.5
 20
38.2886751346
 30
0.0
 11
30.0358983849
 21
39.7113248654
 31
0.0
  0
ARC
  5
308
330
1F
100
AcDbEntity
  8
0
  6
Continuous
 62
     7
370
    15
100
AcDbCircle
 10
30.5358983849
 20
40.5773502692
 30
0.0
 40
1.000000000000006
100
AcDbArc
 50
180.0
 51
240.0
  0
LINE
  5
309
330
1F
100
AcDbEntity
  8
0
  6
Continuous
 62
     7
370
    15
100
AcDbLine
 10
29.5358983849
 20
40.5773502692
 30
0.0
 11
29.5358983849
 21
43.4226497308
 31
0.0
  0
ARC
  5
30A
330
1F
100
AcDbEntity
  8
0
  6
Continuous
 62
     7
370
    15
100
AcDbCircle
 10
30.5358983849
 20
43.4226497308
 30
0.0
 40
1.0
100
AcDbArc
 50
120.0
 51
180.0
  0
LINE
  5
30B
330
1F
100
AcDbEntity
  8
0
  6
Continuous
 62
     7
370
    15
100
AcDbLine
 10
30.0358983849
 20
44.2886751346
 30
0.0
 11
32.5
 21
45.7113248654
 31
0.0
  0
ARC
  5
30C
330
1F
100
AcDbEntity
  8
0
  6
Continuous
 62
     7
370
    15
100
AcDbCircle
 10
33.0
 20
44.8452994616
 30
0.0
 40
1.000000000000006
100
AcDbArc
 50
60.0
 51
120.0
  0
LINE
  5
30D
330
1F
100
AcDbEntity
  8
0
  6
Continuous
 62
     7
370
    15
100
AcDbLine
 10
33.5
 20
45.7113248654
 30
0.0
 11
35.9641016151
 21
44.2886751346
 31
0.0
  0
ARC
  5
30E
330
1F
100
AcDbEntity
  8
0
  6
Continuous
 62
     7
370
    15
100
AcDbCircle
 10
35.4641016151
 20
43.4226497308
 30
0.0
 40
1.000000000000007
100
AcDbArc
 50
0.0
 51
60.0
  0
LINE
  5
30F
330
1F
100
AcDbEntity
  8
0
  6
Continuous
 62
     7
370
    15
100
AcDbLine
 10
36.4641016151
 20
43.4226497308
 30
0.0
 11
36.4641016151
 21
40.5773502692
 31
0.0
  0
ARC
  5
310
330
1F
100
AcDbEntity
  8
0
  6
Continuous
 62
     7
370
    15
100
AcDbCircle
 10
35.4641016151
 20
40.5773502692
 30
0.0
 40
1.000000000000002
100
AcDbArc
 50
300.0
 51
0.0
  0
LINE
  5
311
330
1F
100
AcDbEntity
  8
0
  6
Continuous
 62
     7
370
    15
100
AcDbLine
 10
35.9641016151
 20
39.7113248654
 30
0.0
 11
33.5
 21
38.2886751346
 31
0.0
  0
ARC
  5
312
330
1F
100
AcDbEntity
  8
0
  6
Continuous
 62
     7
370
    15
100
AcDbCircle
 10
33.0
 20
39.1547005384
 30
0.0
 40
1.000000000000002
100
AcDbArc
 50
240.0
 51
300.0
  0
LINE
  5
313
330
1F
100
AcDbEntity
  8
0
  6
Continuous
 62
     7
370
    15
100
AcDbLine
 10
59.5
 20
69.4655896708
 30
0.0
 11
57.0358983849
 21
70.8882394016
 31
0.0
  0
ARC
  5
314
330
1F
100
AcDbEntity
  8
0
  6
Continuous
 62
     7
370
    15
100
AcDbCircle
 10
57.5358983849
 20
71.7542648054
 30
0.0
 40
1.000000000000008
100
AcDbArc
 50
180.0
 51
240.0
  0
LINE
  5
315
330
1F
100
AcDbEntity
  8
0
  6
Continuous
 62
     7
370
    15
100
AcDbLine
 10
56.5358983849
 20
71.7542648054
 30
0.0
 11
56.5358983849
 21
74.5995642671
 31
0.0
  0
ARC
  5
316
330
1F
100
AcDbEntity
  8
0
  6
Continuous
 62
     7
370
    15
100
AcDbCircle
 10
57.5358983849
 20
74.5995642671
 30
0.0
 40
1.000000000000008
100
AcDbArc
 50
120.0
 51
180.0
  0
LINE
  5
317
330
1F
100
AcDbEntity
  8
0
  6
Continuous
 62
     7
370
    15
100
AcDbLine
 10
57.0358983849
 20
75.4655896708
 30
0.0
 11
59.5
 21
76.8882394016
 31
0.0
  0
ARC
  5
318
330
1F
100
AcDbEntity
  8
0
  6
Continuous
 62
     7
370
    15
100
AcDbCircle
 10
60.0
 20
76.0222139979
 30
0.0
 40
1.000000000000012
100
AcDbArc
 50
60.0
 51
120.0
  0
LINE
  5
319
330
1F
100
AcDbEntity
  8
0
  6
Continuous
 62
     7
370
    15
100
AcDbLine
 10
60.5
 20
76.8882394016
 30
0.0
 11
62.9641016151
 21
75.4655896708
 31
0.0
  0
ARC
  5
31A
330
1F
100
AcDbEntity
  8
0
  6
Continuous
 62
     7
370
    15
100
AcDbCircle
 10
62.4641016151
 20
74.5995642671
 30
0.0
 40
1.0
100
AcDbArc
 50
0.0
 51
60.0
  0
LINE
  5
31B
330
1F
100
AcDbEntity
  8
0
  6
Continuous
 62
     7
370
    15
100
AcDbLine
 10
63.4641016151
 20
74.5995642671
 30
0.0
 11
63.4641016151
 21
71.7542648054
 31
0.0
  0
ARC
  5
31C
330
1F
100
AcDbEntity
  8
0
  6
Continuous
 62
     7
370
    15
100
AcDbCircle
 10
62.4641016151
 20
71.7542648054
 30
0.0
 40
1.000000000000007
100
AcDbArc
 50
300.0
 51
0.0
  0
LINE
  5
31D
330
1F
100
AcDbEntity
  8
0
  6
Continuous
 62
     7
370
    15
100
AcDbLine
 10
62.9641016151
 20
70.8882394016
 30
0.0
 11
60.5
 21
69.4655896708
 31
0.0
  0
ARC
  5
31E
330
1F
100
AcDbEntity
  8
0
  6
Continuous
 62
     7
370
    15
100
AcDbCircle
 10
60.0
 20
70.3316150746
 30
0.0
 40
1.000000000000012
100
AcDbArc
 50
240.0
 51
300.0
  0
LINE
  5
31F
330
1F
100
AcDbEntity
  8
0
  6
Continuous
 62
     7
370
    15
100
AcDbLine
 10
46.0
 20
61.6713610368
 30
0.0
 11
43.5358983849
 21
63.0940107676
 31
0.0
  0
ARC
  5
320
330
1F
100
AcDbEntity
  8
0
  6
Continuous
 62
     7
370
    15
100
AcDbCircle
 10
44.0358983849
 20
63.9600361714
 30
0.0
 40
1.000000000000002
100
AcDbArc
 50
180.0
 51
240.0
  0
LINE
  5
321
330
1F
100
AcDbEntity
  8
0
  6
Continuous
 62
     7
370
    15
100
AcDbLine
 10
43.0358983849
 20
63.9600361714
 30
0.0
 11
43.0358983849
 21
66.805335633
 31
0.0
  0
ARC
  5
322
330
1F
100
AcDbEntity
  8
0
  6
Continuous
 62
     7
370
    15
100
AcDbCircle
 10
44.0358983849
 20
66.805335633
 30
0.0
 40
1.000000000000008
100
AcDbArc
 50
120.0
 51
180.0
  0
LINE
  5
323
330
1F
100
AcDbEntity
  8
0
  6
Continuous
 62
     7
370
    15
100
AcDbLine
 10
43.5358983849
 20
67.6713610368
 30
0.0
 11
46.0
 21
69.0940107676
 31
0.0
  0
ARC
  5
324
330
1F
100
AcDbEntity
  8
0
  6
Continuous
 62
     7
370
    15
100
AcDbCircle
 10
46.5
 20
68.2279853638
 30
0.0
 40
0.9999999999999959
100
AcDbArc
 50
60.0
 51
120.0
  0
LINE
  5
325
330
1F
100
AcDbEntity
  8
0
  6
Continuous
 62
     7
370
    15
100
AcDbLine
 10
47.0
 20
69.0940107676
 30
0.0
 11
49.4641016151
 21
67.6713610368
 31
0.0
  0
ARC
  5
326
330
1F
100
AcDbEntity
  8
0
  6
Continuous
 62
     7
370
    15
100
AcDbCircle
 10
48.9641016151
 20
66.805335633
 30
0.0
 40
1.000000000000008
100
AcDbArc
 50
0.0
 51
60.0
  0
LINE
  5
327
330
1F
100
AcDbEntity
  8
0
  6
Continuous
 62
     7
370
    15
100
AcDbLine
 10
49.9641016151
 20
66.805335633
 30
0.0
 11
49.9641016151
 21
63.9600361714
 31
0.0
  0
ARC
  5
328
330
1F
100
AcDbEntity
  8
0
  6
Continuous
 62
     7
370
    15
100
AcDbCircle
 10
48.9641016151
 20
63.9600361714
 30
0.0
 40
1.000000000000002
100
AcDbArc
 50
300.0
 51
0.0
  0
LINE
  5
329
330
1F
100
AcDbEntity
  8
0
  6
Continuous
 62
     7
370
    15
100
AcDbLine
 10
49.4641016151
 20
63.0940107676
 30
0.0
 11
47.0
 21
61.6713610368
 31
0.0
  0
ARC
  5
32A
330
1F
100
AcDbEntity
  8
0
  6
Continuous
 62
     7
370
    15
100
AcDbCircle
 10
46.5
 20
62.5373864406
 30
0.0
 40
1.000000000000008
100
AcDbArc
 50
240.0
 51
300.0
  0
LINE
  5
32B
330
1F
100
AcDbEntity
  8
0
  6
Continuous
 62
     7
370
    15
100
AcDbLine
 10
32.5
 20
53.8771324027
 30
0.0
 11
30.0358983849
 21
55.2997821335
 31
0.0
  0
ARC
  5
32C
330
1F
100
AcDbEntity
  8
0
  6
Continuous
 62
     7
370
    15
100
AcDbCircle
 10
30.5358983849
 20
56.1658075373
 30
0.0
 40
1.0
100
AcDbArc
 50
180.0
 51
240.0
  0
LINE
  5
32D
330
1F
100
AcDbEntity
  8
0
  6
Continuous
 62
     7
370
    15
100
AcDbLine
 10
29.5358983849
 20
56.1658075373
 30
0.0
 11
29.5358983849
 21
59.0111069989
 31
0.0
  0
ARC
  5
32E
330
1F
100
AcDbEntity
  8
0
  6
Continuous
 62
     7
370
    15
100
AcDbCircle
 10
30.5358983849
 20
59.0111069989
 30
0.0
 40
1.0
100
AcDbArc
 50
120.0
 51
180.0
  0
LINE
  5
32F
330
1F
100
AcDbEntity
  8
0
  6
Continuous
 62
     7
370
    15
100
AcDbLine
 10
30.0358983849
 20
59.8771324027
 30
0.0
 11
32.5
 21
61.2997821335
 31
0.0
  0
ARC
  5
330
330
1F
100
AcDbEntity
  8
0
  6
Continuous
 62
     7
370
    15
100
AcDbCircle
 10
33.0
 20
60.4337567297
 30
0.0
 40
1.000000000000006
100
AcDbArc
 50
60.0
 51
120.0
  0
LINE
  5
331
330
1F
100
AcDbEntity
  8
0
  6
Continuous
 62
     7
370
    15
100
AcDbLine
 10
33.5
 20
61.2997821335
 30
0.0
 11
35.9641016151
 21
59.8771324027
 31
0.0
  0
ARC
  5
332
330
1F
100
AcDbEntity
  8
0
  6
Continuous
 62
     7
370
    15
100
AcDbCircle
 10
35.4641016151
 20
59.0111069989
 30
0.0
 40
1.000000000000007
100
AcDbArc
 50
0.0
 51
60.0
  0
LINE
  5
333
330
1F
100
AcDbEntity
  8
0
  6
Continuous
 62
     7
370
    15
100
AcDbLine
 10
36.4641016151
 20
59.0111069989
 30
0.0
 11
36.4641016151
 21
56.1658075373
 31
0.0
  0
ARC
  5
334
330
1F
100
AcDbEntity
  8
0
  6
Continuous
 62
     7
370
    15
100
AcDbCircle
 10
35.4641016151
 20
56.1658075373
 30
0.0
 40
1.0
100
AcDbArc
 50
300.0
 51
0.0
  0
LINE
  5
335
330
1F
100
AcDbEntity
  8
0
  6
Continuous
 62
     7
370
    15
100
AcDbLine
 10
35.9641016151
 20
55.2997821335
 30
0.0
 11
33.5
 21
53.8771324027
 31
0.0
  0
ARC
  5
336
330
1F
100
AcDbEntity
  8
0
  6
Continuous
 62
     7
370
    15
100
AcDbCircle
 10
33.0
 20
54.7431578065
 30
0.0
 40
1.000000000000008
100
AcDbArc
 50
240.0
 51
300.0
  0
LINE
  5
337
330
1F
100
AcDbEntity
  8
0
  6
Continuous
 62
     7
370
    15
100
AcDbLine
 10
19.0
 20
46.0829037687
 30
0.0
 11
16.5358983849
 21
47.5055534995
 31
0.0
  0
ARC
  5
338
330
1F
100
AcDbEntity
  8
0
  6
Continuous
 62
     7
370
    15
100
AcDbCircle
 10
17.0358983849
 20
48.3715789032
 30
0.0
 40
1.000000000000004
100
AcDbArc
 50
180.0
 51
240.0
  0
LINE
  5
339
330
1F
100
AcDbEntity
  8
0
  6
Continuous
 62
     7
370
    15
100
AcDbLine
 10
16.0358983849
 20
48.3715789032
 30
0.0
 11
16.0358983849
 21
51.2168783649
 31
0.0
  0
ARC
  5
33A
330
1F
100
AcDbEntity
  8
0
  6
Continuous
 62
     7
370
    15
100
AcDbCircle
 10
17.0358983849
 20
51.2168783649
 30
0.0
 40
1.000000000000004
100
AcDbArc
 50
120.0
 51
180.0
  0
LINE
  5
33B
330
1F
100
AcDbEntity
  8
0
  6
Continuous
 62
     7
370
    15
100
AcDbLine
 10
16.5358983849
 20
52.0829037687
 30
0.0
 11
19.0
 21
53.5055534995
 31
0.0
  0
ARC
  5
33C
330
1F
100
AcDbEntity
  8
0
  6
Continuous
 62
     7
370
    15
100
AcDbCircle
 10
19.5
 20
52.6395280957
 30
0.0
 40
1.000000000000004
100
AcDbArc
 50
60.0
 51
120.0
  0
LINE
  5
33D
330
1F
100
AcDbEntity
  8
0
  6
Continuous
 62
     7
370
    15
100
AcDbLine
 10
20.0
 20
53.5055534995
 30
0.0
 11
22.4641016151
 21
52.0829037687
 31
0.0
  0
ARC
  5
33E
330
1F
100
AcDbEntity
  8
0
  6
Continuous
 62
     7
370
    15
100
AcDbCircle
 10
21.9641016151
 20
51.2168783649
 30
0.0
 40
1.000000000000006
100
AcDbArc
 50
0.0
 51
60.0
  0
LINE
  5
33F
330
1F
100
AcDbEntity
  8
0
  6
Continuous
 62
     7
370
    15
100
AcDbLine
 10
22.9641016151
 20
51.2168783649
 30
0.0
 11
22.9641016151
 21
48.3715789032
 31
0.0
  0
ARC
  5
340
330
1F
100
AcDbEntity
  8
0
  6
Continuous
 62
     7
370
    15
100
AcDbCircle
 10
21.9641016151
 20
48.3715789032
 30
0.0
 40
1.000000000000004
100
AcDbArc
 50
300.0
 51
0.0
  0
LINE
  5
341
330
1F
100
AcDbEntity
  8
0
  6
Continuous
 62
     7
370
    15
100
AcDbLine
 10
22.4641016151
 20
47.5055534995
 30
0.0
 11
20.0
 21
46.0829037687
 31
0.0
  0
ARC
  5
342
330
1F
100
AcDbEntity
  8
0
  6
Continuous
 62
     7
370
    15
100
AcDbCircle
 10
19.5
 20
46.9489291724
 30
0.0
 40
1.0
100
AcDbArc
 50
240.0
 51
300.0
  0
LINE
  5
343
330
1F
100
AcDbEntity
  8
0
  6
Continuous
 62
     7
370
    15
100
AcDbLine
 10
41.5
 20
69.4655896708
 30
0.0
 11
39.0358983849
 21
70.8882394016
 31
0.0
  0
ARC
  5
344
330
1F
100
AcDbEntity
  8
0
  6
Continuous
 62
     7
370
    15
100
AcDbCircle
 10
39.5358983849
 20
71.7542648054
 30
0.0
 40
1.000000000000008
100
AcDbArc
 50
180.0
 51
240.0
  0
LINE
  5
345
330
1F
100
AcDbEntity
  8
0
  6
Continuous
 62
     7
370
    15
100
AcDbLine
 10
38.5358983849
 20
71.7542648054
 30
0.0
 11
38.5358983849
 21
74.5995642671
 31
0.0
  0
ARC
  5
346
330
1F
100
AcDbEntity
  8
0
  6
Continuous
 62
     7
370
    15
100
AcDbCircle
 10
39.5358983849
 20
74.5995642671
 30
0.0
 40
1.000000000000008
100
AcDbArc
 50
120.0
 51
180.0
  0
LINE
  5
347
330
1F
100
AcDbEntity
  8
0
  6
Continuous
 62
     7
370
    15
100
AcDbLine
 10
39.0358983849
 20
75.4655896708
 30
0.0
 11
41.5
 21
76.8882394016
 31
0.0
  0
ARC
  5
348
330
1F
100
AcDbEntity
  8
0
  6
Continuous
 62
     7
370
    15
100
AcDbCircle
 10
42.0
 20
76.0222139979
 30
0.0
 40
1.000000000000012
100
AcDbArc
 50
60.0
 51
120.0
  0
LINE
  5
349
330
1F
100
AcDbEntity
  8
0
  6
Continuous
 62
     7
370
    15
100
AcDbLine
 10
42.5
 20
76.8882394016
 30
0.0
 11
44.9641016151
 21
75.4655896708
 31
0.0
  0
ARC
  5
34A
330
1F
100
AcDbEntity
  8
0
  6
Continuous
 62
     7
370
    15
100
AcDbCircle
 10
44.4641016151
 20
74.5995642671
 30
0.0
 40
1.000000000000007
100
AcDbArc
 50
0.0
 51
60.0
  0
LINE
  5
34B
330
1F
100
AcDbEntity
  8
0
  6
Continuous
 62
     7
370
    15
100
AcDbLine
 10
45.4641016151
 20
74.5995642671
 30
0.0
 11
45.4641016151
 21
71.7542648054
 31
0.0
  0
ARC
  5
34C
330
1F
100
AcDbEntity
  8
0
  6
Continuous
 62
     7
370
    15
100
AcDbCircle
 10
44.4641016151
 20
71.7542648054
 30
0.0
 40
1.000000000000008
100
AcDbArc
 50
300.0
 51
0.0
  0
LINE
  5
34D
330
1F
100
AcDbEntity
  8
0
  6
Continuous
 62
     7
370
    15
100
AcDbLine
 10
44.9641016151
 20
70.8882394016
 30
0.0
 11
42.5
 21
69.4655896708
 31
0.0
  0
ARC
  5
34E
330
1F
100
AcDbEntity
  8
0
  6
Continuous
 62
     7
370
    15
100
AcDbCircle
 10
42.0
 20
70.3316150746
 30
0.0
 40
1.000000000000012
100
AcDbArc
 50
240.0
 51
300.0
  0
LINE
  5
34F
330
1F
100
AcDbEntity
  8
0
  6
Continuous
 62
     7
370
    15
100
AcDbLine
 10
28.0
 20
61.6713610368
 30
0.0
 11
25.5358983849
 21
63.0940107676
 31
0.0
  0
ARC
  5
350
330
1F
100
AcDbEntity
  8
0
  6
Continuous
 62
     7
370
    15
100
AcDbCircle
 10
26.0358983849
 20
63.9600361714
 30
0.0
 40
1.000000000000002
100
AcDbArc
 50
180.0
 51
240.0
  0
LINE
  5
351
330
1F
100
AcDbEntity
  8
0
  6
Continuous
 62
     7
370
    15
100
AcDbLine
 10
25.0358983849
 20
63.9600361714
 30
0.0
 11
25.0358983849
 21
66.805335633
 31
0.0
  0
ARC
  5
352
330
1F
100
AcDbEntity
  8
0
  6
Continuous
 62
     7
370
    15
100
AcDbCircle
 10
26.0358983849
 20
66.805335633
 30
0.0
 40
1.00000000000001
100
AcDbArc
 50
120.0
 51
180.0
  0
LINE
  5
353
330
1F
100
AcDbEntity
  8
0
  6
Continuous
 62
     7
370
    15
100
AcDbLine
 10
25.5358983849
 20
67.6713610368
 30
0.0
 11
28.0
 21
69.0940107676
 31
0.0
  0
ARC
  5
354
330
1F
100
AcDbEntity
  8
0
  6
Continuous
 62
     7
370
    15
100
AcDbCircle
 10
28.5
 20
68.2279853638
 30
0.0
 40
0.9999999999999977
100
AcDbArc
 50
60.0
 51
120.0
  0
LINE
  5
355
330
1F
100
AcDbEntity
  8
0
  6
Continuous
 62
     7
370
    15
100
AcDbLine
 10
29.0
 20
69.0940107676
 30
0.0
 11
31.4641016151
 21
67.6713610368
 31
0.0
  0
ARC
  5
356
330
1F
100
AcDbEntity
  8
0
  6
Continuous
 62
     7
370
    15
100
AcDbCircle
 10
30.9641016151
 20
66.805335633
 30
0.0
 40
1.000000000000008
100
AcDbArc
 50
0.0
 51
60.0
  0
LINE
  5
357
330
1F
100
AcDbEntity
  8
0
  6
Continuous
 62
     7
370
    15
100
AcDbLine
 10
31.9641016151
 20
66.805335633
 30
0.0
 11
31.9641016151
 21
63.9600361714
 31
0.0
  0
ARC
  5
358
330
1F
100
AcDbEntity
  8
0
  6
Continuous
 62
     7
370
    15
100
AcDbCircle
 10
30.9641016151
 20
63.9600361714
 30
0.0
 40
1.000000000000002
100
AcDbArc
 50
300.0
 51
0.0
  0
LINE
  5
359
330
1F
100
AcDbEntity
  8
0
  6
Continuous
 62
     7
370
    15
100
AcDbLine
 10
31.4641016151
 20
63.0940107676
 30
0.0
 11
29.0
 21
61.6713610368
 31
0.0
  0
ARC
  5
35A
330
1F
100
AcDbEntity
  8
0
  6
Continuous
 62
     7
370
    15
100
AcDbCircle
 10
28.5
 20
62.5373864406
 30
0.0
 40
1.000000000000004
100
AcDbArc
 50
240.0
 51
300.0
  0
LINE
  5
35B
330
1F
100
AcDbEntity
  8
0
  6
Continuous
 62
     7
370
    15
100
AcDbLine
 10
32.5
 20
69.4655896708
 30
0.0
 11
30.0358983849
 21
70.8882394016
 31
0.0
  0
ARC
  5
35C
330
1F
100
AcDbEntity
  8
0
  6
Continuous
 62
     7
370
    15
100
AcDbCircle
 10
30.5358983849
 20
71.7542648054
 30
0.0
 40
1.000000000000008
100
AcDbArc
 50
180.0
 51
240.0
  0
LINE
  5
35D
330
1F
100
AcDbEntity
  8
0
  6
Continuous
 62
     7
370
    15
100
AcDbLine
 10
29.5358983849
 20
71.7542648054
 30
0.0
 11
29.5358983849
 21
74.5995642671
 31
0.0
  0
ARC
  5
35E
330
1F
100
AcDbEntity
  8
0
  6
Continuous
 62
     7
370
    15
100
AcDbCircle
 10
30.5358983849
 20
74.5995642671
 30
0.0
 40
1.00000000000001
100
AcDbArc
 50
120.0
 51
180.0
  0
LINE
  5
35F
330
1F
100
AcDbEntity
  8
0
  6
Continuous
 62
     7
370
    15
100
AcDbLine
 10
30.0358983849
 20
75.4655896708
 30
0.0
 11
32.5
 21
76.8882394016
 31
0.0
  0
ARC
  5
360
330
1F
100
AcDbEntity
  8
0
  6
Continuous
 62
     7
370
    15
100
AcDbCircle
 10
33.0
 20
76.0222139979
 30
0.0
 40
1.000000000000012
100
AcDbArc
 50
60.0
 51
120.0
  0
LINE
  5
361
330
1F
100
AcDbEntity
  8
0
  6
Continuous
 62
     7
370
    15
100
AcDbLine
 10
33.5
 20
76.8882394016
 30
0.0
 11
35.9641016151
 21
75.4655896708
 31
0.0
  0
ARC
  5
362
330
1F
100
AcDbEntity
  8
0
  6
Continuous
 62
     7
370
    15
100
AcDbCircle
 10
35.4641016151
 20
74.5995642671
 30
0.0
 40
1.000000000000007
100
AcDbArc
 50
0.0
 51
60.0
  0
LINE
  5
363
330
1F
100
AcDbEntity
  8
0
  6
Continuous
 62
     7
370
    15
100
AcDbLine
 10
36.4641016151
 20
74.5995642671
 30
0.0
 11
36.4641016151
 21
71.7542648054
 31
0.0
  0
ARC
  5
364
330
1F
100
AcDbEntity
  8
0
  6
Continuous
 62
     7
370
    15
100
AcDbCircle
 10
35.4641016151
 20
71.7542648054
 30
0.0
 40
1.000000000000008
100
AcDbArc
 50
300.0
 51
0.0
  0
LINE
  5
365
330
1F
100
AcDbEntity
  8
0
  6
Continuous
 62
     7
370
    15
100
AcDbLine
 10
35.9641016151
 20
70.8882394016
 30
0.0
 11
33.5
 21
69.4655896708
 31
0.0
  0
ARC
  5
366
330
1F
100
AcDbEntity
  8
0
  6
Continuous
 62
     7
370
    15
100
AcDbCircle
 10
33.0
 20
70.3316150746
 30
0.0
 40
1.000000000000012
100
AcDbArc
 50
240.0
 51
300.0
  0
ENDSEC
  0
SECTION
  2
OBJECTS
  0
DICTIONARY
  5
C
330
0
100
AcDbDictionary
281
     1
  3
ACAD_GROUP
350
D
  3
ACAD_LAYOUT
350
1A
  3
ACAD_MLINESTYLE
350
17
  3
ACAD_PLOTSETTINGS
350
19
  3
ACAD_PLOTSTYLENAME
350
E
  3
ACAD_SCALELIST
350
47
  0
DICTIONARY
  5
D
102
{ACAD_REACTORS
330
C
102
}
330
C
100
AcDbDictionary
281
     1
  0
DICTIONARY
  5
1A
102
{ACAD_REACTORS
330
C
102
}
330
C
100
AcDbDictionary
281
     1
  3
Layout1
350
1E
  3
Layout2
350
26
  3
Model
350
22
  0
DICTIONARY
  5
17
102
{ACAD_REACTORS
330
C
102
}
330
C
100
AcDbDictionary
281
     1
  3
Standard
350
18
  0
DICTIONARY
  5
19
102
{ACAD_REACTORS
330
C
102
}
330
C
100
AcDbDictionary
281
     1
  0
ACDBDICTIONARYWDFLT
  5
E
102
{ACAD_REACTORS
330
C
102
}
330
C
100
AcDbDictionary
281
     1
  3
Normal
350
F
100
AcDbDictionaryWithDefault
340
F
  0
DICTIONARY
  5
47
102
{ACAD_REACTORS
330
C
102
}
330
C
100
AcDbDictionary
281
     1
  3
A0
350
48
  3
A1
350
49
  3
A2
350
4A
  3
A3
350
4B
  3
A4
350
4C
  3
A5
350
4D
  3
A6
350
4E
  3
A7
350
4F
  3
A8
350
50
  3
A9
350
51
  3
B0
350
52
  3
B1
350
53
  3
B2
350
54
  3
B3
350
55
  3
B4
350
56
  3
B5
350
57
  3
B6
350
58
  3
B7
350
59
  3
B8
350
5A
  3
B9
350
5B
  3
C0
350
5C
  3
C1
350
5D
  3
C2
350
5E
  3
C3
350
5F
  3
C4
350
60
  3
C5
350
61
  3
C6
350
62
  3
C7
350
63
  3
C8
350
64
  3
C9
350
65
  3
D0
350
66
  3
D1
350
67
  3
D2
350
68
  0
LAYOUT
  5
1E
102
{ACAD_REACTORS
330
1A
102
}
330
1A
100
AcDbPlotSettings
  1

  2
none_device
  4

  6

 40
0.0
 41
0.0
 42
0.0
 43
0.0
 44
0.0
 45
0.0
 46
0.0
 47
0.0
 48
0.0
 49
0.0
140
0.0
141
0.0
142
1.0
143
1.0
 70
   688
 72
     1
 73
     0
 74
     5
  7

 75
    16
147
1.0
148
0.0
149
0.0
100
AcDbLayout
  1
Layout1
 70
     1
 71
     1
 10
0.0
 20
0.0
 11
420.0
 21
297.0
 12
0.0
 22
0.0
 32
0.0
 14
1.0000000000E+20
 24
1.0000000000E+20
 34
1.0000000000E+20
 15
-1.0000000000E+20
 25
-1.0000000000E+20
 35
-1.0000000000E+20
146
0.0
 13
0.0
 23
0.0
 33
0.0
 16
1.0
 26
0.0
 36
0.0
 17
0.0
 27
1.0
 37
0.0
 76
     0
330
1B
  0
LAYOUT
  5
26
102
{ACAD_REACTORS
330
1A
102
}
330
1A
100
AcDbPlotSettings
  1

  2
none_device
  4

  6

 40
0.0
 41
0.0
 42
0.0
 43
0.0
 44
0.0
 45
0.0
 46
0.0
 47
0.0
 48
0.0
 49
0.0
140
0.0
141
0.0
142
1.0
143
1.0
 70
   688
 72
     1
 73
     0
 74
     5
  7

 75
    16
147
1.0
148
0.0
149
0.0
100
AcDbLayout
  1
Layout2
 70
     1
 71
     2
 10
0.0
 20
0.0
 11
0.0
 21
0.0
 12
0.0
 22
0.0
 32
0.0
 14
0.0
 24
0.0
 34
0.0
 15
0.0
 25
0.0
 35
0.0
146
0.0
 13
0.0
 23
0.0
 33
0.0
 16
1.0
 26
0.0
 36
0.0
 17
0.0
 27
1.0
 37
0.0
 76
     0
330
23
  0
LAYOUT
  5
22
102
{ACAD_REACTORS
330
1A
102
}
330
1A
100
AcDbPlotSettings
  1

  2
none_device
  4
ANSI_A_(11.00_x_8.50_Inches)
  6

 40
6.35
 41
19.05
 42
6.35000508
 43
19.05000254
 44
279.4
 45
215.9
 46
-4.95300254
 47
2.2025957449
 48
0.0
 49
0.0
140
0.0
141
0.0
142
0.0812686567
143
1.0
 70
  1696
 72
     0
 73
     0
 74
     0
  7

 75
     0
147
0.0179189148
148
-1300.4909072572
149
0.0
100
AcDbLayout
  1
Model
 70
     1
 71
     0
 10
0.0
 20
0.0
 11
420.0
 21
297.0
 12
0.0
 22
0.0
 32
0.0
 14
0.0
 24
0.0
 34
0.0
 15
134.0
 25
84.0
 35
0.0
146
0.0
 13
0.0
 23
0.0
 33
0.0
 16
1.0
 26
0.0
 36
0.0
 17
0.0
 27
1.0
 37
0.0
 76
     0
330
1F
331
29
  0
MLINESTYLE
  5
18
102
{ACAD_REACTORS
330
17
102
}
330
17
100
AcDbMlineStyle
  2
Standard
 70
     0
  3

 62
   256
 51
90.0
 52
90.0
 71
     2
 49
0.5
 62
   256
  6
BYLAYER
 49
-0.5
 62
   256
  6
BYLAYER
  0
ACDBPLACEHOLDER
  5
F
102
{ACAD_REACTORS
330
E
102
}
330
E
  0
SCALE
  5
48
102
{ACAD_REACTORS
330
47
102
}
330
47
100
AcDbScale
 70
     0
300
1:1
140
1.0
141
1.0
290
     1
  0
SCALE
  5
49
102
{ACAD_REACTORS
330
47
102
}
330
47
100
AcDbScale
 70
     0
300
1:2
140
1.0
141
2.0
290
     0
  0
SCALE
  5
4A
102
{ACAD_REACTORS
330
47
102
}
330
47
100
AcDbScale
 70
     0
300
1:4
140
1.0
141
4.0
290
     0
  0
SCALE
  5
4B
102
{ACAD_REACTORS
330
47
102
}
330
47
100
AcDbScale
 70
     0
300
1:5
140
1.0
141
5.0
290
     0
  0
SCALE
  5
4C
102
{ACAD_REACTORS
330
47
102
}
330
47
100
AcDbScale
 70
     0
300
1:8
140
1.0
141
8.0
290
     0
  0
SCALE
  5
4D
102
{ACAD_REACTORS
330
47
102
}
330
47
100
AcDbScale
 70
     0
300
1:10
140
1.0
141
10.0
290
     0
  0
SCALE
  5
4E
102
{ACAD_REACTORS
330
47
102
}
330
47
100
AcDbScale
 70
     0
300
1:16
140
1.0
141
16.0
290
     0
  0
SCALE
  5
4F
102
{ACAD_REACTORS
330
47
102
}
330
47
100
AcDbScale
 70
     0
300
1:20
140
1.0
141
20.0
290
     0
  0
SCALE
  5
50
102
{ACAD_REACTORS
330
47
102
}
330
47
100
AcDbScale
 70
     0
300
1:30
140
1.0
141
30.0
290
     0
  0
SCALE
  5
51
102
{ACAD_REACTORS
330
47
102
}
330
47
100
AcDbScale
 70
     0
300
1:40
140
1.0
141
40.0
290
     0
  0
SCALE
  5
52
102
{ACAD_REACTORS
330
47
102
}
330
47
100
AcDbScale
 70
     0
300
1:50
140
1.0
141
50.0
290
     0
  0
SCALE
  5
53
102
{ACAD_REACTORS
330
47
102
}
330
47
100
AcDbScale
 70
     0
300
1:100
140
1.0
141
100.0
290
     0
  0
SCALE
  5
54
102
{ACAD_REACTORS
330
47
102
}
330
47
100
AcDbScale
 70
     0
300
2:1
140
2.0
141
1.0
290
     0
  0
SCALE
  5
55
102
{ACAD_REACTORS
330
47
102
}
330
47
100
AcDbScale
 70
     0
300
4:1
140
4.0
141
1.0
290
     0
  0
SCALE
  5
56
102
{ACAD_REACTORS
330
47
102
}
330
47
100
AcDbScale
 70
     0
300
8:1
140
8.0
141
1.0
290
     0
  0
SCALE
  5
57
102
{ACAD_REACTORS
330
47
102
}
330
47
100
AcDbScale
 70
     0
300
10:1
140
10.0
141
1.0
290
     0
  0
SCALE
  5
58
102
{ACAD_REACTORS
330
47
102
}
330
47
100
AcDbScale
 70
     0
300
100:1
140
100.0
141
1.0
290
     0
  0
SCALE
  5
59
102
{ACAD_REACTORS
330
47
102
}
330
47
100
AcDbScale
 70
     0
300
1/128" = 1'-0"
140
0.0078125
141
12.0
290
     0
  0
SCALE
  5
5A
102
{ACAD_REACTORS
330
47
102
}
330
47
100
AcDbScale
 70
     0
300
1/64" = 1'-0"
140
0.015625
141
12.0
290
     0
  0
SCALE
  5
5B
102
{ACAD_REACTORS
330
47
102
}
330
47
100
AcDbScale
 70
     0
300
1/32" = 1'-0"
140
0.03125
141
12.0
290
     0
  0
SCALE
  5
5C
102
{ACAD_REACTORS
330
47
102
}
330
47
100
AcDbScale
 70
     0
300
1/16" = 1'-0"
140
0.0625
141
12.0
290
     0
  0
SCALE
  5
5D
102
{ACAD_REACTORS
330
47
102
}
330
47
100
AcDbScale
 70
     0
300
3/32" = 1'-0"
140
0.09375
141
12.0
290
     0
  0
SCALE
  5
5E
102
{ACAD_REACTORS
330
47
102
}
330
47
100
AcDbScale
 70
     0
300
1/8" = 1'-0"
140
0.125
141
12.0
290
     0
  0
SCALE
  5
5F
102
{ACAD_REACTORS
330
47
102
}
330
47
100
AcDbScale
 70
     0
300
3/16" = 1'-0"
140
0.1875
141
12.0
290
     0
  0
SCALE
  5
60
102
{ACAD_REACTORS
330
47
102
}
330
47
100
AcDbScale
 70
     0
300
1/4" = 1'-0"
140
0.25
141
12.0
290
     0
  0
SCALE
  5
61
102
{ACAD_REACTORS
330
47
102
}
330
47
100
AcDbScale
 70
     0
300
3/8" = 1'-0"
140
0.375
141
12.0
290
     0
  0
SCALE
  5
62
102
{ACAD_REACTORS
330
47
102
}
330
47
100
AcDbScale
 70
     0
300
1/2" = 1'-0"
140
0.5
141
12.0
290
     0
  0
SCALE
  5
63
102
{ACAD_REACTORS
330
47
102
}
330
47
100
AcDbScale
 70
     0
300
3/4" = 1'-0"
140
0.75
141
12.0
290
     0
  0
SCALE
  5
64
102
{ACAD_REACTORS
330
47
102
}
330
47
100
AcDbScale
 70
     0
300
1" = 1'-0"
140
1.0
141
12.0
290
     0
  0
SCALE
  5
65
102
{ACAD_REACTORS
330
47
102
}
330
47
100
AcDbScale
 70
     0
300
1-1/2" = 1'-0"
140
1.5
141
12.0
290
     0
  0
SCALE
  5
66
102
{ACAD_REACTORS
330
47
102
}
330
47
100
AcDbScale
 70
     0
300
3" = 1'-0"
140
3.0
141
12.0
290
     0
  0
SCALE
  5
67
102
{ACAD_REACTORS
330
47
102
}
330
47
100
AcDbScale
 70
     0
300
6" = 1'-0"
140
6.0
141
12.0
290
     0
  0
SCALE
  5
68
102
{ACAD_REACTORS
330
47
102
}
330
47
100
AcDbScale
 70
     0
300
1'-0" = 1'-0"
140
12.0
141
12.0
290
     0
  0
ENDSEC
  0
EOF
