G04 #@! TF.GenerationSoftware,KiCad,Pcbnew,(5.0.1-3-g963ef8bb5)*
G04 #@! TF.CreationDate,2018-11-23T17:17:20+10:30*
G04 #@! TF.ProjectId,rgb-led-board,7267622D6C65642D626F6172642E6B69,1.0*
G04 #@! TF.SameCoordinates,Original*
G04 #@! TF.FileFunction,Copper,L1,Top,Signal*
G04 #@! TF.FilePolarity,Positive*
%FSLAX46Y46*%
G04 Gerber Fmt 4.6, Leading zero omitted, Abs format (unit mm)*
G04 Created by KiCad (PCBNEW (5.0.1-3-g963ef8bb5)) date Friday, 23 November 2018 at 05:17:20 pm*
%MOMM*%
%LPD*%
G01*
G04 APERTURE LIST*
G04 #@! TA.AperFunction,Conductor*
%ADD10C,0.100000*%
G04 #@! TD*
G04 #@! TA.AperFunction,SMDPad,CuDef*
%ADD11C,1.160000*%
G04 #@! TD*
G04 #@! TA.AperFunction,SMDPad,CuDef*
%ADD12C,0.850000*%
G04 #@! TD*
G04 #@! TA.AperFunction,SMDPad,CuDef*
%ADD13R,0.810000X0.270000*%
G04 #@! TD*
G04 #@! TA.AperFunction,SMDPad,CuDef*
%ADD14R,1.700000X3.300000*%
G04 #@! TD*
G04 #@! TA.AperFunction,SMDPad,CuDef*
%ADD15C,2.000000*%
G04 #@! TD*
G04 #@! TA.AperFunction,ComponentPad*
%ADD16R,1.727200X2.032000*%
G04 #@! TD*
G04 #@! TA.AperFunction,ComponentPad*
%ADD17O,1.727200X2.032000*%
G04 #@! TD*
G04 #@! TA.AperFunction,SMDPad,CuDef*
%ADD18R,1.120000X0.970000*%
G04 #@! TD*
G04 #@! TA.AperFunction,ViaPad*
%ADD19C,0.800000*%
G04 #@! TD*
G04 #@! TA.AperFunction,Conductor*
%ADD20C,0.250000*%
G04 #@! TD*
G04 #@! TA.AperFunction,Conductor*
%ADD21C,0.300000*%
G04 #@! TD*
G04 #@! TA.AperFunction,Conductor*
%ADD22C,0.200000*%
G04 #@! TD*
G04 APERTURE END LIST*
D10*
G04 #@! TO.N,+POWER*
G04 #@! TO.C,C1*
G36*
X131146425Y-66301396D02*
X131174576Y-66305572D01*
X131202183Y-66312487D01*
X131228978Y-66322075D01*
X131254705Y-66334243D01*
X131279115Y-66348874D01*
X131301974Y-66365827D01*
X131323061Y-66384939D01*
X131342173Y-66406026D01*
X131359126Y-66428885D01*
X131373757Y-66453295D01*
X131385925Y-66479022D01*
X131395513Y-66505817D01*
X131402428Y-66533424D01*
X131406604Y-66561575D01*
X131408000Y-66590000D01*
X131408000Y-67170000D01*
X131406604Y-67198425D01*
X131402428Y-67226576D01*
X131395513Y-67254183D01*
X131385925Y-67280978D01*
X131373757Y-67306705D01*
X131359126Y-67331115D01*
X131342173Y-67353974D01*
X131323061Y-67375061D01*
X131301974Y-67394173D01*
X131279115Y-67411126D01*
X131254705Y-67425757D01*
X131228978Y-67437925D01*
X131202183Y-67447513D01*
X131174576Y-67454428D01*
X131146425Y-67458604D01*
X131118000Y-67460000D01*
X128978000Y-67460000D01*
X128949575Y-67458604D01*
X128921424Y-67454428D01*
X128893817Y-67447513D01*
X128867022Y-67437925D01*
X128841295Y-67425757D01*
X128816885Y-67411126D01*
X128794026Y-67394173D01*
X128772939Y-67375061D01*
X128753827Y-67353974D01*
X128736874Y-67331115D01*
X128722243Y-67306705D01*
X128710075Y-67280978D01*
X128700487Y-67254183D01*
X128693572Y-67226576D01*
X128689396Y-67198425D01*
X128688000Y-67170000D01*
X128688000Y-66590000D01*
X128689396Y-66561575D01*
X128693572Y-66533424D01*
X128700487Y-66505817D01*
X128710075Y-66479022D01*
X128722243Y-66453295D01*
X128736874Y-66428885D01*
X128753827Y-66406026D01*
X128772939Y-66384939D01*
X128794026Y-66365827D01*
X128816885Y-66348874D01*
X128841295Y-66334243D01*
X128867022Y-66322075D01*
X128893817Y-66312487D01*
X128921424Y-66305572D01*
X128949575Y-66301396D01*
X128978000Y-66300000D01*
X131118000Y-66300000D01*
X131146425Y-66301396D01*
X131146425Y-66301396D01*
G37*
D11*
G04 #@! TD*
G04 #@! TO.P,C1,1*
G04 #@! TO.N,+POWER*
X130048000Y-66880000D03*
D10*
G04 #@! TO.N,GND*
G04 #@! TO.C,C1*
G36*
X131146425Y-63351396D02*
X131174576Y-63355572D01*
X131202183Y-63362487D01*
X131228978Y-63372075D01*
X131254705Y-63384243D01*
X131279115Y-63398874D01*
X131301974Y-63415827D01*
X131323061Y-63434939D01*
X131342173Y-63456026D01*
X131359126Y-63478885D01*
X131373757Y-63503295D01*
X131385925Y-63529022D01*
X131395513Y-63555817D01*
X131402428Y-63583424D01*
X131406604Y-63611575D01*
X131408000Y-63640000D01*
X131408000Y-64220000D01*
X131406604Y-64248425D01*
X131402428Y-64276576D01*
X131395513Y-64304183D01*
X131385925Y-64330978D01*
X131373757Y-64356705D01*
X131359126Y-64381115D01*
X131342173Y-64403974D01*
X131323061Y-64425061D01*
X131301974Y-64444173D01*
X131279115Y-64461126D01*
X131254705Y-64475757D01*
X131228978Y-64487925D01*
X131202183Y-64497513D01*
X131174576Y-64504428D01*
X131146425Y-64508604D01*
X131118000Y-64510000D01*
X128978000Y-64510000D01*
X128949575Y-64508604D01*
X128921424Y-64504428D01*
X128893817Y-64497513D01*
X128867022Y-64487925D01*
X128841295Y-64475757D01*
X128816885Y-64461126D01*
X128794026Y-64444173D01*
X128772939Y-64425061D01*
X128753827Y-64403974D01*
X128736874Y-64381115D01*
X128722243Y-64356705D01*
X128710075Y-64330978D01*
X128700487Y-64304183D01*
X128693572Y-64276576D01*
X128689396Y-64248425D01*
X128688000Y-64220000D01*
X128688000Y-63640000D01*
X128689396Y-63611575D01*
X128693572Y-63583424D01*
X128700487Y-63555817D01*
X128710075Y-63529022D01*
X128722243Y-63503295D01*
X128736874Y-63478885D01*
X128753827Y-63456026D01*
X128772939Y-63434939D01*
X128794026Y-63415827D01*
X128816885Y-63398874D01*
X128841295Y-63384243D01*
X128867022Y-63372075D01*
X128893817Y-63362487D01*
X128921424Y-63355572D01*
X128949575Y-63351396D01*
X128978000Y-63350000D01*
X131118000Y-63350000D01*
X131146425Y-63351396D01*
X131146425Y-63351396D01*
G37*
D11*
G04 #@! TD*
G04 #@! TO.P,C1,2*
G04 #@! TO.N,GND*
X130048000Y-63930000D03*
D10*
G04 #@! TO.N,GND*
G04 #@! TO.C,R1*
G36*
X131538329Y-59201023D02*
X131558957Y-59204083D01*
X131579185Y-59209150D01*
X131598820Y-59216176D01*
X131617672Y-59225092D01*
X131635559Y-59235813D01*
X131652309Y-59248235D01*
X131667760Y-59262240D01*
X131681765Y-59277691D01*
X131694187Y-59294441D01*
X131704908Y-59312328D01*
X131713824Y-59331180D01*
X131720850Y-59350815D01*
X131725917Y-59371043D01*
X131728977Y-59391671D01*
X131730000Y-59412500D01*
X131730000Y-59967500D01*
X131728977Y-59988329D01*
X131725917Y-60008957D01*
X131720850Y-60029185D01*
X131713824Y-60048820D01*
X131704908Y-60067672D01*
X131694187Y-60085559D01*
X131681765Y-60102309D01*
X131667760Y-60117760D01*
X131652309Y-60131765D01*
X131635559Y-60144187D01*
X131617672Y-60154908D01*
X131598820Y-60163824D01*
X131579185Y-60170850D01*
X131558957Y-60175917D01*
X131538329Y-60178977D01*
X131517500Y-60180000D01*
X131092500Y-60180000D01*
X131071671Y-60178977D01*
X131051043Y-60175917D01*
X131030815Y-60170850D01*
X131011180Y-60163824D01*
X130992328Y-60154908D01*
X130974441Y-60144187D01*
X130957691Y-60131765D01*
X130942240Y-60117760D01*
X130928235Y-60102309D01*
X130915813Y-60085559D01*
X130905092Y-60067672D01*
X130896176Y-60048820D01*
X130889150Y-60029185D01*
X130884083Y-60008957D01*
X130881023Y-59988329D01*
X130880000Y-59967500D01*
X130880000Y-59412500D01*
X130881023Y-59391671D01*
X130884083Y-59371043D01*
X130889150Y-59350815D01*
X130896176Y-59331180D01*
X130905092Y-59312328D01*
X130915813Y-59294441D01*
X130928235Y-59277691D01*
X130942240Y-59262240D01*
X130957691Y-59248235D01*
X130974441Y-59235813D01*
X130992328Y-59225092D01*
X131011180Y-59216176D01*
X131030815Y-59209150D01*
X131051043Y-59204083D01*
X131071671Y-59201023D01*
X131092500Y-59200000D01*
X131517500Y-59200000D01*
X131538329Y-59201023D01*
X131538329Y-59201023D01*
G37*
D12*
G04 #@! TD*
G04 #@! TO.P,R1,2*
G04 #@! TO.N,GND*
X131305000Y-59690000D03*
D10*
G04 #@! TO.N,Net-(R1-Pad1)*
G04 #@! TO.C,R1*
G36*
X133088329Y-59201023D02*
X133108957Y-59204083D01*
X133129185Y-59209150D01*
X133148820Y-59216176D01*
X133167672Y-59225092D01*
X133185559Y-59235813D01*
X133202309Y-59248235D01*
X133217760Y-59262240D01*
X133231765Y-59277691D01*
X133244187Y-59294441D01*
X133254908Y-59312328D01*
X133263824Y-59331180D01*
X133270850Y-59350815D01*
X133275917Y-59371043D01*
X133278977Y-59391671D01*
X133280000Y-59412500D01*
X133280000Y-59967500D01*
X133278977Y-59988329D01*
X133275917Y-60008957D01*
X133270850Y-60029185D01*
X133263824Y-60048820D01*
X133254908Y-60067672D01*
X133244187Y-60085559D01*
X133231765Y-60102309D01*
X133217760Y-60117760D01*
X133202309Y-60131765D01*
X133185559Y-60144187D01*
X133167672Y-60154908D01*
X133148820Y-60163824D01*
X133129185Y-60170850D01*
X133108957Y-60175917D01*
X133088329Y-60178977D01*
X133067500Y-60180000D01*
X132642500Y-60180000D01*
X132621671Y-60178977D01*
X132601043Y-60175917D01*
X132580815Y-60170850D01*
X132561180Y-60163824D01*
X132542328Y-60154908D01*
X132524441Y-60144187D01*
X132507691Y-60131765D01*
X132492240Y-60117760D01*
X132478235Y-60102309D01*
X132465813Y-60085559D01*
X132455092Y-60067672D01*
X132446176Y-60048820D01*
X132439150Y-60029185D01*
X132434083Y-60008957D01*
X132431023Y-59988329D01*
X132430000Y-59967500D01*
X132430000Y-59412500D01*
X132431023Y-59391671D01*
X132434083Y-59371043D01*
X132439150Y-59350815D01*
X132446176Y-59331180D01*
X132455092Y-59312328D01*
X132465813Y-59294441D01*
X132478235Y-59277691D01*
X132492240Y-59262240D01*
X132507691Y-59248235D01*
X132524441Y-59235813D01*
X132542328Y-59225092D01*
X132561180Y-59216176D01*
X132580815Y-59209150D01*
X132601043Y-59204083D01*
X132621671Y-59201023D01*
X132642500Y-59200000D01*
X133067500Y-59200000D01*
X133088329Y-59201023D01*
X133088329Y-59201023D01*
G37*
D12*
G04 #@! TD*
G04 #@! TO.P,R1,1*
G04 #@! TO.N,Net-(R1-Pad1)*
X132855000Y-59690000D03*
D10*
G04 #@! TO.N,Net-(R2-Pad1)*
G04 #@! TO.C,R2*
G36*
X133088329Y-61106023D02*
X133108957Y-61109083D01*
X133129185Y-61114150D01*
X133148820Y-61121176D01*
X133167672Y-61130092D01*
X133185559Y-61140813D01*
X133202309Y-61153235D01*
X133217760Y-61167240D01*
X133231765Y-61182691D01*
X133244187Y-61199441D01*
X133254908Y-61217328D01*
X133263824Y-61236180D01*
X133270850Y-61255815D01*
X133275917Y-61276043D01*
X133278977Y-61296671D01*
X133280000Y-61317500D01*
X133280000Y-61872500D01*
X133278977Y-61893329D01*
X133275917Y-61913957D01*
X133270850Y-61934185D01*
X133263824Y-61953820D01*
X133254908Y-61972672D01*
X133244187Y-61990559D01*
X133231765Y-62007309D01*
X133217760Y-62022760D01*
X133202309Y-62036765D01*
X133185559Y-62049187D01*
X133167672Y-62059908D01*
X133148820Y-62068824D01*
X133129185Y-62075850D01*
X133108957Y-62080917D01*
X133088329Y-62083977D01*
X133067500Y-62085000D01*
X132642500Y-62085000D01*
X132621671Y-62083977D01*
X132601043Y-62080917D01*
X132580815Y-62075850D01*
X132561180Y-62068824D01*
X132542328Y-62059908D01*
X132524441Y-62049187D01*
X132507691Y-62036765D01*
X132492240Y-62022760D01*
X132478235Y-62007309D01*
X132465813Y-61990559D01*
X132455092Y-61972672D01*
X132446176Y-61953820D01*
X132439150Y-61934185D01*
X132434083Y-61913957D01*
X132431023Y-61893329D01*
X132430000Y-61872500D01*
X132430000Y-61317500D01*
X132431023Y-61296671D01*
X132434083Y-61276043D01*
X132439150Y-61255815D01*
X132446176Y-61236180D01*
X132455092Y-61217328D01*
X132465813Y-61199441D01*
X132478235Y-61182691D01*
X132492240Y-61167240D01*
X132507691Y-61153235D01*
X132524441Y-61140813D01*
X132542328Y-61130092D01*
X132561180Y-61121176D01*
X132580815Y-61114150D01*
X132601043Y-61109083D01*
X132621671Y-61106023D01*
X132642500Y-61105000D01*
X133067500Y-61105000D01*
X133088329Y-61106023D01*
X133088329Y-61106023D01*
G37*
D12*
G04 #@! TD*
G04 #@! TO.P,R2,1*
G04 #@! TO.N,Net-(R2-Pad1)*
X132855000Y-61595000D03*
D10*
G04 #@! TO.N,GND*
G04 #@! TO.C,R2*
G36*
X131538329Y-61106023D02*
X131558957Y-61109083D01*
X131579185Y-61114150D01*
X131598820Y-61121176D01*
X131617672Y-61130092D01*
X131635559Y-61140813D01*
X131652309Y-61153235D01*
X131667760Y-61167240D01*
X131681765Y-61182691D01*
X131694187Y-61199441D01*
X131704908Y-61217328D01*
X131713824Y-61236180D01*
X131720850Y-61255815D01*
X131725917Y-61276043D01*
X131728977Y-61296671D01*
X131730000Y-61317500D01*
X131730000Y-61872500D01*
X131728977Y-61893329D01*
X131725917Y-61913957D01*
X131720850Y-61934185D01*
X131713824Y-61953820D01*
X131704908Y-61972672D01*
X131694187Y-61990559D01*
X131681765Y-62007309D01*
X131667760Y-62022760D01*
X131652309Y-62036765D01*
X131635559Y-62049187D01*
X131617672Y-62059908D01*
X131598820Y-62068824D01*
X131579185Y-62075850D01*
X131558957Y-62080917D01*
X131538329Y-62083977D01*
X131517500Y-62085000D01*
X131092500Y-62085000D01*
X131071671Y-62083977D01*
X131051043Y-62080917D01*
X131030815Y-62075850D01*
X131011180Y-62068824D01*
X130992328Y-62059908D01*
X130974441Y-62049187D01*
X130957691Y-62036765D01*
X130942240Y-62022760D01*
X130928235Y-62007309D01*
X130915813Y-61990559D01*
X130905092Y-61972672D01*
X130896176Y-61953820D01*
X130889150Y-61934185D01*
X130884083Y-61913957D01*
X130881023Y-61893329D01*
X130880000Y-61872500D01*
X130880000Y-61317500D01*
X130881023Y-61296671D01*
X130884083Y-61276043D01*
X130889150Y-61255815D01*
X130896176Y-61236180D01*
X130905092Y-61217328D01*
X130915813Y-61199441D01*
X130928235Y-61182691D01*
X130942240Y-61167240D01*
X130957691Y-61153235D01*
X130974441Y-61140813D01*
X130992328Y-61130092D01*
X131011180Y-61121176D01*
X131030815Y-61114150D01*
X131051043Y-61109083D01*
X131071671Y-61106023D01*
X131092500Y-61105000D01*
X131517500Y-61105000D01*
X131538329Y-61106023D01*
X131538329Y-61106023D01*
G37*
D12*
G04 #@! TD*
G04 #@! TO.P,R2,2*
G04 #@! TO.N,GND*
X131305000Y-61595000D03*
D13*
G04 #@! TO.P,U1,1*
G04 #@! TO.N,/ENABLE*
X138097000Y-66905000D03*
G04 #@! TO.P,U1,2*
G04 #@! TO.N,GND*
X138097000Y-66405000D03*
G04 #@! TO.P,U1,3*
G04 #@! TO.N,/PWM3*
X138097000Y-65905000D03*
G04 #@! TO.P,U1,4*
G04 #@! TO.N,/PWM2*
X138097000Y-65405000D03*
G04 #@! TO.P,U1,5*
G04 #@! TO.N,/PWM1*
X138097000Y-64905000D03*
G04 #@! TO.P,U1,6*
G04 #@! TO.N,/LED_1*
X138097000Y-64405000D03*
G04 #@! TO.P,U1,7*
G04 #@! TO.N,/LED_2*
X138097000Y-63905000D03*
G04 #@! TO.P,U1,8*
G04 #@! TO.N,GND*
X135207000Y-63905000D03*
G04 #@! TO.P,U1,9*
G04 #@! TO.N,/LED_3*
X135207000Y-64405000D03*
G04 #@! TO.P,U1,10*
G04 #@! TO.N,GND*
X135207000Y-64905000D03*
G04 #@! TO.P,U1,11*
G04 #@! TO.N,/POWER_GOOD*
X135207000Y-65405000D03*
G04 #@! TO.P,U1,12*
G04 #@! TO.N,/~FAULT*
X135207000Y-65905000D03*
G04 #@! TO.P,U1,13*
G04 #@! TO.N,Net-(R2-Pad1)*
X135207000Y-66405000D03*
G04 #@! TO.P,U1,14*
G04 #@! TO.N,+POWER*
X135207000Y-66905000D03*
D14*
G04 #@! TO.P,U1,15*
G04 #@! TO.N,GND*
X136652000Y-65405000D03*
G04 #@! TD*
D10*
G04 #@! TO.N,+POWER*
G04 #@! TO.C,P1*
G36*
X126644009Y-66947408D02*
X126692545Y-66954607D01*
X126740142Y-66966530D01*
X126786342Y-66983060D01*
X126830698Y-67004039D01*
X126872785Y-67029265D01*
X126912197Y-67058495D01*
X126948553Y-67091447D01*
X126981505Y-67127803D01*
X127010735Y-67167215D01*
X127035961Y-67209302D01*
X127056940Y-67253658D01*
X127073470Y-67299858D01*
X127085393Y-67347455D01*
X127092592Y-67395991D01*
X127095000Y-67445000D01*
X127095000Y-68445000D01*
X127092592Y-68494009D01*
X127085393Y-68542545D01*
X127073470Y-68590142D01*
X127056940Y-68636342D01*
X127035961Y-68680698D01*
X127010735Y-68722785D01*
X126981505Y-68762197D01*
X126948553Y-68798553D01*
X126912197Y-68831505D01*
X126872785Y-68860735D01*
X126830698Y-68885961D01*
X126786342Y-68906940D01*
X126740142Y-68923470D01*
X126692545Y-68935393D01*
X126644009Y-68942592D01*
X126595000Y-68945000D01*
X123595000Y-68945000D01*
X123545991Y-68942592D01*
X123497455Y-68935393D01*
X123449858Y-68923470D01*
X123403658Y-68906940D01*
X123359302Y-68885961D01*
X123317215Y-68860735D01*
X123277803Y-68831505D01*
X123241447Y-68798553D01*
X123208495Y-68762197D01*
X123179265Y-68722785D01*
X123154039Y-68680698D01*
X123133060Y-68636342D01*
X123116530Y-68590142D01*
X123104607Y-68542545D01*
X123097408Y-68494009D01*
X123095000Y-68445000D01*
X123095000Y-67445000D01*
X123097408Y-67395991D01*
X123104607Y-67347455D01*
X123116530Y-67299858D01*
X123133060Y-67253658D01*
X123154039Y-67209302D01*
X123179265Y-67167215D01*
X123208495Y-67127803D01*
X123241447Y-67091447D01*
X123277803Y-67058495D01*
X123317215Y-67029265D01*
X123359302Y-67004039D01*
X123403658Y-66983060D01*
X123449858Y-66966530D01*
X123497455Y-66954607D01*
X123545991Y-66947408D01*
X123595000Y-66945000D01*
X126595000Y-66945000D01*
X126644009Y-66947408D01*
X126644009Y-66947408D01*
G37*
D15*
G04 #@! TD*
G04 #@! TO.P,P1,1*
G04 #@! TO.N,+POWER*
X125095000Y-67945000D03*
D10*
G04 #@! TO.N,GND*
G04 #@! TO.C,P2*
G36*
X126644009Y-61232408D02*
X126692545Y-61239607D01*
X126740142Y-61251530D01*
X126786342Y-61268060D01*
X126830698Y-61289039D01*
X126872785Y-61314265D01*
X126912197Y-61343495D01*
X126948553Y-61376447D01*
X126981505Y-61412803D01*
X127010735Y-61452215D01*
X127035961Y-61494302D01*
X127056940Y-61538658D01*
X127073470Y-61584858D01*
X127085393Y-61632455D01*
X127092592Y-61680991D01*
X127095000Y-61730000D01*
X127095000Y-62730000D01*
X127092592Y-62779009D01*
X127085393Y-62827545D01*
X127073470Y-62875142D01*
X127056940Y-62921342D01*
X127035961Y-62965698D01*
X127010735Y-63007785D01*
X126981505Y-63047197D01*
X126948553Y-63083553D01*
X126912197Y-63116505D01*
X126872785Y-63145735D01*
X126830698Y-63170961D01*
X126786342Y-63191940D01*
X126740142Y-63208470D01*
X126692545Y-63220393D01*
X126644009Y-63227592D01*
X126595000Y-63230000D01*
X123595000Y-63230000D01*
X123545991Y-63227592D01*
X123497455Y-63220393D01*
X123449858Y-63208470D01*
X123403658Y-63191940D01*
X123359302Y-63170961D01*
X123317215Y-63145735D01*
X123277803Y-63116505D01*
X123241447Y-63083553D01*
X123208495Y-63047197D01*
X123179265Y-63007785D01*
X123154039Y-62965698D01*
X123133060Y-62921342D01*
X123116530Y-62875142D01*
X123104607Y-62827545D01*
X123097408Y-62779009D01*
X123095000Y-62730000D01*
X123095000Y-61730000D01*
X123097408Y-61680991D01*
X123104607Y-61632455D01*
X123116530Y-61584858D01*
X123133060Y-61538658D01*
X123154039Y-61494302D01*
X123179265Y-61452215D01*
X123208495Y-61412803D01*
X123241447Y-61376447D01*
X123277803Y-61343495D01*
X123317215Y-61314265D01*
X123359302Y-61289039D01*
X123403658Y-61268060D01*
X123449858Y-61251530D01*
X123497455Y-61239607D01*
X123545991Y-61232408D01*
X123595000Y-61230000D01*
X126595000Y-61230000D01*
X126644009Y-61232408D01*
X126644009Y-61232408D01*
G37*
D15*
G04 #@! TD*
G04 #@! TO.P,P2,1*
G04 #@! TO.N,GND*
X125095000Y-62230000D03*
D16*
G04 #@! TO.P,P3,1*
G04 #@! TO.N,+POWER*
X125730000Y-73250000D03*
D17*
G04 #@! TO.P,P3,2*
G04 #@! TO.N,GND*
X128270000Y-73250000D03*
G04 #@! TO.P,P3,3*
G04 #@! TO.N,/ENABLE*
X130810000Y-73250000D03*
G04 #@! TO.P,P3,4*
G04 #@! TO.N,/POWER_GOOD*
X133350000Y-73250000D03*
G04 #@! TO.P,P3,5*
G04 #@! TO.N,/~FAULT*
X135890000Y-73250000D03*
G04 #@! TO.P,P3,6*
G04 #@! TO.N,/PWM3*
X138430000Y-73250000D03*
G04 #@! TO.P,P3,7*
G04 #@! TO.N,/PWM2*
X140970000Y-73250000D03*
G04 #@! TO.P,P3,8*
G04 #@! TO.N,/PWM1*
X143510000Y-73250000D03*
G04 #@! TD*
D10*
G04 #@! TO.N,+POWER*
G04 #@! TO.C,P4*
G36*
X145694009Y-59327408D02*
X145742545Y-59334607D01*
X145790142Y-59346530D01*
X145836342Y-59363060D01*
X145880698Y-59384039D01*
X145922785Y-59409265D01*
X145962197Y-59438495D01*
X145998553Y-59471447D01*
X146031505Y-59507803D01*
X146060735Y-59547215D01*
X146085961Y-59589302D01*
X146106940Y-59633658D01*
X146123470Y-59679858D01*
X146135393Y-59727455D01*
X146142592Y-59775991D01*
X146145000Y-59825000D01*
X146145000Y-60825000D01*
X146142592Y-60874009D01*
X146135393Y-60922545D01*
X146123470Y-60970142D01*
X146106940Y-61016342D01*
X146085961Y-61060698D01*
X146060735Y-61102785D01*
X146031505Y-61142197D01*
X145998553Y-61178553D01*
X145962197Y-61211505D01*
X145922785Y-61240735D01*
X145880698Y-61265961D01*
X145836342Y-61286940D01*
X145790142Y-61303470D01*
X145742545Y-61315393D01*
X145694009Y-61322592D01*
X145645000Y-61325000D01*
X142645000Y-61325000D01*
X142595991Y-61322592D01*
X142547455Y-61315393D01*
X142499858Y-61303470D01*
X142453658Y-61286940D01*
X142409302Y-61265961D01*
X142367215Y-61240735D01*
X142327803Y-61211505D01*
X142291447Y-61178553D01*
X142258495Y-61142197D01*
X142229265Y-61102785D01*
X142204039Y-61060698D01*
X142183060Y-61016342D01*
X142166530Y-60970142D01*
X142154607Y-60922545D01*
X142147408Y-60874009D01*
X142145000Y-60825000D01*
X142145000Y-59825000D01*
X142147408Y-59775991D01*
X142154607Y-59727455D01*
X142166530Y-59679858D01*
X142183060Y-59633658D01*
X142204039Y-59589302D01*
X142229265Y-59547215D01*
X142258495Y-59507803D01*
X142291447Y-59471447D01*
X142327803Y-59438495D01*
X142367215Y-59409265D01*
X142409302Y-59384039D01*
X142453658Y-59363060D01*
X142499858Y-59346530D01*
X142547455Y-59334607D01*
X142595991Y-59327408D01*
X142645000Y-59325000D01*
X145645000Y-59325000D01*
X145694009Y-59327408D01*
X145694009Y-59327408D01*
G37*
D15*
G04 #@! TD*
G04 #@! TO.P,P4,1*
G04 #@! TO.N,+POWER*
X144145000Y-60325000D03*
D10*
G04 #@! TO.N,/LED_1*
G04 #@! TO.C,P5*
G36*
X145694009Y-68852408D02*
X145742545Y-68859607D01*
X145790142Y-68871530D01*
X145836342Y-68888060D01*
X145880698Y-68909039D01*
X145922785Y-68934265D01*
X145962197Y-68963495D01*
X145998553Y-68996447D01*
X146031505Y-69032803D01*
X146060735Y-69072215D01*
X146085961Y-69114302D01*
X146106940Y-69158658D01*
X146123470Y-69204858D01*
X146135393Y-69252455D01*
X146142592Y-69300991D01*
X146145000Y-69350000D01*
X146145000Y-70350000D01*
X146142592Y-70399009D01*
X146135393Y-70447545D01*
X146123470Y-70495142D01*
X146106940Y-70541342D01*
X146085961Y-70585698D01*
X146060735Y-70627785D01*
X146031505Y-70667197D01*
X145998553Y-70703553D01*
X145962197Y-70736505D01*
X145922785Y-70765735D01*
X145880698Y-70790961D01*
X145836342Y-70811940D01*
X145790142Y-70828470D01*
X145742545Y-70840393D01*
X145694009Y-70847592D01*
X145645000Y-70850000D01*
X142645000Y-70850000D01*
X142595991Y-70847592D01*
X142547455Y-70840393D01*
X142499858Y-70828470D01*
X142453658Y-70811940D01*
X142409302Y-70790961D01*
X142367215Y-70765735D01*
X142327803Y-70736505D01*
X142291447Y-70703553D01*
X142258495Y-70667197D01*
X142229265Y-70627785D01*
X142204039Y-70585698D01*
X142183060Y-70541342D01*
X142166530Y-70495142D01*
X142154607Y-70447545D01*
X142147408Y-70399009D01*
X142145000Y-70350000D01*
X142145000Y-69350000D01*
X142147408Y-69300991D01*
X142154607Y-69252455D01*
X142166530Y-69204858D01*
X142183060Y-69158658D01*
X142204039Y-69114302D01*
X142229265Y-69072215D01*
X142258495Y-69032803D01*
X142291447Y-68996447D01*
X142327803Y-68963495D01*
X142367215Y-68934265D01*
X142409302Y-68909039D01*
X142453658Y-68888060D01*
X142499858Y-68871530D01*
X142547455Y-68859607D01*
X142595991Y-68852408D01*
X142645000Y-68850000D01*
X145645000Y-68850000D01*
X145694009Y-68852408D01*
X145694009Y-68852408D01*
G37*
D15*
G04 #@! TD*
G04 #@! TO.P,P5,1*
G04 #@! TO.N,/LED_1*
X144145000Y-69850000D03*
D10*
G04 #@! TO.N,/LED_2*
G04 #@! TO.C,P6*
G36*
X145694009Y-65677408D02*
X145742545Y-65684607D01*
X145790142Y-65696530D01*
X145836342Y-65713060D01*
X145880698Y-65734039D01*
X145922785Y-65759265D01*
X145962197Y-65788495D01*
X145998553Y-65821447D01*
X146031505Y-65857803D01*
X146060735Y-65897215D01*
X146085961Y-65939302D01*
X146106940Y-65983658D01*
X146123470Y-66029858D01*
X146135393Y-66077455D01*
X146142592Y-66125991D01*
X146145000Y-66175000D01*
X146145000Y-67175000D01*
X146142592Y-67224009D01*
X146135393Y-67272545D01*
X146123470Y-67320142D01*
X146106940Y-67366342D01*
X146085961Y-67410698D01*
X146060735Y-67452785D01*
X146031505Y-67492197D01*
X145998553Y-67528553D01*
X145962197Y-67561505D01*
X145922785Y-67590735D01*
X145880698Y-67615961D01*
X145836342Y-67636940D01*
X145790142Y-67653470D01*
X145742545Y-67665393D01*
X145694009Y-67672592D01*
X145645000Y-67675000D01*
X142645000Y-67675000D01*
X142595991Y-67672592D01*
X142547455Y-67665393D01*
X142499858Y-67653470D01*
X142453658Y-67636940D01*
X142409302Y-67615961D01*
X142367215Y-67590735D01*
X142327803Y-67561505D01*
X142291447Y-67528553D01*
X142258495Y-67492197D01*
X142229265Y-67452785D01*
X142204039Y-67410698D01*
X142183060Y-67366342D01*
X142166530Y-67320142D01*
X142154607Y-67272545D01*
X142147408Y-67224009D01*
X142145000Y-67175000D01*
X142145000Y-66175000D01*
X142147408Y-66125991D01*
X142154607Y-66077455D01*
X142166530Y-66029858D01*
X142183060Y-65983658D01*
X142204039Y-65939302D01*
X142229265Y-65897215D01*
X142258495Y-65857803D01*
X142291447Y-65821447D01*
X142327803Y-65788495D01*
X142367215Y-65759265D01*
X142409302Y-65734039D01*
X142453658Y-65713060D01*
X142499858Y-65696530D01*
X142547455Y-65684607D01*
X142595991Y-65677408D01*
X142645000Y-65675000D01*
X145645000Y-65675000D01*
X145694009Y-65677408D01*
X145694009Y-65677408D01*
G37*
D15*
G04 #@! TD*
G04 #@! TO.P,P6,1*
G04 #@! TO.N,/LED_2*
X144145000Y-66675000D03*
D10*
G04 #@! TO.N,/LED_3*
G04 #@! TO.C,P7*
G36*
X145694009Y-62502408D02*
X145742545Y-62509607D01*
X145790142Y-62521530D01*
X145836342Y-62538060D01*
X145880698Y-62559039D01*
X145922785Y-62584265D01*
X145962197Y-62613495D01*
X145998553Y-62646447D01*
X146031505Y-62682803D01*
X146060735Y-62722215D01*
X146085961Y-62764302D01*
X146106940Y-62808658D01*
X146123470Y-62854858D01*
X146135393Y-62902455D01*
X146142592Y-62950991D01*
X146145000Y-63000000D01*
X146145000Y-64000000D01*
X146142592Y-64049009D01*
X146135393Y-64097545D01*
X146123470Y-64145142D01*
X146106940Y-64191342D01*
X146085961Y-64235698D01*
X146060735Y-64277785D01*
X146031505Y-64317197D01*
X145998553Y-64353553D01*
X145962197Y-64386505D01*
X145922785Y-64415735D01*
X145880698Y-64440961D01*
X145836342Y-64461940D01*
X145790142Y-64478470D01*
X145742545Y-64490393D01*
X145694009Y-64497592D01*
X145645000Y-64500000D01*
X142645000Y-64500000D01*
X142595991Y-64497592D01*
X142547455Y-64490393D01*
X142499858Y-64478470D01*
X142453658Y-64461940D01*
X142409302Y-64440961D01*
X142367215Y-64415735D01*
X142327803Y-64386505D01*
X142291447Y-64353553D01*
X142258495Y-64317197D01*
X142229265Y-64277785D01*
X142204039Y-64235698D01*
X142183060Y-64191342D01*
X142166530Y-64145142D01*
X142154607Y-64097545D01*
X142147408Y-64049009D01*
X142145000Y-64000000D01*
X142145000Y-63000000D01*
X142147408Y-62950991D01*
X142154607Y-62902455D01*
X142166530Y-62854858D01*
X142183060Y-62808658D01*
X142204039Y-62764302D01*
X142229265Y-62722215D01*
X142258495Y-62682803D01*
X142291447Y-62646447D01*
X142327803Y-62613495D01*
X142367215Y-62584265D01*
X142409302Y-62559039D01*
X142453658Y-62538060D01*
X142499858Y-62521530D01*
X142547455Y-62509607D01*
X142595991Y-62502408D01*
X142645000Y-62500000D01*
X145645000Y-62500000D01*
X145694009Y-62502408D01*
X145694009Y-62502408D01*
G37*
D15*
G04 #@! TD*
G04 #@! TO.P,P7,1*
G04 #@! TO.N,/LED_3*
X144145000Y-63500000D03*
D18*
G04 #@! TO.P,SL1,1*
G04 #@! TO.N,Net-(R1-Pad1)*
X137327000Y-60325000D03*
G04 #@! TO.P,SL1,2*
G04 #@! TO.N,Net-(R2-Pad1)*
X135977000Y-60325000D03*
G04 #@! TD*
D19*
G04 #@! TO.N,GND*
X136652000Y-66294000D03*
X136652000Y-62738000D03*
X135636000Y-62738000D03*
X137668000Y-62738000D03*
X136652000Y-68072000D03*
X135636000Y-68072000D03*
X136652000Y-64695000D03*
X137668000Y-68072000D03*
X125095000Y-59944000D03*
X124079000Y-59944000D03*
X126111000Y-59944000D03*
X133075742Y-64161890D03*
X129540000Y-68580000D03*
X125095000Y-65278000D03*
X124079000Y-65278000D03*
X129540000Y-69532500D03*
X129540000Y-70485000D03*
X137160000Y-69024500D03*
X138684000Y-62738000D03*
G04 #@! TO.N,+POWER*
X139446000Y-59563000D03*
X140462000Y-59563000D03*
X141351000Y-60071000D03*
X130556000Y-65659000D03*
X129540000Y-65659000D03*
G04 #@! TO.N,/POWER_GOOD*
X133350000Y-71374000D03*
X133223000Y-65278006D03*
G04 #@! TO.N,/~FAULT*
X135890000Y-71374000D03*
X133440010Y-66294000D03*
G04 #@! TD*
D20*
G04 #@! TO.N,GND*
X138097000Y-66405000D02*
X137442000Y-66405000D01*
X135862000Y-63905000D02*
X136652000Y-64695000D01*
X135207000Y-63905000D02*
X135862000Y-63905000D01*
X136652000Y-64695000D02*
X136652000Y-65405000D01*
X136152000Y-64905000D02*
X136652000Y-65405000D01*
X135207000Y-64905000D02*
X136152000Y-64905000D01*
X133249890Y-64161890D02*
X133075742Y-64161890D01*
X133179886Y-64161890D02*
X133075742Y-64161890D01*
X133922996Y-64905000D02*
X133179886Y-64161890D01*
X135207000Y-64905000D02*
X133922996Y-64905000D01*
X135207000Y-63905000D02*
X135207000Y-63167000D01*
X135207000Y-63167000D02*
X135636000Y-62738000D01*
G04 #@! TO.N,/POWER_GOOD*
X133350000Y-73250000D02*
X133350000Y-71374000D01*
X135207000Y-65405000D02*
X133349994Y-65405000D01*
X133349994Y-65405000D02*
X133223000Y-65278006D01*
G04 #@! TO.N,/LED_2*
X143129000Y-66675000D02*
X144145000Y-66675000D01*
G04 #@! TO.N,/~FAULT*
X135890000Y-73250000D02*
X135890000Y-71374000D01*
X135207000Y-65905000D02*
X133829010Y-65905000D01*
X133829010Y-65905000D02*
X133440010Y-66294000D01*
G04 #@! TD*
D21*
G04 #@! TO.N,GND*
G36*
X139062728Y-62493597D02*
X139277568Y-62543595D01*
X139482317Y-62625634D01*
X139672234Y-62737811D01*
X139842914Y-62877524D01*
X140004471Y-63057184D01*
X140040816Y-63104385D01*
X140031416Y-63102801D01*
X139745845Y-63078914D01*
X139700000Y-63077000D01*
X139079990Y-63077000D01*
X139016382Y-63080691D01*
X138878190Y-63096781D01*
X138754373Y-63126010D01*
X138552983Y-63199007D01*
X138510103Y-63204000D01*
X137861739Y-63204000D01*
X137813680Y-63171888D01*
X137693932Y-63122287D01*
X137566808Y-63097000D01*
X136920500Y-63097000D01*
X136756000Y-63261500D01*
X136756000Y-65301000D01*
X136776000Y-65301000D01*
X136776000Y-65509000D01*
X136756000Y-65509000D01*
X136756000Y-67548500D01*
X136920500Y-67713000D01*
X137566808Y-67713000D01*
X137693932Y-67687713D01*
X137813680Y-67638112D01*
X137861739Y-67606000D01*
X138203451Y-67606000D01*
X138243838Y-67611317D01*
X138247877Y-67612990D01*
X138251347Y-67615653D01*
X138254010Y-67619123D01*
X138255683Y-67623162D01*
X138261000Y-67663549D01*
X138261000Y-69075939D01*
X138251124Y-69188385D01*
X138228084Y-69274020D01*
X138190474Y-69354320D01*
X138139438Y-69426840D01*
X138076393Y-69489501D01*
X137960123Y-69570400D01*
X137831435Y-69630077D01*
X137694370Y-69666616D01*
X137529155Y-69681000D01*
X132728537Y-69681000D01*
X132689712Y-69682372D01*
X132408046Y-69702305D01*
X132331166Y-69713241D01*
X132055115Y-69772644D01*
X131980544Y-69794298D01*
X131715609Y-69891986D01*
X131644831Y-69923926D01*
X131396295Y-70057951D01*
X131330719Y-70099541D01*
X131103535Y-70267233D01*
X131044471Y-70317644D01*
X130843168Y-70515660D01*
X130816451Y-70543865D01*
X129920402Y-71559387D01*
X129894516Y-71591021D01*
X129751234Y-71780031D01*
X129706851Y-71848623D01*
X129593148Y-72056773D01*
X129559416Y-72131181D01*
X129520087Y-72238495D01*
X129421411Y-72099157D01*
X129204500Y-71893713D01*
X128951677Y-71734533D01*
X128672658Y-71627735D01*
X128610194Y-71614517D01*
X128374000Y-71744491D01*
X128374000Y-73002000D01*
X128166000Y-73002000D01*
X128166000Y-71744491D01*
X127929806Y-71614517D01*
X127867342Y-71627735D01*
X127588323Y-71734533D01*
X127335500Y-71893713D01*
X127125468Y-72092642D01*
X127104192Y-72022506D01*
X127053121Y-71926958D01*
X126984390Y-71843210D01*
X126936402Y-71803827D01*
X126873094Y-71719502D01*
X126774462Y-71618349D01*
X126566815Y-71454103D01*
X126551491Y-71433692D01*
X126541872Y-71410049D01*
X126534000Y-71349270D01*
X126534000Y-70630395D01*
X126550725Y-70400624D01*
X126596213Y-70195271D01*
X126670962Y-69998668D01*
X126773388Y-69814973D01*
X126913533Y-69632135D01*
X127220243Y-69287087D01*
X127339344Y-69189344D01*
X127458483Y-69044172D01*
X127482894Y-69020528D01*
X128305154Y-68335311D01*
X128483757Y-68206380D01*
X128661567Y-68112378D01*
X128850685Y-68043907D01*
X128998426Y-68012661D01*
X130736558Y-68012661D01*
X130799931Y-68032519D01*
X130893267Y-68084250D01*
X130974290Y-68153686D01*
X131207837Y-68454721D01*
X131284496Y-68535208D01*
X131450355Y-68677347D01*
X131541629Y-68740777D01*
X131732680Y-68846667D01*
X131834847Y-68890451D01*
X132043286Y-68955765D01*
X132152167Y-68978113D01*
X132369482Y-69000185D01*
X132425058Y-69003000D01*
X133387900Y-69003000D01*
X133426079Y-69001673D01*
X133703081Y-68982398D01*
X133778706Y-68971822D01*
X134050369Y-68914367D01*
X134123800Y-68893419D01*
X134384887Y-68798892D01*
X134454707Y-68767976D01*
X134700185Y-68638200D01*
X134765050Y-68597912D01*
X134990189Y-68435388D01*
X135020370Y-68411965D01*
X135792973Y-67768129D01*
X135850085Y-67713000D01*
X136383500Y-67713000D01*
X136548000Y-67548500D01*
X136548000Y-65509000D01*
X136528000Y-65509000D01*
X136528000Y-65301000D01*
X136548000Y-65301000D01*
X136548000Y-63261500D01*
X136383500Y-63097000D01*
X135762095Y-63097000D01*
X135757068Y-63096000D01*
X134814195Y-63096000D01*
X134875563Y-62993357D01*
X134961726Y-62889555D01*
X135078700Y-62786124D01*
X135088095Y-62779026D01*
X135259481Y-62666164D01*
X135427950Y-62584175D01*
X135605594Y-62524610D01*
X135789436Y-62488468D01*
X135994207Y-62475200D01*
X138821829Y-62475200D01*
X139062728Y-62493597D01*
X139062728Y-62493597D01*
G37*
X139062728Y-62493597D02*
X139277568Y-62543595D01*
X139482317Y-62625634D01*
X139672234Y-62737811D01*
X139842914Y-62877524D01*
X140004471Y-63057184D01*
X140040816Y-63104385D01*
X140031416Y-63102801D01*
X139745845Y-63078914D01*
X139700000Y-63077000D01*
X139079990Y-63077000D01*
X139016382Y-63080691D01*
X138878190Y-63096781D01*
X138754373Y-63126010D01*
X138552983Y-63199007D01*
X138510103Y-63204000D01*
X137861739Y-63204000D01*
X137813680Y-63171888D01*
X137693932Y-63122287D01*
X137566808Y-63097000D01*
X136920500Y-63097000D01*
X136756000Y-63261500D01*
X136756000Y-65301000D01*
X136776000Y-65301000D01*
X136776000Y-65509000D01*
X136756000Y-65509000D01*
X136756000Y-67548500D01*
X136920500Y-67713000D01*
X137566808Y-67713000D01*
X137693932Y-67687713D01*
X137813680Y-67638112D01*
X137861739Y-67606000D01*
X138203451Y-67606000D01*
X138243838Y-67611317D01*
X138247877Y-67612990D01*
X138251347Y-67615653D01*
X138254010Y-67619123D01*
X138255683Y-67623162D01*
X138261000Y-67663549D01*
X138261000Y-69075939D01*
X138251124Y-69188385D01*
X138228084Y-69274020D01*
X138190474Y-69354320D01*
X138139438Y-69426840D01*
X138076393Y-69489501D01*
X137960123Y-69570400D01*
X137831435Y-69630077D01*
X137694370Y-69666616D01*
X137529155Y-69681000D01*
X132728537Y-69681000D01*
X132689712Y-69682372D01*
X132408046Y-69702305D01*
X132331166Y-69713241D01*
X132055115Y-69772644D01*
X131980544Y-69794298D01*
X131715609Y-69891986D01*
X131644831Y-69923926D01*
X131396295Y-70057951D01*
X131330719Y-70099541D01*
X131103535Y-70267233D01*
X131044471Y-70317644D01*
X130843168Y-70515660D01*
X130816451Y-70543865D01*
X129920402Y-71559387D01*
X129894516Y-71591021D01*
X129751234Y-71780031D01*
X129706851Y-71848623D01*
X129593148Y-72056773D01*
X129559416Y-72131181D01*
X129520087Y-72238495D01*
X129421411Y-72099157D01*
X129204500Y-71893713D01*
X128951677Y-71734533D01*
X128672658Y-71627735D01*
X128610194Y-71614517D01*
X128374000Y-71744491D01*
X128374000Y-73002000D01*
X128166000Y-73002000D01*
X128166000Y-71744491D01*
X127929806Y-71614517D01*
X127867342Y-71627735D01*
X127588323Y-71734533D01*
X127335500Y-71893713D01*
X127125468Y-72092642D01*
X127104192Y-72022506D01*
X127053121Y-71926958D01*
X126984390Y-71843210D01*
X126936402Y-71803827D01*
X126873094Y-71719502D01*
X126774462Y-71618349D01*
X126566815Y-71454103D01*
X126551491Y-71433692D01*
X126541872Y-71410049D01*
X126534000Y-71349270D01*
X126534000Y-70630395D01*
X126550725Y-70400624D01*
X126596213Y-70195271D01*
X126670962Y-69998668D01*
X126773388Y-69814973D01*
X126913533Y-69632135D01*
X127220243Y-69287087D01*
X127339344Y-69189344D01*
X127458483Y-69044172D01*
X127482894Y-69020528D01*
X128305154Y-68335311D01*
X128483757Y-68206380D01*
X128661567Y-68112378D01*
X128850685Y-68043907D01*
X128998426Y-68012661D01*
X130736558Y-68012661D01*
X130799931Y-68032519D01*
X130893267Y-68084250D01*
X130974290Y-68153686D01*
X131207837Y-68454721D01*
X131284496Y-68535208D01*
X131450355Y-68677347D01*
X131541629Y-68740777D01*
X131732680Y-68846667D01*
X131834847Y-68890451D01*
X132043286Y-68955765D01*
X132152167Y-68978113D01*
X132369482Y-69000185D01*
X132425058Y-69003000D01*
X133387900Y-69003000D01*
X133426079Y-69001673D01*
X133703081Y-68982398D01*
X133778706Y-68971822D01*
X134050369Y-68914367D01*
X134123800Y-68893419D01*
X134384887Y-68798892D01*
X134454707Y-68767976D01*
X134700185Y-68638200D01*
X134765050Y-68597912D01*
X134990189Y-68435388D01*
X135020370Y-68411965D01*
X135792973Y-67768129D01*
X135850085Y-67713000D01*
X136383500Y-67713000D01*
X136548000Y-67548500D01*
X136548000Y-65509000D01*
X136528000Y-65509000D01*
X136528000Y-65301000D01*
X136548000Y-65301000D01*
X136548000Y-63261500D01*
X136383500Y-63097000D01*
X135762095Y-63097000D01*
X135757068Y-63096000D01*
X134814195Y-63096000D01*
X134875563Y-62993357D01*
X134961726Y-62889555D01*
X135078700Y-62786124D01*
X135088095Y-62779026D01*
X135259481Y-62666164D01*
X135427950Y-62584175D01*
X135605594Y-62524610D01*
X135789436Y-62488468D01*
X135994207Y-62475200D01*
X138821829Y-62475200D01*
X139062728Y-62493597D01*
G36*
X130215500Y-59245500D02*
X130222000Y-59278178D01*
X130222000Y-59421500D01*
X130386500Y-59586000D01*
X131201000Y-59586000D01*
X131201000Y-59566000D01*
X131409000Y-59566000D01*
X131409000Y-59586000D01*
X131429000Y-59586000D01*
X131429000Y-59794000D01*
X131409000Y-59794000D01*
X131409000Y-59814000D01*
X131201000Y-59814000D01*
X131201000Y-59794000D01*
X130386500Y-59794000D01*
X130222000Y-59958500D01*
X130222000Y-60038322D01*
X130215500Y-60071000D01*
X130215500Y-61214000D01*
X130222000Y-61246678D01*
X130222000Y-61326500D01*
X130386500Y-61491000D01*
X131201000Y-61491000D01*
X131201000Y-61471000D01*
X131409000Y-61471000D01*
X131409000Y-61491000D01*
X131429000Y-61491000D01*
X131429000Y-61699000D01*
X131409000Y-61699000D01*
X131409000Y-61719000D01*
X131201000Y-61719000D01*
X131201000Y-61699000D01*
X130386500Y-61699000D01*
X130222000Y-61863500D01*
X130222000Y-62070322D01*
X130215500Y-62103000D01*
X130215500Y-62793000D01*
X130152000Y-62856500D01*
X130152000Y-63826000D01*
X130172000Y-63826000D01*
X130172000Y-64034000D01*
X130152000Y-64034000D01*
X130152000Y-64054000D01*
X129944000Y-64054000D01*
X129944000Y-64034000D01*
X128194500Y-64034000D01*
X128030000Y-64198500D01*
X128030000Y-64574807D01*
X128055287Y-64701931D01*
X128060331Y-64714108D01*
X128084291Y-66343435D01*
X127348220Y-66711471D01*
X127339344Y-66700656D01*
X127179827Y-66569744D01*
X126997836Y-66472468D01*
X126800364Y-66412566D01*
X126595000Y-66392339D01*
X123595000Y-66392339D01*
X123389636Y-66412566D01*
X123192164Y-66472468D01*
X123180000Y-66478970D01*
X123180000Y-63888000D01*
X124826500Y-63888000D01*
X124991000Y-63723500D01*
X124991000Y-62334000D01*
X125199000Y-62334000D01*
X125199000Y-63723500D01*
X125363500Y-63888000D01*
X127159808Y-63888000D01*
X127286932Y-63862713D01*
X127406680Y-63813112D01*
X127514451Y-63741102D01*
X127606102Y-63649450D01*
X127678112Y-63541680D01*
X127727713Y-63421931D01*
X127753000Y-63294807D01*
X127753000Y-63285193D01*
X128030000Y-63285193D01*
X128030000Y-63661500D01*
X128194500Y-63826000D01*
X129944000Y-63826000D01*
X129944000Y-62856500D01*
X129779500Y-62692000D01*
X128623192Y-62692000D01*
X128496068Y-62717287D01*
X128376320Y-62766888D01*
X128268549Y-62838898D01*
X128176898Y-62930550D01*
X128104888Y-63038320D01*
X128055287Y-63158069D01*
X128030000Y-63285193D01*
X127753000Y-63285193D01*
X127753000Y-62498500D01*
X127588500Y-62334000D01*
X125199000Y-62334000D01*
X124991000Y-62334000D01*
X124971000Y-62334000D01*
X124971000Y-62126000D01*
X124991000Y-62126000D01*
X124991000Y-60736500D01*
X125199000Y-60736500D01*
X125199000Y-62126000D01*
X127588500Y-62126000D01*
X127753000Y-61961500D01*
X127753000Y-61165193D01*
X127727713Y-61038069D01*
X127678112Y-60918320D01*
X127606102Y-60810550D01*
X127514451Y-60718898D01*
X127406680Y-60646888D01*
X127286932Y-60597287D01*
X127159808Y-60572000D01*
X125363500Y-60572000D01*
X125199000Y-60736500D01*
X124991000Y-60736500D01*
X124826500Y-60572000D01*
X123180000Y-60572000D01*
X123180000Y-59085566D01*
X123195224Y-58930300D01*
X123231438Y-58810355D01*
X123290264Y-58699718D01*
X123369454Y-58602623D01*
X123465997Y-58522755D01*
X123576212Y-58463162D01*
X123695911Y-58426109D01*
X123849180Y-58410000D01*
X130215500Y-58410000D01*
X130215500Y-59245500D01*
X130215500Y-59245500D01*
G37*
X130215500Y-59245500D02*
X130222000Y-59278178D01*
X130222000Y-59421500D01*
X130386500Y-59586000D01*
X131201000Y-59586000D01*
X131201000Y-59566000D01*
X131409000Y-59566000D01*
X131409000Y-59586000D01*
X131429000Y-59586000D01*
X131429000Y-59794000D01*
X131409000Y-59794000D01*
X131409000Y-59814000D01*
X131201000Y-59814000D01*
X131201000Y-59794000D01*
X130386500Y-59794000D01*
X130222000Y-59958500D01*
X130222000Y-60038322D01*
X130215500Y-60071000D01*
X130215500Y-61214000D01*
X130222000Y-61246678D01*
X130222000Y-61326500D01*
X130386500Y-61491000D01*
X131201000Y-61491000D01*
X131201000Y-61471000D01*
X131409000Y-61471000D01*
X131409000Y-61491000D01*
X131429000Y-61491000D01*
X131429000Y-61699000D01*
X131409000Y-61699000D01*
X131409000Y-61719000D01*
X131201000Y-61719000D01*
X131201000Y-61699000D01*
X130386500Y-61699000D01*
X130222000Y-61863500D01*
X130222000Y-62070322D01*
X130215500Y-62103000D01*
X130215500Y-62793000D01*
X130152000Y-62856500D01*
X130152000Y-63826000D01*
X130172000Y-63826000D01*
X130172000Y-64034000D01*
X130152000Y-64034000D01*
X130152000Y-64054000D01*
X129944000Y-64054000D01*
X129944000Y-64034000D01*
X128194500Y-64034000D01*
X128030000Y-64198500D01*
X128030000Y-64574807D01*
X128055287Y-64701931D01*
X128060331Y-64714108D01*
X128084291Y-66343435D01*
X127348220Y-66711471D01*
X127339344Y-66700656D01*
X127179827Y-66569744D01*
X126997836Y-66472468D01*
X126800364Y-66412566D01*
X126595000Y-66392339D01*
X123595000Y-66392339D01*
X123389636Y-66412566D01*
X123192164Y-66472468D01*
X123180000Y-66478970D01*
X123180000Y-63888000D01*
X124826500Y-63888000D01*
X124991000Y-63723500D01*
X124991000Y-62334000D01*
X125199000Y-62334000D01*
X125199000Y-63723500D01*
X125363500Y-63888000D01*
X127159808Y-63888000D01*
X127286932Y-63862713D01*
X127406680Y-63813112D01*
X127514451Y-63741102D01*
X127606102Y-63649450D01*
X127678112Y-63541680D01*
X127727713Y-63421931D01*
X127753000Y-63294807D01*
X127753000Y-63285193D01*
X128030000Y-63285193D01*
X128030000Y-63661500D01*
X128194500Y-63826000D01*
X129944000Y-63826000D01*
X129944000Y-62856500D01*
X129779500Y-62692000D01*
X128623192Y-62692000D01*
X128496068Y-62717287D01*
X128376320Y-62766888D01*
X128268549Y-62838898D01*
X128176898Y-62930550D01*
X128104888Y-63038320D01*
X128055287Y-63158069D01*
X128030000Y-63285193D01*
X127753000Y-63285193D01*
X127753000Y-62498500D01*
X127588500Y-62334000D01*
X125199000Y-62334000D01*
X124991000Y-62334000D01*
X124971000Y-62334000D01*
X124971000Y-62126000D01*
X124991000Y-62126000D01*
X124991000Y-60736500D01*
X125199000Y-60736500D01*
X125199000Y-62126000D01*
X127588500Y-62126000D01*
X127753000Y-61961500D01*
X127753000Y-61165193D01*
X127727713Y-61038069D01*
X127678112Y-60918320D01*
X127606102Y-60810550D01*
X127514451Y-60718898D01*
X127406680Y-60646888D01*
X127286932Y-60597287D01*
X127159808Y-60572000D01*
X125363500Y-60572000D01*
X125199000Y-60736500D01*
X124991000Y-60736500D01*
X124826500Y-60572000D01*
X123180000Y-60572000D01*
X123180000Y-59085566D01*
X123195224Y-58930300D01*
X123231438Y-58810355D01*
X123290264Y-58699718D01*
X123369454Y-58602623D01*
X123465997Y-58522755D01*
X123576212Y-58463162D01*
X123695911Y-58426109D01*
X123849180Y-58410000D01*
X130215500Y-58410000D01*
X130215500Y-59245500D01*
G36*
X136270000Y-65137000D02*
X136264659Y-65131659D01*
X136270000Y-65104808D01*
X136270000Y-65137000D01*
X136270000Y-65137000D01*
G37*
X136270000Y-65137000D02*
X136264659Y-65131659D01*
X136270000Y-65104808D01*
X136270000Y-65137000D01*
G36*
X136270000Y-64705192D02*
X136264659Y-64678341D01*
X136270000Y-64673000D01*
X136270000Y-64705192D01*
X136270000Y-64705192D01*
G37*
X136270000Y-64705192D02*
X136264659Y-64678341D01*
X136270000Y-64673000D01*
X136270000Y-64705192D01*
G04 #@! TO.N,+POWER*
G36*
X130729477Y-65323040D02*
X130830218Y-65363545D01*
X130916891Y-65428942D01*
X130983487Y-65514700D01*
X131025386Y-65614867D01*
X131041000Y-65732419D01*
X131041000Y-66024592D01*
X131042283Y-66044171D01*
X131064445Y-66212509D01*
X131074580Y-66250332D01*
X131139556Y-66407198D01*
X131159135Y-66441110D01*
X131262497Y-66575814D01*
X131275434Y-66590566D01*
X131696583Y-67011715D01*
X131750728Y-67099404D01*
X131825555Y-67195066D01*
X131972601Y-67345372D01*
X132058031Y-67416610D01*
X132236275Y-67536930D01*
X132324836Y-67585520D01*
X132522079Y-67671212D01*
X132618035Y-67702785D01*
X132827624Y-67750958D01*
X132927729Y-67764450D01*
X133142592Y-67773481D01*
X133193155Y-67773280D01*
X133625391Y-67751668D01*
X133687573Y-67744999D01*
X133864995Y-67715688D01*
X133985084Y-67681482D01*
X134151322Y-67612907D01*
X134260609Y-67552490D01*
X134407093Y-67448183D01*
X134499929Y-67364676D01*
X134617928Y-67231351D01*
X134691518Y-67149241D01*
X134729138Y-67123501D01*
X134771800Y-67107442D01*
X134850098Y-67098000D01*
X135253574Y-67098000D01*
X135259958Y-67162819D01*
X135269840Y-67195396D01*
X135186006Y-67230121D01*
X135030410Y-67334087D01*
X134898087Y-67466410D01*
X134794121Y-67622006D01*
X134751547Y-67724788D01*
X134576238Y-67870879D01*
X134363801Y-68024234D01*
X134136776Y-68144255D01*
X133895314Y-68231676D01*
X133644074Y-68284812D01*
X133382690Y-68303000D01*
X132432653Y-68303000D01*
X132238057Y-68283235D01*
X132058696Y-68227033D01*
X131894291Y-68135912D01*
X131751571Y-68013602D01*
X131493121Y-67680469D01*
X131472214Y-67658518D01*
X131306355Y-67516379D01*
X131281463Y-67499080D01*
X131090412Y-67393190D01*
X131062548Y-67381249D01*
X130854109Y-67315935D01*
X130824414Y-67309840D01*
X130607099Y-67287768D01*
X130591942Y-67287000D01*
X129248100Y-67287000D01*
X129237688Y-67287362D01*
X128960686Y-67306637D01*
X128940061Y-67309521D01*
X128668398Y-67366976D01*
X128648371Y-67372689D01*
X128387284Y-67467216D01*
X128368242Y-67475648D01*
X128122764Y-67605424D01*
X128105074Y-67616412D01*
X127879935Y-67778936D01*
X127871703Y-67785324D01*
X127018970Y-68495935D01*
X127010637Y-68503424D01*
X126796188Y-68711139D01*
X126788438Y-68719228D01*
X126377070Y-69182016D01*
X126370130Y-69190419D01*
X126193465Y-69420902D01*
X126181506Y-69439104D01*
X126040081Y-69692741D01*
X126030883Y-69712484D01*
X125927680Y-69983928D01*
X125921438Y-70004795D01*
X125858633Y-70288324D01*
X125855479Y-70309874D01*
X125834396Y-70599509D01*
X125834000Y-70610399D01*
X125834000Y-71384735D01*
X125835242Y-71404001D01*
X125856819Y-71570600D01*
X125866636Y-71607861D01*
X125929943Y-71763467D01*
X125948928Y-71796999D01*
X126049788Y-71931342D01*
X126076688Y-71958929D01*
X126324963Y-72155311D01*
X126402497Y-72258584D01*
X126451160Y-72378196D01*
X126469000Y-72515941D01*
X126469000Y-72697667D01*
X126453387Y-72816259D01*
X126411409Y-72917603D01*
X126346650Y-73002000D01*
X125113350Y-73002000D01*
X125048591Y-72917603D01*
X125006613Y-72816259D01*
X124991000Y-72697667D01*
X124991000Y-72515941D01*
X125008840Y-72378196D01*
X125057503Y-72258584D01*
X125135037Y-72155311D01*
X125383312Y-71958929D01*
X125410212Y-71931342D01*
X125511072Y-71796999D01*
X125530057Y-71763467D01*
X125593364Y-71607861D01*
X125603181Y-71570600D01*
X125624758Y-71404001D01*
X125626000Y-71384735D01*
X125626000Y-70338465D01*
X125625469Y-70325854D01*
X125604394Y-70076071D01*
X125600168Y-70051204D01*
X125537537Y-69808484D01*
X125529204Y-69784678D01*
X125426790Y-69555883D01*
X125414586Y-69533809D01*
X125275284Y-69325409D01*
X125259553Y-69305692D01*
X125087301Y-69123580D01*
X125068490Y-69106778D01*
X124868159Y-68956102D01*
X124846798Y-68942689D01*
X124624053Y-68827710D01*
X124612603Y-68822397D01*
X124257145Y-68675311D01*
X124123555Y-68603207D01*
X124013370Y-68510382D01*
X123924410Y-68397055D01*
X123860402Y-68267979D01*
X123824036Y-68128572D01*
X123816931Y-67986603D01*
X123839021Y-67865652D01*
X123890211Y-67756000D01*
X123967510Y-67662890D01*
X124065880Y-67592397D01*
X124178891Y-67549128D01*
X124308823Y-67534837D01*
X126632580Y-67577869D01*
X126644628Y-67577608D01*
X126965111Y-67557763D01*
X126988950Y-67554350D01*
X127302126Y-67483474D01*
X127325112Y-67476290D01*
X127622911Y-67356209D01*
X127633897Y-67351257D01*
X128547103Y-66894653D01*
X128559543Y-66887675D01*
X128719427Y-66787709D01*
X128742044Y-66770376D01*
X128751590Y-66761500D01*
X128809750Y-66761500D01*
X128869184Y-66749223D01*
X128917364Y-66715995D01*
X128949161Y-66666859D01*
X128959734Y-66609294D01*
X128958637Y-66534726D01*
X128970479Y-66517621D01*
X128987358Y-66485547D01*
X129030531Y-66371992D01*
X129039224Y-66336807D01*
X129053901Y-66216212D01*
X129055000Y-66198090D01*
X129055000Y-65795742D01*
X129071685Y-65667868D01*
X129116896Y-65557637D01*
X129188871Y-65462705D01*
X129282794Y-65389419D01*
X129392387Y-65342681D01*
X129520012Y-65324223D01*
X130611725Y-65309061D01*
X130729477Y-65323040D01*
X130729477Y-65323040D01*
G37*
X130729477Y-65323040D02*
X130830218Y-65363545D01*
X130916891Y-65428942D01*
X130983487Y-65514700D01*
X131025386Y-65614867D01*
X131041000Y-65732419D01*
X131041000Y-66024592D01*
X131042283Y-66044171D01*
X131064445Y-66212509D01*
X131074580Y-66250332D01*
X131139556Y-66407198D01*
X131159135Y-66441110D01*
X131262497Y-66575814D01*
X131275434Y-66590566D01*
X131696583Y-67011715D01*
X131750728Y-67099404D01*
X131825555Y-67195066D01*
X131972601Y-67345372D01*
X132058031Y-67416610D01*
X132236275Y-67536930D01*
X132324836Y-67585520D01*
X132522079Y-67671212D01*
X132618035Y-67702785D01*
X132827624Y-67750958D01*
X132927729Y-67764450D01*
X133142592Y-67773481D01*
X133193155Y-67773280D01*
X133625391Y-67751668D01*
X133687573Y-67744999D01*
X133864995Y-67715688D01*
X133985084Y-67681482D01*
X134151322Y-67612907D01*
X134260609Y-67552490D01*
X134407093Y-67448183D01*
X134499929Y-67364676D01*
X134617928Y-67231351D01*
X134691518Y-67149241D01*
X134729138Y-67123501D01*
X134771800Y-67107442D01*
X134850098Y-67098000D01*
X135253574Y-67098000D01*
X135259958Y-67162819D01*
X135269840Y-67195396D01*
X135186006Y-67230121D01*
X135030410Y-67334087D01*
X134898087Y-67466410D01*
X134794121Y-67622006D01*
X134751547Y-67724788D01*
X134576238Y-67870879D01*
X134363801Y-68024234D01*
X134136776Y-68144255D01*
X133895314Y-68231676D01*
X133644074Y-68284812D01*
X133382690Y-68303000D01*
X132432653Y-68303000D01*
X132238057Y-68283235D01*
X132058696Y-68227033D01*
X131894291Y-68135912D01*
X131751571Y-68013602D01*
X131493121Y-67680469D01*
X131472214Y-67658518D01*
X131306355Y-67516379D01*
X131281463Y-67499080D01*
X131090412Y-67393190D01*
X131062548Y-67381249D01*
X130854109Y-67315935D01*
X130824414Y-67309840D01*
X130607099Y-67287768D01*
X130591942Y-67287000D01*
X129248100Y-67287000D01*
X129237688Y-67287362D01*
X128960686Y-67306637D01*
X128940061Y-67309521D01*
X128668398Y-67366976D01*
X128648371Y-67372689D01*
X128387284Y-67467216D01*
X128368242Y-67475648D01*
X128122764Y-67605424D01*
X128105074Y-67616412D01*
X127879935Y-67778936D01*
X127871703Y-67785324D01*
X127018970Y-68495935D01*
X127010637Y-68503424D01*
X126796188Y-68711139D01*
X126788438Y-68719228D01*
X126377070Y-69182016D01*
X126370130Y-69190419D01*
X126193465Y-69420902D01*
X126181506Y-69439104D01*
X126040081Y-69692741D01*
X126030883Y-69712484D01*
X125927680Y-69983928D01*
X125921438Y-70004795D01*
X125858633Y-70288324D01*
X125855479Y-70309874D01*
X125834396Y-70599509D01*
X125834000Y-70610399D01*
X125834000Y-71384735D01*
X125835242Y-71404001D01*
X125856819Y-71570600D01*
X125866636Y-71607861D01*
X125929943Y-71763467D01*
X125948928Y-71796999D01*
X126049788Y-71931342D01*
X126076688Y-71958929D01*
X126324963Y-72155311D01*
X126402497Y-72258584D01*
X126451160Y-72378196D01*
X126469000Y-72515941D01*
X126469000Y-72697667D01*
X126453387Y-72816259D01*
X126411409Y-72917603D01*
X126346650Y-73002000D01*
X125113350Y-73002000D01*
X125048591Y-72917603D01*
X125006613Y-72816259D01*
X124991000Y-72697667D01*
X124991000Y-72515941D01*
X125008840Y-72378196D01*
X125057503Y-72258584D01*
X125135037Y-72155311D01*
X125383312Y-71958929D01*
X125410212Y-71931342D01*
X125511072Y-71796999D01*
X125530057Y-71763467D01*
X125593364Y-71607861D01*
X125603181Y-71570600D01*
X125624758Y-71404001D01*
X125626000Y-71384735D01*
X125626000Y-70338465D01*
X125625469Y-70325854D01*
X125604394Y-70076071D01*
X125600168Y-70051204D01*
X125537537Y-69808484D01*
X125529204Y-69784678D01*
X125426790Y-69555883D01*
X125414586Y-69533809D01*
X125275284Y-69325409D01*
X125259553Y-69305692D01*
X125087301Y-69123580D01*
X125068490Y-69106778D01*
X124868159Y-68956102D01*
X124846798Y-68942689D01*
X124624053Y-68827710D01*
X124612603Y-68822397D01*
X124257145Y-68675311D01*
X124123555Y-68603207D01*
X124013370Y-68510382D01*
X123924410Y-68397055D01*
X123860402Y-68267979D01*
X123824036Y-68128572D01*
X123816931Y-67986603D01*
X123839021Y-67865652D01*
X123890211Y-67756000D01*
X123967510Y-67662890D01*
X124065880Y-67592397D01*
X124178891Y-67549128D01*
X124308823Y-67534837D01*
X126632580Y-67577869D01*
X126644628Y-67577608D01*
X126965111Y-67557763D01*
X126988950Y-67554350D01*
X127302126Y-67483474D01*
X127325112Y-67476290D01*
X127622911Y-67356209D01*
X127633897Y-67351257D01*
X128547103Y-66894653D01*
X128559543Y-66887675D01*
X128719427Y-66787709D01*
X128742044Y-66770376D01*
X128751590Y-66761500D01*
X128809750Y-66761500D01*
X128869184Y-66749223D01*
X128917364Y-66715995D01*
X128949161Y-66666859D01*
X128959734Y-66609294D01*
X128958637Y-66534726D01*
X128970479Y-66517621D01*
X128987358Y-66485547D01*
X129030531Y-66371992D01*
X129039224Y-66336807D01*
X129053901Y-66216212D01*
X129055000Y-66198090D01*
X129055000Y-65795742D01*
X129071685Y-65667868D01*
X129116896Y-65557637D01*
X129188871Y-65462705D01*
X129282794Y-65389419D01*
X129392387Y-65342681D01*
X129520012Y-65324223D01*
X130611725Y-65309061D01*
X130729477Y-65323040D01*
D22*
G04 #@! TO.N,/LED_2*
G36*
X139968901Y-63749842D02*
X140230323Y-63816695D01*
X140477012Y-63926052D01*
X140702103Y-64074873D01*
X140902400Y-64261875D01*
X141634030Y-65069191D01*
X141638876Y-65074178D01*
X141839389Y-65266671D01*
X141850059Y-65275575D01*
X142075324Y-65438410D01*
X142087126Y-65445750D01*
X142332790Y-65575781D01*
X142345495Y-65581413D01*
X142606815Y-65676129D01*
X142620179Y-65679945D01*
X142892107Y-65737516D01*
X142905870Y-65739443D01*
X143183154Y-65758758D01*
X143190103Y-65759000D01*
X143441592Y-65759000D01*
X143625107Y-65777075D01*
X143796851Y-65829172D01*
X143955134Y-65913777D01*
X144093867Y-66027633D01*
X144207723Y-66166366D01*
X144292328Y-66324649D01*
X144344425Y-66496393D01*
X144362017Y-66675000D01*
X144344425Y-66853607D01*
X144292328Y-67025351D01*
X144207723Y-67183634D01*
X144093867Y-67322367D01*
X143955134Y-67436223D01*
X143796851Y-67520828D01*
X143625107Y-67572925D01*
X143441592Y-67591000D01*
X142689408Y-67591000D01*
X142493506Y-67571706D01*
X142309846Y-67515993D01*
X142140587Y-67425521D01*
X141992231Y-67303769D01*
X141870479Y-67155413D01*
X141780007Y-66986154D01*
X141724294Y-66802494D01*
X141705000Y-66606592D01*
X141705000Y-66459598D01*
X141704738Y-66452366D01*
X141683820Y-66163863D01*
X141681734Y-66149552D01*
X141619418Y-65867084D01*
X141615289Y-65853223D01*
X141512878Y-65582698D01*
X141506793Y-65569577D01*
X141366430Y-65316655D01*
X141358515Y-65304550D01*
X141183135Y-65074520D01*
X141173558Y-65063682D01*
X140966830Y-64861357D01*
X140961478Y-64856486D01*
X140668863Y-64608889D01*
X140660273Y-64600299D01*
X140643557Y-64584642D01*
X140446867Y-64412149D01*
X140410545Y-64384278D01*
X140277482Y-64295368D01*
X140200771Y-64241241D01*
X140185613Y-64232428D01*
X140164961Y-64222733D01*
X140153374Y-64216043D01*
X139918741Y-64100335D01*
X139876444Y-64082816D01*
X139628715Y-63998723D01*
X139584492Y-63986873D01*
X139327906Y-63935835D01*
X139282516Y-63929859D01*
X139021464Y-63912749D01*
X138998573Y-63912000D01*
X137853693Y-63912000D01*
X137853693Y-63858816D01*
X137871667Y-63854000D01*
X138542010Y-63854000D01*
X138553575Y-63853329D01*
X138691767Y-63837239D01*
X138714279Y-63831925D01*
X138964930Y-63741072D01*
X139085792Y-63727000D01*
X139695824Y-63727000D01*
X139968901Y-63749842D01*
X139968901Y-63749842D01*
G37*
X139968901Y-63749842D02*
X140230323Y-63816695D01*
X140477012Y-63926052D01*
X140702103Y-64074873D01*
X140902400Y-64261875D01*
X141634030Y-65069191D01*
X141638876Y-65074178D01*
X141839389Y-65266671D01*
X141850059Y-65275575D01*
X142075324Y-65438410D01*
X142087126Y-65445750D01*
X142332790Y-65575781D01*
X142345495Y-65581413D01*
X142606815Y-65676129D01*
X142620179Y-65679945D01*
X142892107Y-65737516D01*
X142905870Y-65739443D01*
X143183154Y-65758758D01*
X143190103Y-65759000D01*
X143441592Y-65759000D01*
X143625107Y-65777075D01*
X143796851Y-65829172D01*
X143955134Y-65913777D01*
X144093867Y-66027633D01*
X144207723Y-66166366D01*
X144292328Y-66324649D01*
X144344425Y-66496393D01*
X144362017Y-66675000D01*
X144344425Y-66853607D01*
X144292328Y-67025351D01*
X144207723Y-67183634D01*
X144093867Y-67322367D01*
X143955134Y-67436223D01*
X143796851Y-67520828D01*
X143625107Y-67572925D01*
X143441592Y-67591000D01*
X142689408Y-67591000D01*
X142493506Y-67571706D01*
X142309846Y-67515993D01*
X142140587Y-67425521D01*
X141992231Y-67303769D01*
X141870479Y-67155413D01*
X141780007Y-66986154D01*
X141724294Y-66802494D01*
X141705000Y-66606592D01*
X141705000Y-66459598D01*
X141704738Y-66452366D01*
X141683820Y-66163863D01*
X141681734Y-66149552D01*
X141619418Y-65867084D01*
X141615289Y-65853223D01*
X141512878Y-65582698D01*
X141506793Y-65569577D01*
X141366430Y-65316655D01*
X141358515Y-65304550D01*
X141183135Y-65074520D01*
X141173558Y-65063682D01*
X140966830Y-64861357D01*
X140961478Y-64856486D01*
X140668863Y-64608889D01*
X140660273Y-64600299D01*
X140643557Y-64584642D01*
X140446867Y-64412149D01*
X140410545Y-64384278D01*
X140277482Y-64295368D01*
X140200771Y-64241241D01*
X140185613Y-64232428D01*
X140164961Y-64222733D01*
X140153374Y-64216043D01*
X139918741Y-64100335D01*
X139876444Y-64082816D01*
X139628715Y-63998723D01*
X139584492Y-63986873D01*
X139327906Y-63935835D01*
X139282516Y-63929859D01*
X139021464Y-63912749D01*
X138998573Y-63912000D01*
X137853693Y-63912000D01*
X137853693Y-63858816D01*
X137871667Y-63854000D01*
X138542010Y-63854000D01*
X138553575Y-63853329D01*
X138691767Y-63837239D01*
X138714279Y-63831925D01*
X138964930Y-63741072D01*
X139085792Y-63727000D01*
X139695824Y-63727000D01*
X139968901Y-63749842D01*
G04 #@! TO.N,/LED_1*
G36*
X139246542Y-64378467D02*
X139490277Y-64426949D01*
X139725591Y-64506828D01*
X139948464Y-64616737D01*
X140155087Y-64754797D01*
X140344388Y-64920810D01*
X140692190Y-65268612D01*
X140858203Y-65457913D01*
X140996263Y-65664536D01*
X141106172Y-65887409D01*
X141186051Y-66122723D01*
X141234533Y-66366458D01*
X141251000Y-66617702D01*
X141251000Y-67310000D01*
X141251308Y-67317846D01*
X141270071Y-67556252D01*
X141272526Y-67571751D01*
X141328353Y-67804287D01*
X141333202Y-67819210D01*
X141424718Y-68040150D01*
X141431842Y-68054132D01*
X141556794Y-68258035D01*
X141566017Y-68270730D01*
X141721328Y-68452576D01*
X141732424Y-68463672D01*
X141914270Y-68618983D01*
X141926965Y-68628206D01*
X142130868Y-68753158D01*
X142144850Y-68760282D01*
X142365790Y-68851798D01*
X142380713Y-68856647D01*
X142613249Y-68912474D01*
X142628748Y-68914929D01*
X142867154Y-68933692D01*
X142875000Y-68934000D01*
X144394092Y-68934000D01*
X144577607Y-68952075D01*
X144749351Y-69004172D01*
X144907634Y-69088777D01*
X145046367Y-69202633D01*
X145160223Y-69341366D01*
X145244828Y-69499649D01*
X145296925Y-69671393D01*
X145314517Y-69850000D01*
X145296925Y-70028607D01*
X145244828Y-70200351D01*
X145160223Y-70358634D01*
X145046367Y-70497367D01*
X144907634Y-70611223D01*
X144749351Y-70695828D01*
X144577607Y-70747925D01*
X144394092Y-70766000D01*
X142846569Y-70766000D01*
X142572642Y-70746409D01*
X142307777Y-70688790D01*
X142053819Y-70594069D01*
X141815920Y-70464166D01*
X141598935Y-70301733D01*
X141407267Y-70110065D01*
X141244834Y-69893080D01*
X141114931Y-69655181D01*
X141020210Y-69401223D01*
X140962591Y-69136358D01*
X140943000Y-68862431D01*
X140943000Y-66741427D01*
X140942786Y-66734887D01*
X140925676Y-66473835D01*
X140923969Y-66460866D01*
X140872931Y-66204280D01*
X140869545Y-66191645D01*
X140785452Y-65943916D01*
X140780446Y-65931831D01*
X140664738Y-65697198D01*
X140658198Y-65685870D01*
X140512854Y-65468347D01*
X140504891Y-65457969D01*
X140332398Y-65261279D01*
X140327925Y-65256503D01*
X140102497Y-65031075D01*
X140097721Y-65026602D01*
X139901031Y-64854109D01*
X139890653Y-64846146D01*
X139673130Y-64700802D01*
X139661802Y-64694262D01*
X139427169Y-64578554D01*
X139415084Y-64573548D01*
X139167355Y-64489455D01*
X139154720Y-64486069D01*
X139022920Y-64459852D01*
X138990739Y-64451639D01*
X138933306Y-64441982D01*
X138932915Y-64441949D01*
X138898134Y-64435031D01*
X138885165Y-64433324D01*
X138624113Y-64416214D01*
X138617573Y-64416000D01*
X137853693Y-64416000D01*
X137853693Y-64391693D01*
X138502000Y-64391693D01*
X138570612Y-64384935D01*
X138636587Y-64364922D01*
X138642054Y-64362000D01*
X138995298Y-64362000D01*
X139246542Y-64378467D01*
X139246542Y-64378467D01*
G37*
X139246542Y-64378467D02*
X139490277Y-64426949D01*
X139725591Y-64506828D01*
X139948464Y-64616737D01*
X140155087Y-64754797D01*
X140344388Y-64920810D01*
X140692190Y-65268612D01*
X140858203Y-65457913D01*
X140996263Y-65664536D01*
X141106172Y-65887409D01*
X141186051Y-66122723D01*
X141234533Y-66366458D01*
X141251000Y-66617702D01*
X141251000Y-67310000D01*
X141251308Y-67317846D01*
X141270071Y-67556252D01*
X141272526Y-67571751D01*
X141328353Y-67804287D01*
X141333202Y-67819210D01*
X141424718Y-68040150D01*
X141431842Y-68054132D01*
X141556794Y-68258035D01*
X141566017Y-68270730D01*
X141721328Y-68452576D01*
X141732424Y-68463672D01*
X141914270Y-68618983D01*
X141926965Y-68628206D01*
X142130868Y-68753158D01*
X142144850Y-68760282D01*
X142365790Y-68851798D01*
X142380713Y-68856647D01*
X142613249Y-68912474D01*
X142628748Y-68914929D01*
X142867154Y-68933692D01*
X142875000Y-68934000D01*
X144394092Y-68934000D01*
X144577607Y-68952075D01*
X144749351Y-69004172D01*
X144907634Y-69088777D01*
X145046367Y-69202633D01*
X145160223Y-69341366D01*
X145244828Y-69499649D01*
X145296925Y-69671393D01*
X145314517Y-69850000D01*
X145296925Y-70028607D01*
X145244828Y-70200351D01*
X145160223Y-70358634D01*
X145046367Y-70497367D01*
X144907634Y-70611223D01*
X144749351Y-70695828D01*
X144577607Y-70747925D01*
X144394092Y-70766000D01*
X142846569Y-70766000D01*
X142572642Y-70746409D01*
X142307777Y-70688790D01*
X142053819Y-70594069D01*
X141815920Y-70464166D01*
X141598935Y-70301733D01*
X141407267Y-70110065D01*
X141244834Y-69893080D01*
X141114931Y-69655181D01*
X141020210Y-69401223D01*
X140962591Y-69136358D01*
X140943000Y-68862431D01*
X140943000Y-66741427D01*
X140942786Y-66734887D01*
X140925676Y-66473835D01*
X140923969Y-66460866D01*
X140872931Y-66204280D01*
X140869545Y-66191645D01*
X140785452Y-65943916D01*
X140780446Y-65931831D01*
X140664738Y-65697198D01*
X140658198Y-65685870D01*
X140512854Y-65468347D01*
X140504891Y-65457969D01*
X140332398Y-65261279D01*
X140327925Y-65256503D01*
X140102497Y-65031075D01*
X140097721Y-65026602D01*
X139901031Y-64854109D01*
X139890653Y-64846146D01*
X139673130Y-64700802D01*
X139661802Y-64694262D01*
X139427169Y-64578554D01*
X139415084Y-64573548D01*
X139167355Y-64489455D01*
X139154720Y-64486069D01*
X139022920Y-64459852D01*
X138990739Y-64451639D01*
X138933306Y-64441982D01*
X138932915Y-64441949D01*
X138898134Y-64435031D01*
X138885165Y-64433324D01*
X138624113Y-64416214D01*
X138617573Y-64416000D01*
X137853693Y-64416000D01*
X137853693Y-64391693D01*
X138502000Y-64391693D01*
X138570612Y-64384935D01*
X138636587Y-64364922D01*
X138642054Y-64362000D01*
X138995298Y-64362000D01*
X139246542Y-64378467D01*
D20*
G04 #@! TO.N,/ENABLE*
G36*
X138710990Y-66938558D02*
X138785158Y-66969279D01*
X138848849Y-67018151D01*
X138897721Y-67081842D01*
X138928442Y-67156010D01*
X138940000Y-67243801D01*
X138940000Y-69132163D01*
X138922517Y-69334434D01*
X138871974Y-69525468D01*
X138789403Y-69704995D01*
X138677252Y-69867696D01*
X138538950Y-70008635D01*
X138329021Y-70158520D01*
X138096101Y-70268998D01*
X137847344Y-70336702D01*
X137585018Y-70360000D01*
X132804011Y-70360000D01*
X132794544Y-70360359D01*
X132570946Y-70377343D01*
X132552228Y-70380203D01*
X132333760Y-70430766D01*
X132315689Y-70436421D01*
X132107365Y-70519402D01*
X132090355Y-70527721D01*
X131896955Y-70641217D01*
X131881397Y-70652010D01*
X131707359Y-70793415D01*
X131693610Y-70806434D01*
X131542927Y-70972505D01*
X131530730Y-70988322D01*
X131410622Y-71172895D01*
X131400682Y-71191408D01*
X131313188Y-71393492D01*
X131306489Y-71413409D01*
X131254083Y-71627294D01*
X131250816Y-71648052D01*
X131234978Y-71867694D01*
X131235233Y-71888705D01*
X131256410Y-72107896D01*
X131260182Y-72128568D01*
X131317777Y-72341114D01*
X131320952Y-72351139D01*
X131479512Y-72787179D01*
X131540931Y-73027000D01*
X130062369Y-73027000D01*
X130059210Y-73006213D01*
X130070802Y-72791499D01*
X130114783Y-72577405D01*
X130189990Y-72372195D01*
X130294768Y-72180383D01*
X130429613Y-72002502D01*
X131319671Y-70993770D01*
X131511517Y-70805057D01*
X131724468Y-70647870D01*
X131957429Y-70522244D01*
X132205758Y-70430679D01*
X132464523Y-70374996D01*
X132732952Y-70356000D01*
X137553049Y-70356000D01*
X137563891Y-70355529D01*
X137800617Y-70334919D01*
X137821973Y-70331172D01*
X138051576Y-70269964D01*
X138071965Y-70262582D01*
X138287535Y-70162615D01*
X138306341Y-70151822D01*
X138501393Y-70016107D01*
X138518118Y-70002158D01*
X138649537Y-69871539D01*
X138663642Y-69854821D01*
X138770281Y-69703293D01*
X138781257Y-69684372D01*
X138859848Y-69516575D01*
X138867357Y-69496032D01*
X138915496Y-69317105D01*
X138919309Y-69295566D01*
X138935521Y-69110986D01*
X138936000Y-69100049D01*
X138936000Y-67627500D01*
X138934931Y-67611185D01*
X138915458Y-67463270D01*
X138907012Y-67431750D01*
X138849919Y-67293915D01*
X138833603Y-67265655D01*
X138742781Y-67147293D01*
X138719707Y-67124219D01*
X138601345Y-67033397D01*
X138573085Y-67017081D01*
X138435250Y-66959988D01*
X138403730Y-66951542D01*
X138255815Y-66932069D01*
X138239500Y-66931000D01*
X137878814Y-66931000D01*
X137878814Y-66927000D01*
X138623199Y-66927000D01*
X138710990Y-66938558D01*
X138710990Y-66938558D01*
G37*
X138710990Y-66938558D02*
X138785158Y-66969279D01*
X138848849Y-67018151D01*
X138897721Y-67081842D01*
X138928442Y-67156010D01*
X138940000Y-67243801D01*
X138940000Y-69132163D01*
X138922517Y-69334434D01*
X138871974Y-69525468D01*
X138789403Y-69704995D01*
X138677252Y-69867696D01*
X138538950Y-70008635D01*
X138329021Y-70158520D01*
X138096101Y-70268998D01*
X137847344Y-70336702D01*
X137585018Y-70360000D01*
X132804011Y-70360000D01*
X132794544Y-70360359D01*
X132570946Y-70377343D01*
X132552228Y-70380203D01*
X132333760Y-70430766D01*
X132315689Y-70436421D01*
X132107365Y-70519402D01*
X132090355Y-70527721D01*
X131896955Y-70641217D01*
X131881397Y-70652010D01*
X131707359Y-70793415D01*
X131693610Y-70806434D01*
X131542927Y-70972505D01*
X131530730Y-70988322D01*
X131410622Y-71172895D01*
X131400682Y-71191408D01*
X131313188Y-71393492D01*
X131306489Y-71413409D01*
X131254083Y-71627294D01*
X131250816Y-71648052D01*
X131234978Y-71867694D01*
X131235233Y-71888705D01*
X131256410Y-72107896D01*
X131260182Y-72128568D01*
X131317777Y-72341114D01*
X131320952Y-72351139D01*
X131479512Y-72787179D01*
X131540931Y-73027000D01*
X130062369Y-73027000D01*
X130059210Y-73006213D01*
X130070802Y-72791499D01*
X130114783Y-72577405D01*
X130189990Y-72372195D01*
X130294768Y-72180383D01*
X130429613Y-72002502D01*
X131319671Y-70993770D01*
X131511517Y-70805057D01*
X131724468Y-70647870D01*
X131957429Y-70522244D01*
X132205758Y-70430679D01*
X132464523Y-70374996D01*
X132732952Y-70356000D01*
X137553049Y-70356000D01*
X137563891Y-70355529D01*
X137800617Y-70334919D01*
X137821973Y-70331172D01*
X138051576Y-70269964D01*
X138071965Y-70262582D01*
X138287535Y-70162615D01*
X138306341Y-70151822D01*
X138501393Y-70016107D01*
X138518118Y-70002158D01*
X138649537Y-69871539D01*
X138663642Y-69854821D01*
X138770281Y-69703293D01*
X138781257Y-69684372D01*
X138859848Y-69516575D01*
X138867357Y-69496032D01*
X138915496Y-69317105D01*
X138919309Y-69295566D01*
X138935521Y-69110986D01*
X138936000Y-69100049D01*
X138936000Y-67627500D01*
X138934931Y-67611185D01*
X138915458Y-67463270D01*
X138907012Y-67431750D01*
X138849919Y-67293915D01*
X138833603Y-67265655D01*
X138742781Y-67147293D01*
X138719707Y-67124219D01*
X138601345Y-67033397D01*
X138573085Y-67017081D01*
X138435250Y-66959988D01*
X138403730Y-66951542D01*
X138255815Y-66932069D01*
X138239500Y-66931000D01*
X137878814Y-66931000D01*
X137878814Y-66927000D01*
X138623199Y-66927000D01*
X138710990Y-66938558D01*
D22*
G04 #@! TO.N,/LED_3*
G36*
X139820853Y-61488994D02*
X140079928Y-61555118D01*
X140324454Y-61663288D01*
X140547653Y-61810507D01*
X140957377Y-62191963D01*
X140970458Y-62202250D01*
X141207597Y-62358664D01*
X141222202Y-62366639D01*
X141481995Y-62481563D01*
X141497720Y-62487005D01*
X141772974Y-62557258D01*
X141789384Y-62560017D01*
X142072476Y-62583653D01*
X142080796Y-62584000D01*
X143759092Y-62584000D01*
X143942607Y-62602075D01*
X144114351Y-62654172D01*
X144272634Y-62738777D01*
X144411367Y-62852633D01*
X144525223Y-62991366D01*
X144609828Y-63149649D01*
X144661925Y-63321393D01*
X144679511Y-63499945D01*
X144661869Y-63677142D01*
X144609652Y-63847329D01*
X144524907Y-64003876D01*
X144410952Y-64140651D01*
X144272277Y-64252263D01*
X144114314Y-64334344D01*
X143943264Y-64383670D01*
X143760876Y-64398712D01*
X142751327Y-64381601D01*
X142464839Y-64355241D01*
X142189117Y-64287368D01*
X141926588Y-64179155D01*
X141683121Y-64033018D01*
X141464159Y-63852227D01*
X141272084Y-63638022D01*
X140506689Y-62644004D01*
X140501813Y-62638148D01*
X140298156Y-62411672D01*
X140287141Y-62401156D01*
X140051456Y-62208231D01*
X140038971Y-62199510D01*
X139776724Y-62044610D01*
X139763060Y-62037886D01*
X139480333Y-61924604D01*
X139465807Y-61920033D01*
X139169157Y-61850995D01*
X139154104Y-61848682D01*
X138850411Y-61825490D01*
X138842797Y-61825200D01*
X135976409Y-61825200D01*
X135969943Y-61825409D01*
X135711846Y-61842132D01*
X135699022Y-61843801D01*
X135445241Y-61893692D01*
X135432740Y-61897002D01*
X135187520Y-61979226D01*
X135175551Y-61984121D01*
X134942992Y-62097302D01*
X134931754Y-62103701D01*
X134715745Y-62245947D01*
X134710460Y-62249678D01*
X134669960Y-62280278D01*
X134664002Y-62285151D01*
X134499380Y-62430713D01*
X134488676Y-62441757D01*
X134348323Y-62610842D01*
X134339438Y-62623397D01*
X134226674Y-62812005D01*
X134219820Y-62825774D01*
X134137313Y-63029444D01*
X134132652Y-63044101D01*
X134082354Y-63258015D01*
X134079995Y-63273214D01*
X134063096Y-63492310D01*
X134062800Y-63500000D01*
X134062800Y-63906400D01*
X134064722Y-63925909D01*
X134087924Y-64042551D01*
X134093614Y-64061311D01*
X134102855Y-64078599D01*
X134168927Y-64177483D01*
X134181363Y-64192637D01*
X134196517Y-64205073D01*
X134295401Y-64271145D01*
X134312690Y-64280386D01*
X134331449Y-64286076D01*
X134448091Y-64309278D01*
X134467600Y-64311200D01*
X134580750Y-64311200D01*
X134606610Y-64332422D01*
X134667413Y-64364922D01*
X134733388Y-64384935D01*
X134802000Y-64391693D01*
X135450307Y-64391693D01*
X135450307Y-64418307D01*
X134802000Y-64418307D01*
X134733388Y-64425065D01*
X134717119Y-64430000D01*
X134177793Y-64430000D01*
X134136046Y-64409582D01*
X134061517Y-64339012D01*
X133926812Y-64165820D01*
X133819778Y-64001443D01*
X133798996Y-63953559D01*
X133796920Y-63943123D01*
X133740383Y-63806632D01*
X133737779Y-63802735D01*
X133697407Y-63639012D01*
X133682895Y-63443397D01*
X133684900Y-63238892D01*
X133707928Y-63013746D01*
X133770505Y-62801076D01*
X133870987Y-62603468D01*
X134005972Y-62427610D01*
X134174332Y-62276367D01*
X134755233Y-61844070D01*
X134961680Y-61710050D01*
X135180640Y-61604862D01*
X135411239Y-61528474D01*
X135649704Y-61482135D01*
X135895316Y-61466400D01*
X139550240Y-61466400D01*
X139820853Y-61488994D01*
X139820853Y-61488994D01*
G37*
X139820853Y-61488994D02*
X140079928Y-61555118D01*
X140324454Y-61663288D01*
X140547653Y-61810507D01*
X140957377Y-62191963D01*
X140970458Y-62202250D01*
X141207597Y-62358664D01*
X141222202Y-62366639D01*
X141481995Y-62481563D01*
X141497720Y-62487005D01*
X141772974Y-62557258D01*
X141789384Y-62560017D01*
X142072476Y-62583653D01*
X142080796Y-62584000D01*
X143759092Y-62584000D01*
X143942607Y-62602075D01*
X144114351Y-62654172D01*
X144272634Y-62738777D01*
X144411367Y-62852633D01*
X144525223Y-62991366D01*
X144609828Y-63149649D01*
X144661925Y-63321393D01*
X144679511Y-63499945D01*
X144661869Y-63677142D01*
X144609652Y-63847329D01*
X144524907Y-64003876D01*
X144410952Y-64140651D01*
X144272277Y-64252263D01*
X144114314Y-64334344D01*
X143943264Y-64383670D01*
X143760876Y-64398712D01*
X142751327Y-64381601D01*
X142464839Y-64355241D01*
X142189117Y-64287368D01*
X141926588Y-64179155D01*
X141683121Y-64033018D01*
X141464159Y-63852227D01*
X141272084Y-63638022D01*
X140506689Y-62644004D01*
X140501813Y-62638148D01*
X140298156Y-62411672D01*
X140287141Y-62401156D01*
X140051456Y-62208231D01*
X140038971Y-62199510D01*
X139776724Y-62044610D01*
X139763060Y-62037886D01*
X139480333Y-61924604D01*
X139465807Y-61920033D01*
X139169157Y-61850995D01*
X139154104Y-61848682D01*
X138850411Y-61825490D01*
X138842797Y-61825200D01*
X135976409Y-61825200D01*
X135969943Y-61825409D01*
X135711846Y-61842132D01*
X135699022Y-61843801D01*
X135445241Y-61893692D01*
X135432740Y-61897002D01*
X135187520Y-61979226D01*
X135175551Y-61984121D01*
X134942992Y-62097302D01*
X134931754Y-62103701D01*
X134715745Y-62245947D01*
X134710460Y-62249678D01*
X134669960Y-62280278D01*
X134664002Y-62285151D01*
X134499380Y-62430713D01*
X134488676Y-62441757D01*
X134348323Y-62610842D01*
X134339438Y-62623397D01*
X134226674Y-62812005D01*
X134219820Y-62825774D01*
X134137313Y-63029444D01*
X134132652Y-63044101D01*
X134082354Y-63258015D01*
X134079995Y-63273214D01*
X134063096Y-63492310D01*
X134062800Y-63500000D01*
X134062800Y-63906400D01*
X134064722Y-63925909D01*
X134087924Y-64042551D01*
X134093614Y-64061311D01*
X134102855Y-64078599D01*
X134168927Y-64177483D01*
X134181363Y-64192637D01*
X134196517Y-64205073D01*
X134295401Y-64271145D01*
X134312690Y-64280386D01*
X134331449Y-64286076D01*
X134448091Y-64309278D01*
X134467600Y-64311200D01*
X134580750Y-64311200D01*
X134606610Y-64332422D01*
X134667413Y-64364922D01*
X134733388Y-64384935D01*
X134802000Y-64391693D01*
X135450307Y-64391693D01*
X135450307Y-64418307D01*
X134802000Y-64418307D01*
X134733388Y-64425065D01*
X134717119Y-64430000D01*
X134177793Y-64430000D01*
X134136046Y-64409582D01*
X134061517Y-64339012D01*
X133926812Y-64165820D01*
X133819778Y-64001443D01*
X133798996Y-63953559D01*
X133796920Y-63943123D01*
X133740383Y-63806632D01*
X133737779Y-63802735D01*
X133697407Y-63639012D01*
X133682895Y-63443397D01*
X133684900Y-63238892D01*
X133707928Y-63013746D01*
X133770505Y-62801076D01*
X133870987Y-62603468D01*
X134005972Y-62427610D01*
X134174332Y-62276367D01*
X134755233Y-61844070D01*
X134961680Y-61710050D01*
X135180640Y-61604862D01*
X135411239Y-61528474D01*
X135649704Y-61482135D01*
X135895316Y-61466400D01*
X139550240Y-61466400D01*
X139820853Y-61488994D01*
G04 #@! TO.N,/PWM1*
G36*
X138887542Y-64889726D02*
X139113219Y-64947325D01*
X139326213Y-65041547D01*
X139520639Y-65169788D01*
X139694165Y-65331342D01*
X140122433Y-65802436D01*
X140251892Y-65967861D01*
X140353801Y-66147314D01*
X140428211Y-66339785D01*
X140473515Y-66541108D01*
X140489000Y-66750602D01*
X140489000Y-69582884D01*
X140489320Y-69590876D01*
X140508338Y-69828075D01*
X140510885Y-69843855D01*
X140567453Y-70074994D01*
X140572481Y-70090166D01*
X140665153Y-70309339D01*
X140672535Y-70323517D01*
X140798945Y-70525125D01*
X140808491Y-70537945D01*
X140965408Y-70716837D01*
X140976875Y-70727973D01*
X141160290Y-70879578D01*
X141166654Y-70884423D01*
X141659573Y-71229467D01*
X141669362Y-71235512D01*
X141972470Y-71399379D01*
X141982888Y-71404259D01*
X143649760Y-72071007D01*
X143834272Y-72166996D01*
X143992376Y-72294346D01*
X144122272Y-72450350D01*
X144218881Y-72628905D01*
X144278403Y-72822990D01*
X144298441Y-73024345D01*
X144295325Y-73052000D01*
X142724675Y-73052000D01*
X142721000Y-73019387D01*
X142721000Y-72669598D01*
X142720373Y-72658421D01*
X142699235Y-72470491D01*
X142694269Y-72448695D01*
X142631912Y-72270157D01*
X142622229Y-72250008D01*
X142521768Y-72089783D01*
X142507850Y-72072290D01*
X142374306Y-71938385D01*
X142365969Y-71930913D01*
X142089010Y-71709346D01*
X142086272Y-71707232D01*
X142003044Y-71645247D01*
X142000234Y-71643229D01*
X141041416Y-70979432D01*
X140864239Y-70834393D01*
X140715259Y-70665876D01*
X140595198Y-70475672D01*
X140507152Y-70268689D01*
X140453398Y-70050272D01*
X140435000Y-69822043D01*
X140435000Y-66820172D01*
X140434645Y-66811748D01*
X140413355Y-66559918D01*
X140410526Y-66543308D01*
X140347258Y-66298627D01*
X140341681Y-66282729D01*
X140238234Y-66052143D01*
X140230067Y-66037406D01*
X140089375Y-65827460D01*
X140084390Y-65820660D01*
X139847453Y-65524488D01*
X139841549Y-65517750D01*
X139655759Y-65323969D01*
X139642267Y-65312211D01*
X139424911Y-65154650D01*
X139409539Y-65145485D01*
X139167577Y-65029193D01*
X139150817Y-65022914D01*
X138892002Y-64951614D01*
X138874392Y-64948424D01*
X138607012Y-64924401D01*
X138598063Y-64924000D01*
X138559799Y-64924000D01*
X138502000Y-64918307D01*
X137853693Y-64918307D01*
X137853693Y-64891693D01*
X138502000Y-64891693D01*
X138570612Y-64884935D01*
X138619847Y-64870000D01*
X138651281Y-64870000D01*
X138887542Y-64889726D01*
X138887542Y-64889726D01*
G37*
X138887542Y-64889726D02*
X139113219Y-64947325D01*
X139326213Y-65041547D01*
X139520639Y-65169788D01*
X139694165Y-65331342D01*
X140122433Y-65802436D01*
X140251892Y-65967861D01*
X140353801Y-66147314D01*
X140428211Y-66339785D01*
X140473515Y-66541108D01*
X140489000Y-66750602D01*
X140489000Y-69582884D01*
X140489320Y-69590876D01*
X140508338Y-69828075D01*
X140510885Y-69843855D01*
X140567453Y-70074994D01*
X140572481Y-70090166D01*
X140665153Y-70309339D01*
X140672535Y-70323517D01*
X140798945Y-70525125D01*
X140808491Y-70537945D01*
X140965408Y-70716837D01*
X140976875Y-70727973D01*
X141160290Y-70879578D01*
X141166654Y-70884423D01*
X141659573Y-71229467D01*
X141669362Y-71235512D01*
X141972470Y-71399379D01*
X141982888Y-71404259D01*
X143649760Y-72071007D01*
X143834272Y-72166996D01*
X143992376Y-72294346D01*
X144122272Y-72450350D01*
X144218881Y-72628905D01*
X144278403Y-72822990D01*
X144298441Y-73024345D01*
X144295325Y-73052000D01*
X142724675Y-73052000D01*
X142721000Y-73019387D01*
X142721000Y-72669598D01*
X142720373Y-72658421D01*
X142699235Y-72470491D01*
X142694269Y-72448695D01*
X142631912Y-72270157D01*
X142622229Y-72250008D01*
X142521768Y-72089783D01*
X142507850Y-72072290D01*
X142374306Y-71938385D01*
X142365969Y-71930913D01*
X142089010Y-71709346D01*
X142086272Y-71707232D01*
X142003044Y-71645247D01*
X142000234Y-71643229D01*
X141041416Y-70979432D01*
X140864239Y-70834393D01*
X140715259Y-70665876D01*
X140595198Y-70475672D01*
X140507152Y-70268689D01*
X140453398Y-70050272D01*
X140435000Y-69822043D01*
X140435000Y-66820172D01*
X140434645Y-66811748D01*
X140413355Y-66559918D01*
X140410526Y-66543308D01*
X140347258Y-66298627D01*
X140341681Y-66282729D01*
X140238234Y-66052143D01*
X140230067Y-66037406D01*
X140089375Y-65827460D01*
X140084390Y-65820660D01*
X139847453Y-65524488D01*
X139841549Y-65517750D01*
X139655759Y-65323969D01*
X139642267Y-65312211D01*
X139424911Y-65154650D01*
X139409539Y-65145485D01*
X139167577Y-65029193D01*
X139150817Y-65022914D01*
X138892002Y-64951614D01*
X138874392Y-64948424D01*
X138607012Y-64924401D01*
X138598063Y-64924000D01*
X138559799Y-64924000D01*
X138502000Y-64918307D01*
X137853693Y-64918307D01*
X137853693Y-64891693D01*
X138502000Y-64891693D01*
X138570612Y-64884935D01*
X138619847Y-64870000D01*
X138651281Y-64870000D01*
X138887542Y-64889726D01*
G04 #@! TO.N,/PWM2*
G36*
X138662640Y-65395542D02*
X138876209Y-65446815D01*
X139079125Y-65530866D01*
X139266396Y-65645626D01*
X139436407Y-65790829D01*
X139568171Y-65922593D01*
X139713374Y-66092604D01*
X139828134Y-66279875D01*
X139912185Y-66482791D01*
X139963458Y-66696360D01*
X139981000Y-66919252D01*
X139981000Y-70018063D01*
X139981401Y-70027012D01*
X140005424Y-70294392D01*
X140008614Y-70312002D01*
X140079914Y-70570817D01*
X140086193Y-70587577D01*
X140202485Y-70829539D01*
X140211650Y-70844911D01*
X140369211Y-71062267D01*
X140380969Y-71075759D01*
X140574750Y-71261549D01*
X140581488Y-71267453D01*
X141154056Y-71725507D01*
X141380489Y-71951940D01*
X141524280Y-72131679D01*
X141625941Y-72283381D01*
X141698958Y-72446138D01*
X141743615Y-72618844D01*
X141759000Y-72800823D01*
X141759000Y-73052000D01*
X140181000Y-73052000D01*
X140181000Y-72729845D01*
X140189868Y-72569715D01*
X140273627Y-71815889D01*
X140274234Y-71805859D01*
X140277284Y-71504797D01*
X140275472Y-71484807D01*
X140218336Y-71189200D01*
X140215936Y-71179442D01*
X139987089Y-70416616D01*
X139942103Y-70214110D01*
X139927000Y-70007198D01*
X139927000Y-67048000D01*
X139926677Y-67039965D01*
X139907308Y-66799692D01*
X139904734Y-66783829D01*
X139896229Y-66749269D01*
X139890579Y-66717070D01*
X139860961Y-66605966D01*
X139847128Y-66549760D01*
X139842046Y-66534515D01*
X139841690Y-66533678D01*
X139829371Y-66487467D01*
X139808702Y-66430377D01*
X139708735Y-66214807D01*
X139678513Y-66162153D01*
X139542798Y-65967101D01*
X139503742Y-65920269D01*
X139373123Y-65788850D01*
X139326314Y-65749356D01*
X139174786Y-65642717D01*
X139121806Y-65611985D01*
X138954009Y-65533394D01*
X138896487Y-65512370D01*
X138717560Y-65464231D01*
X138710256Y-65462938D01*
X138691646Y-65457623D01*
X138673445Y-65454208D01*
X138649502Y-65451981D01*
X138636587Y-65445078D01*
X138570612Y-65425065D01*
X138502000Y-65418307D01*
X137853693Y-65418307D01*
X137853693Y-65391693D01*
X138502000Y-65391693D01*
X138551626Y-65386805D01*
X138662640Y-65395542D01*
X138662640Y-65395542D01*
G37*
X138662640Y-65395542D02*
X138876209Y-65446815D01*
X139079125Y-65530866D01*
X139266396Y-65645626D01*
X139436407Y-65790829D01*
X139568171Y-65922593D01*
X139713374Y-66092604D01*
X139828134Y-66279875D01*
X139912185Y-66482791D01*
X139963458Y-66696360D01*
X139981000Y-66919252D01*
X139981000Y-70018063D01*
X139981401Y-70027012D01*
X140005424Y-70294392D01*
X140008614Y-70312002D01*
X140079914Y-70570817D01*
X140086193Y-70587577D01*
X140202485Y-70829539D01*
X140211650Y-70844911D01*
X140369211Y-71062267D01*
X140380969Y-71075759D01*
X140574750Y-71261549D01*
X140581488Y-71267453D01*
X141154056Y-71725507D01*
X141380489Y-71951940D01*
X141524280Y-72131679D01*
X141625941Y-72283381D01*
X141698958Y-72446138D01*
X141743615Y-72618844D01*
X141759000Y-72800823D01*
X141759000Y-73052000D01*
X140181000Y-73052000D01*
X140181000Y-72729845D01*
X140189868Y-72569715D01*
X140273627Y-71815889D01*
X140274234Y-71805859D01*
X140277284Y-71504797D01*
X140275472Y-71484807D01*
X140218336Y-71189200D01*
X140215936Y-71179442D01*
X139987089Y-70416616D01*
X139942103Y-70214110D01*
X139927000Y-70007198D01*
X139927000Y-67048000D01*
X139926677Y-67039965D01*
X139907308Y-66799692D01*
X139904734Y-66783829D01*
X139896229Y-66749269D01*
X139890579Y-66717070D01*
X139860961Y-66605966D01*
X139847128Y-66549760D01*
X139842046Y-66534515D01*
X139841690Y-66533678D01*
X139829371Y-66487467D01*
X139808702Y-66430377D01*
X139708735Y-66214807D01*
X139678513Y-66162153D01*
X139542798Y-65967101D01*
X139503742Y-65920269D01*
X139373123Y-65788850D01*
X139326314Y-65749356D01*
X139174786Y-65642717D01*
X139121806Y-65611985D01*
X138954009Y-65533394D01*
X138896487Y-65512370D01*
X138717560Y-65464231D01*
X138710256Y-65462938D01*
X138691646Y-65457623D01*
X138673445Y-65454208D01*
X138649502Y-65451981D01*
X138636587Y-65445078D01*
X138570612Y-65425065D01*
X138502000Y-65418307D01*
X137853693Y-65418307D01*
X137853693Y-65391693D01*
X138502000Y-65391693D01*
X138551626Y-65386805D01*
X138662640Y-65395542D01*
G04 #@! TO.N,/PWM3*
G36*
X138609128Y-65901059D02*
X138771094Y-65944635D01*
X138922982Y-66015775D01*
X139060149Y-66112307D01*
X139178408Y-66231291D01*
X139304157Y-66412019D01*
X139396798Y-66611791D01*
X139453523Y-66824576D01*
X139473000Y-67048294D01*
X139473000Y-70508027D01*
X139456018Y-70727361D01*
X139406365Y-70937690D01*
X139323471Y-71141451D01*
X139293057Y-71202279D01*
X139289154Y-71211132D01*
X139190329Y-71468322D01*
X139185172Y-71486950D01*
X139137671Y-71758347D01*
X139136195Y-71777618D01*
X139141792Y-72053084D01*
X139142456Y-72062737D01*
X139209068Y-72628938D01*
X139219000Y-72798367D01*
X139219000Y-73052000D01*
X137644245Y-73052000D01*
X137670094Y-72797500D01*
X137756194Y-72522737D01*
X137884066Y-72224370D01*
X137977195Y-72043834D01*
X138092984Y-71881276D01*
X138233173Y-71734261D01*
X138895276Y-71132349D01*
X138901199Y-71126496D01*
X139071282Y-70943809D01*
X139081569Y-70930728D01*
X139219003Y-70722365D01*
X139226977Y-70707761D01*
X139327956Y-70479494D01*
X139333399Y-70463768D01*
X139395126Y-70221915D01*
X139397885Y-70205505D01*
X139418653Y-69956765D01*
X139419000Y-69948445D01*
X139419000Y-67156102D01*
X139418702Y-67148382D01*
X139400824Y-66917480D01*
X139398447Y-66902224D01*
X139345237Y-66676826D01*
X139340540Y-66662119D01*
X139253269Y-66447599D01*
X139250084Y-66440561D01*
X139217943Y-66376279D01*
X139212454Y-66366670D01*
X139129706Y-66238804D01*
X139115724Y-66221692D01*
X139006914Y-66115120D01*
X138989515Y-66101497D01*
X138859957Y-66021426D01*
X138839991Y-66011957D01*
X138696009Y-65962294D01*
X138674451Y-65957440D01*
X138655845Y-65955372D01*
X138636587Y-65945078D01*
X138570612Y-65925065D01*
X138502000Y-65918307D01*
X137853693Y-65918307D01*
X137853693Y-65891693D01*
X138502000Y-65891693D01*
X138502231Y-65891670D01*
X138609128Y-65901059D01*
X138609128Y-65901059D01*
G37*
X138609128Y-65901059D02*
X138771094Y-65944635D01*
X138922982Y-66015775D01*
X139060149Y-66112307D01*
X139178408Y-66231291D01*
X139304157Y-66412019D01*
X139396798Y-66611791D01*
X139453523Y-66824576D01*
X139473000Y-67048294D01*
X139473000Y-70508027D01*
X139456018Y-70727361D01*
X139406365Y-70937690D01*
X139323471Y-71141451D01*
X139293057Y-71202279D01*
X139289154Y-71211132D01*
X139190329Y-71468322D01*
X139185172Y-71486950D01*
X139137671Y-71758347D01*
X139136195Y-71777618D01*
X139141792Y-72053084D01*
X139142456Y-72062737D01*
X139209068Y-72628938D01*
X139219000Y-72798367D01*
X139219000Y-73052000D01*
X137644245Y-73052000D01*
X137670094Y-72797500D01*
X137756194Y-72522737D01*
X137884066Y-72224370D01*
X137977195Y-72043834D01*
X138092984Y-71881276D01*
X138233173Y-71734261D01*
X138895276Y-71132349D01*
X138901199Y-71126496D01*
X139071282Y-70943809D01*
X139081569Y-70930728D01*
X139219003Y-70722365D01*
X139226977Y-70707761D01*
X139327956Y-70479494D01*
X139333399Y-70463768D01*
X139395126Y-70221915D01*
X139397885Y-70205505D01*
X139418653Y-69956765D01*
X139419000Y-69948445D01*
X139419000Y-67156102D01*
X139418702Y-67148382D01*
X139400824Y-66917480D01*
X139398447Y-66902224D01*
X139345237Y-66676826D01*
X139340540Y-66662119D01*
X139253269Y-66447599D01*
X139250084Y-66440561D01*
X139217943Y-66376279D01*
X139212454Y-66366670D01*
X139129706Y-66238804D01*
X139115724Y-66221692D01*
X139006914Y-66115120D01*
X138989515Y-66101497D01*
X138859957Y-66021426D01*
X138839991Y-66011957D01*
X138696009Y-65962294D01*
X138674451Y-65957440D01*
X138655845Y-65955372D01*
X138636587Y-65945078D01*
X138570612Y-65925065D01*
X138502000Y-65918307D01*
X137853693Y-65918307D01*
X137853693Y-65891693D01*
X138502000Y-65891693D01*
X138502231Y-65891670D01*
X138609128Y-65901059D01*
D21*
G04 #@! TO.N,+POWER*
G36*
X140732729Y-58965851D02*
X140897256Y-59008393D01*
X141052292Y-59077946D01*
X141366231Y-59288327D01*
X141388337Y-59300577D01*
X141566523Y-59380516D01*
X141590370Y-59388882D01*
X141779446Y-59437772D01*
X141804361Y-59442015D01*
X141998962Y-59458467D01*
X142011598Y-59459000D01*
X144262358Y-59459000D01*
X144433331Y-59476513D01*
X144589870Y-59526007D01*
X144733116Y-59606203D01*
X144857131Y-59713780D01*
X144956763Y-59844266D01*
X145027869Y-59992236D01*
X145067500Y-60151554D01*
X145074040Y-60316367D01*
X145046650Y-60492480D01*
X144987288Y-60661350D01*
X144898072Y-60816530D01*
X144781999Y-60952803D01*
X144642989Y-61065569D01*
X144485706Y-61151044D01*
X144315464Y-61206340D01*
X144131115Y-61230500D01*
X142615674Y-61288786D01*
X142342735Y-61279510D01*
X142079355Y-61231906D01*
X141825590Y-61146785D01*
X141586780Y-61025934D01*
X141363456Y-60868745D01*
X141109535Y-60660991D01*
X141101357Y-60654756D01*
X140877840Y-60496143D01*
X140860300Y-60485424D01*
X140617196Y-60358858D01*
X140598356Y-60350637D01*
X140340232Y-60258496D01*
X140320444Y-60252928D01*
X140052146Y-60196943D01*
X140031784Y-60194133D01*
X139758351Y-60175353D01*
X139748073Y-60175000D01*
X139454426Y-60175000D01*
X139310026Y-60158730D01*
X139180876Y-60113538D01*
X139065016Y-60040739D01*
X138968261Y-59943984D01*
X138895462Y-59828124D01*
X138850270Y-59698974D01*
X138834949Y-59563000D01*
X138850270Y-59427026D01*
X138895462Y-59297876D01*
X138968261Y-59182016D01*
X139065016Y-59085261D01*
X139180876Y-59012462D01*
X139310026Y-58967270D01*
X139454426Y-58951000D01*
X140557071Y-58951000D01*
X140732729Y-58965851D01*
X140732729Y-58965851D01*
G37*
X140732729Y-58965851D02*
X140897256Y-59008393D01*
X141052292Y-59077946D01*
X141366231Y-59288327D01*
X141388337Y-59300577D01*
X141566523Y-59380516D01*
X141590370Y-59388882D01*
X141779446Y-59437772D01*
X141804361Y-59442015D01*
X141998962Y-59458467D01*
X142011598Y-59459000D01*
X144262358Y-59459000D01*
X144433331Y-59476513D01*
X144589870Y-59526007D01*
X144733116Y-59606203D01*
X144857131Y-59713780D01*
X144956763Y-59844266D01*
X145027869Y-59992236D01*
X145067500Y-60151554D01*
X145074040Y-60316367D01*
X145046650Y-60492480D01*
X144987288Y-60661350D01*
X144898072Y-60816530D01*
X144781999Y-60952803D01*
X144642989Y-61065569D01*
X144485706Y-61151044D01*
X144315464Y-61206340D01*
X144131115Y-61230500D01*
X142615674Y-61288786D01*
X142342735Y-61279510D01*
X142079355Y-61231906D01*
X141825590Y-61146785D01*
X141586780Y-61025934D01*
X141363456Y-60868745D01*
X141109535Y-60660991D01*
X141101357Y-60654756D01*
X140877840Y-60496143D01*
X140860300Y-60485424D01*
X140617196Y-60358858D01*
X140598356Y-60350637D01*
X140340232Y-60258496D01*
X140320444Y-60252928D01*
X140052146Y-60196943D01*
X140031784Y-60194133D01*
X139758351Y-60175353D01*
X139748073Y-60175000D01*
X139454426Y-60175000D01*
X139310026Y-60158730D01*
X139180876Y-60113538D01*
X139065016Y-60040739D01*
X138968261Y-59943984D01*
X138895462Y-59828124D01*
X138850270Y-59698974D01*
X138834949Y-59563000D01*
X138850270Y-59427026D01*
X138895462Y-59297876D01*
X138968261Y-59182016D01*
X139065016Y-59085261D01*
X139180876Y-59012462D01*
X139310026Y-58967270D01*
X139454426Y-58951000D01*
X140557071Y-58951000D01*
X140732729Y-58965851D01*
D22*
G04 #@! TO.N,Net-(R2-Pad1)*
G36*
X135615986Y-60313180D02*
X135647820Y-60345014D01*
X135659472Y-60388500D01*
X135647820Y-60431986D01*
X135615986Y-60463820D01*
X135559333Y-60479000D01*
X135445500Y-60479000D01*
X135434795Y-60479575D01*
X135232047Y-60501404D01*
X135211129Y-60505961D01*
X135017673Y-60570446D01*
X134998204Y-60579351D01*
X134822908Y-60683537D01*
X134814000Y-60689500D01*
X133702850Y-61522863D01*
X133562187Y-61596563D01*
X133397482Y-61623291D01*
X133395152Y-61623698D01*
X133283962Y-61644451D01*
X133265137Y-61649919D01*
X133249736Y-61657688D01*
X133153520Y-61717154D01*
X133137935Y-61729046D01*
X133126375Y-61741846D01*
X133058087Y-61832015D01*
X133048363Y-61847667D01*
X133006557Y-61931279D01*
X133003372Y-61938317D01*
X132933382Y-62110357D01*
X132928685Y-62125065D01*
X132886013Y-62305828D01*
X132883636Y-62321083D01*
X132869298Y-62506261D01*
X132869000Y-62513981D01*
X132869000Y-62541698D01*
X132854031Y-62670261D01*
X132811913Y-62786459D01*
X132744229Y-62889866D01*
X132650356Y-62978983D01*
X132559750Y-63046938D01*
X132550900Y-63054414D01*
X132404432Y-63193462D01*
X132389612Y-63211220D01*
X132279008Y-63380199D01*
X132268663Y-63400888D01*
X132199842Y-63590759D01*
X132194528Y-63613271D01*
X132171171Y-63813874D01*
X132170500Y-63825439D01*
X132170500Y-66320024D01*
X132171456Y-66333819D01*
X132193317Y-66490773D01*
X132200857Y-66517314D01*
X132264777Y-66662321D01*
X132279282Y-66685790D01*
X132380394Y-66807810D01*
X132400760Y-66826423D01*
X132531367Y-66916168D01*
X132550317Y-66926378D01*
X132765367Y-67013865D01*
X132780075Y-67018562D01*
X133006029Y-67071902D01*
X133021284Y-67074279D01*
X133252756Y-67092202D01*
X133260476Y-67092500D01*
X133350000Y-67092500D01*
X133361212Y-67091869D01*
X133566555Y-67068700D01*
X133588415Y-67063704D01*
X133783433Y-66995363D01*
X133803629Y-66985622D01*
X133978517Y-66875545D01*
X133996036Y-66861547D01*
X134141999Y-66715268D01*
X134144348Y-66712632D01*
X134281674Y-66575009D01*
X134438156Y-66476517D01*
X134612659Y-66415365D01*
X134802013Y-66394000D01*
X135450307Y-66394000D01*
X135450307Y-66418307D01*
X134802000Y-66418307D01*
X134733388Y-66425065D01*
X134667413Y-66445078D01*
X134614384Y-66473422D01*
X134604878Y-66475749D01*
X134438072Y-66538540D01*
X134416834Y-66549598D01*
X134269737Y-66650242D01*
X134251736Y-66666031D01*
X134132781Y-66798758D01*
X134132366Y-66799225D01*
X134020758Y-66925329D01*
X133892889Y-67016381D01*
X133747774Y-67076242D01*
X133587238Y-67102764D01*
X133165296Y-67123861D01*
X132964238Y-67115410D01*
X132772624Y-67071369D01*
X132592301Y-66993027D01*
X132430123Y-66883553D01*
X132297955Y-66748454D01*
X132199155Y-66588446D01*
X132137878Y-66410652D01*
X132116500Y-66218207D01*
X132116500Y-63683745D01*
X132137827Y-63503465D01*
X132198572Y-63338718D01*
X132296085Y-63192685D01*
X132579921Y-62930089D01*
X132595174Y-62912217D01*
X132705824Y-62746510D01*
X132716485Y-62725573D01*
X132785417Y-62538623D01*
X132790900Y-62515776D01*
X132814308Y-62317901D01*
X132815000Y-62306153D01*
X132815000Y-61793371D01*
X132833046Y-61679429D01*
X132881802Y-61583741D01*
X132957741Y-61507802D01*
X133053429Y-61459046D01*
X133171617Y-61440327D01*
X133380489Y-61422380D01*
X133397361Y-61419459D01*
X133603561Y-61365234D01*
X133619686Y-61359478D01*
X133813613Y-61270872D01*
X133828520Y-61262449D01*
X134004489Y-61142059D01*
X134011348Y-61136922D01*
X134766130Y-60519373D01*
X134906325Y-60423458D01*
X135056920Y-60354650D01*
X135217041Y-60312543D01*
X135386290Y-60298000D01*
X135559333Y-60298000D01*
X135615986Y-60313180D01*
X135615986Y-60313180D01*
G37*
X135615986Y-60313180D02*
X135647820Y-60345014D01*
X135659472Y-60388500D01*
X135647820Y-60431986D01*
X135615986Y-60463820D01*
X135559333Y-60479000D01*
X135445500Y-60479000D01*
X135434795Y-60479575D01*
X135232047Y-60501404D01*
X135211129Y-60505961D01*
X135017673Y-60570446D01*
X134998204Y-60579351D01*
X134822908Y-60683537D01*
X134814000Y-60689500D01*
X133702850Y-61522863D01*
X133562187Y-61596563D01*
X133397482Y-61623291D01*
X133395152Y-61623698D01*
X133283962Y-61644451D01*
X133265137Y-61649919D01*
X133249736Y-61657688D01*
X133153520Y-61717154D01*
X133137935Y-61729046D01*
X133126375Y-61741846D01*
X133058087Y-61832015D01*
X133048363Y-61847667D01*
X133006557Y-61931279D01*
X133003372Y-61938317D01*
X132933382Y-62110357D01*
X132928685Y-62125065D01*
X132886013Y-62305828D01*
X132883636Y-62321083D01*
X132869298Y-62506261D01*
X132869000Y-62513981D01*
X132869000Y-62541698D01*
X132854031Y-62670261D01*
X132811913Y-62786459D01*
X132744229Y-62889866D01*
X132650356Y-62978983D01*
X132559750Y-63046938D01*
X132550900Y-63054414D01*
X132404432Y-63193462D01*
X132389612Y-63211220D01*
X132279008Y-63380199D01*
X132268663Y-63400888D01*
X132199842Y-63590759D01*
X132194528Y-63613271D01*
X132171171Y-63813874D01*
X132170500Y-63825439D01*
X132170500Y-66320024D01*
X132171456Y-66333819D01*
X132193317Y-66490773D01*
X132200857Y-66517314D01*
X132264777Y-66662321D01*
X132279282Y-66685790D01*
X132380394Y-66807810D01*
X132400760Y-66826423D01*
X132531367Y-66916168D01*
X132550317Y-66926378D01*
X132765367Y-67013865D01*
X132780075Y-67018562D01*
X133006029Y-67071902D01*
X133021284Y-67074279D01*
X133252756Y-67092202D01*
X133260476Y-67092500D01*
X133350000Y-67092500D01*
X133361212Y-67091869D01*
X133566555Y-67068700D01*
X133588415Y-67063704D01*
X133783433Y-66995363D01*
X133803629Y-66985622D01*
X133978517Y-66875545D01*
X133996036Y-66861547D01*
X134141999Y-66715268D01*
X134144348Y-66712632D01*
X134281674Y-66575009D01*
X134438156Y-66476517D01*
X134612659Y-66415365D01*
X134802013Y-66394000D01*
X135450307Y-66394000D01*
X135450307Y-66418307D01*
X134802000Y-66418307D01*
X134733388Y-66425065D01*
X134667413Y-66445078D01*
X134614384Y-66473422D01*
X134604878Y-66475749D01*
X134438072Y-66538540D01*
X134416834Y-66549598D01*
X134269737Y-66650242D01*
X134251736Y-66666031D01*
X134132781Y-66798758D01*
X134132366Y-66799225D01*
X134020758Y-66925329D01*
X133892889Y-67016381D01*
X133747774Y-67076242D01*
X133587238Y-67102764D01*
X133165296Y-67123861D01*
X132964238Y-67115410D01*
X132772624Y-67071369D01*
X132592301Y-66993027D01*
X132430123Y-66883553D01*
X132297955Y-66748454D01*
X132199155Y-66588446D01*
X132137878Y-66410652D01*
X132116500Y-66218207D01*
X132116500Y-63683745D01*
X132137827Y-63503465D01*
X132198572Y-63338718D01*
X132296085Y-63192685D01*
X132579921Y-62930089D01*
X132595174Y-62912217D01*
X132705824Y-62746510D01*
X132716485Y-62725573D01*
X132785417Y-62538623D01*
X132790900Y-62515776D01*
X132814308Y-62317901D01*
X132815000Y-62306153D01*
X132815000Y-61793371D01*
X132833046Y-61679429D01*
X132881802Y-61583741D01*
X132957741Y-61507802D01*
X133053429Y-61459046D01*
X133171617Y-61440327D01*
X133380489Y-61422380D01*
X133397361Y-61419459D01*
X133603561Y-61365234D01*
X133619686Y-61359478D01*
X133813613Y-61270872D01*
X133828520Y-61262449D01*
X134004489Y-61142059D01*
X134011348Y-61136922D01*
X134766130Y-60519373D01*
X134906325Y-60423458D01*
X135056920Y-60354650D01*
X135217041Y-60312543D01*
X135386290Y-60298000D01*
X135559333Y-60298000D01*
X135615986Y-60313180D01*
G04 #@! TO.N,Net-(R1-Pad1)*
G36*
X136901889Y-59238378D02*
X137054531Y-59294843D01*
X137189798Y-59385514D01*
X137265790Y-59467730D01*
X137320875Y-59565316D01*
X137352027Y-59672956D01*
X137357864Y-59790711D01*
X137323507Y-60306057D01*
X137314415Y-60333745D01*
X137302632Y-60344769D01*
X137287572Y-60348626D01*
X137275266Y-60345329D01*
X137266671Y-60336734D01*
X137260000Y-60311837D01*
X137260000Y-59748133D01*
X137258529Y-59731044D01*
X137239432Y-59620935D01*
X137234205Y-59602042D01*
X137227923Y-59588754D01*
X137172862Y-59491506D01*
X137161578Y-59475476D01*
X137151188Y-59465080D01*
X137066596Y-59392054D01*
X137050573Y-59380760D01*
X137040680Y-59375852D01*
X136875212Y-59304855D01*
X136849252Y-59297664D01*
X136670837Y-59273411D01*
X136657367Y-59272500D01*
X134811821Y-59272500D01*
X134802750Y-59272912D01*
X134621079Y-59289459D01*
X134603237Y-59292737D01*
X134427544Y-59341833D01*
X134410587Y-59348280D01*
X134246656Y-59428309D01*
X134231143Y-59437713D01*
X133944918Y-59648961D01*
X133797358Y-59720998D01*
X133639212Y-59765191D01*
X133471131Y-59780500D01*
X133013916Y-59780500D01*
X132973139Y-59769574D01*
X132952926Y-59749361D01*
X132945528Y-59721750D01*
X132952926Y-59694139D01*
X132973139Y-59673926D01*
X133013916Y-59663000D01*
X133432494Y-59663000D01*
X133443489Y-59662394D01*
X133674097Y-59636884D01*
X133695556Y-59632077D01*
X133915012Y-59556780D01*
X133934901Y-59547400D01*
X134320860Y-59310304D01*
X134519386Y-59242188D01*
X134733523Y-59218500D01*
X136734370Y-59218500D01*
X136901889Y-59238378D01*
X136901889Y-59238378D01*
G37*
X136901889Y-59238378D02*
X137054531Y-59294843D01*
X137189798Y-59385514D01*
X137265790Y-59467730D01*
X137320875Y-59565316D01*
X137352027Y-59672956D01*
X137357864Y-59790711D01*
X137323507Y-60306057D01*
X137314415Y-60333745D01*
X137302632Y-60344769D01*
X137287572Y-60348626D01*
X137275266Y-60345329D01*
X137266671Y-60336734D01*
X137260000Y-60311837D01*
X137260000Y-59748133D01*
X137258529Y-59731044D01*
X137239432Y-59620935D01*
X137234205Y-59602042D01*
X137227923Y-59588754D01*
X137172862Y-59491506D01*
X137161578Y-59475476D01*
X137151188Y-59465080D01*
X137066596Y-59392054D01*
X137050573Y-59380760D01*
X137040680Y-59375852D01*
X136875212Y-59304855D01*
X136849252Y-59297664D01*
X136670837Y-59273411D01*
X136657367Y-59272500D01*
X134811821Y-59272500D01*
X134802750Y-59272912D01*
X134621079Y-59289459D01*
X134603237Y-59292737D01*
X134427544Y-59341833D01*
X134410587Y-59348280D01*
X134246656Y-59428309D01*
X134231143Y-59437713D01*
X133944918Y-59648961D01*
X133797358Y-59720998D01*
X133639212Y-59765191D01*
X133471131Y-59780500D01*
X133013916Y-59780500D01*
X132973139Y-59769574D01*
X132952926Y-59749361D01*
X132945528Y-59721750D01*
X132952926Y-59694139D01*
X132973139Y-59673926D01*
X133013916Y-59663000D01*
X133432494Y-59663000D01*
X133443489Y-59662394D01*
X133674097Y-59636884D01*
X133695556Y-59632077D01*
X133915012Y-59556780D01*
X133934901Y-59547400D01*
X134320860Y-59310304D01*
X134519386Y-59242188D01*
X134733523Y-59218500D01*
X136734370Y-59218500D01*
X136901889Y-59238378D01*
G04 #@! TD*
M02*
