G04 #@! TF.GenerationSoftware,KiCad,Pcbnew,(5.0.1-3-g963ef8bb5)*
G04 #@! TF.CreationDate,2018-11-23T17:17:20+10:30*
G04 #@! TF.ProjectId,rgb-led-board,7267622D6C65642D626F6172642E6B69,1.0*
G04 #@! TF.SameCoordinates,Original*
G04 #@! TF.FileFunction,Paste,Top*
G04 #@! TF.FilePolarity,Positive*
%FSLAX46Y46*%
G04 Gerber Fmt 4.6, Leading zero omitted, Abs format (unit mm)*
G04 Created by KiCad (PCBNEW (5.0.1-3-g963ef8bb5)) date Friday, 23 November 2018 at 05:17:20 pm*
%MOMM*%
%LPD*%
G01*
G04 APERTURE LIST*
%ADD10C,0.100000*%
%ADD11C,1.160000*%
%ADD12C,0.850000*%
%ADD13R,0.810000X0.270000*%
%ADD14R,1.700000X3.300000*%
%ADD15C,2.000000*%
G04 APERTURE END LIST*
D10*
G04 #@! TO.C,C1*
G36*
X131146425Y-66301396D02*
X131174576Y-66305572D01*
X131202183Y-66312487D01*
X131228978Y-66322075D01*
X131254705Y-66334243D01*
X131279115Y-66348874D01*
X131301974Y-66365827D01*
X131323061Y-66384939D01*
X131342173Y-66406026D01*
X131359126Y-66428885D01*
X131373757Y-66453295D01*
X131385925Y-66479022D01*
X131395513Y-66505817D01*
X131402428Y-66533424D01*
X131406604Y-66561575D01*
X131408000Y-66590000D01*
X131408000Y-67170000D01*
X131406604Y-67198425D01*
X131402428Y-67226576D01*
X131395513Y-67254183D01*
X131385925Y-67280978D01*
X131373757Y-67306705D01*
X131359126Y-67331115D01*
X131342173Y-67353974D01*
X131323061Y-67375061D01*
X131301974Y-67394173D01*
X131279115Y-67411126D01*
X131254705Y-67425757D01*
X131228978Y-67437925D01*
X131202183Y-67447513D01*
X131174576Y-67454428D01*
X131146425Y-67458604D01*
X131118000Y-67460000D01*
X128978000Y-67460000D01*
X128949575Y-67458604D01*
X128921424Y-67454428D01*
X128893817Y-67447513D01*
X128867022Y-67437925D01*
X128841295Y-67425757D01*
X128816885Y-67411126D01*
X128794026Y-67394173D01*
X128772939Y-67375061D01*
X128753827Y-67353974D01*
X128736874Y-67331115D01*
X128722243Y-67306705D01*
X128710075Y-67280978D01*
X128700487Y-67254183D01*
X128693572Y-67226576D01*
X128689396Y-67198425D01*
X128688000Y-67170000D01*
X128688000Y-66590000D01*
X128689396Y-66561575D01*
X128693572Y-66533424D01*
X128700487Y-66505817D01*
X128710075Y-66479022D01*
X128722243Y-66453295D01*
X128736874Y-66428885D01*
X128753827Y-66406026D01*
X128772939Y-66384939D01*
X128794026Y-66365827D01*
X128816885Y-66348874D01*
X128841295Y-66334243D01*
X128867022Y-66322075D01*
X128893817Y-66312487D01*
X128921424Y-66305572D01*
X128949575Y-66301396D01*
X128978000Y-66300000D01*
X131118000Y-66300000D01*
X131146425Y-66301396D01*
X131146425Y-66301396D01*
G37*
D11*
X130048000Y-66880000D03*
D10*
G36*
X131146425Y-63351396D02*
X131174576Y-63355572D01*
X131202183Y-63362487D01*
X131228978Y-63372075D01*
X131254705Y-63384243D01*
X131279115Y-63398874D01*
X131301974Y-63415827D01*
X131323061Y-63434939D01*
X131342173Y-63456026D01*
X131359126Y-63478885D01*
X131373757Y-63503295D01*
X131385925Y-63529022D01*
X131395513Y-63555817D01*
X131402428Y-63583424D01*
X131406604Y-63611575D01*
X131408000Y-63640000D01*
X131408000Y-64220000D01*
X131406604Y-64248425D01*
X131402428Y-64276576D01*
X131395513Y-64304183D01*
X131385925Y-64330978D01*
X131373757Y-64356705D01*
X131359126Y-64381115D01*
X131342173Y-64403974D01*
X131323061Y-64425061D01*
X131301974Y-64444173D01*
X131279115Y-64461126D01*
X131254705Y-64475757D01*
X131228978Y-64487925D01*
X131202183Y-64497513D01*
X131174576Y-64504428D01*
X131146425Y-64508604D01*
X131118000Y-64510000D01*
X128978000Y-64510000D01*
X128949575Y-64508604D01*
X128921424Y-64504428D01*
X128893817Y-64497513D01*
X128867022Y-64487925D01*
X128841295Y-64475757D01*
X128816885Y-64461126D01*
X128794026Y-64444173D01*
X128772939Y-64425061D01*
X128753827Y-64403974D01*
X128736874Y-64381115D01*
X128722243Y-64356705D01*
X128710075Y-64330978D01*
X128700487Y-64304183D01*
X128693572Y-64276576D01*
X128689396Y-64248425D01*
X128688000Y-64220000D01*
X128688000Y-63640000D01*
X128689396Y-63611575D01*
X128693572Y-63583424D01*
X128700487Y-63555817D01*
X128710075Y-63529022D01*
X128722243Y-63503295D01*
X128736874Y-63478885D01*
X128753827Y-63456026D01*
X128772939Y-63434939D01*
X128794026Y-63415827D01*
X128816885Y-63398874D01*
X128841295Y-63384243D01*
X128867022Y-63372075D01*
X128893817Y-63362487D01*
X128921424Y-63355572D01*
X128949575Y-63351396D01*
X128978000Y-63350000D01*
X131118000Y-63350000D01*
X131146425Y-63351396D01*
X131146425Y-63351396D01*
G37*
D11*
X130048000Y-63930000D03*
G04 #@! TD*
D10*
G04 #@! TO.C,R1*
G36*
X131538329Y-59201023D02*
X131558957Y-59204083D01*
X131579185Y-59209150D01*
X131598820Y-59216176D01*
X131617672Y-59225092D01*
X131635559Y-59235813D01*
X131652309Y-59248235D01*
X131667760Y-59262240D01*
X131681765Y-59277691D01*
X131694187Y-59294441D01*
X131704908Y-59312328D01*
X131713824Y-59331180D01*
X131720850Y-59350815D01*
X131725917Y-59371043D01*
X131728977Y-59391671D01*
X131730000Y-59412500D01*
X131730000Y-59967500D01*
X131728977Y-59988329D01*
X131725917Y-60008957D01*
X131720850Y-60029185D01*
X131713824Y-60048820D01*
X131704908Y-60067672D01*
X131694187Y-60085559D01*
X131681765Y-60102309D01*
X131667760Y-60117760D01*
X131652309Y-60131765D01*
X131635559Y-60144187D01*
X131617672Y-60154908D01*
X131598820Y-60163824D01*
X131579185Y-60170850D01*
X131558957Y-60175917D01*
X131538329Y-60178977D01*
X131517500Y-60180000D01*
X131092500Y-60180000D01*
X131071671Y-60178977D01*
X131051043Y-60175917D01*
X131030815Y-60170850D01*
X131011180Y-60163824D01*
X130992328Y-60154908D01*
X130974441Y-60144187D01*
X130957691Y-60131765D01*
X130942240Y-60117760D01*
X130928235Y-60102309D01*
X130915813Y-60085559D01*
X130905092Y-60067672D01*
X130896176Y-60048820D01*
X130889150Y-60029185D01*
X130884083Y-60008957D01*
X130881023Y-59988329D01*
X130880000Y-59967500D01*
X130880000Y-59412500D01*
X130881023Y-59391671D01*
X130884083Y-59371043D01*
X130889150Y-59350815D01*
X130896176Y-59331180D01*
X130905092Y-59312328D01*
X130915813Y-59294441D01*
X130928235Y-59277691D01*
X130942240Y-59262240D01*
X130957691Y-59248235D01*
X130974441Y-59235813D01*
X130992328Y-59225092D01*
X131011180Y-59216176D01*
X131030815Y-59209150D01*
X131051043Y-59204083D01*
X131071671Y-59201023D01*
X131092500Y-59200000D01*
X131517500Y-59200000D01*
X131538329Y-59201023D01*
X131538329Y-59201023D01*
G37*
D12*
X131305000Y-59690000D03*
D10*
G36*
X133088329Y-59201023D02*
X133108957Y-59204083D01*
X133129185Y-59209150D01*
X133148820Y-59216176D01*
X133167672Y-59225092D01*
X133185559Y-59235813D01*
X133202309Y-59248235D01*
X133217760Y-59262240D01*
X133231765Y-59277691D01*
X133244187Y-59294441D01*
X133254908Y-59312328D01*
X133263824Y-59331180D01*
X133270850Y-59350815D01*
X133275917Y-59371043D01*
X133278977Y-59391671D01*
X133280000Y-59412500D01*
X133280000Y-59967500D01*
X133278977Y-59988329D01*
X133275917Y-60008957D01*
X133270850Y-60029185D01*
X133263824Y-60048820D01*
X133254908Y-60067672D01*
X133244187Y-60085559D01*
X133231765Y-60102309D01*
X133217760Y-60117760D01*
X133202309Y-60131765D01*
X133185559Y-60144187D01*
X133167672Y-60154908D01*
X133148820Y-60163824D01*
X133129185Y-60170850D01*
X133108957Y-60175917D01*
X133088329Y-60178977D01*
X133067500Y-60180000D01*
X132642500Y-60180000D01*
X132621671Y-60178977D01*
X132601043Y-60175917D01*
X132580815Y-60170850D01*
X132561180Y-60163824D01*
X132542328Y-60154908D01*
X132524441Y-60144187D01*
X132507691Y-60131765D01*
X132492240Y-60117760D01*
X132478235Y-60102309D01*
X132465813Y-60085559D01*
X132455092Y-60067672D01*
X132446176Y-60048820D01*
X132439150Y-60029185D01*
X132434083Y-60008957D01*
X132431023Y-59988329D01*
X132430000Y-59967500D01*
X132430000Y-59412500D01*
X132431023Y-59391671D01*
X132434083Y-59371043D01*
X132439150Y-59350815D01*
X132446176Y-59331180D01*
X132455092Y-59312328D01*
X132465813Y-59294441D01*
X132478235Y-59277691D01*
X132492240Y-59262240D01*
X132507691Y-59248235D01*
X132524441Y-59235813D01*
X132542328Y-59225092D01*
X132561180Y-59216176D01*
X132580815Y-59209150D01*
X132601043Y-59204083D01*
X132621671Y-59201023D01*
X132642500Y-59200000D01*
X133067500Y-59200000D01*
X133088329Y-59201023D01*
X133088329Y-59201023D01*
G37*
D12*
X132855000Y-59690000D03*
G04 #@! TD*
D10*
G04 #@! TO.C,R2*
G36*
X133088329Y-61106023D02*
X133108957Y-61109083D01*
X133129185Y-61114150D01*
X133148820Y-61121176D01*
X133167672Y-61130092D01*
X133185559Y-61140813D01*
X133202309Y-61153235D01*
X133217760Y-61167240D01*
X133231765Y-61182691D01*
X133244187Y-61199441D01*
X133254908Y-61217328D01*
X133263824Y-61236180D01*
X133270850Y-61255815D01*
X133275917Y-61276043D01*
X133278977Y-61296671D01*
X133280000Y-61317500D01*
X133280000Y-61872500D01*
X133278977Y-61893329D01*
X133275917Y-61913957D01*
X133270850Y-61934185D01*
X133263824Y-61953820D01*
X133254908Y-61972672D01*
X133244187Y-61990559D01*
X133231765Y-62007309D01*
X133217760Y-62022760D01*
X133202309Y-62036765D01*
X133185559Y-62049187D01*
X133167672Y-62059908D01*
X133148820Y-62068824D01*
X133129185Y-62075850D01*
X133108957Y-62080917D01*
X133088329Y-62083977D01*
X133067500Y-62085000D01*
X132642500Y-62085000D01*
X132621671Y-62083977D01*
X132601043Y-62080917D01*
X132580815Y-62075850D01*
X132561180Y-62068824D01*
X132542328Y-62059908D01*
X132524441Y-62049187D01*
X132507691Y-62036765D01*
X132492240Y-62022760D01*
X132478235Y-62007309D01*
X132465813Y-61990559D01*
X132455092Y-61972672D01*
X132446176Y-61953820D01*
X132439150Y-61934185D01*
X132434083Y-61913957D01*
X132431023Y-61893329D01*
X132430000Y-61872500D01*
X132430000Y-61317500D01*
X132431023Y-61296671D01*
X132434083Y-61276043D01*
X132439150Y-61255815D01*
X132446176Y-61236180D01*
X132455092Y-61217328D01*
X132465813Y-61199441D01*
X132478235Y-61182691D01*
X132492240Y-61167240D01*
X132507691Y-61153235D01*
X132524441Y-61140813D01*
X132542328Y-61130092D01*
X132561180Y-61121176D01*
X132580815Y-61114150D01*
X132601043Y-61109083D01*
X132621671Y-61106023D01*
X132642500Y-61105000D01*
X133067500Y-61105000D01*
X133088329Y-61106023D01*
X133088329Y-61106023D01*
G37*
D12*
X132855000Y-61595000D03*
D10*
G36*
X131538329Y-61106023D02*
X131558957Y-61109083D01*
X131579185Y-61114150D01*
X131598820Y-61121176D01*
X131617672Y-61130092D01*
X131635559Y-61140813D01*
X131652309Y-61153235D01*
X131667760Y-61167240D01*
X131681765Y-61182691D01*
X131694187Y-61199441D01*
X131704908Y-61217328D01*
X131713824Y-61236180D01*
X131720850Y-61255815D01*
X131725917Y-61276043D01*
X131728977Y-61296671D01*
X131730000Y-61317500D01*
X131730000Y-61872500D01*
X131728977Y-61893329D01*
X131725917Y-61913957D01*
X131720850Y-61934185D01*
X131713824Y-61953820D01*
X131704908Y-61972672D01*
X131694187Y-61990559D01*
X131681765Y-62007309D01*
X131667760Y-62022760D01*
X131652309Y-62036765D01*
X131635559Y-62049187D01*
X131617672Y-62059908D01*
X131598820Y-62068824D01*
X131579185Y-62075850D01*
X131558957Y-62080917D01*
X131538329Y-62083977D01*
X131517500Y-62085000D01*
X131092500Y-62085000D01*
X131071671Y-62083977D01*
X131051043Y-62080917D01*
X131030815Y-62075850D01*
X131011180Y-62068824D01*
X130992328Y-62059908D01*
X130974441Y-62049187D01*
X130957691Y-62036765D01*
X130942240Y-62022760D01*
X130928235Y-62007309D01*
X130915813Y-61990559D01*
X130905092Y-61972672D01*
X130896176Y-61953820D01*
X130889150Y-61934185D01*
X130884083Y-61913957D01*
X130881023Y-61893329D01*
X130880000Y-61872500D01*
X130880000Y-61317500D01*
X130881023Y-61296671D01*
X130884083Y-61276043D01*
X130889150Y-61255815D01*
X130896176Y-61236180D01*
X130905092Y-61217328D01*
X130915813Y-61199441D01*
X130928235Y-61182691D01*
X130942240Y-61167240D01*
X130957691Y-61153235D01*
X130974441Y-61140813D01*
X130992328Y-61130092D01*
X131011180Y-61121176D01*
X131030815Y-61114150D01*
X131051043Y-61109083D01*
X131071671Y-61106023D01*
X131092500Y-61105000D01*
X131517500Y-61105000D01*
X131538329Y-61106023D01*
X131538329Y-61106023D01*
G37*
D12*
X131305000Y-61595000D03*
G04 #@! TD*
D13*
G04 #@! TO.C,U1*
X138097000Y-66905000D03*
X138097000Y-66405000D03*
X138097000Y-65905000D03*
X138097000Y-65405000D03*
X138097000Y-64905000D03*
X138097000Y-64405000D03*
X138097000Y-63905000D03*
X135207000Y-63905000D03*
X135207000Y-64405000D03*
X135207000Y-64905000D03*
X135207000Y-65405000D03*
X135207000Y-65905000D03*
X135207000Y-66405000D03*
X135207000Y-66905000D03*
D14*
X136652000Y-65405000D03*
G04 #@! TD*
D10*
G04 #@! TO.C,P1*
G36*
X126644009Y-66947408D02*
X126692545Y-66954607D01*
X126740142Y-66966530D01*
X126786342Y-66983060D01*
X126830698Y-67004039D01*
X126872785Y-67029265D01*
X126912197Y-67058495D01*
X126948553Y-67091447D01*
X126981505Y-67127803D01*
X127010735Y-67167215D01*
X127035961Y-67209302D01*
X127056940Y-67253658D01*
X127073470Y-67299858D01*
X127085393Y-67347455D01*
X127092592Y-67395991D01*
X127095000Y-67445000D01*
X127095000Y-68445000D01*
X127092592Y-68494009D01*
X127085393Y-68542545D01*
X127073470Y-68590142D01*
X127056940Y-68636342D01*
X127035961Y-68680698D01*
X127010735Y-68722785D01*
X126981505Y-68762197D01*
X126948553Y-68798553D01*
X126912197Y-68831505D01*
X126872785Y-68860735D01*
X126830698Y-68885961D01*
X126786342Y-68906940D01*
X126740142Y-68923470D01*
X126692545Y-68935393D01*
X126644009Y-68942592D01*
X126595000Y-68945000D01*
X123595000Y-68945000D01*
X123545991Y-68942592D01*
X123497455Y-68935393D01*
X123449858Y-68923470D01*
X123403658Y-68906940D01*
X123359302Y-68885961D01*
X123317215Y-68860735D01*
X123277803Y-68831505D01*
X123241447Y-68798553D01*
X123208495Y-68762197D01*
X123179265Y-68722785D01*
X123154039Y-68680698D01*
X123133060Y-68636342D01*
X123116530Y-68590142D01*
X123104607Y-68542545D01*
X123097408Y-68494009D01*
X123095000Y-68445000D01*
X123095000Y-67445000D01*
X123097408Y-67395991D01*
X123104607Y-67347455D01*
X123116530Y-67299858D01*
X123133060Y-67253658D01*
X123154039Y-67209302D01*
X123179265Y-67167215D01*
X123208495Y-67127803D01*
X123241447Y-67091447D01*
X123277803Y-67058495D01*
X123317215Y-67029265D01*
X123359302Y-67004039D01*
X123403658Y-66983060D01*
X123449858Y-66966530D01*
X123497455Y-66954607D01*
X123545991Y-66947408D01*
X123595000Y-66945000D01*
X126595000Y-66945000D01*
X126644009Y-66947408D01*
X126644009Y-66947408D01*
G37*
D15*
X125095000Y-67945000D03*
G04 #@! TD*
D10*
G04 #@! TO.C,P2*
G36*
X126644009Y-61232408D02*
X126692545Y-61239607D01*
X126740142Y-61251530D01*
X126786342Y-61268060D01*
X126830698Y-61289039D01*
X126872785Y-61314265D01*
X126912197Y-61343495D01*
X126948553Y-61376447D01*
X126981505Y-61412803D01*
X127010735Y-61452215D01*
X127035961Y-61494302D01*
X127056940Y-61538658D01*
X127073470Y-61584858D01*
X127085393Y-61632455D01*
X127092592Y-61680991D01*
X127095000Y-61730000D01*
X127095000Y-62730000D01*
X127092592Y-62779009D01*
X127085393Y-62827545D01*
X127073470Y-62875142D01*
X127056940Y-62921342D01*
X127035961Y-62965698D01*
X127010735Y-63007785D01*
X126981505Y-63047197D01*
X126948553Y-63083553D01*
X126912197Y-63116505D01*
X126872785Y-63145735D01*
X126830698Y-63170961D01*
X126786342Y-63191940D01*
X126740142Y-63208470D01*
X126692545Y-63220393D01*
X126644009Y-63227592D01*
X126595000Y-63230000D01*
X123595000Y-63230000D01*
X123545991Y-63227592D01*
X123497455Y-63220393D01*
X123449858Y-63208470D01*
X123403658Y-63191940D01*
X123359302Y-63170961D01*
X123317215Y-63145735D01*
X123277803Y-63116505D01*
X123241447Y-63083553D01*
X123208495Y-63047197D01*
X123179265Y-63007785D01*
X123154039Y-62965698D01*
X123133060Y-62921342D01*
X123116530Y-62875142D01*
X123104607Y-62827545D01*
X123097408Y-62779009D01*
X123095000Y-62730000D01*
X123095000Y-61730000D01*
X123097408Y-61680991D01*
X123104607Y-61632455D01*
X123116530Y-61584858D01*
X123133060Y-61538658D01*
X123154039Y-61494302D01*
X123179265Y-61452215D01*
X123208495Y-61412803D01*
X123241447Y-61376447D01*
X123277803Y-61343495D01*
X123317215Y-61314265D01*
X123359302Y-61289039D01*
X123403658Y-61268060D01*
X123449858Y-61251530D01*
X123497455Y-61239607D01*
X123545991Y-61232408D01*
X123595000Y-61230000D01*
X126595000Y-61230000D01*
X126644009Y-61232408D01*
X126644009Y-61232408D01*
G37*
D15*
X125095000Y-62230000D03*
G04 #@! TD*
D10*
G04 #@! TO.C,P4*
G36*
X145694009Y-59327408D02*
X145742545Y-59334607D01*
X145790142Y-59346530D01*
X145836342Y-59363060D01*
X145880698Y-59384039D01*
X145922785Y-59409265D01*
X145962197Y-59438495D01*
X145998553Y-59471447D01*
X146031505Y-59507803D01*
X146060735Y-59547215D01*
X146085961Y-59589302D01*
X146106940Y-59633658D01*
X146123470Y-59679858D01*
X146135393Y-59727455D01*
X146142592Y-59775991D01*
X146145000Y-59825000D01*
X146145000Y-60825000D01*
X146142592Y-60874009D01*
X146135393Y-60922545D01*
X146123470Y-60970142D01*
X146106940Y-61016342D01*
X146085961Y-61060698D01*
X146060735Y-61102785D01*
X146031505Y-61142197D01*
X145998553Y-61178553D01*
X145962197Y-61211505D01*
X145922785Y-61240735D01*
X145880698Y-61265961D01*
X145836342Y-61286940D01*
X145790142Y-61303470D01*
X145742545Y-61315393D01*
X145694009Y-61322592D01*
X145645000Y-61325000D01*
X142645000Y-61325000D01*
X142595991Y-61322592D01*
X142547455Y-61315393D01*
X142499858Y-61303470D01*
X142453658Y-61286940D01*
X142409302Y-61265961D01*
X142367215Y-61240735D01*
X142327803Y-61211505D01*
X142291447Y-61178553D01*
X142258495Y-61142197D01*
X142229265Y-61102785D01*
X142204039Y-61060698D01*
X142183060Y-61016342D01*
X142166530Y-60970142D01*
X142154607Y-60922545D01*
X142147408Y-60874009D01*
X142145000Y-60825000D01*
X142145000Y-59825000D01*
X142147408Y-59775991D01*
X142154607Y-59727455D01*
X142166530Y-59679858D01*
X142183060Y-59633658D01*
X142204039Y-59589302D01*
X142229265Y-59547215D01*
X142258495Y-59507803D01*
X142291447Y-59471447D01*
X142327803Y-59438495D01*
X142367215Y-59409265D01*
X142409302Y-59384039D01*
X142453658Y-59363060D01*
X142499858Y-59346530D01*
X142547455Y-59334607D01*
X142595991Y-59327408D01*
X142645000Y-59325000D01*
X145645000Y-59325000D01*
X145694009Y-59327408D01*
X145694009Y-59327408D01*
G37*
D15*
X144145000Y-60325000D03*
G04 #@! TD*
D10*
G04 #@! TO.C,P5*
G36*
X145694009Y-68852408D02*
X145742545Y-68859607D01*
X145790142Y-68871530D01*
X145836342Y-68888060D01*
X145880698Y-68909039D01*
X145922785Y-68934265D01*
X145962197Y-68963495D01*
X145998553Y-68996447D01*
X146031505Y-69032803D01*
X146060735Y-69072215D01*
X146085961Y-69114302D01*
X146106940Y-69158658D01*
X146123470Y-69204858D01*
X146135393Y-69252455D01*
X146142592Y-69300991D01*
X146145000Y-69350000D01*
X146145000Y-70350000D01*
X146142592Y-70399009D01*
X146135393Y-70447545D01*
X146123470Y-70495142D01*
X146106940Y-70541342D01*
X146085961Y-70585698D01*
X146060735Y-70627785D01*
X146031505Y-70667197D01*
X145998553Y-70703553D01*
X145962197Y-70736505D01*
X145922785Y-70765735D01*
X145880698Y-70790961D01*
X145836342Y-70811940D01*
X145790142Y-70828470D01*
X145742545Y-70840393D01*
X145694009Y-70847592D01*
X145645000Y-70850000D01*
X142645000Y-70850000D01*
X142595991Y-70847592D01*
X142547455Y-70840393D01*
X142499858Y-70828470D01*
X142453658Y-70811940D01*
X142409302Y-70790961D01*
X142367215Y-70765735D01*
X142327803Y-70736505D01*
X142291447Y-70703553D01*
X142258495Y-70667197D01*
X142229265Y-70627785D01*
X142204039Y-70585698D01*
X142183060Y-70541342D01*
X142166530Y-70495142D01*
X142154607Y-70447545D01*
X142147408Y-70399009D01*
X142145000Y-70350000D01*
X142145000Y-69350000D01*
X142147408Y-69300991D01*
X142154607Y-69252455D01*
X142166530Y-69204858D01*
X142183060Y-69158658D01*
X142204039Y-69114302D01*
X142229265Y-69072215D01*
X142258495Y-69032803D01*
X142291447Y-68996447D01*
X142327803Y-68963495D01*
X142367215Y-68934265D01*
X142409302Y-68909039D01*
X142453658Y-68888060D01*
X142499858Y-68871530D01*
X142547455Y-68859607D01*
X142595991Y-68852408D01*
X142645000Y-68850000D01*
X145645000Y-68850000D01*
X145694009Y-68852408D01*
X145694009Y-68852408D01*
G37*
D15*
X144145000Y-69850000D03*
G04 #@! TD*
D10*
G04 #@! TO.C,P6*
G36*
X145694009Y-65677408D02*
X145742545Y-65684607D01*
X145790142Y-65696530D01*
X145836342Y-65713060D01*
X145880698Y-65734039D01*
X145922785Y-65759265D01*
X145962197Y-65788495D01*
X145998553Y-65821447D01*
X146031505Y-65857803D01*
X146060735Y-65897215D01*
X146085961Y-65939302D01*
X146106940Y-65983658D01*
X146123470Y-66029858D01*
X146135393Y-66077455D01*
X146142592Y-66125991D01*
X146145000Y-66175000D01*
X146145000Y-67175000D01*
X146142592Y-67224009D01*
X146135393Y-67272545D01*
X146123470Y-67320142D01*
X146106940Y-67366342D01*
X146085961Y-67410698D01*
X146060735Y-67452785D01*
X146031505Y-67492197D01*
X145998553Y-67528553D01*
X145962197Y-67561505D01*
X145922785Y-67590735D01*
X145880698Y-67615961D01*
X145836342Y-67636940D01*
X145790142Y-67653470D01*
X145742545Y-67665393D01*
X145694009Y-67672592D01*
X145645000Y-67675000D01*
X142645000Y-67675000D01*
X142595991Y-67672592D01*
X142547455Y-67665393D01*
X142499858Y-67653470D01*
X142453658Y-67636940D01*
X142409302Y-67615961D01*
X142367215Y-67590735D01*
X142327803Y-67561505D01*
X142291447Y-67528553D01*
X142258495Y-67492197D01*
X142229265Y-67452785D01*
X142204039Y-67410698D01*
X142183060Y-67366342D01*
X142166530Y-67320142D01*
X142154607Y-67272545D01*
X142147408Y-67224009D01*
X142145000Y-67175000D01*
X142145000Y-66175000D01*
X142147408Y-66125991D01*
X142154607Y-66077455D01*
X142166530Y-66029858D01*
X142183060Y-65983658D01*
X142204039Y-65939302D01*
X142229265Y-65897215D01*
X142258495Y-65857803D01*
X142291447Y-65821447D01*
X142327803Y-65788495D01*
X142367215Y-65759265D01*
X142409302Y-65734039D01*
X142453658Y-65713060D01*
X142499858Y-65696530D01*
X142547455Y-65684607D01*
X142595991Y-65677408D01*
X142645000Y-65675000D01*
X145645000Y-65675000D01*
X145694009Y-65677408D01*
X145694009Y-65677408D01*
G37*
D15*
X144145000Y-66675000D03*
G04 #@! TD*
D10*
G04 #@! TO.C,P7*
G36*
X145694009Y-62502408D02*
X145742545Y-62509607D01*
X145790142Y-62521530D01*
X145836342Y-62538060D01*
X145880698Y-62559039D01*
X145922785Y-62584265D01*
X145962197Y-62613495D01*
X145998553Y-62646447D01*
X146031505Y-62682803D01*
X146060735Y-62722215D01*
X146085961Y-62764302D01*
X146106940Y-62808658D01*
X146123470Y-62854858D01*
X146135393Y-62902455D01*
X146142592Y-62950991D01*
X146145000Y-63000000D01*
X146145000Y-64000000D01*
X146142592Y-64049009D01*
X146135393Y-64097545D01*
X146123470Y-64145142D01*
X146106940Y-64191342D01*
X146085961Y-64235698D01*
X146060735Y-64277785D01*
X146031505Y-64317197D01*
X145998553Y-64353553D01*
X145962197Y-64386505D01*
X145922785Y-64415735D01*
X145880698Y-64440961D01*
X145836342Y-64461940D01*
X145790142Y-64478470D01*
X145742545Y-64490393D01*
X145694009Y-64497592D01*
X145645000Y-64500000D01*
X142645000Y-64500000D01*
X142595991Y-64497592D01*
X142547455Y-64490393D01*
X142499858Y-64478470D01*
X142453658Y-64461940D01*
X142409302Y-64440961D01*
X142367215Y-64415735D01*
X142327803Y-64386505D01*
X142291447Y-64353553D01*
X142258495Y-64317197D01*
X142229265Y-64277785D01*
X142204039Y-64235698D01*
X142183060Y-64191342D01*
X142166530Y-64145142D01*
X142154607Y-64097545D01*
X142147408Y-64049009D01*
X142145000Y-64000000D01*
X142145000Y-63000000D01*
X142147408Y-62950991D01*
X142154607Y-62902455D01*
X142166530Y-62854858D01*
X142183060Y-62808658D01*
X142204039Y-62764302D01*
X142229265Y-62722215D01*
X142258495Y-62682803D01*
X142291447Y-62646447D01*
X142327803Y-62613495D01*
X142367215Y-62584265D01*
X142409302Y-62559039D01*
X142453658Y-62538060D01*
X142499858Y-62521530D01*
X142547455Y-62509607D01*
X142595991Y-62502408D01*
X142645000Y-62500000D01*
X145645000Y-62500000D01*
X145694009Y-62502408D01*
X145694009Y-62502408D01*
G37*
D15*
X144145000Y-63500000D03*
G04 #@! TD*
M02*
