G04 #@! TF.GenerationSoftware,KiCad,Pcbnew,(5.0.1-3-g963ef8bb5)*
G04 #@! TF.CreationDate,2018-11-10T18:30:21+10:30*
G04 #@! TF.ProjectId,rgb-led-board,7267622D6C65642D626F6172642E6B69,1.0*
G04 #@! TF.SameCoordinates,Original*
G04 #@! TF.FileFunction,Soldermask,Bot*
G04 #@! TF.FilePolarity,Negative*
%FSLAX46Y46*%
G04 Gerber Fmt 4.6, Leading zero omitted, Abs format (unit mm)*
G04 Created by KiCad (PCBNEW (5.0.1-3-g963ef8bb5)) date Saturday, 10 November 2018 at 06:30:21 pm*
%MOMM*%
%LPD*%
G01*
G04 APERTURE LIST*
%ADD10C,0.100000*%
G04 APERTURE END LIST*
D10*
G36*
X128478502Y-72049389D02*
X128678990Y-72110207D01*
X128863759Y-72208967D01*
X128863762Y-72208969D01*
X128863763Y-72208970D01*
X129025718Y-72341882D01*
X129025719Y-72341884D01*
X129025721Y-72341885D01*
X129158631Y-72503836D01*
X129257393Y-72688609D01*
X129318211Y-72889097D01*
X129333600Y-73045349D01*
X129333600Y-73454650D01*
X129318211Y-73610902D01*
X129257393Y-73811390D01*
X129158633Y-73996159D01*
X129158631Y-73996162D01*
X129158630Y-73996163D01*
X129025718Y-74158118D01*
X129025716Y-74158119D01*
X129025715Y-74158121D01*
X128863764Y-74291031D01*
X128678991Y-74389793D01*
X128478503Y-74450611D01*
X128270000Y-74471146D01*
X128061498Y-74450611D01*
X127861010Y-74389793D01*
X127676237Y-74291031D01*
X127514283Y-74158118D01*
X127381372Y-73996165D01*
X127381370Y-73996163D01*
X127282607Y-73811391D01*
X127263289Y-73747708D01*
X127221789Y-73610903D01*
X127206400Y-73454651D01*
X127206400Y-73045350D01*
X127221789Y-72889098D01*
X127282607Y-72688610D01*
X127381367Y-72503841D01*
X127514280Y-72341885D01*
X127514282Y-72341882D01*
X127514284Y-72341881D01*
X127514285Y-72341879D01*
X127676236Y-72208969D01*
X127861009Y-72110207D01*
X128061497Y-72049389D01*
X128270000Y-72028854D01*
X128478502Y-72049389D01*
X128478502Y-72049389D01*
G37*
G36*
X131018502Y-72049389D02*
X131218990Y-72110207D01*
X131403759Y-72208967D01*
X131403762Y-72208969D01*
X131403763Y-72208970D01*
X131565718Y-72341882D01*
X131565719Y-72341884D01*
X131565721Y-72341885D01*
X131698631Y-72503836D01*
X131797393Y-72688609D01*
X131858211Y-72889097D01*
X131873600Y-73045349D01*
X131873600Y-73454650D01*
X131858211Y-73610902D01*
X131797393Y-73811390D01*
X131698633Y-73996159D01*
X131698631Y-73996162D01*
X131698630Y-73996163D01*
X131565718Y-74158118D01*
X131565716Y-74158119D01*
X131565715Y-74158121D01*
X131403764Y-74291031D01*
X131218991Y-74389793D01*
X131018503Y-74450611D01*
X130810000Y-74471146D01*
X130601498Y-74450611D01*
X130401010Y-74389793D01*
X130216237Y-74291031D01*
X130054283Y-74158118D01*
X129921372Y-73996165D01*
X129921370Y-73996163D01*
X129822607Y-73811391D01*
X129803289Y-73747708D01*
X129761789Y-73610903D01*
X129746400Y-73454651D01*
X129746400Y-73045350D01*
X129761789Y-72889098D01*
X129822607Y-72688610D01*
X129921367Y-72503841D01*
X130054280Y-72341885D01*
X130054282Y-72341882D01*
X130054284Y-72341881D01*
X130054285Y-72341879D01*
X130216236Y-72208969D01*
X130401009Y-72110207D01*
X130601497Y-72049389D01*
X130810000Y-72028854D01*
X131018502Y-72049389D01*
X131018502Y-72049389D01*
G37*
G36*
X133558502Y-72049389D02*
X133758990Y-72110207D01*
X133943759Y-72208967D01*
X133943762Y-72208969D01*
X133943763Y-72208970D01*
X134105718Y-72341882D01*
X134105719Y-72341884D01*
X134105721Y-72341885D01*
X134238631Y-72503836D01*
X134337393Y-72688609D01*
X134398211Y-72889097D01*
X134413600Y-73045349D01*
X134413600Y-73454650D01*
X134398211Y-73610902D01*
X134337393Y-73811390D01*
X134238633Y-73996159D01*
X134238631Y-73996162D01*
X134238630Y-73996163D01*
X134105718Y-74158118D01*
X134105716Y-74158119D01*
X134105715Y-74158121D01*
X133943764Y-74291031D01*
X133758991Y-74389793D01*
X133558503Y-74450611D01*
X133350000Y-74471146D01*
X133141498Y-74450611D01*
X132941010Y-74389793D01*
X132756237Y-74291031D01*
X132594283Y-74158118D01*
X132461372Y-73996165D01*
X132461370Y-73996163D01*
X132362607Y-73811391D01*
X132343289Y-73747708D01*
X132301789Y-73610903D01*
X132286400Y-73454651D01*
X132286400Y-73045350D01*
X132301789Y-72889098D01*
X132362607Y-72688610D01*
X132461367Y-72503841D01*
X132594280Y-72341885D01*
X132594282Y-72341882D01*
X132594284Y-72341881D01*
X132594285Y-72341879D01*
X132756236Y-72208969D01*
X132941009Y-72110207D01*
X133141497Y-72049389D01*
X133350000Y-72028854D01*
X133558502Y-72049389D01*
X133558502Y-72049389D01*
G37*
G36*
X136098502Y-72049389D02*
X136298990Y-72110207D01*
X136483759Y-72208967D01*
X136483762Y-72208969D01*
X136483763Y-72208970D01*
X136645718Y-72341882D01*
X136645719Y-72341884D01*
X136645721Y-72341885D01*
X136778631Y-72503836D01*
X136877393Y-72688609D01*
X136938211Y-72889097D01*
X136953600Y-73045349D01*
X136953600Y-73454650D01*
X136938211Y-73610902D01*
X136877393Y-73811390D01*
X136778633Y-73996159D01*
X136778631Y-73996162D01*
X136778630Y-73996163D01*
X136645718Y-74158118D01*
X136645716Y-74158119D01*
X136645715Y-74158121D01*
X136483764Y-74291031D01*
X136298991Y-74389793D01*
X136098503Y-74450611D01*
X135890000Y-74471146D01*
X135681498Y-74450611D01*
X135481010Y-74389793D01*
X135296237Y-74291031D01*
X135134283Y-74158118D01*
X135001372Y-73996165D01*
X135001370Y-73996163D01*
X134902607Y-73811391D01*
X134883289Y-73747708D01*
X134841789Y-73610903D01*
X134826400Y-73454651D01*
X134826400Y-73045350D01*
X134841789Y-72889098D01*
X134902607Y-72688610D01*
X135001367Y-72503841D01*
X135134280Y-72341885D01*
X135134282Y-72341882D01*
X135134284Y-72341881D01*
X135134285Y-72341879D01*
X135296236Y-72208969D01*
X135481009Y-72110207D01*
X135681497Y-72049389D01*
X135890000Y-72028854D01*
X136098502Y-72049389D01*
X136098502Y-72049389D01*
G37*
G36*
X138638502Y-72049389D02*
X138838990Y-72110207D01*
X139023759Y-72208967D01*
X139023762Y-72208969D01*
X139023763Y-72208970D01*
X139185718Y-72341882D01*
X139185719Y-72341884D01*
X139185721Y-72341885D01*
X139318631Y-72503836D01*
X139417393Y-72688609D01*
X139478211Y-72889097D01*
X139493600Y-73045349D01*
X139493600Y-73454650D01*
X139478211Y-73610902D01*
X139417393Y-73811390D01*
X139318633Y-73996159D01*
X139318631Y-73996162D01*
X139318630Y-73996163D01*
X139185718Y-74158118D01*
X139185716Y-74158119D01*
X139185715Y-74158121D01*
X139023764Y-74291031D01*
X138838991Y-74389793D01*
X138638503Y-74450611D01*
X138430000Y-74471146D01*
X138221498Y-74450611D01*
X138021010Y-74389793D01*
X137836237Y-74291031D01*
X137674283Y-74158118D01*
X137541372Y-73996165D01*
X137541370Y-73996163D01*
X137442607Y-73811391D01*
X137423289Y-73747708D01*
X137381789Y-73610903D01*
X137366400Y-73454651D01*
X137366400Y-73045350D01*
X137381789Y-72889098D01*
X137442607Y-72688610D01*
X137541367Y-72503841D01*
X137674280Y-72341885D01*
X137674282Y-72341882D01*
X137674284Y-72341881D01*
X137674285Y-72341879D01*
X137836236Y-72208969D01*
X138021009Y-72110207D01*
X138221497Y-72049389D01*
X138430000Y-72028854D01*
X138638502Y-72049389D01*
X138638502Y-72049389D01*
G37*
G36*
X141178502Y-72049389D02*
X141378990Y-72110207D01*
X141563759Y-72208967D01*
X141563762Y-72208969D01*
X141563763Y-72208970D01*
X141725718Y-72341882D01*
X141725719Y-72341884D01*
X141725721Y-72341885D01*
X141858631Y-72503836D01*
X141957393Y-72688609D01*
X142018211Y-72889097D01*
X142033600Y-73045349D01*
X142033600Y-73454650D01*
X142018211Y-73610902D01*
X141957393Y-73811390D01*
X141858633Y-73996159D01*
X141858631Y-73996162D01*
X141858630Y-73996163D01*
X141725718Y-74158118D01*
X141725716Y-74158119D01*
X141725715Y-74158121D01*
X141563764Y-74291031D01*
X141378991Y-74389793D01*
X141178503Y-74450611D01*
X140970000Y-74471146D01*
X140761498Y-74450611D01*
X140561010Y-74389793D01*
X140376237Y-74291031D01*
X140214283Y-74158118D01*
X140081372Y-73996165D01*
X140081370Y-73996163D01*
X139982607Y-73811391D01*
X139963289Y-73747708D01*
X139921789Y-73610903D01*
X139906400Y-73454651D01*
X139906400Y-73045350D01*
X139921789Y-72889098D01*
X139982607Y-72688610D01*
X140081367Y-72503841D01*
X140214280Y-72341885D01*
X140214282Y-72341882D01*
X140214284Y-72341881D01*
X140214285Y-72341879D01*
X140376236Y-72208969D01*
X140561009Y-72110207D01*
X140761497Y-72049389D01*
X140970000Y-72028854D01*
X141178502Y-72049389D01*
X141178502Y-72049389D01*
G37*
G36*
X143718502Y-72049389D02*
X143918990Y-72110207D01*
X144103759Y-72208967D01*
X144103762Y-72208969D01*
X144103763Y-72208970D01*
X144265718Y-72341882D01*
X144265719Y-72341884D01*
X144265721Y-72341885D01*
X144398631Y-72503836D01*
X144497393Y-72688609D01*
X144558211Y-72889097D01*
X144573600Y-73045349D01*
X144573600Y-73454650D01*
X144558211Y-73610902D01*
X144497393Y-73811390D01*
X144398633Y-73996159D01*
X144398631Y-73996162D01*
X144398630Y-73996163D01*
X144265718Y-74158118D01*
X144265716Y-74158119D01*
X144265715Y-74158121D01*
X144103764Y-74291031D01*
X143918991Y-74389793D01*
X143718503Y-74450611D01*
X143510000Y-74471146D01*
X143301498Y-74450611D01*
X143101010Y-74389793D01*
X142916237Y-74291031D01*
X142754283Y-74158118D01*
X142621372Y-73996165D01*
X142621370Y-73996163D01*
X142522607Y-73811391D01*
X142503289Y-73747708D01*
X142461789Y-73610903D01*
X142446400Y-73454651D01*
X142446400Y-73045350D01*
X142461789Y-72889098D01*
X142522607Y-72688610D01*
X142621367Y-72503841D01*
X142754280Y-72341885D01*
X142754282Y-72341882D01*
X142754284Y-72341881D01*
X142754285Y-72341879D01*
X142916236Y-72208969D01*
X143101009Y-72110207D01*
X143301497Y-72049389D01*
X143510000Y-72028854D01*
X143718502Y-72049389D01*
X143718502Y-72049389D01*
G37*
G36*
X126793600Y-74466000D02*
X124666400Y-74466000D01*
X124666400Y-72034000D01*
X126793600Y-72034000D01*
X126793600Y-74466000D01*
X126793600Y-74466000D01*
G37*
M02*
