G04 #@! TF.GenerationSoftware,KiCad,Pcbnew,(5.0.1-3-g963ef8bb5)*
G04 #@! TF.CreationDate,2018-11-10T18:30:21+10:30*
G04 #@! TF.ProjectId,rgb-led-board,7267622D6C65642D626F6172642E6B69,1.0*
G04 #@! TF.SameCoordinates,Original*
G04 #@! TF.FileFunction,Other,Comment*
%FSLAX46Y46*%
G04 Gerber Fmt 4.6, Leading zero omitted, Abs format (unit mm)*
G04 Created by KiCad (PCBNEW (5.0.1-3-g963ef8bb5)) date Saturday, 10 November 2018 at 06:30:21 pm*
%MOMM*%
%LPD*%
G01*
G04 APERTURE LIST*
%ADD10C,0.300000*%
G04 APERTURE END LIST*
D10*
X157587642Y-57031571D02*
X157587642Y-55531571D01*
X158159071Y-55531571D01*
X158301928Y-55603000D01*
X158373357Y-55674428D01*
X158444785Y-55817285D01*
X158444785Y-56031571D01*
X158373357Y-56174428D01*
X158301928Y-56245857D01*
X158159071Y-56317285D01*
X157587642Y-56317285D01*
X159944785Y-56888714D02*
X159873357Y-56960142D01*
X159659071Y-57031571D01*
X159516214Y-57031571D01*
X159301928Y-56960142D01*
X159159071Y-56817285D01*
X159087642Y-56674428D01*
X159016214Y-56388714D01*
X159016214Y-56174428D01*
X159087642Y-55888714D01*
X159159071Y-55745857D01*
X159301928Y-55603000D01*
X159516214Y-55531571D01*
X159659071Y-55531571D01*
X159873357Y-55603000D01*
X159944785Y-55674428D01*
X161087642Y-56245857D02*
X161301928Y-56317285D01*
X161373357Y-56388714D01*
X161444785Y-56531571D01*
X161444785Y-56745857D01*
X161373357Y-56888714D01*
X161301928Y-56960142D01*
X161159071Y-57031571D01*
X160587642Y-57031571D01*
X160587642Y-55531571D01*
X161087642Y-55531571D01*
X161230500Y-55603000D01*
X161301928Y-55674428D01*
X161373357Y-55817285D01*
X161373357Y-55960142D01*
X161301928Y-56103000D01*
X161230500Y-56174428D01*
X161087642Y-56245857D01*
X160587642Y-56245857D01*
X163159071Y-56960142D02*
X163373357Y-57031571D01*
X163730500Y-57031571D01*
X163873357Y-56960142D01*
X163944785Y-56888714D01*
X164016214Y-56745857D01*
X164016214Y-56603000D01*
X163944785Y-56460142D01*
X163873357Y-56388714D01*
X163730500Y-56317285D01*
X163444785Y-56245857D01*
X163301928Y-56174428D01*
X163230500Y-56103000D01*
X163159071Y-55960142D01*
X163159071Y-55817285D01*
X163230500Y-55674428D01*
X163301928Y-55603000D01*
X163444785Y-55531571D01*
X163801928Y-55531571D01*
X164016214Y-55603000D01*
X164444785Y-56031571D02*
X165016214Y-56031571D01*
X164659071Y-55531571D02*
X164659071Y-56817285D01*
X164730500Y-56960142D01*
X164873357Y-57031571D01*
X165016214Y-57031571D01*
X166159071Y-57031571D02*
X166159071Y-56245857D01*
X166087642Y-56103000D01*
X165944785Y-56031571D01*
X165659071Y-56031571D01*
X165516214Y-56103000D01*
X166159071Y-56960142D02*
X166016214Y-57031571D01*
X165659071Y-57031571D01*
X165516214Y-56960142D01*
X165444785Y-56817285D01*
X165444785Y-56674428D01*
X165516214Y-56531571D01*
X165659071Y-56460142D01*
X166016214Y-56460142D01*
X166159071Y-56388714D01*
X167516214Y-56960142D02*
X167373357Y-57031571D01*
X167087642Y-57031571D01*
X166944785Y-56960142D01*
X166873357Y-56888714D01*
X166801928Y-56745857D01*
X166801928Y-56317285D01*
X166873357Y-56174428D01*
X166944785Y-56103000D01*
X167087642Y-56031571D01*
X167373357Y-56031571D01*
X167516214Y-56103000D01*
X168159071Y-57031571D02*
X168159071Y-55531571D01*
X168301928Y-56460142D02*
X168730500Y-57031571D01*
X168730500Y-56031571D02*
X168159071Y-56603000D01*
X170016214Y-56031571D02*
X170016214Y-57031571D01*
X169373357Y-56031571D02*
X169373357Y-56817285D01*
X169444785Y-56960142D01*
X169587642Y-57031571D01*
X169801928Y-57031571D01*
X169944785Y-56960142D01*
X170016214Y-56888714D01*
X170730500Y-56031571D02*
X170730500Y-57531571D01*
X170730500Y-56103000D02*
X170873357Y-56031571D01*
X171159071Y-56031571D01*
X171301928Y-56103000D01*
X171373357Y-56174428D01*
X171444785Y-56317285D01*
X171444785Y-56745857D01*
X171373357Y-56888714D01*
X171301928Y-56960142D01*
X171159071Y-57031571D01*
X170873357Y-57031571D01*
X170730500Y-56960142D01*
X157516214Y-60774428D02*
X157587642Y-60703000D01*
X157730500Y-60631571D01*
X158087642Y-60631571D01*
X158230500Y-60703000D01*
X158301928Y-60774428D01*
X158373357Y-60917285D01*
X158373357Y-61060142D01*
X158301928Y-61274428D01*
X157444785Y-62131571D01*
X158373357Y-62131571D01*
X160873357Y-62131571D02*
X160159071Y-62131571D01*
X160159071Y-60631571D01*
X162016214Y-62131571D02*
X162016214Y-61345857D01*
X161944785Y-61203000D01*
X161801928Y-61131571D01*
X161516214Y-61131571D01*
X161373357Y-61203000D01*
X162016214Y-62060142D02*
X161873357Y-62131571D01*
X161516214Y-62131571D01*
X161373357Y-62060142D01*
X161301928Y-61917285D01*
X161301928Y-61774428D01*
X161373357Y-61631571D01*
X161516214Y-61560142D01*
X161873357Y-61560142D01*
X162016214Y-61488714D01*
X162587642Y-61131571D02*
X162944785Y-62131571D01*
X163301928Y-61131571D02*
X162944785Y-62131571D01*
X162801928Y-62488714D01*
X162730500Y-62560142D01*
X162587642Y-62631571D01*
X164444785Y-62060142D02*
X164301928Y-62131571D01*
X164016214Y-62131571D01*
X163873357Y-62060142D01*
X163801928Y-61917285D01*
X163801928Y-61345857D01*
X163873357Y-61203000D01*
X164016214Y-61131571D01*
X164301928Y-61131571D01*
X164444785Y-61203000D01*
X164516214Y-61345857D01*
X164516214Y-61488714D01*
X163801928Y-61631571D01*
X165159071Y-62131571D02*
X165159071Y-61131571D01*
X165159071Y-61417285D02*
X165230500Y-61274428D01*
X165301928Y-61203000D01*
X165444785Y-61131571D01*
X165587642Y-61131571D01*
X158373357Y-64681571D02*
X157516214Y-64681571D01*
X157944785Y-64681571D02*
X157944785Y-63181571D01*
X157801928Y-63395857D01*
X157659071Y-63538714D01*
X157516214Y-63610142D01*
X159016214Y-64538714D02*
X159087642Y-64610142D01*
X159016214Y-64681571D01*
X158944785Y-64610142D01*
X159016214Y-64538714D01*
X159016214Y-64681571D01*
X160373357Y-63181571D02*
X160087642Y-63181571D01*
X159944785Y-63253000D01*
X159873357Y-63324428D01*
X159730500Y-63538714D01*
X159659071Y-63824428D01*
X159659071Y-64395857D01*
X159730500Y-64538714D01*
X159801928Y-64610142D01*
X159944785Y-64681571D01*
X160230500Y-64681571D01*
X160373357Y-64610142D01*
X160444785Y-64538714D01*
X160516214Y-64395857D01*
X160516214Y-64038714D01*
X160444785Y-63895857D01*
X160373357Y-63824428D01*
X160230500Y-63753000D01*
X159944785Y-63753000D01*
X159801928Y-63824428D01*
X159730500Y-63895857D01*
X159659071Y-64038714D01*
X161159071Y-64681571D02*
X161159071Y-63681571D01*
X161159071Y-63824428D02*
X161230500Y-63753000D01*
X161373357Y-63681571D01*
X161587642Y-63681571D01*
X161730500Y-63753000D01*
X161801928Y-63895857D01*
X161801928Y-64681571D01*
X161801928Y-63895857D02*
X161873357Y-63753000D01*
X162016214Y-63681571D01*
X162230500Y-63681571D01*
X162373357Y-63753000D01*
X162444785Y-63895857D01*
X162444785Y-64681571D01*
X163159071Y-64681571D02*
X163159071Y-63681571D01*
X163159071Y-63824428D02*
X163230500Y-63753000D01*
X163373357Y-63681571D01*
X163587642Y-63681571D01*
X163730500Y-63753000D01*
X163801928Y-63895857D01*
X163801928Y-64681571D01*
X163801928Y-63895857D02*
X163873357Y-63753000D01*
X164016214Y-63681571D01*
X164230500Y-63681571D01*
X164373357Y-63753000D01*
X164444785Y-63895857D01*
X164444785Y-64681571D01*
X166801928Y-63895857D02*
X166301928Y-63895857D01*
X166301928Y-64681571D02*
X166301928Y-63181571D01*
X167016214Y-63181571D01*
X168444785Y-64681571D02*
X167944785Y-63967285D01*
X167587642Y-64681571D02*
X167587642Y-63181571D01*
X168159071Y-63181571D01*
X168301928Y-63253000D01*
X168373357Y-63324428D01*
X168444785Y-63467285D01*
X168444785Y-63681571D01*
X168373357Y-63824428D01*
X168301928Y-63895857D01*
X168159071Y-63967285D01*
X167587642Y-63967285D01*
X169730500Y-63681571D02*
X169730500Y-64681571D01*
X169373357Y-63110142D02*
X169016214Y-64181571D01*
X169944785Y-64181571D01*
X157587642Y-66445857D02*
X158087642Y-66445857D01*
X158301928Y-67231571D02*
X157587642Y-67231571D01*
X157587642Y-65731571D01*
X158301928Y-65731571D01*
X158944785Y-67231571D02*
X158944785Y-65731571D01*
X159801928Y-67231571D01*
X159801928Y-65731571D01*
X160516214Y-67231571D02*
X160516214Y-65731571D01*
X162016214Y-65803000D02*
X161873357Y-65731571D01*
X161659071Y-65731571D01*
X161444785Y-65803000D01*
X161301928Y-65945857D01*
X161230500Y-66088714D01*
X161159071Y-66374428D01*
X161159071Y-66588714D01*
X161230500Y-66874428D01*
X161301928Y-67017285D01*
X161444785Y-67160142D01*
X161659071Y-67231571D01*
X161801928Y-67231571D01*
X162016214Y-67160142D01*
X162087642Y-67088714D01*
X162087642Y-66588714D01*
X161801928Y-66588714D01*
X164373357Y-66445857D02*
X163873357Y-66445857D01*
X163873357Y-67231571D02*
X163873357Y-65731571D01*
X164587642Y-65731571D01*
X165159071Y-67231571D02*
X165159071Y-66231571D01*
X165159071Y-65731571D02*
X165087642Y-65803000D01*
X165159071Y-65874428D01*
X165230500Y-65803000D01*
X165159071Y-65731571D01*
X165159071Y-65874428D01*
X165873357Y-66231571D02*
X165873357Y-67231571D01*
X165873357Y-66374428D02*
X165944785Y-66303000D01*
X166087642Y-66231571D01*
X166301928Y-66231571D01*
X166444785Y-66303000D01*
X166516214Y-66445857D01*
X166516214Y-67231571D01*
X167230500Y-67231571D02*
X167230500Y-66231571D01*
X167230500Y-65731571D02*
X167159071Y-65803000D01*
X167230500Y-65874428D01*
X167301928Y-65803000D01*
X167230500Y-65731571D01*
X167230500Y-65874428D01*
X167873357Y-67160142D02*
X168016214Y-67231571D01*
X168301928Y-67231571D01*
X168444785Y-67160142D01*
X168516214Y-67017285D01*
X168516214Y-66945857D01*
X168444785Y-66803000D01*
X168301928Y-66731571D01*
X168087642Y-66731571D01*
X167944785Y-66660142D01*
X167873357Y-66517285D01*
X167873357Y-66445857D01*
X167944785Y-66303000D01*
X168087642Y-66231571D01*
X168301928Y-66231571D01*
X168444785Y-66303000D01*
X169159071Y-67231571D02*
X169159071Y-65731571D01*
X169801928Y-67231571D02*
X169801928Y-66445857D01*
X169730500Y-66303000D01*
X169587642Y-66231571D01*
X169373357Y-66231571D01*
X169230500Y-66303000D01*
X169159071Y-66374428D01*
X157516214Y-68424428D02*
X157587642Y-68353000D01*
X157730500Y-68281571D01*
X158087642Y-68281571D01*
X158230500Y-68353000D01*
X158301928Y-68424428D01*
X158373357Y-68567285D01*
X158373357Y-68710142D01*
X158301928Y-68924428D01*
X157444785Y-69781571D01*
X158373357Y-69781571D01*
X159730500Y-68281571D02*
X159016214Y-68281571D01*
X158944785Y-68995857D01*
X159016214Y-68924428D01*
X159159071Y-68853000D01*
X159516214Y-68853000D01*
X159659071Y-68924428D01*
X159730500Y-68995857D01*
X159801928Y-69138714D01*
X159801928Y-69495857D01*
X159730500Y-69638714D01*
X159659071Y-69710142D01*
X159516214Y-69781571D01*
X159159071Y-69781571D01*
X159016214Y-69710142D01*
X158944785Y-69638714D01*
X160659071Y-68281571D02*
X160659071Y-68638714D01*
X160301928Y-68495857D02*
X160659071Y-68638714D01*
X161016214Y-68495857D01*
X160444785Y-68924428D02*
X160659071Y-68638714D01*
X160873357Y-68924428D01*
X162373357Y-69781571D02*
X161516214Y-69781571D01*
X161944785Y-69781571D02*
X161944785Y-68281571D01*
X161801928Y-68495857D01*
X161659071Y-68638714D01*
X161516214Y-68710142D01*
X163230500Y-68924428D02*
X163087642Y-68853000D01*
X163016214Y-68781571D01*
X162944785Y-68638714D01*
X162944785Y-68567285D01*
X163016214Y-68424428D01*
X163087642Y-68353000D01*
X163230500Y-68281571D01*
X163516214Y-68281571D01*
X163659071Y-68353000D01*
X163730500Y-68424428D01*
X163801928Y-68567285D01*
X163801928Y-68638714D01*
X163730500Y-68781571D01*
X163659071Y-68853000D01*
X163516214Y-68924428D01*
X163230500Y-68924428D01*
X163087642Y-68995857D01*
X163016214Y-69067285D01*
X162944785Y-69210142D01*
X162944785Y-69495857D01*
X163016214Y-69638714D01*
X163087642Y-69710142D01*
X163230500Y-69781571D01*
X163516214Y-69781571D01*
X163659071Y-69710142D01*
X163730500Y-69638714D01*
X163801928Y-69495857D01*
X163801928Y-69210142D01*
X163730500Y-69067285D01*
X163659071Y-68995857D01*
X163516214Y-68924428D01*
X164444785Y-69781571D02*
X164444785Y-68781571D01*
X164444785Y-68924428D02*
X164516214Y-68853000D01*
X164659071Y-68781571D01*
X164873357Y-68781571D01*
X165016214Y-68853000D01*
X165087642Y-68995857D01*
X165087642Y-69781571D01*
X165087642Y-68995857D02*
X165159071Y-68853000D01*
X165301928Y-68781571D01*
X165516214Y-68781571D01*
X165659071Y-68853000D01*
X165730500Y-68995857D01*
X165730500Y-69781571D01*
X166444785Y-69781571D02*
X166444785Y-68781571D01*
X166444785Y-68924428D02*
X166516214Y-68853000D01*
X166659071Y-68781571D01*
X166873357Y-68781571D01*
X167016214Y-68853000D01*
X167087642Y-68995857D01*
X167087642Y-69781571D01*
X167087642Y-68995857D02*
X167159071Y-68853000D01*
X167301928Y-68781571D01*
X167516214Y-68781571D01*
X167659071Y-68853000D01*
X167730500Y-68995857D01*
X167730500Y-69781571D01*
X157587642Y-71331571D02*
X158730500Y-71760142D01*
X157587642Y-72188714D01*
X159730500Y-70831571D02*
X159873357Y-70831571D01*
X160016214Y-70903000D01*
X160087642Y-70974428D01*
X160159071Y-71117285D01*
X160230500Y-71403000D01*
X160230500Y-71760142D01*
X160159071Y-72045857D01*
X160087642Y-72188714D01*
X160016214Y-72260142D01*
X159873357Y-72331571D01*
X159730500Y-72331571D01*
X159587642Y-72260142D01*
X159516214Y-72188714D01*
X159444785Y-72045857D01*
X159373357Y-71760142D01*
X159373357Y-71403000D01*
X159444785Y-71117285D01*
X159516214Y-70974428D01*
X159587642Y-70903000D01*
X159730500Y-70831571D01*
X160873357Y-72188714D02*
X160944785Y-72260142D01*
X160873357Y-72331571D01*
X160801928Y-72260142D01*
X160873357Y-72188714D01*
X160873357Y-72331571D01*
X161444785Y-70831571D02*
X162373357Y-70831571D01*
X161873357Y-71403000D01*
X162087642Y-71403000D01*
X162230500Y-71474428D01*
X162301928Y-71545857D01*
X162373357Y-71688714D01*
X162373357Y-72045857D01*
X162301928Y-72188714D01*
X162230500Y-72260142D01*
X162087642Y-72331571D01*
X161659071Y-72331571D01*
X161516214Y-72260142D01*
X161444785Y-72188714D01*
X163730500Y-70831571D02*
X163016214Y-70831571D01*
X162944785Y-71545857D01*
X163016214Y-71474428D01*
X163159071Y-71403000D01*
X163516214Y-71403000D01*
X163659071Y-71474428D01*
X163730500Y-71545857D01*
X163801928Y-71688714D01*
X163801928Y-72045857D01*
X163730500Y-72188714D01*
X163659071Y-72260142D01*
X163516214Y-72331571D01*
X163159071Y-72331571D01*
X163016214Y-72260142D01*
X162944785Y-72188714D01*
X164444785Y-72331571D02*
X164444785Y-71331571D01*
X164444785Y-71474428D02*
X164516214Y-71403000D01*
X164659071Y-71331571D01*
X164873357Y-71331571D01*
X165016214Y-71403000D01*
X165087642Y-71545857D01*
X165087642Y-72331571D01*
X165087642Y-71545857D02*
X165159071Y-71403000D01*
X165301928Y-71331571D01*
X165516214Y-71331571D01*
X165659071Y-71403000D01*
X165730500Y-71545857D01*
X165730500Y-72331571D01*
X166444785Y-72331571D02*
X166444785Y-71331571D01*
X166444785Y-71474428D02*
X166516214Y-71403000D01*
X166659071Y-71331571D01*
X166873357Y-71331571D01*
X167016214Y-71403000D01*
X167087642Y-71545857D01*
X167087642Y-72331571D01*
X167087642Y-71545857D02*
X167159071Y-71403000D01*
X167301928Y-71331571D01*
X167516214Y-71331571D01*
X167659071Y-71403000D01*
X167730500Y-71545857D01*
X167730500Y-72331571D01*
X169444785Y-71331571D02*
X169801928Y-72331571D01*
X170159071Y-71331571D01*
X170730500Y-72331571D02*
X170730500Y-71331571D01*
X170730500Y-70831571D02*
X170659071Y-70903000D01*
X170730500Y-70974428D01*
X170801928Y-70903000D01*
X170730500Y-70831571D01*
X170730500Y-70974428D01*
X172087642Y-72331571D02*
X172087642Y-71545857D01*
X172016214Y-71403000D01*
X171873357Y-71331571D01*
X171587642Y-71331571D01*
X171444785Y-71403000D01*
X172087642Y-72260142D02*
X171944785Y-72331571D01*
X171587642Y-72331571D01*
X171444785Y-72260142D01*
X171373357Y-72117285D01*
X171373357Y-71974428D01*
X171444785Y-71831571D01*
X171587642Y-71760142D01*
X171944785Y-71760142D01*
X172087642Y-71688714D01*
X174587642Y-72331571D02*
X174587642Y-70831571D01*
X174587642Y-72260142D02*
X174444785Y-72331571D01*
X174159071Y-72331571D01*
X174016214Y-72260142D01*
X173944785Y-72188714D01*
X173873357Y-72045857D01*
X173873357Y-71617285D01*
X173944785Y-71474428D01*
X174016214Y-71403000D01*
X174159071Y-71331571D01*
X174444785Y-71331571D01*
X174587642Y-71403000D01*
X175301928Y-72331571D02*
X175301928Y-71331571D01*
X175301928Y-71617285D02*
X175373357Y-71474428D01*
X175444785Y-71403000D01*
X175587642Y-71331571D01*
X175730500Y-71331571D01*
X176230500Y-72331571D02*
X176230500Y-71331571D01*
X176230500Y-70831571D02*
X176159071Y-70903000D01*
X176230500Y-70974428D01*
X176301928Y-70903000D01*
X176230500Y-70831571D01*
X176230500Y-70974428D01*
X177159071Y-72331571D02*
X177016214Y-72260142D01*
X176944785Y-72117285D01*
X176944785Y-70831571D01*
X177944785Y-72331571D02*
X177801928Y-72260142D01*
X177730500Y-72117285D01*
X177730500Y-70831571D01*
X157587642Y-73881571D02*
X158730500Y-74310142D01*
X157587642Y-74738714D01*
X159730500Y-73381571D02*
X159873357Y-73381571D01*
X160016214Y-73453000D01*
X160087642Y-73524428D01*
X160159071Y-73667285D01*
X160230500Y-73953000D01*
X160230500Y-74310142D01*
X160159071Y-74595857D01*
X160087642Y-74738714D01*
X160016214Y-74810142D01*
X159873357Y-74881571D01*
X159730500Y-74881571D01*
X159587642Y-74810142D01*
X159516214Y-74738714D01*
X159444785Y-74595857D01*
X159373357Y-74310142D01*
X159373357Y-73953000D01*
X159444785Y-73667285D01*
X159516214Y-73524428D01*
X159587642Y-73453000D01*
X159730500Y-73381571D01*
X160873357Y-74738714D02*
X160944785Y-74810142D01*
X160873357Y-74881571D01*
X160801928Y-74810142D01*
X160873357Y-74738714D01*
X160873357Y-74881571D01*
X161516214Y-73524428D02*
X161587642Y-73453000D01*
X161730500Y-73381571D01*
X162087642Y-73381571D01*
X162230500Y-73453000D01*
X162301928Y-73524428D01*
X162373357Y-73667285D01*
X162373357Y-73810142D01*
X162301928Y-74024428D01*
X161444785Y-74881571D01*
X162373357Y-74881571D01*
X163730500Y-73381571D02*
X163016214Y-73381571D01*
X162944785Y-74095857D01*
X163016214Y-74024428D01*
X163159071Y-73953000D01*
X163516214Y-73953000D01*
X163659071Y-74024428D01*
X163730500Y-74095857D01*
X163801928Y-74238714D01*
X163801928Y-74595857D01*
X163730500Y-74738714D01*
X163659071Y-74810142D01*
X163516214Y-74881571D01*
X163159071Y-74881571D01*
X163016214Y-74810142D01*
X162944785Y-74738714D01*
X164444785Y-74881571D02*
X164444785Y-73881571D01*
X164444785Y-74024428D02*
X164516214Y-73953000D01*
X164659071Y-73881571D01*
X164873357Y-73881571D01*
X165016214Y-73953000D01*
X165087642Y-74095857D01*
X165087642Y-74881571D01*
X165087642Y-74095857D02*
X165159071Y-73953000D01*
X165301928Y-73881571D01*
X165516214Y-73881571D01*
X165659071Y-73953000D01*
X165730500Y-74095857D01*
X165730500Y-74881571D01*
X166444785Y-74881571D02*
X166444785Y-73881571D01*
X166444785Y-74024428D02*
X166516214Y-73953000D01*
X166659071Y-73881571D01*
X166873357Y-73881571D01*
X167016214Y-73953000D01*
X167087642Y-74095857D01*
X167087642Y-74881571D01*
X167087642Y-74095857D02*
X167159071Y-73953000D01*
X167301928Y-73881571D01*
X167516214Y-73881571D01*
X167659071Y-73953000D01*
X167730500Y-74095857D01*
X167730500Y-74881571D01*
X170230500Y-74810142D02*
X170087642Y-74881571D01*
X169801928Y-74881571D01*
X169659071Y-74810142D01*
X169587642Y-74738714D01*
X169516214Y-74595857D01*
X169516214Y-74167285D01*
X169587642Y-74024428D01*
X169659071Y-73953000D01*
X169801928Y-73881571D01*
X170087642Y-73881571D01*
X170230500Y-73953000D01*
X171087642Y-74881571D02*
X170944785Y-74810142D01*
X170873357Y-74667285D01*
X170873357Y-73381571D01*
X172230500Y-74810142D02*
X172087642Y-74881571D01*
X171801928Y-74881571D01*
X171659071Y-74810142D01*
X171587642Y-74667285D01*
X171587642Y-74095857D01*
X171659071Y-73953000D01*
X171801928Y-73881571D01*
X172087642Y-73881571D01*
X172230500Y-73953000D01*
X172301928Y-74095857D01*
X172301928Y-74238714D01*
X171587642Y-74381571D01*
X173587642Y-74881571D02*
X173587642Y-74095857D01*
X173516214Y-73953000D01*
X173373357Y-73881571D01*
X173087642Y-73881571D01*
X172944785Y-73953000D01*
X173587642Y-74810142D02*
X173444785Y-74881571D01*
X173087642Y-74881571D01*
X172944785Y-74810142D01*
X172873357Y-74667285D01*
X172873357Y-74524428D01*
X172944785Y-74381571D01*
X173087642Y-74310142D01*
X173444785Y-74310142D01*
X173587642Y-74238714D01*
X174301928Y-74881571D02*
X174301928Y-73881571D01*
X174301928Y-74167285D02*
X174373357Y-74024428D01*
X174444785Y-73953000D01*
X174587642Y-73881571D01*
X174730500Y-73881571D01*
X175873357Y-74881571D02*
X175873357Y-74095857D01*
X175801928Y-73953000D01*
X175659071Y-73881571D01*
X175373357Y-73881571D01*
X175230500Y-73953000D01*
X175873357Y-74810142D02*
X175730500Y-74881571D01*
X175373357Y-74881571D01*
X175230500Y-74810142D01*
X175159071Y-74667285D01*
X175159071Y-74524428D01*
X175230500Y-74381571D01*
X175373357Y-74310142D01*
X175730500Y-74310142D01*
X175873357Y-74238714D01*
X176587642Y-73881571D02*
X176587642Y-74881571D01*
X176587642Y-74024428D02*
X176659071Y-73953000D01*
X176801928Y-73881571D01*
X177016214Y-73881571D01*
X177159071Y-73953000D01*
X177230500Y-74095857D01*
X177230500Y-74881571D01*
X178587642Y-74810142D02*
X178444785Y-74881571D01*
X178159071Y-74881571D01*
X178016214Y-74810142D01*
X177944785Y-74738714D01*
X177873357Y-74595857D01*
X177873357Y-74167285D01*
X177944785Y-74024428D01*
X178016214Y-73953000D01*
X178159071Y-73881571D01*
X178444785Y-73881571D01*
X178587642Y-73953000D01*
X179801928Y-74810142D02*
X179659071Y-74881571D01*
X179373357Y-74881571D01*
X179230500Y-74810142D01*
X179159071Y-74667285D01*
X179159071Y-74095857D01*
X179230500Y-73953000D01*
X179373357Y-73881571D01*
X179659071Y-73881571D01*
X179801928Y-73953000D01*
X179873357Y-74095857D01*
X179873357Y-74238714D01*
X179159071Y-74381571D01*
M02*
