M48
;DRILL file {KiCad (5.0.1-3-g963ef8bb5)} date Friday, 23 November 2018 at 05:17:22 pm
;FORMAT={-:-/ absolute / metric / decimal}
FMAT,2
METRIC,TZ
T1C0.400
T2C1.016
%
G90
G05
M71
T1
X124.079Y-59.944
X124.079Y-65.278
X125.095Y-59.944
X125.095Y-65.278
X126.111Y-59.944
X129.54Y-65.659
X129.54Y-68.58
X129.54Y-69.532
X129.54Y-70.485
X130.556Y-65.659
X133.076Y-64.162
X133.223Y-65.278
X133.35Y-71.374
X133.44Y-66.294
X135.636Y-62.738
X135.636Y-68.072
X135.89Y-71.374
X136.652Y-62.738
X136.652Y-64.695
X136.652Y-66.294
X136.652Y-68.072
X137.16Y-69.025
X137.668Y-62.738
X137.668Y-68.072
X138.684Y-62.738
X139.446Y-59.563
X140.462Y-59.563
X141.351Y-60.071
T2
X125.73Y-73.25
X128.27Y-73.25
X130.81Y-73.25
X133.35Y-73.25
X135.89Y-73.25
X138.43Y-73.25
X140.97Y-73.25
X143.51Y-73.25
T0
M30
