G04 #@! TF.GenerationSoftware,KiCad,Pcbnew,(5.0.1-3-g963ef8bb5)*
G04 #@! TF.CreationDate,2018-11-23T17:17:20+10:30*
G04 #@! TF.ProjectId,rgb-led-board,7267622D6C65642D626F6172642E6B69,1.0*
G04 #@! TF.SameCoordinates,Original*
G04 #@! TF.FileFunction,Legend,Top*
G04 #@! TF.FilePolarity,Positive*
%FSLAX46Y46*%
G04 Gerber Fmt 4.6, Leading zero omitted, Abs format (unit mm)*
G04 Created by KiCad (PCBNEW (5.0.1-3-g963ef8bb5)) date Friday, 23 November 2018 at 05:17:20 pm*
%MOMM*%
%LPD*%
G01*
G04 APERTURE LIST*
%ADD10C,0.300000*%
%ADD11C,0.250000*%
%ADD12C,0.275000*%
%ADD13C,0.120000*%
%ADD14C,0.150000*%
G04 APERTURE END LIST*
D10*
X141251714Y-64214285D02*
X141323142Y-64142857D01*
X141394571Y-64214285D01*
X141323142Y-64285714D01*
X141251714Y-64214285D01*
X141394571Y-64214285D01*
X141251714Y-63500000D02*
X141323142Y-63428571D01*
X141394571Y-63500000D01*
X141323142Y-63571428D01*
X141251714Y-63500000D01*
X141394571Y-63500000D01*
X141251714Y-62785714D02*
X141323142Y-62714285D01*
X141394571Y-62785714D01*
X141323142Y-62857142D01*
X141251714Y-62785714D01*
X141394571Y-62785714D01*
X141251714Y-67032142D02*
X141323142Y-66960714D01*
X141394571Y-67032142D01*
X141323142Y-67103571D01*
X141251714Y-67032142D01*
X141394571Y-67032142D01*
X141251714Y-66317857D02*
X141323142Y-66246428D01*
X141394571Y-66317857D01*
X141323142Y-66389285D01*
X141251714Y-66317857D01*
X141394571Y-66317857D01*
X141351000Y-69750714D02*
X141422428Y-69822142D01*
X141351000Y-69893571D01*
X141279571Y-69822142D01*
X141351000Y-69750714D01*
X141351000Y-69893571D01*
D11*
X140589047Y-60332928D02*
X141350952Y-60332928D01*
X140970000Y-60713880D02*
X140970000Y-59951976D01*
D12*
X128348571Y-61379047D02*
X128348571Y-60540952D01*
X127850952Y-69293571D02*
X128689047Y-69293571D01*
X128270000Y-69712619D02*
X128270000Y-68874523D01*
D13*
G04 #@! TO.C,C1*
X128508000Y-63805000D02*
X128508000Y-67005000D01*
X131588000Y-63805000D02*
X131588000Y-67005000D01*
G04 #@! TO.C,R1*
X131280000Y-59020000D02*
X132880000Y-59020000D01*
X131280000Y-60360000D02*
X132880000Y-60360000D01*
G04 #@! TO.C,R2*
X131280000Y-62265000D02*
X132880000Y-62265000D01*
X131280000Y-60925000D02*
X132880000Y-60925000D01*
G04 #@! TO.C,U1*
X138182000Y-67225000D02*
X138382000Y-67225000D01*
X138182000Y-67225000D02*
X138182000Y-67435000D01*
X138182000Y-63585000D02*
X138182000Y-63375000D01*
X135122000Y-63585000D02*
X135122000Y-63375000D01*
X135122000Y-63375000D02*
X138182000Y-63375000D01*
X135122000Y-67225000D02*
X135122000Y-67435000D01*
X135122000Y-67435000D02*
X138182000Y-67435000D01*
D14*
G04 #@! TO.C,P3*
X127000000Y-71980000D02*
X144780000Y-71980000D01*
X144780000Y-71980000D02*
X144780000Y-74520000D01*
X144780000Y-74520000D02*
X127000000Y-74520000D01*
X124180000Y-71700000D02*
X125730000Y-71700000D01*
X127000000Y-71980000D02*
X127000000Y-74520000D01*
X125730000Y-74800000D02*
X124180000Y-74800000D01*
X124180000Y-74800000D02*
X124180000Y-71700000D01*
D13*
G04 #@! TO.C,SL1*
X135202000Y-60990000D02*
X138102000Y-60990000D01*
X135202000Y-59660000D02*
X138102000Y-59660000D01*
X135232000Y-59660000D02*
X135232000Y-60990000D01*
X138072000Y-59660000D02*
X138072000Y-60990000D01*
G04 #@! TD*
M02*
