G04 #@! TF.GenerationSoftware,KiCad,Pcbnew,(5.0.1-3-g963ef8bb5)*
G04 #@! TF.CreationDate,2018-11-23T17:17:20+10:30*
G04 #@! TF.ProjectId,rgb-led-board,7267622D6C65642D626F6172642E6B69,1.0*
G04 #@! TF.SameCoordinates,Original*
G04 #@! TF.FileFunction,Legend,Bot*
G04 #@! TF.FilePolarity,Positive*
%FSLAX46Y46*%
G04 Gerber Fmt 4.6, Leading zero omitted, Abs format (unit mm)*
G04 Created by KiCad (PCBNEW (5.0.1-3-g963ef8bb5)) date Friday, 23 November 2018 at 05:17:20 pm*
%MOMM*%
%LPD*%
G01*
G04 APERTURE LIST*
%ADD10C,0.180000*%
%ADD11C,0.200000*%
G04 APERTURE END LIST*
D10*
X141472880Y-58616357D02*
X141472880Y-59235404D01*
X141853833Y-58902071D01*
X141853833Y-59044928D01*
X141901452Y-59140166D01*
X141949071Y-59187785D01*
X142044309Y-59235404D01*
X142282404Y-59235404D01*
X142377642Y-59187785D01*
X142425261Y-59140166D01*
X142472880Y-59044928D01*
X142472880Y-58759214D01*
X142425261Y-58663976D01*
X142377642Y-58616357D01*
X142472880Y-59568738D02*
X141806214Y-60092547D01*
X141806214Y-59568738D02*
X142472880Y-60092547D01*
X141472880Y-60663976D02*
X141472880Y-60759214D01*
X141520500Y-60854452D01*
X141568119Y-60902071D01*
X141663357Y-60949690D01*
X141853833Y-60997309D01*
X142091928Y-60997309D01*
X142282404Y-60949690D01*
X142377642Y-60902071D01*
X142425261Y-60854452D01*
X142472880Y-60759214D01*
X142472880Y-60663976D01*
X142425261Y-60568738D01*
X142377642Y-60521119D01*
X142282404Y-60473500D01*
X142091928Y-60425880D01*
X141853833Y-60425880D01*
X141663357Y-60473500D01*
X141568119Y-60521119D01*
X141520500Y-60568738D01*
X141472880Y-60663976D01*
X142377642Y-61425880D02*
X142425261Y-61473500D01*
X142472880Y-61425880D01*
X142425261Y-61378261D01*
X142377642Y-61425880D01*
X142472880Y-61425880D01*
X141472880Y-62378261D02*
X141472880Y-61902071D01*
X141949071Y-61854452D01*
X141901452Y-61902071D01*
X141853833Y-61997309D01*
X141853833Y-62235404D01*
X141901452Y-62330642D01*
X141949071Y-62378261D01*
X142044309Y-62425880D01*
X142282404Y-62425880D01*
X142377642Y-62378261D01*
X142425261Y-62330642D01*
X142472880Y-62235404D01*
X142472880Y-61997309D01*
X142425261Y-61902071D01*
X142377642Y-61854452D01*
X142187166Y-62806833D02*
X142187166Y-63283023D01*
X142472880Y-62711595D02*
X141472880Y-63044928D01*
X142472880Y-63378261D01*
X142472880Y-64949690D02*
X142472880Y-64473500D01*
X141472880Y-64473500D01*
X141949071Y-65283023D02*
X141949071Y-65616357D01*
X142472880Y-65759214D02*
X142472880Y-65283023D01*
X141472880Y-65283023D01*
X141472880Y-65759214D01*
X142472880Y-66187785D02*
X141472880Y-66187785D01*
X141472880Y-66425880D01*
X141520500Y-66568738D01*
X141615738Y-66663976D01*
X141710976Y-66711595D01*
X141901452Y-66759214D01*
X142044309Y-66759214D01*
X142234785Y-66711595D01*
X142330023Y-66663976D01*
X142425261Y-66568738D01*
X142472880Y-66425880D01*
X142472880Y-66187785D01*
X144057642Y-59283023D02*
X144105261Y-59235404D01*
X144152880Y-59092547D01*
X144152880Y-58997309D01*
X144105261Y-58854452D01*
X144010023Y-58759214D01*
X143914785Y-58711595D01*
X143724309Y-58663976D01*
X143581452Y-58663976D01*
X143390976Y-58711595D01*
X143295738Y-58759214D01*
X143200500Y-58854452D01*
X143152880Y-58997309D01*
X143152880Y-59092547D01*
X143200500Y-59235404D01*
X143248119Y-59283023D01*
X143152880Y-59902071D02*
X143152880Y-60092547D01*
X143200500Y-60187785D01*
X143295738Y-60283023D01*
X143486214Y-60330642D01*
X143819547Y-60330642D01*
X144010023Y-60283023D01*
X144105261Y-60187785D01*
X144152880Y-60092547D01*
X144152880Y-59902071D01*
X144105261Y-59806833D01*
X144010023Y-59711595D01*
X143819547Y-59663976D01*
X143486214Y-59663976D01*
X143295738Y-59711595D01*
X143200500Y-59806833D01*
X143152880Y-59902071D01*
X144152880Y-60759214D02*
X143152880Y-60759214D01*
X143867166Y-61092547D01*
X143152880Y-61425880D01*
X144152880Y-61425880D01*
X144152880Y-61902071D02*
X143152880Y-61902071D01*
X143867166Y-62235404D01*
X143152880Y-62568738D01*
X144152880Y-62568738D01*
X143867166Y-63759214D02*
X143867166Y-64235404D01*
X144152880Y-63663976D02*
X143152880Y-63997309D01*
X144152880Y-64330642D01*
X144152880Y-64663976D02*
X143152880Y-64663976D01*
X144152880Y-65235404D01*
X143152880Y-65235404D01*
X143152880Y-65902071D02*
X143152880Y-66092547D01*
X143200500Y-66187785D01*
X143295738Y-66283023D01*
X143486214Y-66330642D01*
X143819547Y-66330642D01*
X144010023Y-66283023D01*
X144105261Y-66187785D01*
X144152880Y-66092547D01*
X144152880Y-65902071D01*
X144105261Y-65806833D01*
X144010023Y-65711595D01*
X143819547Y-65663976D01*
X143486214Y-65663976D01*
X143295738Y-65711595D01*
X143200500Y-65806833D01*
X143152880Y-65902071D01*
X144152880Y-66759214D02*
X143152880Y-66759214D01*
X143152880Y-66997309D01*
X143200500Y-67140166D01*
X143295738Y-67235404D01*
X143390976Y-67283023D01*
X143581452Y-67330642D01*
X143724309Y-67330642D01*
X143914785Y-67283023D01*
X144010023Y-67235404D01*
X144105261Y-67140166D01*
X144152880Y-66997309D01*
X144152880Y-66759214D01*
X143629071Y-67759214D02*
X143629071Y-68092547D01*
X144152880Y-68235404D02*
X144152880Y-67759214D01*
X143152880Y-67759214D01*
X143152880Y-68235404D01*
X145785261Y-58663976D02*
X145832880Y-58806833D01*
X145832880Y-59044928D01*
X145785261Y-59140166D01*
X145737642Y-59187785D01*
X145642404Y-59235404D01*
X145547166Y-59235404D01*
X145451928Y-59187785D01*
X145404309Y-59140166D01*
X145356690Y-59044928D01*
X145309071Y-58854452D01*
X145261452Y-58759214D01*
X145213833Y-58711595D01*
X145118595Y-58663976D01*
X145023357Y-58663976D01*
X144928119Y-58711595D01*
X144880500Y-58759214D01*
X144832880Y-58854452D01*
X144832880Y-59092547D01*
X144880500Y-59235404D01*
X145832880Y-60235404D02*
X145356690Y-59902071D01*
X145832880Y-59663976D02*
X144832880Y-59663976D01*
X144832880Y-60044928D01*
X144880500Y-60140166D01*
X144928119Y-60187785D01*
X145023357Y-60235404D01*
X145166214Y-60235404D01*
X145261452Y-60187785D01*
X145309071Y-60140166D01*
X145356690Y-60044928D01*
X145356690Y-59663976D01*
X145547166Y-60616357D02*
X145547166Y-61092547D01*
X145832880Y-60521119D02*
X144832880Y-60854452D01*
X145832880Y-61187785D01*
X145832880Y-61521119D02*
X144832880Y-61521119D01*
X144832880Y-61902071D01*
X144880500Y-61997309D01*
X144928119Y-62044928D01*
X145023357Y-62092547D01*
X145166214Y-62092547D01*
X145261452Y-62044928D01*
X145309071Y-61997309D01*
X145356690Y-61902071D01*
X145356690Y-61521119D01*
X145785261Y-62473500D02*
X145832880Y-62616357D01*
X145832880Y-62854452D01*
X145785261Y-62949690D01*
X145737642Y-62997309D01*
X145642404Y-63044928D01*
X145547166Y-63044928D01*
X145451928Y-62997309D01*
X145404309Y-62949690D01*
X145356690Y-62854452D01*
X145309071Y-62663976D01*
X145261452Y-62568738D01*
X145213833Y-62521119D01*
X145118595Y-62473500D01*
X145023357Y-62473500D01*
X144928119Y-62521119D01*
X144880500Y-62568738D01*
X144832880Y-62663976D01*
X144832880Y-62902071D01*
X144880500Y-63044928D01*
X144832880Y-63663976D02*
X144832880Y-63854452D01*
X144880500Y-63949690D01*
X144975738Y-64044928D01*
X145166214Y-64092547D01*
X145499547Y-64092547D01*
X145690023Y-64044928D01*
X145785261Y-63949690D01*
X145832880Y-63854452D01*
X145832880Y-63663976D01*
X145785261Y-63568738D01*
X145690023Y-63473500D01*
X145499547Y-63425880D01*
X145166214Y-63425880D01*
X144975738Y-63473500D01*
X144880500Y-63568738D01*
X144832880Y-63663976D01*
X145832880Y-64521119D02*
X144832880Y-64521119D01*
X145832880Y-65092547D01*
X144832880Y-65092547D01*
X144928119Y-66283023D02*
X144880500Y-66330642D01*
X144832880Y-66425880D01*
X144832880Y-66663976D01*
X144880500Y-66759214D01*
X144928119Y-66806833D01*
X145023357Y-66854452D01*
X145118595Y-66854452D01*
X145261452Y-66806833D01*
X145832880Y-66235404D01*
X145832880Y-66854452D01*
X144832880Y-67473500D02*
X144832880Y-67568738D01*
X144880500Y-67663976D01*
X144928119Y-67711595D01*
X145023357Y-67759214D01*
X145213833Y-67806833D01*
X145451928Y-67806833D01*
X145642404Y-67759214D01*
X145737642Y-67711595D01*
X145785261Y-67663976D01*
X145832880Y-67568738D01*
X145832880Y-67473500D01*
X145785261Y-67378261D01*
X145737642Y-67330642D01*
X145642404Y-67283023D01*
X145451928Y-67235404D01*
X145213833Y-67235404D01*
X145023357Y-67283023D01*
X144928119Y-67330642D01*
X144880500Y-67378261D01*
X144832880Y-67473500D01*
X145832880Y-68759214D02*
X145832880Y-68187785D01*
X145832880Y-68473500D02*
X144832880Y-68473500D01*
X144975738Y-68378261D01*
X145070976Y-68283023D01*
X145118595Y-68187785D01*
X145261452Y-69330642D02*
X145213833Y-69235404D01*
X145166214Y-69187785D01*
X145070976Y-69140166D01*
X145023357Y-69140166D01*
X144928119Y-69187785D01*
X144880500Y-69235404D01*
X144832880Y-69330642D01*
X144832880Y-69521119D01*
X144880500Y-69616357D01*
X144928119Y-69663976D01*
X145023357Y-69711595D01*
X145070976Y-69711595D01*
X145166214Y-69663976D01*
X145213833Y-69616357D01*
X145261452Y-69521119D01*
X145261452Y-69330642D01*
X145309071Y-69235404D01*
X145356690Y-69187785D01*
X145451928Y-69140166D01*
X145642404Y-69140166D01*
X145737642Y-69187785D01*
X145785261Y-69235404D01*
X145832880Y-69330642D01*
X145832880Y-69521119D01*
X145785261Y-69616357D01*
X145737642Y-69663976D01*
X145642404Y-69711595D01*
X145451928Y-69711595D01*
X145356690Y-69663976D01*
X145309071Y-69616357D01*
X145261452Y-69521119D01*
D11*
X125342857Y-59874500D02*
X125342857Y-60674500D01*
X126542857Y-60160214D01*
X126085714Y-61131642D02*
X126085714Y-62045928D01*
X125342857Y-62503071D02*
X125342857Y-63245928D01*
X125800000Y-62845928D01*
X125800000Y-63017357D01*
X125857142Y-63131642D01*
X125914285Y-63188785D01*
X126028571Y-63245928D01*
X126314285Y-63245928D01*
X126428571Y-63188785D01*
X126485714Y-63131642D01*
X126542857Y-63017357D01*
X126542857Y-62674500D01*
X126485714Y-62560214D01*
X126428571Y-62503071D01*
X125342857Y-63988785D02*
X125342857Y-64103071D01*
X125400000Y-64217357D01*
X125457142Y-64274500D01*
X125571428Y-64331642D01*
X125800000Y-64388785D01*
X126085714Y-64388785D01*
X126314285Y-64331642D01*
X126428571Y-64274500D01*
X126485714Y-64217357D01*
X126542857Y-64103071D01*
X126542857Y-63988785D01*
X126485714Y-63874500D01*
X126428571Y-63817357D01*
X126314285Y-63760214D01*
X126085714Y-63703071D01*
X125800000Y-63703071D01*
X125571428Y-63760214D01*
X125457142Y-63817357D01*
X125400000Y-63874500D01*
X125342857Y-63988785D01*
X125342857Y-64731642D02*
X126542857Y-65131642D01*
X125342857Y-65531642D01*
X128542857Y-60360214D02*
X127342857Y-60360214D01*
X128542857Y-60931642D02*
X127342857Y-60931642D01*
X128542857Y-61617357D01*
X127342857Y-61617357D01*
X128542857Y-62188785D02*
X127342857Y-62188785D01*
X127342857Y-62645928D01*
X127400000Y-62760214D01*
X127457142Y-62817357D01*
X127571428Y-62874500D01*
X127742857Y-62874500D01*
X127857142Y-62817357D01*
X127914285Y-62760214D01*
X127971428Y-62645928D01*
X127971428Y-62188785D01*
X127342857Y-63388785D02*
X128314285Y-63388785D01*
X128428571Y-63445928D01*
X128485714Y-63503071D01*
X128542857Y-63617357D01*
X128542857Y-63845928D01*
X128485714Y-63960214D01*
X128428571Y-64017357D01*
X128314285Y-64074500D01*
X127342857Y-64074500D01*
X127342857Y-64474500D02*
X127342857Y-65160214D01*
X128542857Y-64817357D02*
X127342857Y-64817357D01*
X144052857Y-70827857D02*
X144052857Y-70142142D01*
X144052857Y-70485000D02*
X142852857Y-70485000D01*
X143024285Y-70370714D01*
X143138571Y-70256428D01*
X143195714Y-70142142D01*
X140427142Y-70142142D02*
X140370000Y-70199285D01*
X140312857Y-70313571D01*
X140312857Y-70599285D01*
X140370000Y-70713571D01*
X140427142Y-70770714D01*
X140541428Y-70827857D01*
X140655714Y-70827857D01*
X140827142Y-70770714D01*
X141512857Y-70085000D01*
X141512857Y-70827857D01*
X137772857Y-70085000D02*
X137772857Y-70827857D01*
X138230000Y-70427857D01*
X138230000Y-70599285D01*
X138287142Y-70713571D01*
X138344285Y-70770714D01*
X138458571Y-70827857D01*
X138744285Y-70827857D01*
X138858571Y-70770714D01*
X138915714Y-70713571D01*
X138972857Y-70599285D01*
X138972857Y-70256428D01*
X138915714Y-70142142D01*
X138858571Y-70085000D01*
X134910000Y-67048333D02*
X134910000Y-67905476D01*
X135818571Y-67619761D02*
X135818571Y-67286428D01*
X136342380Y-67286428D02*
X135342380Y-67286428D01*
X135342380Y-67762619D01*
X134910000Y-67905476D02*
X134910000Y-68762619D01*
X136056666Y-68095952D02*
X136056666Y-68572142D01*
X136342380Y-68000714D02*
X135342380Y-68334047D01*
X136342380Y-68667380D01*
X134910000Y-68762619D02*
X134910000Y-69810238D01*
X135342380Y-69000714D02*
X136151904Y-69000714D01*
X136247142Y-69048333D01*
X136294761Y-69095952D01*
X136342380Y-69191190D01*
X136342380Y-69381666D01*
X136294761Y-69476904D01*
X136247142Y-69524523D01*
X136151904Y-69572142D01*
X135342380Y-69572142D01*
X134910000Y-69810238D02*
X134910000Y-70619761D01*
X136342380Y-70524523D02*
X136342380Y-70048333D01*
X135342380Y-70048333D01*
X134910000Y-70619761D02*
X134910000Y-71381666D01*
X135342380Y-70715000D02*
X135342380Y-71286428D01*
X136342380Y-71000714D02*
X135342380Y-71000714D01*
X133892857Y-68935714D02*
X132692857Y-68935714D01*
X132692857Y-69392857D01*
X132750000Y-69507142D01*
X132807142Y-69564285D01*
X132921428Y-69621428D01*
X133092857Y-69621428D01*
X133207142Y-69564285D01*
X133264285Y-69507142D01*
X133321428Y-69392857D01*
X133321428Y-68935714D01*
X132750000Y-70764285D02*
X132692857Y-70650000D01*
X132692857Y-70478571D01*
X132750000Y-70307142D01*
X132864285Y-70192857D01*
X132978571Y-70135714D01*
X133207142Y-70078571D01*
X133378571Y-70078571D01*
X133607142Y-70135714D01*
X133721428Y-70192857D01*
X133835714Y-70307142D01*
X133892857Y-70478571D01*
X133892857Y-70592857D01*
X133835714Y-70764285D01*
X133778571Y-70821428D01*
X133378571Y-70821428D01*
X133378571Y-70592857D01*
X130724285Y-68964285D02*
X130724285Y-69364285D01*
X131352857Y-69535714D02*
X131352857Y-68964285D01*
X130152857Y-68964285D01*
X130152857Y-69535714D01*
X131352857Y-70050000D02*
X130152857Y-70050000D01*
X131352857Y-70735714D01*
X130152857Y-70735714D01*
X127670000Y-68300714D02*
X127612857Y-68186428D01*
X127612857Y-68015000D01*
X127670000Y-67843571D01*
X127784285Y-67729285D01*
X127898571Y-67672142D01*
X128127142Y-67615000D01*
X128298571Y-67615000D01*
X128527142Y-67672142D01*
X128641428Y-67729285D01*
X128755714Y-67843571D01*
X128812857Y-68015000D01*
X128812857Y-68129285D01*
X128755714Y-68300714D01*
X128698571Y-68357857D01*
X128298571Y-68357857D01*
X128298571Y-68129285D01*
X128812857Y-68872142D02*
X127612857Y-68872142D01*
X128812857Y-69557857D01*
X127612857Y-69557857D01*
X128812857Y-70129285D02*
X127612857Y-70129285D01*
X127612857Y-70415000D01*
X127670000Y-70586428D01*
X127784285Y-70700714D01*
X127898571Y-70757857D01*
X128127142Y-70815000D01*
X128298571Y-70815000D01*
X128527142Y-70757857D01*
X128641428Y-70700714D01*
X128755714Y-70586428D01*
X128812857Y-70415000D01*
X128812857Y-70129285D01*
X125072857Y-67615000D02*
X126272857Y-68015000D01*
X125072857Y-68415000D01*
X126158571Y-69500714D02*
X126215714Y-69443571D01*
X126272857Y-69272142D01*
X126272857Y-69157857D01*
X126215714Y-68986428D01*
X126101428Y-68872142D01*
X125987142Y-68815000D01*
X125758571Y-68757857D01*
X125587142Y-68757857D01*
X125358571Y-68815000D01*
X125244285Y-68872142D01*
X125130000Y-68986428D01*
X125072857Y-69157857D01*
X125072857Y-69272142D01*
X125130000Y-69443571D01*
X125187142Y-69500714D01*
X126158571Y-70700714D02*
X126215714Y-70643571D01*
X126272857Y-70472142D01*
X126272857Y-70357857D01*
X126215714Y-70186428D01*
X126101428Y-70072142D01*
X125987142Y-70015000D01*
X125758571Y-69957857D01*
X125587142Y-69957857D01*
X125358571Y-70015000D01*
X125244285Y-70072142D01*
X125130000Y-70186428D01*
X125072857Y-70357857D01*
X125072857Y-70472142D01*
X125130000Y-70643571D01*
X125187142Y-70700714D01*
M02*
