G04 #@! TF.GenerationSoftware,KiCad,Pcbnew,(5.0.1-3-g963ef8bb5)*
G04 #@! TF.CreationDate,2018-11-23T17:17:20+10:30*
G04 #@! TF.ProjectId,rgb-led-board,7267622D6C65642D626F6172642E6B69,1.0*
G04 #@! TF.SameCoordinates,Original*
G04 #@! TF.FileFunction,Soldermask,Top*
G04 #@! TF.FilePolarity,Negative*
%FSLAX46Y46*%
G04 Gerber Fmt 4.6, Leading zero omitted, Abs format (unit mm)*
G04 Created by KiCad (PCBNEW (5.0.1-3-g963ef8bb5)) date Friday, 23 November 2018 at 05:17:20 pm*
%MOMM*%
%LPD*%
G01*
G04 APERTURE LIST*
%ADD10C,0.100000*%
G04 APERTURE END LIST*
D10*
G36*
X128439294Y-72246496D02*
X128559726Y-72283029D01*
X128602087Y-72295879D01*
X128752112Y-72376068D01*
X128883612Y-72483988D01*
X128991532Y-72615488D01*
X129071721Y-72765512D01*
X129084571Y-72807873D01*
X129121104Y-72928305D01*
X129133600Y-73055180D01*
X129133600Y-73444819D01*
X129121104Y-73571694D01*
X129084571Y-73692128D01*
X129071721Y-73734488D01*
X128991532Y-73884512D01*
X128883612Y-74016012D01*
X128752112Y-74123932D01*
X128602088Y-74204121D01*
X128559727Y-74216971D01*
X128439295Y-74253504D01*
X128326432Y-74264620D01*
X128270001Y-74270178D01*
X128270000Y-74270178D01*
X128100706Y-74253504D01*
X127980274Y-74216971D01*
X127937913Y-74204121D01*
X127787889Y-74123932D01*
X127697946Y-74050117D01*
X127656388Y-74016012D01*
X127548469Y-73884512D01*
X127548467Y-73884509D01*
X127468279Y-73734488D01*
X127455429Y-73692127D01*
X127418896Y-73571695D01*
X127406400Y-73444820D01*
X127406400Y-73055181D01*
X127418896Y-72928306D01*
X127468278Y-72765517D01*
X127468279Y-72765513D01*
X127548468Y-72615488D01*
X127656388Y-72483988D01*
X127787888Y-72376068D01*
X127937912Y-72295879D01*
X127980273Y-72283029D01*
X128100705Y-72246496D01*
X128227580Y-72234000D01*
X128269999Y-72229822D01*
X128270000Y-72229822D01*
X128439294Y-72246496D01*
X128439294Y-72246496D01*
G37*
G36*
X130979294Y-72246496D02*
X131099726Y-72283029D01*
X131142087Y-72295879D01*
X131292112Y-72376068D01*
X131423612Y-72483988D01*
X131531532Y-72615488D01*
X131611721Y-72765512D01*
X131624571Y-72807873D01*
X131661104Y-72928305D01*
X131673600Y-73055180D01*
X131673600Y-73444819D01*
X131661104Y-73571694D01*
X131624571Y-73692128D01*
X131611721Y-73734488D01*
X131531532Y-73884512D01*
X131423612Y-74016012D01*
X131292112Y-74123932D01*
X131142088Y-74204121D01*
X131099727Y-74216971D01*
X130979295Y-74253504D01*
X130866432Y-74264620D01*
X130810001Y-74270178D01*
X130810000Y-74270178D01*
X130640706Y-74253504D01*
X130520274Y-74216971D01*
X130477913Y-74204121D01*
X130327889Y-74123932D01*
X130237946Y-74050117D01*
X130196388Y-74016012D01*
X130088469Y-73884512D01*
X130088467Y-73884509D01*
X130008279Y-73734488D01*
X129995429Y-73692127D01*
X129958896Y-73571695D01*
X129946400Y-73444820D01*
X129946400Y-73055181D01*
X129958896Y-72928306D01*
X130008278Y-72765517D01*
X130008279Y-72765513D01*
X130088468Y-72615488D01*
X130196388Y-72483988D01*
X130327888Y-72376068D01*
X130477912Y-72295879D01*
X130520273Y-72283029D01*
X130640705Y-72246496D01*
X130767580Y-72234000D01*
X130809999Y-72229822D01*
X130810000Y-72229822D01*
X130979294Y-72246496D01*
X130979294Y-72246496D01*
G37*
G36*
X133519294Y-72246496D02*
X133639726Y-72283029D01*
X133682087Y-72295879D01*
X133832112Y-72376068D01*
X133963612Y-72483988D01*
X134071532Y-72615488D01*
X134151721Y-72765512D01*
X134164571Y-72807873D01*
X134201104Y-72928305D01*
X134213600Y-73055180D01*
X134213600Y-73444819D01*
X134201104Y-73571694D01*
X134164571Y-73692128D01*
X134151721Y-73734488D01*
X134071532Y-73884512D01*
X133963612Y-74016012D01*
X133832112Y-74123932D01*
X133682088Y-74204121D01*
X133639727Y-74216971D01*
X133519295Y-74253504D01*
X133406432Y-74264620D01*
X133350001Y-74270178D01*
X133350000Y-74270178D01*
X133180706Y-74253504D01*
X133060274Y-74216971D01*
X133017913Y-74204121D01*
X132867889Y-74123932D01*
X132777946Y-74050117D01*
X132736388Y-74016012D01*
X132628469Y-73884512D01*
X132628467Y-73884509D01*
X132548279Y-73734488D01*
X132535429Y-73692127D01*
X132498896Y-73571695D01*
X132486400Y-73444820D01*
X132486400Y-73055181D01*
X132498896Y-72928306D01*
X132548278Y-72765517D01*
X132548279Y-72765513D01*
X132628468Y-72615488D01*
X132736388Y-72483988D01*
X132867888Y-72376068D01*
X133017912Y-72295879D01*
X133060273Y-72283029D01*
X133180705Y-72246496D01*
X133307580Y-72234000D01*
X133349999Y-72229822D01*
X133350000Y-72229822D01*
X133519294Y-72246496D01*
X133519294Y-72246496D01*
G37*
G36*
X136059294Y-72246496D02*
X136179726Y-72283029D01*
X136222087Y-72295879D01*
X136372112Y-72376068D01*
X136503612Y-72483988D01*
X136611532Y-72615488D01*
X136691721Y-72765512D01*
X136704571Y-72807873D01*
X136741104Y-72928305D01*
X136753600Y-73055180D01*
X136753600Y-73444819D01*
X136741104Y-73571694D01*
X136704571Y-73692128D01*
X136691721Y-73734488D01*
X136611532Y-73884512D01*
X136503612Y-74016012D01*
X136372112Y-74123932D01*
X136222088Y-74204121D01*
X136179727Y-74216971D01*
X136059295Y-74253504D01*
X135946432Y-74264620D01*
X135890001Y-74270178D01*
X135890000Y-74270178D01*
X135720706Y-74253504D01*
X135600274Y-74216971D01*
X135557913Y-74204121D01*
X135407889Y-74123932D01*
X135317946Y-74050117D01*
X135276388Y-74016012D01*
X135168469Y-73884512D01*
X135168467Y-73884509D01*
X135088279Y-73734488D01*
X135075429Y-73692127D01*
X135038896Y-73571695D01*
X135026400Y-73444820D01*
X135026400Y-73055181D01*
X135038896Y-72928306D01*
X135088278Y-72765517D01*
X135088279Y-72765513D01*
X135168468Y-72615488D01*
X135276388Y-72483988D01*
X135407888Y-72376068D01*
X135557912Y-72295879D01*
X135600273Y-72283029D01*
X135720705Y-72246496D01*
X135847580Y-72234000D01*
X135889999Y-72229822D01*
X135890000Y-72229822D01*
X136059294Y-72246496D01*
X136059294Y-72246496D01*
G37*
G36*
X138599294Y-72246496D02*
X138719726Y-72283029D01*
X138762087Y-72295879D01*
X138912112Y-72376068D01*
X139043612Y-72483988D01*
X139151532Y-72615488D01*
X139231721Y-72765512D01*
X139244571Y-72807873D01*
X139281104Y-72928305D01*
X139293600Y-73055180D01*
X139293600Y-73444819D01*
X139281104Y-73571694D01*
X139244571Y-73692128D01*
X139231721Y-73734488D01*
X139151532Y-73884512D01*
X139043612Y-74016012D01*
X138912112Y-74123932D01*
X138762088Y-74204121D01*
X138719727Y-74216971D01*
X138599295Y-74253504D01*
X138486432Y-74264620D01*
X138430001Y-74270178D01*
X138430000Y-74270178D01*
X138260706Y-74253504D01*
X138140274Y-74216971D01*
X138097913Y-74204121D01*
X137947889Y-74123932D01*
X137857946Y-74050117D01*
X137816388Y-74016012D01*
X137708469Y-73884512D01*
X137708467Y-73884509D01*
X137628279Y-73734488D01*
X137615429Y-73692127D01*
X137578896Y-73571695D01*
X137566400Y-73444820D01*
X137566400Y-73055181D01*
X137578896Y-72928306D01*
X137628278Y-72765517D01*
X137628279Y-72765513D01*
X137708468Y-72615488D01*
X137816388Y-72483988D01*
X137947888Y-72376068D01*
X138097912Y-72295879D01*
X138140273Y-72283029D01*
X138260705Y-72246496D01*
X138387580Y-72234000D01*
X138429999Y-72229822D01*
X138430000Y-72229822D01*
X138599294Y-72246496D01*
X138599294Y-72246496D01*
G37*
G36*
X141139294Y-72246496D02*
X141259726Y-72283029D01*
X141302087Y-72295879D01*
X141452112Y-72376068D01*
X141583612Y-72483988D01*
X141691532Y-72615488D01*
X141771721Y-72765512D01*
X141784571Y-72807873D01*
X141821104Y-72928305D01*
X141833600Y-73055180D01*
X141833600Y-73444819D01*
X141821104Y-73571694D01*
X141784571Y-73692128D01*
X141771721Y-73734488D01*
X141691532Y-73884512D01*
X141583612Y-74016012D01*
X141452112Y-74123932D01*
X141302088Y-74204121D01*
X141259727Y-74216971D01*
X141139295Y-74253504D01*
X141026432Y-74264620D01*
X140970001Y-74270178D01*
X140970000Y-74270178D01*
X140800706Y-74253504D01*
X140680274Y-74216971D01*
X140637913Y-74204121D01*
X140487889Y-74123932D01*
X140397946Y-74050117D01*
X140356388Y-74016012D01*
X140248469Y-73884512D01*
X140248467Y-73884509D01*
X140168279Y-73734488D01*
X140155429Y-73692127D01*
X140118896Y-73571695D01*
X140106400Y-73444820D01*
X140106400Y-73055181D01*
X140118896Y-72928306D01*
X140168278Y-72765517D01*
X140168279Y-72765513D01*
X140248468Y-72615488D01*
X140356388Y-72483988D01*
X140487888Y-72376068D01*
X140637912Y-72295879D01*
X140680273Y-72283029D01*
X140800705Y-72246496D01*
X140927580Y-72234000D01*
X140969999Y-72229822D01*
X140970000Y-72229822D01*
X141139294Y-72246496D01*
X141139294Y-72246496D01*
G37*
G36*
X143679294Y-72246496D02*
X143799726Y-72283029D01*
X143842087Y-72295879D01*
X143992112Y-72376068D01*
X144123612Y-72483988D01*
X144231532Y-72615488D01*
X144311721Y-72765512D01*
X144324571Y-72807873D01*
X144361104Y-72928305D01*
X144373600Y-73055180D01*
X144373600Y-73444819D01*
X144361104Y-73571694D01*
X144324571Y-73692128D01*
X144311721Y-73734488D01*
X144231532Y-73884512D01*
X144123612Y-74016012D01*
X143992112Y-74123932D01*
X143842088Y-74204121D01*
X143799727Y-74216971D01*
X143679295Y-74253504D01*
X143566432Y-74264620D01*
X143510001Y-74270178D01*
X143510000Y-74270178D01*
X143340706Y-74253504D01*
X143220274Y-74216971D01*
X143177913Y-74204121D01*
X143027889Y-74123932D01*
X142937946Y-74050117D01*
X142896388Y-74016012D01*
X142788469Y-73884512D01*
X142788467Y-73884509D01*
X142708279Y-73734488D01*
X142695429Y-73692127D01*
X142658896Y-73571695D01*
X142646400Y-73444820D01*
X142646400Y-73055181D01*
X142658896Y-72928306D01*
X142708278Y-72765517D01*
X142708279Y-72765513D01*
X142788468Y-72615488D01*
X142896388Y-72483988D01*
X143027888Y-72376068D01*
X143177912Y-72295879D01*
X143220273Y-72283029D01*
X143340705Y-72246496D01*
X143467580Y-72234000D01*
X143509999Y-72229822D01*
X143510000Y-72229822D01*
X143679294Y-72246496D01*
X143679294Y-72246496D01*
G37*
G36*
X126593600Y-74266000D02*
X124866400Y-74266000D01*
X124866400Y-72234000D01*
X126593600Y-72234000D01*
X126593600Y-74266000D01*
X126593600Y-74266000D01*
G37*
G36*
X145792735Y-68858999D02*
X145874692Y-68883861D01*
X145950223Y-68924233D01*
X146016432Y-68978568D01*
X146070767Y-69044777D01*
X146111139Y-69120308D01*
X146136001Y-69202265D01*
X146145000Y-69293640D01*
X146145000Y-70406360D01*
X146136001Y-70497735D01*
X146111139Y-70579692D01*
X146070767Y-70655223D01*
X146016432Y-70721432D01*
X145950223Y-70775767D01*
X145874692Y-70816139D01*
X145792735Y-70841001D01*
X145701360Y-70850000D01*
X142588640Y-70850000D01*
X142497265Y-70841001D01*
X142415308Y-70816139D01*
X142339777Y-70775767D01*
X142273568Y-70721432D01*
X142219233Y-70655223D01*
X142178861Y-70579692D01*
X142153999Y-70497735D01*
X142145000Y-70406360D01*
X142145000Y-69293640D01*
X142153999Y-69202265D01*
X142178861Y-69120308D01*
X142219233Y-69044777D01*
X142273568Y-68978568D01*
X142339777Y-68924233D01*
X142415308Y-68883861D01*
X142497265Y-68858999D01*
X142588640Y-68850000D01*
X145701360Y-68850000D01*
X145792735Y-68858999D01*
X145792735Y-68858999D01*
G37*
G36*
X126742735Y-66953999D02*
X126824692Y-66978861D01*
X126900223Y-67019233D01*
X126966432Y-67073568D01*
X127020767Y-67139777D01*
X127061139Y-67215308D01*
X127086001Y-67297265D01*
X127095000Y-67388640D01*
X127095000Y-68501360D01*
X127086001Y-68592735D01*
X127061139Y-68674692D01*
X127020767Y-68750223D01*
X126966432Y-68816432D01*
X126900223Y-68870767D01*
X126824692Y-68911139D01*
X126742735Y-68936001D01*
X126651360Y-68945000D01*
X123538640Y-68945000D01*
X123447265Y-68936001D01*
X123365308Y-68911139D01*
X123289777Y-68870767D01*
X123223568Y-68816432D01*
X123169233Y-68750223D01*
X123128861Y-68674692D01*
X123103999Y-68592735D01*
X123095000Y-68501360D01*
X123095000Y-67388640D01*
X123103999Y-67297265D01*
X123128861Y-67215308D01*
X123169233Y-67139777D01*
X123223568Y-67073568D01*
X123289777Y-67019233D01*
X123365308Y-66978861D01*
X123447265Y-66953999D01*
X123538640Y-66945000D01*
X126651360Y-66945000D01*
X126742735Y-66953999D01*
X126742735Y-66953999D01*
G37*
G36*
X145792735Y-65683999D02*
X145874692Y-65708861D01*
X145950223Y-65749233D01*
X146016432Y-65803568D01*
X146070767Y-65869777D01*
X146111139Y-65945308D01*
X146136001Y-66027265D01*
X146145000Y-66118640D01*
X146145000Y-67231360D01*
X146136001Y-67322735D01*
X146111139Y-67404692D01*
X146070767Y-67480223D01*
X146016432Y-67546432D01*
X145950223Y-67600767D01*
X145874692Y-67641139D01*
X145792735Y-67666001D01*
X145701360Y-67675000D01*
X142588640Y-67675000D01*
X142497265Y-67666001D01*
X142415308Y-67641139D01*
X142339777Y-67600767D01*
X142273568Y-67546432D01*
X142219233Y-67480223D01*
X142178861Y-67404692D01*
X142153999Y-67322735D01*
X142145000Y-67231360D01*
X142145000Y-66118640D01*
X142153999Y-66027265D01*
X142178861Y-65945308D01*
X142219233Y-65869777D01*
X142273568Y-65803568D01*
X142339777Y-65749233D01*
X142415308Y-65708861D01*
X142497265Y-65683999D01*
X142588640Y-65675000D01*
X145701360Y-65675000D01*
X145792735Y-65683999D01*
X145792735Y-65683999D01*
G37*
G36*
X131224763Y-66304964D02*
X131267330Y-66317876D01*
X131306555Y-66338843D01*
X131340939Y-66367061D01*
X131369157Y-66401445D01*
X131390124Y-66440670D01*
X131403036Y-66483237D01*
X131408000Y-66533640D01*
X131408000Y-67226360D01*
X131403036Y-67276763D01*
X131390124Y-67319330D01*
X131369157Y-67358555D01*
X131340939Y-67392939D01*
X131306555Y-67421157D01*
X131267330Y-67442124D01*
X131224763Y-67455036D01*
X131174360Y-67460000D01*
X128921640Y-67460000D01*
X128871237Y-67455036D01*
X128828670Y-67442124D01*
X128789445Y-67421157D01*
X128755061Y-67392939D01*
X128726843Y-67358555D01*
X128705876Y-67319330D01*
X128692964Y-67276763D01*
X128688000Y-67226360D01*
X128688000Y-66533640D01*
X128692964Y-66483237D01*
X128705876Y-66440670D01*
X128726843Y-66401445D01*
X128755061Y-66367061D01*
X128789445Y-66338843D01*
X128828670Y-66317876D01*
X128871237Y-66304964D01*
X128921640Y-66300000D01*
X131174360Y-66300000D01*
X131224763Y-66304964D01*
X131224763Y-66304964D01*
G37*
G36*
X137579165Y-63760485D02*
X137602614Y-63767598D01*
X137627000Y-63770000D01*
X138502000Y-63770000D01*
X138502000Y-67040000D01*
X137627000Y-67040000D01*
X137602614Y-67042402D01*
X137579165Y-67049515D01*
X137568903Y-67055000D01*
X135735097Y-67055000D01*
X135724835Y-67049515D01*
X135701386Y-67042402D01*
X135677000Y-67040000D01*
X134802000Y-67040000D01*
X134802000Y-63770000D01*
X135677000Y-63770000D01*
X135701386Y-63767598D01*
X135724835Y-63760485D01*
X135735097Y-63755000D01*
X137568903Y-63755000D01*
X137579165Y-63760485D01*
X137579165Y-63760485D01*
G37*
G36*
X131224763Y-63354964D02*
X131267330Y-63367876D01*
X131306555Y-63388843D01*
X131340939Y-63417061D01*
X131369157Y-63451445D01*
X131390124Y-63490670D01*
X131403036Y-63533237D01*
X131408000Y-63583640D01*
X131408000Y-64276360D01*
X131403036Y-64326763D01*
X131390124Y-64369330D01*
X131369157Y-64408555D01*
X131340939Y-64442939D01*
X131306555Y-64471157D01*
X131267330Y-64492124D01*
X131224763Y-64505036D01*
X131174360Y-64510000D01*
X128921640Y-64510000D01*
X128871237Y-64505036D01*
X128828670Y-64492124D01*
X128789445Y-64471157D01*
X128755061Y-64442939D01*
X128726843Y-64408555D01*
X128705876Y-64369330D01*
X128692964Y-64326763D01*
X128688000Y-64276360D01*
X128688000Y-63583640D01*
X128692964Y-63533237D01*
X128705876Y-63490670D01*
X128726843Y-63451445D01*
X128755061Y-63417061D01*
X128789445Y-63388843D01*
X128828670Y-63367876D01*
X128871237Y-63354964D01*
X128921640Y-63350000D01*
X131174360Y-63350000D01*
X131224763Y-63354964D01*
X131224763Y-63354964D01*
G37*
G36*
X145792735Y-62508999D02*
X145874692Y-62533861D01*
X145950223Y-62574233D01*
X146016432Y-62628568D01*
X146070767Y-62694777D01*
X146111139Y-62770308D01*
X146136001Y-62852265D01*
X146145000Y-62943640D01*
X146145000Y-64056360D01*
X146136001Y-64147735D01*
X146111139Y-64229692D01*
X146070767Y-64305223D01*
X146016432Y-64371432D01*
X145950223Y-64425767D01*
X145874692Y-64466139D01*
X145792735Y-64491001D01*
X145701360Y-64500000D01*
X142588640Y-64500000D01*
X142497265Y-64491001D01*
X142415308Y-64466139D01*
X142339777Y-64425767D01*
X142273568Y-64371432D01*
X142219233Y-64305223D01*
X142178861Y-64229692D01*
X142153999Y-64147735D01*
X142145000Y-64056360D01*
X142145000Y-62943640D01*
X142153999Y-62852265D01*
X142178861Y-62770308D01*
X142219233Y-62694777D01*
X142273568Y-62628568D01*
X142339777Y-62574233D01*
X142415308Y-62533861D01*
X142497265Y-62508999D01*
X142588640Y-62500000D01*
X145701360Y-62500000D01*
X145792735Y-62508999D01*
X145792735Y-62508999D01*
G37*
G36*
X126742735Y-61238999D02*
X126824692Y-61263861D01*
X126900223Y-61304233D01*
X126966432Y-61358568D01*
X127020767Y-61424777D01*
X127061139Y-61500308D01*
X127086001Y-61582265D01*
X127095000Y-61673640D01*
X127095000Y-62786360D01*
X127086001Y-62877735D01*
X127061139Y-62959692D01*
X127020767Y-63035223D01*
X126966432Y-63101432D01*
X126900223Y-63155767D01*
X126824692Y-63196139D01*
X126742735Y-63221001D01*
X126651360Y-63230000D01*
X123538640Y-63230000D01*
X123447265Y-63221001D01*
X123365308Y-63196139D01*
X123289777Y-63155767D01*
X123223568Y-63101432D01*
X123169233Y-63035223D01*
X123128861Y-62959692D01*
X123103999Y-62877735D01*
X123095000Y-62786360D01*
X123095000Y-61673640D01*
X123103999Y-61582265D01*
X123128861Y-61500308D01*
X123169233Y-61424777D01*
X123223568Y-61358568D01*
X123289777Y-61304233D01*
X123365308Y-61263861D01*
X123447265Y-61238999D01*
X123538640Y-61230000D01*
X126651360Y-61230000D01*
X126742735Y-61238999D01*
X126742735Y-61238999D01*
G37*
G36*
X131609144Y-61108475D02*
X131637172Y-61116977D01*
X131662998Y-61130782D01*
X131685638Y-61149362D01*
X131704218Y-61172002D01*
X131718023Y-61197828D01*
X131726525Y-61225856D01*
X131730000Y-61261140D01*
X131730000Y-61928860D01*
X131726525Y-61964144D01*
X131718023Y-61992172D01*
X131704218Y-62017998D01*
X131685638Y-62040638D01*
X131662998Y-62059218D01*
X131637172Y-62073023D01*
X131609144Y-62081525D01*
X131573860Y-62085000D01*
X131036140Y-62085000D01*
X131000856Y-62081525D01*
X130972828Y-62073023D01*
X130947002Y-62059218D01*
X130924362Y-62040638D01*
X130905782Y-62017998D01*
X130891977Y-61992172D01*
X130883475Y-61964144D01*
X130880000Y-61928860D01*
X130880000Y-61261140D01*
X130883475Y-61225856D01*
X130891977Y-61197828D01*
X130905782Y-61172002D01*
X130924362Y-61149362D01*
X130947002Y-61130782D01*
X130972828Y-61116977D01*
X131000856Y-61108475D01*
X131036140Y-61105000D01*
X131573860Y-61105000D01*
X131609144Y-61108475D01*
X131609144Y-61108475D01*
G37*
G36*
X133159144Y-61108475D02*
X133187172Y-61116977D01*
X133212998Y-61130782D01*
X133235638Y-61149362D01*
X133254218Y-61172002D01*
X133268023Y-61197828D01*
X133276525Y-61225856D01*
X133280000Y-61261140D01*
X133280000Y-61928860D01*
X133276525Y-61964144D01*
X133268023Y-61992172D01*
X133254218Y-62017998D01*
X133235638Y-62040638D01*
X133212998Y-62059218D01*
X133187172Y-62073023D01*
X133159144Y-62081525D01*
X133123860Y-62085000D01*
X132586140Y-62085000D01*
X132550856Y-62081525D01*
X132522828Y-62073023D01*
X132497002Y-62059218D01*
X132474362Y-62040638D01*
X132455782Y-62017998D01*
X132441977Y-61992172D01*
X132433475Y-61964144D01*
X132430000Y-61928860D01*
X132430000Y-61261140D01*
X132433475Y-61225856D01*
X132441977Y-61197828D01*
X132455782Y-61172002D01*
X132474362Y-61149362D01*
X132497002Y-61130782D01*
X132522828Y-61116977D01*
X132550856Y-61108475D01*
X132586140Y-61105000D01*
X133123860Y-61105000D01*
X133159144Y-61108475D01*
X133159144Y-61108475D01*
G37*
G36*
X145792735Y-59333999D02*
X145874692Y-59358861D01*
X145950223Y-59399233D01*
X146016432Y-59453568D01*
X146070767Y-59519777D01*
X146111139Y-59595308D01*
X146136001Y-59677265D01*
X146145000Y-59768640D01*
X146145000Y-60881360D01*
X146136001Y-60972735D01*
X146111139Y-61054692D01*
X146070767Y-61130223D01*
X146016432Y-61196432D01*
X145950223Y-61250767D01*
X145874692Y-61291139D01*
X145792735Y-61316001D01*
X145701360Y-61325000D01*
X142588640Y-61325000D01*
X142497265Y-61316001D01*
X142415308Y-61291139D01*
X142339777Y-61250767D01*
X142273568Y-61196432D01*
X142219233Y-61130223D01*
X142178861Y-61054692D01*
X142153999Y-60972735D01*
X142145000Y-60881360D01*
X142145000Y-59768640D01*
X142153999Y-59677265D01*
X142178861Y-59595308D01*
X142219233Y-59519777D01*
X142273568Y-59453568D01*
X142339777Y-59399233D01*
X142415308Y-59358861D01*
X142497265Y-59333999D01*
X142588640Y-59325000D01*
X145701360Y-59325000D01*
X145792735Y-59333999D01*
X145792735Y-59333999D01*
G37*
G36*
X137887000Y-60810000D02*
X135417000Y-60810000D01*
X135417000Y-59840000D01*
X137887000Y-59840000D01*
X137887000Y-60810000D01*
X137887000Y-60810000D01*
G37*
G36*
X133159144Y-59203475D02*
X133187172Y-59211977D01*
X133212998Y-59225782D01*
X133235638Y-59244362D01*
X133254218Y-59267002D01*
X133268023Y-59292828D01*
X133276525Y-59320856D01*
X133280000Y-59356140D01*
X133280000Y-60023860D01*
X133276525Y-60059144D01*
X133268023Y-60087172D01*
X133254218Y-60112998D01*
X133235638Y-60135638D01*
X133212998Y-60154218D01*
X133187172Y-60168023D01*
X133159144Y-60176525D01*
X133123860Y-60180000D01*
X132586140Y-60180000D01*
X132550856Y-60176525D01*
X132522828Y-60168023D01*
X132497002Y-60154218D01*
X132474362Y-60135638D01*
X132455782Y-60112998D01*
X132441977Y-60087172D01*
X132433475Y-60059144D01*
X132430000Y-60023860D01*
X132430000Y-59356140D01*
X132433475Y-59320856D01*
X132441977Y-59292828D01*
X132455782Y-59267002D01*
X132474362Y-59244362D01*
X132497002Y-59225782D01*
X132522828Y-59211977D01*
X132550856Y-59203475D01*
X132586140Y-59200000D01*
X133123860Y-59200000D01*
X133159144Y-59203475D01*
X133159144Y-59203475D01*
G37*
G36*
X131609144Y-59203475D02*
X131637172Y-59211977D01*
X131662998Y-59225782D01*
X131685638Y-59244362D01*
X131704218Y-59267002D01*
X131718023Y-59292828D01*
X131726525Y-59320856D01*
X131730000Y-59356140D01*
X131730000Y-60023860D01*
X131726525Y-60059144D01*
X131718023Y-60087172D01*
X131704218Y-60112998D01*
X131685638Y-60135638D01*
X131662998Y-60154218D01*
X131637172Y-60168023D01*
X131609144Y-60176525D01*
X131573860Y-60180000D01*
X131036140Y-60180000D01*
X131000856Y-60176525D01*
X130972828Y-60168023D01*
X130947002Y-60154218D01*
X130924362Y-60135638D01*
X130905782Y-60112998D01*
X130891977Y-60087172D01*
X130883475Y-60059144D01*
X130880000Y-60023860D01*
X130880000Y-59356140D01*
X130883475Y-59320856D01*
X130891977Y-59292828D01*
X130905782Y-59267002D01*
X130924362Y-59244362D01*
X130947002Y-59225782D01*
X130972828Y-59211977D01*
X131000856Y-59203475D01*
X131036140Y-59200000D01*
X131573860Y-59200000D01*
X131609144Y-59203475D01*
X131609144Y-59203475D01*
G37*
M02*
