G04 #@! TF.GenerationSoftware,KiCad,Pcbnew,(5.0.1-3-g963ef8bb5)*
G04 #@! TF.CreationDate,2018-11-10T18:30:21+10:30*
G04 #@! TF.ProjectId,rgb-led-board,7267622D6C65642D626F6172642E6B69,1.0*
G04 #@! TF.SameCoordinates,Original*
G04 #@! TF.FileFunction,Soldermask,Top*
G04 #@! TF.FilePolarity,Negative*
%FSLAX46Y46*%
G04 Gerber Fmt 4.6, Leading zero omitted, Abs format (unit mm)*
G04 Created by KiCad (PCBNEW (5.0.1-3-g963ef8bb5)) date Saturday, 10 November 2018 at 06:30:21 pm*
%MOMM*%
%LPD*%
G01*
G04 APERTURE LIST*
%ADD10C,0.100000*%
G04 APERTURE END LIST*
D10*
G36*
X128478502Y-72049389D02*
X128678990Y-72110207D01*
X128863759Y-72208967D01*
X128863762Y-72208969D01*
X128863763Y-72208970D01*
X129025718Y-72341882D01*
X129025719Y-72341884D01*
X129025721Y-72341885D01*
X129158631Y-72503836D01*
X129257393Y-72688609D01*
X129318211Y-72889097D01*
X129333600Y-73045349D01*
X129333600Y-73454650D01*
X129318211Y-73610902D01*
X129257393Y-73811390D01*
X129158633Y-73996159D01*
X129158631Y-73996162D01*
X129158630Y-73996163D01*
X129025718Y-74158118D01*
X129025716Y-74158119D01*
X129025715Y-74158121D01*
X128863764Y-74291031D01*
X128678991Y-74389793D01*
X128478503Y-74450611D01*
X128270000Y-74471146D01*
X128061498Y-74450611D01*
X127861010Y-74389793D01*
X127676237Y-74291031D01*
X127514283Y-74158118D01*
X127381372Y-73996165D01*
X127381370Y-73996163D01*
X127282607Y-73811391D01*
X127263289Y-73747708D01*
X127221789Y-73610903D01*
X127206400Y-73454651D01*
X127206400Y-73045350D01*
X127221789Y-72889098D01*
X127282607Y-72688610D01*
X127381367Y-72503841D01*
X127514280Y-72341885D01*
X127514282Y-72341882D01*
X127514284Y-72341881D01*
X127514285Y-72341879D01*
X127676236Y-72208969D01*
X127861009Y-72110207D01*
X128061497Y-72049389D01*
X128270000Y-72028854D01*
X128478502Y-72049389D01*
X128478502Y-72049389D01*
G37*
G36*
X131018502Y-72049389D02*
X131218990Y-72110207D01*
X131403759Y-72208967D01*
X131403762Y-72208969D01*
X131403763Y-72208970D01*
X131565718Y-72341882D01*
X131565719Y-72341884D01*
X131565721Y-72341885D01*
X131698631Y-72503836D01*
X131797393Y-72688609D01*
X131858211Y-72889097D01*
X131873600Y-73045349D01*
X131873600Y-73454650D01*
X131858211Y-73610902D01*
X131797393Y-73811390D01*
X131698633Y-73996159D01*
X131698631Y-73996162D01*
X131698630Y-73996163D01*
X131565718Y-74158118D01*
X131565716Y-74158119D01*
X131565715Y-74158121D01*
X131403764Y-74291031D01*
X131218991Y-74389793D01*
X131018503Y-74450611D01*
X130810000Y-74471146D01*
X130601498Y-74450611D01*
X130401010Y-74389793D01*
X130216237Y-74291031D01*
X130054283Y-74158118D01*
X129921372Y-73996165D01*
X129921370Y-73996163D01*
X129822607Y-73811391D01*
X129803289Y-73747708D01*
X129761789Y-73610903D01*
X129746400Y-73454651D01*
X129746400Y-73045350D01*
X129761789Y-72889098D01*
X129822607Y-72688610D01*
X129921367Y-72503841D01*
X130054280Y-72341885D01*
X130054282Y-72341882D01*
X130054284Y-72341881D01*
X130054285Y-72341879D01*
X130216236Y-72208969D01*
X130401009Y-72110207D01*
X130601497Y-72049389D01*
X130810000Y-72028854D01*
X131018502Y-72049389D01*
X131018502Y-72049389D01*
G37*
G36*
X133558502Y-72049389D02*
X133758990Y-72110207D01*
X133943759Y-72208967D01*
X133943762Y-72208969D01*
X133943763Y-72208970D01*
X134105718Y-72341882D01*
X134105719Y-72341884D01*
X134105721Y-72341885D01*
X134238631Y-72503836D01*
X134337393Y-72688609D01*
X134398211Y-72889097D01*
X134413600Y-73045349D01*
X134413600Y-73454650D01*
X134398211Y-73610902D01*
X134337393Y-73811390D01*
X134238633Y-73996159D01*
X134238631Y-73996162D01*
X134238630Y-73996163D01*
X134105718Y-74158118D01*
X134105716Y-74158119D01*
X134105715Y-74158121D01*
X133943764Y-74291031D01*
X133758991Y-74389793D01*
X133558503Y-74450611D01*
X133350000Y-74471146D01*
X133141498Y-74450611D01*
X132941010Y-74389793D01*
X132756237Y-74291031D01*
X132594283Y-74158118D01*
X132461372Y-73996165D01*
X132461370Y-73996163D01*
X132362607Y-73811391D01*
X132343289Y-73747708D01*
X132301789Y-73610903D01*
X132286400Y-73454651D01*
X132286400Y-73045350D01*
X132301789Y-72889098D01*
X132362607Y-72688610D01*
X132461367Y-72503841D01*
X132594280Y-72341885D01*
X132594282Y-72341882D01*
X132594284Y-72341881D01*
X132594285Y-72341879D01*
X132756236Y-72208969D01*
X132941009Y-72110207D01*
X133141497Y-72049389D01*
X133350000Y-72028854D01*
X133558502Y-72049389D01*
X133558502Y-72049389D01*
G37*
G36*
X136098502Y-72049389D02*
X136298990Y-72110207D01*
X136483759Y-72208967D01*
X136483762Y-72208969D01*
X136483763Y-72208970D01*
X136645718Y-72341882D01*
X136645719Y-72341884D01*
X136645721Y-72341885D01*
X136778631Y-72503836D01*
X136877393Y-72688609D01*
X136938211Y-72889097D01*
X136953600Y-73045349D01*
X136953600Y-73454650D01*
X136938211Y-73610902D01*
X136877393Y-73811390D01*
X136778633Y-73996159D01*
X136778631Y-73996162D01*
X136778630Y-73996163D01*
X136645718Y-74158118D01*
X136645716Y-74158119D01*
X136645715Y-74158121D01*
X136483764Y-74291031D01*
X136298991Y-74389793D01*
X136098503Y-74450611D01*
X135890000Y-74471146D01*
X135681498Y-74450611D01*
X135481010Y-74389793D01*
X135296237Y-74291031D01*
X135134283Y-74158118D01*
X135001372Y-73996165D01*
X135001370Y-73996163D01*
X134902607Y-73811391D01*
X134883289Y-73747708D01*
X134841789Y-73610903D01*
X134826400Y-73454651D01*
X134826400Y-73045350D01*
X134841789Y-72889098D01*
X134902607Y-72688610D01*
X135001367Y-72503841D01*
X135134280Y-72341885D01*
X135134282Y-72341882D01*
X135134284Y-72341881D01*
X135134285Y-72341879D01*
X135296236Y-72208969D01*
X135481009Y-72110207D01*
X135681497Y-72049389D01*
X135890000Y-72028854D01*
X136098502Y-72049389D01*
X136098502Y-72049389D01*
G37*
G36*
X138638502Y-72049389D02*
X138838990Y-72110207D01*
X139023759Y-72208967D01*
X139023762Y-72208969D01*
X139023763Y-72208970D01*
X139185718Y-72341882D01*
X139185719Y-72341884D01*
X139185721Y-72341885D01*
X139318631Y-72503836D01*
X139417393Y-72688609D01*
X139478211Y-72889097D01*
X139493600Y-73045349D01*
X139493600Y-73454650D01*
X139478211Y-73610902D01*
X139417393Y-73811390D01*
X139318633Y-73996159D01*
X139318631Y-73996162D01*
X139318630Y-73996163D01*
X139185718Y-74158118D01*
X139185716Y-74158119D01*
X139185715Y-74158121D01*
X139023764Y-74291031D01*
X138838991Y-74389793D01*
X138638503Y-74450611D01*
X138430000Y-74471146D01*
X138221498Y-74450611D01*
X138021010Y-74389793D01*
X137836237Y-74291031D01*
X137674283Y-74158118D01*
X137541372Y-73996165D01*
X137541370Y-73996163D01*
X137442607Y-73811391D01*
X137423289Y-73747708D01*
X137381789Y-73610903D01*
X137366400Y-73454651D01*
X137366400Y-73045350D01*
X137381789Y-72889098D01*
X137442607Y-72688610D01*
X137541367Y-72503841D01*
X137674280Y-72341885D01*
X137674282Y-72341882D01*
X137674284Y-72341881D01*
X137674285Y-72341879D01*
X137836236Y-72208969D01*
X138021009Y-72110207D01*
X138221497Y-72049389D01*
X138430000Y-72028854D01*
X138638502Y-72049389D01*
X138638502Y-72049389D01*
G37*
G36*
X141178502Y-72049389D02*
X141378990Y-72110207D01*
X141563759Y-72208967D01*
X141563762Y-72208969D01*
X141563763Y-72208970D01*
X141725718Y-72341882D01*
X141725719Y-72341884D01*
X141725721Y-72341885D01*
X141858631Y-72503836D01*
X141957393Y-72688609D01*
X142018211Y-72889097D01*
X142033600Y-73045349D01*
X142033600Y-73454650D01*
X142018211Y-73610902D01*
X141957393Y-73811390D01*
X141858633Y-73996159D01*
X141858631Y-73996162D01*
X141858630Y-73996163D01*
X141725718Y-74158118D01*
X141725716Y-74158119D01*
X141725715Y-74158121D01*
X141563764Y-74291031D01*
X141378991Y-74389793D01*
X141178503Y-74450611D01*
X140970000Y-74471146D01*
X140761498Y-74450611D01*
X140561010Y-74389793D01*
X140376237Y-74291031D01*
X140214283Y-74158118D01*
X140081372Y-73996165D01*
X140081370Y-73996163D01*
X139982607Y-73811391D01*
X139963289Y-73747708D01*
X139921789Y-73610903D01*
X139906400Y-73454651D01*
X139906400Y-73045350D01*
X139921789Y-72889098D01*
X139982607Y-72688610D01*
X140081367Y-72503841D01*
X140214280Y-72341885D01*
X140214282Y-72341882D01*
X140214284Y-72341881D01*
X140214285Y-72341879D01*
X140376236Y-72208969D01*
X140561009Y-72110207D01*
X140761497Y-72049389D01*
X140970000Y-72028854D01*
X141178502Y-72049389D01*
X141178502Y-72049389D01*
G37*
G36*
X143718502Y-72049389D02*
X143918990Y-72110207D01*
X144103759Y-72208967D01*
X144103762Y-72208969D01*
X144103763Y-72208970D01*
X144265718Y-72341882D01*
X144265719Y-72341884D01*
X144265721Y-72341885D01*
X144398631Y-72503836D01*
X144497393Y-72688609D01*
X144558211Y-72889097D01*
X144573600Y-73045349D01*
X144573600Y-73454650D01*
X144558211Y-73610902D01*
X144497393Y-73811390D01*
X144398633Y-73996159D01*
X144398631Y-73996162D01*
X144398630Y-73996163D01*
X144265718Y-74158118D01*
X144265716Y-74158119D01*
X144265715Y-74158121D01*
X144103764Y-74291031D01*
X143918991Y-74389793D01*
X143718503Y-74450611D01*
X143510000Y-74471146D01*
X143301498Y-74450611D01*
X143101010Y-74389793D01*
X142916237Y-74291031D01*
X142754283Y-74158118D01*
X142621372Y-73996165D01*
X142621370Y-73996163D01*
X142522607Y-73811391D01*
X142503289Y-73747708D01*
X142461789Y-73610903D01*
X142446400Y-73454651D01*
X142446400Y-73045350D01*
X142461789Y-72889098D01*
X142522607Y-72688610D01*
X142621367Y-72503841D01*
X142754280Y-72341885D01*
X142754282Y-72341882D01*
X142754284Y-72341881D01*
X142754285Y-72341879D01*
X142916236Y-72208969D01*
X143101009Y-72110207D01*
X143301497Y-72049389D01*
X143510000Y-72028854D01*
X143718502Y-72049389D01*
X143718502Y-72049389D01*
G37*
G36*
X126793600Y-74466000D02*
X124666400Y-74466000D01*
X124666400Y-72034000D01*
X126793600Y-72034000D01*
X126793600Y-74466000D01*
X126793600Y-74466000D01*
G37*
G36*
X145912241Y-68660921D02*
X146012965Y-68691475D01*
X146105780Y-68741085D01*
X146187142Y-68807858D01*
X146253915Y-68889220D01*
X146303525Y-68982035D01*
X146334079Y-69082759D01*
X146345000Y-69193640D01*
X146345000Y-70506360D01*
X146334079Y-70617241D01*
X146303525Y-70717965D01*
X146253915Y-70810780D01*
X146187142Y-70892142D01*
X146105780Y-70958915D01*
X146012965Y-71008525D01*
X145912241Y-71039079D01*
X145801360Y-71050000D01*
X142488640Y-71050000D01*
X142377759Y-71039079D01*
X142277035Y-71008525D01*
X142184220Y-70958915D01*
X142102858Y-70892142D01*
X142036085Y-70810780D01*
X141986475Y-70717965D01*
X141955921Y-70617241D01*
X141945000Y-70506360D01*
X141945000Y-69193640D01*
X141955921Y-69082759D01*
X141986475Y-68982035D01*
X142036085Y-68889220D01*
X142102858Y-68807858D01*
X142184220Y-68741085D01*
X142277035Y-68691475D01*
X142377759Y-68660921D01*
X142488640Y-68650000D01*
X145801360Y-68650000D01*
X145912241Y-68660921D01*
X145912241Y-68660921D01*
G37*
G36*
X126862241Y-66755921D02*
X126962965Y-66786475D01*
X127055780Y-66836085D01*
X127137142Y-66902858D01*
X127203915Y-66984220D01*
X127253525Y-67077035D01*
X127284079Y-67177759D01*
X127295000Y-67288640D01*
X127295000Y-68601360D01*
X127284079Y-68712241D01*
X127253525Y-68812965D01*
X127203915Y-68905780D01*
X127137142Y-68987142D01*
X127055780Y-69053915D01*
X126962965Y-69103525D01*
X126862241Y-69134079D01*
X126751360Y-69145000D01*
X123438640Y-69145000D01*
X123327759Y-69134079D01*
X123227035Y-69103525D01*
X123134220Y-69053915D01*
X123052858Y-68987142D01*
X122986085Y-68905780D01*
X122936475Y-68812965D01*
X122905921Y-68712241D01*
X122895000Y-68601360D01*
X122895000Y-67288640D01*
X122905921Y-67177759D01*
X122936475Y-67077035D01*
X122986085Y-66984220D01*
X123052858Y-66902858D01*
X123134220Y-66836085D01*
X123227035Y-66786475D01*
X123327759Y-66755921D01*
X123438640Y-66745000D01*
X126751360Y-66745000D01*
X126862241Y-66755921D01*
X126862241Y-66755921D01*
G37*
G36*
X145912241Y-65485921D02*
X146012965Y-65516475D01*
X146105780Y-65566085D01*
X146187142Y-65632858D01*
X146253915Y-65714220D01*
X146303525Y-65807035D01*
X146334079Y-65907759D01*
X146345000Y-66018640D01*
X146345000Y-67331360D01*
X146334079Y-67442241D01*
X146303525Y-67542965D01*
X146253915Y-67635780D01*
X146187142Y-67717142D01*
X146105780Y-67783915D01*
X146012965Y-67833525D01*
X145912241Y-67864079D01*
X145801360Y-67875000D01*
X142488640Y-67875000D01*
X142377759Y-67864079D01*
X142277035Y-67833525D01*
X142184220Y-67783915D01*
X142102858Y-67717142D01*
X142036085Y-67635780D01*
X141986475Y-67542965D01*
X141955921Y-67442241D01*
X141945000Y-67331360D01*
X141945000Y-66018640D01*
X141955921Y-65907759D01*
X141986475Y-65807035D01*
X142036085Y-65714220D01*
X142102858Y-65632858D01*
X142184220Y-65566085D01*
X142277035Y-65516475D01*
X142377759Y-65485921D01*
X142488640Y-65475000D01*
X145801360Y-65475000D01*
X145912241Y-65485921D01*
X145912241Y-65485921D01*
G37*
G36*
X131344275Y-66106886D02*
X131405594Y-66125487D01*
X131462117Y-66155699D01*
X131511650Y-66196350D01*
X131552301Y-66245883D01*
X131582513Y-66302406D01*
X131601114Y-66363725D01*
X131608000Y-66433641D01*
X131608000Y-67326359D01*
X131601114Y-67396275D01*
X131582513Y-67457594D01*
X131552301Y-67514117D01*
X131511650Y-67563650D01*
X131462117Y-67604301D01*
X131405594Y-67634513D01*
X131344275Y-67653114D01*
X131274359Y-67660000D01*
X128821641Y-67660000D01*
X128751725Y-67653114D01*
X128690406Y-67634513D01*
X128633883Y-67604301D01*
X128584350Y-67563650D01*
X128543699Y-67514117D01*
X128513487Y-67457594D01*
X128494886Y-67396275D01*
X128488000Y-67326359D01*
X128488000Y-66433641D01*
X128494886Y-66363725D01*
X128513487Y-66302406D01*
X128543699Y-66245883D01*
X128584350Y-66196350D01*
X128633883Y-66155699D01*
X128690406Y-66125487D01*
X128751725Y-66106886D01*
X128821641Y-66100000D01*
X131274359Y-66100000D01*
X131344275Y-66106886D01*
X131344275Y-66106886D01*
G37*
G36*
X137779165Y-63560485D02*
X137802614Y-63567598D01*
X137827000Y-63570000D01*
X138702000Y-63570000D01*
X138702000Y-67240000D01*
X137827000Y-67240000D01*
X137802614Y-67242402D01*
X137779165Y-67249515D01*
X137768903Y-67255000D01*
X135535097Y-67255000D01*
X135524835Y-67249515D01*
X135501386Y-67242402D01*
X135477000Y-67240000D01*
X134602000Y-67240000D01*
X134602000Y-63570000D01*
X135477000Y-63570000D01*
X135501386Y-63567598D01*
X135524835Y-63560485D01*
X135535097Y-63555000D01*
X137768903Y-63555000D01*
X137779165Y-63560485D01*
X137779165Y-63560485D01*
G37*
G36*
X131344275Y-63156886D02*
X131405594Y-63175487D01*
X131462117Y-63205699D01*
X131511650Y-63246350D01*
X131552301Y-63295883D01*
X131582513Y-63352406D01*
X131601114Y-63413725D01*
X131608000Y-63483641D01*
X131608000Y-64376359D01*
X131601114Y-64446275D01*
X131582513Y-64507594D01*
X131552301Y-64564117D01*
X131511650Y-64613650D01*
X131462117Y-64654301D01*
X131405594Y-64684513D01*
X131344275Y-64703114D01*
X131274359Y-64710000D01*
X128821641Y-64710000D01*
X128751725Y-64703114D01*
X128690406Y-64684513D01*
X128633883Y-64654301D01*
X128584350Y-64613650D01*
X128543699Y-64564117D01*
X128513487Y-64507594D01*
X128494886Y-64446275D01*
X128488000Y-64376359D01*
X128488000Y-63483641D01*
X128494886Y-63413725D01*
X128513487Y-63352406D01*
X128543699Y-63295883D01*
X128584350Y-63246350D01*
X128633883Y-63205699D01*
X128690406Y-63175487D01*
X128751725Y-63156886D01*
X128821641Y-63150000D01*
X131274359Y-63150000D01*
X131344275Y-63156886D01*
X131344275Y-63156886D01*
G37*
G36*
X145912241Y-62310921D02*
X146012965Y-62341475D01*
X146105780Y-62391085D01*
X146187142Y-62457858D01*
X146253915Y-62539220D01*
X146303525Y-62632035D01*
X146334079Y-62732759D01*
X146345000Y-62843640D01*
X146345000Y-64156360D01*
X146334079Y-64267241D01*
X146303525Y-64367965D01*
X146253915Y-64460780D01*
X146187142Y-64542142D01*
X146105780Y-64608915D01*
X146012965Y-64658525D01*
X145912241Y-64689079D01*
X145801360Y-64700000D01*
X142488640Y-64700000D01*
X142377759Y-64689079D01*
X142277035Y-64658525D01*
X142184220Y-64608915D01*
X142102858Y-64542142D01*
X142036085Y-64460780D01*
X141986475Y-64367965D01*
X141955921Y-64267241D01*
X141945000Y-64156360D01*
X141945000Y-62843640D01*
X141955921Y-62732759D01*
X141986475Y-62632035D01*
X142036085Y-62539220D01*
X142102858Y-62457858D01*
X142184220Y-62391085D01*
X142277035Y-62341475D01*
X142377759Y-62310921D01*
X142488640Y-62300000D01*
X145801360Y-62300000D01*
X145912241Y-62310921D01*
X145912241Y-62310921D01*
G37*
G36*
X126862241Y-61040921D02*
X126962965Y-61071475D01*
X127055780Y-61121085D01*
X127137142Y-61187858D01*
X127203915Y-61269220D01*
X127253525Y-61362035D01*
X127284079Y-61462759D01*
X127295000Y-61573640D01*
X127295000Y-62886360D01*
X127284079Y-62997241D01*
X127253525Y-63097965D01*
X127203915Y-63190780D01*
X127137142Y-63272142D01*
X127055780Y-63338915D01*
X126962965Y-63388525D01*
X126862241Y-63419079D01*
X126751360Y-63430000D01*
X123438640Y-63430000D01*
X123327759Y-63419079D01*
X123227035Y-63388525D01*
X123134220Y-63338915D01*
X123052858Y-63272142D01*
X122986085Y-63190780D01*
X122936475Y-63097965D01*
X122905921Y-62997241D01*
X122895000Y-62886360D01*
X122895000Y-61573640D01*
X122905921Y-61462759D01*
X122936475Y-61362035D01*
X122986085Y-61269220D01*
X123052858Y-61187858D01*
X123134220Y-61121085D01*
X123227035Y-61071475D01*
X123327759Y-61040921D01*
X123438640Y-61030000D01*
X126751360Y-61030000D01*
X126862241Y-61040921D01*
X126862241Y-61040921D01*
G37*
G36*
X131728653Y-60910397D02*
X131775440Y-60924589D01*
X131818558Y-60947637D01*
X131856349Y-60978651D01*
X131887363Y-61016442D01*
X131910411Y-61059560D01*
X131924603Y-61106347D01*
X131930000Y-61161141D01*
X131930000Y-62028859D01*
X131924603Y-62083653D01*
X131910411Y-62130440D01*
X131887363Y-62173558D01*
X131856349Y-62211349D01*
X131818558Y-62242363D01*
X131775440Y-62265411D01*
X131728653Y-62279603D01*
X131673859Y-62285000D01*
X130936141Y-62285000D01*
X130881347Y-62279603D01*
X130834560Y-62265411D01*
X130791442Y-62242363D01*
X130753651Y-62211349D01*
X130722637Y-62173558D01*
X130699589Y-62130440D01*
X130685397Y-62083653D01*
X130680000Y-62028859D01*
X130680000Y-61161141D01*
X130685397Y-61106347D01*
X130699589Y-61059560D01*
X130722637Y-61016442D01*
X130753651Y-60978651D01*
X130791442Y-60947637D01*
X130834560Y-60924589D01*
X130881347Y-60910397D01*
X130936141Y-60905000D01*
X131673859Y-60905000D01*
X131728653Y-60910397D01*
X131728653Y-60910397D01*
G37*
G36*
X133278653Y-60910397D02*
X133325440Y-60924589D01*
X133368558Y-60947637D01*
X133406349Y-60978651D01*
X133437363Y-61016442D01*
X133460411Y-61059560D01*
X133474603Y-61106347D01*
X133480000Y-61161141D01*
X133480000Y-62028859D01*
X133474603Y-62083653D01*
X133460411Y-62130440D01*
X133437363Y-62173558D01*
X133406349Y-62211349D01*
X133368558Y-62242363D01*
X133325440Y-62265411D01*
X133278653Y-62279603D01*
X133223859Y-62285000D01*
X132486141Y-62285000D01*
X132431347Y-62279603D01*
X132384560Y-62265411D01*
X132341442Y-62242363D01*
X132303651Y-62211349D01*
X132272637Y-62173558D01*
X132249589Y-62130440D01*
X132235397Y-62083653D01*
X132230000Y-62028859D01*
X132230000Y-61161141D01*
X132235397Y-61106347D01*
X132249589Y-61059560D01*
X132272637Y-61016442D01*
X132303651Y-60978651D01*
X132341442Y-60947637D01*
X132384560Y-60924589D01*
X132431347Y-60910397D01*
X132486141Y-60905000D01*
X133223859Y-60905000D01*
X133278653Y-60910397D01*
X133278653Y-60910397D01*
G37*
G36*
X145912241Y-59135921D02*
X146012965Y-59166475D01*
X146105780Y-59216085D01*
X146187142Y-59282858D01*
X146253915Y-59364220D01*
X146303525Y-59457035D01*
X146334079Y-59557759D01*
X146345000Y-59668640D01*
X146345000Y-60981360D01*
X146334079Y-61092241D01*
X146303525Y-61192965D01*
X146253915Y-61285780D01*
X146187142Y-61367142D01*
X146105780Y-61433915D01*
X146012965Y-61483525D01*
X145912241Y-61514079D01*
X145801360Y-61525000D01*
X142488640Y-61525000D01*
X142377759Y-61514079D01*
X142277035Y-61483525D01*
X142184220Y-61433915D01*
X142102858Y-61367142D01*
X142036085Y-61285780D01*
X141986475Y-61192965D01*
X141955921Y-61092241D01*
X141945000Y-60981360D01*
X141945000Y-59668640D01*
X141955921Y-59557759D01*
X141986475Y-59457035D01*
X142036085Y-59364220D01*
X142102858Y-59282858D01*
X142184220Y-59216085D01*
X142277035Y-59166475D01*
X142377759Y-59135921D01*
X142488640Y-59125000D01*
X145801360Y-59125000D01*
X145912241Y-59135921D01*
X145912241Y-59135921D01*
G37*
G36*
X138087000Y-61010000D02*
X135217000Y-61010000D01*
X135217000Y-59640000D01*
X138087000Y-59640000D01*
X138087000Y-61010000D01*
X138087000Y-61010000D01*
G37*
G36*
X133278653Y-59005397D02*
X133325440Y-59019589D01*
X133368558Y-59042637D01*
X133406349Y-59073651D01*
X133437363Y-59111442D01*
X133460411Y-59154560D01*
X133474603Y-59201347D01*
X133480000Y-59256141D01*
X133480000Y-60123859D01*
X133474603Y-60178653D01*
X133460411Y-60225440D01*
X133437363Y-60268558D01*
X133406349Y-60306349D01*
X133368558Y-60337363D01*
X133325440Y-60360411D01*
X133278653Y-60374603D01*
X133223859Y-60380000D01*
X132486141Y-60380000D01*
X132431347Y-60374603D01*
X132384560Y-60360411D01*
X132341442Y-60337363D01*
X132303651Y-60306349D01*
X132272637Y-60268558D01*
X132249589Y-60225440D01*
X132235397Y-60178653D01*
X132230000Y-60123859D01*
X132230000Y-59256141D01*
X132235397Y-59201347D01*
X132249589Y-59154560D01*
X132272637Y-59111442D01*
X132303651Y-59073651D01*
X132341442Y-59042637D01*
X132384560Y-59019589D01*
X132431347Y-59005397D01*
X132486141Y-59000000D01*
X133223859Y-59000000D01*
X133278653Y-59005397D01*
X133278653Y-59005397D01*
G37*
G36*
X131728653Y-59005397D02*
X131775440Y-59019589D01*
X131818558Y-59042637D01*
X131856349Y-59073651D01*
X131887363Y-59111442D01*
X131910411Y-59154560D01*
X131924603Y-59201347D01*
X131930000Y-59256141D01*
X131930000Y-60123859D01*
X131924603Y-60178653D01*
X131910411Y-60225440D01*
X131887363Y-60268558D01*
X131856349Y-60306349D01*
X131818558Y-60337363D01*
X131775440Y-60360411D01*
X131728653Y-60374603D01*
X131673859Y-60380000D01*
X130936141Y-60380000D01*
X130881347Y-60374603D01*
X130834560Y-60360411D01*
X130791442Y-60337363D01*
X130753651Y-60306349D01*
X130722637Y-60268558D01*
X130699589Y-60225440D01*
X130685397Y-60178653D01*
X130680000Y-60123859D01*
X130680000Y-59256141D01*
X130685397Y-59201347D01*
X130699589Y-59154560D01*
X130722637Y-59111442D01*
X130753651Y-59073651D01*
X130791442Y-59042637D01*
X130834560Y-59019589D01*
X130881347Y-59005397D01*
X130936141Y-59000000D01*
X131673859Y-59000000D01*
X131728653Y-59005397D01*
X131728653Y-59005397D01*
G37*
M02*
