G04 #@! TF.GenerationSoftware,KiCad,Pcbnew,(5.0.1-3-g963ef8bb5)*
G04 #@! TF.CreationDate,2018-11-23T17:17:20+10:30*
G04 #@! TF.ProjectId,rgb-led-board,7267622D6C65642D626F6172642E6B69,1.0*
G04 #@! TF.SameCoordinates,Original*
G04 #@! TF.FileFunction,Other,Comment*
%FSLAX46Y46*%
G04 Gerber Fmt 4.6, Leading zero omitted, Abs format (unit mm)*
G04 Created by KiCad (PCBNEW (5.0.1-3-g963ef8bb5)) date Friday, 23 November 2018 at 05:17:20 pm*
%MOMM*%
%LPD*%
G01*
G04 APERTURE LIST*
%ADD10C,0.300000*%
G04 APERTURE END LIST*
D10*
X157587642Y-54481571D02*
X157587642Y-52981571D01*
X158159071Y-52981571D01*
X158301928Y-53053000D01*
X158373357Y-53124428D01*
X158444785Y-53267285D01*
X158444785Y-53481571D01*
X158373357Y-53624428D01*
X158301928Y-53695857D01*
X158159071Y-53767285D01*
X157587642Y-53767285D01*
X159944785Y-54338714D02*
X159873357Y-54410142D01*
X159659071Y-54481571D01*
X159516214Y-54481571D01*
X159301928Y-54410142D01*
X159159071Y-54267285D01*
X159087642Y-54124428D01*
X159016214Y-53838714D01*
X159016214Y-53624428D01*
X159087642Y-53338714D01*
X159159071Y-53195857D01*
X159301928Y-53053000D01*
X159516214Y-52981571D01*
X159659071Y-52981571D01*
X159873357Y-53053000D01*
X159944785Y-53124428D01*
X161087642Y-53695857D02*
X161301928Y-53767285D01*
X161373357Y-53838714D01*
X161444785Y-53981571D01*
X161444785Y-54195857D01*
X161373357Y-54338714D01*
X161301928Y-54410142D01*
X161159071Y-54481571D01*
X160587642Y-54481571D01*
X160587642Y-52981571D01*
X161087642Y-52981571D01*
X161230500Y-53053000D01*
X161301928Y-53124428D01*
X161373357Y-53267285D01*
X161373357Y-53410142D01*
X161301928Y-53553000D01*
X161230500Y-53624428D01*
X161087642Y-53695857D01*
X160587642Y-53695857D01*
X163159071Y-54410142D02*
X163373357Y-54481571D01*
X163730500Y-54481571D01*
X163873357Y-54410142D01*
X163944785Y-54338714D01*
X164016214Y-54195857D01*
X164016214Y-54053000D01*
X163944785Y-53910142D01*
X163873357Y-53838714D01*
X163730500Y-53767285D01*
X163444785Y-53695857D01*
X163301928Y-53624428D01*
X163230500Y-53553000D01*
X163159071Y-53410142D01*
X163159071Y-53267285D01*
X163230500Y-53124428D01*
X163301928Y-53053000D01*
X163444785Y-52981571D01*
X163801928Y-52981571D01*
X164016214Y-53053000D01*
X164444785Y-53481571D02*
X165016214Y-53481571D01*
X164659071Y-52981571D02*
X164659071Y-54267285D01*
X164730500Y-54410142D01*
X164873357Y-54481571D01*
X165016214Y-54481571D01*
X166159071Y-54481571D02*
X166159071Y-53695857D01*
X166087642Y-53553000D01*
X165944785Y-53481571D01*
X165659071Y-53481571D01*
X165516214Y-53553000D01*
X166159071Y-54410142D02*
X166016214Y-54481571D01*
X165659071Y-54481571D01*
X165516214Y-54410142D01*
X165444785Y-54267285D01*
X165444785Y-54124428D01*
X165516214Y-53981571D01*
X165659071Y-53910142D01*
X166016214Y-53910142D01*
X166159071Y-53838714D01*
X167516214Y-54410142D02*
X167373357Y-54481571D01*
X167087642Y-54481571D01*
X166944785Y-54410142D01*
X166873357Y-54338714D01*
X166801928Y-54195857D01*
X166801928Y-53767285D01*
X166873357Y-53624428D01*
X166944785Y-53553000D01*
X167087642Y-53481571D01*
X167373357Y-53481571D01*
X167516214Y-53553000D01*
X168159071Y-54481571D02*
X168159071Y-52981571D01*
X168301928Y-53910142D02*
X168730500Y-54481571D01*
X168730500Y-53481571D02*
X168159071Y-54053000D01*
X170016214Y-53481571D02*
X170016214Y-54481571D01*
X169373357Y-53481571D02*
X169373357Y-54267285D01*
X169444785Y-54410142D01*
X169587642Y-54481571D01*
X169801928Y-54481571D01*
X169944785Y-54410142D01*
X170016214Y-54338714D01*
X170730500Y-53481571D02*
X170730500Y-54981571D01*
X170730500Y-53553000D02*
X170873357Y-53481571D01*
X171159071Y-53481571D01*
X171301928Y-53553000D01*
X171373357Y-53624428D01*
X171444785Y-53767285D01*
X171444785Y-54195857D01*
X171373357Y-54338714D01*
X171301928Y-54410142D01*
X171159071Y-54481571D01*
X170873357Y-54481571D01*
X170730500Y-54410142D01*
X157516214Y-58224428D02*
X157587642Y-58153000D01*
X157730500Y-58081571D01*
X158087642Y-58081571D01*
X158230500Y-58153000D01*
X158301928Y-58224428D01*
X158373357Y-58367285D01*
X158373357Y-58510142D01*
X158301928Y-58724428D01*
X157444785Y-59581571D01*
X158373357Y-59581571D01*
X160873357Y-59581571D02*
X160159071Y-59581571D01*
X160159071Y-58081571D01*
X162016214Y-59581571D02*
X162016214Y-58795857D01*
X161944785Y-58653000D01*
X161801928Y-58581571D01*
X161516214Y-58581571D01*
X161373357Y-58653000D01*
X162016214Y-59510142D02*
X161873357Y-59581571D01*
X161516214Y-59581571D01*
X161373357Y-59510142D01*
X161301928Y-59367285D01*
X161301928Y-59224428D01*
X161373357Y-59081571D01*
X161516214Y-59010142D01*
X161873357Y-59010142D01*
X162016214Y-58938714D01*
X162587642Y-58581571D02*
X162944785Y-59581571D01*
X163301928Y-58581571D02*
X162944785Y-59581571D01*
X162801928Y-59938714D01*
X162730500Y-60010142D01*
X162587642Y-60081571D01*
X164444785Y-59510142D02*
X164301928Y-59581571D01*
X164016214Y-59581571D01*
X163873357Y-59510142D01*
X163801928Y-59367285D01*
X163801928Y-58795857D01*
X163873357Y-58653000D01*
X164016214Y-58581571D01*
X164301928Y-58581571D01*
X164444785Y-58653000D01*
X164516214Y-58795857D01*
X164516214Y-58938714D01*
X163801928Y-59081571D01*
X165159071Y-59581571D02*
X165159071Y-58581571D01*
X165159071Y-58867285D02*
X165230500Y-58724428D01*
X165301928Y-58653000D01*
X165444785Y-58581571D01*
X165587642Y-58581571D01*
X158373357Y-62131571D02*
X157516214Y-62131571D01*
X157944785Y-62131571D02*
X157944785Y-60631571D01*
X157801928Y-60845857D01*
X157659071Y-60988714D01*
X157516214Y-61060142D01*
X159016214Y-61988714D02*
X159087642Y-62060142D01*
X159016214Y-62131571D01*
X158944785Y-62060142D01*
X159016214Y-61988714D01*
X159016214Y-62131571D01*
X160373357Y-60631571D02*
X160087642Y-60631571D01*
X159944785Y-60703000D01*
X159873357Y-60774428D01*
X159730500Y-60988714D01*
X159659071Y-61274428D01*
X159659071Y-61845857D01*
X159730500Y-61988714D01*
X159801928Y-62060142D01*
X159944785Y-62131571D01*
X160230500Y-62131571D01*
X160373357Y-62060142D01*
X160444785Y-61988714D01*
X160516214Y-61845857D01*
X160516214Y-61488714D01*
X160444785Y-61345857D01*
X160373357Y-61274428D01*
X160230500Y-61203000D01*
X159944785Y-61203000D01*
X159801928Y-61274428D01*
X159730500Y-61345857D01*
X159659071Y-61488714D01*
X161159071Y-62131571D02*
X161159071Y-61131571D01*
X161159071Y-61274428D02*
X161230500Y-61203000D01*
X161373357Y-61131571D01*
X161587642Y-61131571D01*
X161730500Y-61203000D01*
X161801928Y-61345857D01*
X161801928Y-62131571D01*
X161801928Y-61345857D02*
X161873357Y-61203000D01*
X162016214Y-61131571D01*
X162230500Y-61131571D01*
X162373357Y-61203000D01*
X162444785Y-61345857D01*
X162444785Y-62131571D01*
X163159071Y-62131571D02*
X163159071Y-61131571D01*
X163159071Y-61274428D02*
X163230500Y-61203000D01*
X163373357Y-61131571D01*
X163587642Y-61131571D01*
X163730500Y-61203000D01*
X163801928Y-61345857D01*
X163801928Y-62131571D01*
X163801928Y-61345857D02*
X163873357Y-61203000D01*
X164016214Y-61131571D01*
X164230500Y-61131571D01*
X164373357Y-61203000D01*
X164444785Y-61345857D01*
X164444785Y-62131571D01*
X166801928Y-61345857D02*
X166301928Y-61345857D01*
X166301928Y-62131571D02*
X166301928Y-60631571D01*
X167016214Y-60631571D01*
X168444785Y-62131571D02*
X167944785Y-61417285D01*
X167587642Y-62131571D02*
X167587642Y-60631571D01*
X168159071Y-60631571D01*
X168301928Y-60703000D01*
X168373357Y-60774428D01*
X168444785Y-60917285D01*
X168444785Y-61131571D01*
X168373357Y-61274428D01*
X168301928Y-61345857D01*
X168159071Y-61417285D01*
X167587642Y-61417285D01*
X169730500Y-61131571D02*
X169730500Y-62131571D01*
X169373357Y-60560142D02*
X169016214Y-61631571D01*
X169944785Y-61631571D01*
X157587642Y-63895857D02*
X158087642Y-63895857D01*
X158301928Y-64681571D02*
X157587642Y-64681571D01*
X157587642Y-63181571D01*
X158301928Y-63181571D01*
X158944785Y-64681571D02*
X158944785Y-63181571D01*
X159801928Y-64681571D01*
X159801928Y-63181571D01*
X160516214Y-64681571D02*
X160516214Y-63181571D01*
X162016214Y-63253000D02*
X161873357Y-63181571D01*
X161659071Y-63181571D01*
X161444785Y-63253000D01*
X161301928Y-63395857D01*
X161230500Y-63538714D01*
X161159071Y-63824428D01*
X161159071Y-64038714D01*
X161230500Y-64324428D01*
X161301928Y-64467285D01*
X161444785Y-64610142D01*
X161659071Y-64681571D01*
X161801928Y-64681571D01*
X162016214Y-64610142D01*
X162087642Y-64538714D01*
X162087642Y-64038714D01*
X161801928Y-64038714D01*
X164373357Y-63895857D02*
X163873357Y-63895857D01*
X163873357Y-64681571D02*
X163873357Y-63181571D01*
X164587642Y-63181571D01*
X165159071Y-64681571D02*
X165159071Y-63681571D01*
X165159071Y-63181571D02*
X165087642Y-63253000D01*
X165159071Y-63324428D01*
X165230500Y-63253000D01*
X165159071Y-63181571D01*
X165159071Y-63324428D01*
X165873357Y-63681571D02*
X165873357Y-64681571D01*
X165873357Y-63824428D02*
X165944785Y-63753000D01*
X166087642Y-63681571D01*
X166301928Y-63681571D01*
X166444785Y-63753000D01*
X166516214Y-63895857D01*
X166516214Y-64681571D01*
X167230500Y-64681571D02*
X167230500Y-63681571D01*
X167230500Y-63181571D02*
X167159071Y-63253000D01*
X167230500Y-63324428D01*
X167301928Y-63253000D01*
X167230500Y-63181571D01*
X167230500Y-63324428D01*
X167873357Y-64610142D02*
X168016214Y-64681571D01*
X168301928Y-64681571D01*
X168444785Y-64610142D01*
X168516214Y-64467285D01*
X168516214Y-64395857D01*
X168444785Y-64253000D01*
X168301928Y-64181571D01*
X168087642Y-64181571D01*
X167944785Y-64110142D01*
X167873357Y-63967285D01*
X167873357Y-63895857D01*
X167944785Y-63753000D01*
X168087642Y-63681571D01*
X168301928Y-63681571D01*
X168444785Y-63753000D01*
X169159071Y-64681571D02*
X169159071Y-63181571D01*
X169801928Y-64681571D02*
X169801928Y-63895857D01*
X169730500Y-63753000D01*
X169587642Y-63681571D01*
X169373357Y-63681571D01*
X169230500Y-63753000D01*
X169159071Y-63824428D01*
X157516214Y-65874428D02*
X157587642Y-65803000D01*
X157730500Y-65731571D01*
X158087642Y-65731571D01*
X158230500Y-65803000D01*
X158301928Y-65874428D01*
X158373357Y-66017285D01*
X158373357Y-66160142D01*
X158301928Y-66374428D01*
X157444785Y-67231571D01*
X158373357Y-67231571D01*
X159730500Y-65731571D02*
X159016214Y-65731571D01*
X158944785Y-66445857D01*
X159016214Y-66374428D01*
X159159071Y-66303000D01*
X159516214Y-66303000D01*
X159659071Y-66374428D01*
X159730500Y-66445857D01*
X159801928Y-66588714D01*
X159801928Y-66945857D01*
X159730500Y-67088714D01*
X159659071Y-67160142D01*
X159516214Y-67231571D01*
X159159071Y-67231571D01*
X159016214Y-67160142D01*
X158944785Y-67088714D01*
X160659071Y-65731571D02*
X160659071Y-66088714D01*
X160301928Y-65945857D02*
X160659071Y-66088714D01*
X161016214Y-65945857D01*
X160444785Y-66374428D02*
X160659071Y-66088714D01*
X160873357Y-66374428D01*
X162373357Y-67231571D02*
X161516214Y-67231571D01*
X161944785Y-67231571D02*
X161944785Y-65731571D01*
X161801928Y-65945857D01*
X161659071Y-66088714D01*
X161516214Y-66160142D01*
X163230500Y-66374428D02*
X163087642Y-66303000D01*
X163016214Y-66231571D01*
X162944785Y-66088714D01*
X162944785Y-66017285D01*
X163016214Y-65874428D01*
X163087642Y-65803000D01*
X163230500Y-65731571D01*
X163516214Y-65731571D01*
X163659071Y-65803000D01*
X163730500Y-65874428D01*
X163801928Y-66017285D01*
X163801928Y-66088714D01*
X163730500Y-66231571D01*
X163659071Y-66303000D01*
X163516214Y-66374428D01*
X163230500Y-66374428D01*
X163087642Y-66445857D01*
X163016214Y-66517285D01*
X162944785Y-66660142D01*
X162944785Y-66945857D01*
X163016214Y-67088714D01*
X163087642Y-67160142D01*
X163230500Y-67231571D01*
X163516214Y-67231571D01*
X163659071Y-67160142D01*
X163730500Y-67088714D01*
X163801928Y-66945857D01*
X163801928Y-66660142D01*
X163730500Y-66517285D01*
X163659071Y-66445857D01*
X163516214Y-66374428D01*
X164444785Y-67231571D02*
X164444785Y-66231571D01*
X164444785Y-66374428D02*
X164516214Y-66303000D01*
X164659071Y-66231571D01*
X164873357Y-66231571D01*
X165016214Y-66303000D01*
X165087642Y-66445857D01*
X165087642Y-67231571D01*
X165087642Y-66445857D02*
X165159071Y-66303000D01*
X165301928Y-66231571D01*
X165516214Y-66231571D01*
X165659071Y-66303000D01*
X165730500Y-66445857D01*
X165730500Y-67231571D01*
X166444785Y-67231571D02*
X166444785Y-66231571D01*
X166444785Y-66374428D02*
X166516214Y-66303000D01*
X166659071Y-66231571D01*
X166873357Y-66231571D01*
X167016214Y-66303000D01*
X167087642Y-66445857D01*
X167087642Y-67231571D01*
X167087642Y-66445857D02*
X167159071Y-66303000D01*
X167301928Y-66231571D01*
X167516214Y-66231571D01*
X167659071Y-66303000D01*
X167730500Y-66445857D01*
X167730500Y-67231571D01*
X157587642Y-68781571D02*
X158730500Y-69210142D01*
X157587642Y-69638714D01*
X159730500Y-68281571D02*
X159873357Y-68281571D01*
X160016214Y-68353000D01*
X160087642Y-68424428D01*
X160159071Y-68567285D01*
X160230500Y-68853000D01*
X160230500Y-69210142D01*
X160159071Y-69495857D01*
X160087642Y-69638714D01*
X160016214Y-69710142D01*
X159873357Y-69781571D01*
X159730500Y-69781571D01*
X159587642Y-69710142D01*
X159516214Y-69638714D01*
X159444785Y-69495857D01*
X159373357Y-69210142D01*
X159373357Y-68853000D01*
X159444785Y-68567285D01*
X159516214Y-68424428D01*
X159587642Y-68353000D01*
X159730500Y-68281571D01*
X160873357Y-69638714D02*
X160944785Y-69710142D01*
X160873357Y-69781571D01*
X160801928Y-69710142D01*
X160873357Y-69638714D01*
X160873357Y-69781571D01*
X161444785Y-68281571D02*
X162373357Y-68281571D01*
X161873357Y-68853000D01*
X162087642Y-68853000D01*
X162230500Y-68924428D01*
X162301928Y-68995857D01*
X162373357Y-69138714D01*
X162373357Y-69495857D01*
X162301928Y-69638714D01*
X162230500Y-69710142D01*
X162087642Y-69781571D01*
X161659071Y-69781571D01*
X161516214Y-69710142D01*
X161444785Y-69638714D01*
X163730500Y-68281571D02*
X163016214Y-68281571D01*
X162944785Y-68995857D01*
X163016214Y-68924428D01*
X163159071Y-68853000D01*
X163516214Y-68853000D01*
X163659071Y-68924428D01*
X163730500Y-68995857D01*
X163801928Y-69138714D01*
X163801928Y-69495857D01*
X163730500Y-69638714D01*
X163659071Y-69710142D01*
X163516214Y-69781571D01*
X163159071Y-69781571D01*
X163016214Y-69710142D01*
X162944785Y-69638714D01*
X164444785Y-69781571D02*
X164444785Y-68781571D01*
X164444785Y-68924428D02*
X164516214Y-68853000D01*
X164659071Y-68781571D01*
X164873357Y-68781571D01*
X165016214Y-68853000D01*
X165087642Y-68995857D01*
X165087642Y-69781571D01*
X165087642Y-68995857D02*
X165159071Y-68853000D01*
X165301928Y-68781571D01*
X165516214Y-68781571D01*
X165659071Y-68853000D01*
X165730500Y-68995857D01*
X165730500Y-69781571D01*
X166444785Y-69781571D02*
X166444785Y-68781571D01*
X166444785Y-68924428D02*
X166516214Y-68853000D01*
X166659071Y-68781571D01*
X166873357Y-68781571D01*
X167016214Y-68853000D01*
X167087642Y-68995857D01*
X167087642Y-69781571D01*
X167087642Y-68995857D02*
X167159071Y-68853000D01*
X167301928Y-68781571D01*
X167516214Y-68781571D01*
X167659071Y-68853000D01*
X167730500Y-68995857D01*
X167730500Y-69781571D01*
X169444785Y-68781571D02*
X169801928Y-69781571D01*
X170159071Y-68781571D01*
X170730500Y-69781571D02*
X170730500Y-68781571D01*
X170730500Y-68281571D02*
X170659071Y-68353000D01*
X170730500Y-68424428D01*
X170801928Y-68353000D01*
X170730500Y-68281571D01*
X170730500Y-68424428D01*
X172087642Y-69781571D02*
X172087642Y-68995857D01*
X172016214Y-68853000D01*
X171873357Y-68781571D01*
X171587642Y-68781571D01*
X171444785Y-68853000D01*
X172087642Y-69710142D02*
X171944785Y-69781571D01*
X171587642Y-69781571D01*
X171444785Y-69710142D01*
X171373357Y-69567285D01*
X171373357Y-69424428D01*
X171444785Y-69281571D01*
X171587642Y-69210142D01*
X171944785Y-69210142D01*
X172087642Y-69138714D01*
X174587642Y-69781571D02*
X174587642Y-68281571D01*
X174587642Y-69710142D02*
X174444785Y-69781571D01*
X174159071Y-69781571D01*
X174016214Y-69710142D01*
X173944785Y-69638714D01*
X173873357Y-69495857D01*
X173873357Y-69067285D01*
X173944785Y-68924428D01*
X174016214Y-68853000D01*
X174159071Y-68781571D01*
X174444785Y-68781571D01*
X174587642Y-68853000D01*
X175301928Y-69781571D02*
X175301928Y-68781571D01*
X175301928Y-69067285D02*
X175373357Y-68924428D01*
X175444785Y-68853000D01*
X175587642Y-68781571D01*
X175730500Y-68781571D01*
X176230500Y-69781571D02*
X176230500Y-68781571D01*
X176230500Y-68281571D02*
X176159071Y-68353000D01*
X176230500Y-68424428D01*
X176301928Y-68353000D01*
X176230500Y-68281571D01*
X176230500Y-68424428D01*
X177159071Y-69781571D02*
X177016214Y-69710142D01*
X176944785Y-69567285D01*
X176944785Y-68281571D01*
X177944785Y-69781571D02*
X177801928Y-69710142D01*
X177730500Y-69567285D01*
X177730500Y-68281571D01*
X157587642Y-71331571D02*
X158730500Y-71760142D01*
X157587642Y-72188714D01*
X159730500Y-70831571D02*
X159873357Y-70831571D01*
X160016214Y-70903000D01*
X160087642Y-70974428D01*
X160159071Y-71117285D01*
X160230500Y-71403000D01*
X160230500Y-71760142D01*
X160159071Y-72045857D01*
X160087642Y-72188714D01*
X160016214Y-72260142D01*
X159873357Y-72331571D01*
X159730500Y-72331571D01*
X159587642Y-72260142D01*
X159516214Y-72188714D01*
X159444785Y-72045857D01*
X159373357Y-71760142D01*
X159373357Y-71403000D01*
X159444785Y-71117285D01*
X159516214Y-70974428D01*
X159587642Y-70903000D01*
X159730500Y-70831571D01*
X160873357Y-72188714D02*
X160944785Y-72260142D01*
X160873357Y-72331571D01*
X160801928Y-72260142D01*
X160873357Y-72188714D01*
X160873357Y-72331571D01*
X161516214Y-70974428D02*
X161587642Y-70903000D01*
X161730500Y-70831571D01*
X162087642Y-70831571D01*
X162230500Y-70903000D01*
X162301928Y-70974428D01*
X162373357Y-71117285D01*
X162373357Y-71260142D01*
X162301928Y-71474428D01*
X161444785Y-72331571D01*
X162373357Y-72331571D01*
X163730500Y-70831571D02*
X163016214Y-70831571D01*
X162944785Y-71545857D01*
X163016214Y-71474428D01*
X163159071Y-71403000D01*
X163516214Y-71403000D01*
X163659071Y-71474428D01*
X163730500Y-71545857D01*
X163801928Y-71688714D01*
X163801928Y-72045857D01*
X163730500Y-72188714D01*
X163659071Y-72260142D01*
X163516214Y-72331571D01*
X163159071Y-72331571D01*
X163016214Y-72260142D01*
X162944785Y-72188714D01*
X164444785Y-72331571D02*
X164444785Y-71331571D01*
X164444785Y-71474428D02*
X164516214Y-71403000D01*
X164659071Y-71331571D01*
X164873357Y-71331571D01*
X165016214Y-71403000D01*
X165087642Y-71545857D01*
X165087642Y-72331571D01*
X165087642Y-71545857D02*
X165159071Y-71403000D01*
X165301928Y-71331571D01*
X165516214Y-71331571D01*
X165659071Y-71403000D01*
X165730500Y-71545857D01*
X165730500Y-72331571D01*
X166444785Y-72331571D02*
X166444785Y-71331571D01*
X166444785Y-71474428D02*
X166516214Y-71403000D01*
X166659071Y-71331571D01*
X166873357Y-71331571D01*
X167016214Y-71403000D01*
X167087642Y-71545857D01*
X167087642Y-72331571D01*
X167087642Y-71545857D02*
X167159071Y-71403000D01*
X167301928Y-71331571D01*
X167516214Y-71331571D01*
X167659071Y-71403000D01*
X167730500Y-71545857D01*
X167730500Y-72331571D01*
X170230500Y-72260142D02*
X170087642Y-72331571D01*
X169801928Y-72331571D01*
X169659071Y-72260142D01*
X169587642Y-72188714D01*
X169516214Y-72045857D01*
X169516214Y-71617285D01*
X169587642Y-71474428D01*
X169659071Y-71403000D01*
X169801928Y-71331571D01*
X170087642Y-71331571D01*
X170230500Y-71403000D01*
X171087642Y-72331571D02*
X170944785Y-72260142D01*
X170873357Y-72117285D01*
X170873357Y-70831571D01*
X172230500Y-72260142D02*
X172087642Y-72331571D01*
X171801928Y-72331571D01*
X171659071Y-72260142D01*
X171587642Y-72117285D01*
X171587642Y-71545857D01*
X171659071Y-71403000D01*
X171801928Y-71331571D01*
X172087642Y-71331571D01*
X172230500Y-71403000D01*
X172301928Y-71545857D01*
X172301928Y-71688714D01*
X171587642Y-71831571D01*
X173587642Y-72331571D02*
X173587642Y-71545857D01*
X173516214Y-71403000D01*
X173373357Y-71331571D01*
X173087642Y-71331571D01*
X172944785Y-71403000D01*
X173587642Y-72260142D02*
X173444785Y-72331571D01*
X173087642Y-72331571D01*
X172944785Y-72260142D01*
X172873357Y-72117285D01*
X172873357Y-71974428D01*
X172944785Y-71831571D01*
X173087642Y-71760142D01*
X173444785Y-71760142D01*
X173587642Y-71688714D01*
X174301928Y-72331571D02*
X174301928Y-71331571D01*
X174301928Y-71617285D02*
X174373357Y-71474428D01*
X174444785Y-71403000D01*
X174587642Y-71331571D01*
X174730500Y-71331571D01*
X175873357Y-72331571D02*
X175873357Y-71545857D01*
X175801928Y-71403000D01*
X175659071Y-71331571D01*
X175373357Y-71331571D01*
X175230500Y-71403000D01*
X175873357Y-72260142D02*
X175730500Y-72331571D01*
X175373357Y-72331571D01*
X175230500Y-72260142D01*
X175159071Y-72117285D01*
X175159071Y-71974428D01*
X175230500Y-71831571D01*
X175373357Y-71760142D01*
X175730500Y-71760142D01*
X175873357Y-71688714D01*
X176587642Y-71331571D02*
X176587642Y-72331571D01*
X176587642Y-71474428D02*
X176659071Y-71403000D01*
X176801928Y-71331571D01*
X177016214Y-71331571D01*
X177159071Y-71403000D01*
X177230500Y-71545857D01*
X177230500Y-72331571D01*
X178587642Y-72260142D02*
X178444785Y-72331571D01*
X178159071Y-72331571D01*
X178016214Y-72260142D01*
X177944785Y-72188714D01*
X177873357Y-72045857D01*
X177873357Y-71617285D01*
X177944785Y-71474428D01*
X178016214Y-71403000D01*
X178159071Y-71331571D01*
X178444785Y-71331571D01*
X178587642Y-71403000D01*
X179801928Y-72260142D02*
X179659071Y-72331571D01*
X179373357Y-72331571D01*
X179230500Y-72260142D01*
X179159071Y-72117285D01*
X179159071Y-71545857D01*
X179230500Y-71403000D01*
X179373357Y-71331571D01*
X179659071Y-71331571D01*
X179801928Y-71403000D01*
X179873357Y-71545857D01*
X179873357Y-71688714D01*
X179159071Y-71831571D01*
X157587642Y-77431571D02*
X157587642Y-75931571D01*
X158301928Y-76431571D02*
X158301928Y-77431571D01*
X158301928Y-76574428D02*
X158373357Y-76503000D01*
X158516214Y-76431571D01*
X158730500Y-76431571D01*
X158873357Y-76503000D01*
X158944785Y-76645857D01*
X158944785Y-77431571D01*
X159444785Y-76431571D02*
X160016214Y-76431571D01*
X159659071Y-77431571D02*
X159659071Y-76145857D01*
X159730500Y-76003000D01*
X159873357Y-75931571D01*
X160016214Y-75931571D01*
X160730500Y-77431571D02*
X160587642Y-77360142D01*
X160516214Y-77217285D01*
X160516214Y-75931571D01*
X161944785Y-77431571D02*
X161944785Y-76645857D01*
X161873357Y-76503000D01*
X161730500Y-76431571D01*
X161444785Y-76431571D01*
X161301928Y-76503000D01*
X161944785Y-77360142D02*
X161801928Y-77431571D01*
X161444785Y-77431571D01*
X161301928Y-77360142D01*
X161230500Y-77217285D01*
X161230500Y-77074428D01*
X161301928Y-76931571D01*
X161444785Y-76860142D01*
X161801928Y-76860142D01*
X161944785Y-76788714D01*
X162444785Y-76431571D02*
X163016214Y-76431571D01*
X162659071Y-75931571D02*
X162659071Y-77217285D01*
X162730500Y-77360142D01*
X162873357Y-77431571D01*
X163016214Y-77431571D01*
X164087642Y-77360142D02*
X163944785Y-77431571D01*
X163659071Y-77431571D01*
X163516214Y-77360142D01*
X163444785Y-77217285D01*
X163444785Y-76645857D01*
X163516214Y-76503000D01*
X163659071Y-76431571D01*
X163944785Y-76431571D01*
X164087642Y-76503000D01*
X164159071Y-76645857D01*
X164159071Y-76788714D01*
X163444785Y-76931571D01*
X165873357Y-77360142D02*
X166016214Y-77431571D01*
X166301928Y-77431571D01*
X166444785Y-77360142D01*
X166516214Y-77217285D01*
X166516214Y-77145857D01*
X166444785Y-77003000D01*
X166301928Y-76931571D01*
X166087642Y-76931571D01*
X165944785Y-76860142D01*
X165873357Y-76717285D01*
X165873357Y-76645857D01*
X165944785Y-76503000D01*
X166087642Y-76431571D01*
X166301928Y-76431571D01*
X166444785Y-76503000D01*
X167373357Y-77431571D02*
X167230500Y-77360142D01*
X167159071Y-77288714D01*
X167087642Y-77145857D01*
X167087642Y-76717285D01*
X167159071Y-76574428D01*
X167230500Y-76503000D01*
X167373357Y-76431571D01*
X167587642Y-76431571D01*
X167730500Y-76503000D01*
X167801928Y-76574428D01*
X167873357Y-76717285D01*
X167873357Y-77145857D01*
X167801928Y-77288714D01*
X167730500Y-77360142D01*
X167587642Y-77431571D01*
X167373357Y-77431571D01*
X168730500Y-77431571D02*
X168587642Y-77360142D01*
X168516214Y-77217285D01*
X168516214Y-75931571D01*
X169944785Y-77431571D02*
X169944785Y-75931571D01*
X169944785Y-77360142D02*
X169801928Y-77431571D01*
X169516214Y-77431571D01*
X169373357Y-77360142D01*
X169301928Y-77288714D01*
X169230500Y-77145857D01*
X169230500Y-76717285D01*
X169301928Y-76574428D01*
X169373357Y-76503000D01*
X169516214Y-76431571D01*
X169801928Y-76431571D01*
X169944785Y-76503000D01*
X171230500Y-77360142D02*
X171087642Y-77431571D01*
X170801928Y-77431571D01*
X170659071Y-77360142D01*
X170587642Y-77217285D01*
X170587642Y-76645857D01*
X170659071Y-76503000D01*
X170801928Y-76431571D01*
X171087642Y-76431571D01*
X171230500Y-76503000D01*
X171301928Y-76645857D01*
X171301928Y-76788714D01*
X170587642Y-76931571D01*
X171944785Y-77431571D02*
X171944785Y-76431571D01*
X171944785Y-76717285D02*
X172016214Y-76574428D01*
X172087642Y-76503000D01*
X172230500Y-76431571D01*
X172373357Y-76431571D01*
X172873357Y-77431571D02*
X172873357Y-76431571D01*
X172873357Y-76574428D02*
X172944785Y-76503000D01*
X173087642Y-76431571D01*
X173301928Y-76431571D01*
X173444785Y-76503000D01*
X173516214Y-76645857D01*
X173516214Y-77431571D01*
X173516214Y-76645857D02*
X173587642Y-76503000D01*
X173730500Y-76431571D01*
X173944785Y-76431571D01*
X174087642Y-76503000D01*
X174159071Y-76645857D01*
X174159071Y-77431571D01*
X175516214Y-77431571D02*
X175516214Y-76645857D01*
X175444785Y-76503000D01*
X175301928Y-76431571D01*
X175016214Y-76431571D01*
X174873357Y-76503000D01*
X175516214Y-77360142D02*
X175373357Y-77431571D01*
X175016214Y-77431571D01*
X174873357Y-77360142D01*
X174801928Y-77217285D01*
X174801928Y-77074428D01*
X174873357Y-76931571D01*
X175016214Y-76860142D01*
X175373357Y-76860142D01*
X175516214Y-76788714D01*
X176159071Y-77360142D02*
X176301928Y-77431571D01*
X176587642Y-77431571D01*
X176730500Y-77360142D01*
X176801928Y-77217285D01*
X176801928Y-77145857D01*
X176730500Y-77003000D01*
X176587642Y-76931571D01*
X176373357Y-76931571D01*
X176230500Y-76860142D01*
X176159071Y-76717285D01*
X176159071Y-76645857D01*
X176230500Y-76503000D01*
X176373357Y-76431571D01*
X176587642Y-76431571D01*
X176730500Y-76503000D01*
X177444785Y-77431571D02*
X177444785Y-75931571D01*
X177587642Y-76860142D02*
X178016214Y-77431571D01*
X178016214Y-76431571D02*
X177444785Y-77003000D01*
X180444785Y-77431571D02*
X180444785Y-76645857D01*
X180373357Y-76503000D01*
X180230500Y-76431571D01*
X179944785Y-76431571D01*
X179801928Y-76503000D01*
X180444785Y-77360142D02*
X180301928Y-77431571D01*
X179944785Y-77431571D01*
X179801928Y-77360142D01*
X179730500Y-77217285D01*
X179730500Y-77074428D01*
X179801928Y-76931571D01*
X179944785Y-76860142D01*
X180301928Y-76860142D01*
X180444785Y-76788714D01*
X181087642Y-77360142D02*
X181230500Y-77431571D01*
X181516214Y-77431571D01*
X181659071Y-77360142D01*
X181730500Y-77217285D01*
X181730500Y-77145857D01*
X181659071Y-77003000D01*
X181516214Y-76931571D01*
X181301928Y-76931571D01*
X181159071Y-76860142D01*
X181087642Y-76717285D01*
X181087642Y-76645857D01*
X181159071Y-76503000D01*
X181301928Y-76431571D01*
X181516214Y-76431571D01*
X181659071Y-76503000D01*
X183516214Y-77431571D02*
X183516214Y-76431571D01*
X183516214Y-76717285D02*
X183587642Y-76574428D01*
X183659071Y-76503000D01*
X183801928Y-76431571D01*
X183944785Y-76431571D01*
X185016214Y-77360142D02*
X184873357Y-77431571D01*
X184587642Y-77431571D01*
X184444785Y-77360142D01*
X184373357Y-77217285D01*
X184373357Y-76645857D01*
X184444785Y-76503000D01*
X184587642Y-76431571D01*
X184873357Y-76431571D01*
X185016214Y-76503000D01*
X185087642Y-76645857D01*
X185087642Y-76788714D01*
X184373357Y-76931571D01*
X186373357Y-76431571D02*
X186373357Y-77931571D01*
X186373357Y-77360142D02*
X186230500Y-77431571D01*
X185944785Y-77431571D01*
X185801928Y-77360142D01*
X185730500Y-77288714D01*
X185659071Y-77145857D01*
X185659071Y-76717285D01*
X185730500Y-76574428D01*
X185801928Y-76503000D01*
X185944785Y-76431571D01*
X186230500Y-76431571D01*
X186373357Y-76503000D01*
X187730500Y-76431571D02*
X187730500Y-77431571D01*
X187087642Y-76431571D02*
X187087642Y-77217285D01*
X187159071Y-77360142D01*
X187301928Y-77431571D01*
X187516214Y-77431571D01*
X187659071Y-77360142D01*
X187730500Y-77288714D01*
X188444785Y-77431571D02*
X188444785Y-76431571D01*
X188444785Y-75931571D02*
X188373357Y-76003000D01*
X188444785Y-76074428D01*
X188516214Y-76003000D01*
X188444785Y-75931571D01*
X188444785Y-76074428D01*
X189159071Y-77431571D02*
X189159071Y-76431571D01*
X189159071Y-76717285D02*
X189230500Y-76574428D01*
X189301928Y-76503000D01*
X189444785Y-76431571D01*
X189587642Y-76431571D01*
X190659071Y-77360142D02*
X190516214Y-77431571D01*
X190230500Y-77431571D01*
X190087642Y-77360142D01*
X190016214Y-77217285D01*
X190016214Y-76645857D01*
X190087642Y-76503000D01*
X190230500Y-76431571D01*
X190516214Y-76431571D01*
X190659071Y-76503000D01*
X190730500Y-76645857D01*
X190730500Y-76788714D01*
X190016214Y-76931571D01*
X192016214Y-77431571D02*
X192016214Y-75931571D01*
X192016214Y-77360142D02*
X191873357Y-77431571D01*
X191587642Y-77431571D01*
X191444785Y-77360142D01*
X191373357Y-77288714D01*
X191301928Y-77145857D01*
X191301928Y-76717285D01*
X191373357Y-76574428D01*
X191444785Y-76503000D01*
X191587642Y-76431571D01*
X191873357Y-76431571D01*
X192016214Y-76503000D01*
M02*
