G04 #@! TF.GenerationSoftware,KiCad,Pcbnew,(5.0.1-3-g963ef8bb5)*
G04 #@! TF.CreationDate,2018-11-23T17:17:20+10:30*
G04 #@! TF.ProjectId,rgb-led-board,7267622D6C65642D626F6172642E6B69,1.0*
G04 #@! TF.SameCoordinates,Original*
G04 #@! TF.FileFunction,Soldermask,Bot*
G04 #@! TF.FilePolarity,Negative*
%FSLAX46Y46*%
G04 Gerber Fmt 4.6, Leading zero omitted, Abs format (unit mm)*
G04 Created by KiCad (PCBNEW (5.0.1-3-g963ef8bb5)) date Friday, 23 November 2018 at 05:17:20 pm*
%MOMM*%
%LPD*%
G01*
G04 APERTURE LIST*
%ADD10C,0.100000*%
G04 APERTURE END LIST*
D10*
G36*
X128439294Y-72246496D02*
X128559726Y-72283029D01*
X128602087Y-72295879D01*
X128752112Y-72376068D01*
X128883612Y-72483988D01*
X128991532Y-72615488D01*
X129071721Y-72765512D01*
X129084571Y-72807873D01*
X129121104Y-72928305D01*
X129133600Y-73055180D01*
X129133600Y-73444819D01*
X129121104Y-73571694D01*
X129084571Y-73692128D01*
X129071721Y-73734488D01*
X128991532Y-73884512D01*
X128883612Y-74016012D01*
X128752112Y-74123932D01*
X128602088Y-74204121D01*
X128559727Y-74216971D01*
X128439295Y-74253504D01*
X128326432Y-74264620D01*
X128270001Y-74270178D01*
X128270000Y-74270178D01*
X128100706Y-74253504D01*
X127980274Y-74216971D01*
X127937913Y-74204121D01*
X127787889Y-74123932D01*
X127697946Y-74050117D01*
X127656388Y-74016012D01*
X127548469Y-73884512D01*
X127548467Y-73884509D01*
X127468279Y-73734488D01*
X127455429Y-73692127D01*
X127418896Y-73571695D01*
X127406400Y-73444820D01*
X127406400Y-73055181D01*
X127418896Y-72928306D01*
X127468278Y-72765517D01*
X127468279Y-72765513D01*
X127548468Y-72615488D01*
X127656388Y-72483988D01*
X127787888Y-72376068D01*
X127937912Y-72295879D01*
X127980273Y-72283029D01*
X128100705Y-72246496D01*
X128227580Y-72234000D01*
X128269999Y-72229822D01*
X128270000Y-72229822D01*
X128439294Y-72246496D01*
X128439294Y-72246496D01*
G37*
G36*
X130979294Y-72246496D02*
X131099726Y-72283029D01*
X131142087Y-72295879D01*
X131292112Y-72376068D01*
X131423612Y-72483988D01*
X131531532Y-72615488D01*
X131611721Y-72765512D01*
X131624571Y-72807873D01*
X131661104Y-72928305D01*
X131673600Y-73055180D01*
X131673600Y-73444819D01*
X131661104Y-73571694D01*
X131624571Y-73692128D01*
X131611721Y-73734488D01*
X131531532Y-73884512D01*
X131423612Y-74016012D01*
X131292112Y-74123932D01*
X131142088Y-74204121D01*
X131099727Y-74216971D01*
X130979295Y-74253504D01*
X130866432Y-74264620D01*
X130810001Y-74270178D01*
X130810000Y-74270178D01*
X130640706Y-74253504D01*
X130520274Y-74216971D01*
X130477913Y-74204121D01*
X130327889Y-74123932D01*
X130237946Y-74050117D01*
X130196388Y-74016012D01*
X130088469Y-73884512D01*
X130088467Y-73884509D01*
X130008279Y-73734488D01*
X129995429Y-73692127D01*
X129958896Y-73571695D01*
X129946400Y-73444820D01*
X129946400Y-73055181D01*
X129958896Y-72928306D01*
X130008278Y-72765517D01*
X130008279Y-72765513D01*
X130088468Y-72615488D01*
X130196388Y-72483988D01*
X130327888Y-72376068D01*
X130477912Y-72295879D01*
X130520273Y-72283029D01*
X130640705Y-72246496D01*
X130767580Y-72234000D01*
X130809999Y-72229822D01*
X130810000Y-72229822D01*
X130979294Y-72246496D01*
X130979294Y-72246496D01*
G37*
G36*
X133519294Y-72246496D02*
X133639726Y-72283029D01*
X133682087Y-72295879D01*
X133832112Y-72376068D01*
X133963612Y-72483988D01*
X134071532Y-72615488D01*
X134151721Y-72765512D01*
X134164571Y-72807873D01*
X134201104Y-72928305D01*
X134213600Y-73055180D01*
X134213600Y-73444819D01*
X134201104Y-73571694D01*
X134164571Y-73692128D01*
X134151721Y-73734488D01*
X134071532Y-73884512D01*
X133963612Y-74016012D01*
X133832112Y-74123932D01*
X133682088Y-74204121D01*
X133639727Y-74216971D01*
X133519295Y-74253504D01*
X133406432Y-74264620D01*
X133350001Y-74270178D01*
X133350000Y-74270178D01*
X133180706Y-74253504D01*
X133060274Y-74216971D01*
X133017913Y-74204121D01*
X132867889Y-74123932D01*
X132777946Y-74050117D01*
X132736388Y-74016012D01*
X132628469Y-73884512D01*
X132628467Y-73884509D01*
X132548279Y-73734488D01*
X132535429Y-73692127D01*
X132498896Y-73571695D01*
X132486400Y-73444820D01*
X132486400Y-73055181D01*
X132498896Y-72928306D01*
X132548278Y-72765517D01*
X132548279Y-72765513D01*
X132628468Y-72615488D01*
X132736388Y-72483988D01*
X132867888Y-72376068D01*
X133017912Y-72295879D01*
X133060273Y-72283029D01*
X133180705Y-72246496D01*
X133307580Y-72234000D01*
X133349999Y-72229822D01*
X133350000Y-72229822D01*
X133519294Y-72246496D01*
X133519294Y-72246496D01*
G37*
G36*
X136059294Y-72246496D02*
X136179726Y-72283029D01*
X136222087Y-72295879D01*
X136372112Y-72376068D01*
X136503612Y-72483988D01*
X136611532Y-72615488D01*
X136691721Y-72765512D01*
X136704571Y-72807873D01*
X136741104Y-72928305D01*
X136753600Y-73055180D01*
X136753600Y-73444819D01*
X136741104Y-73571694D01*
X136704571Y-73692128D01*
X136691721Y-73734488D01*
X136611532Y-73884512D01*
X136503612Y-74016012D01*
X136372112Y-74123932D01*
X136222088Y-74204121D01*
X136179727Y-74216971D01*
X136059295Y-74253504D01*
X135946432Y-74264620D01*
X135890001Y-74270178D01*
X135890000Y-74270178D01*
X135720706Y-74253504D01*
X135600274Y-74216971D01*
X135557913Y-74204121D01*
X135407889Y-74123932D01*
X135317946Y-74050117D01*
X135276388Y-74016012D01*
X135168469Y-73884512D01*
X135168467Y-73884509D01*
X135088279Y-73734488D01*
X135075429Y-73692127D01*
X135038896Y-73571695D01*
X135026400Y-73444820D01*
X135026400Y-73055181D01*
X135038896Y-72928306D01*
X135088278Y-72765517D01*
X135088279Y-72765513D01*
X135168468Y-72615488D01*
X135276388Y-72483988D01*
X135407888Y-72376068D01*
X135557912Y-72295879D01*
X135600273Y-72283029D01*
X135720705Y-72246496D01*
X135847580Y-72234000D01*
X135889999Y-72229822D01*
X135890000Y-72229822D01*
X136059294Y-72246496D01*
X136059294Y-72246496D01*
G37*
G36*
X138599294Y-72246496D02*
X138719726Y-72283029D01*
X138762087Y-72295879D01*
X138912112Y-72376068D01*
X139043612Y-72483988D01*
X139151532Y-72615488D01*
X139231721Y-72765512D01*
X139244571Y-72807873D01*
X139281104Y-72928305D01*
X139293600Y-73055180D01*
X139293600Y-73444819D01*
X139281104Y-73571694D01*
X139244571Y-73692128D01*
X139231721Y-73734488D01*
X139151532Y-73884512D01*
X139043612Y-74016012D01*
X138912112Y-74123932D01*
X138762088Y-74204121D01*
X138719727Y-74216971D01*
X138599295Y-74253504D01*
X138486432Y-74264620D01*
X138430001Y-74270178D01*
X138430000Y-74270178D01*
X138260706Y-74253504D01*
X138140274Y-74216971D01*
X138097913Y-74204121D01*
X137947889Y-74123932D01*
X137857946Y-74050117D01*
X137816388Y-74016012D01*
X137708469Y-73884512D01*
X137708467Y-73884509D01*
X137628279Y-73734488D01*
X137615429Y-73692127D01*
X137578896Y-73571695D01*
X137566400Y-73444820D01*
X137566400Y-73055181D01*
X137578896Y-72928306D01*
X137628278Y-72765517D01*
X137628279Y-72765513D01*
X137708468Y-72615488D01*
X137816388Y-72483988D01*
X137947888Y-72376068D01*
X138097912Y-72295879D01*
X138140273Y-72283029D01*
X138260705Y-72246496D01*
X138387580Y-72234000D01*
X138429999Y-72229822D01*
X138430000Y-72229822D01*
X138599294Y-72246496D01*
X138599294Y-72246496D01*
G37*
G36*
X141139294Y-72246496D02*
X141259726Y-72283029D01*
X141302087Y-72295879D01*
X141452112Y-72376068D01*
X141583612Y-72483988D01*
X141691532Y-72615488D01*
X141771721Y-72765512D01*
X141784571Y-72807873D01*
X141821104Y-72928305D01*
X141833600Y-73055180D01*
X141833600Y-73444819D01*
X141821104Y-73571694D01*
X141784571Y-73692128D01*
X141771721Y-73734488D01*
X141691532Y-73884512D01*
X141583612Y-74016012D01*
X141452112Y-74123932D01*
X141302088Y-74204121D01*
X141259727Y-74216971D01*
X141139295Y-74253504D01*
X141026432Y-74264620D01*
X140970001Y-74270178D01*
X140970000Y-74270178D01*
X140800706Y-74253504D01*
X140680274Y-74216971D01*
X140637913Y-74204121D01*
X140487889Y-74123932D01*
X140397946Y-74050117D01*
X140356388Y-74016012D01*
X140248469Y-73884512D01*
X140248467Y-73884509D01*
X140168279Y-73734488D01*
X140155429Y-73692127D01*
X140118896Y-73571695D01*
X140106400Y-73444820D01*
X140106400Y-73055181D01*
X140118896Y-72928306D01*
X140168278Y-72765517D01*
X140168279Y-72765513D01*
X140248468Y-72615488D01*
X140356388Y-72483988D01*
X140487888Y-72376068D01*
X140637912Y-72295879D01*
X140680273Y-72283029D01*
X140800705Y-72246496D01*
X140927580Y-72234000D01*
X140969999Y-72229822D01*
X140970000Y-72229822D01*
X141139294Y-72246496D01*
X141139294Y-72246496D01*
G37*
G36*
X143679294Y-72246496D02*
X143799726Y-72283029D01*
X143842087Y-72295879D01*
X143992112Y-72376068D01*
X144123612Y-72483988D01*
X144231532Y-72615488D01*
X144311721Y-72765512D01*
X144324571Y-72807873D01*
X144361104Y-72928305D01*
X144373600Y-73055180D01*
X144373600Y-73444819D01*
X144361104Y-73571694D01*
X144324571Y-73692128D01*
X144311721Y-73734488D01*
X144231532Y-73884512D01*
X144123612Y-74016012D01*
X143992112Y-74123932D01*
X143842088Y-74204121D01*
X143799727Y-74216971D01*
X143679295Y-74253504D01*
X143566432Y-74264620D01*
X143510001Y-74270178D01*
X143510000Y-74270178D01*
X143340706Y-74253504D01*
X143220274Y-74216971D01*
X143177913Y-74204121D01*
X143027889Y-74123932D01*
X142937946Y-74050117D01*
X142896388Y-74016012D01*
X142788469Y-73884512D01*
X142788467Y-73884509D01*
X142708279Y-73734488D01*
X142695429Y-73692127D01*
X142658896Y-73571695D01*
X142646400Y-73444820D01*
X142646400Y-73055181D01*
X142658896Y-72928306D01*
X142708278Y-72765517D01*
X142708279Y-72765513D01*
X142788468Y-72615488D01*
X142896388Y-72483988D01*
X143027888Y-72376068D01*
X143177912Y-72295879D01*
X143220273Y-72283029D01*
X143340705Y-72246496D01*
X143467580Y-72234000D01*
X143509999Y-72229822D01*
X143510000Y-72229822D01*
X143679294Y-72246496D01*
X143679294Y-72246496D01*
G37*
G36*
X126593600Y-74266000D02*
X124866400Y-74266000D01*
X124866400Y-72234000D01*
X126593600Y-72234000D01*
X126593600Y-74266000D01*
X126593600Y-74266000D01*
G37*
M02*
