<?xml version="1.0" encoding="utf-8"?>
<!-- Generator: Adobe Illustrator 19.0.1, SVG Export Plug-In . SVG Version: 6.00 Build 0)  -->
<svg version="1.1" id="Layer_1" xmlns="http://www.w3.org/2000/svg" xmlns:xlink="http://www.w3.org/1999/xlink" x="0px" y="0px"
	 viewBox="0 0 1080 1080" style="enable-background:new 0 0 1080 1080;" xml:space="preserve">
<style type="text/css">
	.st0{fill:#FFFFFF;}
</style>
<g>
	<path d="M806.4,889.2c-30.8-17.6-60.6-34.6-90.3-51.7c-5.5-3.2-10.8-6.6-16.2-9.9c-5.5-3.5-5.6-3.5-2.3-9.3
		c10.8-19,19.9-38.7,26.5-59.6c7.1-22.5,10.6-45.7,11.7-69.2c0.4-8.2,0.5-16.3,1-24.5c1.7-30.8-5.3-60.2-15.1-89
		c-14.6-42.7-37.9-79.8-72-109.8c-25.5-22.4-54.7-38-87.2-46.8c-20.1-5.4-36.3-15.6-49.6-31.5c-28-33.3-60.5-62-95.2-88
		c-14.3-10.7-29.4-20.1-47.8-22.6c-25.6-3.4-49.5,1.6-71.3,15.3c-9.8,6.2-18.8,13.6-28.1,20.7c-2.3,1.8-4.2,4.3-6.1,6.6
		c-9.4,12-6.4,21.3,8.1,25.3c4.4,1.2,9.2,1.6,13.8,1.9c11.1,0.7,22.3,1,33.4,1.9c18.9,1.5,35,9.6,48.5,22.3
		c14.9,14.1,29,28.9,43.1,43.8c3.6,3.9,6.7,9,8.1,14.1c10.6,39.3,31.9,72.5,57,103.9c9.3,11.6,18.1,23.5,26.6,35.6
		c7.5,10.7,13.5,22.1,15.2,35.4c1.5,12.4-1.2,23.8-7.4,34.5c-6.7,11.7-15.5,21.6-25.4,31.1C370.2,571.3,260.6,468.2,172,342.4
		c-5.3,13.5-9.6,25.8-14.9,37.7c-4.9,11.1-2.1,19,5.4,28.3c46.8,58.3,95.5,114.8,147.9,168c38.9,39.4,79.6,76.8,121.8,112.7
		c4.6,3.9,9,7.9,13.5,11.9c0.3,0.3,0.5,0.8,1.4,2.3c-54.7,50.1-109.6,100.4-165.1,151.2c-8.7-8.6-16.7-16.3-24.5-24.1
		c-49.3-48.8-83-107.1-104.8-172.5c-10.8-32.3-17.1-65.6-19.7-99.6c-4-53.5,1.2-106.1,16.2-157.6c1.1-3.7,0.2-6.2-1.9-9.1
		c-23-32.5-44.6-65.9-62.2-101.7c-11-22.3-20.8-45-25.4-69.6c-2.4-12.7-3.6-25.4-1.3-38.2c4.4-25.1,20.9-41.1,46.9-45.9
		c19.8-3.7,39.5-2,59.1,1.5c33.9,6.1,66.2,17.6,97.8,31c10.4,4.4,20.8,8.9,31.1,13.6c3.2,1.5,5.4,1.4,8.4-0.9
		c44.3-33.8,93.3-58.4,146.9-73.6c42-11.9,84.8-17.5,128.3-16.3c76.5,2.1,147.7,22.6,213.3,61.9c46.2,27.7,86.2,62.5,119.4,105
		c30.3,38.8,52.9,81.8,68.7,128.4c19.6,57.7,26.6,116.9,21.2,177.7c-5,56.1-20.7,109-45.5,159.3c-0.1,0.3-0.3,0.6-0.5,0.9
		c-7.1,8-4,14.8,1.4,22.6c21.3,31.3,40.5,63.8,54.7,99c9.1,22.6,16.9,45.6,16.5,70.5c-0.4,34.1-20.6,55.2-54.3,59.6
		c-26.3,3.4-51.4-1.7-76.5-7.7c-37.3-8.9-72.2-24.1-106.8-40c-7.1-3.3-14.3-6.3-21.3-9.9c-4.6-2.4-8.6-2.5-13.5-0.3
		c-24.5,11-49.6,20.2-75.5,27.1c-38.4,10.2-77.3,15.4-118.5,14.3c35-34.3,69.2-67.9,103.2-101.2c14.4,8.8,28,17.7,42.2,25.7
		c17.2,9.8,34.8,19,52.3,28.1c1.9,1,5.3,1,7.3,0C778.5,904.9,792.2,897.1,806.4,889.2z M862.6,344.1c-9.6-0.6-18,2.3-25.6,8.7
		c-21.2,17.8-42.7,35.1-63.9,52.9c-13.3,11.1-26.6,22.3-39,34.3c-14.8,14.3-18.4,36-7.8,51c9.4,13.4,20.2,26.1,31.8,37.7
		c12.4,12.4,36,13.4,49,3c36.9-29.3,72.9-59.7,107.7-91.6C928,428,930,398.2,919.1,386c-8.6-9.7-17-19.6-25.6-29.3
		C885.4,347.4,875,343.5,862.6,344.1z M704.3,432.5c11.8-0.1,21.1-2.2,29-8.6c36.1-29.3,72.2-58.5,105.6-91
		c11.9-11.5,14.6-35.1,5.7-49.1c-9.3-14.6-21.1-27-34.1-38.3c-11.3-9.9-36.4-10.1-46.8-1.1c-8.2,7.1-17.1,13.3-25.3,20.4
		c-27.1,23.4-54,47-81.2,70.4c-15.4,13.3-16.7,37.3-6.6,52.3c8.9,13.2,19.1,25.2,31.1,35.7C688.8,429.4,696.7,433,704.3,432.5z
		 M809.8,889.3c17.5,10.7,74.6,33.1,99.9,38.9c16.1,3.7,32.4,6.1,49,3.7c17.3-2.5,28.9-14,31.4-31.3c2.2-15.2-1.6-29.5-6.7-43.4
		c-11.4-31.6-28.9-59.9-47.8-87.3c-1.3-1.8-2.8-3.4-4.6-5.6C898.9,814.6,856.7,854,809.8,889.3z M942.2,563.8
		c0.4-8.8-2.2-17.5-8.5-24.7c-8-9.2-16.1-18.2-24.5-27c-13.6-14.1-40.8-14-53.6-2.3c-9.5,8.8-20.3,16.2-30.1,24.7
		c-8.9,7.8-17.7,15.8-25.4,24.7c-11.2,13.1-12.3,31.7-2.8,46c6.5,9.8,13.9,19.1,21.8,27.8c19.3,21.4,44.5,19.7,62.7,4.2
		c16.2-13.8,32-28.1,48-42.2C939.1,586.9,942.3,576.4,942.2,563.8z M172,342.5c24.3-51.5,57.8-95.1,97.4-135.2
		c-11.1-4.5-21.4-8.5-31.7-12.8c-28.2-11.7-57.2-18.3-88-16.5c-18.5,1.1-31.4,13.5-32.9,31.9c-1.2,15.4,2.1,30.1,7.3,44.4
		C135.6,285.6,153.2,313.6,172,342.5z"/>
	<path class="st0" d="M809.8,889.3c46.9-35.3,89.1-74.7,121.2-125c1.8,2.1,3.4,3.7,4.6,5.6c19,27.4,36.4,55.7,47.8,87.3
		c5,14,8.9,28.3,6.7,43.4c-2.5,17.3-14.2,28.8-31.4,31.3c-16.6,2.5-32.9,0-49-3.7C884.4,922.4,827.2,900,809.8,889.3z"/>
</g>
</svg>
