%TF.GenerationSoftware,KiCad,Pcbnew,8.0.3*%
%TF.CreationDate,2024-06-18T18:24:58+09:30*%
%TF.ProjectId,esp32c6-internal-module,65737033-3263-4362-9d69-6e7465726e61,1.0*%
%TF.SameCoordinates,Original*%
%TF.FileFunction,Copper,L2,Bot*%
%TF.FilePolarity,Positive*%
%FSLAX46Y46*%
G04 Gerber Fmt 4.6, Leading zero omitted, Abs format (unit mm)*
G04 Created by KiCad (PCBNEW 8.0.3) date 2024-06-18 18:24:58*
%MOMM*%
%LPD*%
G01*
G04 APERTURE LIST*
G04 Aperture macros list*
%AMRoundRect*
0 Rectangle with rounded corners*
0 $1 Rounding radius*
0 $2 $3 $4 $5 $6 $7 $8 $9 X,Y pos of 4 corners*
0 Add a 4 corners polygon primitive as box body*
4,1,4,$2,$3,$4,$5,$6,$7,$8,$9,$2,$3,0*
0 Add four circle primitives for the rounded corners*
1,1,$1+$1,$2,$3*
1,1,$1+$1,$4,$5*
1,1,$1+$1,$6,$7*
1,1,$1+$1,$8,$9*
0 Add four rect primitives between the rounded corners*
20,1,$1+$1,$2,$3,$4,$5,0*
20,1,$1+$1,$4,$5,$6,$7,0*
20,1,$1+$1,$6,$7,$8,$9,0*
20,1,$1+$1,$8,$9,$2,$3,0*%
G04 Aperture macros list end*
%TA.AperFunction,ComponentPad*%
%ADD10C,0.650000*%
%TD*%
%TA.AperFunction,ComponentPad*%
%ADD11O,2.400000X0.900000*%
%TD*%
%TA.AperFunction,ComponentPad*%
%ADD12O,1.700000X0.900000*%
%TD*%
%TA.AperFunction,HeatsinkPad*%
%ADD13C,0.400000*%
%TD*%
%TA.AperFunction,SMDPad,CuDef*%
%ADD14C,1.000000*%
%TD*%
%TA.AperFunction,ComponentPad*%
%ADD15R,1.727200X2.032000*%
%TD*%
%TA.AperFunction,ComponentPad*%
%ADD16O,1.727200X2.032000*%
%TD*%
%TA.AperFunction,SMDPad,CuDef*%
%ADD17RoundRect,0.212500X-0.277500X0.212500X-0.277500X-0.212500X0.277500X-0.212500X0.277500X0.212500X0*%
%TD*%
%TA.AperFunction,SMDPad,CuDef*%
%ADD18RoundRect,0.249600X-0.350400X-0.650400X0.350400X-0.650400X0.350400X0.650400X-0.350400X0.650400X0*%
%TD*%
%TA.AperFunction,SMDPad,CuDef*%
%ADD19RoundRect,0.150000X-0.150000X-0.625000X0.150000X-0.625000X0.150000X0.625000X-0.150000X0.625000X0*%
%TD*%
%TA.AperFunction,ViaPad*%
%ADD20C,0.600000*%
%TD*%
%TA.AperFunction,Conductor*%
%ADD21C,0.200000*%
%TD*%
%TA.AperFunction,Conductor*%
%ADD22C,0.250000*%
%TD*%
G04 APERTURE END LIST*
D10*
%TO.P,J1,A1,GND*%
%TO.N,GND*%
X108400000Y-92966750D03*
%TO.P,J1,A4,VBUS*%
%TO.N,+5V*%
X108400000Y-92116750D03*
%TO.P,J1,A5,CC1*%
%TO.N,Net-(J1-CC1)*%
X108400000Y-91266750D03*
%TO.P,J1,A6,D+*%
%TO.N,/USBC_P*%
X108400000Y-90416750D03*
%TO.P,J1,A7,D-*%
%TO.N,/USBC_N*%
X108400000Y-89566750D03*
%TO.P,J1,A8,SBU1*%
%TO.N,unconnected-(J1-SBU1-PadA8)*%
X108400000Y-88716750D03*
%TO.P,J1,A9,VBUS*%
%TO.N,+5V*%
X108400000Y-87866750D03*
%TO.P,J1,A12,GND*%
%TO.N,GND*%
X108400000Y-87016750D03*
%TO.P,J1,B1,GND*%
X109725000Y-87011750D03*
%TO.P,J1,B4,VBUS*%
%TO.N,+5V*%
X109725000Y-87861750D03*
%TO.P,J1,B5,CC2*%
%TO.N,Net-(J1-CC2)*%
X109725000Y-88711750D03*
%TO.P,J1,B6,D+*%
%TO.N,/USBC_P*%
X109725000Y-89561750D03*
%TO.P,J1,B7,D-*%
%TO.N,/USBC_N*%
X109725000Y-90411750D03*
%TO.P,J1,B8,SBU2*%
%TO.N,unconnected-(J1-SBU2-PadB8)*%
X109725000Y-91261750D03*
%TO.P,J1,B9,VBUS*%
%TO.N,+5V*%
X109725000Y-92111750D03*
%TO.P,J1,B12,GND*%
%TO.N,GND*%
X109725000Y-92966750D03*
D11*
%TO.P,J1,S1,Shield*%
X109380000Y-94316750D03*
D12*
X112760000Y-94316750D03*
D11*
X109380000Y-85666750D03*
D12*
X112760000Y-85666750D03*
%TD*%
D13*
%TO.P,U2,7,EP*%
%TO.N,GND*%
X112800000Y-80000000D03*
X111700000Y-80000000D03*
%TD*%
D14*
%TO.P,TEST1,1,PAD*%
%TO.N,Net-(TEST1-PAD)*%
X114000000Y-67000000D03*
%TD*%
D15*
%TO.P,P2,1,P1*%
%TO.N,+3.3V*%
X102150000Y-98000000D03*
D16*
%TO.P,P2,2,P2*%
%TO.N,USART_RTS*%
X104690000Y-98000000D03*
%TO.P,P2,3,P3*%
%TO.N,USART_CTS*%
X107230000Y-98000000D03*
%TO.P,P2,4,P4*%
%TO.N,USART_RX*%
X109770000Y-98000000D03*
%TO.P,P2,5,P5*%
%TO.N,USART_TX*%
X112310000Y-98000000D03*
%TO.P,P2,6,P6*%
%TO.N,GND*%
X114850000Y-98000000D03*
%TD*%
D17*
%TO.P,R9,1*%
%TO.N,+3.3V*%
X109000000Y-77875000D03*
%TO.P,R9,2*%
%TO.N,SDA*%
X109000000Y-76325000D03*
%TD*%
D14*
%TO.P,TEST3,1,PAD*%
%TO.N,GND*%
X114000000Y-73000000D03*
%TD*%
D18*
%TO.P,P1,*%
%TO.N,*%
X105700000Y-70325000D03*
X111300000Y-70325000D03*
D19*
%TO.P,P1,1,P1*%
%TO.N,GND*%
X107000000Y-74200000D03*
%TO.P,P1,2,P2*%
%TO.N,+3.3V*%
X108000000Y-74200000D03*
%TO.P,P1,3,P3*%
%TO.N,SDA*%
X109000000Y-74200000D03*
%TO.P,P1,4,P4*%
%TO.N,SCL*%
X110000000Y-74200000D03*
%TD*%
D17*
%TO.P,R8,1*%
%TO.N,+3.3V*%
X110800000Y-77875000D03*
%TO.P,R8,2*%
%TO.N,SCL*%
X110800000Y-76325000D03*
%TD*%
D14*
%TO.P,TEST2,1,PAD*%
%TO.N,Net-(TEST2-PAD)*%
X114000000Y-70000000D03*
%TD*%
D20*
%TO.N,GND*%
X104500000Y-64250000D03*
X105250000Y-87750000D03*
X110500000Y-64250000D03*
X110900000Y-73900000D03*
X102600000Y-74300000D03*
X112500000Y-68600000D03*
X109300000Y-71200000D03*
X112500000Y-65900000D03*
X112500000Y-66800000D03*
X106900000Y-71200000D03*
X107000000Y-80400000D03*
X106500000Y-64250000D03*
X112500000Y-64250000D03*
X105300000Y-74200000D03*
X109500000Y-64250000D03*
X110900000Y-79200000D03*
X105500000Y-64250000D03*
X108750000Y-82750000D03*
X113800000Y-80000000D03*
X108500000Y-71200000D03*
X104500000Y-95000000D03*
X103600000Y-81400000D03*
X103600000Y-82900000D03*
X104400000Y-66900000D03*
X111500000Y-64250000D03*
X104400000Y-68700000D03*
X115800000Y-65100000D03*
X104400000Y-66000000D03*
X110100000Y-71200000D03*
X112500000Y-67700000D03*
X107000000Y-93000000D03*
X114500000Y-73900000D03*
X107700000Y-71200000D03*
X103400000Y-75500000D03*
X104400000Y-67800000D03*
X107500000Y-64250000D03*
X105500000Y-95000000D03*
X108500000Y-64250000D03*
X107000000Y-94100000D03*
%TO.N,Net-(D1-PadA)*%
X104288824Y-84500000D03*
X105256732Y-78772745D03*
%TO.N,Net-(D2-PadA)*%
X105300000Y-84400000D03*
X106018155Y-78510001D03*
%TO.N,USART_RTS*%
X114650000Y-89500000D03*
X115750000Y-69000000D03*
%TO.N,+3.3V*%
X101000000Y-67250000D03*
X103200000Y-78400000D03*
X101000000Y-66500000D03*
X113200000Y-75900000D03*
X103200000Y-77600000D03*
X112400000Y-75900000D03*
%TO.N,USART_CTS*%
X115625000Y-70375000D03*
X114858058Y-88358058D03*
%TO.N,/BOOT*%
X115100000Y-74800000D03*
X113900000Y-88600000D03*
%TO.N,Net-(J1-CC2)*%
X107500000Y-83600000D03*
%TO.N,/USBC_N*%
X106750000Y-89250000D03*
%TO.N,Net-(TEST1-PAD)*%
X115750000Y-66550000D03*
%TO.N,Net-(TEST2-PAD)*%
X115700000Y-67800000D03*
%TO.N,SCL*%
X107925000Y-76700000D03*
%TO.N,SDA*%
X107900000Y-75800000D03*
%TD*%
D21*
%TO.N,Net-(D1-PadA)*%
X105300000Y-78816013D02*
X105300000Y-83488824D01*
X105256732Y-78772745D02*
X105300000Y-78816013D01*
X105300000Y-83488824D02*
X104288824Y-84500000D01*
%TO.N,Net-(D2-PadA)*%
X105856732Y-78671424D02*
X106018155Y-78510001D01*
X105856732Y-83843268D02*
X105856732Y-78671424D01*
X105300000Y-84400000D02*
X105856732Y-83843268D01*
D22*
%TO.N,USART_RTS*%
X116300000Y-87800000D02*
X116300000Y-69550000D01*
X114650000Y-89500000D02*
X114650000Y-89450000D01*
X114650000Y-89450000D02*
X116300000Y-87800000D01*
X116300000Y-69550000D02*
X115750000Y-69000000D01*
%TO.N,+3.3V*%
X107375000Y-77875000D02*
X109000000Y-77875000D01*
X107200000Y-75600000D02*
X107200000Y-77700000D01*
X108000000Y-74200000D02*
X108000000Y-74800000D01*
X107200000Y-77700000D02*
X107375000Y-77875000D01*
X108000000Y-74800000D02*
X107200000Y-75600000D01*
%TO.N,USART_CTS*%
X114858058Y-88358058D02*
X115800000Y-87416116D01*
X115800000Y-87416116D02*
X115800000Y-70550000D01*
X115800000Y-70550000D02*
X115625000Y-70375000D01*
%TO.N,/BOOT*%
X115100000Y-86800000D02*
X113900000Y-88000000D01*
X115100000Y-74800000D02*
X115100000Y-86800000D01*
X113900000Y-88000000D02*
X113900000Y-88600000D01*
D21*
%TO.N,Net-(J1-CC2)*%
X107500000Y-83600000D02*
X108600000Y-84700000D01*
X110388250Y-88711750D02*
X109725000Y-88711750D01*
X111000000Y-85238045D02*
X111000000Y-88100000D01*
X110461955Y-84700000D02*
X111000000Y-85238045D01*
X108600000Y-84700000D02*
X110461955Y-84700000D01*
X111000000Y-88100000D02*
X110388250Y-88711750D01*
%TO.N,/USBC_P*%
X108400000Y-90416750D02*
X108584683Y-90416750D01*
X108584683Y-90416750D02*
X109439683Y-89561750D01*
X109439683Y-89561750D02*
X109725000Y-89561750D01*
%TO.N,/USBC_N*%
X107066750Y-89566750D02*
X108400000Y-89566750D01*
X106750000Y-89250000D02*
X107066750Y-89566750D01*
D22*
%TO.N,Net-(TEST1-PAD)*%
X115750000Y-66550000D02*
X115300000Y-67000000D01*
X115300000Y-67000000D02*
X114000000Y-67000000D01*
%TO.N,Net-(TEST2-PAD)*%
X115700000Y-67800000D02*
X115400000Y-67800000D01*
X115400000Y-67800000D02*
X114000000Y-69200000D01*
X114000000Y-69200000D02*
X114000000Y-70000000D01*
D21*
%TO.N,SCL*%
X107925000Y-76700000D02*
X108325000Y-77100000D01*
D22*
X110000000Y-74200000D02*
X110000000Y-75525000D01*
D21*
X108325000Y-77100000D02*
X110025000Y-77100000D01*
X110025000Y-77100000D02*
X110800000Y-76325000D01*
D22*
X110000000Y-75525000D02*
X110800000Y-76325000D01*
%TO.N,SDA*%
X109000000Y-74200000D02*
X109000000Y-76325000D01*
X107900000Y-75800000D02*
X108200000Y-75800000D01*
X108725000Y-76325000D02*
X109000000Y-76325000D01*
X108200000Y-75800000D02*
X108725000Y-76325000D01*
%TD*%
%TA.AperFunction,Conductor*%
%TO.N,GND*%
G36*
X115505394Y-62500972D02*
G01*
X115535721Y-62503625D01*
X115662755Y-62514739D01*
X115684035Y-62518491D01*
X115801188Y-62549882D01*
X115831369Y-62557969D01*
X115851681Y-62565362D01*
X115989915Y-62629822D01*
X116008633Y-62640629D01*
X116133582Y-62728119D01*
X116150140Y-62742013D01*
X116257986Y-62849859D01*
X116271880Y-62866417D01*
X116359370Y-62991366D01*
X116370177Y-63010084D01*
X116434637Y-63148318D01*
X116442030Y-63168630D01*
X116481507Y-63315961D01*
X116485260Y-63337246D01*
X116499028Y-63494605D01*
X116499500Y-63505413D01*
X116499500Y-66092791D01*
X116479815Y-66159830D01*
X116427011Y-66205585D01*
X116357853Y-66215529D01*
X116294297Y-66186504D01*
X116273450Y-66163231D01*
X116263972Y-66149500D01*
X116240483Y-66115470D01*
X116122240Y-66010717D01*
X116122238Y-66010716D01*
X116122237Y-66010715D01*
X115982365Y-65937303D01*
X115828986Y-65899500D01*
X115828985Y-65899500D01*
X115671015Y-65899500D01*
X115671014Y-65899500D01*
X115517634Y-65937303D01*
X115377762Y-66010715D01*
X115259516Y-66115471D01*
X115169782Y-66245473D01*
X115169775Y-66245487D01*
X115166870Y-66253146D01*
X115154757Y-66275176D01*
X115155556Y-66275682D01*
X115152815Y-66280013D01*
X115088092Y-66403881D01*
X115039599Y-66454182D01*
X114971609Y-66470280D01*
X114930499Y-66460917D01*
X114914335Y-66454182D01*
X114338874Y-66214407D01*
X114338858Y-66214401D01*
X114314564Y-66205304D01*
X114314556Y-66205301D01*
X114309747Y-66204116D01*
X114309880Y-66203573D01*
X114286592Y-66196610D01*
X114264265Y-66186670D01*
X114136594Y-66159533D01*
X114089391Y-66149500D01*
X113910609Y-66149500D01*
X113879954Y-66156015D01*
X113735733Y-66186670D01*
X113735728Y-66186672D01*
X113572408Y-66259387D01*
X113427768Y-66364475D01*
X113308140Y-66497336D01*
X113218750Y-66652164D01*
X113218747Y-66652170D01*
X113163504Y-66822192D01*
X113163503Y-66822194D01*
X113144815Y-67000000D01*
X113163503Y-67177805D01*
X113163504Y-67177807D01*
X113218747Y-67347829D01*
X113218750Y-67347835D01*
X113308141Y-67502665D01*
X113330973Y-67528022D01*
X113427764Y-67635521D01*
X113427767Y-67635523D01*
X113427770Y-67635526D01*
X113572407Y-67740612D01*
X113735733Y-67813329D01*
X113910609Y-67850500D01*
X113910610Y-67850500D01*
X114089389Y-67850500D01*
X114089391Y-67850500D01*
X114264267Y-67813329D01*
X114302222Y-67796429D01*
X114324456Y-67788958D01*
X114338874Y-67785592D01*
X114451261Y-67738763D01*
X114520713Y-67731149D01*
X114583257Y-67762293D01*
X114619036Y-67822307D01*
X114616688Y-67892137D01*
X114586633Y-67940906D01*
X113708036Y-68819505D01*
X113619506Y-68908034D01*
X113619504Y-68908037D01*
X113556905Y-69016463D01*
X113556903Y-69016468D01*
X113522484Y-69144919D01*
X113508372Y-69177720D01*
X113326432Y-69473950D01*
X113312925Y-69492021D01*
X113308139Y-69497336D01*
X113308138Y-69497338D01*
X113247385Y-69602563D01*
X113245670Y-69605444D01*
X113242282Y-69610961D01*
X113233890Y-69625919D01*
X113233139Y-69627239D01*
X113218752Y-69652159D01*
X113218748Y-69652168D01*
X113212188Y-69672357D01*
X113208375Y-69682543D01*
X113206329Y-69689538D01*
X113206224Y-69689507D01*
X113205010Y-69694447D01*
X113163504Y-69822193D01*
X113163503Y-69822197D01*
X113151072Y-69940469D01*
X113144815Y-70000000D01*
X113163503Y-70177805D01*
X113163504Y-70177807D01*
X113218747Y-70347829D01*
X113218750Y-70347835D01*
X113308141Y-70502665D01*
X113349812Y-70548946D01*
X113427764Y-70635521D01*
X113427767Y-70635523D01*
X113427770Y-70635526D01*
X113572407Y-70740612D01*
X113735733Y-70813329D01*
X113910609Y-70850500D01*
X113910610Y-70850500D01*
X114089389Y-70850500D01*
X114089391Y-70850500D01*
X114264267Y-70813329D01*
X114427593Y-70740612D01*
X114572230Y-70635526D01*
X114691859Y-70502665D01*
X114748535Y-70404499D01*
X114799100Y-70356285D01*
X114867707Y-70343061D01*
X114932572Y-70369029D01*
X114973101Y-70425943D01*
X114979017Y-70451553D01*
X114988763Y-70531818D01*
X115044780Y-70679523D01*
X115134517Y-70809530D01*
X115134520Y-70809533D01*
X115139494Y-70815147D01*
X115139350Y-70815274D01*
X115144553Y-70820720D01*
X115296996Y-71009613D01*
X115323780Y-71074143D01*
X115324500Y-71087487D01*
X115324500Y-74027201D01*
X115304815Y-74094240D01*
X115252011Y-74139995D01*
X115185560Y-74150298D01*
X115178985Y-74149500D01*
X115021015Y-74149500D01*
X115021014Y-74149500D01*
X114867634Y-74187303D01*
X114727762Y-74260715D01*
X114609516Y-74365471D01*
X114519781Y-74495475D01*
X114519780Y-74495476D01*
X114463762Y-74643181D01*
X114444722Y-74799999D01*
X114444722Y-74800000D01*
X114463763Y-74956819D01*
X114463763Y-74956821D01*
X114478840Y-74996576D01*
X114485708Y-75023408D01*
X114486818Y-75031364D01*
X114486820Y-75031374D01*
X114618818Y-75452262D01*
X114624500Y-75489368D01*
X114624500Y-86551679D01*
X114604815Y-86618718D01*
X114588181Y-86639360D01*
X113519506Y-87708034D01*
X113519504Y-87708037D01*
X113456905Y-87816463D01*
X113456902Y-87816470D01*
X113437606Y-87888483D01*
X113434517Y-87897678D01*
X113286823Y-88368617D01*
X113285150Y-88374108D01*
X113285149Y-88374114D01*
X113284664Y-88378051D01*
X113277538Y-88406856D01*
X113263762Y-88443183D01*
X113244722Y-88599999D01*
X113244722Y-88600000D01*
X113263762Y-88756818D01*
X113303718Y-88862171D01*
X113319780Y-88904523D01*
X113409517Y-89034530D01*
X113527760Y-89139283D01*
X113527762Y-89139284D01*
X113667634Y-89212696D01*
X113821014Y-89250500D01*
X113885050Y-89250500D01*
X113952089Y-89270185D01*
X113997844Y-89322989D01*
X114008145Y-89389445D01*
X113994722Y-89500000D01*
X114013762Y-89656818D01*
X114039466Y-89724592D01*
X114069780Y-89804523D01*
X114159517Y-89934530D01*
X114277760Y-90039283D01*
X114277762Y-90039284D01*
X114417634Y-90112696D01*
X114571014Y-90150500D01*
X114571015Y-90150500D01*
X114728985Y-90150500D01*
X114882365Y-90112696D01*
X115022240Y-90039283D01*
X115140483Y-89934530D01*
X115230220Y-89804523D01*
X115240006Y-89778715D01*
X115252027Y-89755037D01*
X115257543Y-89746564D01*
X115427682Y-89356879D01*
X115453638Y-89318819D01*
X116287820Y-88484638D01*
X116349142Y-88451154D01*
X116418834Y-88456138D01*
X116474767Y-88498010D01*
X116499184Y-88563474D01*
X116499500Y-88572320D01*
X116499500Y-98494586D01*
X116499028Y-98505394D01*
X116485260Y-98662753D01*
X116481507Y-98684038D01*
X116442030Y-98831369D01*
X116434637Y-98851681D01*
X116370177Y-98989915D01*
X116359370Y-99008633D01*
X116271880Y-99133582D01*
X116257986Y-99150140D01*
X116150140Y-99257986D01*
X116133582Y-99271880D01*
X116008633Y-99359370D01*
X115989915Y-99370177D01*
X115851681Y-99434637D01*
X115831369Y-99442030D01*
X115684038Y-99481507D01*
X115662753Y-99485260D01*
X115505395Y-99499028D01*
X115494587Y-99499500D01*
X112856950Y-99499500D01*
X112789911Y-99479815D01*
X112744156Y-99427011D01*
X112734212Y-99357853D01*
X112763237Y-99294297D01*
X112800655Y-99265015D01*
X112838764Y-99245596D01*
X112946327Y-99190791D01*
X113100933Y-99078463D01*
X113236063Y-98943333D01*
X113348391Y-98788727D01*
X113435150Y-98618453D01*
X113494205Y-98436702D01*
X113507491Y-98352813D01*
X113524100Y-98247957D01*
X113524100Y-97752042D01*
X113494205Y-97563301D01*
X113494205Y-97563298D01*
X113435150Y-97381547D01*
X113348391Y-97211273D01*
X113236063Y-97056667D01*
X113100933Y-96921537D01*
X112946327Y-96809209D01*
X112776053Y-96722450D01*
X112594302Y-96663395D01*
X112594300Y-96663394D01*
X112594298Y-96663394D01*
X112405557Y-96633500D01*
X112405552Y-96633500D01*
X112214448Y-96633500D01*
X112214443Y-96633500D01*
X112025701Y-96663394D01*
X111843944Y-96722451D01*
X111673672Y-96809209D01*
X111585464Y-96873296D01*
X111519067Y-96921537D01*
X111519065Y-96921539D01*
X111519064Y-96921539D01*
X111383939Y-97056664D01*
X111383939Y-97056665D01*
X111383937Y-97056667D01*
X111335696Y-97123064D01*
X111271609Y-97211272D01*
X111184851Y-97381542D01*
X111170019Y-97427190D01*
X111157930Y-97464397D01*
X111118493Y-97522071D01*
X111054134Y-97549269D01*
X110985288Y-97537354D01*
X110933812Y-97490110D01*
X110922070Y-97464399D01*
X110895150Y-97381547D01*
X110895148Y-97381544D01*
X110895148Y-97381542D01*
X110808390Y-97211272D01*
X110696063Y-97056667D01*
X110560933Y-96921537D01*
X110406327Y-96809209D01*
X110236053Y-96722450D01*
X110054302Y-96663395D01*
X110054300Y-96663394D01*
X110054298Y-96663394D01*
X109865557Y-96633500D01*
X109865552Y-96633500D01*
X109674448Y-96633500D01*
X109674443Y-96633500D01*
X109485701Y-96663394D01*
X109303944Y-96722451D01*
X109133672Y-96809209D01*
X109045464Y-96873296D01*
X108979067Y-96921537D01*
X108979065Y-96921539D01*
X108979064Y-96921539D01*
X108843939Y-97056664D01*
X108843939Y-97056665D01*
X108843937Y-97056667D01*
X108795696Y-97123064D01*
X108731609Y-97211272D01*
X108644851Y-97381542D01*
X108630019Y-97427190D01*
X108617930Y-97464397D01*
X108578493Y-97522071D01*
X108514134Y-97549269D01*
X108445288Y-97537354D01*
X108393812Y-97490110D01*
X108382070Y-97464399D01*
X108355150Y-97381547D01*
X108355148Y-97381544D01*
X108355148Y-97381542D01*
X108268390Y-97211272D01*
X108156063Y-97056667D01*
X108020933Y-96921537D01*
X107866327Y-96809209D01*
X107696053Y-96722450D01*
X107514302Y-96663395D01*
X107514300Y-96663394D01*
X107514298Y-96663394D01*
X107325557Y-96633500D01*
X107325552Y-96633500D01*
X107134448Y-96633500D01*
X107134443Y-96633500D01*
X106945701Y-96663394D01*
X106763944Y-96722451D01*
X106593672Y-96809209D01*
X106505464Y-96873296D01*
X106439067Y-96921537D01*
X106439065Y-96921539D01*
X106439064Y-96921539D01*
X106303939Y-97056664D01*
X106303939Y-97056665D01*
X106303937Y-97056667D01*
X106255696Y-97123064D01*
X106191609Y-97211272D01*
X106104851Y-97381542D01*
X106090019Y-97427190D01*
X106077930Y-97464397D01*
X106038493Y-97522071D01*
X105974134Y-97549269D01*
X105905288Y-97537354D01*
X105853812Y-97490110D01*
X105842070Y-97464399D01*
X105815150Y-97381547D01*
X105815148Y-97381544D01*
X105815148Y-97381542D01*
X105728390Y-97211272D01*
X105616063Y-97056667D01*
X105480933Y-96921537D01*
X105326327Y-96809209D01*
X105156053Y-96722450D01*
X104974302Y-96663395D01*
X104974300Y-96663394D01*
X104974298Y-96663394D01*
X104785557Y-96633500D01*
X104785552Y-96633500D01*
X104594448Y-96633500D01*
X104594443Y-96633500D01*
X104405701Y-96663394D01*
X104223944Y-96722451D01*
X104085795Y-96792842D01*
X104017126Y-96805738D01*
X103952385Y-96779462D01*
X103912128Y-96722355D01*
X103905500Y-96682357D01*
X103905500Y-89249999D01*
X106094722Y-89249999D01*
X106094722Y-89250000D01*
X106113762Y-89406818D01*
X106149102Y-89500000D01*
X106169780Y-89554523D01*
X106259517Y-89684530D01*
X106377760Y-89789283D01*
X106517635Y-89862696D01*
X106547589Y-89870078D01*
X106560911Y-89874506D01*
X106560917Y-89874489D01*
X106565783Y-89876087D01*
X106565791Y-89876091D01*
X106780026Y-89927331D01*
X106813172Y-89940538D01*
X106892863Y-89986549D01*
X106900620Y-89988627D01*
X106900628Y-89988632D01*
X106900629Y-89988630D01*
X106923201Y-89994677D01*
X107007441Y-90017250D01*
X107184509Y-90017250D01*
X107187939Y-90017297D01*
X107229134Y-90018437D01*
X107229134Y-90018436D01*
X107229135Y-90018437D01*
X107234814Y-90017868D01*
X107247179Y-90017250D01*
X107648629Y-90017250D01*
X107692702Y-90025347D01*
X107693391Y-90025609D01*
X107749057Y-90067836D01*
X107773056Y-90133455D01*
X107765260Y-90185482D01*
X107739313Y-90253898D01*
X107739311Y-90253907D01*
X107719539Y-90416749D01*
X107719539Y-90416750D01*
X107739311Y-90579592D01*
X107739312Y-90579595D01*
X107797482Y-90732976D01*
X107797483Y-90732977D01*
X107823942Y-90771311D01*
X107845824Y-90837666D01*
X107828358Y-90905318D01*
X107823942Y-90912189D01*
X107797483Y-90950522D01*
X107739312Y-91103904D01*
X107739311Y-91103907D01*
X107719539Y-91266749D01*
X107719539Y-91266750D01*
X107739311Y-91429592D01*
X107739312Y-91429595D01*
X107797482Y-91582976D01*
X107797483Y-91582977D01*
X107823942Y-91621311D01*
X107845824Y-91687666D01*
X107828358Y-91755318D01*
X107823942Y-91762189D01*
X107797483Y-91800522D01*
X107739312Y-91953904D01*
X107739311Y-91953907D01*
X107719539Y-92116749D01*
X107719539Y-92116750D01*
X107739311Y-92279592D01*
X107739312Y-92279595D01*
X107797483Y-92432978D01*
X107823641Y-92470874D01*
X107890668Y-92567979D01*
X107890670Y-92567981D01*
X107890672Y-92567983D01*
X108013451Y-92676756D01*
X108013452Y-92676756D01*
X108013454Y-92676758D01*
X108158705Y-92752992D01*
X108158707Y-92752992D01*
X108158708Y-92752993D01*
X108317978Y-92792250D01*
X108317979Y-92792250D01*
X108482022Y-92792250D01*
X108641291Y-92752993D01*
X108641291Y-92752992D01*
X108641295Y-92752992D01*
X108786546Y-92676758D01*
X108909332Y-92567979D01*
X108962177Y-92491419D01*
X109016457Y-92447431D01*
X109085905Y-92439771D01*
X109148470Y-92470874D01*
X109166274Y-92491420D01*
X109215668Y-92562979D01*
X109215670Y-92562981D01*
X109215672Y-92562983D01*
X109338451Y-92671756D01*
X109338452Y-92671756D01*
X109338454Y-92671758D01*
X109483705Y-92747992D01*
X109483707Y-92747992D01*
X109483708Y-92747993D01*
X109642978Y-92787250D01*
X109642979Y-92787250D01*
X109807022Y-92787250D01*
X109966291Y-92747993D01*
X109966291Y-92747992D01*
X109966295Y-92747992D01*
X110111546Y-92671758D01*
X110234332Y-92562979D01*
X110327518Y-92427976D01*
X110385688Y-92274595D01*
X110405461Y-92111750D01*
X110385688Y-91948905D01*
X110327518Y-91795524D01*
X110327516Y-91795521D01*
X110327515Y-91795518D01*
X110301059Y-91757191D01*
X110279175Y-91690837D01*
X110296640Y-91623185D01*
X110301059Y-91616309D01*
X110327515Y-91577981D01*
X110327515Y-91577979D01*
X110327518Y-91577976D01*
X110385688Y-91424595D01*
X110405461Y-91261750D01*
X110385688Y-91098905D01*
X110327518Y-90945524D01*
X110327516Y-90945521D01*
X110327515Y-90945518D01*
X110301059Y-90907191D01*
X110279175Y-90840837D01*
X110296640Y-90773185D01*
X110301059Y-90766309D01*
X110327515Y-90727981D01*
X110327515Y-90727979D01*
X110327518Y-90727976D01*
X110385688Y-90574595D01*
X110405461Y-90411750D01*
X110385688Y-90248905D01*
X110327518Y-90095524D01*
X110327516Y-90095521D01*
X110327515Y-90095518D01*
X110301059Y-90057191D01*
X110279175Y-89990837D01*
X110296640Y-89923185D01*
X110301059Y-89916309D01*
X110327515Y-89877981D01*
X110327515Y-89877979D01*
X110327518Y-89877976D01*
X110385688Y-89724595D01*
X110405461Y-89561750D01*
X110404583Y-89554523D01*
X110385688Y-89398907D01*
X110385687Y-89398901D01*
X110359739Y-89330483D01*
X110354372Y-89260820D01*
X110387519Y-89199314D01*
X110431530Y-89170638D01*
X110461837Y-89159092D01*
X110473868Y-89155199D01*
X110533266Y-89139284D01*
X110537924Y-89138036D01*
X110537926Y-89138035D01*
X110556512Y-89133056D01*
X110562134Y-89131550D01*
X110562134Y-89131549D01*
X110562137Y-89131549D01*
X110664864Y-89072239D01*
X111360489Y-88376614D01*
X111419799Y-88273887D01*
X111434812Y-88217857D01*
X111450500Y-88159309D01*
X111450500Y-85178736D01*
X111419799Y-85064159D01*
X111405437Y-85039283D01*
X111360490Y-84961432D01*
X110738569Y-84339511D01*
X110687205Y-84309856D01*
X110635843Y-84280201D01*
X110623735Y-84276957D01*
X110611628Y-84273713D01*
X110611625Y-84273712D01*
X110573433Y-84263478D01*
X110521264Y-84249500D01*
X110521263Y-84249500D01*
X108837965Y-84249500D01*
X108770926Y-84229815D01*
X108750284Y-84213181D01*
X108312464Y-83775361D01*
X108287709Y-83739968D01*
X108104237Y-83345446D01*
X108098113Y-83332923D01*
X108095126Y-83328022D01*
X108095913Y-83327542D01*
X108084448Y-83306628D01*
X108080220Y-83295477D01*
X107990483Y-83165470D01*
X107872240Y-83060717D01*
X107872238Y-83060716D01*
X107872237Y-83060715D01*
X107732365Y-82987303D01*
X107578986Y-82949500D01*
X107578985Y-82949500D01*
X107421015Y-82949500D01*
X107421014Y-82949500D01*
X107267634Y-82987303D01*
X107127762Y-83060715D01*
X107009516Y-83165471D01*
X106919781Y-83295475D01*
X106919780Y-83295476D01*
X106863762Y-83443181D01*
X106844722Y-83599999D01*
X106844722Y-83600000D01*
X106863762Y-83756818D01*
X106870795Y-83775361D01*
X106919780Y-83904523D01*
X107009517Y-84034530D01*
X107127760Y-84139283D01*
X107219093Y-84187218D01*
X107231538Y-84194712D01*
X107245420Y-84204223D01*
X107402828Y-84277426D01*
X107402827Y-84277426D01*
X107639966Y-84387707D01*
X107675359Y-84412462D01*
X108323386Y-85060489D01*
X108426113Y-85119799D01*
X108450321Y-85126284D01*
X108450324Y-85126286D01*
X108450325Y-85126286D01*
X108480447Y-85134357D01*
X108540691Y-85150500D01*
X110223990Y-85150500D01*
X110291029Y-85170185D01*
X110311671Y-85186819D01*
X110513181Y-85388329D01*
X110546666Y-85449652D01*
X110549500Y-85476010D01*
X110549500Y-87469190D01*
X110529815Y-87536229D01*
X110477011Y-87581984D01*
X110407853Y-87591928D01*
X110344297Y-87562903D01*
X110323450Y-87539630D01*
X110274828Y-87469190D01*
X110234332Y-87410521D01*
X110234329Y-87410518D01*
X110234327Y-87410516D01*
X110111548Y-87301743D01*
X110063129Y-87276330D01*
X109966295Y-87225508D01*
X109966294Y-87225507D01*
X109966291Y-87225506D01*
X109807022Y-87186250D01*
X109807021Y-87186250D01*
X109642979Y-87186250D01*
X109642978Y-87186250D01*
X109483708Y-87225506D01*
X109338451Y-87301743D01*
X109215672Y-87410516D01*
X109215669Y-87410519D01*
X109212215Y-87415523D01*
X109162825Y-87487078D01*
X109162824Y-87487079D01*
X109108541Y-87531069D01*
X109039092Y-87538728D01*
X108976527Y-87507624D01*
X108958724Y-87487078D01*
X108909333Y-87415523D01*
X108909332Y-87415521D01*
X108909329Y-87415518D01*
X108909327Y-87415516D01*
X108786548Y-87306743D01*
X108641291Y-87230506D01*
X108482022Y-87191250D01*
X108482021Y-87191250D01*
X108317979Y-87191250D01*
X108317978Y-87191250D01*
X108158708Y-87230506D01*
X108013451Y-87306743D01*
X107890672Y-87415516D01*
X107890666Y-87415523D01*
X107797483Y-87550521D01*
X107739312Y-87703904D01*
X107739311Y-87703907D01*
X107719539Y-87866749D01*
X107719539Y-87866750D01*
X107739311Y-88029592D01*
X107739312Y-88029595D01*
X107797482Y-88182976D01*
X107797483Y-88182977D01*
X107823942Y-88221311D01*
X107845824Y-88287666D01*
X107828358Y-88355318D01*
X107823942Y-88362189D01*
X107802758Y-88392880D01*
X107797482Y-88400524D01*
X107776390Y-88456138D01*
X107739312Y-88553904D01*
X107739311Y-88553907D01*
X107719539Y-88716749D01*
X107719539Y-88716750D01*
X107739311Y-88879592D01*
X107739312Y-88879595D01*
X107764297Y-88945476D01*
X107765260Y-88948013D01*
X107770627Y-89017677D01*
X107737480Y-89079183D01*
X107693607Y-89107806D01*
X107692914Y-89108071D01*
X107648625Y-89116250D01*
X107498375Y-89116250D01*
X107431336Y-89096565D01*
X107391018Y-89054301D01*
X107339255Y-88964744D01*
X107330668Y-88946658D01*
X107330220Y-88945477D01*
X107301952Y-88904524D01*
X107240483Y-88815470D01*
X107122240Y-88710717D01*
X107122238Y-88710716D01*
X107122237Y-88710715D01*
X106982365Y-88637303D01*
X106828986Y-88599500D01*
X106828985Y-88599500D01*
X106671015Y-88599500D01*
X106671014Y-88599500D01*
X106517634Y-88637303D01*
X106377762Y-88710715D01*
X106259516Y-88815471D01*
X106169781Y-88945475D01*
X106169780Y-88945476D01*
X106113762Y-89093181D01*
X106094722Y-89249999D01*
X103905500Y-89249999D01*
X103905500Y-86595065D01*
X103905500Y-86595053D01*
X103903788Y-86560202D01*
X103901405Y-86536011D01*
X103896286Y-86501507D01*
X103888257Y-86461143D01*
X103868028Y-86394456D01*
X103849513Y-86349756D01*
X103816659Y-86288291D01*
X103816648Y-86288274D01*
X103793819Y-86254107D01*
X103793801Y-86254083D01*
X103793791Y-86254067D01*
X103773007Y-86226043D01*
X103757586Y-86207253D01*
X103734160Y-86181407D01*
X103041819Y-85489066D01*
X103008334Y-85427743D01*
X103005500Y-85401385D01*
X103005500Y-80415325D01*
X103025185Y-80348286D01*
X103047119Y-80322646D01*
X103709237Y-79734098D01*
X103735910Y-79707743D01*
X103753496Y-79688430D01*
X103777241Y-79659417D01*
X103803329Y-79623870D01*
X103841029Y-79559171D01*
X103862311Y-79511781D01*
X103885624Y-79440617D01*
X103894861Y-79397502D01*
X103900772Y-79360469D01*
X103903523Y-79334493D01*
X103905500Y-79297053D01*
X103905500Y-78879500D01*
X103925185Y-78812461D01*
X103977989Y-78766706D01*
X104029500Y-78755500D01*
X104489506Y-78755500D01*
X104556545Y-78775185D01*
X104602300Y-78827989D01*
X104612602Y-78864555D01*
X104620494Y-78929563D01*
X104620495Y-78929566D01*
X104651195Y-79010516D01*
X104654829Y-79021660D01*
X104662006Y-79047804D01*
X104662011Y-79047819D01*
X104777292Y-79297062D01*
X104823745Y-79397498D01*
X104838045Y-79428414D01*
X104849500Y-79480468D01*
X104849500Y-83250858D01*
X104829815Y-83317897D01*
X104813181Y-83338539D01*
X104464184Y-83687535D01*
X104428792Y-83712290D01*
X104034228Y-83895783D01*
X104021720Y-83901900D01*
X104012951Y-83908427D01*
X103996544Y-83918749D01*
X103916588Y-83960714D01*
X103916586Y-83960715D01*
X103798340Y-84065471D01*
X103708605Y-84195475D01*
X103708604Y-84195476D01*
X103652586Y-84343181D01*
X103633546Y-84499999D01*
X103633546Y-84500000D01*
X103652586Y-84656818D01*
X103708604Y-84804523D01*
X103798341Y-84934530D01*
X103916584Y-85039283D01*
X103916586Y-85039284D01*
X104056458Y-85112696D01*
X104209838Y-85150500D01*
X104209839Y-85150500D01*
X104367809Y-85150500D01*
X104521189Y-85112696D01*
X104661062Y-85039284D01*
X104661061Y-85039284D01*
X104661064Y-85039283D01*
X104768625Y-84943992D01*
X104831856Y-84914272D01*
X104901119Y-84923455D01*
X104920830Y-84936120D01*
X104921588Y-84935023D01*
X104927761Y-84939284D01*
X105067634Y-85012696D01*
X105221014Y-85050500D01*
X105221015Y-85050500D01*
X105378985Y-85050500D01*
X105532365Y-85012696D01*
X105672240Y-84939283D01*
X105790483Y-84834530D01*
X105880220Y-84704523D01*
X105887621Y-84685005D01*
X105901271Y-84658889D01*
X105904226Y-84654576D01*
X105904226Y-84654575D01*
X106087708Y-84260030D01*
X106112463Y-84224639D01*
X106217218Y-84119885D01*
X106217218Y-84119884D01*
X106217221Y-84119882D01*
X106276531Y-84017155D01*
X106289175Y-83969965D01*
X106307232Y-83902577D01*
X106307232Y-79233464D01*
X106326917Y-79166425D01*
X106335307Y-79154886D01*
X106498576Y-78955612D01*
X106498712Y-78955442D01*
X106498767Y-78955377D01*
X106503736Y-78950214D01*
X106503661Y-78950148D01*
X106508634Y-78944533D01*
X106508638Y-78944531D01*
X106598375Y-78814524D01*
X106598374Y-78814524D01*
X106602636Y-78808351D01*
X106604034Y-78809316D01*
X106646214Y-78765712D01*
X106714231Y-78749728D01*
X106725072Y-78750803D01*
X106757739Y-78755500D01*
X106757740Y-78755500D01*
X112100155Y-78755500D01*
X112100169Y-78755500D01*
X112136598Y-78753629D01*
X112161876Y-78751025D01*
X112197916Y-78745431D01*
X112239962Y-78736676D01*
X112309380Y-78714599D01*
X112355726Y-78694425D01*
X112419181Y-78658665D01*
X112454235Y-78633861D01*
X112482883Y-78611298D01*
X112502014Y-78594572D01*
X112528212Y-78569181D01*
X113748627Y-77258364D01*
X113770153Y-77232955D01*
X113784307Y-77214566D01*
X113803360Y-77187255D01*
X113824341Y-77153959D01*
X113854390Y-77094593D01*
X113871309Y-77051591D01*
X113889767Y-76987674D01*
X113897102Y-76948998D01*
X113901768Y-76916029D01*
X113903940Y-76892924D01*
X113905500Y-76859652D01*
X113905500Y-75800403D01*
X113903609Y-75763785D01*
X113900978Y-75738378D01*
X113895327Y-75702155D01*
X113886485Y-75659917D01*
X113864182Y-75590179D01*
X113863053Y-75587601D01*
X113843805Y-75543638D01*
X113843804Y-75543635D01*
X113840268Y-75537400D01*
X113807689Y-75479946D01*
X113807687Y-75479943D01*
X113807683Y-75479936D01*
X113782639Y-75444784D01*
X113759854Y-75416061D01*
X113742970Y-75396896D01*
X113717350Y-75370675D01*
X113207100Y-74899674D01*
X113181743Y-74878367D01*
X113181742Y-74878366D01*
X113181737Y-74878362D01*
X113174212Y-74872615D01*
X113163409Y-74864365D01*
X113136197Y-74845521D01*
X113103007Y-74824755D01*
X113043886Y-74795030D01*
X113038786Y-74793036D01*
X113001093Y-74778300D01*
X112961615Y-74766969D01*
X112937526Y-74760055D01*
X112933951Y-74759381D01*
X112926007Y-74757883D01*
X112925938Y-74757868D01*
X112899085Y-74752807D01*
X112899053Y-74752801D01*
X112899048Y-74752801D01*
X112890356Y-74751578D01*
X112866259Y-74748187D01*
X112843322Y-74746044D01*
X112843305Y-74746042D01*
X112843296Y-74746042D01*
X112843282Y-74746041D01*
X112843262Y-74746040D01*
X112810253Y-74744501D01*
X112810224Y-74744500D01*
X112810216Y-74744500D01*
X111112211Y-74744500D01*
X111091311Y-74745526D01*
X111077371Y-74746211D01*
X111053188Y-74748592D01*
X111018705Y-74753706D01*
X111018679Y-74753710D01*
X111018671Y-74753712D01*
X110978297Y-74761743D01*
X110978294Y-74761743D01*
X110978281Y-74761747D01*
X110911617Y-74781970D01*
X110911605Y-74781974D01*
X110866905Y-74800490D01*
X110866898Y-74800493D01*
X110832954Y-74818638D01*
X110764551Y-74832881D01*
X110699307Y-74807882D01*
X110657936Y-74751578D01*
X110650499Y-74709285D01*
X110650499Y-73527128D01*
X110644091Y-73467517D01*
X110593796Y-73332669D01*
X110593795Y-73332668D01*
X110593793Y-73332664D01*
X110507547Y-73217455D01*
X110507544Y-73217452D01*
X110392335Y-73131206D01*
X110392328Y-73131202D01*
X110257486Y-73080910D01*
X110257485Y-73080909D01*
X110257483Y-73080909D01*
X110197873Y-73074500D01*
X110197863Y-73074500D01*
X109802129Y-73074500D01*
X109802123Y-73074501D01*
X109742516Y-73080908D01*
X109607671Y-73131202D01*
X109607669Y-73131203D01*
X109574310Y-73156176D01*
X109508845Y-73180592D01*
X109440572Y-73165740D01*
X109425690Y-73156176D01*
X109392330Y-73131203D01*
X109392328Y-73131202D01*
X109257486Y-73080910D01*
X109257485Y-73080909D01*
X109257483Y-73080909D01*
X109197873Y-73074500D01*
X109197863Y-73074500D01*
X108802129Y-73074500D01*
X108802123Y-73074501D01*
X108742516Y-73080908D01*
X108607671Y-73131202D01*
X108607669Y-73131203D01*
X108574310Y-73156176D01*
X108508845Y-73180592D01*
X108440572Y-73165740D01*
X108425690Y-73156176D01*
X108392330Y-73131203D01*
X108392328Y-73131202D01*
X108257486Y-73080910D01*
X108257485Y-73080909D01*
X108257483Y-73080909D01*
X108197873Y-73074500D01*
X108197863Y-73074500D01*
X107802129Y-73074500D01*
X107802123Y-73074501D01*
X107742516Y-73080908D01*
X107607671Y-73131202D01*
X107607664Y-73131206D01*
X107492455Y-73217452D01*
X107492452Y-73217455D01*
X107406206Y-73332664D01*
X107406202Y-73332671D01*
X107355908Y-73467517D01*
X107349501Y-73527116D01*
X107349501Y-73527123D01*
X107349500Y-73527135D01*
X107349500Y-74726678D01*
X107329815Y-74793717D01*
X107313181Y-74814359D01*
X106908036Y-75219505D01*
X106819506Y-75308034D01*
X106819504Y-75308037D01*
X106756905Y-75416463D01*
X106724500Y-75537400D01*
X106724500Y-76820500D01*
X106704815Y-76887539D01*
X106652011Y-76933294D01*
X106600500Y-76944500D01*
X103753393Y-76944500D01*
X103686354Y-76924815D01*
X103664238Y-76906683D01*
X102490345Y-75692310D01*
X102457904Y-75630428D01*
X102455500Y-75606127D01*
X102455500Y-74759386D01*
X102455488Y-74757883D01*
X102455452Y-74753552D01*
X102455451Y-74753532D01*
X102455451Y-74753450D01*
X102455385Y-74749477D01*
X102455385Y-74749466D01*
X102437546Y-74643951D01*
X102415663Y-74577598D01*
X102373862Y-74493517D01*
X102373424Y-74491053D01*
X102345426Y-74450493D01*
X102331533Y-74424024D01*
X102316805Y-74385191D01*
X102309651Y-74356168D01*
X102304646Y-74314940D01*
X102304646Y-74285055D01*
X102307601Y-74260715D01*
X102309651Y-74243827D01*
X102316803Y-74214810D01*
X102331536Y-74175965D01*
X102345423Y-74149507D01*
X102370620Y-74113004D01*
X102373911Y-74108152D01*
X102376176Y-74104752D01*
X102421414Y-74007815D01*
X102441099Y-73940776D01*
X102455500Y-73840617D01*
X102455500Y-69635268D01*
X104749500Y-69635268D01*
X104749500Y-71014733D01*
X104764943Y-71132048D01*
X104764946Y-71132057D01*
X104825414Y-71278039D01*
X104921604Y-71403396D01*
X105046961Y-71499586D01*
X105192943Y-71560054D01*
X105310269Y-71575500D01*
X106089730Y-71575499D01*
X106089733Y-71575499D01*
X106207048Y-71560056D01*
X106207052Y-71560054D01*
X106207057Y-71560054D01*
X106353039Y-71499586D01*
X106478396Y-71403396D01*
X106574586Y-71278039D01*
X106635054Y-71132057D01*
X106650500Y-71014731D01*
X106650499Y-69635270D01*
X106650499Y-69635268D01*
X110349500Y-69635268D01*
X110349500Y-71014733D01*
X110364943Y-71132048D01*
X110364946Y-71132057D01*
X110425414Y-71278039D01*
X110521604Y-71403396D01*
X110646961Y-71499586D01*
X110792943Y-71560054D01*
X110910269Y-71575500D01*
X111689730Y-71575499D01*
X111689733Y-71575499D01*
X111807048Y-71560056D01*
X111807052Y-71560054D01*
X111807057Y-71560054D01*
X111953039Y-71499586D01*
X112078396Y-71403396D01*
X112174586Y-71278039D01*
X112235054Y-71132057D01*
X112250500Y-71014731D01*
X112250499Y-69635270D01*
X112250499Y-69635268D01*
X112250499Y-69635266D01*
X112235056Y-69517951D01*
X112235054Y-69517944D01*
X112235054Y-69517943D01*
X112174586Y-69371961D01*
X112078396Y-69246604D01*
X111953039Y-69150414D01*
X111953035Y-69150412D01*
X111807057Y-69089946D01*
X111807055Y-69089945D01*
X111689731Y-69074500D01*
X110910266Y-69074500D01*
X110792951Y-69089943D01*
X110792942Y-69089946D01*
X110646964Y-69150412D01*
X110646961Y-69150413D01*
X110646961Y-69150414D01*
X110638614Y-69156819D01*
X110521604Y-69246604D01*
X110425412Y-69371964D01*
X110364946Y-69517942D01*
X110364945Y-69517944D01*
X110349500Y-69635268D01*
X106650499Y-69635268D01*
X106650499Y-69635266D01*
X106635056Y-69517951D01*
X106635054Y-69517944D01*
X106635054Y-69517943D01*
X106574586Y-69371961D01*
X106478396Y-69246604D01*
X106353039Y-69150414D01*
X106353035Y-69150412D01*
X106207057Y-69089946D01*
X106207055Y-69089945D01*
X106089731Y-69074500D01*
X105310266Y-69074500D01*
X105192951Y-69089943D01*
X105192942Y-69089946D01*
X105046964Y-69150412D01*
X105046961Y-69150413D01*
X105046961Y-69150414D01*
X105038614Y-69156819D01*
X104921604Y-69246604D01*
X104825412Y-69371964D01*
X104764946Y-69517942D01*
X104764945Y-69517944D01*
X104749500Y-69635268D01*
X102455500Y-69635268D01*
X102455500Y-65762210D01*
X102453787Y-65727355D01*
X102451404Y-65703167D01*
X102446287Y-65668672D01*
X102438258Y-65628305D01*
X102418024Y-65561604D01*
X102399508Y-65516905D01*
X102366656Y-65455446D01*
X102350706Y-65431576D01*
X102306498Y-65377710D01*
X102272289Y-65343501D01*
X102218423Y-65299293D01*
X102206405Y-65291262D01*
X102194555Y-65283344D01*
X102194551Y-65283342D01*
X102133092Y-65250489D01*
X102101487Y-65237398D01*
X102088396Y-65231975D01*
X102088393Y-65231974D01*
X102088389Y-65231972D01*
X102026371Y-65213160D01*
X102021700Y-65211743D01*
X102021697Y-65211742D01*
X102021696Y-65211742D01*
X102021691Y-65211741D01*
X101981301Y-65203707D01*
X101946835Y-65198596D01*
X101946824Y-65198594D01*
X101946806Y-65198592D01*
X101946781Y-65198589D01*
X101946760Y-65198587D01*
X101922632Y-65196211D01*
X101907956Y-65195490D01*
X101887789Y-65194500D01*
X100624500Y-65194500D01*
X100557461Y-65174815D01*
X100511706Y-65122011D01*
X100500500Y-65070500D01*
X100500500Y-63505413D01*
X100500972Y-63494606D01*
X100506265Y-63434108D01*
X100514739Y-63337242D01*
X100518490Y-63315966D01*
X100557969Y-63168627D01*
X100565362Y-63148318D01*
X100629823Y-63010081D01*
X100640629Y-62991366D01*
X100728119Y-62866417D01*
X100742007Y-62849865D01*
X100849865Y-62742007D01*
X100866417Y-62728119D01*
X100991366Y-62640629D01*
X101010081Y-62629823D01*
X101148320Y-62565361D01*
X101168627Y-62557969D01*
X101315966Y-62518490D01*
X101337242Y-62514739D01*
X101469885Y-62503134D01*
X101494606Y-62500972D01*
X101505413Y-62500500D01*
X101565892Y-62500500D01*
X115434108Y-62500500D01*
X115494587Y-62500500D01*
X115505394Y-62500972D01*
G37*
%TD.AperFunction*%
%TD*%
%TA.AperFunction,Conductor*%
%TO.N,+3.3V*%
G36*
X112833189Y-75102147D02*
G01*
X112861430Y-75107471D01*
X112871655Y-75109399D01*
X112914447Y-75126128D01*
X112947637Y-75146894D01*
X112965971Y-75160896D01*
X113476221Y-75631897D01*
X113493105Y-75651062D01*
X113518149Y-75686214D01*
X113538527Y-75732758D01*
X113547369Y-75774996D01*
X113550000Y-75800403D01*
X113550000Y-76859652D01*
X113547828Y-76882757D01*
X113540493Y-76921433D01*
X113523574Y-76964435D01*
X113502593Y-76997731D01*
X113488439Y-77016120D01*
X112268024Y-78326937D01*
X112248893Y-78343663D01*
X112213839Y-78368467D01*
X112167493Y-78388641D01*
X112125447Y-78397396D01*
X112100169Y-78400000D01*
X106757739Y-78400000D01*
X106690700Y-78380315D01*
X106644945Y-78327511D01*
X106641797Y-78319972D01*
X106632204Y-78294678D01*
X106598375Y-78205478D01*
X106508638Y-78075471D01*
X106390395Y-77970718D01*
X106390393Y-77970717D01*
X106390392Y-77970716D01*
X106250520Y-77897304D01*
X106097141Y-77859501D01*
X106097140Y-77859501D01*
X105939170Y-77859501D01*
X105939169Y-77859501D01*
X105785789Y-77897304D01*
X105645917Y-77970716D01*
X105527668Y-78075474D01*
X105520787Y-78085443D01*
X105466502Y-78129430D01*
X105397053Y-78137086D01*
X105389067Y-78135394D01*
X105335718Y-78122245D01*
X105335717Y-78122245D01*
X105177747Y-78122245D01*
X105177746Y-78122245D01*
X105024366Y-78160048D01*
X104884494Y-78233460D01*
X104884492Y-78233462D01*
X104766249Y-78338215D01*
X104760571Y-78346440D01*
X104706290Y-78390430D01*
X104658522Y-78400000D01*
X103100000Y-78400000D01*
X103100000Y-77300000D01*
X103634835Y-77300000D01*
X107636120Y-77300000D01*
X107682747Y-77309100D01*
X107687401Y-77310988D01*
X107687405Y-77310991D01*
X108024515Y-77447792D01*
X108040909Y-77457180D01*
X108041346Y-77456425D01*
X108107693Y-77494729D01*
X108107696Y-77494732D01*
X108141937Y-77514500D01*
X108151114Y-77519799D01*
X108265691Y-77550500D01*
X108265694Y-77550500D01*
X110084307Y-77550500D01*
X110084309Y-77550500D01*
X110169772Y-77527600D01*
X110187833Y-77522761D01*
X110187835Y-77522760D01*
X110198887Y-77519799D01*
X110301614Y-77460489D01*
X110425784Y-77336319D01*
X110487107Y-77302834D01*
X110513465Y-77300000D01*
X110700001Y-77300000D01*
X110900000Y-77300000D01*
X110900000Y-77157892D01*
X110928405Y-77122644D01*
X110994699Y-77100578D01*
X110999126Y-77100499D01*
X111114403Y-77100499D01*
X111224463Y-77086011D01*
X111224467Y-77086009D01*
X111224472Y-77086009D01*
X111361429Y-77029279D01*
X111479036Y-76939036D01*
X111569279Y-76821429D01*
X111626009Y-76684472D01*
X111640500Y-76574401D01*
X111640499Y-76075600D01*
X111640499Y-76075596D01*
X111626011Y-75965536D01*
X111626009Y-75965531D01*
X111626009Y-75965528D01*
X111569279Y-75828571D01*
X111479036Y-75710964D01*
X111361429Y-75620721D01*
X111361425Y-75620719D01*
X111224472Y-75563991D01*
X111224470Y-75563990D01*
X111114410Y-75549501D01*
X111114407Y-75549500D01*
X111114401Y-75549500D01*
X111114394Y-75549500D01*
X111024000Y-75549500D01*
X110956961Y-75529815D01*
X110911206Y-75477011D01*
X110900000Y-75425500D01*
X110900000Y-75312210D01*
X110902381Y-75288029D01*
X110910412Y-75247651D01*
X110928927Y-75202956D01*
X110944877Y-75179086D01*
X110979086Y-75144877D01*
X111002956Y-75128927D01*
X111047653Y-75110412D01*
X111088027Y-75102381D01*
X111112211Y-75100000D01*
X112810216Y-75100000D01*
X112833189Y-75102147D01*
G37*
%TD.AperFunction*%
%TD*%
%TA.AperFunction,Conductor*%
%TO.N,+3.3V*%
G36*
X101911971Y-65552381D02*
G01*
X101952346Y-65560412D01*
X101997043Y-65578927D01*
X102020913Y-65594877D01*
X102055122Y-65629086D01*
X102071072Y-65652956D01*
X102089588Y-65697655D01*
X102097617Y-65738022D01*
X102100000Y-65762210D01*
X102100000Y-73840617D01*
X102080315Y-73907656D01*
X102078050Y-73911056D01*
X102019783Y-73995470D01*
X102019780Y-73995476D01*
X101963762Y-74143181D01*
X101944722Y-74299999D01*
X101944722Y-74300000D01*
X101963762Y-74456818D01*
X102019780Y-74604523D01*
X102019780Y-74604524D01*
X102048900Y-74646712D01*
X102078050Y-74688942D01*
X102099933Y-74755295D01*
X102100000Y-74759381D01*
X102100000Y-75800000D01*
X103550000Y-77300000D01*
X103550000Y-78599995D01*
X103550000Y-79297053D01*
X103547249Y-79323029D01*
X103538012Y-79366144D01*
X103516730Y-79413534D01*
X103490642Y-79449081D01*
X103473056Y-79468394D01*
X102717129Y-80140329D01*
X102717127Y-80140331D01*
X102717125Y-80140332D01*
X102650000Y-80200000D01*
X102650000Y-85600000D01*
X102708578Y-85658578D01*
X102708581Y-85658582D01*
X103482784Y-86432784D01*
X103498205Y-86451574D01*
X103521073Y-86485798D01*
X103539588Y-86530498D01*
X103547617Y-86570862D01*
X103550000Y-86595053D01*
X103550000Y-97407610D01*
X103543931Y-97445928D01*
X103505794Y-97563300D01*
X103505794Y-97563301D01*
X103475900Y-97752042D01*
X103475900Y-98247957D01*
X103505794Y-98436698D01*
X103543931Y-98554071D01*
X103550000Y-98592389D01*
X103550000Y-99375500D01*
X103530315Y-99442539D01*
X103477511Y-99488294D01*
X103426000Y-99499500D01*
X101505413Y-99499500D01*
X101494605Y-99499028D01*
X101337246Y-99485260D01*
X101315961Y-99481507D01*
X101168630Y-99442030D01*
X101148318Y-99434637D01*
X101010084Y-99370177D01*
X100991366Y-99359370D01*
X100866417Y-99271880D01*
X100849859Y-99257986D01*
X100742013Y-99150140D01*
X100728119Y-99133582D01*
X100640629Y-99008633D01*
X100629822Y-98989915D01*
X100565362Y-98851681D01*
X100557969Y-98831369D01*
X100518492Y-98684038D01*
X100514739Y-98662752D01*
X100510863Y-98618453D01*
X100500972Y-98505393D01*
X100500500Y-98494586D01*
X100500500Y-65674000D01*
X100520185Y-65606961D01*
X100572989Y-65561206D01*
X100624500Y-65550000D01*
X101887789Y-65550000D01*
X101911971Y-65552381D01*
G37*
%TD.AperFunction*%
%TD*%
%TA.AperFunction,Conductor*%
%TO.N,Net-(D1-PadA)*%
G36*
X105524342Y-78883558D02*
G01*
X105530654Y-78889910D01*
X105531095Y-78897519D01*
X105402398Y-79355604D01*
X105396861Y-79362641D01*
X105391134Y-79364139D01*
X105207479Y-79364139D01*
X105199206Y-79360712D01*
X105196860Y-79357351D01*
X104984667Y-78898575D01*
X104984304Y-78889627D01*
X104990374Y-78883044D01*
X104990754Y-78882875D01*
X105252222Y-78773628D01*
X105261176Y-78773602D01*
X105524342Y-78883558D01*
G37*
%TD.AperFunction*%
%TD*%
%TA.AperFunction,Conductor*%
%TO.N,Net-(D1-PadA)*%
G36*
X104648163Y-84010812D02*
G01*
X104778011Y-84140660D01*
X104781438Y-84148933D01*
X104780347Y-84153867D01*
X104570701Y-84604670D01*
X104564105Y-84610726D01*
X104555648Y-84610559D01*
X104292639Y-84502563D01*
X104286287Y-84496251D01*
X104286260Y-84496184D01*
X104178264Y-84233175D01*
X104178291Y-84224220D01*
X104184150Y-84218124D01*
X104634958Y-84008475D01*
X104643903Y-84008095D01*
X104648163Y-84010812D01*
G37*
%TD.AperFunction*%
%TD*%
%TA.AperFunction,Conductor*%
%TO.N,Net-(D2-PadA)*%
G36*
X106021554Y-78512416D02*
G01*
X106021601Y-78512463D01*
X106222830Y-78714641D01*
X106226237Y-78722923D01*
X106223587Y-78730310D01*
X105960243Y-79051731D01*
X105952349Y-79055959D01*
X105951193Y-79056016D01*
X105767635Y-79056016D01*
X105759362Y-79052589D01*
X105755964Y-79045141D01*
X105745261Y-78893663D01*
X105745350Y-78891180D01*
X105762379Y-78772745D01*
X105741897Y-78630288D01*
X105724739Y-78592719D01*
X105723714Y-78588695D01*
X105719036Y-78522480D01*
X105721871Y-78513989D01*
X105729883Y-78509988D01*
X105730659Y-78509959D01*
X106013269Y-78509017D01*
X106021554Y-78512416D01*
G37*
%TD.AperFunction*%
%TD*%
%TA.AperFunction,Conductor*%
%TO.N,Net-(D2-PadA)*%
G36*
X105659339Y-83910812D02*
G01*
X105789187Y-84040660D01*
X105792614Y-84048933D01*
X105791523Y-84053867D01*
X105581877Y-84504670D01*
X105575281Y-84510726D01*
X105566824Y-84510559D01*
X105303815Y-84402563D01*
X105297463Y-84396251D01*
X105297436Y-84396184D01*
X105189440Y-84133175D01*
X105189467Y-84124220D01*
X105195326Y-84118124D01*
X105646134Y-83908475D01*
X105655079Y-83908095D01*
X105659339Y-83910812D01*
G37*
%TD.AperFunction*%
%TD*%
%TA.AperFunction,Conductor*%
%TO.N,USART_RTS*%
G36*
X114962397Y-88973816D02*
G01*
X115127036Y-89138455D01*
X115130463Y-89146728D01*
X115129486Y-89151410D01*
X114931743Y-89604316D01*
X114925292Y-89610526D01*
X114916576Y-89610457D01*
X114653815Y-89502563D01*
X114647463Y-89496251D01*
X114647436Y-89496184D01*
X114538994Y-89232088D01*
X114539021Y-89223133D01*
X114543742Y-89217644D01*
X114948051Y-88972088D01*
X114956900Y-88970723D01*
X114962397Y-88973816D01*
G37*
%TD.AperFunction*%
%TD*%
%TA.AperFunction,Conductor*%
%TO.N,USART_RTS*%
G36*
X116026247Y-68889275D02*
G01*
X116032105Y-68894652D01*
X116231974Y-69277164D01*
X116258673Y-69328259D01*
X116259467Y-69337178D01*
X116256576Y-69341950D01*
X116091950Y-69506576D01*
X116083677Y-69510003D01*
X116078260Y-69508673D01*
X115644652Y-69282105D01*
X115638907Y-69275237D01*
X115639247Y-69267293D01*
X115747436Y-69003814D01*
X115753746Y-68997464D01*
X116017293Y-68889248D01*
X116026247Y-68889275D01*
G37*
%TD.AperFunction*%
%TD*%
%TA.AperFunction,Conductor*%
%TO.N,USART_CTS*%
G36*
X115200008Y-87851481D02*
G01*
X115364634Y-88016107D01*
X115368061Y-88024380D01*
X115366731Y-88029798D01*
X115140164Y-88463404D01*
X115133295Y-88469150D01*
X115125350Y-88468809D01*
X114861873Y-88360621D01*
X114855521Y-88354309D01*
X114855494Y-88354242D01*
X114747306Y-88090765D01*
X114747333Y-88081810D01*
X114752709Y-88075952D01*
X115186320Y-87849383D01*
X115195236Y-87848590D01*
X115200008Y-87851481D01*
G37*
%TD.AperFunction*%
%TD*%
%TA.AperFunction,Conductor*%
%TO.N,USART_CTS*%
G36*
X115913339Y-70374961D02*
G01*
X115921601Y-70378415D01*
X115925000Y-70386661D01*
X115925000Y-70900243D01*
X115921573Y-70908516D01*
X115913300Y-70911943D01*
X115680593Y-70911943D01*
X115672320Y-70908516D01*
X115671488Y-70907591D01*
X115419457Y-70595297D01*
X115416928Y-70586707D01*
X115420267Y-70579697D01*
X115621555Y-70377461D01*
X115629817Y-70374016D01*
X115913339Y-70374961D01*
G37*
%TD.AperFunction*%
%TD*%
%TA.AperFunction,Conductor*%
%TO.N,/BOOT*%
G36*
X115367318Y-74910691D02*
G01*
X115373629Y-74917042D01*
X115373970Y-74924987D01*
X115227571Y-75391801D01*
X115221825Y-75398670D01*
X115216407Y-75400000D01*
X114983593Y-75400000D01*
X114975320Y-75396573D01*
X114972429Y-75391801D01*
X114826029Y-74924987D01*
X114826823Y-74916068D01*
X114832679Y-74910692D01*
X115095490Y-74800883D01*
X115104444Y-74800857D01*
X115367318Y-74910691D01*
G37*
%TD.AperFunction*%
%TD*%
%TA.AperFunction,Conductor*%
%TO.N,/BOOT*%
G36*
X114024680Y-88003427D02*
G01*
X114027571Y-88008199D01*
X114173970Y-88475012D01*
X114173176Y-88483931D01*
X114167317Y-88489309D01*
X113904511Y-88599115D01*
X113895556Y-88599142D01*
X113895489Y-88599115D01*
X113632682Y-88489309D01*
X113626370Y-88482957D01*
X113626029Y-88475013D01*
X113772429Y-88008199D01*
X113778175Y-88001330D01*
X113783593Y-88000000D01*
X114016407Y-88000000D01*
X114024680Y-88003427D01*
G37*
%TD.AperFunction*%
%TD*%
%TA.AperFunction,Conductor*%
%TO.N,Net-(J1-CC2)*%
G36*
X107775779Y-83489467D02*
G01*
X107781877Y-83495329D01*
X107991523Y-83946132D01*
X107991904Y-83955079D01*
X107989187Y-83959339D01*
X107859339Y-84089187D01*
X107851066Y-84092614D01*
X107846132Y-84091523D01*
X107552736Y-83955079D01*
X107395328Y-83881876D01*
X107389273Y-83875281D01*
X107389439Y-83866825D01*
X107497436Y-83603814D01*
X107503746Y-83597464D01*
X107766825Y-83489440D01*
X107775779Y-83489467D01*
G37*
%TD.AperFunction*%
%TD*%
%TA.AperFunction,Conductor*%
%TO.N,Net-(J1-CC2)*%
G36*
X110367467Y-88608879D02*
G01*
X110373977Y-88615026D01*
X110375000Y-88619812D01*
X110375000Y-88803687D01*
X110371573Y-88811960D01*
X110367466Y-88814620D01*
X109859966Y-89007974D01*
X109851014Y-89007718D01*
X109845004Y-89001550D01*
X109725881Y-88716257D01*
X109725857Y-88707303D01*
X109725882Y-88707242D01*
X109766953Y-88608879D01*
X109845004Y-88421948D01*
X109851353Y-88415636D01*
X109859965Y-88415525D01*
X110367467Y-88608879D01*
G37*
%TD.AperFunction*%
%TD*%
%TA.AperFunction,Conductor*%
%TO.N,/USBC_P*%
G36*
X109503487Y-89340199D02*
G01*
X109503804Y-89340501D01*
X109722244Y-89557601D01*
X109725696Y-89565864D01*
X109725696Y-89565925D01*
X109725032Y-89871474D01*
X109721587Y-89879740D01*
X109714859Y-89883049D01*
X109681333Y-89887462D01*
X109680017Y-89887560D01*
X109252454Y-89895279D01*
X109244121Y-89892002D01*
X109243970Y-89891854D01*
X109114008Y-89761892D01*
X109110581Y-89753619D01*
X109113680Y-89745688D01*
X109486958Y-89340867D01*
X109495082Y-89337110D01*
X109503487Y-89340199D01*
G37*
%TD.AperFunction*%
%TD*%
%TA.AperFunction,Conductor*%
%TO.N,/USBC_P*%
G36*
X108863462Y-90002158D02*
G01*
X108865249Y-90003623D01*
X108995129Y-90133503D01*
X108998556Y-90141776D01*
X108996278Y-90148712D01*
X108637854Y-90635630D01*
X108630190Y-90640261D01*
X108621496Y-90638116D01*
X108620184Y-90636993D01*
X108400968Y-90419122D01*
X108398394Y-90415270D01*
X108286018Y-90141776D01*
X108281022Y-90129616D01*
X108281047Y-90120663D01*
X108287397Y-90114349D01*
X108289540Y-90113700D01*
X108382368Y-90095093D01*
X108386184Y-90094966D01*
X108400000Y-90096785D01*
X108537183Y-90078724D01*
X108604726Y-90050746D01*
X108606871Y-90050094D01*
X108854677Y-90000424D01*
X108863462Y-90002158D01*
G37*
%TD.AperFunction*%
%TD*%
%TA.AperFunction,Conductor*%
%TO.N,/USBC_N*%
G36*
X108273985Y-89270781D02*
G01*
X108279996Y-89276950D01*
X108399117Y-89562242D01*
X108399142Y-89571197D01*
X108399117Y-89571258D01*
X108279996Y-89856549D01*
X108273646Y-89862863D01*
X108265033Y-89862974D01*
X107757534Y-89669620D01*
X107751023Y-89663473D01*
X107750000Y-89658687D01*
X107750000Y-89474812D01*
X107753427Y-89466539D01*
X107757531Y-89463880D01*
X108265034Y-89270525D01*
X108273985Y-89270781D01*
G37*
%TD.AperFunction*%
%TD*%
%TA.AperFunction,Conductor*%
%TO.N,/USBC_N*%
G36*
X107026650Y-89139113D02*
G01*
X107032289Y-89144062D01*
X107217228Y-89464033D01*
X107218798Y-89469888D01*
X107218798Y-89651921D01*
X107215371Y-89660194D01*
X107207098Y-89663621D01*
X107204376Y-89663300D01*
X106648487Y-89530343D01*
X106641238Y-89525086D01*
X106639830Y-89516242D01*
X106640383Y-89514527D01*
X106747148Y-89254507D01*
X106753456Y-89248160D01*
X107017697Y-89139102D01*
X107026650Y-89139113D01*
G37*
%TD.AperFunction*%
%TD*%
%TA.AperFunction,Conductor*%
%TO.N,Net-(TEST1-PAD)*%
G36*
X115482707Y-66439248D02*
G01*
X115746184Y-66547436D01*
X115752536Y-66553748D01*
X115752563Y-66553815D01*
X115860751Y-66817292D01*
X115860724Y-66826247D01*
X115855346Y-66832106D01*
X115421740Y-67058673D01*
X115412821Y-67059467D01*
X115408049Y-67056576D01*
X115243423Y-66891950D01*
X115239996Y-66883677D01*
X115241324Y-66878264D01*
X115467894Y-66444651D01*
X115474762Y-66438907D01*
X115482707Y-66439248D01*
G37*
%TD.AperFunction*%
%TD*%
%TA.AperFunction,Conductor*%
%TO.N,Net-(TEST1-PAD)*%
G36*
X114202141Y-66542560D02*
G01*
X114202144Y-66542561D01*
X114992800Y-66872000D01*
X114999119Y-66878345D01*
X115000000Y-66882800D01*
X115000000Y-67117199D01*
X114996573Y-67125472D01*
X114992800Y-67127999D01*
X114202144Y-67457438D01*
X114193189Y-67457457D01*
X114186844Y-67451138D01*
X114186843Y-67451135D01*
X114000872Y-67004497D01*
X114000855Y-66995544D01*
X114186843Y-66548863D01*
X114193187Y-66542543D01*
X114202141Y-66542560D01*
G37*
%TD.AperFunction*%
%TD*%
%TA.AperFunction,Conductor*%
%TO.N,Net-(TEST2-PAD)*%
G36*
X115495562Y-67595511D02*
G01*
X115697241Y-67795850D01*
X115700695Y-67804112D01*
X115700695Y-67804179D01*
X115700027Y-68088342D01*
X115696581Y-68096607D01*
X115688341Y-68100014D01*
X115281111Y-68100514D01*
X115272834Y-68097097D01*
X115108374Y-67932637D01*
X115104947Y-67924364D01*
X115108374Y-67916091D01*
X115108973Y-67915533D01*
X115479666Y-67594960D01*
X115488162Y-67592143D01*
X115495562Y-67595511D01*
G37*
%TD.AperFunction*%
%TD*%
%TA.AperFunction,Conductor*%
%TO.N,Net-(TEST2-PAD)*%
G36*
X114061366Y-68978977D02*
G01*
X114063516Y-68980674D01*
X114227924Y-69145082D01*
X114230691Y-69149482D01*
X114457848Y-69796995D01*
X114458278Y-69798219D01*
X114457783Y-69807160D01*
X114451724Y-69812898D01*
X114003785Y-69998842D01*
X113994830Y-69998848D01*
X113550694Y-69813918D01*
X113544374Y-69807575D01*
X113544391Y-69798621D01*
X113545215Y-69797006D01*
X114045274Y-68982822D01*
X114052523Y-68977568D01*
X114061366Y-68978977D01*
G37*
%TD.AperFunction*%
%TD*%
%TA.AperFunction,Conductor*%
%TO.N,SCL*%
G36*
X108199982Y-76589802D02*
G01*
X108206306Y-76596142D01*
X108206432Y-76596461D01*
X108350663Y-76977164D01*
X108358556Y-76997996D01*
X108359315Y-77002141D01*
X108359315Y-77182625D01*
X108355888Y-77190898D01*
X108347615Y-77194325D01*
X108343216Y-77193466D01*
X107821081Y-76981581D01*
X107814703Y-76975295D01*
X107814639Y-76966341D01*
X107814657Y-76966296D01*
X107922148Y-76704507D01*
X107928456Y-76698160D01*
X108191028Y-76589791D01*
X108199982Y-76589802D01*
G37*
%TD.AperFunction*%
%TD*%
%TA.AperFunction,Conductor*%
%TO.N,SDA*%
G36*
X108120334Y-75594961D02*
G01*
X108491005Y-75915514D01*
X108495021Y-75923518D01*
X108492202Y-75932017D01*
X108491625Y-75932637D01*
X108327175Y-76097087D01*
X108318902Y-76100514D01*
X108318888Y-76100514D01*
X107911658Y-76100014D01*
X107903389Y-76096577D01*
X107899972Y-76088343D01*
X107899304Y-75804177D01*
X107902710Y-75795898D01*
X108104438Y-75595510D01*
X108112722Y-75592112D01*
X108120334Y-75594961D01*
G37*
%TD.AperFunction*%
%TD*%
M02*
