M48
; DRILL file {KiCad 8.0.3} date 2024-06-18T18:25:07+0930
; FORMAT={-:-/ absolute / metric / decimal}
; #@! TF.CreationDate,2024-06-18T18:25:07+09:30
; #@! TF.GenerationSoftware,Kicad,Pcbnew,8.0.3
; #@! TF.FileFunction,Plated,1,2,PTH
FMAT,2
METRIC
; #@! TA.AperFunction,Plated,PTH,ComponentDrill
T1C0.250
; #@! TA.AperFunction,Plated,PTH,ViaDrill
T2C0.300
; #@! TA.AperFunction,Plated,PTH,ViaDrill
T3C0.350
; #@! TA.AperFunction,Plated,PTH,ComponentDrill
T4C0.400
; #@! TA.AperFunction,Plated,PTH,ComponentDrill
T5C0.600
; #@! TA.AperFunction,Plated,PTH,ComponentDrill
T6C1.016
%
G90
G05
T1
X111.7Y-80.0
X112.8Y-80.0
T2
X102.6Y-74.3
X103.2Y-77.6
X103.2Y-78.4
X103.4Y-75.5
X103.6Y-81.4
X103.6Y-82.9
X104.4Y-66.0
X104.4Y-66.9
X104.4Y-67.8
X104.4Y-68.7
X104.5Y-95.0
X105.257Y-78.773
X105.3Y-74.2
X105.3Y-84.4
X105.5Y-95.0
X106.018Y-78.51
X106.75Y-89.25
X106.9Y-71.2
X107.0Y-80.4
X107.0Y-93.0
X107.0Y-94.1
X107.5Y-83.6
X107.7Y-71.2
X107.9Y-75.8
X107.925Y-76.7
X108.5Y-71.2
X109.3Y-71.2
X110.1Y-71.2
X110.9Y-73.9
X110.9Y-79.2
X112.4Y-75.9
X112.5Y-65.9
X112.5Y-66.8
X112.5Y-67.7
X112.5Y-68.6
X113.2Y-75.9
X113.8Y-80.0
X113.9Y-88.6
X114.5Y-73.9
X114.65Y-89.5
X114.858Y-88.358
X115.1Y-74.8
X115.625Y-70.375
X115.7Y-67.8
X115.75Y-66.55
X115.75Y-69.0
X115.8Y-65.1
T3
X101.0Y-66.5
X101.0Y-67.25
X104.289Y-84.5
X104.5Y-64.25
X105.25Y-87.75
X105.5Y-64.25
X106.5Y-64.25
X107.5Y-64.25
X108.5Y-64.25
X108.75Y-82.75
X109.5Y-64.25
X110.5Y-64.25
X111.5Y-64.25
X112.5Y-64.25
T4
X108.4Y-87.017
X108.4Y-87.867
X108.4Y-88.717
X108.4Y-89.567
X108.4Y-90.417
X108.4Y-91.267
X108.4Y-92.117
X108.4Y-92.967
X109.725Y-87.012
X109.725Y-87.862
X109.725Y-88.712
X109.725Y-89.562
X109.725Y-90.412
X109.725Y-91.262
X109.725Y-92.112
X109.725Y-92.967
T6
X102.15Y-98.0
X104.69Y-98.0
X107.23Y-98.0
X109.77Y-98.0
X112.31Y-98.0
X114.85Y-98.0
T5
G00X108.63Y-85.667
M15
G01X110.13Y-85.667
M16
G05
G00X108.63Y-94.317
M15
G01X110.13Y-94.317
M16
G05
G00X112.36Y-85.667
M15
G01X113.16Y-85.667
M16
G05
G00X112.36Y-94.317
M15
G01X113.16Y-94.317
M16
G05
M30
