%TF.GenerationSoftware,KiCad,Pcbnew,8.0.3*%
%TF.CreationDate,2024-06-18T18:24:58+09:30*%
%TF.ProjectId,esp32c6-internal-module,65737033-3263-4362-9d69-6e7465726e61,1.0*%
%TF.SameCoordinates,Original*%
%TF.FileFunction,Copper,L1,Top*%
%TF.FilePolarity,Positive*%
%FSLAX46Y46*%
G04 Gerber Fmt 4.6, Leading zero omitted, Abs format (unit mm)*
G04 Created by KiCad (PCBNEW 8.0.3) date 2024-06-18 18:24:58*
%MOMM*%
%LPD*%
G01*
G04 APERTURE LIST*
G04 Aperture macros list*
%AMRoundRect*
0 Rectangle with rounded corners*
0 $1 Rounding radius*
0 $2 $3 $4 $5 $6 $7 $8 $9 X,Y pos of 4 corners*
0 Add a 4 corners polygon primitive as box body*
4,1,4,$2,$3,$4,$5,$6,$7,$8,$9,$2,$3,0*
0 Add four circle primitives for the rounded corners*
1,1,$1+$1,$2,$3*
1,1,$1+$1,$4,$5*
1,1,$1+$1,$6,$7*
1,1,$1+$1,$8,$9*
0 Add four rect primitives between the rounded corners*
20,1,$1+$1,$2,$3,$4,$5,0*
20,1,$1+$1,$4,$5,$6,$7,0*
20,1,$1+$1,$6,$7,$8,$9,0*
20,1,$1+$1,$8,$9,$2,$3,0*%
%AMFreePoly0*
4,1,6,0.725000,-0.725000,-0.725000,-0.725000,-0.725000,0.125000,-0.125000,0.725000,0.725000,0.725000,0.725000,-0.725000,0.725000,-0.725000,$1*%
G04 Aperture macros list end*
%TA.AperFunction,SMDPad,CuDef*%
%ADD10RoundRect,0.230000X0.230000X0.255000X-0.230000X0.255000X-0.230000X-0.255000X0.230000X-0.255000X0*%
%TD*%
%TA.AperFunction,SMDPad,CuDef*%
%ADD11RoundRect,0.212500X-0.212500X-0.277500X0.212500X-0.277500X0.212500X0.277500X-0.212500X0.277500X0*%
%TD*%
%TA.AperFunction,SMDPad,CuDef*%
%ADD12RoundRect,0.230000X-0.255000X0.230000X-0.255000X-0.230000X0.255000X-0.230000X0.255000X0.230000X0*%
%TD*%
%TA.AperFunction,SMDPad,CuDef*%
%ADD13RoundRect,0.227500X0.237500X-0.227500X0.237500X0.227500X-0.237500X0.227500X-0.237500X-0.227500X0*%
%TD*%
%TA.AperFunction,SMDPad,CuDef*%
%ADD14R,0.800000X0.400000*%
%TD*%
%TA.AperFunction,SMDPad,CuDef*%
%ADD15R,0.400000X0.800000*%
%TD*%
%TA.AperFunction,SMDPad,CuDef*%
%ADD16FreePoly0,0.000000*%
%TD*%
%TA.AperFunction,SMDPad,CuDef*%
%ADD17R,1.450000X1.450000*%
%TD*%
%TA.AperFunction,SMDPad,CuDef*%
%ADD18R,0.700000X0.700000*%
%TD*%
%TA.AperFunction,SMDPad,CuDef*%
%ADD19RoundRect,0.140000X0.140000X-0.535000X0.140000X0.535000X-0.140000X0.535000X-0.140000X-0.535000X0*%
%TD*%
%TA.AperFunction,SMDPad,CuDef*%
%ADD20RoundRect,0.290000X-0.290000X-0.445000X0.290000X-0.445000X0.290000X0.445000X-0.290000X0.445000X0*%
%TD*%
%TA.AperFunction,SMDPad,CuDef*%
%ADD21RoundRect,0.200000X0.200000X0.650000X-0.200000X0.650000X-0.200000X-0.650000X0.200000X-0.650000X0*%
%TD*%
%TA.AperFunction,ComponentPad*%
%ADD22C,0.650000*%
%TD*%
%TA.AperFunction,ComponentPad*%
%ADD23O,2.400000X0.900000*%
%TD*%
%TA.AperFunction,ComponentPad*%
%ADD24O,1.700000X0.900000*%
%TD*%
%TA.AperFunction,SMDPad,CuDef*%
%ADD25RoundRect,0.212500X0.212500X0.277500X-0.212500X0.277500X-0.212500X-0.277500X0.212500X-0.277500X0*%
%TD*%
%TA.AperFunction,SMDPad,CuDef*%
%ADD26RoundRect,0.290000X-0.445000X0.290000X-0.445000X-0.290000X0.445000X-0.290000X0.445000X0.290000X0*%
%TD*%
%TA.AperFunction,SMDPad,CuDef*%
%ADD27RoundRect,0.060000X-0.090000X0.190000X-0.090000X-0.190000X0.090000X-0.190000X0.090000X0.190000X0*%
%TD*%
%TA.AperFunction,HeatsinkPad*%
%ADD28C,0.400000*%
%TD*%
%TA.AperFunction,SMDPad,CuDef*%
%ADD29RoundRect,0.200000X-0.600000X-0.300000X0.600000X-0.300000X0.600000X0.300000X-0.600000X0.300000X0*%
%TD*%
%TA.AperFunction,SMDPad,CuDef*%
%ADD30R,0.720000X0.900000*%
%TD*%
%TA.AperFunction,ComponentPad*%
%ADD31R,1.727200X2.032000*%
%TD*%
%TA.AperFunction,ComponentPad*%
%ADD32O,1.727200X2.032000*%
%TD*%
%TA.AperFunction,ViaPad*%
%ADD33C,0.600000*%
%TD*%
%TA.AperFunction,Conductor*%
%ADD34C,0.300000*%
%TD*%
%TA.AperFunction,Conductor*%
%ADD35C,0.200000*%
%TD*%
%TA.AperFunction,Conductor*%
%ADD36C,0.250000*%
%TD*%
%TA.AperFunction,Conductor*%
%ADD37C,0.400000*%
%TD*%
G04 APERTURE END LIST*
D10*
%TO.P,C5,1*%
%TO.N,/BOOT*%
X101225000Y-83000000D03*
%TO.P,C5,2*%
%TO.N,GND*%
X102775000Y-83000000D03*
%TD*%
D11*
%TO.P,R7,1*%
%TO.N,Net-(J1-CC1)*%
X106025000Y-83000000D03*
%TO.P,R7,2*%
%TO.N,GND*%
X104475000Y-83000000D03*
%TD*%
D12*
%TO.P,C1,1*%
%TO.N,+3.3V*%
X101000000Y-65275000D03*
%TO.P,C1,2*%
%TO.N,GND*%
X101000000Y-63725000D03*
%TD*%
D13*
%TO.P,D3,A,A*%
%TO.N,Net-(D1-PadA)*%
X103500000Y-92240000D03*
%TO.P,D3,C,C*%
%TO.N,GND*%
X103500000Y-93760000D03*
%TD*%
D14*
%TO.P,U1,1,GND*%
%TO.N,GND*%
X102600000Y-63800000D03*
%TO.P,U1,2,GND*%
X102600000Y-64600000D03*
%TO.P,U1,3,3V3*%
%TO.N,+3.3V*%
X102600000Y-65400000D03*
%TO.P,U1,4,NC*%
%TO.N,unconnected-(U1-NC-Pad4)*%
X102600000Y-66200000D03*
%TO.P,U1,5,GPIO2/ADC1_CH2*%
%TO.N,unconnected-(U1-GPIO2{slash}ADC1_CH2-Pad5)*%
X102600000Y-67000000D03*
%TO.P,U1,6,GPIO3/ADC1_CH3*%
%TO.N,unconnected-(U1-GPIO3{slash}ADC1_CH3-Pad6)*%
X102600000Y-67800000D03*
%TO.P,U1,7,NC*%
%TO.N,unconnected-(U1-NC-Pad7)*%
X102600000Y-68600000D03*
%TO.P,U1,8,EN/CHIP_PU*%
%TO.N,/CHIP_EN*%
X102600000Y-69400000D03*
%TO.P,U1,9,MTMS/GPIO4/ADC1_CH4*%
%TO.N,unconnected-(U1-MTMS{slash}GPIO4{slash}ADC1_CH4-Pad9)*%
X102600000Y-70200000D03*
%TO.P,U1,10,MTDI/GPIO5/ADC1_CH5*%
%TO.N,unconnected-(U1-MTDI{slash}GPIO5{slash}ADC1_CH5-Pad10)*%
X102600000Y-71000000D03*
%TO.P,U1,11,GND*%
%TO.N,GND*%
X102600000Y-71800000D03*
D15*
%TO.P,U1,12,GPIO0/ADC1_CH0/XTAL_32K_P*%
%TO.N,STATUS_YELLOW*%
X103700000Y-72700000D03*
%TO.P,U1,13,GPIO1/ADC1_CH1/XTAL_32K_N*%
%TO.N,STATUS_GREEN*%
X104500000Y-72700000D03*
%TO.P,U1,14,GND*%
%TO.N,GND*%
X105300000Y-72700000D03*
%TO.P,U1,15,MTCK/GPIO6/ADC1_CH6*%
%TO.N,SCL*%
X106100000Y-72700000D03*
%TO.P,U1,16,MTDO/GPIO7*%
%TO.N,SDA*%
X106900000Y-72700000D03*
%TO.P,U1,17,GPIO12/USB_D-*%
%TO.N,USB_DN*%
X107700000Y-72700000D03*
%TO.P,U1,18,GPIO13/USB_D+*%
%TO.N,USB_DP*%
X108500000Y-72700000D03*
%TO.P,U1,19,GPIO14*%
%TO.N,unconnected-(U1-GPIO14-Pad19)*%
X109300000Y-72700000D03*
%TO.P,U1,20,GPIO15*%
%TO.N,unconnected-(U1-GPIO15-Pad20)*%
X110100000Y-72700000D03*
%TO.P,U1,21,NC*%
%TO.N,unconnected-(U1-NC-Pad21)*%
X110900000Y-72700000D03*
%TO.P,U1,22,GPIO8*%
%TO.N,Net-(U1-GPIO8)*%
X111700000Y-72700000D03*
%TO.P,U1,23,GPIO9*%
%TO.N,/BOOT*%
X112500000Y-72700000D03*
%TO.P,U1,24,GPIO18*%
%TO.N,unconnected-(U1-GPIO18-Pad24)*%
X113300000Y-72700000D03*
D14*
%TO.P,U1,25,GPIO19*%
%TO.N,USART_RX*%
X114400000Y-71800000D03*
%TO.P,U1,26,GPIO20*%
%TO.N,USART_TX*%
X114400000Y-71000000D03*
%TO.P,U1,27,GPIO21*%
%TO.N,USART_CTS*%
X114400000Y-70200000D03*
%TO.P,U1,28,GPIO22*%
%TO.N,USART_RTS*%
X114400000Y-69400000D03*
%TO.P,U1,29,GPIO23*%
%TO.N,unconnected-(U1-GPIO23-Pad29)*%
X114400000Y-68600000D03*
%TO.P,U1,30,U0RXD/GPIO17*%
%TO.N,Net-(TEST2-PAD)*%
X114400000Y-67800000D03*
%TO.P,U1,31,U0TXD/GPIO16*%
%TO.N,Net-(TEST1-PAD)*%
X114400000Y-67000000D03*
%TO.P,U1,32,NC*%
%TO.N,unconnected-(U1-NC-Pad32)*%
X114400000Y-66200000D03*
%TO.P,U1,33,NC*%
%TO.N,unconnected-(U1-NC-Pad33)*%
X114400000Y-65400000D03*
%TO.P,U1,34,NC*%
%TO.N,unconnected-(U1-NC-Pad34)*%
X114400000Y-64600000D03*
%TO.P,U1,35,NC*%
%TO.N,unconnected-(U1-NC-Pad35)*%
X114400000Y-63800000D03*
D15*
%TO.P,U1,36,GND*%
%TO.N,GND*%
X113300000Y-62900000D03*
%TO.P,U1,37,GND*%
X112500000Y-62900000D03*
%TO.P,U1,38,GND*%
X111700000Y-62900000D03*
%TO.P,U1,39,GND*%
X110900000Y-62900000D03*
%TO.P,U1,40,GND*%
X110100000Y-62900000D03*
%TO.P,U1,41,GND*%
X109300000Y-62900000D03*
%TO.P,U1,42,GND*%
X108500000Y-62900000D03*
%TO.P,U1,43,GND*%
X107700000Y-62900000D03*
%TO.P,U1,44,GND*%
X106900000Y-62900000D03*
%TO.P,U1,45,GND*%
X106100000Y-62900000D03*
%TO.P,U1,46,GND*%
X105300000Y-62900000D03*
%TO.P,U1,47,GND*%
X104500000Y-62900000D03*
%TO.P,U1,48,GND*%
X103700000Y-62900000D03*
D16*
%TO.P,U1,49,GND*%
X106525000Y-65825000D03*
D17*
X106525000Y-67800000D03*
X106525000Y-69775000D03*
X108500000Y-65825000D03*
X108500000Y-67800000D03*
X108500000Y-69775000D03*
X110475000Y-65825000D03*
X110475000Y-67800000D03*
X110475000Y-69775000D03*
D18*
%TO.P,U1,50,GND*%
X114450000Y-62850000D03*
%TO.P,U1,51,GND*%
X114450000Y-72750000D03*
%TO.P,U1,52,GND*%
X102550000Y-72750000D03*
%TO.P,U1,53,GND*%
X102550000Y-62850000D03*
%TD*%
D19*
%TO.P,U3,1,IN_1*%
%TO.N,/USBC_N*%
X107800000Y-81675000D03*
%TO.P,U3,2,GND*%
%TO.N,GND*%
X108750000Y-81675000D03*
%TO.P,U3,3,IN_2*%
%TO.N,/USBC_P*%
X109700000Y-81675000D03*
%TO.P,U3,4,OUT_2*%
%TO.N,USB_DP*%
X109700000Y-79325000D03*
%TO.P,U3,5,VBUS*%
%TO.N,+5V*%
X108750000Y-79325000D03*
%TO.P,U3,6,OUT_1*%
%TO.N,USB_DN*%
X107800000Y-79325000D03*
%TD*%
D11*
%TO.P,R6,1*%
%TO.N,Net-(J1-CC2)*%
X106025000Y-81250000D03*
%TO.P,R6,2*%
%TO.N,GND*%
X104475000Y-81250000D03*
%TD*%
D20*
%TO.P,C3,1*%
%TO.N,+3.3V*%
X113125000Y-77000000D03*
%TO.P,C3,2*%
%TO.N,GND*%
X111375000Y-77000000D03*
%TD*%
D21*
%TO.P,SW1,1,1*%
%TO.N,/BOOT*%
X101800000Y-86000000D03*
%TO.P,SW1,2,2*%
%TO.N,GND*%
X105200000Y-86000000D03*
%TD*%
D13*
%TO.P,D2,A,A*%
%TO.N,Net-(D3-PadA)*%
X101500000Y-92240000D03*
%TO.P,D2,C,C*%
%TO.N,GND*%
X101500000Y-93760000D03*
%TD*%
D20*
%TO.P,C6,1*%
%TO.N,+5V*%
X113275000Y-83000000D03*
%TO.P,C6,2*%
%TO.N,GND*%
X111525000Y-83000000D03*
%TD*%
D22*
%TO.P,J1,A1,GND*%
%TO.N,GND*%
X108400000Y-92966750D03*
%TO.P,J1,A4,VBUS*%
%TO.N,+5V*%
X108400000Y-92116750D03*
%TO.P,J1,A5,CC1*%
%TO.N,Net-(J1-CC1)*%
X108400000Y-91266750D03*
%TO.P,J1,A6,D+*%
%TO.N,/USBC_P*%
X108400000Y-90416750D03*
%TO.P,J1,A7,D-*%
%TO.N,/USBC_N*%
X108400000Y-89566750D03*
%TO.P,J1,A8,SBU1*%
%TO.N,unconnected-(J1-SBU1-PadA8)*%
X108400000Y-88716750D03*
%TO.P,J1,A9,VBUS*%
%TO.N,+5V*%
X108400000Y-87866750D03*
%TO.P,J1,A12,GND*%
%TO.N,GND*%
X108400000Y-87016750D03*
%TO.P,J1,B1,GND*%
X109725000Y-87011750D03*
%TO.P,J1,B4,VBUS*%
%TO.N,+5V*%
X109725000Y-87861750D03*
%TO.P,J1,B5,CC2*%
%TO.N,Net-(J1-CC2)*%
X109725000Y-88711750D03*
%TO.P,J1,B6,D+*%
%TO.N,/USBC_P*%
X109725000Y-89561750D03*
%TO.P,J1,B7,D-*%
%TO.N,/USBC_N*%
X109725000Y-90411750D03*
%TO.P,J1,B8,SBU2*%
%TO.N,unconnected-(J1-SBU2-PadB8)*%
X109725000Y-91261750D03*
%TO.P,J1,B9,VBUS*%
%TO.N,+5V*%
X109725000Y-92111750D03*
%TO.P,J1,B12,GND*%
%TO.N,GND*%
X109725000Y-92966750D03*
D23*
%TO.P,J1,S1,Shield*%
X109380000Y-94316750D03*
D24*
X112760000Y-94316750D03*
D23*
X109380000Y-85666750D03*
D24*
X112760000Y-85666750D03*
%TD*%
D25*
%TO.P,R3,1*%
%TO.N,STATUS_GREEN*%
X104475000Y-77750000D03*
%TO.P,R3,2*%
%TO.N,Net-(D2-PadA)*%
X106025000Y-77750000D03*
%TD*%
D10*
%TO.P,C4,1*%
%TO.N,/CHIP_EN*%
X101225000Y-81250000D03*
%TO.P,C4,2*%
%TO.N,GND*%
X102775000Y-81250000D03*
%TD*%
D26*
%TO.P,C2,1*%
%TO.N,+3.3V*%
X102000000Y-77625000D03*
%TO.P,C2,2*%
%TO.N,GND*%
X102000000Y-75875000D03*
%TD*%
D27*
%TO.P,U2,1,VOUT*%
%TO.N,+3.3V*%
X112900000Y-79025000D03*
%TO.P,U2,2,SNS*%
X112250000Y-79025000D03*
%TO.P,U2,3,GND*%
%TO.N,GND*%
X111600000Y-79025000D03*
%TO.P,U2,4,EN*%
%TO.N,+5V*%
X111600000Y-80975000D03*
%TO.P,U2,5,GND*%
%TO.N,GND*%
X112250000Y-80975000D03*
%TO.P,U2,6,VIN*%
%TO.N,+5V*%
X112900000Y-80975000D03*
D28*
%TO.P,U2,7,EP*%
%TO.N,GND*%
X112800000Y-80000000D03*
D29*
X112250000Y-80000000D03*
D28*
X111700000Y-80000000D03*
%TD*%
D21*
%TO.P,SW2,1,1*%
%TO.N,/CHIP_EN*%
X101800000Y-89500000D03*
%TO.P,SW2,2,2*%
%TO.N,GND*%
X105200000Y-89500000D03*
%TD*%
D11*
%TO.P,R4,1*%
%TO.N,+3.3V*%
X102775000Y-79500000D03*
%TO.P,R4,2*%
%TO.N,/CHIP_EN*%
X101225000Y-79500000D03*
%TD*%
D25*
%TO.P,R2,1*%
%TO.N,STATUS_YELLOW*%
X104475000Y-76000000D03*
%TO.P,R2,2*%
%TO.N,Net-(D1-PadA)*%
X106025000Y-76000000D03*
%TD*%
D30*
%TO.P,D1,A,A*%
%TO.N,+3.3V*%
X115100000Y-79820000D03*
%TO.P,D1,C,C*%
%TO.N,+5V*%
X115100000Y-83180000D03*
%TD*%
D25*
%TO.P,R5,1*%
%TO.N,+3.3V*%
X104475000Y-79500000D03*
%TO.P,R5,2*%
%TO.N,Net-(D3-PadA)*%
X106025000Y-79500000D03*
%TD*%
D11*
%TO.P,R1,1*%
%TO.N,+3.3V*%
X113025000Y-75000000D03*
%TO.P,R1,2*%
%TO.N,Net-(U1-GPIO8)*%
X111475000Y-75000000D03*
%TD*%
D13*
%TO.P,D4,A,A*%
%TO.N,Net-(D2-PadA)*%
X105500000Y-92240000D03*
%TO.P,D4,C,C*%
%TO.N,GND*%
X105500000Y-93760000D03*
%TD*%
D31*
%TO.P,P2,1,P1*%
%TO.N,+3.3V*%
X102150000Y-98000000D03*
D32*
%TO.P,P2,2,P2*%
%TO.N,USART_RTS*%
X104690000Y-98000000D03*
%TO.P,P2,3,P3*%
%TO.N,USART_CTS*%
X107230000Y-98000000D03*
%TO.P,P2,4,P4*%
%TO.N,USART_RX*%
X109770000Y-98000000D03*
%TO.P,P2,5,P5*%
%TO.N,USART_TX*%
X112310000Y-98000000D03*
%TO.P,P2,6,P6*%
%TO.N,GND*%
X114850000Y-98000000D03*
%TD*%
D33*
%TO.N,GND*%
X104500000Y-64250000D03*
X105250000Y-87750000D03*
X110500000Y-64250000D03*
X110900000Y-73900000D03*
X102600000Y-74300000D03*
X112500000Y-68600000D03*
X109300000Y-71200000D03*
X112500000Y-65900000D03*
X112500000Y-66800000D03*
X106900000Y-71200000D03*
X107000000Y-80400000D03*
X106500000Y-64250000D03*
X112500000Y-64250000D03*
X105300000Y-74200000D03*
X109500000Y-64250000D03*
X110900000Y-79200000D03*
X105500000Y-64250000D03*
X108750000Y-82750000D03*
X113800000Y-80000000D03*
X108500000Y-71200000D03*
X104500000Y-95000000D03*
X103600000Y-81400000D03*
X103600000Y-82900000D03*
X104400000Y-66900000D03*
X111500000Y-64250000D03*
X104400000Y-68700000D03*
X115800000Y-65100000D03*
X104400000Y-66000000D03*
X110100000Y-71200000D03*
X112500000Y-67700000D03*
X107000000Y-93000000D03*
X114500000Y-73900000D03*
X107700000Y-71200000D03*
X103400000Y-75500000D03*
X104400000Y-67800000D03*
X107500000Y-64250000D03*
X105500000Y-95000000D03*
X108500000Y-64250000D03*
X107000000Y-94100000D03*
%TO.N,Net-(D1-PadA)*%
X104288824Y-84500000D03*
X105256732Y-78772745D03*
%TO.N,Net-(D2-PadA)*%
X105300000Y-84400000D03*
X106018155Y-78510001D03*
%TO.N,USART_RTS*%
X114650000Y-89500000D03*
X115750000Y-69000000D03*
%TO.N,+3.3V*%
X101000000Y-67250000D03*
X103200000Y-78400000D03*
X101000000Y-66500000D03*
X113200000Y-75900000D03*
X103200000Y-77600000D03*
X112400000Y-75900000D03*
%TO.N,USART_CTS*%
X115625000Y-70375000D03*
X114858058Y-88358058D03*
%TO.N,/BOOT*%
X115100000Y-74800000D03*
X113900000Y-88600000D03*
%TO.N,Net-(J1-CC2)*%
X107500000Y-83600000D03*
%TO.N,/USBC_N*%
X106750000Y-89250000D03*
%TO.N,Net-(TEST1-PAD)*%
X115750000Y-66550000D03*
%TO.N,Net-(TEST2-PAD)*%
X115700000Y-67800000D03*
%TO.N,SCL*%
X107925000Y-76700000D03*
%TO.N,SDA*%
X107900000Y-75800000D03*
%TD*%
D34*
%TO.N,GND*%
X111600000Y-77225000D02*
X111375000Y-77000000D01*
X111525000Y-82775000D02*
X111525000Y-83000000D01*
D35*
X105200000Y-89500000D02*
X105200000Y-87800000D01*
D34*
X111600000Y-79025000D02*
X111600000Y-77225000D01*
D35*
X105200000Y-87800000D02*
X105250000Y-87750000D01*
X105200000Y-87700000D02*
X105200000Y-86000000D01*
D34*
X112250000Y-82050000D02*
X111525000Y-82775000D01*
D35*
X108750000Y-81675000D02*
X108750000Y-82750000D01*
X105250000Y-87750000D02*
X105200000Y-87700000D01*
D34*
X112250000Y-80975000D02*
X112250000Y-82050000D01*
D35*
%TO.N,Net-(D1-PadA)*%
X103800000Y-84988824D02*
X103800000Y-91300000D01*
X103500000Y-91600000D02*
X103500000Y-92240000D01*
X106025000Y-76529328D02*
X106025000Y-76000000D01*
X105256732Y-77297596D02*
X106025000Y-76529328D01*
X104288824Y-84500000D02*
X103800000Y-84988824D01*
X105256732Y-78772745D02*
X105256732Y-77297596D01*
X103800000Y-91300000D02*
X103500000Y-91600000D01*
%TO.N,Net-(D2-PadA)*%
X105237352Y-84400000D02*
X104300000Y-85337352D01*
X104300000Y-85337352D02*
X104300000Y-91040000D01*
D36*
X106025000Y-78503156D02*
X106025000Y-77750000D01*
D35*
X104300000Y-91040000D02*
X105500000Y-92240000D01*
X105300000Y-84400000D02*
X105237352Y-84400000D01*
D36*
X106018155Y-78510001D02*
X106025000Y-78503156D01*
D35*
%TO.N,Net-(D3-PadA)*%
X101500000Y-92240000D02*
X101505000Y-92240000D01*
X103300000Y-84525000D02*
X103925000Y-83900000D01*
X103300000Y-90445000D02*
X103300000Y-84525000D01*
X104900000Y-83900000D02*
X105300000Y-83500000D01*
X101505000Y-92240000D02*
X103300000Y-90445000D01*
X105300000Y-80225000D02*
X106025000Y-79500000D01*
X105300000Y-83500000D02*
X105300000Y-80225000D01*
X103925000Y-83900000D02*
X104900000Y-83900000D01*
%TO.N,USART_RTS*%
X113400000Y-95800000D02*
X106800000Y-95800000D01*
D36*
X114400000Y-69400000D02*
X115350000Y-69400000D01*
X115350000Y-69400000D02*
X115750000Y-69000000D01*
D35*
X114650000Y-89500000D02*
X114750000Y-89600000D01*
X106800000Y-95800000D02*
X104690000Y-97910000D01*
X114750000Y-94450000D02*
X113400000Y-95800000D01*
X104690000Y-97910000D02*
X104690000Y-98000000D01*
X114750000Y-89600000D02*
X114750000Y-94450000D01*
D34*
%TO.N,+3.3V*%
X102600000Y-65400000D02*
X101125000Y-65400000D01*
D37*
X101000000Y-65275000D02*
X101000000Y-66500000D01*
X101000000Y-66500000D02*
X101000000Y-67250000D01*
D34*
X101125000Y-65400000D02*
X101000000Y-65275000D01*
D35*
%TO.N,USART_TX*%
X113013006Y-98000000D02*
X116300000Y-94713006D01*
X116300000Y-72300000D02*
X115000000Y-71000000D01*
X116300000Y-94713006D02*
X116300000Y-72300000D01*
X112310000Y-98000000D02*
X113013006Y-98000000D01*
X115000000Y-71000000D02*
X114400000Y-71000000D01*
%TO.N,USART_RX*%
X115900000Y-72700000D02*
X115000000Y-71800000D01*
X111170000Y-96600000D02*
X113847320Y-96600000D01*
X115000000Y-71800000D02*
X114400000Y-71800000D01*
X115900000Y-94547320D02*
X115900000Y-72700000D01*
X113847320Y-96600000D02*
X115900000Y-94547320D01*
X109770000Y-98000000D02*
X111170000Y-96600000D01*
%TO.N,USART_CTS*%
X115250000Y-88750000D02*
X115250000Y-94550000D01*
X107230000Y-97970000D02*
X107230000Y-98000000D01*
X114858058Y-88358058D02*
X115250000Y-88750000D01*
X109000000Y-96200000D02*
X107230000Y-97970000D01*
D36*
X115450000Y-70200000D02*
X114400000Y-70200000D01*
D35*
X113600000Y-96200000D02*
X109000000Y-96200000D01*
X115250000Y-94550000D02*
X113600000Y-96200000D01*
D36*
X115625000Y-70375000D02*
X115450000Y-70200000D01*
%TO.N,STATUS_YELLOW*%
X104475000Y-75275000D02*
X103700000Y-74500000D01*
X103700000Y-74500000D02*
X103700000Y-72700000D01*
X104475000Y-76000000D02*
X104475000Y-75275000D01*
D35*
%TO.N,STATUS_GREEN*%
X105200000Y-76700000D02*
X104475000Y-77425000D01*
X105200000Y-75398960D02*
X105200000Y-76700000D01*
X104475000Y-77425000D02*
X104475000Y-77750000D01*
X104500000Y-72700000D02*
X104500000Y-74698960D01*
X104500000Y-74698960D02*
X105200000Y-75398960D01*
D36*
%TO.N,Net-(U1-GPIO8)*%
X111700000Y-74775000D02*
X111475000Y-75000000D01*
X111450000Y-74975000D02*
X111475000Y-75000000D01*
X111700000Y-72700000D02*
X111700000Y-74775000D01*
D35*
X111550000Y-74925000D02*
X111475000Y-75000000D01*
D36*
%TO.N,/CHIP_EN*%
X101250000Y-69850000D02*
X101700000Y-69400000D01*
X101225000Y-79500000D02*
X101225000Y-81250000D01*
X101225000Y-81250000D02*
X101225000Y-81476262D01*
X101225000Y-79500000D02*
X101225000Y-78737500D01*
X101225000Y-78737500D02*
X100750000Y-78262500D01*
X102500000Y-89500000D02*
X102800000Y-89200000D01*
X101225000Y-81476262D02*
X102000000Y-82251262D01*
X100750000Y-74750000D02*
X101250000Y-74250000D01*
X101700000Y-69400000D02*
X102600000Y-69400000D01*
X101250000Y-74250000D02*
X101250000Y-69850000D01*
X102800000Y-89200000D02*
X102800000Y-84800000D01*
X101800000Y-89500000D02*
X102500000Y-89500000D01*
X100750000Y-78262500D02*
X100750000Y-74750000D01*
X102800000Y-84800000D02*
X102000000Y-84000000D01*
D35*
X102000000Y-82251262D02*
X102000000Y-84000000D01*
%TO.N,/BOOT*%
X101600000Y-96100000D02*
X100600000Y-95100000D01*
D36*
X101800000Y-86000000D02*
X101800000Y-84800000D01*
X113400000Y-73900000D02*
X112700000Y-73900000D01*
X101225000Y-84225000D02*
X101225000Y-83000000D01*
D35*
X114300000Y-90200000D02*
X114300000Y-94300000D01*
X105700000Y-96100000D02*
X101600000Y-96100000D01*
X113200000Y-95400000D02*
X106400000Y-95400000D01*
X101800000Y-87500000D02*
X101800000Y-86000000D01*
D36*
X115100000Y-74800000D02*
X114300000Y-74800000D01*
D35*
X100600000Y-95100000D02*
X100600000Y-88700000D01*
X113900000Y-89800000D02*
X114300000Y-90200000D01*
X113900000Y-88600000D02*
X113900000Y-89800000D01*
X100600000Y-88700000D02*
X101800000Y-87500000D01*
D36*
X112500000Y-73700000D02*
X112500000Y-72700000D01*
D35*
X114300000Y-94300000D02*
X113200000Y-95400000D01*
D36*
X101800000Y-84800000D02*
X101225000Y-84225000D01*
D35*
X106400000Y-95400000D02*
X105700000Y-96100000D01*
D36*
X112700000Y-73900000D02*
X112500000Y-73700000D01*
X114300000Y-74800000D02*
X113400000Y-73900000D01*
D35*
%TO.N,USB_DN*%
X108525000Y-78205000D02*
X108525000Y-74843200D01*
X107875000Y-73475001D02*
X107700000Y-73300001D01*
X108525000Y-74843200D02*
X107875000Y-74193200D01*
X107875000Y-74193200D02*
X107875000Y-73475001D01*
X107800000Y-79325000D02*
X107800000Y-78930000D01*
X107800000Y-78930000D02*
X108525000Y-78205000D01*
X107700000Y-73300001D02*
X107700000Y-72700000D01*
%TO.N,USB_DP*%
X108325000Y-74006800D02*
X108325000Y-73475001D01*
X109700000Y-78930000D02*
X108975000Y-78205000D01*
X108500000Y-73300001D02*
X108500000Y-72700000D01*
X108975000Y-78205000D02*
X108975000Y-74656800D01*
X109700000Y-79325000D02*
X109700000Y-78930000D01*
X108325000Y-73475001D02*
X108500000Y-73300001D01*
X108975000Y-74656800D02*
X108325000Y-74006800D01*
%TO.N,+5V*%
X109720000Y-87866750D02*
X109725000Y-87861750D01*
D34*
X109250000Y-80500000D02*
X110500000Y-80500000D01*
X108750000Y-80000000D02*
X109250000Y-80500000D01*
D35*
X108400000Y-92116750D02*
X109720000Y-92116750D01*
D34*
X108750000Y-79325000D02*
X108750000Y-80000000D01*
D35*
X108400000Y-87866750D02*
X109720000Y-87866750D01*
X109720000Y-92116750D02*
X109725000Y-92111750D01*
D36*
%TO.N,Net-(J1-CC2)*%
X107000000Y-83100000D02*
X107000000Y-82225000D01*
X107000000Y-82225000D02*
X106025000Y-81250000D01*
X107500000Y-83600000D02*
X107000000Y-83100000D01*
D35*
%TO.N,Net-(J1-CC1)*%
X106500000Y-83475000D02*
X106500000Y-88250000D01*
X106000000Y-88750000D02*
X106000000Y-90250000D01*
X106500000Y-88250000D02*
X106000000Y-88750000D01*
X106025000Y-83000000D02*
X106500000Y-83475000D01*
X107016750Y-91266750D02*
X108400000Y-91266750D01*
X106000000Y-90250000D02*
X107016750Y-91266750D01*
%TO.N,/USBC_P*%
X107940381Y-90416750D02*
X108400000Y-90416750D01*
X107475000Y-85343200D02*
X107475000Y-89951369D01*
X109700000Y-81675000D02*
X109700000Y-82687501D01*
X108975000Y-83843200D02*
X107475000Y-85343200D01*
X108975000Y-83412501D02*
X108975000Y-83843200D01*
X109700000Y-82687501D02*
X108975000Y-83412501D01*
X107475000Y-89951369D02*
X107940381Y-90416750D01*
%TO.N,/USBC_N*%
X108525000Y-83656800D02*
X107025000Y-85156800D01*
X107025000Y-85156800D02*
X107025000Y-88250000D01*
X109544092Y-90411750D02*
X109725000Y-90411750D01*
X107025000Y-88250000D02*
X107025000Y-88975000D01*
X107800000Y-82687501D02*
X108525000Y-83412501D01*
X107025000Y-88975000D02*
X106750000Y-89250000D01*
X108699092Y-89566750D02*
X109544092Y-90411750D01*
X108400000Y-89566750D02*
X108699092Y-89566750D01*
X107800000Y-81675000D02*
X107800000Y-82687501D01*
X108525000Y-83412501D02*
X108525000Y-83656800D01*
D36*
%TO.N,Net-(TEST1-PAD)*%
X115300000Y-67000000D02*
X114400000Y-67000000D01*
X115750000Y-66550000D02*
X115300000Y-67000000D01*
%TO.N,Net-(TEST2-PAD)*%
X114400000Y-67800000D02*
X115700000Y-67800000D01*
D35*
%TO.N,SCL*%
X107000000Y-75000000D02*
X106100000Y-74100000D01*
X107925000Y-76700000D02*
X107000000Y-75775000D01*
X107000000Y-75775000D02*
X107000000Y-75000000D01*
X106100000Y-74100000D02*
X106100000Y-72700000D01*
%TO.N,SDA*%
X106900000Y-74200000D02*
X106900000Y-72700000D01*
X107600000Y-74900000D02*
X106900000Y-74200000D01*
X107900000Y-75800000D02*
X107600000Y-75500000D01*
X107600000Y-75500000D02*
X107600000Y-74900000D01*
%TD*%
%TA.AperFunction,Conductor*%
%TO.N,+3.3V*%
G36*
X103311971Y-77002381D02*
G01*
X103352346Y-77010412D01*
X103397043Y-77028927D01*
X103420913Y-77044877D01*
X103455122Y-77079086D01*
X103471072Y-77102956D01*
X103489588Y-77147655D01*
X103497617Y-77188020D01*
X103500000Y-77212210D01*
X103500000Y-78750000D01*
X104488838Y-78750000D01*
X104555877Y-78769685D01*
X104601632Y-78822489D01*
X104611933Y-78859052D01*
X104620495Y-78929563D01*
X104676512Y-79077268D01*
X104766249Y-79207275D01*
X104884492Y-79312028D01*
X104884494Y-79312029D01*
X105024366Y-79385441D01*
X105076732Y-79398347D01*
X105155175Y-79417681D01*
X105215555Y-79452837D01*
X105247344Y-79515056D01*
X105249500Y-79538078D01*
X105249500Y-79587032D01*
X105229815Y-79654071D01*
X105213182Y-79674713D01*
X104939510Y-79948387D01*
X104939509Y-79948389D01*
X104880201Y-80051112D01*
X104880200Y-80051117D01*
X104851536Y-80158093D01*
X104815171Y-80217754D01*
X104752324Y-80248283D01*
X104731761Y-80250000D01*
X102212211Y-80250000D01*
X102188020Y-80247617D01*
X102172744Y-80244578D01*
X102147656Y-80239588D01*
X102102956Y-80221072D01*
X102079086Y-80205122D01*
X102044877Y-80170913D01*
X102028927Y-80147043D01*
X102010412Y-80102346D01*
X102002381Y-80061971D01*
X102000000Y-80037789D01*
X102000000Y-79826090D01*
X102000265Y-79817981D01*
X102000497Y-79814421D01*
X102000500Y-79814401D01*
X102000499Y-79185600D01*
X102000499Y-79185599D01*
X102000499Y-79185595D01*
X102000266Y-79182042D01*
X102000000Y-79173930D01*
X102000000Y-77212210D01*
X102002381Y-77188029D01*
X102010412Y-77147651D01*
X102028927Y-77102956D01*
X102044877Y-77079086D01*
X102079086Y-77044877D01*
X102102956Y-77028927D01*
X102147653Y-77010412D01*
X102188027Y-77002381D01*
X102212211Y-77000000D01*
X103287789Y-77000000D01*
X103311971Y-77002381D01*
G37*
%TD.AperFunction*%
%TD*%
%TA.AperFunction,Conductor*%
%TO.N,+3.3V*%
G36*
X113493218Y-74669685D02*
G01*
X113513860Y-74686319D01*
X114008036Y-75180495D01*
X114116464Y-75243095D01*
X114237399Y-75275500D01*
X114362601Y-75275500D01*
X114410632Y-75275500D01*
X114447738Y-75281182D01*
X114868646Y-75413185D01*
X114874105Y-75414848D01*
X114879365Y-75415964D01*
X114879359Y-75415988D01*
X114885807Y-75417174D01*
X115021015Y-75450500D01*
X115178985Y-75450500D01*
X115295825Y-75421702D01*
X115365628Y-75424771D01*
X115422690Y-75465091D01*
X115448895Y-75529861D01*
X115449500Y-75542099D01*
X115449500Y-80126000D01*
X115429815Y-80193039D01*
X115377011Y-80238794D01*
X115325500Y-80250000D01*
X114712211Y-80250000D01*
X114688020Y-80247617D01*
X114672744Y-80244578D01*
X114647656Y-80239588D01*
X114602956Y-80221072D01*
X114579086Y-80205122D01*
X114544877Y-80170913D01*
X114528927Y-80147043D01*
X114510412Y-80102346D01*
X114502381Y-80061971D01*
X114500000Y-80037789D01*
X114500000Y-79499999D01*
X114500000Y-79300000D01*
X114300004Y-79300000D01*
X113275288Y-79300000D01*
X113208249Y-79280315D01*
X113200363Y-79274804D01*
X113122343Y-79215639D01*
X112981561Y-79160122D01*
X112935926Y-79154642D01*
X112893102Y-79149500D01*
X112893097Y-79149500D01*
X112224500Y-79149500D01*
X112157461Y-79129815D01*
X112111706Y-79077011D01*
X112100500Y-79025500D01*
X112100500Y-77966666D01*
X112120185Y-77899627D01*
X112136820Y-77878984D01*
X112175112Y-77840692D01*
X112175117Y-77840687D01*
X112257494Y-77701395D01*
X112302643Y-77545993D01*
X112305500Y-77509690D01*
X112305500Y-76490310D01*
X112302643Y-76454007D01*
X112257494Y-76298605D01*
X112175117Y-76159313D01*
X112060687Y-76044883D01*
X112060681Y-76044879D01*
X112054521Y-76040101D01*
X112055330Y-76039057D01*
X112013191Y-75993918D01*
X112000000Y-75938264D01*
X112000000Y-75808505D01*
X112019685Y-75741466D01*
X112048512Y-75710131D01*
X112089036Y-75679036D01*
X112179279Y-75561429D01*
X112236009Y-75424472D01*
X112250500Y-75314401D01*
X112250499Y-74773999D01*
X112270183Y-74706961D01*
X112322987Y-74661206D01*
X112374499Y-74650000D01*
X113426179Y-74650000D01*
X113493218Y-74669685D01*
G37*
%TD.AperFunction*%
%TD*%
%TA.AperFunction,Conductor*%
%TO.N,GND*%
G36*
X102144767Y-80601476D02*
G01*
X102151632Y-80601497D01*
X102151656Y-80601256D01*
X102177335Y-80603786D01*
X102177346Y-80603786D01*
X102177360Y-80603788D01*
X102212211Y-80605500D01*
X102212223Y-80605500D01*
X104725500Y-80605500D01*
X104792539Y-80625185D01*
X104838294Y-80677989D01*
X104849500Y-80729500D01*
X104849500Y-83262035D01*
X104829815Y-83329074D01*
X104813181Y-83349716D01*
X104749716Y-83413181D01*
X104688393Y-83446666D01*
X104662035Y-83449500D01*
X103865691Y-83449500D01*
X103796944Y-83467920D01*
X103751112Y-83480201D01*
X103751107Y-83480204D01*
X103707695Y-83505267D01*
X103707696Y-83505268D01*
X103648389Y-83539508D01*
X103648383Y-83539513D01*
X103437896Y-83750000D01*
X102453007Y-83750000D01*
X102450500Y-83726679D01*
X102450500Y-82423487D01*
X102454726Y-82391391D01*
X102470913Y-82330983D01*
X102475501Y-82313863D01*
X102475501Y-82188661D01*
X102447858Y-82085500D01*
X102443096Y-82067729D01*
X102443093Y-82067722D01*
X102380497Y-81959302D01*
X102380493Y-81959297D01*
X102070450Y-81649253D01*
X102036965Y-81587930D01*
X102035263Y-81547100D01*
X102035234Y-81547099D01*
X102035252Y-81546824D01*
X102035192Y-81545384D01*
X102035500Y-81543047D01*
X102035499Y-80956954D01*
X102020558Y-80843459D01*
X102000000Y-80793826D01*
X102000000Y-80660690D01*
X102012758Y-80635204D01*
X102072847Y-80599552D01*
X102127702Y-80598082D01*
X102144767Y-80601476D01*
G37*
%TD.AperFunction*%
%TD*%
%TA.AperFunction,Conductor*%
%TO.N,+5V*%
G36*
X110643002Y-80154718D02*
G01*
X110697656Y-80170244D01*
X110755300Y-80205870D01*
X110793627Y-80247807D01*
X110813003Y-80276005D01*
X110944720Y-80539442D01*
X110944721Y-80539443D01*
X110944722Y-80539444D01*
X111000000Y-80650000D01*
X111162939Y-80650000D01*
X111229978Y-80669685D01*
X111249897Y-80688107D01*
X111251080Y-80686925D01*
X111257075Y-80692920D01*
X111377656Y-80784360D01*
X111377657Y-80784360D01*
X111377658Y-80784361D01*
X111518436Y-80839877D01*
X111606898Y-80850500D01*
X111625500Y-80850500D01*
X111692539Y-80870185D01*
X111738294Y-80922989D01*
X111749500Y-80974500D01*
X111749500Y-81790500D01*
X111729815Y-81857539D01*
X111677011Y-81903294D01*
X111625500Y-81914500D01*
X111170302Y-81914500D01*
X111134008Y-81917356D01*
X111134002Y-81917357D01*
X110978609Y-81962504D01*
X110978606Y-81962505D01*
X110839315Y-82044881D01*
X110839307Y-82044887D01*
X110724887Y-82159307D01*
X110724881Y-82159315D01*
X110642505Y-82298606D01*
X110642504Y-82298609D01*
X110597357Y-82454002D01*
X110597356Y-82454008D01*
X110594500Y-82490302D01*
X110594500Y-83509697D01*
X110597356Y-83545991D01*
X110597357Y-83545997D01*
X110642504Y-83701390D01*
X110642505Y-83701393D01*
X110724881Y-83840684D01*
X110724887Y-83840692D01*
X110839307Y-83955112D01*
X110839311Y-83955115D01*
X110839313Y-83955117D01*
X110978605Y-84037494D01*
X111019587Y-84049400D01*
X111134002Y-84082642D01*
X111134005Y-84082642D01*
X111134007Y-84082643D01*
X111170310Y-84085500D01*
X111170318Y-84085500D01*
X111879682Y-84085500D01*
X111879690Y-84085500D01*
X111915993Y-84082643D01*
X111915995Y-84082642D01*
X111915997Y-84082642D01*
X111956975Y-84070736D01*
X112071395Y-84037494D01*
X112210687Y-83955117D01*
X112325117Y-83840687D01*
X112407494Y-83701395D01*
X112452643Y-83545993D01*
X112455500Y-83509690D01*
X112455500Y-82603676D01*
X112475185Y-82536637D01*
X112491819Y-82515995D01*
X112560329Y-82447485D01*
X112650500Y-82357314D01*
X112716392Y-82243186D01*
X112750500Y-82115892D01*
X112750500Y-81984107D01*
X112750500Y-80974500D01*
X112770185Y-80907461D01*
X112822989Y-80861706D01*
X112874500Y-80850500D01*
X112893097Y-80850500D01*
X112893102Y-80850500D01*
X112981564Y-80839877D01*
X113122342Y-80784361D01*
X113242922Y-80692922D01*
X113242924Y-80692920D01*
X113248920Y-80686925D01*
X113251369Y-80689374D01*
X113294505Y-80657531D01*
X113337061Y-80650000D01*
X113709396Y-80650000D01*
X113717668Y-80650500D01*
X113721015Y-80650500D01*
X113882332Y-80650500D01*
X113890604Y-80650000D01*
X115325500Y-80650000D01*
X115392539Y-80669685D01*
X115438294Y-80722489D01*
X115449500Y-80774000D01*
X115449500Y-87737454D01*
X115429815Y-87804493D01*
X115377011Y-87850248D01*
X115307853Y-87860192D01*
X115244297Y-87831167D01*
X115243274Y-87830270D01*
X115230298Y-87818775D01*
X115230296Y-87818773D01*
X115090423Y-87745361D01*
X114937044Y-87707558D01*
X114937043Y-87707558D01*
X114779073Y-87707558D01*
X114779072Y-87707558D01*
X114625692Y-87745361D01*
X114485820Y-87818773D01*
X114367574Y-87923528D01*
X114335113Y-87970556D01*
X114280829Y-88014545D01*
X114211380Y-88022203D01*
X114175438Y-88009910D01*
X114132365Y-87987303D01*
X113978986Y-87949500D01*
X113978985Y-87949500D01*
X113821015Y-87949500D01*
X113821014Y-87949500D01*
X113667634Y-87987303D01*
X113527762Y-88060715D01*
X113409516Y-88165471D01*
X113319781Y-88295475D01*
X113319780Y-88295476D01*
X113263762Y-88443181D01*
X113244722Y-88599999D01*
X113244722Y-88600000D01*
X113263762Y-88756818D01*
X113283647Y-88809248D01*
X113289595Y-88830439D01*
X113292733Y-88847233D01*
X113441978Y-89255966D01*
X113449500Y-89298497D01*
X113449500Y-89859309D01*
X113466670Y-89923388D01*
X113466670Y-89923389D01*
X113480199Y-89973884D01*
X113489987Y-89990837D01*
X113539511Y-90076614D01*
X113539513Y-90076616D01*
X113813181Y-90350284D01*
X113846666Y-90411607D01*
X113849500Y-90437965D01*
X113849500Y-92576000D01*
X113829815Y-92643039D01*
X113777011Y-92688794D01*
X113725500Y-92700000D01*
X110426749Y-92700000D01*
X110359710Y-92680315D01*
X110324699Y-92646440D01*
X110322351Y-92643039D01*
X110234332Y-92515521D01*
X110234329Y-92515518D01*
X110234327Y-92515516D01*
X110111546Y-92406742D01*
X110111544Y-92406740D01*
X109966295Y-92330507D01*
X109966292Y-92330506D01*
X109918699Y-92318775D01*
X109858319Y-92283618D01*
X109826531Y-92221398D01*
X109824384Y-92196969D01*
X109826316Y-92028222D01*
X109846767Y-91961414D01*
X109900091Y-91916266D01*
X109920632Y-91909246D01*
X109966295Y-91897992D01*
X110111546Y-91821758D01*
X110234332Y-91712979D01*
X110327518Y-91577976D01*
X110385688Y-91424595D01*
X110405461Y-91261750D01*
X110385688Y-91098905D01*
X110327518Y-90945524D01*
X110327516Y-90945521D01*
X110327515Y-90945518D01*
X110301059Y-90907191D01*
X110279175Y-90840837D01*
X110296640Y-90773185D01*
X110301059Y-90766309D01*
X110327515Y-90727981D01*
X110327515Y-90727979D01*
X110327518Y-90727976D01*
X110385688Y-90574595D01*
X110405461Y-90411750D01*
X110385688Y-90248905D01*
X110327518Y-90095524D01*
X110327516Y-90095521D01*
X110327515Y-90095518D01*
X110301059Y-90057191D01*
X110279175Y-89990837D01*
X110296640Y-89923185D01*
X110301059Y-89916309D01*
X110327515Y-89877981D01*
X110327515Y-89877979D01*
X110327518Y-89877976D01*
X110385688Y-89724595D01*
X110405461Y-89561750D01*
X110385688Y-89398905D01*
X110327518Y-89245524D01*
X110327516Y-89245521D01*
X110327515Y-89245518D01*
X110301059Y-89207191D01*
X110279175Y-89140837D01*
X110296640Y-89073185D01*
X110301059Y-89066309D01*
X110327515Y-89027981D01*
X110327515Y-89027979D01*
X110327518Y-89027976D01*
X110385688Y-88874595D01*
X110405461Y-88711750D01*
X110385688Y-88548905D01*
X110327518Y-88395524D01*
X110234332Y-88260521D01*
X110234329Y-88260518D01*
X110234327Y-88260516D01*
X110111546Y-88151742D01*
X110111544Y-88151740D01*
X109966295Y-88075507D01*
X109959280Y-88072847D01*
X109959822Y-88071416D01*
X109906874Y-88040580D01*
X109875092Y-87978357D01*
X109872947Y-87953930D01*
X109875096Y-87766201D01*
X109895547Y-87699391D01*
X109948871Y-87654243D01*
X109959290Y-87650682D01*
X109959279Y-87650653D01*
X109966287Y-87647994D01*
X109966287Y-87647993D01*
X109966295Y-87647992D01*
X110111546Y-87571758D01*
X110234332Y-87462979D01*
X110327518Y-87327976D01*
X110385688Y-87174595D01*
X110405461Y-87011750D01*
X110385688Y-86848905D01*
X110327518Y-86695524D01*
X110321948Y-86687455D01*
X110300067Y-86621102D01*
X110300000Y-86617017D01*
X110300000Y-86545642D01*
X110319685Y-86478603D01*
X110372489Y-86432848D01*
X110376548Y-86431081D01*
X110509172Y-86376147D01*
X110509172Y-86376146D01*
X110509179Y-86376144D01*
X110640289Y-86288539D01*
X110751789Y-86177039D01*
X110839394Y-86045929D01*
X110899737Y-85900247D01*
X110930500Y-85745592D01*
X110930500Y-85587908D01*
X110930500Y-85587905D01*
X110930499Y-85587903D01*
X111559500Y-85587903D01*
X111559500Y-85745596D01*
X111590261Y-85900239D01*
X111590264Y-85900251D01*
X111650602Y-86045922D01*
X111650609Y-86045935D01*
X111738210Y-86177038D01*
X111738213Y-86177042D01*
X111849707Y-86288536D01*
X111849711Y-86288539D01*
X111980814Y-86376140D01*
X111980827Y-86376147D01*
X112126498Y-86436485D01*
X112126503Y-86436487D01*
X112281153Y-86467249D01*
X112281156Y-86467250D01*
X112281158Y-86467250D01*
X113238844Y-86467250D01*
X113238845Y-86467249D01*
X113393497Y-86436487D01*
X113539179Y-86376144D01*
X113670289Y-86288539D01*
X113781789Y-86177039D01*
X113869394Y-86045929D01*
X113929737Y-85900247D01*
X113960500Y-85745592D01*
X113960500Y-85587908D01*
X113960500Y-85587905D01*
X113960499Y-85587903D01*
X113929738Y-85433260D01*
X113929737Y-85433253D01*
X113917003Y-85402509D01*
X113869397Y-85287577D01*
X113869390Y-85287564D01*
X113781789Y-85156461D01*
X113781786Y-85156457D01*
X113670292Y-85044963D01*
X113670288Y-85044960D01*
X113539185Y-84957359D01*
X113539172Y-84957352D01*
X113393501Y-84897014D01*
X113393489Y-84897011D01*
X113238845Y-84866250D01*
X113238842Y-84866250D01*
X112281158Y-84866250D01*
X112281155Y-84866250D01*
X112126510Y-84897011D01*
X112126498Y-84897014D01*
X111980827Y-84957352D01*
X111980814Y-84957359D01*
X111849711Y-85044960D01*
X111849707Y-85044963D01*
X111738213Y-85156457D01*
X111738210Y-85156461D01*
X111650609Y-85287564D01*
X111650602Y-85287577D01*
X111590264Y-85433248D01*
X111590261Y-85433260D01*
X111559500Y-85587903D01*
X110930499Y-85587903D01*
X110899738Y-85433260D01*
X110899737Y-85433253D01*
X110887003Y-85402509D01*
X110839397Y-85287577D01*
X110839390Y-85287564D01*
X110751789Y-85156461D01*
X110751786Y-85156457D01*
X110640292Y-85044963D01*
X110640288Y-85044960D01*
X110509185Y-84957359D01*
X110509172Y-84957352D01*
X110363501Y-84897014D01*
X110363489Y-84897011D01*
X110208845Y-84866250D01*
X110208842Y-84866250D01*
X109624000Y-84866250D01*
X109556961Y-84846565D01*
X109511206Y-84793761D01*
X109500000Y-84742250D01*
X109500000Y-83575966D01*
X109519685Y-83508927D01*
X109536319Y-83488285D01*
X109735321Y-83289283D01*
X110060490Y-82964115D01*
X110119799Y-82861388D01*
X110126285Y-82837176D01*
X110126286Y-82837176D01*
X110126286Y-82837172D01*
X110150500Y-82746810D01*
X110150500Y-82651668D01*
X110170185Y-82584629D01*
X110186819Y-82563987D01*
X110190399Y-82560405D01*
X110190403Y-82560403D01*
X110274929Y-82447489D01*
X110324219Y-82315335D01*
X110330500Y-82256915D01*
X110330499Y-81093086D01*
X110324219Y-81034665D01*
X110274929Y-80902511D01*
X110190403Y-80789597D01*
X110077489Y-80705071D01*
X110077487Y-80705070D01*
X110077485Y-80705069D01*
X109945338Y-80655782D01*
X109945337Y-80655781D01*
X109945335Y-80655781D01*
X109886915Y-80649500D01*
X109886906Y-80649500D01*
X109624000Y-80649500D01*
X109556961Y-80629815D01*
X109511206Y-80577011D01*
X109500000Y-80525500D01*
X109500000Y-80474499D01*
X109519685Y-80407460D01*
X109572489Y-80361705D01*
X109623996Y-80350499D01*
X109886914Y-80350499D01*
X109945335Y-80344219D01*
X110077489Y-80294929D01*
X110190403Y-80210403D01*
X110198424Y-80199687D01*
X110254358Y-80157818D01*
X110297690Y-80150000D01*
X110609123Y-80150000D01*
X110643002Y-80154718D01*
G37*
%TD.AperFunction*%
%TD*%
%TA.AperFunction,Conductor*%
%TO.N,GND*%
G36*
X116418834Y-95333789D02*
G01*
X116474767Y-95375661D01*
X116499184Y-95441125D01*
X116499500Y-95449971D01*
X116499500Y-98494586D01*
X116499028Y-98505394D01*
X116485260Y-98662753D01*
X116481507Y-98684038D01*
X116442030Y-98831369D01*
X116434637Y-98851681D01*
X116370177Y-98989915D01*
X116359370Y-99008633D01*
X116271880Y-99133582D01*
X116257986Y-99150140D01*
X116150140Y-99257986D01*
X116133582Y-99271880D01*
X116008633Y-99359370D01*
X115989915Y-99370177D01*
X115851681Y-99434637D01*
X115831369Y-99442030D01*
X115684038Y-99481507D01*
X115662753Y-99485260D01*
X115505395Y-99499028D01*
X115494587Y-99499500D01*
X112856950Y-99499500D01*
X112789911Y-99479815D01*
X112744156Y-99427011D01*
X112734212Y-99357853D01*
X112763237Y-99294297D01*
X112800655Y-99265015D01*
X112838764Y-99245596D01*
X112946327Y-99190791D01*
X113100933Y-99078463D01*
X113236063Y-98943333D01*
X113348391Y-98788727D01*
X113435150Y-98618453D01*
X113494205Y-98436702D01*
X113507491Y-98352813D01*
X113524100Y-98247957D01*
X113524100Y-98177371D01*
X113543785Y-98110332D01*
X113560419Y-98089690D01*
X116287819Y-95362290D01*
X116349142Y-95328805D01*
X116418834Y-95333789D01*
G37*
%TD.AperFunction*%
%TA.AperFunction,Conductor*%
G36*
X106009746Y-84766221D02*
G01*
X106045563Y-84826211D01*
X106049500Y-84857208D01*
X106049500Y-88012034D01*
X106029815Y-88079073D01*
X106013181Y-88099715D01*
X105639513Y-88473383D01*
X105639511Y-88473386D01*
X105580200Y-88576113D01*
X105576019Y-88591715D01*
X105576020Y-88591716D01*
X105576020Y-88591717D01*
X105549500Y-88690691D01*
X105549500Y-90309309D01*
X105569967Y-90385691D01*
X105569966Y-90385691D01*
X105569967Y-90385693D01*
X105580199Y-90423883D01*
X105580200Y-90423885D01*
X105580201Y-90423887D01*
X105639511Y-90526614D01*
X106740136Y-91627240D01*
X106842864Y-91686549D01*
X106957441Y-91717250D01*
X107576000Y-91717250D01*
X107643039Y-91736935D01*
X107688794Y-91789739D01*
X107700000Y-91841250D01*
X107700000Y-94825500D01*
X107680315Y-94892539D01*
X107627511Y-94938294D01*
X107576000Y-94949500D01*
X106340691Y-94949500D01*
X106271944Y-94967920D01*
X106226112Y-94980201D01*
X106226107Y-94980204D01*
X106182695Y-95005267D01*
X106182696Y-95005268D01*
X106123389Y-95039508D01*
X106123383Y-95039513D01*
X105549716Y-95613181D01*
X105488393Y-95646666D01*
X105462035Y-95649500D01*
X101837965Y-95649500D01*
X101770926Y-95629815D01*
X101750284Y-95613181D01*
X101086819Y-94949716D01*
X101053334Y-94888393D01*
X101050500Y-94862035D01*
X101050500Y-93163972D01*
X101070185Y-93096933D01*
X101122989Y-93051178D01*
X101190685Y-93041033D01*
X101224613Y-93045500D01*
X101775386Y-93045499D01*
X101888388Y-93030623D01*
X102028994Y-92972382D01*
X102149735Y-92879735D01*
X102242382Y-92758994D01*
X102300623Y-92618388D01*
X102315500Y-92505387D01*
X102315499Y-92117963D01*
X102335183Y-92050925D01*
X102351809Y-92030292D01*
X102472821Y-91909280D01*
X102534142Y-91875798D01*
X102603834Y-91880782D01*
X102659767Y-91922654D01*
X102684184Y-91988118D01*
X102684500Y-91996964D01*
X102684500Y-92505386D01*
X102699377Y-92618387D01*
X102757618Y-92758995D01*
X102803941Y-92819364D01*
X102850265Y-92879735D01*
X102928940Y-92940104D01*
X102971004Y-92972381D01*
X102971005Y-92972381D01*
X102971006Y-92972382D01*
X103111612Y-93030623D01*
X103224613Y-93045500D01*
X103775386Y-93045499D01*
X103888388Y-93030623D01*
X104028994Y-92972382D01*
X104149735Y-92879735D01*
X104242382Y-92758994D01*
X104300623Y-92618388D01*
X104315500Y-92505387D01*
X104315499Y-91991963D01*
X104335183Y-91924925D01*
X104387987Y-91879170D01*
X104457146Y-91869226D01*
X104520702Y-91898251D01*
X104527180Y-91904283D01*
X104648181Y-92025284D01*
X104681666Y-92086607D01*
X104684500Y-92112965D01*
X104684500Y-92505386D01*
X104699377Y-92618387D01*
X104757618Y-92758995D01*
X104803941Y-92819364D01*
X104850265Y-92879735D01*
X104928940Y-92940104D01*
X104971004Y-92972381D01*
X104971005Y-92972381D01*
X104971006Y-92972382D01*
X105111612Y-93030623D01*
X105224613Y-93045500D01*
X105775386Y-93045499D01*
X105888388Y-93030623D01*
X106028994Y-92972382D01*
X106149735Y-92879735D01*
X106242382Y-92758994D01*
X106300623Y-92618388D01*
X106315500Y-92505387D01*
X106315499Y-91974614D01*
X106300623Y-91861612D01*
X106242382Y-91721006D01*
X106242381Y-91721005D01*
X106242381Y-91721004D01*
X106170433Y-91627240D01*
X106149735Y-91600265D01*
X106086671Y-91551875D01*
X106028995Y-91507618D01*
X105949499Y-91474690D01*
X105888388Y-91449377D01*
X105874262Y-91447517D01*
X105775394Y-91434500D01*
X105775387Y-91434500D01*
X105382965Y-91434500D01*
X105315926Y-91414815D01*
X105295284Y-91398181D01*
X104786819Y-90889716D01*
X104753334Y-90828393D01*
X104750500Y-90802035D01*
X104750500Y-85575316D01*
X104770185Y-85508277D01*
X104786815Y-85487639D01*
X105086632Y-85187821D01*
X105131765Y-85159032D01*
X105525948Y-85015040D01*
X105525976Y-85015119D01*
X105532357Y-85012697D01*
X105532365Y-85012696D01*
X105532371Y-85012692D01*
X105533799Y-85012151D01*
X105537400Y-85010422D01*
X105558928Y-85001042D01*
X105564568Y-84997040D01*
X105578667Y-84988393D01*
X105672240Y-84939283D01*
X105790483Y-84834530D01*
X105823451Y-84786767D01*
X105877732Y-84742778D01*
X105947180Y-84735118D01*
X106009746Y-84766221D01*
G37*
%TD.AperFunction*%
%TA.AperFunction,Conductor*%
G36*
X113792539Y-93075185D02*
G01*
X113838294Y-93127989D01*
X113849500Y-93179500D01*
X113849500Y-94062035D01*
X113829815Y-94129074D01*
X113813181Y-94149716D01*
X113049716Y-94913181D01*
X112988393Y-94946666D01*
X112962035Y-94949500D01*
X111124000Y-94949500D01*
X111056961Y-94929815D01*
X111011206Y-94877011D01*
X111000000Y-94825500D01*
X111000000Y-93179500D01*
X111019685Y-93112461D01*
X111072489Y-93066706D01*
X111124000Y-93055500D01*
X113725500Y-93055500D01*
X113792539Y-93075185D01*
G37*
%TD.AperFunction*%
%TA.AperFunction,Conductor*%
G36*
X113215805Y-85224131D02*
G01*
X113277828Y-85236468D01*
X113301086Y-85243524D01*
X113359506Y-85267721D01*
X113380937Y-85279176D01*
X113433521Y-85314313D01*
X113452310Y-85329733D01*
X113497013Y-85374436D01*
X113512434Y-85393226D01*
X113547566Y-85445804D01*
X113559026Y-85467244D01*
X113583224Y-85525665D01*
X113590279Y-85548922D01*
X113602617Y-85610941D01*
X113605000Y-85635135D01*
X113605000Y-85698365D01*
X113602617Y-85722558D01*
X113590281Y-85784570D01*
X113583226Y-85807828D01*
X113559026Y-85866254D01*
X113547566Y-85887694D01*
X113512436Y-85940269D01*
X113497015Y-85959059D01*
X113452309Y-86003765D01*
X113433518Y-86019187D01*
X113380943Y-86054316D01*
X113359505Y-86065774D01*
X113301078Y-86089975D01*
X113277820Y-86097031D01*
X113240953Y-86104365D01*
X113215805Y-86109367D01*
X113191616Y-86111750D01*
X112328383Y-86111750D01*
X112304193Y-86109367D01*
X112273359Y-86103233D01*
X112242174Y-86097030D01*
X112218918Y-86089975D01*
X112160495Y-86065777D01*
X112139053Y-86054316D01*
X112086476Y-86019184D01*
X112067687Y-86003764D01*
X112022983Y-85959060D01*
X112007563Y-85940271D01*
X111982274Y-85902424D01*
X111972428Y-85887690D01*
X111960971Y-85866254D01*
X111936769Y-85807825D01*
X111929720Y-85784586D01*
X111917381Y-85722552D01*
X111915000Y-85698370D01*
X111915000Y-85635127D01*
X111917382Y-85610941D01*
X111929721Y-85548908D01*
X111936768Y-85525675D01*
X111960974Y-85467235D01*
X111972426Y-85445811D01*
X112007567Y-85393220D01*
X112022978Y-85374442D01*
X112067692Y-85329728D01*
X112086470Y-85314317D01*
X112139061Y-85279176D01*
X112160485Y-85267724D01*
X112218925Y-85243519D01*
X112242162Y-85236470D01*
X112304195Y-85224131D01*
X112328379Y-85221750D01*
X113191617Y-85221750D01*
X113215805Y-85224131D01*
G37*
%TD.AperFunction*%
%TA.AperFunction,Conductor*%
G36*
X110505203Y-85444003D02*
G01*
X110538562Y-85490266D01*
X110553224Y-85525666D01*
X110560279Y-85548923D01*
X110572617Y-85610945D01*
X110575000Y-85635138D01*
X110575000Y-85698365D01*
X110572617Y-85722558D01*
X110560281Y-85784570D01*
X110553226Y-85807827D01*
X110538562Y-85843231D01*
X110494722Y-85897636D01*
X110428428Y-85919702D01*
X110360729Y-85902424D01*
X110313117Y-85851288D01*
X110300000Y-85795781D01*
X110300000Y-85537716D01*
X110319685Y-85470677D01*
X110372489Y-85424922D01*
X110441647Y-85414978D01*
X110505203Y-85444003D01*
G37*
%TD.AperFunction*%
%TA.AperFunction,Conductor*%
G36*
X102144767Y-80601476D02*
G01*
X102151632Y-80601497D01*
X102151656Y-80601256D01*
X102177335Y-80603786D01*
X102177346Y-80603786D01*
X102177360Y-80603788D01*
X102212211Y-80605500D01*
X102212223Y-80605500D01*
X104725500Y-80605500D01*
X104792539Y-80625185D01*
X104838294Y-80677989D01*
X104849500Y-80729500D01*
X104849500Y-83262035D01*
X104829815Y-83329074D01*
X104813181Y-83349716D01*
X104749716Y-83413181D01*
X104688393Y-83446666D01*
X104662035Y-83449500D01*
X103865691Y-83449500D01*
X103796969Y-83467914D01*
X103751112Y-83480201D01*
X103751107Y-83480204D01*
X103707695Y-83505267D01*
X103707696Y-83505268D01*
X103648389Y-83539508D01*
X103648383Y-83539513D01*
X103017859Y-84170038D01*
X102956536Y-84203523D01*
X102886844Y-84198539D01*
X102842497Y-84170038D01*
X102486819Y-83814360D01*
X102453334Y-83753037D01*
X102450500Y-83726679D01*
X102450500Y-82423487D01*
X102454726Y-82391391D01*
X102475501Y-82313863D01*
X102475501Y-82188661D01*
X102447858Y-82085500D01*
X102443096Y-82067729D01*
X102443093Y-82067722D01*
X102380497Y-81959302D01*
X102380493Y-81959297D01*
X102070450Y-81649253D01*
X102036965Y-81587930D01*
X102035263Y-81547100D01*
X102035234Y-81547099D01*
X102035252Y-81546824D01*
X102035192Y-81545384D01*
X102035500Y-81543047D01*
X102035499Y-80956954D01*
X102033688Y-80943199D01*
X102020559Y-80843464D01*
X102020558Y-80843460D01*
X101988951Y-80767152D01*
X101981482Y-80697683D01*
X102012758Y-80635204D01*
X102072847Y-80599552D01*
X102127702Y-80598082D01*
X102144767Y-80601476D01*
G37*
%TD.AperFunction*%
%TA.AperFunction,Conductor*%
G36*
X110554459Y-73418990D02*
G01*
X110575499Y-73429276D01*
X110598607Y-73440573D01*
X110666739Y-73450500D01*
X111100500Y-73450500D01*
X111167539Y-73470185D01*
X111213294Y-73522989D01*
X111224500Y-73574500D01*
X111224500Y-74050899D01*
X111204815Y-74117938D01*
X111152011Y-74163693D01*
X111116696Y-74173837D01*
X111115531Y-74173990D01*
X111115527Y-74173991D01*
X110978574Y-74230719D01*
X110978571Y-74230720D01*
X110978571Y-74230721D01*
X110860964Y-74320964D01*
X110771621Y-74437399D01*
X110770719Y-74438574D01*
X110713991Y-74575527D01*
X110713990Y-74575529D01*
X110699500Y-74685598D01*
X110699500Y-75314403D01*
X110713988Y-75424463D01*
X110713991Y-75424472D01*
X110770721Y-75561429D01*
X110860964Y-75679036D01*
X110978571Y-75769279D01*
X111115528Y-75826009D01*
X111225599Y-75840500D01*
X111522722Y-75840499D01*
X111589761Y-75860183D01*
X111635516Y-75912987D01*
X111645883Y-75950101D01*
X111654083Y-76020248D01*
X111654084Y-76020254D01*
X111667276Y-76075909D01*
X111667277Y-76075914D01*
X111688635Y-76138983D01*
X111688636Y-76138985D01*
X111688638Y-76138989D01*
X111753327Y-76236511D01*
X111775959Y-76260754D01*
X111778131Y-76265079D01*
X111804679Y-76291627D01*
X111807640Y-76294691D01*
X111822317Y-76310413D01*
X111829241Y-76316189D01*
X111880904Y-76367852D01*
X111899956Y-76392413D01*
X111920665Y-76427431D01*
X111933007Y-76455952D01*
X111945075Y-76497485D01*
X111950000Y-76532084D01*
X111950000Y-77467914D01*
X111945075Y-77502513D01*
X111933007Y-77544046D01*
X111920665Y-77572567D01*
X111899526Y-77608312D01*
X111885043Y-77628053D01*
X111860010Y-77655922D01*
X111860009Y-77655923D01*
X111843371Y-77676570D01*
X111830089Y-77694141D01*
X111830088Y-77694142D01*
X111779086Y-77799467D01*
X111779085Y-77799470D01*
X111759401Y-77866505D01*
X111759399Y-77866511D01*
X111745000Y-77966666D01*
X111745000Y-79025502D01*
X111748790Y-79060754D01*
X111749500Y-79074007D01*
X111749500Y-79247311D01*
X111764723Y-79343428D01*
X111764723Y-79343429D01*
X111823760Y-79459295D01*
X111823763Y-79459299D01*
X111915700Y-79551236D01*
X111915704Y-79551239D01*
X111915706Y-79551241D01*
X112031567Y-79610275D01*
X112031569Y-79610275D01*
X112031571Y-79610276D01*
X112101895Y-79621414D01*
X112127680Y-79625498D01*
X112127687Y-79625499D01*
X112127693Y-79625500D01*
X112372306Y-79625499D01*
X112372311Y-79625499D01*
X112372311Y-79625498D01*
X112420369Y-79617887D01*
X112468428Y-79610276D01*
X112468429Y-79610275D01*
X112468433Y-79610275D01*
X112518706Y-79584659D01*
X112587372Y-79571763D01*
X112631291Y-79584658D01*
X112681567Y-79610275D01*
X112681568Y-79610275D01*
X112681570Y-79610276D01*
X112751895Y-79621414D01*
X112777680Y-79625498D01*
X112777687Y-79625499D01*
X112777693Y-79625500D01*
X113022306Y-79625499D01*
X113059510Y-79619606D01*
X113113841Y-79623102D01*
X113175129Y-79641099D01*
X113175130Y-79641099D01*
X113175133Y-79641100D01*
X113204997Y-79645393D01*
X113275288Y-79655500D01*
X114020500Y-79655500D01*
X114087539Y-79675185D01*
X114133294Y-79727989D01*
X114144500Y-79779500D01*
X114144500Y-80037789D01*
X114144927Y-80046477D01*
X114146211Y-80072632D01*
X114148587Y-80096760D01*
X114148592Y-80096806D01*
X114148594Y-80096824D01*
X114148596Y-80096835D01*
X114153708Y-80131302D01*
X114153709Y-80131308D01*
X114156693Y-80146312D01*
X114150464Y-80215904D01*
X114107599Y-80271080D01*
X114041709Y-80294322D01*
X114035075Y-80294500D01*
X113890593Y-80294500D01*
X113875941Y-80294943D01*
X113872194Y-80295000D01*
X113727806Y-80295000D01*
X113724059Y-80294943D01*
X113709407Y-80294500D01*
X113709396Y-80294500D01*
X113337061Y-80294500D01*
X113299891Y-80297763D01*
X113275110Y-80299939D01*
X113256148Y-80303295D01*
X113232556Y-80307470D01*
X113222419Y-80309952D01*
X113187675Y-80318461D01*
X113100272Y-80362921D01*
X113031594Y-80375771D01*
X113024658Y-80374872D01*
X113022309Y-80374500D01*
X112777688Y-80374500D01*
X112777688Y-80374501D01*
X112681571Y-80389723D01*
X112681570Y-80389723D01*
X112565704Y-80448760D01*
X112565700Y-80448763D01*
X112473763Y-80540700D01*
X112473760Y-80540704D01*
X112473759Y-80540706D01*
X112415126Y-80655781D01*
X112414723Y-80656571D01*
X112399500Y-80752692D01*
X112399500Y-80934332D01*
X112398238Y-80951977D01*
X112395000Y-80974497D01*
X112395000Y-82052762D01*
X112390769Y-82084878D01*
X112389336Y-82090222D01*
X112376967Y-82120083D01*
X112374204Y-82124871D01*
X112354486Y-82150574D01*
X112240460Y-82264601D01*
X112240422Y-82264641D01*
X112215012Y-82292929D01*
X112215011Y-82292930D01*
X112198370Y-82313580D01*
X112185092Y-82331147D01*
X112185090Y-82331149D01*
X112134084Y-82436481D01*
X112114401Y-82503515D01*
X112114399Y-82503521D01*
X112100000Y-82603676D01*
X112100000Y-83467914D01*
X112095075Y-83502513D01*
X112083007Y-83544046D01*
X112070665Y-83572567D01*
X112049956Y-83607585D01*
X112030904Y-83632146D01*
X112002145Y-83660905D01*
X111977587Y-83679955D01*
X111942570Y-83700665D01*
X111914042Y-83713010D01*
X111872511Y-83725076D01*
X111837917Y-83730000D01*
X111212083Y-83730000D01*
X111177488Y-83725076D01*
X111135953Y-83713008D01*
X111107431Y-83700666D01*
X111072407Y-83679952D01*
X111047850Y-83660903D01*
X111019092Y-83632145D01*
X111000042Y-83607585D01*
X110979332Y-83572567D01*
X110966990Y-83544044D01*
X110954924Y-83502513D01*
X110950000Y-83467918D01*
X110950000Y-82532079D01*
X110954924Y-82497484D01*
X110966990Y-82455953D01*
X110979331Y-82427433D01*
X111000044Y-82392407D01*
X111019088Y-82367856D01*
X111047856Y-82339088D01*
X111072407Y-82320044D01*
X111107433Y-82299331D01*
X111135947Y-82286991D01*
X111177490Y-82274922D01*
X111212080Y-82270000D01*
X111625491Y-82270000D01*
X111625500Y-82270000D01*
X111701070Y-82261875D01*
X111752581Y-82250669D01*
X111809964Y-82232997D01*
X111909814Y-82171963D01*
X111962618Y-82126208D01*
X112019911Y-82063025D01*
X112070914Y-81957698D01*
X112090599Y-81890659D01*
X112105000Y-81790500D01*
X112105000Y-80974500D01*
X112101210Y-80939251D01*
X112100499Y-80925995D01*
X112100499Y-80752688D01*
X112085276Y-80656571D01*
X112085276Y-80656570D01*
X112085275Y-80656568D01*
X112085275Y-80656567D01*
X112026241Y-80540706D01*
X112026239Y-80540704D01*
X112026236Y-80540700D01*
X111934299Y-80448763D01*
X111934295Y-80448760D01*
X111934294Y-80448759D01*
X111818433Y-80389725D01*
X111818431Y-80389724D01*
X111818428Y-80389723D01*
X111722312Y-80374500D01*
X111477692Y-80374500D01*
X111476365Y-80374711D01*
X111475856Y-80374645D01*
X111472835Y-80374883D01*
X111472785Y-80374247D01*
X111407073Y-80365748D01*
X111402941Y-80363839D01*
X111330142Y-80328588D01*
X111330126Y-80328582D01*
X111272503Y-80311661D01*
X111213725Y-80273886D01*
X111196531Y-80248139D01*
X111130982Y-80117039D01*
X111130974Y-80117025D01*
X111130973Y-80117022D01*
X111105999Y-80074675D01*
X111086623Y-80046477D01*
X111056044Y-80007979D01*
X111056043Y-80007978D01*
X111056032Y-80007964D01*
X111017720Y-79966045D01*
X111017718Y-79966044D01*
X111017717Y-79966042D01*
X110942198Y-79903464D01*
X110884554Y-79867838D01*
X110854636Y-79854650D01*
X110794800Y-79828273D01*
X110740152Y-79812749D01*
X110740153Y-79812749D01*
X110692037Y-79802616D01*
X110658155Y-79797897D01*
X110609132Y-79794500D01*
X110609123Y-79794500D01*
X110454500Y-79794500D01*
X110387461Y-79774815D01*
X110341706Y-79722011D01*
X110330500Y-79670500D01*
X110330499Y-78743087D01*
X110330498Y-78743081D01*
X110324219Y-78684664D01*
X110274930Y-78552514D01*
X110274929Y-78552511D01*
X110190403Y-78439597D01*
X110105398Y-78375963D01*
X110077492Y-78355073D01*
X110077490Y-78355072D01*
X110077489Y-78355071D01*
X110077487Y-78355070D01*
X110077485Y-78355069D01*
X109945338Y-78305782D01*
X109945337Y-78305781D01*
X109945335Y-78305781D01*
X109886915Y-78299500D01*
X109886906Y-78299500D01*
X109757966Y-78299500D01*
X109690927Y-78279815D01*
X109670285Y-78263181D01*
X109461819Y-78054715D01*
X109428334Y-77993392D01*
X109425500Y-77967034D01*
X109425500Y-74597493D01*
X109425500Y-74597491D01*
X109401286Y-74507126D01*
X109394799Y-74482913D01*
X109394799Y-74482912D01*
X109335492Y-74380189D01*
X109335488Y-74380184D01*
X108811819Y-73856515D01*
X108778334Y-73795192D01*
X108775500Y-73768834D01*
X108775500Y-73712966D01*
X108795185Y-73645927D01*
X108811819Y-73625285D01*
X108860489Y-73576615D01*
X108901608Y-73505393D01*
X108952173Y-73457180D01*
X109020779Y-73443956D01*
X109026858Y-73444689D01*
X109066740Y-73450500D01*
X109066741Y-73450500D01*
X109533261Y-73450500D01*
X109567326Y-73445536D01*
X109601393Y-73440573D01*
X109645540Y-73418990D01*
X109714411Y-73407231D01*
X109754459Y-73418990D01*
X109775499Y-73429276D01*
X109798607Y-73440573D01*
X109866739Y-73450500D01*
X109866740Y-73450500D01*
X110333261Y-73450500D01*
X110367326Y-73445536D01*
X110401393Y-73440573D01*
X110445540Y-73418990D01*
X110514411Y-73407231D01*
X110554459Y-73418990D01*
G37*
%TD.AperFunction*%
%TA.AperFunction,Conductor*%
G36*
X106959124Y-76376674D02*
G01*
X106983532Y-76395635D01*
X107112535Y-76524638D01*
X107137290Y-76560030D01*
X107300219Y-76910376D01*
X107320782Y-76954591D01*
X107326886Y-76967073D01*
X107329874Y-76971977D01*
X107329088Y-76972455D01*
X107340550Y-76993369D01*
X107344778Y-77004520D01*
X107344781Y-77004525D01*
X107389648Y-77069526D01*
X107434517Y-77134530D01*
X107552760Y-77239283D01*
X107552762Y-77239284D01*
X107692634Y-77312696D01*
X107846014Y-77350500D01*
X107950500Y-77350500D01*
X108017539Y-77370185D01*
X108063294Y-77422989D01*
X108074500Y-77474500D01*
X108074500Y-77967034D01*
X108054815Y-78034073D01*
X108038181Y-78054715D01*
X107829714Y-78263181D01*
X107768391Y-78296666D01*
X107742034Y-78299500D01*
X107613088Y-78299500D01*
X107613081Y-78299501D01*
X107554664Y-78305780D01*
X107422514Y-78355069D01*
X107422507Y-78355073D01*
X107309597Y-78439597D01*
X107225073Y-78552507D01*
X107225069Y-78552514D01*
X107175782Y-78684661D01*
X107175781Y-78684665D01*
X107169500Y-78743085D01*
X107169500Y-78743092D01*
X107169500Y-78743093D01*
X107169500Y-79906912D01*
X107169501Y-79906918D01*
X107175780Y-79965335D01*
X107225069Y-80097485D01*
X107225070Y-80097487D01*
X107225071Y-80097489D01*
X107309597Y-80210403D01*
X107422511Y-80294929D01*
X107554665Y-80344219D01*
X107613085Y-80350500D01*
X107986914Y-80350499D01*
X108045335Y-80344219D01*
X108177489Y-80294929D01*
X108182758Y-80290984D01*
X108248217Y-80266565D01*
X108316491Y-80281411D01*
X108344753Y-80302567D01*
X108349500Y-80307314D01*
X108942686Y-80900500D01*
X109011665Y-80940325D01*
X109059879Y-80990890D01*
X109073103Y-81059497D01*
X109072964Y-81060859D01*
X109069500Y-81093085D01*
X109069500Y-81093087D01*
X109069500Y-81093091D01*
X109069500Y-82256912D01*
X109069501Y-82256918D01*
X109075780Y-82315335D01*
X109125069Y-82447485D01*
X109125073Y-82447492D01*
X109136814Y-82463176D01*
X109161231Y-82528640D01*
X109146379Y-82596913D01*
X109125228Y-82625167D01*
X108837680Y-82912716D01*
X108776357Y-82946201D01*
X108706666Y-82941217D01*
X108662320Y-82912717D01*
X108520822Y-82771219D01*
X108374771Y-82625168D01*
X108341286Y-82563845D01*
X108346270Y-82494153D01*
X108363187Y-82463174D01*
X108374928Y-82447490D01*
X108374929Y-82447489D01*
X108424219Y-82315335D01*
X108430500Y-82256915D01*
X108430499Y-81093086D01*
X108424219Y-81034665D01*
X108374929Y-80902511D01*
X108290403Y-80789597D01*
X108177489Y-80705071D01*
X108177487Y-80705070D01*
X108177485Y-80705069D01*
X108045338Y-80655782D01*
X108045337Y-80655781D01*
X108045335Y-80655781D01*
X107986915Y-80649500D01*
X107986905Y-80649500D01*
X107613088Y-80649500D01*
X107613081Y-80649501D01*
X107554664Y-80655780D01*
X107422514Y-80705069D01*
X107422507Y-80705073D01*
X107309597Y-80789597D01*
X107225073Y-80902507D01*
X107225069Y-80902514D01*
X107175782Y-81034661D01*
X107175781Y-81034665D01*
X107169500Y-81093085D01*
X107169500Y-81093091D01*
X107169500Y-81093093D01*
X107169500Y-81422679D01*
X107149815Y-81489718D01*
X107097011Y-81535473D01*
X107027853Y-81545417D01*
X106964297Y-81516392D01*
X106957819Y-81510360D01*
X106836818Y-81389359D01*
X106803333Y-81328036D01*
X106800499Y-81301678D01*
X106800499Y-80935596D01*
X106786011Y-80825536D01*
X106786009Y-80825531D01*
X106786009Y-80825528D01*
X106729279Y-80688571D01*
X106639036Y-80570964D01*
X106521429Y-80480721D01*
X106521426Y-80480720D01*
X106514981Y-80475774D01*
X106516331Y-80474013D01*
X106476102Y-80431826D01*
X106462875Y-80363220D01*
X106488839Y-80298354D01*
X106515661Y-80275112D01*
X106514981Y-80274226D01*
X106521426Y-80269279D01*
X106521429Y-80269279D01*
X106639036Y-80179036D01*
X106729279Y-80061429D01*
X106786009Y-79924472D01*
X106800500Y-79814401D01*
X106800499Y-79185600D01*
X106800499Y-79185596D01*
X106786011Y-79075536D01*
X106786009Y-79075531D01*
X106786009Y-79075528D01*
X106729279Y-78938571D01*
X106652264Y-78838203D01*
X106627070Y-78773034D01*
X106634699Y-78718744D01*
X106654392Y-78666819D01*
X106673433Y-78510001D01*
X106666348Y-78451656D01*
X106677808Y-78382734D01*
X106691064Y-78361230D01*
X106729279Y-78311429D01*
X106786009Y-78174472D01*
X106800500Y-78064401D01*
X106800499Y-77435600D01*
X106800499Y-77435596D01*
X106786011Y-77325536D01*
X106786009Y-77325531D01*
X106786009Y-77325528D01*
X106729279Y-77188571D01*
X106639036Y-77070964D01*
X106521429Y-76980721D01*
X106521426Y-76980720D01*
X106514981Y-76975774D01*
X106516331Y-76974013D01*
X106476102Y-76931826D01*
X106462875Y-76863220D01*
X106488839Y-76798354D01*
X106515661Y-76775112D01*
X106514981Y-76774226D01*
X106521426Y-76769279D01*
X106521429Y-76769279D01*
X106639036Y-76679036D01*
X106729279Y-76561429D01*
X106781290Y-76435863D01*
X106825131Y-76381460D01*
X106891425Y-76359395D01*
X106959124Y-76376674D01*
G37*
%TD.AperFunction*%
%TA.AperFunction,Conductor*%
G36*
X115505394Y-62500972D02*
G01*
X115535721Y-62503625D01*
X115662755Y-62514739D01*
X115684035Y-62518491D01*
X115801188Y-62549882D01*
X115831369Y-62557969D01*
X115851681Y-62565362D01*
X115989915Y-62629822D01*
X116008633Y-62640629D01*
X116133582Y-62728119D01*
X116150140Y-62742013D01*
X116257986Y-62849859D01*
X116271880Y-62866417D01*
X116359370Y-62991366D01*
X116370177Y-63010084D01*
X116434637Y-63148318D01*
X116442030Y-63168630D01*
X116481507Y-63315961D01*
X116485260Y-63337246D01*
X116499028Y-63494605D01*
X116499500Y-63505413D01*
X116499500Y-66092791D01*
X116479815Y-66159830D01*
X116427011Y-66205585D01*
X116357853Y-66215529D01*
X116294297Y-66186504D01*
X116273450Y-66163231D01*
X116269586Y-66157634D01*
X116240483Y-66115470D01*
X116122240Y-66010717D01*
X116122238Y-66010716D01*
X116122237Y-66010715D01*
X115982365Y-65937303D01*
X115828986Y-65899500D01*
X115828985Y-65899500D01*
X115671015Y-65899500D01*
X115671014Y-65899500D01*
X115517634Y-65937303D01*
X115377761Y-66010715D01*
X115377759Y-66010717D01*
X115353985Y-66031778D01*
X115290751Y-66061497D01*
X115221488Y-66052312D01*
X115168186Y-66007138D01*
X115149057Y-65956841D01*
X115140573Y-65898607D01*
X115118990Y-65854459D01*
X115107231Y-65785589D01*
X115118991Y-65745539D01*
X115140573Y-65701392D01*
X115150500Y-65633260D01*
X115150500Y-65166739D01*
X115140573Y-65098607D01*
X115118991Y-65054461D01*
X115107231Y-64985589D01*
X115118991Y-64945539D01*
X115140573Y-64901393D01*
X115150500Y-64833260D01*
X115150500Y-64366740D01*
X115140573Y-64298607D01*
X115118990Y-64254459D01*
X115107231Y-64185589D01*
X115118991Y-64145539D01*
X115140573Y-64101392D01*
X115150500Y-64033260D01*
X115150500Y-63566739D01*
X115140573Y-63498608D01*
X115138617Y-63494606D01*
X115089198Y-63393517D01*
X115089196Y-63393515D01*
X115089196Y-63393514D01*
X115006485Y-63310803D01*
X114901391Y-63259426D01*
X114833261Y-63249500D01*
X114833260Y-63249500D01*
X113966740Y-63249500D01*
X113966739Y-63249500D01*
X113898608Y-63259426D01*
X113793514Y-63310803D01*
X113710803Y-63393514D01*
X113659426Y-63498608D01*
X113649500Y-63566739D01*
X113649500Y-64033260D01*
X113659425Y-64101388D01*
X113659428Y-64101395D01*
X113681009Y-64145541D01*
X113692767Y-64214414D01*
X113681009Y-64254459D01*
X113659428Y-64298604D01*
X113659425Y-64298611D01*
X113649500Y-64366739D01*
X113649500Y-64833260D01*
X113659425Y-64901388D01*
X113659428Y-64901395D01*
X113681009Y-64945541D01*
X113692767Y-65014414D01*
X113681009Y-65054459D01*
X113659428Y-65098604D01*
X113659425Y-65098611D01*
X113649500Y-65166739D01*
X113649500Y-65633260D01*
X113659425Y-65701388D01*
X113659428Y-65701395D01*
X113681009Y-65745541D01*
X113692767Y-65814414D01*
X113681009Y-65854459D01*
X113659428Y-65898604D01*
X113659425Y-65898611D01*
X113649500Y-65966739D01*
X113649500Y-66433260D01*
X113659425Y-66501388D01*
X113659428Y-66501395D01*
X113681009Y-66545541D01*
X113692767Y-66614414D01*
X113681009Y-66654459D01*
X113659428Y-66698604D01*
X113659425Y-66698611D01*
X113649500Y-66766739D01*
X113649500Y-67233260D01*
X113659425Y-67301388D01*
X113659428Y-67301395D01*
X113681009Y-67345541D01*
X113692767Y-67414414D01*
X113681009Y-67454459D01*
X113659428Y-67498604D01*
X113659425Y-67498611D01*
X113649500Y-67566739D01*
X113649500Y-68033260D01*
X113659425Y-68101388D01*
X113659428Y-68101395D01*
X113681009Y-68145541D01*
X113692767Y-68214414D01*
X113681009Y-68254459D01*
X113659428Y-68298604D01*
X113659425Y-68298611D01*
X113649500Y-68366739D01*
X113649500Y-68833260D01*
X113659425Y-68901388D01*
X113659428Y-68901395D01*
X113681009Y-68945541D01*
X113692767Y-69014414D01*
X113681009Y-69054459D01*
X113659428Y-69098604D01*
X113659425Y-69098611D01*
X113649500Y-69166739D01*
X113649500Y-69633260D01*
X113659425Y-69701388D01*
X113659428Y-69701395D01*
X113681009Y-69745541D01*
X113692767Y-69814414D01*
X113681009Y-69854459D01*
X113659428Y-69898604D01*
X113659425Y-69898611D01*
X113649500Y-69966739D01*
X113649500Y-70433260D01*
X113659425Y-70501388D01*
X113659428Y-70501395D01*
X113681009Y-70545541D01*
X113692767Y-70614414D01*
X113681009Y-70654459D01*
X113659428Y-70698604D01*
X113659425Y-70698611D01*
X113649500Y-70766739D01*
X113649500Y-71233260D01*
X113659425Y-71301388D01*
X113659428Y-71301395D01*
X113681009Y-71345541D01*
X113692767Y-71414414D01*
X113681009Y-71454459D01*
X113659428Y-71498604D01*
X113659425Y-71498611D01*
X113649500Y-71566739D01*
X113649500Y-71825500D01*
X113629815Y-71892539D01*
X113577011Y-71938294D01*
X113525500Y-71949500D01*
X113066739Y-71949500D01*
X112998611Y-71959425D01*
X112998604Y-71959428D01*
X112954459Y-71981009D01*
X112885586Y-71992767D01*
X112845541Y-71981009D01*
X112801395Y-71959428D01*
X112801388Y-71959425D01*
X112733261Y-71949500D01*
X112733260Y-71949500D01*
X112266740Y-71949500D01*
X112266739Y-71949500D01*
X112198611Y-71959425D01*
X112198604Y-71959428D01*
X112154459Y-71981009D01*
X112085586Y-71992767D01*
X112045541Y-71981009D01*
X112001395Y-71959428D01*
X112001388Y-71959425D01*
X111933261Y-71949500D01*
X111933260Y-71949500D01*
X111466740Y-71949500D01*
X111466739Y-71949500D01*
X111398611Y-71959425D01*
X111398604Y-71959428D01*
X111354459Y-71981009D01*
X111285586Y-71992767D01*
X111245541Y-71981009D01*
X111201395Y-71959428D01*
X111201388Y-71959425D01*
X111133261Y-71949500D01*
X111133260Y-71949500D01*
X110666740Y-71949500D01*
X110666739Y-71949500D01*
X110598611Y-71959425D01*
X110598604Y-71959428D01*
X110554459Y-71981009D01*
X110485586Y-71992767D01*
X110445541Y-71981009D01*
X110401395Y-71959428D01*
X110401388Y-71959425D01*
X110333261Y-71949500D01*
X110333260Y-71949500D01*
X109866740Y-71949500D01*
X109866739Y-71949500D01*
X109798611Y-71959425D01*
X109798604Y-71959428D01*
X109754459Y-71981009D01*
X109685586Y-71992767D01*
X109645541Y-71981009D01*
X109601395Y-71959428D01*
X109601388Y-71959425D01*
X109533261Y-71949500D01*
X109533260Y-71949500D01*
X109066740Y-71949500D01*
X109066739Y-71949500D01*
X108998611Y-71959425D01*
X108998604Y-71959428D01*
X108954459Y-71981009D01*
X108885586Y-71992767D01*
X108845541Y-71981009D01*
X108801395Y-71959428D01*
X108801388Y-71959425D01*
X108733261Y-71949500D01*
X108733260Y-71949500D01*
X108266740Y-71949500D01*
X108266739Y-71949500D01*
X108198611Y-71959425D01*
X108198604Y-71959428D01*
X108154459Y-71981009D01*
X108085586Y-71992767D01*
X108045541Y-71981009D01*
X108001395Y-71959428D01*
X108001388Y-71959425D01*
X107933261Y-71949500D01*
X107933260Y-71949500D01*
X107466740Y-71949500D01*
X107466739Y-71949500D01*
X107398611Y-71959425D01*
X107398604Y-71959428D01*
X107354459Y-71981009D01*
X107285586Y-71992767D01*
X107245541Y-71981009D01*
X107201395Y-71959428D01*
X107201388Y-71959425D01*
X107133261Y-71949500D01*
X107133260Y-71949500D01*
X106666740Y-71949500D01*
X106666739Y-71949500D01*
X106598611Y-71959425D01*
X106598604Y-71959428D01*
X106554459Y-71981009D01*
X106485586Y-71992767D01*
X106445541Y-71981009D01*
X106401395Y-71959428D01*
X106401388Y-71959425D01*
X106333261Y-71949500D01*
X106333260Y-71949500D01*
X105866740Y-71949500D01*
X105866739Y-71949500D01*
X105798608Y-71959426D01*
X105693514Y-72010803D01*
X105610803Y-72093514D01*
X105559426Y-72198608D01*
X105549500Y-72266739D01*
X105549500Y-73133260D01*
X105559426Y-73201391D01*
X105610801Y-73306482D01*
X105610802Y-73306483D01*
X105613178Y-73308859D01*
X105615391Y-73312911D01*
X105616773Y-73314847D01*
X105616539Y-73315013D01*
X105646665Y-73370179D01*
X105649500Y-73396543D01*
X105649500Y-74159309D01*
X105658250Y-74191964D01*
X105668635Y-74230721D01*
X105680201Y-74273888D01*
X105702553Y-74312601D01*
X105739511Y-74376614D01*
X105739513Y-74376616D01*
X106310716Y-74947819D01*
X106344201Y-75009142D01*
X106339217Y-75078834D01*
X106297345Y-75134767D01*
X106231881Y-75159184D01*
X106223035Y-75159500D01*
X105775596Y-75159500D01*
X105677095Y-75172467D01*
X105608060Y-75161700D01*
X105566289Y-75128039D01*
X105566236Y-75128093D01*
X105565739Y-75127596D01*
X105562536Y-75125015D01*
X105560492Y-75122352D01*
X105560489Y-75122346D01*
X104986819Y-74548676D01*
X104953334Y-74487353D01*
X104950500Y-74460995D01*
X104950500Y-73396543D01*
X104970185Y-73329504D01*
X104986818Y-73308862D01*
X104989198Y-73306483D01*
X105040573Y-73201393D01*
X105050500Y-73133260D01*
X105050500Y-72266740D01*
X105040573Y-72198607D01*
X104989198Y-72093517D01*
X104989196Y-72093515D01*
X104989196Y-72093514D01*
X104906485Y-72010803D01*
X104801391Y-71959426D01*
X104733261Y-71949500D01*
X104733260Y-71949500D01*
X104266740Y-71949500D01*
X104266739Y-71949500D01*
X104198611Y-71959425D01*
X104198604Y-71959428D01*
X104154459Y-71981009D01*
X104085586Y-71992767D01*
X104045541Y-71981009D01*
X104001395Y-71959428D01*
X104001388Y-71959425D01*
X103933261Y-71949500D01*
X103933260Y-71949500D01*
X103466740Y-71949500D01*
X103466739Y-71949500D01*
X103398608Y-71959426D01*
X103293514Y-72010803D01*
X103210803Y-72093514D01*
X103159426Y-72198608D01*
X103149500Y-72266739D01*
X103149500Y-73133260D01*
X103159426Y-73201391D01*
X103159427Y-73201393D01*
X103210802Y-73306483D01*
X103211901Y-73308730D01*
X103224500Y-73363190D01*
X103224500Y-74437399D01*
X103224500Y-74562601D01*
X103256905Y-74683536D01*
X103319504Y-74791962D01*
X103319506Y-74791965D01*
X103778660Y-75251119D01*
X103812145Y-75312442D01*
X103807161Y-75382134D01*
X103789355Y-75414286D01*
X103770720Y-75438570D01*
X103713991Y-75575527D01*
X103713990Y-75575529D01*
X103699500Y-75685598D01*
X103699500Y-76314403D01*
X103713988Y-76424463D01*
X103713991Y-76424472D01*
X103770719Y-76561426D01*
X103774783Y-76568464D01*
X103773221Y-76569365D01*
X103794771Y-76625105D01*
X103780734Y-76693550D01*
X103731920Y-76743540D01*
X103663829Y-76759205D01*
X103602310Y-76738526D01*
X103594553Y-76733343D01*
X103564857Y-76717469D01*
X103533092Y-76700489D01*
X103495843Y-76685060D01*
X103488396Y-76681975D01*
X103488393Y-76681974D01*
X103488389Y-76681972D01*
X103434752Y-76665702D01*
X103421700Y-76661743D01*
X103421697Y-76661742D01*
X103421696Y-76661742D01*
X103421691Y-76661741D01*
X103381301Y-76653707D01*
X103346835Y-76648596D01*
X103346824Y-76648594D01*
X103346806Y-76648592D01*
X103346781Y-76648589D01*
X103346760Y-76648587D01*
X103322632Y-76646211D01*
X103307956Y-76645490D01*
X103287789Y-76644500D01*
X102212211Y-76644500D01*
X102191311Y-76645526D01*
X102177371Y-76646211D01*
X102153188Y-76648592D01*
X102118705Y-76653706D01*
X102118679Y-76653710D01*
X102118671Y-76653712D01*
X102078297Y-76661743D01*
X102078294Y-76661743D01*
X102078281Y-76661747D01*
X102011617Y-76681970D01*
X102011597Y-76681977D01*
X102004155Y-76685060D01*
X101956701Y-76694500D01*
X101490302Y-76694500D01*
X101454008Y-76697356D01*
X101454002Y-76697357D01*
X101384095Y-76717668D01*
X101314226Y-76717469D01*
X101255556Y-76679527D01*
X101226712Y-76615889D01*
X101225500Y-76598592D01*
X101225500Y-74998321D01*
X101245185Y-74931282D01*
X101261819Y-74910640D01*
X101380497Y-74791962D01*
X101630495Y-74541964D01*
X101693095Y-74433536D01*
X101725500Y-74312601D01*
X101725500Y-74187399D01*
X101725500Y-71520544D01*
X101745185Y-71453505D01*
X101797989Y-71407750D01*
X101867147Y-71397806D01*
X101930703Y-71426831D01*
X101937181Y-71432863D01*
X101993514Y-71489196D01*
X101993515Y-71489196D01*
X101993517Y-71489198D01*
X102098607Y-71540573D01*
X102132673Y-71545536D01*
X102166739Y-71550500D01*
X102166740Y-71550500D01*
X103033261Y-71550500D01*
X103055971Y-71547191D01*
X103101393Y-71540573D01*
X103206483Y-71489198D01*
X103289198Y-71406483D01*
X103340573Y-71301393D01*
X103350500Y-71233260D01*
X103350500Y-70766740D01*
X103340573Y-70698607D01*
X103318990Y-70654459D01*
X103307231Y-70585589D01*
X103318991Y-70545539D01*
X103340573Y-70501392D01*
X103344898Y-70471712D01*
X103350500Y-70433260D01*
X103350500Y-69966740D01*
X103346672Y-69940470D01*
X103340573Y-69898607D01*
X103318991Y-69854461D01*
X103307231Y-69785589D01*
X103318991Y-69745539D01*
X103340573Y-69701393D01*
X103350500Y-69633260D01*
X103350500Y-69166740D01*
X103340573Y-69098607D01*
X103318990Y-69054459D01*
X103307231Y-68985589D01*
X103318991Y-68945539D01*
X103340573Y-68901393D01*
X103350500Y-68833260D01*
X103350500Y-68366740D01*
X103340573Y-68298607D01*
X103318990Y-68254459D01*
X103307231Y-68185589D01*
X103318991Y-68145539D01*
X103334248Y-68114331D01*
X103340573Y-68101393D01*
X103350500Y-68033260D01*
X103350500Y-67566740D01*
X103343131Y-67516167D01*
X103340573Y-67498607D01*
X103339043Y-67495477D01*
X103318990Y-67454459D01*
X103307231Y-67385589D01*
X103318991Y-67345539D01*
X103340573Y-67301392D01*
X103346500Y-67260717D01*
X103350500Y-67233260D01*
X103350500Y-66766740D01*
X103340573Y-66698607D01*
X103318990Y-66654459D01*
X103307231Y-66585589D01*
X103318991Y-66545539D01*
X103340573Y-66501392D01*
X103350500Y-66433260D01*
X103350500Y-65966739D01*
X103340573Y-65898607D01*
X103318991Y-65854461D01*
X103307231Y-65785589D01*
X103318991Y-65745539D01*
X103340573Y-65701392D01*
X103350500Y-65633260D01*
X103350500Y-65166739D01*
X103345536Y-65132673D01*
X103340573Y-65098607D01*
X103289198Y-64993517D01*
X103289196Y-64993515D01*
X103289196Y-64993514D01*
X103206485Y-64910803D01*
X103101391Y-64859426D01*
X103033261Y-64849500D01*
X103033260Y-64849500D01*
X102166740Y-64849500D01*
X102166739Y-64849500D01*
X102098608Y-64859426D01*
X102042408Y-64886901D01*
X101987948Y-64899500D01*
X101905915Y-64899500D01*
X101838876Y-64879815D01*
X101793121Y-64827011D01*
X101791354Y-64822953D01*
X101784918Y-64807415D01*
X101762066Y-64752245D01*
X101762065Y-64752243D01*
X101669017Y-64630982D01*
X101547756Y-64537934D01*
X101547753Y-64537933D01*
X101406544Y-64479443D01*
X101406542Y-64479442D01*
X101406541Y-64479442D01*
X101293047Y-64464500D01*
X100706950Y-64464500D01*
X100640683Y-64473224D01*
X100571648Y-64462457D01*
X100519393Y-64416076D01*
X100500500Y-64350285D01*
X100500500Y-63505413D01*
X100500972Y-63494606D01*
X100509816Y-63393517D01*
X100514739Y-63337242D01*
X100518490Y-63315966D01*
X100557969Y-63168627D01*
X100565362Y-63148318D01*
X100629823Y-63010081D01*
X100640629Y-62991366D01*
X100728119Y-62866417D01*
X100742007Y-62849865D01*
X100849865Y-62742007D01*
X100866417Y-62728119D01*
X100991366Y-62640629D01*
X101010081Y-62629823D01*
X101148320Y-62565361D01*
X101168627Y-62557969D01*
X101315966Y-62518490D01*
X101337242Y-62514739D01*
X101469885Y-62503134D01*
X101494606Y-62500972D01*
X101505413Y-62500500D01*
X101565892Y-62500500D01*
X115434108Y-62500500D01*
X115494587Y-62500500D01*
X115505394Y-62500972D01*
G37*
%TD.AperFunction*%
%TA.AperFunction,Conductor*%
G36*
X114910816Y-72359091D02*
G01*
X114947199Y-72384302D01*
X115413181Y-72850284D01*
X115446666Y-72911607D01*
X115449500Y-72937965D01*
X115449500Y-74057901D01*
X115429815Y-74124940D01*
X115377011Y-74170695D01*
X115307853Y-74180639D01*
X115295825Y-74178298D01*
X115278346Y-74173990D01*
X115178985Y-74149500D01*
X115021015Y-74149500D01*
X115021014Y-74149500D01*
X114877072Y-74184977D01*
X114873626Y-74185641D01*
X114873638Y-74185692D01*
X114868635Y-74186817D01*
X114552552Y-74285944D01*
X114482694Y-74287222D01*
X114427766Y-74255307D01*
X113721751Y-73549292D01*
X113688266Y-73487969D01*
X113693250Y-73418277D01*
X113721749Y-73373931D01*
X113789198Y-73306483D01*
X113840573Y-73201393D01*
X113850500Y-73133260D01*
X113850500Y-72474500D01*
X113870185Y-72407461D01*
X113922989Y-72361706D01*
X113974500Y-72350500D01*
X114833259Y-72350500D01*
X114833260Y-72350500D01*
X114841639Y-72349279D01*
X114910816Y-72359091D01*
G37*
%TD.AperFunction*%
%TD*%
%TA.AperFunction,Conductor*%
%TO.N,GND*%
G36*
X105527164Y-87864805D02*
G01*
X105300000Y-88340054D01*
X105100000Y-88340054D01*
X104972836Y-87864805D01*
X105250000Y-87749000D01*
X105527164Y-87864805D01*
G37*
%TD.AperFunction*%
%TD*%
%TA.AperFunction,Conductor*%
%TO.N,GND*%
G36*
X105527164Y-87635195D02*
G01*
X105250000Y-87751000D01*
X104972836Y-87635195D01*
X105100000Y-87159946D01*
X105300000Y-87159946D01*
X105527164Y-87635195D01*
G37*
%TD.AperFunction*%
%TD*%
%TA.AperFunction,Conductor*%
%TO.N,GND*%
G36*
X109027164Y-82635195D02*
G01*
X108750000Y-82751000D01*
X108472836Y-82635195D01*
X108650000Y-82150000D01*
X108850000Y-82150000D01*
X109027164Y-82635195D01*
G37*
%TD.AperFunction*%
%TD*%
%TA.AperFunction,Conductor*%
%TO.N,Net-(D1-PadA)*%
G36*
X104021998Y-84389439D02*
G01*
X104185628Y-84456629D01*
X104285008Y-84497436D01*
X104291360Y-84503748D01*
X104291387Y-84503815D01*
X104399383Y-84766824D01*
X104399356Y-84775779D01*
X104393494Y-84781877D01*
X103942691Y-84991523D01*
X103933744Y-84991904D01*
X103929484Y-84989187D01*
X103799636Y-84859339D01*
X103796209Y-84851066D01*
X103797298Y-84846136D01*
X104006948Y-84395327D01*
X104013542Y-84389273D01*
X104021998Y-84389439D01*
G37*
%TD.AperFunction*%
%TD*%
%TA.AperFunction,Conductor*%
%TO.N,Net-(D1-PadA)*%
G36*
X105356822Y-78176172D02*
G01*
X105359539Y-78180432D01*
X105530062Y-78647439D01*
X105529681Y-78656386D01*
X105523583Y-78662248D01*
X105261243Y-78771860D01*
X105252288Y-78771887D01*
X105252221Y-78771860D01*
X104989880Y-78662248D01*
X104983568Y-78655896D01*
X104983401Y-78647442D01*
X105153925Y-78180431D01*
X105159981Y-78173836D01*
X105164915Y-78172745D01*
X105348549Y-78172745D01*
X105356822Y-78176172D01*
G37*
%TD.AperFunction*%
%TD*%
%TA.AperFunction,Conductor*%
%TO.N,Net-(D2-PadA)*%
G36*
X105032394Y-84289119D02*
G01*
X105215394Y-84364262D01*
X105296184Y-84397436D01*
X105302536Y-84403748D01*
X105302563Y-84403815D01*
X105410182Y-84665905D01*
X105410155Y-84674860D01*
X105403803Y-84681172D01*
X105403373Y-84681339D01*
X104928363Y-84854858D01*
X104919417Y-84854478D01*
X104916076Y-84852141D01*
X104786214Y-84722279D01*
X104782787Y-84714006D01*
X104784294Y-84708263D01*
X105017760Y-84294196D01*
X105024809Y-84288673D01*
X105032394Y-84289119D01*
G37*
%TD.AperFunction*%
%TD*%
%TA.AperFunction,Conductor*%
%TO.N,Net-(D2-PadA)*%
G36*
X106149571Y-77914790D02*
G01*
X106152503Y-77919697D01*
X106292286Y-78385098D01*
X106291384Y-78394008D01*
X106285592Y-78399260D01*
X106022666Y-78509116D01*
X106013711Y-78509143D01*
X106013644Y-78509116D01*
X105750972Y-78399366D01*
X105744660Y-78393014D01*
X105744368Y-78384920D01*
X105897355Y-77919409D01*
X105903193Y-77912620D01*
X105908470Y-77911363D01*
X106141298Y-77911363D01*
X106149571Y-77914790D01*
G37*
%TD.AperFunction*%
%TD*%
%TA.AperFunction,Conductor*%
%TO.N,USART_RTS*%
G36*
X115483698Y-68889678D02*
G01*
X115746494Y-68998140D01*
X115752833Y-69004463D01*
X115752852Y-69004510D01*
X115860511Y-69266706D01*
X115860484Y-69275661D01*
X115854501Y-69281814D01*
X115332198Y-69517547D01*
X115323248Y-69517827D01*
X115316721Y-69511696D01*
X115315685Y-69506883D01*
X115315685Y-69277269D01*
X115316534Y-69272894D01*
X115319029Y-69266706D01*
X115468425Y-68896134D01*
X115474696Y-68889744D01*
X115483651Y-68889659D01*
X115483698Y-68889678D01*
G37*
%TD.AperFunction*%
%TD*%
%TA.AperFunction,Conductor*%
%TO.N,USART_RTS*%
G36*
X114936159Y-89499953D02*
G01*
X114944419Y-89503407D01*
X114947818Y-89511692D01*
X114947648Y-89513641D01*
X114851674Y-90070397D01*
X114846892Y-90077967D01*
X114840144Y-90080109D01*
X114656650Y-90080109D01*
X114648377Y-90076682D01*
X114646598Y-90074397D01*
X114379737Y-89626390D01*
X114378447Y-89617528D01*
X114383801Y-89610350D01*
X114385272Y-89609608D01*
X114647822Y-89499909D01*
X114652362Y-89499007D01*
X114936159Y-89499953D01*
G37*
%TD.AperFunction*%
%TD*%
%TA.AperFunction,Conductor*%
%TO.N,+3.3V*%
G36*
X101198362Y-65903427D02*
G01*
X101201630Y-65909777D01*
X101297737Y-66486422D01*
X101295717Y-66495145D01*
X101288119Y-66499886D01*
X101286235Y-66500045D01*
X101000039Y-66500999D01*
X100999961Y-66500999D01*
X100713764Y-66500045D01*
X100705502Y-66496591D01*
X100702103Y-66488306D01*
X100702260Y-66486434D01*
X100798370Y-65909775D01*
X100803111Y-65902179D01*
X100809911Y-65900000D01*
X101190089Y-65900000D01*
X101198362Y-65903427D01*
G37*
%TD.AperFunction*%
%TD*%
%TA.AperFunction,Conductor*%
%TO.N,+3.3V*%
G36*
X101286235Y-66499954D02*
G01*
X101294497Y-66503408D01*
X101297896Y-66511693D01*
X101297737Y-66513577D01*
X101201630Y-67090223D01*
X101196889Y-67097821D01*
X101190089Y-67100000D01*
X100809911Y-67100000D01*
X100801638Y-67096573D01*
X100798370Y-67090223D01*
X100702262Y-66513574D01*
X100704282Y-66504854D01*
X100711880Y-66500113D01*
X100713762Y-66499954D01*
X101000000Y-66499000D01*
X101286235Y-66499954D01*
G37*
%TD.AperFunction*%
%TD*%
%TA.AperFunction,Conductor*%
%TO.N,+3.3V*%
G36*
X101198362Y-66653427D02*
G01*
X101201630Y-66659777D01*
X101297737Y-67236422D01*
X101295717Y-67245145D01*
X101288119Y-67249886D01*
X101286235Y-67250045D01*
X101000039Y-67250999D01*
X100999961Y-67250999D01*
X100713764Y-67250045D01*
X100705502Y-67246591D01*
X100702103Y-67238306D01*
X100702260Y-67236434D01*
X100798370Y-66659775D01*
X100803111Y-66652179D01*
X100809911Y-66650000D01*
X101190089Y-66650000D01*
X101198362Y-66653427D01*
G37*
%TD.AperFunction*%
%TD*%
%TA.AperFunction,Conductor*%
%TO.N,USART_CTS*%
G36*
X115133148Y-88247808D02*
G01*
X115139460Y-88254160D01*
X115139542Y-88254365D01*
X115343803Y-88779772D01*
X115343607Y-88788724D01*
X115337137Y-88794916D01*
X115332898Y-88795711D01*
X115152223Y-88795711D01*
X115147929Y-88794894D01*
X114754307Y-88639583D01*
X114747869Y-88633359D01*
X114747718Y-88624406D01*
X114747748Y-88624329D01*
X114856199Y-88361561D01*
X114862518Y-88355226D01*
X115124194Y-88247781D01*
X115133148Y-88247808D01*
G37*
%TD.AperFunction*%
%TD*%
%TA.AperFunction,Conductor*%
%TO.N,USART_CTS*%
G36*
X115621612Y-70078427D02*
G01*
X115625039Y-70086661D01*
X115625983Y-70370114D01*
X115622584Y-70378399D01*
X115622537Y-70378446D01*
X115420304Y-70579730D01*
X115412022Y-70583137D01*
X115404702Y-70580542D01*
X115092409Y-70328512D01*
X115088123Y-70320649D01*
X115088057Y-70319407D01*
X115088057Y-70086700D01*
X115091484Y-70078427D01*
X115099757Y-70075000D01*
X115613339Y-70075000D01*
X115621612Y-70078427D01*
G37*
%TD.AperFunction*%
%TD*%
%TA.AperFunction,Conductor*%
%TO.N,/BOOT*%
G36*
X114983931Y-74526823D02*
G01*
X114989309Y-74532682D01*
X115099115Y-74795489D01*
X115099142Y-74804444D01*
X115099115Y-74804511D01*
X114989309Y-75067317D01*
X114982957Y-75073629D01*
X114975012Y-75073970D01*
X114508199Y-74927571D01*
X114501330Y-74921825D01*
X114500000Y-74916407D01*
X114500000Y-74683592D01*
X114503427Y-74675319D01*
X114508196Y-74672429D01*
X114975013Y-74526029D01*
X114983931Y-74526823D01*
G37*
%TD.AperFunction*%
%TD*%
%TA.AperFunction,Conductor*%
%TO.N,/BOOT*%
G36*
X114166851Y-88710496D02*
G01*
X114173163Y-88716848D01*
X114173330Y-88725305D01*
X114002807Y-89192313D01*
X113996751Y-89198909D01*
X113991817Y-89200000D01*
X113808183Y-89200000D01*
X113799910Y-89196573D01*
X113797193Y-89192313D01*
X113626669Y-88725302D01*
X113627050Y-88716358D01*
X113633147Y-88710496D01*
X113895490Y-88600883D01*
X113904444Y-88600857D01*
X114166851Y-88710496D01*
G37*
%TD.AperFunction*%
%TD*%
%TA.AperFunction,Conductor*%
%TO.N,+5V*%
G36*
X109042467Y-92013879D02*
G01*
X109048977Y-92020026D01*
X109050000Y-92024812D01*
X109050000Y-92208687D01*
X109046573Y-92216960D01*
X109042466Y-92219620D01*
X108534966Y-92412974D01*
X108526014Y-92412718D01*
X108520004Y-92406550D01*
X108400881Y-92121257D01*
X108400857Y-92112303D01*
X108400882Y-92112242D01*
X108441953Y-92013879D01*
X108520004Y-91826948D01*
X108526353Y-91820636D01*
X108534965Y-91820525D01*
X109042467Y-92013879D01*
G37*
%TD.AperFunction*%
%TD*%
%TA.AperFunction,Conductor*%
%TO.N,+5V*%
G36*
X109042467Y-87763879D02*
G01*
X109048977Y-87770026D01*
X109050000Y-87774812D01*
X109050000Y-87958687D01*
X109046573Y-87966960D01*
X109042466Y-87969620D01*
X108534966Y-88162974D01*
X108526014Y-88162718D01*
X108520004Y-88156550D01*
X108400881Y-87871257D01*
X108400857Y-87862303D01*
X108400882Y-87862242D01*
X108441953Y-87763879D01*
X108520004Y-87576948D01*
X108526353Y-87570636D01*
X108534965Y-87570525D01*
X109042467Y-87763879D01*
G37*
%TD.AperFunction*%
%TD*%
%TA.AperFunction,Conductor*%
%TO.N,Net-(J1-CC2)*%
G36*
X107171736Y-83091325D02*
G01*
X107605346Y-83317893D01*
X107611092Y-83324762D01*
X107610751Y-83332707D01*
X107502563Y-83596184D01*
X107496251Y-83602536D01*
X107496184Y-83602563D01*
X107232707Y-83710751D01*
X107223752Y-83710724D01*
X107217893Y-83705346D01*
X106991325Y-83271737D01*
X106990532Y-83262821D01*
X106993421Y-83258051D01*
X107158050Y-83093422D01*
X107166322Y-83089996D01*
X107171736Y-83091325D01*
G37*
%TD.AperFunction*%
%TD*%
%TA.AperFunction,Conductor*%
%TO.N,Net-(J1-CC1)*%
G36*
X108273985Y-90970781D02*
G01*
X108279996Y-90976950D01*
X108399117Y-91262242D01*
X108399142Y-91271197D01*
X108399117Y-91271258D01*
X108279996Y-91556549D01*
X108273646Y-91562863D01*
X108265033Y-91562974D01*
X107757534Y-91369620D01*
X107751023Y-91363473D01*
X107750000Y-91358687D01*
X107750000Y-91174812D01*
X107753427Y-91166539D01*
X107757531Y-91163880D01*
X108265034Y-90970525D01*
X108273985Y-90970781D01*
G37*
%TD.AperFunction*%
%TD*%
%TA.AperFunction,Conductor*%
%TO.N,/USBC_P*%
G36*
X108274780Y-90120213D02*
G01*
X108279450Y-90125686D01*
X108397692Y-90410204D01*
X108397703Y-90419159D01*
X108395136Y-90422993D01*
X108177011Y-90639779D01*
X108168727Y-90643180D01*
X108162217Y-90641178D01*
X108058934Y-90571462D01*
X107746809Y-90360777D01*
X107741870Y-90353310D01*
X107743658Y-90344535D01*
X107745078Y-90342813D01*
X107874130Y-90213761D01*
X107879691Y-90210654D01*
X108265939Y-90118793D01*
X108274780Y-90120213D01*
G37*
%TD.AperFunction*%
%TD*%
%TA.AperFunction,Conductor*%
%TO.N,/USBC_N*%
G36*
X107119630Y-88767335D02*
G01*
X107123057Y-88775608D01*
X107122920Y-88777392D01*
X107051524Y-89240117D01*
X107046876Y-89247771D01*
X107040000Y-89250033D01*
X106754885Y-89250983D01*
X106746600Y-89247584D01*
X106746553Y-89247537D01*
X106547631Y-89047677D01*
X106544224Y-89039395D01*
X106547670Y-89031130D01*
X106549153Y-89029881D01*
X106921964Y-88766056D01*
X106928721Y-88763908D01*
X107111357Y-88763908D01*
X107119630Y-88767335D01*
G37*
%TD.AperFunction*%
%TD*%
%TA.AperFunction,Conductor*%
%TO.N,/USBC_N*%
G36*
X109270979Y-89992315D02*
G01*
X109509272Y-90041414D01*
X109511360Y-90042055D01*
X109587817Y-90073724D01*
X109725000Y-90091785D01*
X109740584Y-90089733D01*
X109744465Y-90089873D01*
X109835545Y-90108640D01*
X109842957Y-90113666D01*
X109844643Y-90122460D01*
X109844006Y-90124546D01*
X109726605Y-90410270D01*
X109724031Y-90414122D01*
X109504851Y-90631957D01*
X109496567Y-90635358D01*
X109488304Y-90631906D01*
X109487155Y-90630558D01*
X109129294Y-90140554D01*
X109127182Y-90131852D01*
X109130467Y-90125383D01*
X109260349Y-89995501D01*
X109268621Y-89992075D01*
X109270979Y-89992315D01*
G37*
%TD.AperFunction*%
%TD*%
%TA.AperFunction,Conductor*%
%TO.N,/USBC_N*%
G36*
X108637884Y-89345411D02*
G01*
X108638053Y-89345585D01*
X109013338Y-89739190D01*
X109016567Y-89747543D01*
X109013143Y-89755537D01*
X108883199Y-89885481D01*
X108874996Y-89888908D01*
X108437382Y-89891526D01*
X108435785Y-89891426D01*
X108410139Y-89888049D01*
X108402384Y-89883571D01*
X108399966Y-89876476D01*
X108399303Y-89570923D01*
X108402712Y-89562645D01*
X108402712Y-89562644D01*
X108621338Y-89345359D01*
X108629621Y-89341959D01*
X108637884Y-89345411D01*
G37*
%TD.AperFunction*%
%TD*%
%TA.AperFunction,Conductor*%
%TO.N,Net-(TEST1-PAD)*%
G36*
X115482707Y-66439248D02*
G01*
X115746184Y-66547436D01*
X115752536Y-66553748D01*
X115752563Y-66553815D01*
X115860751Y-66817292D01*
X115860724Y-66826247D01*
X115855346Y-66832106D01*
X115421740Y-67058673D01*
X115412821Y-67059467D01*
X115408049Y-67056576D01*
X115243423Y-66891950D01*
X115239996Y-66883677D01*
X115241324Y-66878264D01*
X115467894Y-66444651D01*
X115474762Y-66438907D01*
X115482707Y-66439248D01*
G37*
%TD.AperFunction*%
%TD*%
%TA.AperFunction,Conductor*%
%TO.N,Net-(TEST2-PAD)*%
G36*
X115583931Y-67526823D02*
G01*
X115589309Y-67532682D01*
X115699115Y-67795489D01*
X115699142Y-67804444D01*
X115699115Y-67804511D01*
X115589309Y-68067317D01*
X115582957Y-68073629D01*
X115575012Y-68073970D01*
X115108199Y-67927571D01*
X115101330Y-67921825D01*
X115100000Y-67916407D01*
X115100000Y-67683592D01*
X115103427Y-67675319D01*
X115108196Y-67672429D01*
X115575013Y-67526029D01*
X115583931Y-67526823D01*
G37*
%TD.AperFunction*%
%TD*%
%TA.AperFunction,Conductor*%
%TO.N,SCL*%
G36*
X107578864Y-76208475D02*
G01*
X108029671Y-76418123D01*
X108035726Y-76424718D01*
X108035559Y-76433175D01*
X107927563Y-76696184D01*
X107921251Y-76702536D01*
X107921184Y-76702563D01*
X107658175Y-76810559D01*
X107649220Y-76810532D01*
X107643123Y-76804671D01*
X107433475Y-76353865D01*
X107433095Y-76344920D01*
X107435810Y-76340662D01*
X107565661Y-76210811D01*
X107573933Y-76207385D01*
X107578864Y-76208475D01*
G37*
%TD.AperFunction*%
%TD*%
%TA.AperFunction,Conductor*%
%TO.N,SDA*%
G36*
X107702860Y-75326068D02*
G01*
X108006474Y-75517581D01*
X108011643Y-75524893D01*
X108011047Y-75531941D01*
X107901860Y-75796493D01*
X107895536Y-75802833D01*
X107895489Y-75802852D01*
X107635866Y-75909454D01*
X107626911Y-75909427D01*
X107620599Y-75903075D01*
X107619967Y-75901014D01*
X107502929Y-75338347D01*
X107504599Y-75329549D01*
X107512001Y-75324509D01*
X107514384Y-75324264D01*
X107696618Y-75324264D01*
X107702860Y-75326068D01*
G37*
%TD.AperFunction*%
%TD*%
M02*
