%TF.GenerationSoftware,KiCad,Pcbnew,8.0.3*%
%TF.CreationDate,2024-06-18T18:25:08+09:30*%
%TF.ProjectId,esp32c6-internal-module,65737033-3263-4362-9d69-6e7465726e61,1.0*%
%TF.SameCoordinates,Original*%
%TF.FileFunction,Drillmap*%
%TF.FilePolarity,Positive*%
%FSLAX45Y45*%
G04 Gerber Fmt 4.5, Leading zero omitted, Abs format (unit mm)*
G04 Created by KiCad (PCBNEW 8.0.3) date 2024-06-18 18:25:08*
%MOMM*%
%LPD*%
G01*
G04 APERTURE LIST*
%ADD10C,0.100000*%
%ADD11C,0.200000*%
%ADD12C,0.101600*%
G04 APERTURE END LIST*
D10*
X10150000Y-10000000D02*
X11550000Y-10000000D01*
X10150000Y-6200000D02*
X11550000Y-6200000D01*
X10150000Y-10000000D02*
G75*
G02*
X10000000Y-9850000I0J150000D01*
G01*
X11700000Y-9850000D02*
X11700000Y-6350000D01*
X11550000Y-6200000D02*
G75*
G02*
X11700000Y-6350000I0J-150000D01*
G01*
X10000000Y-9850000D02*
X10000000Y-6350000D01*
X10000000Y-6350000D02*
G75*
G02*
X10150000Y-6200000I150000J0D01*
G01*
X11700000Y-9850000D02*
G75*
G02*
X11550000Y-10000000I-150000J0D01*
G01*
D11*
D10*
X11157500Y-7987500D02*
X11182500Y-8012500D01*
X11182500Y-7987500D02*
X11157500Y-8012500D01*
X11267500Y-7987500D02*
X11292500Y-8012500D01*
X11292500Y-7987500D02*
X11267500Y-8012500D01*
X10275000Y-7430000D02*
G75*
G02*
X10245000Y-7430000I-15000J0D01*
G01*
X10245000Y-7430000D02*
G75*
G02*
X10275000Y-7430000I15000J0D01*
G01*
X10335000Y-7760000D02*
G75*
G02*
X10305000Y-7760000I-15000J0D01*
G01*
X10305000Y-7760000D02*
G75*
G02*
X10335000Y-7760000I15000J0D01*
G01*
X10335000Y-7840000D02*
G75*
G02*
X10305000Y-7840000I-15000J0D01*
G01*
X10305000Y-7840000D02*
G75*
G02*
X10335000Y-7840000I15000J0D01*
G01*
X10355000Y-7550000D02*
G75*
G02*
X10325000Y-7550000I-15000J0D01*
G01*
X10325000Y-7550000D02*
G75*
G02*
X10355000Y-7550000I15000J0D01*
G01*
X10375000Y-8140000D02*
G75*
G02*
X10345000Y-8140000I-15000J0D01*
G01*
X10345000Y-8140000D02*
G75*
G02*
X10375000Y-8140000I15000J0D01*
G01*
X10375000Y-8290000D02*
G75*
G02*
X10345000Y-8290000I-15000J0D01*
G01*
X10345000Y-8290000D02*
G75*
G02*
X10375000Y-8290000I15000J0D01*
G01*
X10455000Y-6600000D02*
G75*
G02*
X10425000Y-6600000I-15000J0D01*
G01*
X10425000Y-6600000D02*
G75*
G02*
X10455000Y-6600000I15000J0D01*
G01*
X10455000Y-6690000D02*
G75*
G02*
X10425000Y-6690000I-15000J0D01*
G01*
X10425000Y-6690000D02*
G75*
G02*
X10455000Y-6690000I15000J0D01*
G01*
X10455000Y-6780000D02*
G75*
G02*
X10425000Y-6780000I-15000J0D01*
G01*
X10425000Y-6780000D02*
G75*
G02*
X10455000Y-6780000I15000J0D01*
G01*
X10455000Y-6870000D02*
G75*
G02*
X10425000Y-6870000I-15000J0D01*
G01*
X10425000Y-6870000D02*
G75*
G02*
X10455000Y-6870000I15000J0D01*
G01*
X10465000Y-9500000D02*
G75*
G02*
X10435000Y-9500000I-15000J0D01*
G01*
X10435000Y-9500000D02*
G75*
G02*
X10465000Y-9500000I15000J0D01*
G01*
X10540673Y-7877274D02*
G75*
G02*
X10510673Y-7877274I-15000J0D01*
G01*
X10510673Y-7877274D02*
G75*
G02*
X10540673Y-7877274I15000J0D01*
G01*
X10545000Y-7420000D02*
G75*
G02*
X10515000Y-7420000I-15000J0D01*
G01*
X10515000Y-7420000D02*
G75*
G02*
X10545000Y-7420000I15000J0D01*
G01*
X10545000Y-8440000D02*
G75*
G02*
X10515000Y-8440000I-15000J0D01*
G01*
X10515000Y-8440000D02*
G75*
G02*
X10545000Y-8440000I15000J0D01*
G01*
X10565000Y-9500000D02*
G75*
G02*
X10535000Y-9500000I-15000J0D01*
G01*
X10535000Y-9500000D02*
G75*
G02*
X10565000Y-9500000I15000J0D01*
G01*
X10616816Y-7851000D02*
G75*
G02*
X10586816Y-7851000I-15000J0D01*
G01*
X10586816Y-7851000D02*
G75*
G02*
X10616816Y-7851000I15000J0D01*
G01*
X10690000Y-8925000D02*
G75*
G02*
X10660000Y-8925000I-15000J0D01*
G01*
X10660000Y-8925000D02*
G75*
G02*
X10690000Y-8925000I15000J0D01*
G01*
X10705000Y-7120000D02*
G75*
G02*
X10675000Y-7120000I-15000J0D01*
G01*
X10675000Y-7120000D02*
G75*
G02*
X10705000Y-7120000I15000J0D01*
G01*
X10715000Y-8040000D02*
G75*
G02*
X10685000Y-8040000I-15000J0D01*
G01*
X10685000Y-8040000D02*
G75*
G02*
X10715000Y-8040000I15000J0D01*
G01*
X10715000Y-9300000D02*
G75*
G02*
X10685000Y-9300000I-15000J0D01*
G01*
X10685000Y-9300000D02*
G75*
G02*
X10715000Y-9300000I15000J0D01*
G01*
X10715000Y-9410000D02*
G75*
G02*
X10685000Y-9410000I-15000J0D01*
G01*
X10685000Y-9410000D02*
G75*
G02*
X10715000Y-9410000I15000J0D01*
G01*
X10765000Y-8360000D02*
G75*
G02*
X10735000Y-8360000I-15000J0D01*
G01*
X10735000Y-8360000D02*
G75*
G02*
X10765000Y-8360000I15000J0D01*
G01*
X10785000Y-7120000D02*
G75*
G02*
X10755000Y-7120000I-15000J0D01*
G01*
X10755000Y-7120000D02*
G75*
G02*
X10785000Y-7120000I15000J0D01*
G01*
X10805000Y-7580000D02*
G75*
G02*
X10775000Y-7580000I-15000J0D01*
G01*
X10775000Y-7580000D02*
G75*
G02*
X10805000Y-7580000I15000J0D01*
G01*
X10807500Y-7670000D02*
G75*
G02*
X10777500Y-7670000I-15000J0D01*
G01*
X10777500Y-7670000D02*
G75*
G02*
X10807500Y-7670000I15000J0D01*
G01*
X10865000Y-7120000D02*
G75*
G02*
X10835000Y-7120000I-15000J0D01*
G01*
X10835000Y-7120000D02*
G75*
G02*
X10865000Y-7120000I15000J0D01*
G01*
X10945000Y-7120000D02*
G75*
G02*
X10915000Y-7120000I-15000J0D01*
G01*
X10915000Y-7120000D02*
G75*
G02*
X10945000Y-7120000I15000J0D01*
G01*
X11025000Y-7120000D02*
G75*
G02*
X10995000Y-7120000I-15000J0D01*
G01*
X10995000Y-7120000D02*
G75*
G02*
X11025000Y-7120000I15000J0D01*
G01*
X11105000Y-7390000D02*
G75*
G02*
X11075000Y-7390000I-15000J0D01*
G01*
X11075000Y-7390000D02*
G75*
G02*
X11105000Y-7390000I15000J0D01*
G01*
X11105000Y-7920000D02*
G75*
G02*
X11075000Y-7920000I-15000J0D01*
G01*
X11075000Y-7920000D02*
G75*
G02*
X11105000Y-7920000I15000J0D01*
G01*
X11255000Y-7590000D02*
G75*
G02*
X11225000Y-7590000I-15000J0D01*
G01*
X11225000Y-7590000D02*
G75*
G02*
X11255000Y-7590000I15000J0D01*
G01*
X11265000Y-6590000D02*
G75*
G02*
X11235000Y-6590000I-15000J0D01*
G01*
X11235000Y-6590000D02*
G75*
G02*
X11265000Y-6590000I15000J0D01*
G01*
X11265000Y-6680000D02*
G75*
G02*
X11235000Y-6680000I-15000J0D01*
G01*
X11235000Y-6680000D02*
G75*
G02*
X11265000Y-6680000I15000J0D01*
G01*
X11265000Y-6770000D02*
G75*
G02*
X11235000Y-6770000I-15000J0D01*
G01*
X11235000Y-6770000D02*
G75*
G02*
X11265000Y-6770000I15000J0D01*
G01*
X11265000Y-6860000D02*
G75*
G02*
X11235000Y-6860000I-15000J0D01*
G01*
X11235000Y-6860000D02*
G75*
G02*
X11265000Y-6860000I15000J0D01*
G01*
X11335000Y-7590000D02*
G75*
G02*
X11305000Y-7590000I-15000J0D01*
G01*
X11305000Y-7590000D02*
G75*
G02*
X11335000Y-7590000I15000J0D01*
G01*
X11395000Y-8000000D02*
G75*
G02*
X11365000Y-8000000I-15000J0D01*
G01*
X11365000Y-8000000D02*
G75*
G02*
X11395000Y-8000000I15000J0D01*
G01*
X11405000Y-8860000D02*
G75*
G02*
X11375000Y-8860000I-15000J0D01*
G01*
X11375000Y-8860000D02*
G75*
G02*
X11405000Y-8860000I15000J0D01*
G01*
X11465000Y-7390000D02*
G75*
G02*
X11435000Y-7390000I-15000J0D01*
G01*
X11435000Y-7390000D02*
G75*
G02*
X11465000Y-7390000I15000J0D01*
G01*
X11480000Y-8950000D02*
G75*
G02*
X11450000Y-8950000I-15000J0D01*
G01*
X11450000Y-8950000D02*
G75*
G02*
X11480000Y-8950000I15000J0D01*
G01*
X11500806Y-8835806D02*
G75*
G02*
X11470806Y-8835806I-15000J0D01*
G01*
X11470806Y-8835806D02*
G75*
G02*
X11500806Y-8835806I15000J0D01*
G01*
X11525000Y-7480000D02*
G75*
G02*
X11495000Y-7480000I-15000J0D01*
G01*
X11495000Y-7480000D02*
G75*
G02*
X11525000Y-7480000I15000J0D01*
G01*
X11577500Y-7037500D02*
G75*
G02*
X11547500Y-7037500I-15000J0D01*
G01*
X11547500Y-7037500D02*
G75*
G02*
X11577500Y-7037500I15000J0D01*
G01*
X11585000Y-6780000D02*
G75*
G02*
X11555000Y-6780000I-15000J0D01*
G01*
X11555000Y-6780000D02*
G75*
G02*
X11585000Y-6780000I15000J0D01*
G01*
X11590000Y-6655000D02*
G75*
G02*
X11560000Y-6655000I-15000J0D01*
G01*
X11560000Y-6655000D02*
G75*
G02*
X11590000Y-6655000I15000J0D01*
G01*
X11590000Y-6900000D02*
G75*
G02*
X11560000Y-6900000I-15000J0D01*
G01*
X11560000Y-6900000D02*
G75*
G02*
X11590000Y-6900000I15000J0D01*
G01*
X11595000Y-6510000D02*
G75*
G02*
X11565000Y-6510000I-15000J0D01*
G01*
X11565000Y-6510000D02*
G75*
G02*
X11595000Y-6510000I15000J0D01*
G01*
X10100000Y-6632500D02*
X10100000Y-6667500D01*
X10082500Y-6650000D02*
X10117500Y-6650000D01*
X10100000Y-6707500D02*
X10100000Y-6742500D01*
X10082500Y-6725000D02*
X10117500Y-6725000D01*
X10428882Y-8432500D02*
X10428882Y-8467500D01*
X10411382Y-8450000D02*
X10446382Y-8450000D01*
X10450000Y-6407500D02*
X10450000Y-6442500D01*
X10432500Y-6425000D02*
X10467500Y-6425000D01*
X10525000Y-8757500D02*
X10525000Y-8792500D01*
X10507500Y-8775000D02*
X10542500Y-8775000D01*
X10550000Y-6407500D02*
X10550000Y-6442500D01*
X10532500Y-6425000D02*
X10567500Y-6425000D01*
X10650000Y-6407500D02*
X10650000Y-6442500D01*
X10632500Y-6425000D02*
X10667500Y-6425000D01*
X10750000Y-6407500D02*
X10750000Y-6442500D01*
X10732500Y-6425000D02*
X10767500Y-6425000D01*
X10850000Y-6407500D02*
X10850000Y-6442500D01*
X10832500Y-6425000D02*
X10867500Y-6425000D01*
X10875000Y-8257500D02*
X10875000Y-8292500D01*
X10857500Y-8275000D02*
X10892500Y-8275000D01*
X10950000Y-6407500D02*
X10950000Y-6442500D01*
X10932500Y-6425000D02*
X10967500Y-6425000D01*
X11050000Y-6407500D02*
X11050000Y-6442500D01*
X11032500Y-6425000D02*
X11067500Y-6425000D01*
X11150000Y-6407500D02*
X11150000Y-6442500D01*
X11132500Y-6425000D02*
X11167500Y-6425000D01*
X11250000Y-6407500D02*
X11250000Y-6442500D01*
X11232500Y-6425000D02*
X11267500Y-6425000D01*
X10854142Y-8715817D02*
X10854142Y-8687533D01*
X10825858Y-8687533D01*
X10825858Y-8715817D01*
X10854142Y-8715817D01*
X10854142Y-8800817D02*
X10854142Y-8772533D01*
X10825858Y-8772533D01*
X10825858Y-8800817D01*
X10854142Y-8800817D01*
X10854142Y-8885817D02*
X10854142Y-8857533D01*
X10825858Y-8857533D01*
X10825858Y-8885817D01*
X10854142Y-8885817D01*
X10854142Y-8970817D02*
X10854142Y-8942533D01*
X10825858Y-8942533D01*
X10825858Y-8970817D01*
X10854142Y-8970817D01*
X10854142Y-9055817D02*
X10854142Y-9027533D01*
X10825858Y-9027533D01*
X10825858Y-9055817D01*
X10854142Y-9055817D01*
X10854142Y-9140817D02*
X10854142Y-9112533D01*
X10825858Y-9112533D01*
X10825858Y-9140817D01*
X10854142Y-9140817D01*
X10854142Y-9225817D02*
X10854142Y-9197533D01*
X10825858Y-9197533D01*
X10825858Y-9225817D01*
X10854142Y-9225817D01*
X10854142Y-9310817D02*
X10854142Y-9282533D01*
X10825858Y-9282533D01*
X10825858Y-9310817D01*
X10854142Y-9310817D01*
X10986642Y-8715317D02*
X10986642Y-8687033D01*
X10958358Y-8687033D01*
X10958358Y-8715317D01*
X10986642Y-8715317D01*
X10986642Y-8800317D02*
X10986642Y-8772033D01*
X10958358Y-8772033D01*
X10958358Y-8800317D01*
X10986642Y-8800317D01*
X10986642Y-8885317D02*
X10986642Y-8857033D01*
X10958358Y-8857033D01*
X10958358Y-8885317D01*
X10986642Y-8885317D01*
X10986642Y-8970317D02*
X10986642Y-8942033D01*
X10958358Y-8942033D01*
X10958358Y-8970317D01*
X10986642Y-8970317D01*
X10986642Y-9055317D02*
X10986642Y-9027033D01*
X10958358Y-9027033D01*
X10958358Y-9055317D01*
X10986642Y-9055317D01*
X10986642Y-9140317D02*
X10986642Y-9112033D01*
X10958358Y-9112033D01*
X10958358Y-9140317D01*
X10986642Y-9140317D01*
X10986642Y-9225317D02*
X10986642Y-9197033D01*
X10958358Y-9197033D01*
X10958358Y-9225317D01*
X10986642Y-9225317D01*
X10986642Y-9310817D02*
X10986642Y-9282533D01*
X10958358Y-9282533D01*
X10958358Y-9310817D01*
X10986642Y-9310817D01*
X10938000Y-8596675D02*
X10968000Y-8566675D01*
X10938000Y-8536675D01*
X10908000Y-8566675D01*
X10938000Y-8596675D01*
X10863000Y-8596675D02*
X11013000Y-8596675D01*
X11013000Y-8536675D02*
G75*
G02*
X11013000Y-8596675I0J-30000D01*
G01*
X11013000Y-8536675D02*
X10863000Y-8536675D01*
X10863000Y-8536675D02*
G75*
G03*
X10863000Y-8596675I0J-30000D01*
G01*
X10938000Y-9461675D02*
X10968000Y-9431675D01*
X10938000Y-9401675D01*
X10908000Y-9431675D01*
X10938000Y-9461675D01*
X10863000Y-9461675D02*
X11013000Y-9461675D01*
X11013000Y-9401675D02*
G75*
G02*
X11013000Y-9461675I0J-30000D01*
G01*
X11013000Y-9401675D02*
X10863000Y-9401675D01*
X10863000Y-9401675D02*
G75*
G03*
X10863000Y-9461675I0J-30000D01*
G01*
X11276000Y-8596675D02*
X11306000Y-8566675D01*
X11276000Y-8536675D01*
X11246000Y-8566675D01*
X11276000Y-8596675D01*
X11236000Y-8596675D02*
X11316000Y-8596675D01*
X11316000Y-8536675D02*
G75*
G02*
X11316000Y-8596675I0J-30000D01*
G01*
X11316000Y-8536675D02*
X11236000Y-8536675D01*
X11236000Y-8536675D02*
G75*
G03*
X11236000Y-8596675I0J-30000D01*
G01*
X11276000Y-9461675D02*
X11306000Y-9431675D01*
X11276000Y-9401675D01*
X11246000Y-9431675D01*
X11276000Y-9461675D01*
X11236000Y-9461675D02*
X11316000Y-9461675D01*
X11316000Y-9401675D02*
G75*
G02*
X11316000Y-9461675I0J-30000D01*
G01*
X11316000Y-9401675D02*
X11236000Y-9401675D01*
X11236000Y-9401675D02*
G75*
G03*
X11236000Y-9461675I0J-30000D01*
G01*
D12*
X10164200Y-9749200D02*
X10265800Y-9850800D01*
X10265800Y-9749200D02*
X10164200Y-9850800D01*
X10265800Y-9800000D02*
G75*
G02*
X10164200Y-9800000I-50800J0D01*
G01*
X10164200Y-9800000D02*
G75*
G02*
X10265800Y-9800000I50800J0D01*
G01*
X10418200Y-9749200D02*
X10519800Y-9850800D01*
X10519800Y-9749200D02*
X10418200Y-9850800D01*
X10519800Y-9800000D02*
G75*
G02*
X10418200Y-9800000I-50800J0D01*
G01*
X10418200Y-9800000D02*
G75*
G02*
X10519800Y-9800000I50800J0D01*
G01*
X10672200Y-9749200D02*
X10773800Y-9850800D01*
X10773800Y-9749200D02*
X10672200Y-9850800D01*
X10773800Y-9800000D02*
G75*
G02*
X10672200Y-9800000I-50800J0D01*
G01*
X10672200Y-9800000D02*
G75*
G02*
X10773800Y-9800000I50800J0D01*
G01*
X10926200Y-9749200D02*
X11027800Y-9850800D01*
X11027800Y-9749200D02*
X10926200Y-9850800D01*
X11027800Y-9800000D02*
G75*
G02*
X10926200Y-9800000I-50800J0D01*
G01*
X10926200Y-9800000D02*
G75*
G02*
X11027800Y-9800000I50800J0D01*
G01*
X11180200Y-9749200D02*
X11281800Y-9850800D01*
X11281800Y-9749200D02*
X11180200Y-9850800D01*
X11281800Y-9800000D02*
G75*
G02*
X11180200Y-9800000I-50800J0D01*
G01*
X11180200Y-9800000D02*
G75*
G02*
X11281800Y-9800000I50800J0D01*
G01*
X11434200Y-9749200D02*
X11535800Y-9850800D01*
X11535800Y-9749200D02*
X11434200Y-9850800D01*
X11535800Y-9800000D02*
G75*
G02*
X11434200Y-9800000I-50800J0D01*
G01*
X11434200Y-9800000D02*
G75*
G02*
X11535800Y-9800000I50800J0D01*
G01*
D11*
X10255777Y-10316484D02*
X10255777Y-10116484D01*
X10255777Y-10116484D02*
X10303396Y-10116484D01*
X10303396Y-10116484D02*
X10331967Y-10126008D01*
X10331967Y-10126008D02*
X10351015Y-10145055D01*
X10351015Y-10145055D02*
X10360539Y-10164103D01*
X10360539Y-10164103D02*
X10370063Y-10202198D01*
X10370063Y-10202198D02*
X10370063Y-10230770D01*
X10370063Y-10230770D02*
X10360539Y-10268865D01*
X10360539Y-10268865D02*
X10351015Y-10287912D01*
X10351015Y-10287912D02*
X10331967Y-10306960D01*
X10331967Y-10306960D02*
X10303396Y-10316484D01*
X10303396Y-10316484D02*
X10255777Y-10316484D01*
X10455777Y-10316484D02*
X10455777Y-10183150D01*
X10455777Y-10221246D02*
X10465301Y-10202198D01*
X10465301Y-10202198D02*
X10474824Y-10192674D01*
X10474824Y-10192674D02*
X10493872Y-10183150D01*
X10493872Y-10183150D02*
X10512920Y-10183150D01*
X10579586Y-10316484D02*
X10579586Y-10183150D01*
X10579586Y-10116484D02*
X10570063Y-10126008D01*
X10570063Y-10126008D02*
X10579586Y-10135531D01*
X10579586Y-10135531D02*
X10589110Y-10126008D01*
X10589110Y-10126008D02*
X10579586Y-10116484D01*
X10579586Y-10116484D02*
X10579586Y-10135531D01*
X10703396Y-10316484D02*
X10684348Y-10306960D01*
X10684348Y-10306960D02*
X10674824Y-10287912D01*
X10674824Y-10287912D02*
X10674824Y-10116484D01*
X10808158Y-10316484D02*
X10789110Y-10306960D01*
X10789110Y-10306960D02*
X10779586Y-10287912D01*
X10779586Y-10287912D02*
X10779586Y-10116484D01*
X11036729Y-10316484D02*
X11036729Y-10116484D01*
X11036729Y-10116484D02*
X11103396Y-10259341D01*
X11103396Y-10259341D02*
X11170063Y-10116484D01*
X11170063Y-10116484D02*
X11170063Y-10316484D01*
X11351015Y-10316484D02*
X11351015Y-10211722D01*
X11351015Y-10211722D02*
X11341491Y-10192674D01*
X11341491Y-10192674D02*
X11322443Y-10183150D01*
X11322443Y-10183150D02*
X11284348Y-10183150D01*
X11284348Y-10183150D02*
X11265301Y-10192674D01*
X11351015Y-10306960D02*
X11331967Y-10316484D01*
X11331967Y-10316484D02*
X11284348Y-10316484D01*
X11284348Y-10316484D02*
X11265301Y-10306960D01*
X11265301Y-10306960D02*
X11255777Y-10287912D01*
X11255777Y-10287912D02*
X11255777Y-10268865D01*
X11255777Y-10268865D02*
X11265301Y-10249817D01*
X11265301Y-10249817D02*
X11284348Y-10240293D01*
X11284348Y-10240293D02*
X11331967Y-10240293D01*
X11331967Y-10240293D02*
X11351015Y-10230770D01*
X11446253Y-10183150D02*
X11446253Y-10383150D01*
X11446253Y-10192674D02*
X11465301Y-10183150D01*
X11465301Y-10183150D02*
X11503396Y-10183150D01*
X11503396Y-10183150D02*
X11522443Y-10192674D01*
X11522443Y-10192674D02*
X11531967Y-10202198D01*
X11531967Y-10202198D02*
X11541491Y-10221246D01*
X11541491Y-10221246D02*
X11541491Y-10278389D01*
X11541491Y-10278389D02*
X11531967Y-10297436D01*
X11531967Y-10297436D02*
X11522443Y-10306960D01*
X11522443Y-10306960D02*
X11503396Y-10316484D01*
X11503396Y-10316484D02*
X11465301Y-10316484D01*
X11465301Y-10316484D02*
X11446253Y-10306960D01*
X11627205Y-10297436D02*
X11636729Y-10306960D01*
X11636729Y-10306960D02*
X11627205Y-10316484D01*
X11627205Y-10316484D02*
X11617682Y-10306960D01*
X11617682Y-10306960D02*
X11627205Y-10297436D01*
X11627205Y-10297436D02*
X11627205Y-10316484D01*
X11627205Y-10192674D02*
X11636729Y-10202198D01*
X11636729Y-10202198D02*
X11627205Y-10211722D01*
X11627205Y-10211722D02*
X11617682Y-10202198D01*
X11617682Y-10202198D02*
X11627205Y-10192674D01*
X11627205Y-10192674D02*
X11627205Y-10211722D01*
D10*
X9970000Y-10632500D02*
X9995000Y-10657500D01*
X9995000Y-10632500D02*
X9970000Y-10657500D01*
D11*
X10293872Y-10536484D02*
X10312920Y-10536484D01*
X10312920Y-10536484D02*
X10331967Y-10546008D01*
X10331967Y-10546008D02*
X10341491Y-10555531D01*
X10341491Y-10555531D02*
X10351015Y-10574579D01*
X10351015Y-10574579D02*
X10360539Y-10612674D01*
X10360539Y-10612674D02*
X10360539Y-10660293D01*
X10360539Y-10660293D02*
X10351015Y-10698389D01*
X10351015Y-10698389D02*
X10341491Y-10717436D01*
X10341491Y-10717436D02*
X10331967Y-10726960D01*
X10331967Y-10726960D02*
X10312920Y-10736484D01*
X10312920Y-10736484D02*
X10293872Y-10736484D01*
X10293872Y-10736484D02*
X10274824Y-10726960D01*
X10274824Y-10726960D02*
X10265301Y-10717436D01*
X10265301Y-10717436D02*
X10255777Y-10698389D01*
X10255777Y-10698389D02*
X10246253Y-10660293D01*
X10246253Y-10660293D02*
X10246253Y-10612674D01*
X10246253Y-10612674D02*
X10255777Y-10574579D01*
X10255777Y-10574579D02*
X10265301Y-10555531D01*
X10265301Y-10555531D02*
X10274824Y-10546008D01*
X10274824Y-10546008D02*
X10293872Y-10536484D01*
X10446253Y-10717436D02*
X10455777Y-10726960D01*
X10455777Y-10726960D02*
X10446253Y-10736484D01*
X10446253Y-10736484D02*
X10436729Y-10726960D01*
X10436729Y-10726960D02*
X10446253Y-10717436D01*
X10446253Y-10717436D02*
X10446253Y-10736484D01*
X10531967Y-10555531D02*
X10541491Y-10546008D01*
X10541491Y-10546008D02*
X10560539Y-10536484D01*
X10560539Y-10536484D02*
X10608158Y-10536484D01*
X10608158Y-10536484D02*
X10627205Y-10546008D01*
X10627205Y-10546008D02*
X10636729Y-10555531D01*
X10636729Y-10555531D02*
X10646253Y-10574579D01*
X10646253Y-10574579D02*
X10646253Y-10593627D01*
X10646253Y-10593627D02*
X10636729Y-10622198D01*
X10636729Y-10622198D02*
X10522444Y-10736484D01*
X10522444Y-10736484D02*
X10646253Y-10736484D01*
X10827205Y-10536484D02*
X10731967Y-10536484D01*
X10731967Y-10536484D02*
X10722444Y-10631722D01*
X10722444Y-10631722D02*
X10731967Y-10622198D01*
X10731967Y-10622198D02*
X10751015Y-10612674D01*
X10751015Y-10612674D02*
X10798634Y-10612674D01*
X10798634Y-10612674D02*
X10817682Y-10622198D01*
X10817682Y-10622198D02*
X10827205Y-10631722D01*
X10827205Y-10631722D02*
X10836729Y-10650770D01*
X10836729Y-10650770D02*
X10836729Y-10698389D01*
X10836729Y-10698389D02*
X10827205Y-10717436D01*
X10827205Y-10717436D02*
X10817682Y-10726960D01*
X10817682Y-10726960D02*
X10798634Y-10736484D01*
X10798634Y-10736484D02*
X10751015Y-10736484D01*
X10751015Y-10736484D02*
X10731967Y-10726960D01*
X10731967Y-10726960D02*
X10722444Y-10717436D01*
X10960539Y-10536484D02*
X10979586Y-10536484D01*
X10979586Y-10536484D02*
X10998634Y-10546008D01*
X10998634Y-10546008D02*
X11008158Y-10555531D01*
X11008158Y-10555531D02*
X11017682Y-10574579D01*
X11017682Y-10574579D02*
X11027205Y-10612674D01*
X11027205Y-10612674D02*
X11027205Y-10660293D01*
X11027205Y-10660293D02*
X11017682Y-10698389D01*
X11017682Y-10698389D02*
X11008158Y-10717436D01*
X11008158Y-10717436D02*
X10998634Y-10726960D01*
X10998634Y-10726960D02*
X10979586Y-10736484D01*
X10979586Y-10736484D02*
X10960539Y-10736484D01*
X10960539Y-10736484D02*
X10941491Y-10726960D01*
X10941491Y-10726960D02*
X10931967Y-10717436D01*
X10931967Y-10717436D02*
X10922444Y-10698389D01*
X10922444Y-10698389D02*
X10912920Y-10660293D01*
X10912920Y-10660293D02*
X10912920Y-10612674D01*
X10912920Y-10612674D02*
X10922444Y-10574579D01*
X10922444Y-10574579D02*
X10931967Y-10555531D01*
X10931967Y-10555531D02*
X10941491Y-10546008D01*
X10941491Y-10546008D02*
X10960539Y-10536484D01*
X11112920Y-10736484D02*
X11112920Y-10603150D01*
X11112920Y-10622198D02*
X11122444Y-10612674D01*
X11122444Y-10612674D02*
X11141491Y-10603150D01*
X11141491Y-10603150D02*
X11170063Y-10603150D01*
X11170063Y-10603150D02*
X11189110Y-10612674D01*
X11189110Y-10612674D02*
X11198634Y-10631722D01*
X11198634Y-10631722D02*
X11198634Y-10736484D01*
X11198634Y-10631722D02*
X11208158Y-10612674D01*
X11208158Y-10612674D02*
X11227205Y-10603150D01*
X11227205Y-10603150D02*
X11255777Y-10603150D01*
X11255777Y-10603150D02*
X11274824Y-10612674D01*
X11274824Y-10612674D02*
X11284348Y-10631722D01*
X11284348Y-10631722D02*
X11284348Y-10736484D01*
X11379586Y-10736484D02*
X11379586Y-10603150D01*
X11379586Y-10622198D02*
X11389110Y-10612674D01*
X11389110Y-10612674D02*
X11408158Y-10603150D01*
X11408158Y-10603150D02*
X11436729Y-10603150D01*
X11436729Y-10603150D02*
X11455777Y-10612674D01*
X11455777Y-10612674D02*
X11465301Y-10631722D01*
X11465301Y-10631722D02*
X11465301Y-10736484D01*
X11465301Y-10631722D02*
X11474824Y-10612674D01*
X11474824Y-10612674D02*
X11493872Y-10603150D01*
X11493872Y-10603150D02*
X11522443Y-10603150D01*
X11522443Y-10603150D02*
X11541491Y-10612674D01*
X11541491Y-10612674D02*
X11551015Y-10631722D01*
X11551015Y-10631722D02*
X11551015Y-10736484D01*
X11941491Y-10526960D02*
X11770063Y-10784103D01*
X12198634Y-10536484D02*
X12217682Y-10536484D01*
X12217682Y-10536484D02*
X12236729Y-10546008D01*
X12236729Y-10546008D02*
X12246253Y-10555531D01*
X12246253Y-10555531D02*
X12255777Y-10574579D01*
X12255777Y-10574579D02*
X12265301Y-10612674D01*
X12265301Y-10612674D02*
X12265301Y-10660293D01*
X12265301Y-10660293D02*
X12255777Y-10698389D01*
X12255777Y-10698389D02*
X12246253Y-10717436D01*
X12246253Y-10717436D02*
X12236729Y-10726960D01*
X12236729Y-10726960D02*
X12217682Y-10736484D01*
X12217682Y-10736484D02*
X12198634Y-10736484D01*
X12198634Y-10736484D02*
X12179586Y-10726960D01*
X12179586Y-10726960D02*
X12170063Y-10717436D01*
X12170063Y-10717436D02*
X12160539Y-10698389D01*
X12160539Y-10698389D02*
X12151015Y-10660293D01*
X12151015Y-10660293D02*
X12151015Y-10612674D01*
X12151015Y-10612674D02*
X12160539Y-10574579D01*
X12160539Y-10574579D02*
X12170063Y-10555531D01*
X12170063Y-10555531D02*
X12179586Y-10546008D01*
X12179586Y-10546008D02*
X12198634Y-10536484D01*
X12351015Y-10717436D02*
X12360539Y-10726960D01*
X12360539Y-10726960D02*
X12351015Y-10736484D01*
X12351015Y-10736484D02*
X12341491Y-10726960D01*
X12341491Y-10726960D02*
X12351015Y-10717436D01*
X12351015Y-10717436D02*
X12351015Y-10736484D01*
X12484348Y-10536484D02*
X12503396Y-10536484D01*
X12503396Y-10536484D02*
X12522444Y-10546008D01*
X12522444Y-10546008D02*
X12531967Y-10555531D01*
X12531967Y-10555531D02*
X12541491Y-10574579D01*
X12541491Y-10574579D02*
X12551015Y-10612674D01*
X12551015Y-10612674D02*
X12551015Y-10660293D01*
X12551015Y-10660293D02*
X12541491Y-10698389D01*
X12541491Y-10698389D02*
X12531967Y-10717436D01*
X12531967Y-10717436D02*
X12522444Y-10726960D01*
X12522444Y-10726960D02*
X12503396Y-10736484D01*
X12503396Y-10736484D02*
X12484348Y-10736484D01*
X12484348Y-10736484D02*
X12465301Y-10726960D01*
X12465301Y-10726960D02*
X12455777Y-10717436D01*
X12455777Y-10717436D02*
X12446253Y-10698389D01*
X12446253Y-10698389D02*
X12436729Y-10660293D01*
X12436729Y-10660293D02*
X12436729Y-10612674D01*
X12436729Y-10612674D02*
X12446253Y-10574579D01*
X12446253Y-10574579D02*
X12455777Y-10555531D01*
X12455777Y-10555531D02*
X12465301Y-10546008D01*
X12465301Y-10546008D02*
X12484348Y-10536484D01*
X12674825Y-10536484D02*
X12693872Y-10536484D01*
X12693872Y-10536484D02*
X12712920Y-10546008D01*
X12712920Y-10546008D02*
X12722444Y-10555531D01*
X12722444Y-10555531D02*
X12731967Y-10574579D01*
X12731967Y-10574579D02*
X12741491Y-10612674D01*
X12741491Y-10612674D02*
X12741491Y-10660293D01*
X12741491Y-10660293D02*
X12731967Y-10698389D01*
X12731967Y-10698389D02*
X12722444Y-10717436D01*
X12722444Y-10717436D02*
X12712920Y-10726960D01*
X12712920Y-10726960D02*
X12693872Y-10736484D01*
X12693872Y-10736484D02*
X12674825Y-10736484D01*
X12674825Y-10736484D02*
X12655777Y-10726960D01*
X12655777Y-10726960D02*
X12646253Y-10717436D01*
X12646253Y-10717436D02*
X12636729Y-10698389D01*
X12636729Y-10698389D02*
X12627206Y-10660293D01*
X12627206Y-10660293D02*
X12627206Y-10612674D01*
X12627206Y-10612674D02*
X12636729Y-10574579D01*
X12636729Y-10574579D02*
X12646253Y-10555531D01*
X12646253Y-10555531D02*
X12655777Y-10546008D01*
X12655777Y-10546008D02*
X12674825Y-10536484D01*
X12836729Y-10736484D02*
X12874825Y-10736484D01*
X12874825Y-10736484D02*
X12893872Y-10726960D01*
X12893872Y-10726960D02*
X12903396Y-10717436D01*
X12903396Y-10717436D02*
X12922444Y-10688865D01*
X12922444Y-10688865D02*
X12931967Y-10650770D01*
X12931967Y-10650770D02*
X12931967Y-10574579D01*
X12931967Y-10574579D02*
X12922444Y-10555531D01*
X12922444Y-10555531D02*
X12912920Y-10546008D01*
X12912920Y-10546008D02*
X12893872Y-10536484D01*
X12893872Y-10536484D02*
X12855777Y-10536484D01*
X12855777Y-10536484D02*
X12836729Y-10546008D01*
X12836729Y-10546008D02*
X12827206Y-10555531D01*
X12827206Y-10555531D02*
X12817682Y-10574579D01*
X12817682Y-10574579D02*
X12817682Y-10622198D01*
X12817682Y-10622198D02*
X12827206Y-10641246D01*
X12827206Y-10641246D02*
X12836729Y-10650770D01*
X12836729Y-10650770D02*
X12855777Y-10660293D01*
X12855777Y-10660293D02*
X12893872Y-10660293D01*
X12893872Y-10660293D02*
X12912920Y-10650770D01*
X12912920Y-10650770D02*
X12922444Y-10641246D01*
X12922444Y-10641246D02*
X12931967Y-10622198D01*
X13046253Y-10622198D02*
X13027206Y-10612674D01*
X13027206Y-10612674D02*
X13017682Y-10603150D01*
X13017682Y-10603150D02*
X13008158Y-10584103D01*
X13008158Y-10584103D02*
X13008158Y-10574579D01*
X13008158Y-10574579D02*
X13017682Y-10555531D01*
X13017682Y-10555531D02*
X13027206Y-10546008D01*
X13027206Y-10546008D02*
X13046253Y-10536484D01*
X13046253Y-10536484D02*
X13084348Y-10536484D01*
X13084348Y-10536484D02*
X13103396Y-10546008D01*
X13103396Y-10546008D02*
X13112920Y-10555531D01*
X13112920Y-10555531D02*
X13122444Y-10574579D01*
X13122444Y-10574579D02*
X13122444Y-10584103D01*
X13122444Y-10584103D02*
X13112920Y-10603150D01*
X13112920Y-10603150D02*
X13103396Y-10612674D01*
X13103396Y-10612674D02*
X13084348Y-10622198D01*
X13084348Y-10622198D02*
X13046253Y-10622198D01*
X13046253Y-10622198D02*
X13027206Y-10631722D01*
X13027206Y-10631722D02*
X13017682Y-10641246D01*
X13017682Y-10641246D02*
X13008158Y-10660293D01*
X13008158Y-10660293D02*
X13008158Y-10698389D01*
X13008158Y-10698389D02*
X13017682Y-10717436D01*
X13017682Y-10717436D02*
X13027206Y-10726960D01*
X13027206Y-10726960D02*
X13046253Y-10736484D01*
X13046253Y-10736484D02*
X13084348Y-10736484D01*
X13084348Y-10736484D02*
X13103396Y-10726960D01*
X13103396Y-10726960D02*
X13112920Y-10717436D01*
X13112920Y-10717436D02*
X13122444Y-10698389D01*
X13122444Y-10698389D02*
X13122444Y-10660293D01*
X13122444Y-10660293D02*
X13112920Y-10641246D01*
X13112920Y-10641246D02*
X13103396Y-10631722D01*
X13103396Y-10631722D02*
X13084348Y-10622198D01*
X13198634Y-10536484D02*
X13198634Y-10574579D01*
X13274825Y-10536484D02*
X13274825Y-10574579D01*
X13570063Y-10812674D02*
X13560539Y-10803150D01*
X13560539Y-10803150D02*
X13541491Y-10774579D01*
X13541491Y-10774579D02*
X13531968Y-10755531D01*
X13531968Y-10755531D02*
X13522444Y-10726960D01*
X13522444Y-10726960D02*
X13512920Y-10679341D01*
X13512920Y-10679341D02*
X13512920Y-10641246D01*
X13512920Y-10641246D02*
X13522444Y-10593627D01*
X13522444Y-10593627D02*
X13531968Y-10565055D01*
X13531968Y-10565055D02*
X13541491Y-10546008D01*
X13541491Y-10546008D02*
X13560539Y-10517436D01*
X13560539Y-10517436D02*
X13570063Y-10507912D01*
X13636729Y-10555531D02*
X13646253Y-10546008D01*
X13646253Y-10546008D02*
X13665301Y-10536484D01*
X13665301Y-10536484D02*
X13712920Y-10536484D01*
X13712920Y-10536484D02*
X13731968Y-10546008D01*
X13731968Y-10546008D02*
X13741491Y-10555531D01*
X13741491Y-10555531D02*
X13751015Y-10574579D01*
X13751015Y-10574579D02*
X13751015Y-10593627D01*
X13751015Y-10593627D02*
X13741491Y-10622198D01*
X13741491Y-10622198D02*
X13627206Y-10736484D01*
X13627206Y-10736484D02*
X13751015Y-10736484D01*
X13989110Y-10736484D02*
X13989110Y-10536484D01*
X14074825Y-10736484D02*
X14074825Y-10631722D01*
X14074825Y-10631722D02*
X14065301Y-10612674D01*
X14065301Y-10612674D02*
X14046253Y-10603150D01*
X14046253Y-10603150D02*
X14017682Y-10603150D01*
X14017682Y-10603150D02*
X13998634Y-10612674D01*
X13998634Y-10612674D02*
X13989110Y-10622198D01*
X14198634Y-10736484D02*
X14179587Y-10726960D01*
X14179587Y-10726960D02*
X14170063Y-10717436D01*
X14170063Y-10717436D02*
X14160539Y-10698389D01*
X14160539Y-10698389D02*
X14160539Y-10641246D01*
X14160539Y-10641246D02*
X14170063Y-10622198D01*
X14170063Y-10622198D02*
X14179587Y-10612674D01*
X14179587Y-10612674D02*
X14198634Y-10603150D01*
X14198634Y-10603150D02*
X14227206Y-10603150D01*
X14227206Y-10603150D02*
X14246253Y-10612674D01*
X14246253Y-10612674D02*
X14255777Y-10622198D01*
X14255777Y-10622198D02*
X14265301Y-10641246D01*
X14265301Y-10641246D02*
X14265301Y-10698389D01*
X14265301Y-10698389D02*
X14255777Y-10717436D01*
X14255777Y-10717436D02*
X14246253Y-10726960D01*
X14246253Y-10726960D02*
X14227206Y-10736484D01*
X14227206Y-10736484D02*
X14198634Y-10736484D01*
X14379587Y-10736484D02*
X14360539Y-10726960D01*
X14360539Y-10726960D02*
X14351015Y-10707912D01*
X14351015Y-10707912D02*
X14351015Y-10536484D01*
X14531968Y-10726960D02*
X14512920Y-10736484D01*
X14512920Y-10736484D02*
X14474825Y-10736484D01*
X14474825Y-10736484D02*
X14455777Y-10726960D01*
X14455777Y-10726960D02*
X14446253Y-10707912D01*
X14446253Y-10707912D02*
X14446253Y-10631722D01*
X14446253Y-10631722D02*
X14455777Y-10612674D01*
X14455777Y-10612674D02*
X14474825Y-10603150D01*
X14474825Y-10603150D02*
X14512920Y-10603150D01*
X14512920Y-10603150D02*
X14531968Y-10612674D01*
X14531968Y-10612674D02*
X14541491Y-10631722D01*
X14541491Y-10631722D02*
X14541491Y-10650770D01*
X14541491Y-10650770D02*
X14446253Y-10669817D01*
X14617682Y-10726960D02*
X14636730Y-10736484D01*
X14636730Y-10736484D02*
X14674825Y-10736484D01*
X14674825Y-10736484D02*
X14693872Y-10726960D01*
X14693872Y-10726960D02*
X14703396Y-10707912D01*
X14703396Y-10707912D02*
X14703396Y-10698389D01*
X14703396Y-10698389D02*
X14693872Y-10679341D01*
X14693872Y-10679341D02*
X14674825Y-10669817D01*
X14674825Y-10669817D02*
X14646253Y-10669817D01*
X14646253Y-10669817D02*
X14627206Y-10660293D01*
X14627206Y-10660293D02*
X14617682Y-10641246D01*
X14617682Y-10641246D02*
X14617682Y-10631722D01*
X14617682Y-10631722D02*
X14627206Y-10612674D01*
X14627206Y-10612674D02*
X14646253Y-10603150D01*
X14646253Y-10603150D02*
X14674825Y-10603150D01*
X14674825Y-10603150D02*
X14693872Y-10612674D01*
X14770063Y-10812674D02*
X14779587Y-10803150D01*
X14779587Y-10803150D02*
X14798634Y-10774579D01*
X14798634Y-10774579D02*
X14808158Y-10755531D01*
X14808158Y-10755531D02*
X14817682Y-10726960D01*
X14817682Y-10726960D02*
X14827206Y-10679341D01*
X14827206Y-10679341D02*
X14827206Y-10641246D01*
X14827206Y-10641246D02*
X14817682Y-10593627D01*
X14817682Y-10593627D02*
X14808158Y-10565055D01*
X14808158Y-10565055D02*
X14798634Y-10546008D01*
X14798634Y-10546008D02*
X14779587Y-10517436D01*
X14779587Y-10517436D02*
X14770063Y-10507912D01*
D10*
X9995000Y-10909000D02*
G75*
G02*
X9965000Y-10909000I-15000J0D01*
G01*
X9965000Y-10909000D02*
G75*
G02*
X9995000Y-10909000I15000J0D01*
G01*
D11*
X10293872Y-10800484D02*
X10312920Y-10800484D01*
X10312920Y-10800484D02*
X10331967Y-10810008D01*
X10331967Y-10810008D02*
X10341491Y-10819531D01*
X10341491Y-10819531D02*
X10351015Y-10838579D01*
X10351015Y-10838579D02*
X10360539Y-10876674D01*
X10360539Y-10876674D02*
X10360539Y-10924293D01*
X10360539Y-10924293D02*
X10351015Y-10962389D01*
X10351015Y-10962389D02*
X10341491Y-10981436D01*
X10341491Y-10981436D02*
X10331967Y-10990960D01*
X10331967Y-10990960D02*
X10312920Y-11000484D01*
X10312920Y-11000484D02*
X10293872Y-11000484D01*
X10293872Y-11000484D02*
X10274824Y-10990960D01*
X10274824Y-10990960D02*
X10265301Y-10981436D01*
X10265301Y-10981436D02*
X10255777Y-10962389D01*
X10255777Y-10962389D02*
X10246253Y-10924293D01*
X10246253Y-10924293D02*
X10246253Y-10876674D01*
X10246253Y-10876674D02*
X10255777Y-10838579D01*
X10255777Y-10838579D02*
X10265301Y-10819531D01*
X10265301Y-10819531D02*
X10274824Y-10810008D01*
X10274824Y-10810008D02*
X10293872Y-10800484D01*
X10446253Y-10981436D02*
X10455777Y-10990960D01*
X10455777Y-10990960D02*
X10446253Y-11000484D01*
X10446253Y-11000484D02*
X10436729Y-10990960D01*
X10436729Y-10990960D02*
X10446253Y-10981436D01*
X10446253Y-10981436D02*
X10446253Y-11000484D01*
X10522444Y-10800484D02*
X10646253Y-10800484D01*
X10646253Y-10800484D02*
X10579586Y-10876674D01*
X10579586Y-10876674D02*
X10608158Y-10876674D01*
X10608158Y-10876674D02*
X10627205Y-10886198D01*
X10627205Y-10886198D02*
X10636729Y-10895722D01*
X10636729Y-10895722D02*
X10646253Y-10914770D01*
X10646253Y-10914770D02*
X10646253Y-10962389D01*
X10646253Y-10962389D02*
X10636729Y-10981436D01*
X10636729Y-10981436D02*
X10627205Y-10990960D01*
X10627205Y-10990960D02*
X10608158Y-11000484D01*
X10608158Y-11000484D02*
X10551015Y-11000484D01*
X10551015Y-11000484D02*
X10531967Y-10990960D01*
X10531967Y-10990960D02*
X10522444Y-10981436D01*
X10770063Y-10800484D02*
X10789110Y-10800484D01*
X10789110Y-10800484D02*
X10808158Y-10810008D01*
X10808158Y-10810008D02*
X10817682Y-10819531D01*
X10817682Y-10819531D02*
X10827205Y-10838579D01*
X10827205Y-10838579D02*
X10836729Y-10876674D01*
X10836729Y-10876674D02*
X10836729Y-10924293D01*
X10836729Y-10924293D02*
X10827205Y-10962389D01*
X10827205Y-10962389D02*
X10817682Y-10981436D01*
X10817682Y-10981436D02*
X10808158Y-10990960D01*
X10808158Y-10990960D02*
X10789110Y-11000484D01*
X10789110Y-11000484D02*
X10770063Y-11000484D01*
X10770063Y-11000484D02*
X10751015Y-10990960D01*
X10751015Y-10990960D02*
X10741491Y-10981436D01*
X10741491Y-10981436D02*
X10731967Y-10962389D01*
X10731967Y-10962389D02*
X10722444Y-10924293D01*
X10722444Y-10924293D02*
X10722444Y-10876674D01*
X10722444Y-10876674D02*
X10731967Y-10838579D01*
X10731967Y-10838579D02*
X10741491Y-10819531D01*
X10741491Y-10819531D02*
X10751015Y-10810008D01*
X10751015Y-10810008D02*
X10770063Y-10800484D01*
X10960539Y-10800484D02*
X10979586Y-10800484D01*
X10979586Y-10800484D02*
X10998634Y-10810008D01*
X10998634Y-10810008D02*
X11008158Y-10819531D01*
X11008158Y-10819531D02*
X11017682Y-10838579D01*
X11017682Y-10838579D02*
X11027205Y-10876674D01*
X11027205Y-10876674D02*
X11027205Y-10924293D01*
X11027205Y-10924293D02*
X11017682Y-10962389D01*
X11017682Y-10962389D02*
X11008158Y-10981436D01*
X11008158Y-10981436D02*
X10998634Y-10990960D01*
X10998634Y-10990960D02*
X10979586Y-11000484D01*
X10979586Y-11000484D02*
X10960539Y-11000484D01*
X10960539Y-11000484D02*
X10941491Y-10990960D01*
X10941491Y-10990960D02*
X10931967Y-10981436D01*
X10931967Y-10981436D02*
X10922444Y-10962389D01*
X10922444Y-10962389D02*
X10912920Y-10924293D01*
X10912920Y-10924293D02*
X10912920Y-10876674D01*
X10912920Y-10876674D02*
X10922444Y-10838579D01*
X10922444Y-10838579D02*
X10931967Y-10819531D01*
X10931967Y-10819531D02*
X10941491Y-10810008D01*
X10941491Y-10810008D02*
X10960539Y-10800484D01*
X11112920Y-11000484D02*
X11112920Y-10867150D01*
X11112920Y-10886198D02*
X11122444Y-10876674D01*
X11122444Y-10876674D02*
X11141491Y-10867150D01*
X11141491Y-10867150D02*
X11170063Y-10867150D01*
X11170063Y-10867150D02*
X11189110Y-10876674D01*
X11189110Y-10876674D02*
X11198634Y-10895722D01*
X11198634Y-10895722D02*
X11198634Y-11000484D01*
X11198634Y-10895722D02*
X11208158Y-10876674D01*
X11208158Y-10876674D02*
X11227205Y-10867150D01*
X11227205Y-10867150D02*
X11255777Y-10867150D01*
X11255777Y-10867150D02*
X11274824Y-10876674D01*
X11274824Y-10876674D02*
X11284348Y-10895722D01*
X11284348Y-10895722D02*
X11284348Y-11000484D01*
X11379586Y-11000484D02*
X11379586Y-10867150D01*
X11379586Y-10886198D02*
X11389110Y-10876674D01*
X11389110Y-10876674D02*
X11408158Y-10867150D01*
X11408158Y-10867150D02*
X11436729Y-10867150D01*
X11436729Y-10867150D02*
X11455777Y-10876674D01*
X11455777Y-10876674D02*
X11465301Y-10895722D01*
X11465301Y-10895722D02*
X11465301Y-11000484D01*
X11465301Y-10895722D02*
X11474824Y-10876674D01*
X11474824Y-10876674D02*
X11493872Y-10867150D01*
X11493872Y-10867150D02*
X11522443Y-10867150D01*
X11522443Y-10867150D02*
X11541491Y-10876674D01*
X11541491Y-10876674D02*
X11551015Y-10895722D01*
X11551015Y-10895722D02*
X11551015Y-11000484D01*
X11941491Y-10790960D02*
X11770063Y-11048103D01*
X12198634Y-10800484D02*
X12217682Y-10800484D01*
X12217682Y-10800484D02*
X12236729Y-10810008D01*
X12236729Y-10810008D02*
X12246253Y-10819531D01*
X12246253Y-10819531D02*
X12255777Y-10838579D01*
X12255777Y-10838579D02*
X12265301Y-10876674D01*
X12265301Y-10876674D02*
X12265301Y-10924293D01*
X12265301Y-10924293D02*
X12255777Y-10962389D01*
X12255777Y-10962389D02*
X12246253Y-10981436D01*
X12246253Y-10981436D02*
X12236729Y-10990960D01*
X12236729Y-10990960D02*
X12217682Y-11000484D01*
X12217682Y-11000484D02*
X12198634Y-11000484D01*
X12198634Y-11000484D02*
X12179586Y-10990960D01*
X12179586Y-10990960D02*
X12170063Y-10981436D01*
X12170063Y-10981436D02*
X12160539Y-10962389D01*
X12160539Y-10962389D02*
X12151015Y-10924293D01*
X12151015Y-10924293D02*
X12151015Y-10876674D01*
X12151015Y-10876674D02*
X12160539Y-10838579D01*
X12160539Y-10838579D02*
X12170063Y-10819531D01*
X12170063Y-10819531D02*
X12179586Y-10810008D01*
X12179586Y-10810008D02*
X12198634Y-10800484D01*
X12351015Y-10981436D02*
X12360539Y-10990960D01*
X12360539Y-10990960D02*
X12351015Y-11000484D01*
X12351015Y-11000484D02*
X12341491Y-10990960D01*
X12341491Y-10990960D02*
X12351015Y-10981436D01*
X12351015Y-10981436D02*
X12351015Y-11000484D01*
X12484348Y-10800484D02*
X12503396Y-10800484D01*
X12503396Y-10800484D02*
X12522444Y-10810008D01*
X12522444Y-10810008D02*
X12531967Y-10819531D01*
X12531967Y-10819531D02*
X12541491Y-10838579D01*
X12541491Y-10838579D02*
X12551015Y-10876674D01*
X12551015Y-10876674D02*
X12551015Y-10924293D01*
X12551015Y-10924293D02*
X12541491Y-10962389D01*
X12541491Y-10962389D02*
X12531967Y-10981436D01*
X12531967Y-10981436D02*
X12522444Y-10990960D01*
X12522444Y-10990960D02*
X12503396Y-11000484D01*
X12503396Y-11000484D02*
X12484348Y-11000484D01*
X12484348Y-11000484D02*
X12465301Y-10990960D01*
X12465301Y-10990960D02*
X12455777Y-10981436D01*
X12455777Y-10981436D02*
X12446253Y-10962389D01*
X12446253Y-10962389D02*
X12436729Y-10924293D01*
X12436729Y-10924293D02*
X12436729Y-10876674D01*
X12436729Y-10876674D02*
X12446253Y-10838579D01*
X12446253Y-10838579D02*
X12455777Y-10819531D01*
X12455777Y-10819531D02*
X12465301Y-10810008D01*
X12465301Y-10810008D02*
X12484348Y-10800484D01*
X12741491Y-11000484D02*
X12627206Y-11000484D01*
X12684348Y-11000484D02*
X12684348Y-10800484D01*
X12684348Y-10800484D02*
X12665301Y-10829055D01*
X12665301Y-10829055D02*
X12646253Y-10848103D01*
X12646253Y-10848103D02*
X12627206Y-10857627D01*
X12931967Y-11000484D02*
X12817682Y-11000484D01*
X12874825Y-11000484D02*
X12874825Y-10800484D01*
X12874825Y-10800484D02*
X12855777Y-10829055D01*
X12855777Y-10829055D02*
X12836729Y-10848103D01*
X12836729Y-10848103D02*
X12817682Y-10857627D01*
X13046253Y-10886198D02*
X13027206Y-10876674D01*
X13027206Y-10876674D02*
X13017682Y-10867150D01*
X13017682Y-10867150D02*
X13008158Y-10848103D01*
X13008158Y-10848103D02*
X13008158Y-10838579D01*
X13008158Y-10838579D02*
X13017682Y-10819531D01*
X13017682Y-10819531D02*
X13027206Y-10810008D01*
X13027206Y-10810008D02*
X13046253Y-10800484D01*
X13046253Y-10800484D02*
X13084348Y-10800484D01*
X13084348Y-10800484D02*
X13103396Y-10810008D01*
X13103396Y-10810008D02*
X13112920Y-10819531D01*
X13112920Y-10819531D02*
X13122444Y-10838579D01*
X13122444Y-10838579D02*
X13122444Y-10848103D01*
X13122444Y-10848103D02*
X13112920Y-10867150D01*
X13112920Y-10867150D02*
X13103396Y-10876674D01*
X13103396Y-10876674D02*
X13084348Y-10886198D01*
X13084348Y-10886198D02*
X13046253Y-10886198D01*
X13046253Y-10886198D02*
X13027206Y-10895722D01*
X13027206Y-10895722D02*
X13017682Y-10905246D01*
X13017682Y-10905246D02*
X13008158Y-10924293D01*
X13008158Y-10924293D02*
X13008158Y-10962389D01*
X13008158Y-10962389D02*
X13017682Y-10981436D01*
X13017682Y-10981436D02*
X13027206Y-10990960D01*
X13027206Y-10990960D02*
X13046253Y-11000484D01*
X13046253Y-11000484D02*
X13084348Y-11000484D01*
X13084348Y-11000484D02*
X13103396Y-10990960D01*
X13103396Y-10990960D02*
X13112920Y-10981436D01*
X13112920Y-10981436D02*
X13122444Y-10962389D01*
X13122444Y-10962389D02*
X13122444Y-10924293D01*
X13122444Y-10924293D02*
X13112920Y-10905246D01*
X13112920Y-10905246D02*
X13103396Y-10895722D01*
X13103396Y-10895722D02*
X13084348Y-10886198D01*
X13198634Y-10800484D02*
X13198634Y-10838579D01*
X13274825Y-10800484D02*
X13274825Y-10838579D01*
X13570063Y-11076674D02*
X13560539Y-11067150D01*
X13560539Y-11067150D02*
X13541491Y-11038579D01*
X13541491Y-11038579D02*
X13531968Y-11019531D01*
X13531968Y-11019531D02*
X13522444Y-10990960D01*
X13522444Y-10990960D02*
X13512920Y-10943341D01*
X13512920Y-10943341D02*
X13512920Y-10905246D01*
X13512920Y-10905246D02*
X13522444Y-10857627D01*
X13522444Y-10857627D02*
X13531968Y-10829055D01*
X13531968Y-10829055D02*
X13541491Y-10810008D01*
X13541491Y-10810008D02*
X13560539Y-10781436D01*
X13560539Y-10781436D02*
X13570063Y-10771912D01*
X13731968Y-10867150D02*
X13731968Y-11000484D01*
X13684348Y-10790960D02*
X13636729Y-10933817D01*
X13636729Y-10933817D02*
X13760539Y-10933817D01*
X13817682Y-10800484D02*
X13951015Y-10800484D01*
X13951015Y-10800484D02*
X13865301Y-11000484D01*
X14179587Y-11000484D02*
X14179587Y-10800484D01*
X14265301Y-11000484D02*
X14265301Y-10895722D01*
X14265301Y-10895722D02*
X14255777Y-10876674D01*
X14255777Y-10876674D02*
X14236730Y-10867150D01*
X14236730Y-10867150D02*
X14208158Y-10867150D01*
X14208158Y-10867150D02*
X14189110Y-10876674D01*
X14189110Y-10876674D02*
X14179587Y-10886198D01*
X14389110Y-11000484D02*
X14370063Y-10990960D01*
X14370063Y-10990960D02*
X14360539Y-10981436D01*
X14360539Y-10981436D02*
X14351015Y-10962389D01*
X14351015Y-10962389D02*
X14351015Y-10905246D01*
X14351015Y-10905246D02*
X14360539Y-10886198D01*
X14360539Y-10886198D02*
X14370063Y-10876674D01*
X14370063Y-10876674D02*
X14389110Y-10867150D01*
X14389110Y-10867150D02*
X14417682Y-10867150D01*
X14417682Y-10867150D02*
X14436730Y-10876674D01*
X14436730Y-10876674D02*
X14446253Y-10886198D01*
X14446253Y-10886198D02*
X14455777Y-10905246D01*
X14455777Y-10905246D02*
X14455777Y-10962389D01*
X14455777Y-10962389D02*
X14446253Y-10981436D01*
X14446253Y-10981436D02*
X14436730Y-10990960D01*
X14436730Y-10990960D02*
X14417682Y-11000484D01*
X14417682Y-11000484D02*
X14389110Y-11000484D01*
X14570063Y-11000484D02*
X14551015Y-10990960D01*
X14551015Y-10990960D02*
X14541491Y-10971912D01*
X14541491Y-10971912D02*
X14541491Y-10800484D01*
X14722444Y-10990960D02*
X14703396Y-11000484D01*
X14703396Y-11000484D02*
X14665301Y-11000484D01*
X14665301Y-11000484D02*
X14646253Y-10990960D01*
X14646253Y-10990960D02*
X14636730Y-10971912D01*
X14636730Y-10971912D02*
X14636730Y-10895722D01*
X14636730Y-10895722D02*
X14646253Y-10876674D01*
X14646253Y-10876674D02*
X14665301Y-10867150D01*
X14665301Y-10867150D02*
X14703396Y-10867150D01*
X14703396Y-10867150D02*
X14722444Y-10876674D01*
X14722444Y-10876674D02*
X14731968Y-10895722D01*
X14731968Y-10895722D02*
X14731968Y-10914770D01*
X14731968Y-10914770D02*
X14636730Y-10933817D01*
X14808158Y-10990960D02*
X14827206Y-11000484D01*
X14827206Y-11000484D02*
X14865301Y-11000484D01*
X14865301Y-11000484D02*
X14884349Y-10990960D01*
X14884349Y-10990960D02*
X14893872Y-10971912D01*
X14893872Y-10971912D02*
X14893872Y-10962389D01*
X14893872Y-10962389D02*
X14884349Y-10943341D01*
X14884349Y-10943341D02*
X14865301Y-10933817D01*
X14865301Y-10933817D02*
X14836730Y-10933817D01*
X14836730Y-10933817D02*
X14817682Y-10924293D01*
X14817682Y-10924293D02*
X14808158Y-10905246D01*
X14808158Y-10905246D02*
X14808158Y-10895722D01*
X14808158Y-10895722D02*
X14817682Y-10876674D01*
X14817682Y-10876674D02*
X14836730Y-10867150D01*
X14836730Y-10867150D02*
X14865301Y-10867150D01*
X14865301Y-10867150D02*
X14884349Y-10876674D01*
X14960539Y-11076674D02*
X14970063Y-11067150D01*
X14970063Y-11067150D02*
X14989111Y-11038579D01*
X14989111Y-11038579D02*
X14998634Y-11019531D01*
X14998634Y-11019531D02*
X15008158Y-10990960D01*
X15008158Y-10990960D02*
X15017682Y-10943341D01*
X15017682Y-10943341D02*
X15017682Y-10905246D01*
X15017682Y-10905246D02*
X15008158Y-10857627D01*
X15008158Y-10857627D02*
X14998634Y-10829055D01*
X14998634Y-10829055D02*
X14989111Y-10810008D01*
X14989111Y-10810008D02*
X14970063Y-10781436D01*
X14970063Y-10781436D02*
X14960539Y-10771912D01*
D10*
X9977500Y-11155500D02*
X9977500Y-11190500D01*
X9960000Y-11173000D02*
X9995000Y-11173000D01*
D11*
X10293872Y-11064484D02*
X10312920Y-11064484D01*
X10312920Y-11064484D02*
X10331967Y-11074008D01*
X10331967Y-11074008D02*
X10341491Y-11083531D01*
X10341491Y-11083531D02*
X10351015Y-11102579D01*
X10351015Y-11102579D02*
X10360539Y-11140674D01*
X10360539Y-11140674D02*
X10360539Y-11188293D01*
X10360539Y-11188293D02*
X10351015Y-11226388D01*
X10351015Y-11226388D02*
X10341491Y-11245436D01*
X10341491Y-11245436D02*
X10331967Y-11254960D01*
X10331967Y-11254960D02*
X10312920Y-11264484D01*
X10312920Y-11264484D02*
X10293872Y-11264484D01*
X10293872Y-11264484D02*
X10274824Y-11254960D01*
X10274824Y-11254960D02*
X10265301Y-11245436D01*
X10265301Y-11245436D02*
X10255777Y-11226388D01*
X10255777Y-11226388D02*
X10246253Y-11188293D01*
X10246253Y-11188293D02*
X10246253Y-11140674D01*
X10246253Y-11140674D02*
X10255777Y-11102579D01*
X10255777Y-11102579D02*
X10265301Y-11083531D01*
X10265301Y-11083531D02*
X10274824Y-11074008D01*
X10274824Y-11074008D02*
X10293872Y-11064484D01*
X10446253Y-11245436D02*
X10455777Y-11254960D01*
X10455777Y-11254960D02*
X10446253Y-11264484D01*
X10446253Y-11264484D02*
X10436729Y-11254960D01*
X10436729Y-11254960D02*
X10446253Y-11245436D01*
X10446253Y-11245436D02*
X10446253Y-11264484D01*
X10522444Y-11064484D02*
X10646253Y-11064484D01*
X10646253Y-11064484D02*
X10579586Y-11140674D01*
X10579586Y-11140674D02*
X10608158Y-11140674D01*
X10608158Y-11140674D02*
X10627205Y-11150198D01*
X10627205Y-11150198D02*
X10636729Y-11159722D01*
X10636729Y-11159722D02*
X10646253Y-11178770D01*
X10646253Y-11178770D02*
X10646253Y-11226388D01*
X10646253Y-11226388D02*
X10636729Y-11245436D01*
X10636729Y-11245436D02*
X10627205Y-11254960D01*
X10627205Y-11254960D02*
X10608158Y-11264484D01*
X10608158Y-11264484D02*
X10551015Y-11264484D01*
X10551015Y-11264484D02*
X10531967Y-11254960D01*
X10531967Y-11254960D02*
X10522444Y-11245436D01*
X10827205Y-11064484D02*
X10731967Y-11064484D01*
X10731967Y-11064484D02*
X10722444Y-11159722D01*
X10722444Y-11159722D02*
X10731967Y-11150198D01*
X10731967Y-11150198D02*
X10751015Y-11140674D01*
X10751015Y-11140674D02*
X10798634Y-11140674D01*
X10798634Y-11140674D02*
X10817682Y-11150198D01*
X10817682Y-11150198D02*
X10827205Y-11159722D01*
X10827205Y-11159722D02*
X10836729Y-11178770D01*
X10836729Y-11178770D02*
X10836729Y-11226388D01*
X10836729Y-11226388D02*
X10827205Y-11245436D01*
X10827205Y-11245436D02*
X10817682Y-11254960D01*
X10817682Y-11254960D02*
X10798634Y-11264484D01*
X10798634Y-11264484D02*
X10751015Y-11264484D01*
X10751015Y-11264484D02*
X10731967Y-11254960D01*
X10731967Y-11254960D02*
X10722444Y-11245436D01*
X10960539Y-11064484D02*
X10979586Y-11064484D01*
X10979586Y-11064484D02*
X10998634Y-11074008D01*
X10998634Y-11074008D02*
X11008158Y-11083531D01*
X11008158Y-11083531D02*
X11017682Y-11102579D01*
X11017682Y-11102579D02*
X11027205Y-11140674D01*
X11027205Y-11140674D02*
X11027205Y-11188293D01*
X11027205Y-11188293D02*
X11017682Y-11226388D01*
X11017682Y-11226388D02*
X11008158Y-11245436D01*
X11008158Y-11245436D02*
X10998634Y-11254960D01*
X10998634Y-11254960D02*
X10979586Y-11264484D01*
X10979586Y-11264484D02*
X10960539Y-11264484D01*
X10960539Y-11264484D02*
X10941491Y-11254960D01*
X10941491Y-11254960D02*
X10931967Y-11245436D01*
X10931967Y-11245436D02*
X10922444Y-11226388D01*
X10922444Y-11226388D02*
X10912920Y-11188293D01*
X10912920Y-11188293D02*
X10912920Y-11140674D01*
X10912920Y-11140674D02*
X10922444Y-11102579D01*
X10922444Y-11102579D02*
X10931967Y-11083531D01*
X10931967Y-11083531D02*
X10941491Y-11074008D01*
X10941491Y-11074008D02*
X10960539Y-11064484D01*
X11112920Y-11264484D02*
X11112920Y-11131150D01*
X11112920Y-11150198D02*
X11122444Y-11140674D01*
X11122444Y-11140674D02*
X11141491Y-11131150D01*
X11141491Y-11131150D02*
X11170063Y-11131150D01*
X11170063Y-11131150D02*
X11189110Y-11140674D01*
X11189110Y-11140674D02*
X11198634Y-11159722D01*
X11198634Y-11159722D02*
X11198634Y-11264484D01*
X11198634Y-11159722D02*
X11208158Y-11140674D01*
X11208158Y-11140674D02*
X11227205Y-11131150D01*
X11227205Y-11131150D02*
X11255777Y-11131150D01*
X11255777Y-11131150D02*
X11274824Y-11140674D01*
X11274824Y-11140674D02*
X11284348Y-11159722D01*
X11284348Y-11159722D02*
X11284348Y-11264484D01*
X11379586Y-11264484D02*
X11379586Y-11131150D01*
X11379586Y-11150198D02*
X11389110Y-11140674D01*
X11389110Y-11140674D02*
X11408158Y-11131150D01*
X11408158Y-11131150D02*
X11436729Y-11131150D01*
X11436729Y-11131150D02*
X11455777Y-11140674D01*
X11455777Y-11140674D02*
X11465301Y-11159722D01*
X11465301Y-11159722D02*
X11465301Y-11264484D01*
X11465301Y-11159722D02*
X11474824Y-11140674D01*
X11474824Y-11140674D02*
X11493872Y-11131150D01*
X11493872Y-11131150D02*
X11522443Y-11131150D01*
X11522443Y-11131150D02*
X11541491Y-11140674D01*
X11541491Y-11140674D02*
X11551015Y-11159722D01*
X11551015Y-11159722D02*
X11551015Y-11264484D01*
X11941491Y-11054960D02*
X11770063Y-11312103D01*
X12198634Y-11064484D02*
X12217682Y-11064484D01*
X12217682Y-11064484D02*
X12236729Y-11074008D01*
X12236729Y-11074008D02*
X12246253Y-11083531D01*
X12246253Y-11083531D02*
X12255777Y-11102579D01*
X12255777Y-11102579D02*
X12265301Y-11140674D01*
X12265301Y-11140674D02*
X12265301Y-11188293D01*
X12265301Y-11188293D02*
X12255777Y-11226388D01*
X12255777Y-11226388D02*
X12246253Y-11245436D01*
X12246253Y-11245436D02*
X12236729Y-11254960D01*
X12236729Y-11254960D02*
X12217682Y-11264484D01*
X12217682Y-11264484D02*
X12198634Y-11264484D01*
X12198634Y-11264484D02*
X12179586Y-11254960D01*
X12179586Y-11254960D02*
X12170063Y-11245436D01*
X12170063Y-11245436D02*
X12160539Y-11226388D01*
X12160539Y-11226388D02*
X12151015Y-11188293D01*
X12151015Y-11188293D02*
X12151015Y-11140674D01*
X12151015Y-11140674D02*
X12160539Y-11102579D01*
X12160539Y-11102579D02*
X12170063Y-11083531D01*
X12170063Y-11083531D02*
X12179586Y-11074008D01*
X12179586Y-11074008D02*
X12198634Y-11064484D01*
X12351015Y-11245436D02*
X12360539Y-11254960D01*
X12360539Y-11254960D02*
X12351015Y-11264484D01*
X12351015Y-11264484D02*
X12341491Y-11254960D01*
X12341491Y-11254960D02*
X12351015Y-11245436D01*
X12351015Y-11245436D02*
X12351015Y-11264484D01*
X12484348Y-11064484D02*
X12503396Y-11064484D01*
X12503396Y-11064484D02*
X12522444Y-11074008D01*
X12522444Y-11074008D02*
X12531967Y-11083531D01*
X12531967Y-11083531D02*
X12541491Y-11102579D01*
X12541491Y-11102579D02*
X12551015Y-11140674D01*
X12551015Y-11140674D02*
X12551015Y-11188293D01*
X12551015Y-11188293D02*
X12541491Y-11226388D01*
X12541491Y-11226388D02*
X12531967Y-11245436D01*
X12531967Y-11245436D02*
X12522444Y-11254960D01*
X12522444Y-11254960D02*
X12503396Y-11264484D01*
X12503396Y-11264484D02*
X12484348Y-11264484D01*
X12484348Y-11264484D02*
X12465301Y-11254960D01*
X12465301Y-11254960D02*
X12455777Y-11245436D01*
X12455777Y-11245436D02*
X12446253Y-11226388D01*
X12446253Y-11226388D02*
X12436729Y-11188293D01*
X12436729Y-11188293D02*
X12436729Y-11140674D01*
X12436729Y-11140674D02*
X12446253Y-11102579D01*
X12446253Y-11102579D02*
X12455777Y-11083531D01*
X12455777Y-11083531D02*
X12465301Y-11074008D01*
X12465301Y-11074008D02*
X12484348Y-11064484D01*
X12741491Y-11264484D02*
X12627206Y-11264484D01*
X12684348Y-11264484D02*
X12684348Y-11064484D01*
X12684348Y-11064484D02*
X12665301Y-11093055D01*
X12665301Y-11093055D02*
X12646253Y-11112103D01*
X12646253Y-11112103D02*
X12627206Y-11121627D01*
X12808158Y-11064484D02*
X12931967Y-11064484D01*
X12931967Y-11064484D02*
X12865301Y-11140674D01*
X12865301Y-11140674D02*
X12893872Y-11140674D01*
X12893872Y-11140674D02*
X12912920Y-11150198D01*
X12912920Y-11150198D02*
X12922444Y-11159722D01*
X12922444Y-11159722D02*
X12931967Y-11178770D01*
X12931967Y-11178770D02*
X12931967Y-11226388D01*
X12931967Y-11226388D02*
X12922444Y-11245436D01*
X12922444Y-11245436D02*
X12912920Y-11254960D01*
X12912920Y-11254960D02*
X12893872Y-11264484D01*
X12893872Y-11264484D02*
X12836729Y-11264484D01*
X12836729Y-11264484D02*
X12817682Y-11254960D01*
X12817682Y-11254960D02*
X12808158Y-11245436D01*
X13046253Y-11150198D02*
X13027206Y-11140674D01*
X13027206Y-11140674D02*
X13017682Y-11131150D01*
X13017682Y-11131150D02*
X13008158Y-11112103D01*
X13008158Y-11112103D02*
X13008158Y-11102579D01*
X13008158Y-11102579D02*
X13017682Y-11083531D01*
X13017682Y-11083531D02*
X13027206Y-11074008D01*
X13027206Y-11074008D02*
X13046253Y-11064484D01*
X13046253Y-11064484D02*
X13084348Y-11064484D01*
X13084348Y-11064484D02*
X13103396Y-11074008D01*
X13103396Y-11074008D02*
X13112920Y-11083531D01*
X13112920Y-11083531D02*
X13122444Y-11102579D01*
X13122444Y-11102579D02*
X13122444Y-11112103D01*
X13122444Y-11112103D02*
X13112920Y-11131150D01*
X13112920Y-11131150D02*
X13103396Y-11140674D01*
X13103396Y-11140674D02*
X13084348Y-11150198D01*
X13084348Y-11150198D02*
X13046253Y-11150198D01*
X13046253Y-11150198D02*
X13027206Y-11159722D01*
X13027206Y-11159722D02*
X13017682Y-11169246D01*
X13017682Y-11169246D02*
X13008158Y-11188293D01*
X13008158Y-11188293D02*
X13008158Y-11226388D01*
X13008158Y-11226388D02*
X13017682Y-11245436D01*
X13017682Y-11245436D02*
X13027206Y-11254960D01*
X13027206Y-11254960D02*
X13046253Y-11264484D01*
X13046253Y-11264484D02*
X13084348Y-11264484D01*
X13084348Y-11264484D02*
X13103396Y-11254960D01*
X13103396Y-11254960D02*
X13112920Y-11245436D01*
X13112920Y-11245436D02*
X13122444Y-11226388D01*
X13122444Y-11226388D02*
X13122444Y-11188293D01*
X13122444Y-11188293D02*
X13112920Y-11169246D01*
X13112920Y-11169246D02*
X13103396Y-11159722D01*
X13103396Y-11159722D02*
X13084348Y-11150198D01*
X13198634Y-11064484D02*
X13198634Y-11102579D01*
X13274825Y-11064484D02*
X13274825Y-11102579D01*
X13570063Y-11340674D02*
X13560539Y-11331150D01*
X13560539Y-11331150D02*
X13541491Y-11302579D01*
X13541491Y-11302579D02*
X13531968Y-11283531D01*
X13531968Y-11283531D02*
X13522444Y-11254960D01*
X13522444Y-11254960D02*
X13512920Y-11207341D01*
X13512920Y-11207341D02*
X13512920Y-11169246D01*
X13512920Y-11169246D02*
X13522444Y-11121627D01*
X13522444Y-11121627D02*
X13531968Y-11093055D01*
X13531968Y-11093055D02*
X13541491Y-11074008D01*
X13541491Y-11074008D02*
X13560539Y-11045436D01*
X13560539Y-11045436D02*
X13570063Y-11035912D01*
X13751015Y-11264484D02*
X13636729Y-11264484D01*
X13693872Y-11264484D02*
X13693872Y-11064484D01*
X13693872Y-11064484D02*
X13674825Y-11093055D01*
X13674825Y-11093055D02*
X13655777Y-11112103D01*
X13655777Y-11112103D02*
X13636729Y-11121627D01*
X13922444Y-11131150D02*
X13922444Y-11264484D01*
X13874825Y-11054960D02*
X13827206Y-11197817D01*
X13827206Y-11197817D02*
X13951015Y-11197817D01*
X14179587Y-11264484D02*
X14179587Y-11064484D01*
X14265301Y-11264484D02*
X14265301Y-11159722D01*
X14265301Y-11159722D02*
X14255777Y-11140674D01*
X14255777Y-11140674D02*
X14236730Y-11131150D01*
X14236730Y-11131150D02*
X14208158Y-11131150D01*
X14208158Y-11131150D02*
X14189110Y-11140674D01*
X14189110Y-11140674D02*
X14179587Y-11150198D01*
X14389110Y-11264484D02*
X14370063Y-11254960D01*
X14370063Y-11254960D02*
X14360539Y-11245436D01*
X14360539Y-11245436D02*
X14351015Y-11226388D01*
X14351015Y-11226388D02*
X14351015Y-11169246D01*
X14351015Y-11169246D02*
X14360539Y-11150198D01*
X14360539Y-11150198D02*
X14370063Y-11140674D01*
X14370063Y-11140674D02*
X14389110Y-11131150D01*
X14389110Y-11131150D02*
X14417682Y-11131150D01*
X14417682Y-11131150D02*
X14436730Y-11140674D01*
X14436730Y-11140674D02*
X14446253Y-11150198D01*
X14446253Y-11150198D02*
X14455777Y-11169246D01*
X14455777Y-11169246D02*
X14455777Y-11226388D01*
X14455777Y-11226388D02*
X14446253Y-11245436D01*
X14446253Y-11245436D02*
X14436730Y-11254960D01*
X14436730Y-11254960D02*
X14417682Y-11264484D01*
X14417682Y-11264484D02*
X14389110Y-11264484D01*
X14570063Y-11264484D02*
X14551015Y-11254960D01*
X14551015Y-11254960D02*
X14541491Y-11235912D01*
X14541491Y-11235912D02*
X14541491Y-11064484D01*
X14722444Y-11254960D02*
X14703396Y-11264484D01*
X14703396Y-11264484D02*
X14665301Y-11264484D01*
X14665301Y-11264484D02*
X14646253Y-11254960D01*
X14646253Y-11254960D02*
X14636730Y-11235912D01*
X14636730Y-11235912D02*
X14636730Y-11159722D01*
X14636730Y-11159722D02*
X14646253Y-11140674D01*
X14646253Y-11140674D02*
X14665301Y-11131150D01*
X14665301Y-11131150D02*
X14703396Y-11131150D01*
X14703396Y-11131150D02*
X14722444Y-11140674D01*
X14722444Y-11140674D02*
X14731968Y-11159722D01*
X14731968Y-11159722D02*
X14731968Y-11178770D01*
X14731968Y-11178770D02*
X14636730Y-11197817D01*
X14808158Y-11254960D02*
X14827206Y-11264484D01*
X14827206Y-11264484D02*
X14865301Y-11264484D01*
X14865301Y-11264484D02*
X14884349Y-11254960D01*
X14884349Y-11254960D02*
X14893872Y-11235912D01*
X14893872Y-11235912D02*
X14893872Y-11226388D01*
X14893872Y-11226388D02*
X14884349Y-11207341D01*
X14884349Y-11207341D02*
X14865301Y-11197817D01*
X14865301Y-11197817D02*
X14836730Y-11197817D01*
X14836730Y-11197817D02*
X14817682Y-11188293D01*
X14817682Y-11188293D02*
X14808158Y-11169246D01*
X14808158Y-11169246D02*
X14808158Y-11159722D01*
X14808158Y-11159722D02*
X14817682Y-11140674D01*
X14817682Y-11140674D02*
X14836730Y-11131150D01*
X14836730Y-11131150D02*
X14865301Y-11131150D01*
X14865301Y-11131150D02*
X14884349Y-11140674D01*
X14960539Y-11340674D02*
X14970063Y-11331150D01*
X14970063Y-11331150D02*
X14989111Y-11302579D01*
X14989111Y-11302579D02*
X14998634Y-11283531D01*
X14998634Y-11283531D02*
X15008158Y-11254960D01*
X15008158Y-11254960D02*
X15017682Y-11207341D01*
X15017682Y-11207341D02*
X15017682Y-11169246D01*
X15017682Y-11169246D02*
X15008158Y-11121627D01*
X15008158Y-11121627D02*
X14998634Y-11093055D01*
X14998634Y-11093055D02*
X14989111Y-11074008D01*
X14989111Y-11074008D02*
X14970063Y-11045436D01*
X14970063Y-11045436D02*
X14960539Y-11035912D01*
D10*
X9989142Y-11451142D02*
X9989142Y-11422858D01*
X9960858Y-11422858D01*
X9960858Y-11451142D01*
X9989142Y-11451142D01*
D11*
X10293872Y-11328484D02*
X10312920Y-11328484D01*
X10312920Y-11328484D02*
X10331967Y-11338008D01*
X10331967Y-11338008D02*
X10341491Y-11347531D01*
X10341491Y-11347531D02*
X10351015Y-11366579D01*
X10351015Y-11366579D02*
X10360539Y-11404674D01*
X10360539Y-11404674D02*
X10360539Y-11452293D01*
X10360539Y-11452293D02*
X10351015Y-11490388D01*
X10351015Y-11490388D02*
X10341491Y-11509436D01*
X10341491Y-11509436D02*
X10331967Y-11518960D01*
X10331967Y-11518960D02*
X10312920Y-11528484D01*
X10312920Y-11528484D02*
X10293872Y-11528484D01*
X10293872Y-11528484D02*
X10274824Y-11518960D01*
X10274824Y-11518960D02*
X10265301Y-11509436D01*
X10265301Y-11509436D02*
X10255777Y-11490388D01*
X10255777Y-11490388D02*
X10246253Y-11452293D01*
X10246253Y-11452293D02*
X10246253Y-11404674D01*
X10246253Y-11404674D02*
X10255777Y-11366579D01*
X10255777Y-11366579D02*
X10265301Y-11347531D01*
X10265301Y-11347531D02*
X10274824Y-11338008D01*
X10274824Y-11338008D02*
X10293872Y-11328484D01*
X10446253Y-11509436D02*
X10455777Y-11518960D01*
X10455777Y-11518960D02*
X10446253Y-11528484D01*
X10446253Y-11528484D02*
X10436729Y-11518960D01*
X10436729Y-11518960D02*
X10446253Y-11509436D01*
X10446253Y-11509436D02*
X10446253Y-11528484D01*
X10627205Y-11395150D02*
X10627205Y-11528484D01*
X10579586Y-11318960D02*
X10531967Y-11461817D01*
X10531967Y-11461817D02*
X10655777Y-11461817D01*
X10770063Y-11328484D02*
X10789110Y-11328484D01*
X10789110Y-11328484D02*
X10808158Y-11338008D01*
X10808158Y-11338008D02*
X10817682Y-11347531D01*
X10817682Y-11347531D02*
X10827205Y-11366579D01*
X10827205Y-11366579D02*
X10836729Y-11404674D01*
X10836729Y-11404674D02*
X10836729Y-11452293D01*
X10836729Y-11452293D02*
X10827205Y-11490388D01*
X10827205Y-11490388D02*
X10817682Y-11509436D01*
X10817682Y-11509436D02*
X10808158Y-11518960D01*
X10808158Y-11518960D02*
X10789110Y-11528484D01*
X10789110Y-11528484D02*
X10770063Y-11528484D01*
X10770063Y-11528484D02*
X10751015Y-11518960D01*
X10751015Y-11518960D02*
X10741491Y-11509436D01*
X10741491Y-11509436D02*
X10731967Y-11490388D01*
X10731967Y-11490388D02*
X10722444Y-11452293D01*
X10722444Y-11452293D02*
X10722444Y-11404674D01*
X10722444Y-11404674D02*
X10731967Y-11366579D01*
X10731967Y-11366579D02*
X10741491Y-11347531D01*
X10741491Y-11347531D02*
X10751015Y-11338008D01*
X10751015Y-11338008D02*
X10770063Y-11328484D01*
X10960539Y-11328484D02*
X10979586Y-11328484D01*
X10979586Y-11328484D02*
X10998634Y-11338008D01*
X10998634Y-11338008D02*
X11008158Y-11347531D01*
X11008158Y-11347531D02*
X11017682Y-11366579D01*
X11017682Y-11366579D02*
X11027205Y-11404674D01*
X11027205Y-11404674D02*
X11027205Y-11452293D01*
X11027205Y-11452293D02*
X11017682Y-11490388D01*
X11017682Y-11490388D02*
X11008158Y-11509436D01*
X11008158Y-11509436D02*
X10998634Y-11518960D01*
X10998634Y-11518960D02*
X10979586Y-11528484D01*
X10979586Y-11528484D02*
X10960539Y-11528484D01*
X10960539Y-11528484D02*
X10941491Y-11518960D01*
X10941491Y-11518960D02*
X10931967Y-11509436D01*
X10931967Y-11509436D02*
X10922444Y-11490388D01*
X10922444Y-11490388D02*
X10912920Y-11452293D01*
X10912920Y-11452293D02*
X10912920Y-11404674D01*
X10912920Y-11404674D02*
X10922444Y-11366579D01*
X10922444Y-11366579D02*
X10931967Y-11347531D01*
X10931967Y-11347531D02*
X10941491Y-11338008D01*
X10941491Y-11338008D02*
X10960539Y-11328484D01*
X11112920Y-11528484D02*
X11112920Y-11395150D01*
X11112920Y-11414198D02*
X11122444Y-11404674D01*
X11122444Y-11404674D02*
X11141491Y-11395150D01*
X11141491Y-11395150D02*
X11170063Y-11395150D01*
X11170063Y-11395150D02*
X11189110Y-11404674D01*
X11189110Y-11404674D02*
X11198634Y-11423722D01*
X11198634Y-11423722D02*
X11198634Y-11528484D01*
X11198634Y-11423722D02*
X11208158Y-11404674D01*
X11208158Y-11404674D02*
X11227205Y-11395150D01*
X11227205Y-11395150D02*
X11255777Y-11395150D01*
X11255777Y-11395150D02*
X11274824Y-11404674D01*
X11274824Y-11404674D02*
X11284348Y-11423722D01*
X11284348Y-11423722D02*
X11284348Y-11528484D01*
X11379586Y-11528484D02*
X11379586Y-11395150D01*
X11379586Y-11414198D02*
X11389110Y-11404674D01*
X11389110Y-11404674D02*
X11408158Y-11395150D01*
X11408158Y-11395150D02*
X11436729Y-11395150D01*
X11436729Y-11395150D02*
X11455777Y-11404674D01*
X11455777Y-11404674D02*
X11465301Y-11423722D01*
X11465301Y-11423722D02*
X11465301Y-11528484D01*
X11465301Y-11423722D02*
X11474824Y-11404674D01*
X11474824Y-11404674D02*
X11493872Y-11395150D01*
X11493872Y-11395150D02*
X11522443Y-11395150D01*
X11522443Y-11395150D02*
X11541491Y-11404674D01*
X11541491Y-11404674D02*
X11551015Y-11423722D01*
X11551015Y-11423722D02*
X11551015Y-11528484D01*
X11941491Y-11318960D02*
X11770063Y-11576103D01*
X12198634Y-11328484D02*
X12217682Y-11328484D01*
X12217682Y-11328484D02*
X12236729Y-11338008D01*
X12236729Y-11338008D02*
X12246253Y-11347531D01*
X12246253Y-11347531D02*
X12255777Y-11366579D01*
X12255777Y-11366579D02*
X12265301Y-11404674D01*
X12265301Y-11404674D02*
X12265301Y-11452293D01*
X12265301Y-11452293D02*
X12255777Y-11490388D01*
X12255777Y-11490388D02*
X12246253Y-11509436D01*
X12246253Y-11509436D02*
X12236729Y-11518960D01*
X12236729Y-11518960D02*
X12217682Y-11528484D01*
X12217682Y-11528484D02*
X12198634Y-11528484D01*
X12198634Y-11528484D02*
X12179586Y-11518960D01*
X12179586Y-11518960D02*
X12170063Y-11509436D01*
X12170063Y-11509436D02*
X12160539Y-11490388D01*
X12160539Y-11490388D02*
X12151015Y-11452293D01*
X12151015Y-11452293D02*
X12151015Y-11404674D01*
X12151015Y-11404674D02*
X12160539Y-11366579D01*
X12160539Y-11366579D02*
X12170063Y-11347531D01*
X12170063Y-11347531D02*
X12179586Y-11338008D01*
X12179586Y-11338008D02*
X12198634Y-11328484D01*
X12351015Y-11509436D02*
X12360539Y-11518960D01*
X12360539Y-11518960D02*
X12351015Y-11528484D01*
X12351015Y-11528484D02*
X12341491Y-11518960D01*
X12341491Y-11518960D02*
X12351015Y-11509436D01*
X12351015Y-11509436D02*
X12351015Y-11528484D01*
X12484348Y-11328484D02*
X12503396Y-11328484D01*
X12503396Y-11328484D02*
X12522444Y-11338008D01*
X12522444Y-11338008D02*
X12531967Y-11347531D01*
X12531967Y-11347531D02*
X12541491Y-11366579D01*
X12541491Y-11366579D02*
X12551015Y-11404674D01*
X12551015Y-11404674D02*
X12551015Y-11452293D01*
X12551015Y-11452293D02*
X12541491Y-11490388D01*
X12541491Y-11490388D02*
X12531967Y-11509436D01*
X12531967Y-11509436D02*
X12522444Y-11518960D01*
X12522444Y-11518960D02*
X12503396Y-11528484D01*
X12503396Y-11528484D02*
X12484348Y-11528484D01*
X12484348Y-11528484D02*
X12465301Y-11518960D01*
X12465301Y-11518960D02*
X12455777Y-11509436D01*
X12455777Y-11509436D02*
X12446253Y-11490388D01*
X12446253Y-11490388D02*
X12436729Y-11452293D01*
X12436729Y-11452293D02*
X12436729Y-11404674D01*
X12436729Y-11404674D02*
X12446253Y-11366579D01*
X12446253Y-11366579D02*
X12455777Y-11347531D01*
X12455777Y-11347531D02*
X12465301Y-11338008D01*
X12465301Y-11338008D02*
X12484348Y-11328484D01*
X12741491Y-11528484D02*
X12627206Y-11528484D01*
X12684348Y-11528484D02*
X12684348Y-11328484D01*
X12684348Y-11328484D02*
X12665301Y-11357055D01*
X12665301Y-11357055D02*
X12646253Y-11376103D01*
X12646253Y-11376103D02*
X12627206Y-11385627D01*
X12922444Y-11328484D02*
X12827206Y-11328484D01*
X12827206Y-11328484D02*
X12817682Y-11423722D01*
X12817682Y-11423722D02*
X12827206Y-11414198D01*
X12827206Y-11414198D02*
X12846253Y-11404674D01*
X12846253Y-11404674D02*
X12893872Y-11404674D01*
X12893872Y-11404674D02*
X12912920Y-11414198D01*
X12912920Y-11414198D02*
X12922444Y-11423722D01*
X12922444Y-11423722D02*
X12931967Y-11442769D01*
X12931967Y-11442769D02*
X12931967Y-11490388D01*
X12931967Y-11490388D02*
X12922444Y-11509436D01*
X12922444Y-11509436D02*
X12912920Y-11518960D01*
X12912920Y-11518960D02*
X12893872Y-11528484D01*
X12893872Y-11528484D02*
X12846253Y-11528484D01*
X12846253Y-11528484D02*
X12827206Y-11518960D01*
X12827206Y-11518960D02*
X12817682Y-11509436D01*
X12998634Y-11328484D02*
X13131967Y-11328484D01*
X13131967Y-11328484D02*
X13046253Y-11528484D01*
X13198634Y-11328484D02*
X13198634Y-11366579D01*
X13274825Y-11328484D02*
X13274825Y-11366579D01*
X13570063Y-11604674D02*
X13560539Y-11595150D01*
X13560539Y-11595150D02*
X13541491Y-11566579D01*
X13541491Y-11566579D02*
X13531968Y-11547531D01*
X13531968Y-11547531D02*
X13522444Y-11518960D01*
X13522444Y-11518960D02*
X13512920Y-11471341D01*
X13512920Y-11471341D02*
X13512920Y-11433246D01*
X13512920Y-11433246D02*
X13522444Y-11385627D01*
X13522444Y-11385627D02*
X13531968Y-11357055D01*
X13531968Y-11357055D02*
X13541491Y-11338008D01*
X13541491Y-11338008D02*
X13560539Y-11309436D01*
X13560539Y-11309436D02*
X13570063Y-11299912D01*
X13751015Y-11528484D02*
X13636729Y-11528484D01*
X13693872Y-11528484D02*
X13693872Y-11328484D01*
X13693872Y-11328484D02*
X13674825Y-11357055D01*
X13674825Y-11357055D02*
X13655777Y-11376103D01*
X13655777Y-11376103D02*
X13636729Y-11385627D01*
X13922444Y-11328484D02*
X13884348Y-11328484D01*
X13884348Y-11328484D02*
X13865301Y-11338008D01*
X13865301Y-11338008D02*
X13855777Y-11347531D01*
X13855777Y-11347531D02*
X13836729Y-11376103D01*
X13836729Y-11376103D02*
X13827206Y-11414198D01*
X13827206Y-11414198D02*
X13827206Y-11490388D01*
X13827206Y-11490388D02*
X13836729Y-11509436D01*
X13836729Y-11509436D02*
X13846253Y-11518960D01*
X13846253Y-11518960D02*
X13865301Y-11528484D01*
X13865301Y-11528484D02*
X13903396Y-11528484D01*
X13903396Y-11528484D02*
X13922444Y-11518960D01*
X13922444Y-11518960D02*
X13931968Y-11509436D01*
X13931968Y-11509436D02*
X13941491Y-11490388D01*
X13941491Y-11490388D02*
X13941491Y-11442769D01*
X13941491Y-11442769D02*
X13931968Y-11423722D01*
X13931968Y-11423722D02*
X13922444Y-11414198D01*
X13922444Y-11414198D02*
X13903396Y-11404674D01*
X13903396Y-11404674D02*
X13865301Y-11404674D01*
X13865301Y-11404674D02*
X13846253Y-11414198D01*
X13846253Y-11414198D02*
X13836729Y-11423722D01*
X13836729Y-11423722D02*
X13827206Y-11442769D01*
X14179587Y-11528484D02*
X14179587Y-11328484D01*
X14265301Y-11528484D02*
X14265301Y-11423722D01*
X14265301Y-11423722D02*
X14255777Y-11404674D01*
X14255777Y-11404674D02*
X14236730Y-11395150D01*
X14236730Y-11395150D02*
X14208158Y-11395150D01*
X14208158Y-11395150D02*
X14189110Y-11404674D01*
X14189110Y-11404674D02*
X14179587Y-11414198D01*
X14389110Y-11528484D02*
X14370063Y-11518960D01*
X14370063Y-11518960D02*
X14360539Y-11509436D01*
X14360539Y-11509436D02*
X14351015Y-11490388D01*
X14351015Y-11490388D02*
X14351015Y-11433246D01*
X14351015Y-11433246D02*
X14360539Y-11414198D01*
X14360539Y-11414198D02*
X14370063Y-11404674D01*
X14370063Y-11404674D02*
X14389110Y-11395150D01*
X14389110Y-11395150D02*
X14417682Y-11395150D01*
X14417682Y-11395150D02*
X14436730Y-11404674D01*
X14436730Y-11404674D02*
X14446253Y-11414198D01*
X14446253Y-11414198D02*
X14455777Y-11433246D01*
X14455777Y-11433246D02*
X14455777Y-11490388D01*
X14455777Y-11490388D02*
X14446253Y-11509436D01*
X14446253Y-11509436D02*
X14436730Y-11518960D01*
X14436730Y-11518960D02*
X14417682Y-11528484D01*
X14417682Y-11528484D02*
X14389110Y-11528484D01*
X14570063Y-11528484D02*
X14551015Y-11518960D01*
X14551015Y-11518960D02*
X14541491Y-11499912D01*
X14541491Y-11499912D02*
X14541491Y-11328484D01*
X14722444Y-11518960D02*
X14703396Y-11528484D01*
X14703396Y-11528484D02*
X14665301Y-11528484D01*
X14665301Y-11528484D02*
X14646253Y-11518960D01*
X14646253Y-11518960D02*
X14636730Y-11499912D01*
X14636730Y-11499912D02*
X14636730Y-11423722D01*
X14636730Y-11423722D02*
X14646253Y-11404674D01*
X14646253Y-11404674D02*
X14665301Y-11395150D01*
X14665301Y-11395150D02*
X14703396Y-11395150D01*
X14703396Y-11395150D02*
X14722444Y-11404674D01*
X14722444Y-11404674D02*
X14731968Y-11423722D01*
X14731968Y-11423722D02*
X14731968Y-11442769D01*
X14731968Y-11442769D02*
X14636730Y-11461817D01*
X14808158Y-11518960D02*
X14827206Y-11528484D01*
X14827206Y-11528484D02*
X14865301Y-11528484D01*
X14865301Y-11528484D02*
X14884349Y-11518960D01*
X14884349Y-11518960D02*
X14893872Y-11499912D01*
X14893872Y-11499912D02*
X14893872Y-11490388D01*
X14893872Y-11490388D02*
X14884349Y-11471341D01*
X14884349Y-11471341D02*
X14865301Y-11461817D01*
X14865301Y-11461817D02*
X14836730Y-11461817D01*
X14836730Y-11461817D02*
X14817682Y-11452293D01*
X14817682Y-11452293D02*
X14808158Y-11433246D01*
X14808158Y-11433246D02*
X14808158Y-11423722D01*
X14808158Y-11423722D02*
X14817682Y-11404674D01*
X14817682Y-11404674D02*
X14836730Y-11395150D01*
X14836730Y-11395150D02*
X14865301Y-11395150D01*
X14865301Y-11395150D02*
X14884349Y-11404674D01*
X14960539Y-11604674D02*
X14970063Y-11595150D01*
X14970063Y-11595150D02*
X14989111Y-11566579D01*
X14989111Y-11566579D02*
X14998634Y-11547531D01*
X14998634Y-11547531D02*
X15008158Y-11518960D01*
X15008158Y-11518960D02*
X15017682Y-11471341D01*
X15017682Y-11471341D02*
X15017682Y-11433246D01*
X15017682Y-11433246D02*
X15008158Y-11385627D01*
X15008158Y-11385627D02*
X14998634Y-11357055D01*
X14998634Y-11357055D02*
X14989111Y-11338008D01*
X14989111Y-11338008D02*
X14970063Y-11309436D01*
X14970063Y-11309436D02*
X14960539Y-11299912D01*
D10*
X9965000Y-11731000D02*
X9995000Y-11701000D01*
X9965000Y-11671000D01*
X9935000Y-11701000D01*
X9965000Y-11731000D01*
D11*
X10293872Y-11592484D02*
X10312920Y-11592484D01*
X10312920Y-11592484D02*
X10331967Y-11602008D01*
X10331967Y-11602008D02*
X10341491Y-11611531D01*
X10341491Y-11611531D02*
X10351015Y-11630579D01*
X10351015Y-11630579D02*
X10360539Y-11668674D01*
X10360539Y-11668674D02*
X10360539Y-11716293D01*
X10360539Y-11716293D02*
X10351015Y-11754388D01*
X10351015Y-11754388D02*
X10341491Y-11773436D01*
X10341491Y-11773436D02*
X10331967Y-11782960D01*
X10331967Y-11782960D02*
X10312920Y-11792484D01*
X10312920Y-11792484D02*
X10293872Y-11792484D01*
X10293872Y-11792484D02*
X10274824Y-11782960D01*
X10274824Y-11782960D02*
X10265301Y-11773436D01*
X10265301Y-11773436D02*
X10255777Y-11754388D01*
X10255777Y-11754388D02*
X10246253Y-11716293D01*
X10246253Y-11716293D02*
X10246253Y-11668674D01*
X10246253Y-11668674D02*
X10255777Y-11630579D01*
X10255777Y-11630579D02*
X10265301Y-11611531D01*
X10265301Y-11611531D02*
X10274824Y-11602008D01*
X10274824Y-11602008D02*
X10293872Y-11592484D01*
X10446253Y-11773436D02*
X10455777Y-11782960D01*
X10455777Y-11782960D02*
X10446253Y-11792484D01*
X10446253Y-11792484D02*
X10436729Y-11782960D01*
X10436729Y-11782960D02*
X10446253Y-11773436D01*
X10446253Y-11773436D02*
X10446253Y-11792484D01*
X10627205Y-11592484D02*
X10589110Y-11592484D01*
X10589110Y-11592484D02*
X10570063Y-11602008D01*
X10570063Y-11602008D02*
X10560539Y-11611531D01*
X10560539Y-11611531D02*
X10541491Y-11640103D01*
X10541491Y-11640103D02*
X10531967Y-11678198D01*
X10531967Y-11678198D02*
X10531967Y-11754388D01*
X10531967Y-11754388D02*
X10541491Y-11773436D01*
X10541491Y-11773436D02*
X10551015Y-11782960D01*
X10551015Y-11782960D02*
X10570063Y-11792484D01*
X10570063Y-11792484D02*
X10608158Y-11792484D01*
X10608158Y-11792484D02*
X10627205Y-11782960D01*
X10627205Y-11782960D02*
X10636729Y-11773436D01*
X10636729Y-11773436D02*
X10646253Y-11754388D01*
X10646253Y-11754388D02*
X10646253Y-11706769D01*
X10646253Y-11706769D02*
X10636729Y-11687722D01*
X10636729Y-11687722D02*
X10627205Y-11678198D01*
X10627205Y-11678198D02*
X10608158Y-11668674D01*
X10608158Y-11668674D02*
X10570063Y-11668674D01*
X10570063Y-11668674D02*
X10551015Y-11678198D01*
X10551015Y-11678198D02*
X10541491Y-11687722D01*
X10541491Y-11687722D02*
X10531967Y-11706769D01*
X10770063Y-11592484D02*
X10789110Y-11592484D01*
X10789110Y-11592484D02*
X10808158Y-11602008D01*
X10808158Y-11602008D02*
X10817682Y-11611531D01*
X10817682Y-11611531D02*
X10827205Y-11630579D01*
X10827205Y-11630579D02*
X10836729Y-11668674D01*
X10836729Y-11668674D02*
X10836729Y-11716293D01*
X10836729Y-11716293D02*
X10827205Y-11754388D01*
X10827205Y-11754388D02*
X10817682Y-11773436D01*
X10817682Y-11773436D02*
X10808158Y-11782960D01*
X10808158Y-11782960D02*
X10789110Y-11792484D01*
X10789110Y-11792484D02*
X10770063Y-11792484D01*
X10770063Y-11792484D02*
X10751015Y-11782960D01*
X10751015Y-11782960D02*
X10741491Y-11773436D01*
X10741491Y-11773436D02*
X10731967Y-11754388D01*
X10731967Y-11754388D02*
X10722444Y-11716293D01*
X10722444Y-11716293D02*
X10722444Y-11668674D01*
X10722444Y-11668674D02*
X10731967Y-11630579D01*
X10731967Y-11630579D02*
X10741491Y-11611531D01*
X10741491Y-11611531D02*
X10751015Y-11602008D01*
X10751015Y-11602008D02*
X10770063Y-11592484D01*
X10960539Y-11592484D02*
X10979586Y-11592484D01*
X10979586Y-11592484D02*
X10998634Y-11602008D01*
X10998634Y-11602008D02*
X11008158Y-11611531D01*
X11008158Y-11611531D02*
X11017682Y-11630579D01*
X11017682Y-11630579D02*
X11027205Y-11668674D01*
X11027205Y-11668674D02*
X11027205Y-11716293D01*
X11027205Y-11716293D02*
X11017682Y-11754388D01*
X11017682Y-11754388D02*
X11008158Y-11773436D01*
X11008158Y-11773436D02*
X10998634Y-11782960D01*
X10998634Y-11782960D02*
X10979586Y-11792484D01*
X10979586Y-11792484D02*
X10960539Y-11792484D01*
X10960539Y-11792484D02*
X10941491Y-11782960D01*
X10941491Y-11782960D02*
X10931967Y-11773436D01*
X10931967Y-11773436D02*
X10922444Y-11754388D01*
X10922444Y-11754388D02*
X10912920Y-11716293D01*
X10912920Y-11716293D02*
X10912920Y-11668674D01*
X10912920Y-11668674D02*
X10922444Y-11630579D01*
X10922444Y-11630579D02*
X10931967Y-11611531D01*
X10931967Y-11611531D02*
X10941491Y-11602008D01*
X10941491Y-11602008D02*
X10960539Y-11592484D01*
X11112920Y-11792484D02*
X11112920Y-11659150D01*
X11112920Y-11678198D02*
X11122444Y-11668674D01*
X11122444Y-11668674D02*
X11141491Y-11659150D01*
X11141491Y-11659150D02*
X11170063Y-11659150D01*
X11170063Y-11659150D02*
X11189110Y-11668674D01*
X11189110Y-11668674D02*
X11198634Y-11687722D01*
X11198634Y-11687722D02*
X11198634Y-11792484D01*
X11198634Y-11687722D02*
X11208158Y-11668674D01*
X11208158Y-11668674D02*
X11227205Y-11659150D01*
X11227205Y-11659150D02*
X11255777Y-11659150D01*
X11255777Y-11659150D02*
X11274824Y-11668674D01*
X11274824Y-11668674D02*
X11284348Y-11687722D01*
X11284348Y-11687722D02*
X11284348Y-11792484D01*
X11379586Y-11792484D02*
X11379586Y-11659150D01*
X11379586Y-11678198D02*
X11389110Y-11668674D01*
X11389110Y-11668674D02*
X11408158Y-11659150D01*
X11408158Y-11659150D02*
X11436729Y-11659150D01*
X11436729Y-11659150D02*
X11455777Y-11668674D01*
X11455777Y-11668674D02*
X11465301Y-11687722D01*
X11465301Y-11687722D02*
X11465301Y-11792484D01*
X11465301Y-11687722D02*
X11474824Y-11668674D01*
X11474824Y-11668674D02*
X11493872Y-11659150D01*
X11493872Y-11659150D02*
X11522443Y-11659150D01*
X11522443Y-11659150D02*
X11541491Y-11668674D01*
X11541491Y-11668674D02*
X11551015Y-11687722D01*
X11551015Y-11687722D02*
X11551015Y-11792484D01*
X11941491Y-11582960D02*
X11770063Y-11840103D01*
X12198634Y-11592484D02*
X12217682Y-11592484D01*
X12217682Y-11592484D02*
X12236729Y-11602008D01*
X12236729Y-11602008D02*
X12246253Y-11611531D01*
X12246253Y-11611531D02*
X12255777Y-11630579D01*
X12255777Y-11630579D02*
X12265301Y-11668674D01*
X12265301Y-11668674D02*
X12265301Y-11716293D01*
X12265301Y-11716293D02*
X12255777Y-11754388D01*
X12255777Y-11754388D02*
X12246253Y-11773436D01*
X12246253Y-11773436D02*
X12236729Y-11782960D01*
X12236729Y-11782960D02*
X12217682Y-11792484D01*
X12217682Y-11792484D02*
X12198634Y-11792484D01*
X12198634Y-11792484D02*
X12179586Y-11782960D01*
X12179586Y-11782960D02*
X12170063Y-11773436D01*
X12170063Y-11773436D02*
X12160539Y-11754388D01*
X12160539Y-11754388D02*
X12151015Y-11716293D01*
X12151015Y-11716293D02*
X12151015Y-11668674D01*
X12151015Y-11668674D02*
X12160539Y-11630579D01*
X12160539Y-11630579D02*
X12170063Y-11611531D01*
X12170063Y-11611531D02*
X12179586Y-11602008D01*
X12179586Y-11602008D02*
X12198634Y-11592484D01*
X12351015Y-11773436D02*
X12360539Y-11782960D01*
X12360539Y-11782960D02*
X12351015Y-11792484D01*
X12351015Y-11792484D02*
X12341491Y-11782960D01*
X12341491Y-11782960D02*
X12351015Y-11773436D01*
X12351015Y-11773436D02*
X12351015Y-11792484D01*
X12484348Y-11592484D02*
X12503396Y-11592484D01*
X12503396Y-11592484D02*
X12522444Y-11602008D01*
X12522444Y-11602008D02*
X12531967Y-11611531D01*
X12531967Y-11611531D02*
X12541491Y-11630579D01*
X12541491Y-11630579D02*
X12551015Y-11668674D01*
X12551015Y-11668674D02*
X12551015Y-11716293D01*
X12551015Y-11716293D02*
X12541491Y-11754388D01*
X12541491Y-11754388D02*
X12531967Y-11773436D01*
X12531967Y-11773436D02*
X12522444Y-11782960D01*
X12522444Y-11782960D02*
X12503396Y-11792484D01*
X12503396Y-11792484D02*
X12484348Y-11792484D01*
X12484348Y-11792484D02*
X12465301Y-11782960D01*
X12465301Y-11782960D02*
X12455777Y-11773436D01*
X12455777Y-11773436D02*
X12446253Y-11754388D01*
X12446253Y-11754388D02*
X12436729Y-11716293D01*
X12436729Y-11716293D02*
X12436729Y-11668674D01*
X12436729Y-11668674D02*
X12446253Y-11630579D01*
X12446253Y-11630579D02*
X12455777Y-11611531D01*
X12455777Y-11611531D02*
X12465301Y-11602008D01*
X12465301Y-11602008D02*
X12484348Y-11592484D01*
X12627206Y-11611531D02*
X12636729Y-11602008D01*
X12636729Y-11602008D02*
X12655777Y-11592484D01*
X12655777Y-11592484D02*
X12703396Y-11592484D01*
X12703396Y-11592484D02*
X12722444Y-11602008D01*
X12722444Y-11602008D02*
X12731967Y-11611531D01*
X12731967Y-11611531D02*
X12741491Y-11630579D01*
X12741491Y-11630579D02*
X12741491Y-11649627D01*
X12741491Y-11649627D02*
X12731967Y-11678198D01*
X12731967Y-11678198D02*
X12617682Y-11792484D01*
X12617682Y-11792484D02*
X12741491Y-11792484D01*
X12808158Y-11592484D02*
X12931967Y-11592484D01*
X12931967Y-11592484D02*
X12865301Y-11668674D01*
X12865301Y-11668674D02*
X12893872Y-11668674D01*
X12893872Y-11668674D02*
X12912920Y-11678198D01*
X12912920Y-11678198D02*
X12922444Y-11687722D01*
X12922444Y-11687722D02*
X12931967Y-11706769D01*
X12931967Y-11706769D02*
X12931967Y-11754388D01*
X12931967Y-11754388D02*
X12922444Y-11773436D01*
X12922444Y-11773436D02*
X12912920Y-11782960D01*
X12912920Y-11782960D02*
X12893872Y-11792484D01*
X12893872Y-11792484D02*
X12836729Y-11792484D01*
X12836729Y-11792484D02*
X12817682Y-11782960D01*
X12817682Y-11782960D02*
X12808158Y-11773436D01*
X13103396Y-11592484D02*
X13065301Y-11592484D01*
X13065301Y-11592484D02*
X13046253Y-11602008D01*
X13046253Y-11602008D02*
X13036729Y-11611531D01*
X13036729Y-11611531D02*
X13017682Y-11640103D01*
X13017682Y-11640103D02*
X13008158Y-11678198D01*
X13008158Y-11678198D02*
X13008158Y-11754388D01*
X13008158Y-11754388D02*
X13017682Y-11773436D01*
X13017682Y-11773436D02*
X13027206Y-11782960D01*
X13027206Y-11782960D02*
X13046253Y-11792484D01*
X13046253Y-11792484D02*
X13084348Y-11792484D01*
X13084348Y-11792484D02*
X13103396Y-11782960D01*
X13103396Y-11782960D02*
X13112920Y-11773436D01*
X13112920Y-11773436D02*
X13122444Y-11754388D01*
X13122444Y-11754388D02*
X13122444Y-11706769D01*
X13122444Y-11706769D02*
X13112920Y-11687722D01*
X13112920Y-11687722D02*
X13103396Y-11678198D01*
X13103396Y-11678198D02*
X13084348Y-11668674D01*
X13084348Y-11668674D02*
X13046253Y-11668674D01*
X13046253Y-11668674D02*
X13027206Y-11678198D01*
X13027206Y-11678198D02*
X13017682Y-11687722D01*
X13017682Y-11687722D02*
X13008158Y-11706769D01*
X13198634Y-11592484D02*
X13198634Y-11630579D01*
X13274825Y-11592484D02*
X13274825Y-11630579D01*
X13570063Y-11868674D02*
X13560539Y-11859150D01*
X13560539Y-11859150D02*
X13541491Y-11830579D01*
X13541491Y-11830579D02*
X13531968Y-11811531D01*
X13531968Y-11811531D02*
X13522444Y-11782960D01*
X13522444Y-11782960D02*
X13512920Y-11735341D01*
X13512920Y-11735341D02*
X13512920Y-11697246D01*
X13512920Y-11697246D02*
X13522444Y-11649627D01*
X13522444Y-11649627D02*
X13531968Y-11621055D01*
X13531968Y-11621055D02*
X13541491Y-11602008D01*
X13541491Y-11602008D02*
X13560539Y-11573436D01*
X13560539Y-11573436D02*
X13570063Y-11563912D01*
X13684348Y-11592484D02*
X13703396Y-11592484D01*
X13703396Y-11592484D02*
X13722444Y-11602008D01*
X13722444Y-11602008D02*
X13731968Y-11611531D01*
X13731968Y-11611531D02*
X13741491Y-11630579D01*
X13741491Y-11630579D02*
X13751015Y-11668674D01*
X13751015Y-11668674D02*
X13751015Y-11716293D01*
X13751015Y-11716293D02*
X13741491Y-11754388D01*
X13741491Y-11754388D02*
X13731968Y-11773436D01*
X13731968Y-11773436D02*
X13722444Y-11782960D01*
X13722444Y-11782960D02*
X13703396Y-11792484D01*
X13703396Y-11792484D02*
X13684348Y-11792484D01*
X13684348Y-11792484D02*
X13665301Y-11782960D01*
X13665301Y-11782960D02*
X13655777Y-11773436D01*
X13655777Y-11773436D02*
X13646253Y-11754388D01*
X13646253Y-11754388D02*
X13636729Y-11716293D01*
X13636729Y-11716293D02*
X13636729Y-11668674D01*
X13636729Y-11668674D02*
X13646253Y-11630579D01*
X13646253Y-11630579D02*
X13655777Y-11611531D01*
X13655777Y-11611531D02*
X13665301Y-11602008D01*
X13665301Y-11602008D02*
X13684348Y-11592484D01*
X13989110Y-11792484D02*
X13989110Y-11592484D01*
X14074825Y-11792484D02*
X14074825Y-11687722D01*
X14074825Y-11687722D02*
X14065301Y-11668674D01*
X14065301Y-11668674D02*
X14046253Y-11659150D01*
X14046253Y-11659150D02*
X14017682Y-11659150D01*
X14017682Y-11659150D02*
X13998634Y-11668674D01*
X13998634Y-11668674D02*
X13989110Y-11678198D01*
X14198634Y-11792484D02*
X14179587Y-11782960D01*
X14179587Y-11782960D02*
X14170063Y-11773436D01*
X14170063Y-11773436D02*
X14160539Y-11754388D01*
X14160539Y-11754388D02*
X14160539Y-11697246D01*
X14160539Y-11697246D02*
X14170063Y-11678198D01*
X14170063Y-11678198D02*
X14179587Y-11668674D01*
X14179587Y-11668674D02*
X14198634Y-11659150D01*
X14198634Y-11659150D02*
X14227206Y-11659150D01*
X14227206Y-11659150D02*
X14246253Y-11668674D01*
X14246253Y-11668674D02*
X14255777Y-11678198D01*
X14255777Y-11678198D02*
X14265301Y-11697246D01*
X14265301Y-11697246D02*
X14265301Y-11754388D01*
X14265301Y-11754388D02*
X14255777Y-11773436D01*
X14255777Y-11773436D02*
X14246253Y-11782960D01*
X14246253Y-11782960D02*
X14227206Y-11792484D01*
X14227206Y-11792484D02*
X14198634Y-11792484D01*
X14379587Y-11792484D02*
X14360539Y-11782960D01*
X14360539Y-11782960D02*
X14351015Y-11763912D01*
X14351015Y-11763912D02*
X14351015Y-11592484D01*
X14531968Y-11782960D02*
X14512920Y-11792484D01*
X14512920Y-11792484D02*
X14474825Y-11792484D01*
X14474825Y-11792484D02*
X14455777Y-11782960D01*
X14455777Y-11782960D02*
X14446253Y-11763912D01*
X14446253Y-11763912D02*
X14446253Y-11687722D01*
X14446253Y-11687722D02*
X14455777Y-11668674D01*
X14455777Y-11668674D02*
X14474825Y-11659150D01*
X14474825Y-11659150D02*
X14512920Y-11659150D01*
X14512920Y-11659150D02*
X14531968Y-11668674D01*
X14531968Y-11668674D02*
X14541491Y-11687722D01*
X14541491Y-11687722D02*
X14541491Y-11706769D01*
X14541491Y-11706769D02*
X14446253Y-11725817D01*
X14617682Y-11782960D02*
X14636730Y-11792484D01*
X14636730Y-11792484D02*
X14674825Y-11792484D01*
X14674825Y-11792484D02*
X14693872Y-11782960D01*
X14693872Y-11782960D02*
X14703396Y-11763912D01*
X14703396Y-11763912D02*
X14703396Y-11754388D01*
X14703396Y-11754388D02*
X14693872Y-11735341D01*
X14693872Y-11735341D02*
X14674825Y-11725817D01*
X14674825Y-11725817D02*
X14646253Y-11725817D01*
X14646253Y-11725817D02*
X14627206Y-11716293D01*
X14627206Y-11716293D02*
X14617682Y-11697246D01*
X14617682Y-11697246D02*
X14617682Y-11687722D01*
X14617682Y-11687722D02*
X14627206Y-11668674D01*
X14627206Y-11668674D02*
X14646253Y-11659150D01*
X14646253Y-11659150D02*
X14674825Y-11659150D01*
X14674825Y-11659150D02*
X14693872Y-11668674D01*
X14941492Y-11716293D02*
X15093873Y-11716293D01*
X15017682Y-11792484D02*
X15017682Y-11640103D01*
X15427206Y-11659150D02*
X15427206Y-11792484D01*
X15379587Y-11582960D02*
X15331968Y-11725817D01*
X15331968Y-11725817D02*
X15455777Y-11725817D01*
X15674825Y-11782960D02*
X15693873Y-11792484D01*
X15693873Y-11792484D02*
X15731968Y-11792484D01*
X15731968Y-11792484D02*
X15751015Y-11782960D01*
X15751015Y-11782960D02*
X15760539Y-11763912D01*
X15760539Y-11763912D02*
X15760539Y-11754388D01*
X15760539Y-11754388D02*
X15751015Y-11735341D01*
X15751015Y-11735341D02*
X15731968Y-11725817D01*
X15731968Y-11725817D02*
X15703396Y-11725817D01*
X15703396Y-11725817D02*
X15684349Y-11716293D01*
X15684349Y-11716293D02*
X15674825Y-11697246D01*
X15674825Y-11697246D02*
X15674825Y-11687722D01*
X15674825Y-11687722D02*
X15684349Y-11668674D01*
X15684349Y-11668674D02*
X15703396Y-11659150D01*
X15703396Y-11659150D02*
X15731968Y-11659150D01*
X15731968Y-11659150D02*
X15751015Y-11668674D01*
X15874825Y-11792484D02*
X15855777Y-11782960D01*
X15855777Y-11782960D02*
X15846254Y-11763912D01*
X15846254Y-11763912D02*
X15846254Y-11592484D01*
X15979587Y-11792484D02*
X15960539Y-11782960D01*
X15960539Y-11782960D02*
X15951015Y-11773436D01*
X15951015Y-11773436D02*
X15941492Y-11754388D01*
X15941492Y-11754388D02*
X15941492Y-11697246D01*
X15941492Y-11697246D02*
X15951015Y-11678198D01*
X15951015Y-11678198D02*
X15960539Y-11668674D01*
X15960539Y-11668674D02*
X15979587Y-11659150D01*
X15979587Y-11659150D02*
X16008158Y-11659150D01*
X16008158Y-11659150D02*
X16027206Y-11668674D01*
X16027206Y-11668674D02*
X16036730Y-11678198D01*
X16036730Y-11678198D02*
X16046254Y-11697246D01*
X16046254Y-11697246D02*
X16046254Y-11754388D01*
X16046254Y-11754388D02*
X16036730Y-11773436D01*
X16036730Y-11773436D02*
X16027206Y-11782960D01*
X16027206Y-11782960D02*
X16008158Y-11792484D01*
X16008158Y-11792484D02*
X15979587Y-11792484D01*
X16103396Y-11659150D02*
X16179587Y-11659150D01*
X16131968Y-11592484D02*
X16131968Y-11763912D01*
X16131968Y-11763912D02*
X16141492Y-11782960D01*
X16141492Y-11782960D02*
X16160539Y-11792484D01*
X16160539Y-11792484D02*
X16179587Y-11792484D01*
X16236730Y-11782960D02*
X16255777Y-11792484D01*
X16255777Y-11792484D02*
X16293873Y-11792484D01*
X16293873Y-11792484D02*
X16312920Y-11782960D01*
X16312920Y-11782960D02*
X16322444Y-11763912D01*
X16322444Y-11763912D02*
X16322444Y-11754388D01*
X16322444Y-11754388D02*
X16312920Y-11735341D01*
X16312920Y-11735341D02*
X16293873Y-11725817D01*
X16293873Y-11725817D02*
X16265301Y-11725817D01*
X16265301Y-11725817D02*
X16246254Y-11716293D01*
X16246254Y-11716293D02*
X16236730Y-11697246D01*
X16236730Y-11697246D02*
X16236730Y-11687722D01*
X16236730Y-11687722D02*
X16246254Y-11668674D01*
X16246254Y-11668674D02*
X16265301Y-11659150D01*
X16265301Y-11659150D02*
X16293873Y-11659150D01*
X16293873Y-11659150D02*
X16312920Y-11668674D01*
X16389111Y-11868674D02*
X16398635Y-11859150D01*
X16398635Y-11859150D02*
X16417682Y-11830579D01*
X16417682Y-11830579D02*
X16427206Y-11811531D01*
X16427206Y-11811531D02*
X16436730Y-11782960D01*
X16436730Y-11782960D02*
X16446254Y-11735341D01*
X16446254Y-11735341D02*
X16446254Y-11697246D01*
X16446254Y-11697246D02*
X16436730Y-11649627D01*
X16436730Y-11649627D02*
X16427206Y-11621055D01*
X16427206Y-11621055D02*
X16417682Y-11602008D01*
X16417682Y-11602008D02*
X16398635Y-11573436D01*
X16398635Y-11573436D02*
X16389111Y-11563912D01*
D12*
X9893400Y-11914200D02*
X9995000Y-12015800D01*
X9995000Y-11914200D02*
X9893400Y-12015800D01*
X9995000Y-11965000D02*
G75*
G02*
X9893400Y-11965000I-50800J0D01*
G01*
X9893400Y-11965000D02*
G75*
G02*
X9995000Y-11965000I50800J0D01*
G01*
D11*
X10360539Y-12056484D02*
X10246253Y-12056484D01*
X10303396Y-12056484D02*
X10303396Y-11856484D01*
X10303396Y-11856484D02*
X10284348Y-11885055D01*
X10284348Y-11885055D02*
X10265301Y-11904103D01*
X10265301Y-11904103D02*
X10246253Y-11913627D01*
X10446253Y-12037436D02*
X10455777Y-12046960D01*
X10455777Y-12046960D02*
X10446253Y-12056484D01*
X10446253Y-12056484D02*
X10436729Y-12046960D01*
X10436729Y-12046960D02*
X10446253Y-12037436D01*
X10446253Y-12037436D02*
X10446253Y-12056484D01*
X10579586Y-11856484D02*
X10598634Y-11856484D01*
X10598634Y-11856484D02*
X10617682Y-11866008D01*
X10617682Y-11866008D02*
X10627205Y-11875531D01*
X10627205Y-11875531D02*
X10636729Y-11894579D01*
X10636729Y-11894579D02*
X10646253Y-11932674D01*
X10646253Y-11932674D02*
X10646253Y-11980293D01*
X10646253Y-11980293D02*
X10636729Y-12018388D01*
X10636729Y-12018388D02*
X10627205Y-12037436D01*
X10627205Y-12037436D02*
X10617682Y-12046960D01*
X10617682Y-12046960D02*
X10598634Y-12056484D01*
X10598634Y-12056484D02*
X10579586Y-12056484D01*
X10579586Y-12056484D02*
X10560539Y-12046960D01*
X10560539Y-12046960D02*
X10551015Y-12037436D01*
X10551015Y-12037436D02*
X10541491Y-12018388D01*
X10541491Y-12018388D02*
X10531967Y-11980293D01*
X10531967Y-11980293D02*
X10531967Y-11932674D01*
X10531967Y-11932674D02*
X10541491Y-11894579D01*
X10541491Y-11894579D02*
X10551015Y-11875531D01*
X10551015Y-11875531D02*
X10560539Y-11866008D01*
X10560539Y-11866008D02*
X10579586Y-11856484D01*
X10836729Y-12056484D02*
X10722444Y-12056484D01*
X10779586Y-12056484D02*
X10779586Y-11856484D01*
X10779586Y-11856484D02*
X10760539Y-11885055D01*
X10760539Y-11885055D02*
X10741491Y-11904103D01*
X10741491Y-11904103D02*
X10722444Y-11913627D01*
X11008158Y-11856484D02*
X10970063Y-11856484D01*
X10970063Y-11856484D02*
X10951015Y-11866008D01*
X10951015Y-11866008D02*
X10941491Y-11875531D01*
X10941491Y-11875531D02*
X10922444Y-11904103D01*
X10922444Y-11904103D02*
X10912920Y-11942198D01*
X10912920Y-11942198D02*
X10912920Y-12018388D01*
X10912920Y-12018388D02*
X10922444Y-12037436D01*
X10922444Y-12037436D02*
X10931967Y-12046960D01*
X10931967Y-12046960D02*
X10951015Y-12056484D01*
X10951015Y-12056484D02*
X10989110Y-12056484D01*
X10989110Y-12056484D02*
X11008158Y-12046960D01*
X11008158Y-12046960D02*
X11017682Y-12037436D01*
X11017682Y-12037436D02*
X11027205Y-12018388D01*
X11027205Y-12018388D02*
X11027205Y-11970769D01*
X11027205Y-11970769D02*
X11017682Y-11951722D01*
X11017682Y-11951722D02*
X11008158Y-11942198D01*
X11008158Y-11942198D02*
X10989110Y-11932674D01*
X10989110Y-11932674D02*
X10951015Y-11932674D01*
X10951015Y-11932674D02*
X10931967Y-11942198D01*
X10931967Y-11942198D02*
X10922444Y-11951722D01*
X10922444Y-11951722D02*
X10912920Y-11970769D01*
X11112920Y-12056484D02*
X11112920Y-11923150D01*
X11112920Y-11942198D02*
X11122444Y-11932674D01*
X11122444Y-11932674D02*
X11141491Y-11923150D01*
X11141491Y-11923150D02*
X11170063Y-11923150D01*
X11170063Y-11923150D02*
X11189110Y-11932674D01*
X11189110Y-11932674D02*
X11198634Y-11951722D01*
X11198634Y-11951722D02*
X11198634Y-12056484D01*
X11198634Y-11951722D02*
X11208158Y-11932674D01*
X11208158Y-11932674D02*
X11227205Y-11923150D01*
X11227205Y-11923150D02*
X11255777Y-11923150D01*
X11255777Y-11923150D02*
X11274824Y-11932674D01*
X11274824Y-11932674D02*
X11284348Y-11951722D01*
X11284348Y-11951722D02*
X11284348Y-12056484D01*
X11379586Y-12056484D02*
X11379586Y-11923150D01*
X11379586Y-11942198D02*
X11389110Y-11932674D01*
X11389110Y-11932674D02*
X11408158Y-11923150D01*
X11408158Y-11923150D02*
X11436729Y-11923150D01*
X11436729Y-11923150D02*
X11455777Y-11932674D01*
X11455777Y-11932674D02*
X11465301Y-11951722D01*
X11465301Y-11951722D02*
X11465301Y-12056484D01*
X11465301Y-11951722D02*
X11474824Y-11932674D01*
X11474824Y-11932674D02*
X11493872Y-11923150D01*
X11493872Y-11923150D02*
X11522443Y-11923150D01*
X11522443Y-11923150D02*
X11541491Y-11932674D01*
X11541491Y-11932674D02*
X11551015Y-11951722D01*
X11551015Y-11951722D02*
X11551015Y-12056484D01*
X11941491Y-11846960D02*
X11770063Y-12104103D01*
X12198634Y-11856484D02*
X12217682Y-11856484D01*
X12217682Y-11856484D02*
X12236729Y-11866008D01*
X12236729Y-11866008D02*
X12246253Y-11875531D01*
X12246253Y-11875531D02*
X12255777Y-11894579D01*
X12255777Y-11894579D02*
X12265301Y-11932674D01*
X12265301Y-11932674D02*
X12265301Y-11980293D01*
X12265301Y-11980293D02*
X12255777Y-12018388D01*
X12255777Y-12018388D02*
X12246253Y-12037436D01*
X12246253Y-12037436D02*
X12236729Y-12046960D01*
X12236729Y-12046960D02*
X12217682Y-12056484D01*
X12217682Y-12056484D02*
X12198634Y-12056484D01*
X12198634Y-12056484D02*
X12179586Y-12046960D01*
X12179586Y-12046960D02*
X12170063Y-12037436D01*
X12170063Y-12037436D02*
X12160539Y-12018388D01*
X12160539Y-12018388D02*
X12151015Y-11980293D01*
X12151015Y-11980293D02*
X12151015Y-11932674D01*
X12151015Y-11932674D02*
X12160539Y-11894579D01*
X12160539Y-11894579D02*
X12170063Y-11875531D01*
X12170063Y-11875531D02*
X12179586Y-11866008D01*
X12179586Y-11866008D02*
X12198634Y-11856484D01*
X12351015Y-12037436D02*
X12360539Y-12046960D01*
X12360539Y-12046960D02*
X12351015Y-12056484D01*
X12351015Y-12056484D02*
X12341491Y-12046960D01*
X12341491Y-12046960D02*
X12351015Y-12037436D01*
X12351015Y-12037436D02*
X12351015Y-12056484D01*
X12484348Y-11856484D02*
X12503396Y-11856484D01*
X12503396Y-11856484D02*
X12522444Y-11866008D01*
X12522444Y-11866008D02*
X12531967Y-11875531D01*
X12531967Y-11875531D02*
X12541491Y-11894579D01*
X12541491Y-11894579D02*
X12551015Y-11932674D01*
X12551015Y-11932674D02*
X12551015Y-11980293D01*
X12551015Y-11980293D02*
X12541491Y-12018388D01*
X12541491Y-12018388D02*
X12531967Y-12037436D01*
X12531967Y-12037436D02*
X12522444Y-12046960D01*
X12522444Y-12046960D02*
X12503396Y-12056484D01*
X12503396Y-12056484D02*
X12484348Y-12056484D01*
X12484348Y-12056484D02*
X12465301Y-12046960D01*
X12465301Y-12046960D02*
X12455777Y-12037436D01*
X12455777Y-12037436D02*
X12446253Y-12018388D01*
X12446253Y-12018388D02*
X12436729Y-11980293D01*
X12436729Y-11980293D02*
X12436729Y-11932674D01*
X12436729Y-11932674D02*
X12446253Y-11894579D01*
X12446253Y-11894579D02*
X12455777Y-11875531D01*
X12455777Y-11875531D02*
X12465301Y-11866008D01*
X12465301Y-11866008D02*
X12484348Y-11856484D01*
X12722444Y-11923150D02*
X12722444Y-12056484D01*
X12674825Y-11846960D02*
X12627206Y-11989817D01*
X12627206Y-11989817D02*
X12751015Y-11989817D01*
X12865301Y-11856484D02*
X12884348Y-11856484D01*
X12884348Y-11856484D02*
X12903396Y-11866008D01*
X12903396Y-11866008D02*
X12912920Y-11875531D01*
X12912920Y-11875531D02*
X12922444Y-11894579D01*
X12922444Y-11894579D02*
X12931967Y-11932674D01*
X12931967Y-11932674D02*
X12931967Y-11980293D01*
X12931967Y-11980293D02*
X12922444Y-12018388D01*
X12922444Y-12018388D02*
X12912920Y-12037436D01*
X12912920Y-12037436D02*
X12903396Y-12046960D01*
X12903396Y-12046960D02*
X12884348Y-12056484D01*
X12884348Y-12056484D02*
X12865301Y-12056484D01*
X12865301Y-12056484D02*
X12846253Y-12046960D01*
X12846253Y-12046960D02*
X12836729Y-12037436D01*
X12836729Y-12037436D02*
X12827206Y-12018388D01*
X12827206Y-12018388D02*
X12817682Y-11980293D01*
X12817682Y-11980293D02*
X12817682Y-11932674D01*
X12817682Y-11932674D02*
X12827206Y-11894579D01*
X12827206Y-11894579D02*
X12836729Y-11875531D01*
X12836729Y-11875531D02*
X12846253Y-11866008D01*
X12846253Y-11866008D02*
X12865301Y-11856484D01*
X13055777Y-11856484D02*
X13074825Y-11856484D01*
X13074825Y-11856484D02*
X13093872Y-11866008D01*
X13093872Y-11866008D02*
X13103396Y-11875531D01*
X13103396Y-11875531D02*
X13112920Y-11894579D01*
X13112920Y-11894579D02*
X13122444Y-11932674D01*
X13122444Y-11932674D02*
X13122444Y-11980293D01*
X13122444Y-11980293D02*
X13112920Y-12018388D01*
X13112920Y-12018388D02*
X13103396Y-12037436D01*
X13103396Y-12037436D02*
X13093872Y-12046960D01*
X13093872Y-12046960D02*
X13074825Y-12056484D01*
X13074825Y-12056484D02*
X13055777Y-12056484D01*
X13055777Y-12056484D02*
X13036729Y-12046960D01*
X13036729Y-12046960D02*
X13027206Y-12037436D01*
X13027206Y-12037436D02*
X13017682Y-12018388D01*
X13017682Y-12018388D02*
X13008158Y-11980293D01*
X13008158Y-11980293D02*
X13008158Y-11932674D01*
X13008158Y-11932674D02*
X13017682Y-11894579D01*
X13017682Y-11894579D02*
X13027206Y-11875531D01*
X13027206Y-11875531D02*
X13036729Y-11866008D01*
X13036729Y-11866008D02*
X13055777Y-11856484D01*
X13198634Y-11856484D02*
X13198634Y-11894579D01*
X13274825Y-11856484D02*
X13274825Y-11894579D01*
X13570063Y-12132674D02*
X13560539Y-12123150D01*
X13560539Y-12123150D02*
X13541491Y-12094579D01*
X13541491Y-12094579D02*
X13531968Y-12075531D01*
X13531968Y-12075531D02*
X13522444Y-12046960D01*
X13522444Y-12046960D02*
X13512920Y-11999341D01*
X13512920Y-11999341D02*
X13512920Y-11961246D01*
X13512920Y-11961246D02*
X13522444Y-11913627D01*
X13522444Y-11913627D02*
X13531968Y-11885055D01*
X13531968Y-11885055D02*
X13541491Y-11866008D01*
X13541491Y-11866008D02*
X13560539Y-11837436D01*
X13560539Y-11837436D02*
X13570063Y-11827912D01*
X13731968Y-11856484D02*
X13693872Y-11856484D01*
X13693872Y-11856484D02*
X13674825Y-11866008D01*
X13674825Y-11866008D02*
X13665301Y-11875531D01*
X13665301Y-11875531D02*
X13646253Y-11904103D01*
X13646253Y-11904103D02*
X13636729Y-11942198D01*
X13636729Y-11942198D02*
X13636729Y-12018388D01*
X13636729Y-12018388D02*
X13646253Y-12037436D01*
X13646253Y-12037436D02*
X13655777Y-12046960D01*
X13655777Y-12046960D02*
X13674825Y-12056484D01*
X13674825Y-12056484D02*
X13712920Y-12056484D01*
X13712920Y-12056484D02*
X13731968Y-12046960D01*
X13731968Y-12046960D02*
X13741491Y-12037436D01*
X13741491Y-12037436D02*
X13751015Y-12018388D01*
X13751015Y-12018388D02*
X13751015Y-11970769D01*
X13751015Y-11970769D02*
X13741491Y-11951722D01*
X13741491Y-11951722D02*
X13731968Y-11942198D01*
X13731968Y-11942198D02*
X13712920Y-11932674D01*
X13712920Y-11932674D02*
X13674825Y-11932674D01*
X13674825Y-11932674D02*
X13655777Y-11942198D01*
X13655777Y-11942198D02*
X13646253Y-11951722D01*
X13646253Y-11951722D02*
X13636729Y-11970769D01*
X13989110Y-12056484D02*
X13989110Y-11856484D01*
X14074825Y-12056484D02*
X14074825Y-11951722D01*
X14074825Y-11951722D02*
X14065301Y-11932674D01*
X14065301Y-11932674D02*
X14046253Y-11923150D01*
X14046253Y-11923150D02*
X14017682Y-11923150D01*
X14017682Y-11923150D02*
X13998634Y-11932674D01*
X13998634Y-11932674D02*
X13989110Y-11942198D01*
X14198634Y-12056484D02*
X14179587Y-12046960D01*
X14179587Y-12046960D02*
X14170063Y-12037436D01*
X14170063Y-12037436D02*
X14160539Y-12018388D01*
X14160539Y-12018388D02*
X14160539Y-11961246D01*
X14160539Y-11961246D02*
X14170063Y-11942198D01*
X14170063Y-11942198D02*
X14179587Y-11932674D01*
X14179587Y-11932674D02*
X14198634Y-11923150D01*
X14198634Y-11923150D02*
X14227206Y-11923150D01*
X14227206Y-11923150D02*
X14246253Y-11932674D01*
X14246253Y-11932674D02*
X14255777Y-11942198D01*
X14255777Y-11942198D02*
X14265301Y-11961246D01*
X14265301Y-11961246D02*
X14265301Y-12018388D01*
X14265301Y-12018388D02*
X14255777Y-12037436D01*
X14255777Y-12037436D02*
X14246253Y-12046960D01*
X14246253Y-12046960D02*
X14227206Y-12056484D01*
X14227206Y-12056484D02*
X14198634Y-12056484D01*
X14379587Y-12056484D02*
X14360539Y-12046960D01*
X14360539Y-12046960D02*
X14351015Y-12027912D01*
X14351015Y-12027912D02*
X14351015Y-11856484D01*
X14531968Y-12046960D02*
X14512920Y-12056484D01*
X14512920Y-12056484D02*
X14474825Y-12056484D01*
X14474825Y-12056484D02*
X14455777Y-12046960D01*
X14455777Y-12046960D02*
X14446253Y-12027912D01*
X14446253Y-12027912D02*
X14446253Y-11951722D01*
X14446253Y-11951722D02*
X14455777Y-11932674D01*
X14455777Y-11932674D02*
X14474825Y-11923150D01*
X14474825Y-11923150D02*
X14512920Y-11923150D01*
X14512920Y-11923150D02*
X14531968Y-11932674D01*
X14531968Y-11932674D02*
X14541491Y-11951722D01*
X14541491Y-11951722D02*
X14541491Y-11970769D01*
X14541491Y-11970769D02*
X14446253Y-11989817D01*
X14617682Y-12046960D02*
X14636730Y-12056484D01*
X14636730Y-12056484D02*
X14674825Y-12056484D01*
X14674825Y-12056484D02*
X14693872Y-12046960D01*
X14693872Y-12046960D02*
X14703396Y-12027912D01*
X14703396Y-12027912D02*
X14703396Y-12018388D01*
X14703396Y-12018388D02*
X14693872Y-11999341D01*
X14693872Y-11999341D02*
X14674825Y-11989817D01*
X14674825Y-11989817D02*
X14646253Y-11989817D01*
X14646253Y-11989817D02*
X14627206Y-11980293D01*
X14627206Y-11980293D02*
X14617682Y-11961246D01*
X14617682Y-11961246D02*
X14617682Y-11951722D01*
X14617682Y-11951722D02*
X14627206Y-11932674D01*
X14627206Y-11932674D02*
X14646253Y-11923150D01*
X14646253Y-11923150D02*
X14674825Y-11923150D01*
X14674825Y-11923150D02*
X14693872Y-11932674D01*
X14770063Y-12132674D02*
X14779587Y-12123150D01*
X14779587Y-12123150D02*
X14798634Y-12094579D01*
X14798634Y-12094579D02*
X14808158Y-12075531D01*
X14808158Y-12075531D02*
X14817682Y-12046960D01*
X14817682Y-12046960D02*
X14827206Y-11999341D01*
X14827206Y-11999341D02*
X14827206Y-11961246D01*
X14827206Y-11961246D02*
X14817682Y-11913627D01*
X14817682Y-11913627D02*
X14808158Y-11885055D01*
X14808158Y-11885055D02*
X14798634Y-11866008D01*
X14798634Y-11866008D02*
X14779587Y-11837436D01*
X14779587Y-11837436D02*
X14770063Y-11827912D01*
M02*
