%TF.GenerationSoftware,KiCad,Pcbnew,8.0.3*%
%TF.CreationDate,2024-06-18T18:24:59+09:30*%
%TF.ProjectId,esp32c6-internal-module,65737033-3263-4362-9d69-6e7465726e61,1.0*%
%TF.SameCoordinates,Original*%
%TF.FileFunction,Other,Comment*%
%FSLAX46Y46*%
G04 Gerber Fmt 4.6, Leading zero omitted, Abs format (unit mm)*
G04 Created by KiCad (PCBNEW 8.0.3) date 2024-06-18 18:24:59*
%MOMM*%
%LPD*%
G01*
G04 APERTURE LIST*
%ADD10C,0.200000*%
%ADD11C,0.500000*%
G04 APERTURE END LIST*
D10*
X151312530Y-64675314D02*
X151407768Y-64580076D01*
X151407768Y-64580076D02*
X151598244Y-64484838D01*
X151598244Y-64484838D02*
X152074435Y-64484838D01*
X152074435Y-64484838D02*
X152264911Y-64580076D01*
X152264911Y-64580076D02*
X152360149Y-64675314D01*
X152360149Y-64675314D02*
X152455387Y-64865790D01*
X152455387Y-64865790D02*
X152455387Y-65056266D01*
X152455387Y-65056266D02*
X152360149Y-65341980D01*
X152360149Y-65341980D02*
X151217292Y-66484838D01*
X151217292Y-66484838D02*
X152455387Y-66484838D01*
X153312530Y-65722933D02*
X154836340Y-65722933D01*
X156074434Y-66484838D02*
X155883958Y-66389600D01*
X155883958Y-66389600D02*
X155788720Y-66199123D01*
X155788720Y-66199123D02*
X155788720Y-64484838D01*
X157693482Y-66484838D02*
X157693482Y-65437219D01*
X157693482Y-65437219D02*
X157598244Y-65246742D01*
X157598244Y-65246742D02*
X157407768Y-65151504D01*
X157407768Y-65151504D02*
X157026815Y-65151504D01*
X157026815Y-65151504D02*
X156836339Y-65246742D01*
X157693482Y-66389600D02*
X157503006Y-66484838D01*
X157503006Y-66484838D02*
X157026815Y-66484838D01*
X157026815Y-66484838D02*
X156836339Y-66389600D01*
X156836339Y-66389600D02*
X156741101Y-66199123D01*
X156741101Y-66199123D02*
X156741101Y-66008647D01*
X156741101Y-66008647D02*
X156836339Y-65818171D01*
X156836339Y-65818171D02*
X157026815Y-65722933D01*
X157026815Y-65722933D02*
X157503006Y-65722933D01*
X157503006Y-65722933D02*
X157693482Y-65627695D01*
X158455387Y-65151504D02*
X158931577Y-66484838D01*
X159407768Y-65151504D02*
X158931577Y-66484838D01*
X158931577Y-66484838D02*
X158741101Y-66961028D01*
X158741101Y-66961028D02*
X158645863Y-67056266D01*
X158645863Y-67056266D02*
X158455387Y-67151504D01*
X160931578Y-66389600D02*
X160741102Y-66484838D01*
X160741102Y-66484838D02*
X160360149Y-66484838D01*
X160360149Y-66484838D02*
X160169673Y-66389600D01*
X160169673Y-66389600D02*
X160074435Y-66199123D01*
X160074435Y-66199123D02*
X160074435Y-65437219D01*
X160074435Y-65437219D02*
X160169673Y-65246742D01*
X160169673Y-65246742D02*
X160360149Y-65151504D01*
X160360149Y-65151504D02*
X160741102Y-65151504D01*
X160741102Y-65151504D02*
X160931578Y-65246742D01*
X160931578Y-65246742D02*
X161026816Y-65437219D01*
X161026816Y-65437219D02*
X161026816Y-65627695D01*
X161026816Y-65627695D02*
X160074435Y-65818171D01*
X161883959Y-66484838D02*
X161883959Y-65151504D01*
X161883959Y-65532457D02*
X161979197Y-65341980D01*
X161979197Y-65341980D02*
X162074435Y-65246742D01*
X162074435Y-65246742D02*
X162264911Y-65151504D01*
X162264911Y-65151504D02*
X162455388Y-65151504D01*
X165693483Y-66484838D02*
X164550626Y-66484838D01*
X165122054Y-66484838D02*
X165122054Y-64484838D01*
X165122054Y-64484838D02*
X164931578Y-64770552D01*
X164931578Y-64770552D02*
X164741102Y-64961028D01*
X164741102Y-64961028D02*
X164550626Y-65056266D01*
X166550626Y-66294361D02*
X166645864Y-66389600D01*
X166645864Y-66389600D02*
X166550626Y-66484838D01*
X166550626Y-66484838D02*
X166455388Y-66389600D01*
X166455388Y-66389600D02*
X166550626Y-66294361D01*
X166550626Y-66294361D02*
X166550626Y-66484838D01*
X168360150Y-64484838D02*
X167979197Y-64484838D01*
X167979197Y-64484838D02*
X167788721Y-64580076D01*
X167788721Y-64580076D02*
X167693483Y-64675314D01*
X167693483Y-64675314D02*
X167503007Y-64961028D01*
X167503007Y-64961028D02*
X167407769Y-65341980D01*
X167407769Y-65341980D02*
X167407769Y-66103885D01*
X167407769Y-66103885D02*
X167503007Y-66294361D01*
X167503007Y-66294361D02*
X167598245Y-66389600D01*
X167598245Y-66389600D02*
X167788721Y-66484838D01*
X167788721Y-66484838D02*
X168169674Y-66484838D01*
X168169674Y-66484838D02*
X168360150Y-66389600D01*
X168360150Y-66389600D02*
X168455388Y-66294361D01*
X168455388Y-66294361D02*
X168550626Y-66103885D01*
X168550626Y-66103885D02*
X168550626Y-65627695D01*
X168550626Y-65627695D02*
X168455388Y-65437219D01*
X168455388Y-65437219D02*
X168360150Y-65341980D01*
X168360150Y-65341980D02*
X168169674Y-65246742D01*
X168169674Y-65246742D02*
X167788721Y-65246742D01*
X167788721Y-65246742D02*
X167598245Y-65341980D01*
X167598245Y-65341980D02*
X167503007Y-65437219D01*
X167503007Y-65437219D02*
X167407769Y-65627695D01*
X169407769Y-66484838D02*
X169407769Y-65151504D01*
X169407769Y-65341980D02*
X169503007Y-65246742D01*
X169503007Y-65246742D02*
X169693483Y-65151504D01*
X169693483Y-65151504D02*
X169979198Y-65151504D01*
X169979198Y-65151504D02*
X170169674Y-65246742D01*
X170169674Y-65246742D02*
X170264912Y-65437219D01*
X170264912Y-65437219D02*
X170264912Y-66484838D01*
X170264912Y-65437219D02*
X170360150Y-65246742D01*
X170360150Y-65246742D02*
X170550626Y-65151504D01*
X170550626Y-65151504D02*
X170836340Y-65151504D01*
X170836340Y-65151504D02*
X171026817Y-65246742D01*
X171026817Y-65246742D02*
X171122055Y-65437219D01*
X171122055Y-65437219D02*
X171122055Y-66484838D01*
X172074436Y-66484838D02*
X172074436Y-65151504D01*
X172074436Y-65341980D02*
X172169674Y-65246742D01*
X172169674Y-65246742D02*
X172360150Y-65151504D01*
X172360150Y-65151504D02*
X172645865Y-65151504D01*
X172645865Y-65151504D02*
X172836341Y-65246742D01*
X172836341Y-65246742D02*
X172931579Y-65437219D01*
X172931579Y-65437219D02*
X172931579Y-66484838D01*
X172931579Y-65437219D02*
X173026817Y-65246742D01*
X173026817Y-65246742D02*
X173217293Y-65151504D01*
X173217293Y-65151504D02*
X173503007Y-65151504D01*
X173503007Y-65151504D02*
X173693484Y-65246742D01*
X173693484Y-65246742D02*
X173788722Y-65437219D01*
X173788722Y-65437219D02*
X173788722Y-66484838D01*
X176931580Y-65437219D02*
X176264913Y-65437219D01*
X176264913Y-66484838D02*
X176264913Y-64484838D01*
X176264913Y-64484838D02*
X177217294Y-64484838D01*
X179122056Y-66484838D02*
X178455389Y-65532457D01*
X177979199Y-66484838D02*
X177979199Y-64484838D01*
X177979199Y-64484838D02*
X178741104Y-64484838D01*
X178741104Y-64484838D02*
X178931580Y-64580076D01*
X178931580Y-64580076D02*
X179026818Y-64675314D01*
X179026818Y-64675314D02*
X179122056Y-64865790D01*
X179122056Y-64865790D02*
X179122056Y-65151504D01*
X179122056Y-65151504D02*
X179026818Y-65341980D01*
X179026818Y-65341980D02*
X178931580Y-65437219D01*
X178931580Y-65437219D02*
X178741104Y-65532457D01*
X178741104Y-65532457D02*
X177979199Y-65532457D01*
X180836342Y-65151504D02*
X180836342Y-66484838D01*
X180360151Y-64389600D02*
X179883961Y-65818171D01*
X179883961Y-65818171D02*
X181122056Y-65818171D01*
X151217292Y-67704726D02*
X152455387Y-67704726D01*
X152455387Y-67704726D02*
X151788720Y-68466630D01*
X151788720Y-68466630D02*
X152074435Y-68466630D01*
X152074435Y-68466630D02*
X152264911Y-68561868D01*
X152264911Y-68561868D02*
X152360149Y-68657107D01*
X152360149Y-68657107D02*
X152455387Y-68847583D01*
X152455387Y-68847583D02*
X152455387Y-69323773D01*
X152455387Y-69323773D02*
X152360149Y-69514249D01*
X152360149Y-69514249D02*
X152264911Y-69609488D01*
X152264911Y-69609488D02*
X152074435Y-69704726D01*
X152074435Y-69704726D02*
X151503006Y-69704726D01*
X151503006Y-69704726D02*
X151312530Y-69609488D01*
X151312530Y-69609488D02*
X151217292Y-69514249D01*
X153598244Y-68561868D02*
X153407768Y-68466630D01*
X153407768Y-68466630D02*
X153312530Y-68371392D01*
X153312530Y-68371392D02*
X153217292Y-68180916D01*
X153217292Y-68180916D02*
X153217292Y-68085678D01*
X153217292Y-68085678D02*
X153312530Y-67895202D01*
X153312530Y-67895202D02*
X153407768Y-67799964D01*
X153407768Y-67799964D02*
X153598244Y-67704726D01*
X153598244Y-67704726D02*
X153979197Y-67704726D01*
X153979197Y-67704726D02*
X154169673Y-67799964D01*
X154169673Y-67799964D02*
X154264911Y-67895202D01*
X154264911Y-67895202D02*
X154360149Y-68085678D01*
X154360149Y-68085678D02*
X154360149Y-68180916D01*
X154360149Y-68180916D02*
X154264911Y-68371392D01*
X154264911Y-68371392D02*
X154169673Y-68466630D01*
X154169673Y-68466630D02*
X153979197Y-68561868D01*
X153979197Y-68561868D02*
X153598244Y-68561868D01*
X153598244Y-68561868D02*
X153407768Y-68657107D01*
X153407768Y-68657107D02*
X153312530Y-68752345D01*
X153312530Y-68752345D02*
X153217292Y-68942821D01*
X153217292Y-68942821D02*
X153217292Y-69323773D01*
X153217292Y-69323773D02*
X153312530Y-69514249D01*
X153312530Y-69514249D02*
X153407768Y-69609488D01*
X153407768Y-69609488D02*
X153598244Y-69704726D01*
X153598244Y-69704726D02*
X153979197Y-69704726D01*
X153979197Y-69704726D02*
X154169673Y-69609488D01*
X154169673Y-69609488D02*
X154264911Y-69514249D01*
X154264911Y-69514249D02*
X154360149Y-69323773D01*
X154360149Y-69323773D02*
X154360149Y-68942821D01*
X154360149Y-68942821D02*
X154264911Y-68752345D01*
X154264911Y-68752345D02*
X154169673Y-68657107D01*
X154169673Y-68657107D02*
X153979197Y-68561868D01*
X155026816Y-69704726D02*
X156074435Y-68371392D01*
X155026816Y-68371392D02*
X156074435Y-69704726D01*
X157883959Y-69704726D02*
X156741102Y-69704726D01*
X157312530Y-69704726D02*
X157312530Y-67704726D01*
X157312530Y-67704726D02*
X157122054Y-67990440D01*
X157122054Y-67990440D02*
X156931578Y-68180916D01*
X156931578Y-68180916D02*
X156741102Y-68276154D01*
X158550626Y-67704726D02*
X159883959Y-67704726D01*
X159883959Y-67704726D02*
X159026816Y-69704726D01*
X162169674Y-69704726D02*
X162169674Y-68371392D01*
X162169674Y-68561868D02*
X162264912Y-68466630D01*
X162264912Y-68466630D02*
X162455388Y-68371392D01*
X162455388Y-68371392D02*
X162741103Y-68371392D01*
X162741103Y-68371392D02*
X162931579Y-68466630D01*
X162931579Y-68466630D02*
X163026817Y-68657107D01*
X163026817Y-68657107D02*
X163026817Y-69704726D01*
X163026817Y-68657107D02*
X163122055Y-68466630D01*
X163122055Y-68466630D02*
X163312531Y-68371392D01*
X163312531Y-68371392D02*
X163598245Y-68371392D01*
X163598245Y-68371392D02*
X163788722Y-68466630D01*
X163788722Y-68466630D02*
X163883960Y-68657107D01*
X163883960Y-68657107D02*
X163883960Y-69704726D01*
X164836341Y-69704726D02*
X164836341Y-68371392D01*
X164836341Y-68561868D02*
X164931579Y-68466630D01*
X164931579Y-68466630D02*
X165122055Y-68371392D01*
X165122055Y-68371392D02*
X165407770Y-68371392D01*
X165407770Y-68371392D02*
X165598246Y-68466630D01*
X165598246Y-68466630D02*
X165693484Y-68657107D01*
X165693484Y-68657107D02*
X165693484Y-69704726D01*
X165693484Y-68657107D02*
X165788722Y-68466630D01*
X165788722Y-68466630D02*
X165979198Y-68371392D01*
X165979198Y-68371392D02*
X166264912Y-68371392D01*
X166264912Y-68371392D02*
X166455389Y-68466630D01*
X166455389Y-68466630D02*
X166550627Y-68657107D01*
X166550627Y-68657107D02*
X166550627Y-69704726D01*
X169312532Y-69704726D02*
X169122056Y-69609488D01*
X169122056Y-69609488D02*
X169026818Y-69514249D01*
X169026818Y-69514249D02*
X168931580Y-69323773D01*
X168931580Y-69323773D02*
X168931580Y-68752345D01*
X168931580Y-68752345D02*
X169026818Y-68561868D01*
X169026818Y-68561868D02*
X169122056Y-68466630D01*
X169122056Y-68466630D02*
X169312532Y-68371392D01*
X169312532Y-68371392D02*
X169598247Y-68371392D01*
X169598247Y-68371392D02*
X169788723Y-68466630D01*
X169788723Y-68466630D02*
X169883961Y-68561868D01*
X169883961Y-68561868D02*
X169979199Y-68752345D01*
X169979199Y-68752345D02*
X169979199Y-69323773D01*
X169979199Y-69323773D02*
X169883961Y-69514249D01*
X169883961Y-69514249D02*
X169788723Y-69609488D01*
X169788723Y-69609488D02*
X169598247Y-69704726D01*
X169598247Y-69704726D02*
X169312532Y-69704726D01*
X171693485Y-68371392D02*
X171693485Y-69704726D01*
X170836342Y-68371392D02*
X170836342Y-69419011D01*
X170836342Y-69419011D02*
X170931580Y-69609488D01*
X170931580Y-69609488D02*
X171122056Y-69704726D01*
X171122056Y-69704726D02*
X171407771Y-69704726D01*
X171407771Y-69704726D02*
X171598247Y-69609488D01*
X171598247Y-69609488D02*
X171693485Y-69514249D01*
X172360152Y-68371392D02*
X173122056Y-68371392D01*
X172645866Y-67704726D02*
X172645866Y-69419011D01*
X172645866Y-69419011D02*
X172741104Y-69609488D01*
X172741104Y-69609488D02*
X172931580Y-69704726D01*
X172931580Y-69704726D02*
X173122056Y-69704726D01*
X174074437Y-69704726D02*
X173883961Y-69609488D01*
X173883961Y-69609488D02*
X173788723Y-69419011D01*
X173788723Y-69419011D02*
X173788723Y-67704726D01*
X174836342Y-69704726D02*
X174836342Y-68371392D01*
X174836342Y-67704726D02*
X174741104Y-67799964D01*
X174741104Y-67799964D02*
X174836342Y-67895202D01*
X174836342Y-67895202D02*
X174931580Y-67799964D01*
X174931580Y-67799964D02*
X174836342Y-67704726D01*
X174836342Y-67704726D02*
X174836342Y-67895202D01*
X175788723Y-68371392D02*
X175788723Y-69704726D01*
X175788723Y-68561868D02*
X175883961Y-68466630D01*
X175883961Y-68466630D02*
X176074437Y-68371392D01*
X176074437Y-68371392D02*
X176360152Y-68371392D01*
X176360152Y-68371392D02*
X176550628Y-68466630D01*
X176550628Y-68466630D02*
X176645866Y-68657107D01*
X176645866Y-68657107D02*
X176645866Y-69704726D01*
X178360152Y-69609488D02*
X178169676Y-69704726D01*
X178169676Y-69704726D02*
X177788723Y-69704726D01*
X177788723Y-69704726D02*
X177598247Y-69609488D01*
X177598247Y-69609488D02*
X177503009Y-69419011D01*
X177503009Y-69419011D02*
X177503009Y-68657107D01*
X177503009Y-68657107D02*
X177598247Y-68466630D01*
X177598247Y-68466630D02*
X177788723Y-68371392D01*
X177788723Y-68371392D02*
X178169676Y-68371392D01*
X178169676Y-68371392D02*
X178360152Y-68466630D01*
X178360152Y-68466630D02*
X178455390Y-68657107D01*
X178455390Y-68657107D02*
X178455390Y-68847583D01*
X178455390Y-68847583D02*
X177503009Y-69038059D01*
X151217292Y-70924614D02*
X152455387Y-70924614D01*
X152455387Y-70924614D02*
X151788720Y-71686518D01*
X151788720Y-71686518D02*
X152074435Y-71686518D01*
X152074435Y-71686518D02*
X152264911Y-71781756D01*
X152264911Y-71781756D02*
X152360149Y-71876995D01*
X152360149Y-71876995D02*
X152455387Y-72067471D01*
X152455387Y-72067471D02*
X152455387Y-72543661D01*
X152455387Y-72543661D02*
X152360149Y-72734137D01*
X152360149Y-72734137D02*
X152264911Y-72829376D01*
X152264911Y-72829376D02*
X152074435Y-72924614D01*
X152074435Y-72924614D02*
X151503006Y-72924614D01*
X151503006Y-72924614D02*
X151312530Y-72829376D01*
X151312530Y-72829376D02*
X151217292Y-72734137D01*
X154264911Y-70924614D02*
X153312530Y-70924614D01*
X153312530Y-70924614D02*
X153217292Y-71876995D01*
X153217292Y-71876995D02*
X153312530Y-71781756D01*
X153312530Y-71781756D02*
X153503006Y-71686518D01*
X153503006Y-71686518D02*
X153979197Y-71686518D01*
X153979197Y-71686518D02*
X154169673Y-71781756D01*
X154169673Y-71781756D02*
X154264911Y-71876995D01*
X154264911Y-71876995D02*
X154360149Y-72067471D01*
X154360149Y-72067471D02*
X154360149Y-72543661D01*
X154360149Y-72543661D02*
X154264911Y-72734137D01*
X154264911Y-72734137D02*
X154169673Y-72829376D01*
X154169673Y-72829376D02*
X153979197Y-72924614D01*
X153979197Y-72924614D02*
X153503006Y-72924614D01*
X153503006Y-72924614D02*
X153312530Y-72829376D01*
X153312530Y-72829376D02*
X153217292Y-72734137D01*
X157598245Y-71591280D02*
X157598245Y-72924614D01*
X156741102Y-71591280D02*
X156741102Y-72638899D01*
X156741102Y-72638899D02*
X156836340Y-72829376D01*
X156836340Y-72829376D02*
X157026816Y-72924614D01*
X157026816Y-72924614D02*
X157312531Y-72924614D01*
X157312531Y-72924614D02*
X157503007Y-72829376D01*
X157503007Y-72829376D02*
X157598245Y-72734137D01*
X158550626Y-72924614D02*
X158550626Y-71591280D01*
X158550626Y-71781756D02*
X158645864Y-71686518D01*
X158645864Y-71686518D02*
X158836340Y-71591280D01*
X158836340Y-71591280D02*
X159122055Y-71591280D01*
X159122055Y-71591280D02*
X159312531Y-71686518D01*
X159312531Y-71686518D02*
X159407769Y-71876995D01*
X159407769Y-71876995D02*
X159407769Y-72924614D01*
X159407769Y-71876995D02*
X159503007Y-71686518D01*
X159503007Y-71686518D02*
X159693483Y-71591280D01*
X159693483Y-71591280D02*
X159979197Y-71591280D01*
X159979197Y-71591280D02*
X160169674Y-71686518D01*
X160169674Y-71686518D02*
X160264912Y-71876995D01*
X160264912Y-71876995D02*
X160264912Y-72924614D01*
X163312532Y-73686518D02*
X163217293Y-73591280D01*
X163217293Y-73591280D02*
X163026817Y-73305566D01*
X163026817Y-73305566D02*
X162931579Y-73115090D01*
X162931579Y-73115090D02*
X162836341Y-72829376D01*
X162836341Y-72829376D02*
X162741103Y-72353185D01*
X162741103Y-72353185D02*
X162741103Y-71972233D01*
X162741103Y-71972233D02*
X162836341Y-71496042D01*
X162836341Y-71496042D02*
X162931579Y-71210328D01*
X162931579Y-71210328D02*
X163026817Y-71019852D01*
X163026817Y-71019852D02*
X163217293Y-70734137D01*
X163217293Y-70734137D02*
X163312532Y-70638899D01*
X165122055Y-72924614D02*
X163979198Y-72924614D01*
X164550626Y-72924614D02*
X164550626Y-70924614D01*
X164550626Y-70924614D02*
X164360150Y-71210328D01*
X164360150Y-71210328D02*
X164169674Y-71400804D01*
X164169674Y-71400804D02*
X163979198Y-71496042D01*
X166264912Y-72924614D02*
X166074436Y-72829376D01*
X166074436Y-72829376D02*
X165979198Y-72734137D01*
X165979198Y-72734137D02*
X165883960Y-72543661D01*
X165883960Y-72543661D02*
X165883960Y-71972233D01*
X165883960Y-71972233D02*
X165979198Y-71781756D01*
X165979198Y-71781756D02*
X166074436Y-71686518D01*
X166074436Y-71686518D02*
X166264912Y-71591280D01*
X166264912Y-71591280D02*
X166550627Y-71591280D01*
X166550627Y-71591280D02*
X166741103Y-71686518D01*
X166741103Y-71686518D02*
X166836341Y-71781756D01*
X166836341Y-71781756D02*
X166931579Y-71972233D01*
X166931579Y-71972233D02*
X166931579Y-72543661D01*
X166931579Y-72543661D02*
X166836341Y-72734137D01*
X166836341Y-72734137D02*
X166741103Y-72829376D01*
X166741103Y-72829376D02*
X166550627Y-72924614D01*
X166550627Y-72924614D02*
X166264912Y-72924614D01*
X167598246Y-71591280D02*
X168645865Y-71591280D01*
X168645865Y-71591280D02*
X167598246Y-72924614D01*
X167598246Y-72924614D02*
X168645865Y-72924614D01*
X169217294Y-73686518D02*
X169312532Y-73591280D01*
X169312532Y-73591280D02*
X169503008Y-73305566D01*
X169503008Y-73305566D02*
X169598246Y-73115090D01*
X169598246Y-73115090D02*
X169693484Y-72829376D01*
X169693484Y-72829376D02*
X169788722Y-72353185D01*
X169788722Y-72353185D02*
X169788722Y-71972233D01*
X169788722Y-71972233D02*
X169693484Y-71496042D01*
X169693484Y-71496042D02*
X169598246Y-71210328D01*
X169598246Y-71210328D02*
X169503008Y-71019852D01*
X169503008Y-71019852D02*
X169312532Y-70734137D01*
X169312532Y-70734137D02*
X169217294Y-70638899D01*
X173122056Y-72829376D02*
X172931580Y-72924614D01*
X172931580Y-72924614D02*
X172550627Y-72924614D01*
X172550627Y-72924614D02*
X172360151Y-72829376D01*
X172360151Y-72829376D02*
X172264913Y-72734137D01*
X172264913Y-72734137D02*
X172169675Y-72543661D01*
X172169675Y-72543661D02*
X172169675Y-71972233D01*
X172169675Y-71972233D02*
X172264913Y-71781756D01*
X172264913Y-71781756D02*
X172360151Y-71686518D01*
X172360151Y-71686518D02*
X172550627Y-71591280D01*
X172550627Y-71591280D02*
X172931580Y-71591280D01*
X172931580Y-71591280D02*
X173122056Y-71686518D01*
X174264913Y-72924614D02*
X174074437Y-72829376D01*
X174074437Y-72829376D02*
X173979199Y-72734137D01*
X173979199Y-72734137D02*
X173883961Y-72543661D01*
X173883961Y-72543661D02*
X173883961Y-71972233D01*
X173883961Y-71972233D02*
X173979199Y-71781756D01*
X173979199Y-71781756D02*
X174074437Y-71686518D01*
X174074437Y-71686518D02*
X174264913Y-71591280D01*
X174264913Y-71591280D02*
X174550628Y-71591280D01*
X174550628Y-71591280D02*
X174741104Y-71686518D01*
X174741104Y-71686518D02*
X174836342Y-71781756D01*
X174836342Y-71781756D02*
X174931580Y-71972233D01*
X174931580Y-71972233D02*
X174931580Y-72543661D01*
X174931580Y-72543661D02*
X174836342Y-72734137D01*
X174836342Y-72734137D02*
X174741104Y-72829376D01*
X174741104Y-72829376D02*
X174550628Y-72924614D01*
X174550628Y-72924614D02*
X174264913Y-72924614D01*
X175788723Y-71591280D02*
X175788723Y-73591280D01*
X175788723Y-71686518D02*
X175979199Y-71591280D01*
X175979199Y-71591280D02*
X176360152Y-71591280D01*
X176360152Y-71591280D02*
X176550628Y-71686518D01*
X176550628Y-71686518D02*
X176645866Y-71781756D01*
X176645866Y-71781756D02*
X176741104Y-71972233D01*
X176741104Y-71972233D02*
X176741104Y-72543661D01*
X176741104Y-72543661D02*
X176645866Y-72734137D01*
X176645866Y-72734137D02*
X176550628Y-72829376D01*
X176550628Y-72829376D02*
X176360152Y-72924614D01*
X176360152Y-72924614D02*
X175979199Y-72924614D01*
X175979199Y-72924614D02*
X175788723Y-72829376D01*
X177598247Y-71591280D02*
X177598247Y-73591280D01*
X177598247Y-71686518D02*
X177788723Y-71591280D01*
X177788723Y-71591280D02*
X178169676Y-71591280D01*
X178169676Y-71591280D02*
X178360152Y-71686518D01*
X178360152Y-71686518D02*
X178455390Y-71781756D01*
X178455390Y-71781756D02*
X178550628Y-71972233D01*
X178550628Y-71972233D02*
X178550628Y-72543661D01*
X178550628Y-72543661D02*
X178455390Y-72734137D01*
X178455390Y-72734137D02*
X178360152Y-72829376D01*
X178360152Y-72829376D02*
X178169676Y-72924614D01*
X178169676Y-72924614D02*
X177788723Y-72924614D01*
X177788723Y-72924614D02*
X177598247Y-72829376D01*
X180169676Y-72829376D02*
X179979200Y-72924614D01*
X179979200Y-72924614D02*
X179598247Y-72924614D01*
X179598247Y-72924614D02*
X179407771Y-72829376D01*
X179407771Y-72829376D02*
X179312533Y-72638899D01*
X179312533Y-72638899D02*
X179312533Y-71876995D01*
X179312533Y-71876995D02*
X179407771Y-71686518D01*
X179407771Y-71686518D02*
X179598247Y-71591280D01*
X179598247Y-71591280D02*
X179979200Y-71591280D01*
X179979200Y-71591280D02*
X180169676Y-71686518D01*
X180169676Y-71686518D02*
X180264914Y-71876995D01*
X180264914Y-71876995D02*
X180264914Y-72067471D01*
X180264914Y-72067471D02*
X179312533Y-72257947D01*
X181122057Y-72924614D02*
X181122057Y-71591280D01*
X181122057Y-71972233D02*
X181217295Y-71781756D01*
X181217295Y-71781756D02*
X181312533Y-71686518D01*
X181312533Y-71686518D02*
X181503009Y-71591280D01*
X181503009Y-71591280D02*
X181693486Y-71591280D01*
X183693486Y-71591280D02*
X184074438Y-72924614D01*
X184074438Y-72924614D02*
X184455391Y-71972233D01*
X184455391Y-71972233D02*
X184836343Y-72924614D01*
X184836343Y-72924614D02*
X185217295Y-71591280D01*
X186741105Y-72829376D02*
X186550629Y-72924614D01*
X186550629Y-72924614D02*
X186169676Y-72924614D01*
X186169676Y-72924614D02*
X185979200Y-72829376D01*
X185979200Y-72829376D02*
X185883962Y-72638899D01*
X185883962Y-72638899D02*
X185883962Y-71876995D01*
X185883962Y-71876995D02*
X185979200Y-71686518D01*
X185979200Y-71686518D02*
X186169676Y-71591280D01*
X186169676Y-71591280D02*
X186550629Y-71591280D01*
X186550629Y-71591280D02*
X186741105Y-71686518D01*
X186741105Y-71686518D02*
X186836343Y-71876995D01*
X186836343Y-71876995D02*
X186836343Y-72067471D01*
X186836343Y-72067471D02*
X185883962Y-72257947D01*
X187693486Y-72924614D02*
X187693486Y-71591280D01*
X187693486Y-70924614D02*
X187598248Y-71019852D01*
X187598248Y-71019852D02*
X187693486Y-71115090D01*
X187693486Y-71115090D02*
X187788724Y-71019852D01*
X187788724Y-71019852D02*
X187693486Y-70924614D01*
X187693486Y-70924614D02*
X187693486Y-71115090D01*
X189503010Y-71591280D02*
X189503010Y-73210328D01*
X189503010Y-73210328D02*
X189407772Y-73400804D01*
X189407772Y-73400804D02*
X189312534Y-73496042D01*
X189312534Y-73496042D02*
X189122057Y-73591280D01*
X189122057Y-73591280D02*
X188836343Y-73591280D01*
X188836343Y-73591280D02*
X188645867Y-73496042D01*
X189503010Y-72829376D02*
X189312534Y-72924614D01*
X189312534Y-72924614D02*
X188931581Y-72924614D01*
X188931581Y-72924614D02*
X188741105Y-72829376D01*
X188741105Y-72829376D02*
X188645867Y-72734137D01*
X188645867Y-72734137D02*
X188550629Y-72543661D01*
X188550629Y-72543661D02*
X188550629Y-71972233D01*
X188550629Y-71972233D02*
X188645867Y-71781756D01*
X188645867Y-71781756D02*
X188741105Y-71686518D01*
X188741105Y-71686518D02*
X188931581Y-71591280D01*
X188931581Y-71591280D02*
X189312534Y-71591280D01*
X189312534Y-71591280D02*
X189503010Y-71686518D01*
X190455391Y-72924614D02*
X190455391Y-70924614D01*
X191312534Y-72924614D02*
X191312534Y-71876995D01*
X191312534Y-71876995D02*
X191217296Y-71686518D01*
X191217296Y-71686518D02*
X191026820Y-71591280D01*
X191026820Y-71591280D02*
X190741105Y-71591280D01*
X190741105Y-71591280D02*
X190550629Y-71686518D01*
X190550629Y-71686518D02*
X190455391Y-71781756D01*
X191979201Y-71591280D02*
X192741105Y-71591280D01*
X192264915Y-70924614D02*
X192264915Y-72638899D01*
X192264915Y-72638899D02*
X192360153Y-72829376D01*
X192360153Y-72829376D02*
X192550629Y-72924614D01*
X192550629Y-72924614D02*
X192741105Y-72924614D01*
X151407768Y-76144502D02*
X151407768Y-74144502D01*
X151407768Y-75096883D02*
X152550625Y-75096883D01*
X152550625Y-76144502D02*
X152550625Y-74144502D01*
X153407768Y-75573073D02*
X154360149Y-75573073D01*
X153217292Y-76144502D02*
X153883958Y-74144502D01*
X153883958Y-74144502D02*
X154550625Y-76144502D01*
X155122054Y-76049264D02*
X155407768Y-76144502D01*
X155407768Y-76144502D02*
X155883959Y-76144502D01*
X155883959Y-76144502D02*
X156074435Y-76049264D01*
X156074435Y-76049264D02*
X156169673Y-75954025D01*
X156169673Y-75954025D02*
X156264911Y-75763549D01*
X156264911Y-75763549D02*
X156264911Y-75573073D01*
X156264911Y-75573073D02*
X156169673Y-75382597D01*
X156169673Y-75382597D02*
X156074435Y-75287359D01*
X156074435Y-75287359D02*
X155883959Y-75192121D01*
X155883959Y-75192121D02*
X155503006Y-75096883D01*
X155503006Y-75096883D02*
X155312530Y-75001644D01*
X155312530Y-75001644D02*
X155217292Y-74906406D01*
X155217292Y-74906406D02*
X155122054Y-74715930D01*
X155122054Y-74715930D02*
X155122054Y-74525454D01*
X155122054Y-74525454D02*
X155217292Y-74334978D01*
X155217292Y-74334978D02*
X155312530Y-74239740D01*
X155312530Y-74239740D02*
X155503006Y-74144502D01*
X155503006Y-74144502D02*
X155979197Y-74144502D01*
X155979197Y-74144502D02*
X156264911Y-74239740D01*
X158074435Y-76144502D02*
X157122054Y-76144502D01*
X157122054Y-76144502D02*
X157122054Y-74144502D01*
X159979198Y-74811168D02*
X160741102Y-74811168D01*
X160264912Y-76144502D02*
X160264912Y-74430216D01*
X160264912Y-74430216D02*
X160360150Y-74239740D01*
X160360150Y-74239740D02*
X160550626Y-74144502D01*
X160550626Y-74144502D02*
X160741102Y-74144502D01*
X161407769Y-76144502D02*
X161407769Y-74811168D01*
X161407769Y-74144502D02*
X161312531Y-74239740D01*
X161312531Y-74239740D02*
X161407769Y-74334978D01*
X161407769Y-74334978D02*
X161503007Y-74239740D01*
X161503007Y-74239740D02*
X161407769Y-74144502D01*
X161407769Y-74144502D02*
X161407769Y-74334978D01*
X162360150Y-74811168D02*
X162360150Y-76144502D01*
X162360150Y-75001644D02*
X162455388Y-74906406D01*
X162455388Y-74906406D02*
X162645864Y-74811168D01*
X162645864Y-74811168D02*
X162931579Y-74811168D01*
X162931579Y-74811168D02*
X163122055Y-74906406D01*
X163122055Y-74906406D02*
X163217293Y-75096883D01*
X163217293Y-75096883D02*
X163217293Y-76144502D01*
X164169674Y-76144502D02*
X164169674Y-74811168D01*
X164169674Y-74144502D02*
X164074436Y-74239740D01*
X164074436Y-74239740D02*
X164169674Y-74334978D01*
X164169674Y-74334978D02*
X164264912Y-74239740D01*
X164264912Y-74239740D02*
X164169674Y-74144502D01*
X164169674Y-74144502D02*
X164169674Y-74334978D01*
X165026817Y-76049264D02*
X165217293Y-76144502D01*
X165217293Y-76144502D02*
X165598245Y-76144502D01*
X165598245Y-76144502D02*
X165788722Y-76049264D01*
X165788722Y-76049264D02*
X165883960Y-75858787D01*
X165883960Y-75858787D02*
X165883960Y-75763549D01*
X165883960Y-75763549D02*
X165788722Y-75573073D01*
X165788722Y-75573073D02*
X165598245Y-75477835D01*
X165598245Y-75477835D02*
X165312531Y-75477835D01*
X165312531Y-75477835D02*
X165122055Y-75382597D01*
X165122055Y-75382597D02*
X165026817Y-75192121D01*
X165026817Y-75192121D02*
X165026817Y-75096883D01*
X165026817Y-75096883D02*
X165122055Y-74906406D01*
X165122055Y-74906406D02*
X165312531Y-74811168D01*
X165312531Y-74811168D02*
X165598245Y-74811168D01*
X165598245Y-74811168D02*
X165788722Y-74906406D01*
X166741103Y-76144502D02*
X166741103Y-74144502D01*
X167598246Y-76144502D02*
X167598246Y-75096883D01*
X167598246Y-75096883D02*
X167503008Y-74906406D01*
X167503008Y-74906406D02*
X167312532Y-74811168D01*
X167312532Y-74811168D02*
X167026817Y-74811168D01*
X167026817Y-74811168D02*
X166836341Y-74906406D01*
X166836341Y-74906406D02*
X166741103Y-75001644D01*
X170931580Y-76144502D02*
X170931580Y-75096883D01*
X170931580Y-75096883D02*
X170836342Y-74906406D01*
X170836342Y-74906406D02*
X170645866Y-74811168D01*
X170645866Y-74811168D02*
X170264913Y-74811168D01*
X170264913Y-74811168D02*
X170074437Y-74906406D01*
X170931580Y-76049264D02*
X170741104Y-76144502D01*
X170741104Y-76144502D02*
X170264913Y-76144502D01*
X170264913Y-76144502D02*
X170074437Y-76049264D01*
X170074437Y-76049264D02*
X169979199Y-75858787D01*
X169979199Y-75858787D02*
X169979199Y-75668311D01*
X169979199Y-75668311D02*
X170074437Y-75477835D01*
X170074437Y-75477835D02*
X170264913Y-75382597D01*
X170264913Y-75382597D02*
X170741104Y-75382597D01*
X170741104Y-75382597D02*
X170931580Y-75287359D01*
X172741104Y-76049264D02*
X172550628Y-76144502D01*
X172550628Y-76144502D02*
X172169675Y-76144502D01*
X172169675Y-76144502D02*
X171979199Y-76049264D01*
X171979199Y-76049264D02*
X171883961Y-75954025D01*
X171883961Y-75954025D02*
X171788723Y-75763549D01*
X171788723Y-75763549D02*
X171788723Y-75192121D01*
X171788723Y-75192121D02*
X171883961Y-75001644D01*
X171883961Y-75001644D02*
X171979199Y-74906406D01*
X171979199Y-74906406D02*
X172169675Y-74811168D01*
X172169675Y-74811168D02*
X172550628Y-74811168D01*
X172550628Y-74811168D02*
X172741104Y-74906406D01*
X174455390Y-76049264D02*
X174264914Y-76144502D01*
X174264914Y-76144502D02*
X173883961Y-76144502D01*
X173883961Y-76144502D02*
X173693485Y-76049264D01*
X173693485Y-76049264D02*
X173598247Y-75954025D01*
X173598247Y-75954025D02*
X173503009Y-75763549D01*
X173503009Y-75763549D02*
X173503009Y-75192121D01*
X173503009Y-75192121D02*
X173598247Y-75001644D01*
X173598247Y-75001644D02*
X173693485Y-74906406D01*
X173693485Y-74906406D02*
X173883961Y-74811168D01*
X173883961Y-74811168D02*
X174264914Y-74811168D01*
X174264914Y-74811168D02*
X174455390Y-74906406D01*
X176074438Y-76049264D02*
X175883962Y-76144502D01*
X175883962Y-76144502D02*
X175503009Y-76144502D01*
X175503009Y-76144502D02*
X175312533Y-76049264D01*
X175312533Y-76049264D02*
X175217295Y-75858787D01*
X175217295Y-75858787D02*
X175217295Y-75096883D01*
X175217295Y-75096883D02*
X175312533Y-74906406D01*
X175312533Y-74906406D02*
X175503009Y-74811168D01*
X175503009Y-74811168D02*
X175883962Y-74811168D01*
X175883962Y-74811168D02*
X176074438Y-74906406D01*
X176074438Y-74906406D02*
X176169676Y-75096883D01*
X176169676Y-75096883D02*
X176169676Y-75287359D01*
X176169676Y-75287359D02*
X175217295Y-75477835D01*
X177026819Y-74811168D02*
X177026819Y-76811168D01*
X177026819Y-74906406D02*
X177217295Y-74811168D01*
X177217295Y-74811168D02*
X177598248Y-74811168D01*
X177598248Y-74811168D02*
X177788724Y-74906406D01*
X177788724Y-74906406D02*
X177883962Y-75001644D01*
X177883962Y-75001644D02*
X177979200Y-75192121D01*
X177979200Y-75192121D02*
X177979200Y-75763549D01*
X177979200Y-75763549D02*
X177883962Y-75954025D01*
X177883962Y-75954025D02*
X177788724Y-76049264D01*
X177788724Y-76049264D02*
X177598248Y-76144502D01*
X177598248Y-76144502D02*
X177217295Y-76144502D01*
X177217295Y-76144502D02*
X177026819Y-76049264D01*
X178550629Y-74811168D02*
X179312533Y-74811168D01*
X178836343Y-74144502D02*
X178836343Y-75858787D01*
X178836343Y-75858787D02*
X178931581Y-76049264D01*
X178931581Y-76049264D02*
X179122057Y-76144502D01*
X179122057Y-76144502D02*
X179312533Y-76144502D01*
X180836343Y-76144502D02*
X180836343Y-75096883D01*
X180836343Y-75096883D02*
X180741105Y-74906406D01*
X180741105Y-74906406D02*
X180550629Y-74811168D01*
X180550629Y-74811168D02*
X180169676Y-74811168D01*
X180169676Y-74811168D02*
X179979200Y-74906406D01*
X180836343Y-76049264D02*
X180645867Y-76144502D01*
X180645867Y-76144502D02*
X180169676Y-76144502D01*
X180169676Y-76144502D02*
X179979200Y-76049264D01*
X179979200Y-76049264D02*
X179883962Y-75858787D01*
X179883962Y-75858787D02*
X179883962Y-75668311D01*
X179883962Y-75668311D02*
X179979200Y-75477835D01*
X179979200Y-75477835D02*
X180169676Y-75382597D01*
X180169676Y-75382597D02*
X180645867Y-75382597D01*
X180645867Y-75382597D02*
X180836343Y-75287359D01*
X181788724Y-76144502D02*
X181788724Y-74144502D01*
X181788724Y-74906406D02*
X181979200Y-74811168D01*
X181979200Y-74811168D02*
X182360153Y-74811168D01*
X182360153Y-74811168D02*
X182550629Y-74906406D01*
X182550629Y-74906406D02*
X182645867Y-75001644D01*
X182645867Y-75001644D02*
X182741105Y-75192121D01*
X182741105Y-75192121D02*
X182741105Y-75763549D01*
X182741105Y-75763549D02*
X182645867Y-75954025D01*
X182645867Y-75954025D02*
X182550629Y-76049264D01*
X182550629Y-76049264D02*
X182360153Y-76144502D01*
X182360153Y-76144502D02*
X181979200Y-76144502D01*
X181979200Y-76144502D02*
X181788724Y-76049264D01*
X183883962Y-76144502D02*
X183693486Y-76049264D01*
X183693486Y-76049264D02*
X183598248Y-75858787D01*
X183598248Y-75858787D02*
X183598248Y-74144502D01*
X185407772Y-76049264D02*
X185217296Y-76144502D01*
X185217296Y-76144502D02*
X184836343Y-76144502D01*
X184836343Y-76144502D02*
X184645867Y-76049264D01*
X184645867Y-76049264D02*
X184550629Y-75858787D01*
X184550629Y-75858787D02*
X184550629Y-75096883D01*
X184550629Y-75096883D02*
X184645867Y-74906406D01*
X184645867Y-74906406D02*
X184836343Y-74811168D01*
X184836343Y-74811168D02*
X185217296Y-74811168D01*
X185217296Y-74811168D02*
X185407772Y-74906406D01*
X185407772Y-74906406D02*
X185503010Y-75096883D01*
X185503010Y-75096883D02*
X185503010Y-75287359D01*
X185503010Y-75287359D02*
X184550629Y-75477835D01*
X151788720Y-80584278D02*
X151979197Y-80584278D01*
X151979197Y-80584278D02*
X152169673Y-80679516D01*
X152169673Y-80679516D02*
X152264911Y-80774754D01*
X152264911Y-80774754D02*
X152360149Y-80965230D01*
X152360149Y-80965230D02*
X152455387Y-81346182D01*
X152455387Y-81346182D02*
X152455387Y-81822373D01*
X152455387Y-81822373D02*
X152360149Y-82203325D01*
X152360149Y-82203325D02*
X152264911Y-82393801D01*
X152264911Y-82393801D02*
X152169673Y-82489040D01*
X152169673Y-82489040D02*
X151979197Y-82584278D01*
X151979197Y-82584278D02*
X151788720Y-82584278D01*
X151788720Y-82584278D02*
X151598244Y-82489040D01*
X151598244Y-82489040D02*
X151503006Y-82393801D01*
X151503006Y-82393801D02*
X151407768Y-82203325D01*
X151407768Y-82203325D02*
X151312530Y-81822373D01*
X151312530Y-81822373D02*
X151312530Y-81346182D01*
X151312530Y-81346182D02*
X151407768Y-80965230D01*
X151407768Y-80965230D02*
X151503006Y-80774754D01*
X151503006Y-80774754D02*
X151598244Y-80679516D01*
X151598244Y-80679516D02*
X151788720Y-80584278D01*
X153312530Y-82393801D02*
X153407768Y-82489040D01*
X153407768Y-82489040D02*
X153312530Y-82584278D01*
X153312530Y-82584278D02*
X153217292Y-82489040D01*
X153217292Y-82489040D02*
X153312530Y-82393801D01*
X153312530Y-82393801D02*
X153312530Y-82584278D01*
X154169673Y-80774754D02*
X154264911Y-80679516D01*
X154264911Y-80679516D02*
X154455387Y-80584278D01*
X154455387Y-80584278D02*
X154931578Y-80584278D01*
X154931578Y-80584278D02*
X155122054Y-80679516D01*
X155122054Y-80679516D02*
X155217292Y-80774754D01*
X155217292Y-80774754D02*
X155312530Y-80965230D01*
X155312530Y-80965230D02*
X155312530Y-81155706D01*
X155312530Y-81155706D02*
X155217292Y-81441420D01*
X155217292Y-81441420D02*
X154074435Y-82584278D01*
X154074435Y-82584278D02*
X155312530Y-82584278D01*
X157693483Y-82584278D02*
X157693483Y-81250944D01*
X157693483Y-81441420D02*
X157788721Y-81346182D01*
X157788721Y-81346182D02*
X157979197Y-81250944D01*
X157979197Y-81250944D02*
X158264912Y-81250944D01*
X158264912Y-81250944D02*
X158455388Y-81346182D01*
X158455388Y-81346182D02*
X158550626Y-81536659D01*
X158550626Y-81536659D02*
X158550626Y-82584278D01*
X158550626Y-81536659D02*
X158645864Y-81346182D01*
X158645864Y-81346182D02*
X158836340Y-81250944D01*
X158836340Y-81250944D02*
X159122054Y-81250944D01*
X159122054Y-81250944D02*
X159312531Y-81346182D01*
X159312531Y-81346182D02*
X159407769Y-81536659D01*
X159407769Y-81536659D02*
X159407769Y-82584278D01*
X160360150Y-82584278D02*
X160360150Y-81250944D01*
X160360150Y-81441420D02*
X160455388Y-81346182D01*
X160455388Y-81346182D02*
X160645864Y-81250944D01*
X160645864Y-81250944D02*
X160931579Y-81250944D01*
X160931579Y-81250944D02*
X161122055Y-81346182D01*
X161122055Y-81346182D02*
X161217293Y-81536659D01*
X161217293Y-81536659D02*
X161217293Y-82584278D01*
X161217293Y-81536659D02*
X161312531Y-81346182D01*
X161312531Y-81346182D02*
X161503007Y-81250944D01*
X161503007Y-81250944D02*
X161788721Y-81250944D01*
X161788721Y-81250944D02*
X161979198Y-81346182D01*
X161979198Y-81346182D02*
X162074436Y-81536659D01*
X162074436Y-81536659D02*
X162074436Y-82584278D01*
X164550627Y-82584278D02*
X164550627Y-81250944D01*
X164550627Y-81441420D02*
X164645865Y-81346182D01*
X164645865Y-81346182D02*
X164836341Y-81250944D01*
X164836341Y-81250944D02*
X165122056Y-81250944D01*
X165122056Y-81250944D02*
X165312532Y-81346182D01*
X165312532Y-81346182D02*
X165407770Y-81536659D01*
X165407770Y-81536659D02*
X165407770Y-82584278D01*
X165407770Y-81536659D02*
X165503008Y-81346182D01*
X165503008Y-81346182D02*
X165693484Y-81250944D01*
X165693484Y-81250944D02*
X165979198Y-81250944D01*
X165979198Y-81250944D02*
X166169675Y-81346182D01*
X166169675Y-81346182D02*
X166264913Y-81536659D01*
X166264913Y-81536659D02*
X166264913Y-82584278D01*
X167217294Y-82584278D02*
X167217294Y-81250944D01*
X167217294Y-80584278D02*
X167122056Y-80679516D01*
X167122056Y-80679516D02*
X167217294Y-80774754D01*
X167217294Y-80774754D02*
X167312532Y-80679516D01*
X167312532Y-80679516D02*
X167217294Y-80584278D01*
X167217294Y-80584278D02*
X167217294Y-80774754D01*
X168169675Y-81250944D02*
X168169675Y-82584278D01*
X168169675Y-81441420D02*
X168264913Y-81346182D01*
X168264913Y-81346182D02*
X168455389Y-81250944D01*
X168455389Y-81250944D02*
X168741104Y-81250944D01*
X168741104Y-81250944D02*
X168931580Y-81346182D01*
X168931580Y-81346182D02*
X169026818Y-81536659D01*
X169026818Y-81536659D02*
X169026818Y-82584278D01*
X169979199Y-82584278D02*
X169979199Y-81250944D01*
X169979199Y-80584278D02*
X169883961Y-80679516D01*
X169883961Y-80679516D02*
X169979199Y-80774754D01*
X169979199Y-80774754D02*
X170074437Y-80679516D01*
X170074437Y-80679516D02*
X169979199Y-80584278D01*
X169979199Y-80584278D02*
X169979199Y-80774754D01*
X170931580Y-82584278D02*
X170931580Y-81250944D01*
X170931580Y-81441420D02*
X171026818Y-81346182D01*
X171026818Y-81346182D02*
X171217294Y-81250944D01*
X171217294Y-81250944D02*
X171503009Y-81250944D01*
X171503009Y-81250944D02*
X171693485Y-81346182D01*
X171693485Y-81346182D02*
X171788723Y-81536659D01*
X171788723Y-81536659D02*
X171788723Y-82584278D01*
X171788723Y-81536659D02*
X171883961Y-81346182D01*
X171883961Y-81346182D02*
X172074437Y-81250944D01*
X172074437Y-81250944D02*
X172360151Y-81250944D01*
X172360151Y-81250944D02*
X172550628Y-81346182D01*
X172550628Y-81346182D02*
X172645866Y-81536659D01*
X172645866Y-81536659D02*
X172645866Y-82584278D01*
X174455390Y-81250944D02*
X174455390Y-82584278D01*
X173598247Y-81250944D02*
X173598247Y-82298563D01*
X173598247Y-82298563D02*
X173693485Y-82489040D01*
X173693485Y-82489040D02*
X173883961Y-82584278D01*
X173883961Y-82584278D02*
X174169676Y-82584278D01*
X174169676Y-82584278D02*
X174360152Y-82489040D01*
X174360152Y-82489040D02*
X174455390Y-82393801D01*
X175407771Y-82584278D02*
X175407771Y-81250944D01*
X175407771Y-81441420D02*
X175503009Y-81346182D01*
X175503009Y-81346182D02*
X175693485Y-81250944D01*
X175693485Y-81250944D02*
X175979200Y-81250944D01*
X175979200Y-81250944D02*
X176169676Y-81346182D01*
X176169676Y-81346182D02*
X176264914Y-81536659D01*
X176264914Y-81536659D02*
X176264914Y-82584278D01*
X176264914Y-81536659D02*
X176360152Y-81346182D01*
X176360152Y-81346182D02*
X176550628Y-81250944D01*
X176550628Y-81250944D02*
X176836342Y-81250944D01*
X176836342Y-81250944D02*
X177026819Y-81346182D01*
X177026819Y-81346182D02*
X177122057Y-81536659D01*
X177122057Y-81536659D02*
X177122057Y-82584278D01*
X179312534Y-81250944D02*
X180074438Y-81250944D01*
X179598248Y-80584278D02*
X179598248Y-82298563D01*
X179598248Y-82298563D02*
X179693486Y-82489040D01*
X179693486Y-82489040D02*
X179883962Y-82584278D01*
X179883962Y-82584278D02*
X180074438Y-82584278D01*
X180741105Y-82584278D02*
X180741105Y-81250944D01*
X180741105Y-81631897D02*
X180836343Y-81441420D01*
X180836343Y-81441420D02*
X180931581Y-81346182D01*
X180931581Y-81346182D02*
X181122057Y-81250944D01*
X181122057Y-81250944D02*
X181312534Y-81250944D01*
X182836343Y-82584278D02*
X182836343Y-81536659D01*
X182836343Y-81536659D02*
X182741105Y-81346182D01*
X182741105Y-81346182D02*
X182550629Y-81250944D01*
X182550629Y-81250944D02*
X182169676Y-81250944D01*
X182169676Y-81250944D02*
X181979200Y-81346182D01*
X182836343Y-82489040D02*
X182645867Y-82584278D01*
X182645867Y-82584278D02*
X182169676Y-82584278D01*
X182169676Y-82584278D02*
X181979200Y-82489040D01*
X181979200Y-82489040D02*
X181883962Y-82298563D01*
X181883962Y-82298563D02*
X181883962Y-82108087D01*
X181883962Y-82108087D02*
X181979200Y-81917611D01*
X181979200Y-81917611D02*
X182169676Y-81822373D01*
X182169676Y-81822373D02*
X182645867Y-81822373D01*
X182645867Y-81822373D02*
X182836343Y-81727135D01*
X184645867Y-82489040D02*
X184455391Y-82584278D01*
X184455391Y-82584278D02*
X184074438Y-82584278D01*
X184074438Y-82584278D02*
X183883962Y-82489040D01*
X183883962Y-82489040D02*
X183788724Y-82393801D01*
X183788724Y-82393801D02*
X183693486Y-82203325D01*
X183693486Y-82203325D02*
X183693486Y-81631897D01*
X183693486Y-81631897D02*
X183788724Y-81441420D01*
X183788724Y-81441420D02*
X183883962Y-81346182D01*
X183883962Y-81346182D02*
X184074438Y-81250944D01*
X184074438Y-81250944D02*
X184455391Y-81250944D01*
X184455391Y-81250944D02*
X184645867Y-81346182D01*
X186264915Y-82489040D02*
X186074439Y-82584278D01*
X186074439Y-82584278D02*
X185693486Y-82584278D01*
X185693486Y-82584278D02*
X185503010Y-82489040D01*
X185503010Y-82489040D02*
X185407772Y-82298563D01*
X185407772Y-82298563D02*
X185407772Y-81536659D01*
X185407772Y-81536659D02*
X185503010Y-81346182D01*
X185503010Y-81346182D02*
X185693486Y-81250944D01*
X185693486Y-81250944D02*
X186074439Y-81250944D01*
X186074439Y-81250944D02*
X186264915Y-81346182D01*
X186264915Y-81346182D02*
X186360153Y-81536659D01*
X186360153Y-81536659D02*
X186360153Y-81727135D01*
X186360153Y-81727135D02*
X185407772Y-81917611D01*
X188645867Y-80489040D02*
X186931582Y-83060468D01*
X190169677Y-82489040D02*
X189979201Y-82584278D01*
X189979201Y-82584278D02*
X189598248Y-82584278D01*
X189598248Y-82584278D02*
X189407772Y-82489040D01*
X189407772Y-82489040D02*
X189312534Y-82393801D01*
X189312534Y-82393801D02*
X189217296Y-82203325D01*
X189217296Y-82203325D02*
X189217296Y-81631897D01*
X189217296Y-81631897D02*
X189312534Y-81441420D01*
X189312534Y-81441420D02*
X189407772Y-81346182D01*
X189407772Y-81346182D02*
X189598248Y-81250944D01*
X189598248Y-81250944D02*
X189979201Y-81250944D01*
X189979201Y-81250944D02*
X190169677Y-81346182D01*
X191312534Y-82584278D02*
X191122058Y-82489040D01*
X191122058Y-82489040D02*
X191026820Y-82298563D01*
X191026820Y-82298563D02*
X191026820Y-80584278D01*
X192836344Y-82489040D02*
X192645868Y-82584278D01*
X192645868Y-82584278D02*
X192264915Y-82584278D01*
X192264915Y-82584278D02*
X192074439Y-82489040D01*
X192074439Y-82489040D02*
X191979201Y-82298563D01*
X191979201Y-82298563D02*
X191979201Y-81536659D01*
X191979201Y-81536659D02*
X192074439Y-81346182D01*
X192074439Y-81346182D02*
X192264915Y-81250944D01*
X192264915Y-81250944D02*
X192645868Y-81250944D01*
X192645868Y-81250944D02*
X192836344Y-81346182D01*
X192836344Y-81346182D02*
X192931582Y-81536659D01*
X192931582Y-81536659D02*
X192931582Y-81727135D01*
X192931582Y-81727135D02*
X191979201Y-81917611D01*
X194645868Y-82584278D02*
X194645868Y-81536659D01*
X194645868Y-81536659D02*
X194550630Y-81346182D01*
X194550630Y-81346182D02*
X194360154Y-81250944D01*
X194360154Y-81250944D02*
X193979201Y-81250944D01*
X193979201Y-81250944D02*
X193788725Y-81346182D01*
X194645868Y-82489040D02*
X194455392Y-82584278D01*
X194455392Y-82584278D02*
X193979201Y-82584278D01*
X193979201Y-82584278D02*
X193788725Y-82489040D01*
X193788725Y-82489040D02*
X193693487Y-82298563D01*
X193693487Y-82298563D02*
X193693487Y-82108087D01*
X193693487Y-82108087D02*
X193788725Y-81917611D01*
X193788725Y-81917611D02*
X193979201Y-81822373D01*
X193979201Y-81822373D02*
X194455392Y-81822373D01*
X194455392Y-81822373D02*
X194645868Y-81727135D01*
X195598249Y-82584278D02*
X195598249Y-81250944D01*
X195598249Y-81631897D02*
X195693487Y-81441420D01*
X195693487Y-81441420D02*
X195788725Y-81346182D01*
X195788725Y-81346182D02*
X195979201Y-81250944D01*
X195979201Y-81250944D02*
X196169678Y-81250944D01*
X197693487Y-82584278D02*
X197693487Y-81536659D01*
X197693487Y-81536659D02*
X197598249Y-81346182D01*
X197598249Y-81346182D02*
X197407773Y-81250944D01*
X197407773Y-81250944D02*
X197026820Y-81250944D01*
X197026820Y-81250944D02*
X196836344Y-81346182D01*
X197693487Y-82489040D02*
X197503011Y-82584278D01*
X197503011Y-82584278D02*
X197026820Y-82584278D01*
X197026820Y-82584278D02*
X196836344Y-82489040D01*
X196836344Y-82489040D02*
X196741106Y-82298563D01*
X196741106Y-82298563D02*
X196741106Y-82108087D01*
X196741106Y-82108087D02*
X196836344Y-81917611D01*
X196836344Y-81917611D02*
X197026820Y-81822373D01*
X197026820Y-81822373D02*
X197503011Y-81822373D01*
X197503011Y-81822373D02*
X197693487Y-81727135D01*
X198645868Y-81250944D02*
X198645868Y-82584278D01*
X198645868Y-81441420D02*
X198741106Y-81346182D01*
X198741106Y-81346182D02*
X198931582Y-81250944D01*
X198931582Y-81250944D02*
X199217297Y-81250944D01*
X199217297Y-81250944D02*
X199407773Y-81346182D01*
X199407773Y-81346182D02*
X199503011Y-81536659D01*
X199503011Y-81536659D02*
X199503011Y-82584278D01*
X201312535Y-82489040D02*
X201122059Y-82584278D01*
X201122059Y-82584278D02*
X200741106Y-82584278D01*
X200741106Y-82584278D02*
X200550630Y-82489040D01*
X200550630Y-82489040D02*
X200455392Y-82393801D01*
X200455392Y-82393801D02*
X200360154Y-82203325D01*
X200360154Y-82203325D02*
X200360154Y-81631897D01*
X200360154Y-81631897D02*
X200455392Y-81441420D01*
X200455392Y-81441420D02*
X200550630Y-81346182D01*
X200550630Y-81346182D02*
X200741106Y-81250944D01*
X200741106Y-81250944D02*
X201122059Y-81250944D01*
X201122059Y-81250944D02*
X201312535Y-81346182D01*
X202931583Y-82489040D02*
X202741107Y-82584278D01*
X202741107Y-82584278D02*
X202360154Y-82584278D01*
X202360154Y-82584278D02*
X202169678Y-82489040D01*
X202169678Y-82489040D02*
X202074440Y-82298563D01*
X202074440Y-82298563D02*
X202074440Y-81536659D01*
X202074440Y-81536659D02*
X202169678Y-81346182D01*
X202169678Y-81346182D02*
X202360154Y-81250944D01*
X202360154Y-81250944D02*
X202741107Y-81250944D01*
X202741107Y-81250944D02*
X202931583Y-81346182D01*
X202931583Y-81346182D02*
X203026821Y-81536659D01*
X203026821Y-81536659D02*
X203026821Y-81727135D01*
X203026821Y-81727135D02*
X202074440Y-81917611D01*
X151788720Y-83804166D02*
X151979197Y-83804166D01*
X151979197Y-83804166D02*
X152169673Y-83899404D01*
X152169673Y-83899404D02*
X152264911Y-83994642D01*
X152264911Y-83994642D02*
X152360149Y-84185118D01*
X152360149Y-84185118D02*
X152455387Y-84566070D01*
X152455387Y-84566070D02*
X152455387Y-85042261D01*
X152455387Y-85042261D02*
X152360149Y-85423213D01*
X152360149Y-85423213D02*
X152264911Y-85613689D01*
X152264911Y-85613689D02*
X152169673Y-85708928D01*
X152169673Y-85708928D02*
X151979197Y-85804166D01*
X151979197Y-85804166D02*
X151788720Y-85804166D01*
X151788720Y-85804166D02*
X151598244Y-85708928D01*
X151598244Y-85708928D02*
X151503006Y-85613689D01*
X151503006Y-85613689D02*
X151407768Y-85423213D01*
X151407768Y-85423213D02*
X151312530Y-85042261D01*
X151312530Y-85042261D02*
X151312530Y-84566070D01*
X151312530Y-84566070D02*
X151407768Y-84185118D01*
X151407768Y-84185118D02*
X151503006Y-83994642D01*
X151503006Y-83994642D02*
X151598244Y-83899404D01*
X151598244Y-83899404D02*
X151788720Y-83804166D01*
X153312530Y-85613689D02*
X153407768Y-85708928D01*
X153407768Y-85708928D02*
X153312530Y-85804166D01*
X153312530Y-85804166D02*
X153217292Y-85708928D01*
X153217292Y-85708928D02*
X153312530Y-85613689D01*
X153312530Y-85613689D02*
X153312530Y-85804166D01*
X154074435Y-83804166D02*
X155312530Y-83804166D01*
X155312530Y-83804166D02*
X154645863Y-84566070D01*
X154645863Y-84566070D02*
X154931578Y-84566070D01*
X154931578Y-84566070D02*
X155122054Y-84661308D01*
X155122054Y-84661308D02*
X155217292Y-84756547D01*
X155217292Y-84756547D02*
X155312530Y-84947023D01*
X155312530Y-84947023D02*
X155312530Y-85423213D01*
X155312530Y-85423213D02*
X155217292Y-85613689D01*
X155217292Y-85613689D02*
X155122054Y-85708928D01*
X155122054Y-85708928D02*
X154931578Y-85804166D01*
X154931578Y-85804166D02*
X154360149Y-85804166D01*
X154360149Y-85804166D02*
X154169673Y-85708928D01*
X154169673Y-85708928D02*
X154074435Y-85613689D01*
X157693483Y-85804166D02*
X157693483Y-84470832D01*
X157693483Y-84661308D02*
X157788721Y-84566070D01*
X157788721Y-84566070D02*
X157979197Y-84470832D01*
X157979197Y-84470832D02*
X158264912Y-84470832D01*
X158264912Y-84470832D02*
X158455388Y-84566070D01*
X158455388Y-84566070D02*
X158550626Y-84756547D01*
X158550626Y-84756547D02*
X158550626Y-85804166D01*
X158550626Y-84756547D02*
X158645864Y-84566070D01*
X158645864Y-84566070D02*
X158836340Y-84470832D01*
X158836340Y-84470832D02*
X159122054Y-84470832D01*
X159122054Y-84470832D02*
X159312531Y-84566070D01*
X159312531Y-84566070D02*
X159407769Y-84756547D01*
X159407769Y-84756547D02*
X159407769Y-85804166D01*
X160360150Y-85804166D02*
X160360150Y-84470832D01*
X160360150Y-84661308D02*
X160455388Y-84566070D01*
X160455388Y-84566070D02*
X160645864Y-84470832D01*
X160645864Y-84470832D02*
X160931579Y-84470832D01*
X160931579Y-84470832D02*
X161122055Y-84566070D01*
X161122055Y-84566070D02*
X161217293Y-84756547D01*
X161217293Y-84756547D02*
X161217293Y-85804166D01*
X161217293Y-84756547D02*
X161312531Y-84566070D01*
X161312531Y-84566070D02*
X161503007Y-84470832D01*
X161503007Y-84470832D02*
X161788721Y-84470832D01*
X161788721Y-84470832D02*
X161979198Y-84566070D01*
X161979198Y-84566070D02*
X162074436Y-84756547D01*
X162074436Y-84756547D02*
X162074436Y-85804166D01*
X164550627Y-85804166D02*
X164550627Y-84470832D01*
X164550627Y-84661308D02*
X164645865Y-84566070D01*
X164645865Y-84566070D02*
X164836341Y-84470832D01*
X164836341Y-84470832D02*
X165122056Y-84470832D01*
X165122056Y-84470832D02*
X165312532Y-84566070D01*
X165312532Y-84566070D02*
X165407770Y-84756547D01*
X165407770Y-84756547D02*
X165407770Y-85804166D01*
X165407770Y-84756547D02*
X165503008Y-84566070D01*
X165503008Y-84566070D02*
X165693484Y-84470832D01*
X165693484Y-84470832D02*
X165979198Y-84470832D01*
X165979198Y-84470832D02*
X166169675Y-84566070D01*
X166169675Y-84566070D02*
X166264913Y-84756547D01*
X166264913Y-84756547D02*
X166264913Y-85804166D01*
X167217294Y-85804166D02*
X167217294Y-84470832D01*
X167217294Y-83804166D02*
X167122056Y-83899404D01*
X167122056Y-83899404D02*
X167217294Y-83994642D01*
X167217294Y-83994642D02*
X167312532Y-83899404D01*
X167312532Y-83899404D02*
X167217294Y-83804166D01*
X167217294Y-83804166D02*
X167217294Y-83994642D01*
X168169675Y-84470832D02*
X168169675Y-85804166D01*
X168169675Y-84661308D02*
X168264913Y-84566070D01*
X168264913Y-84566070D02*
X168455389Y-84470832D01*
X168455389Y-84470832D02*
X168741104Y-84470832D01*
X168741104Y-84470832D02*
X168931580Y-84566070D01*
X168931580Y-84566070D02*
X169026818Y-84756547D01*
X169026818Y-84756547D02*
X169026818Y-85804166D01*
X169979199Y-85804166D02*
X169979199Y-84470832D01*
X169979199Y-83804166D02*
X169883961Y-83899404D01*
X169883961Y-83899404D02*
X169979199Y-83994642D01*
X169979199Y-83994642D02*
X170074437Y-83899404D01*
X170074437Y-83899404D02*
X169979199Y-83804166D01*
X169979199Y-83804166D02*
X169979199Y-83994642D01*
X170931580Y-85804166D02*
X170931580Y-84470832D01*
X170931580Y-84661308D02*
X171026818Y-84566070D01*
X171026818Y-84566070D02*
X171217294Y-84470832D01*
X171217294Y-84470832D02*
X171503009Y-84470832D01*
X171503009Y-84470832D02*
X171693485Y-84566070D01*
X171693485Y-84566070D02*
X171788723Y-84756547D01*
X171788723Y-84756547D02*
X171788723Y-85804166D01*
X171788723Y-84756547D02*
X171883961Y-84566070D01*
X171883961Y-84566070D02*
X172074437Y-84470832D01*
X172074437Y-84470832D02*
X172360151Y-84470832D01*
X172360151Y-84470832D02*
X172550628Y-84566070D01*
X172550628Y-84566070D02*
X172645866Y-84756547D01*
X172645866Y-84756547D02*
X172645866Y-85804166D01*
X174455390Y-84470832D02*
X174455390Y-85804166D01*
X173598247Y-84470832D02*
X173598247Y-85518451D01*
X173598247Y-85518451D02*
X173693485Y-85708928D01*
X173693485Y-85708928D02*
X173883961Y-85804166D01*
X173883961Y-85804166D02*
X174169676Y-85804166D01*
X174169676Y-85804166D02*
X174360152Y-85708928D01*
X174360152Y-85708928D02*
X174455390Y-85613689D01*
X175407771Y-85804166D02*
X175407771Y-84470832D01*
X175407771Y-84661308D02*
X175503009Y-84566070D01*
X175503009Y-84566070D02*
X175693485Y-84470832D01*
X175693485Y-84470832D02*
X175979200Y-84470832D01*
X175979200Y-84470832D02*
X176169676Y-84566070D01*
X176169676Y-84566070D02*
X176264914Y-84756547D01*
X176264914Y-84756547D02*
X176264914Y-85804166D01*
X176264914Y-84756547D02*
X176360152Y-84566070D01*
X176360152Y-84566070D02*
X176550628Y-84470832D01*
X176550628Y-84470832D02*
X176836342Y-84470832D01*
X176836342Y-84470832D02*
X177026819Y-84566070D01*
X177026819Y-84566070D02*
X177122057Y-84756547D01*
X177122057Y-84756547D02*
X177122057Y-85804166D01*
X179407772Y-84470832D02*
X179883962Y-85804166D01*
X179883962Y-85804166D02*
X180360153Y-84470832D01*
X181122058Y-85804166D02*
X181122058Y-84470832D01*
X181122058Y-83804166D02*
X181026820Y-83899404D01*
X181026820Y-83899404D02*
X181122058Y-83994642D01*
X181122058Y-83994642D02*
X181217296Y-83899404D01*
X181217296Y-83899404D02*
X181122058Y-83804166D01*
X181122058Y-83804166D02*
X181122058Y-83994642D01*
X182931582Y-85804166D02*
X182931582Y-84756547D01*
X182931582Y-84756547D02*
X182836344Y-84566070D01*
X182836344Y-84566070D02*
X182645868Y-84470832D01*
X182645868Y-84470832D02*
X182264915Y-84470832D01*
X182264915Y-84470832D02*
X182074439Y-84566070D01*
X182931582Y-85708928D02*
X182741106Y-85804166D01*
X182741106Y-85804166D02*
X182264915Y-85804166D01*
X182264915Y-85804166D02*
X182074439Y-85708928D01*
X182074439Y-85708928D02*
X181979201Y-85518451D01*
X181979201Y-85518451D02*
X181979201Y-85327975D01*
X181979201Y-85327975D02*
X182074439Y-85137499D01*
X182074439Y-85137499D02*
X182264915Y-85042261D01*
X182264915Y-85042261D02*
X182741106Y-85042261D01*
X182741106Y-85042261D02*
X182931582Y-84947023D01*
X186264916Y-85804166D02*
X186264916Y-83804166D01*
X186264916Y-85708928D02*
X186074440Y-85804166D01*
X186074440Y-85804166D02*
X185693487Y-85804166D01*
X185693487Y-85804166D02*
X185503011Y-85708928D01*
X185503011Y-85708928D02*
X185407773Y-85613689D01*
X185407773Y-85613689D02*
X185312535Y-85423213D01*
X185312535Y-85423213D02*
X185312535Y-84851785D01*
X185312535Y-84851785D02*
X185407773Y-84661308D01*
X185407773Y-84661308D02*
X185503011Y-84566070D01*
X185503011Y-84566070D02*
X185693487Y-84470832D01*
X185693487Y-84470832D02*
X186074440Y-84470832D01*
X186074440Y-84470832D02*
X186264916Y-84566070D01*
X187217297Y-85804166D02*
X187217297Y-84470832D01*
X187217297Y-84851785D02*
X187312535Y-84661308D01*
X187312535Y-84661308D02*
X187407773Y-84566070D01*
X187407773Y-84566070D02*
X187598249Y-84470832D01*
X187598249Y-84470832D02*
X187788726Y-84470832D01*
X188455392Y-85804166D02*
X188455392Y-84470832D01*
X188455392Y-83804166D02*
X188360154Y-83899404D01*
X188360154Y-83899404D02*
X188455392Y-83994642D01*
X188455392Y-83994642D02*
X188550630Y-83899404D01*
X188550630Y-83899404D02*
X188455392Y-83804166D01*
X188455392Y-83804166D02*
X188455392Y-83994642D01*
X189693487Y-85804166D02*
X189503011Y-85708928D01*
X189503011Y-85708928D02*
X189407773Y-85518451D01*
X189407773Y-85518451D02*
X189407773Y-83804166D01*
X190741106Y-85804166D02*
X190550630Y-85708928D01*
X190550630Y-85708928D02*
X190455392Y-85518451D01*
X190455392Y-85518451D02*
X190455392Y-83804166D01*
D11*
X151981327Y-58684476D02*
X151981327Y-54684476D01*
X151981327Y-54684476D02*
X153505137Y-54684476D01*
X153505137Y-54684476D02*
X153886089Y-54874952D01*
X153886089Y-54874952D02*
X154076566Y-55065428D01*
X154076566Y-55065428D02*
X154267042Y-55446380D01*
X154267042Y-55446380D02*
X154267042Y-56017809D01*
X154267042Y-56017809D02*
X154076566Y-56398761D01*
X154076566Y-56398761D02*
X153886089Y-56589238D01*
X153886089Y-56589238D02*
X153505137Y-56779714D01*
X153505137Y-56779714D02*
X151981327Y-56779714D01*
X158267042Y-58303523D02*
X158076566Y-58494000D01*
X158076566Y-58494000D02*
X157505137Y-58684476D01*
X157505137Y-58684476D02*
X157124185Y-58684476D01*
X157124185Y-58684476D02*
X156552756Y-58494000D01*
X156552756Y-58494000D02*
X156171804Y-58113047D01*
X156171804Y-58113047D02*
X155981327Y-57732095D01*
X155981327Y-57732095D02*
X155790851Y-56970190D01*
X155790851Y-56970190D02*
X155790851Y-56398761D01*
X155790851Y-56398761D02*
X155981327Y-55636857D01*
X155981327Y-55636857D02*
X156171804Y-55255904D01*
X156171804Y-55255904D02*
X156552756Y-54874952D01*
X156552756Y-54874952D02*
X157124185Y-54684476D01*
X157124185Y-54684476D02*
X157505137Y-54684476D01*
X157505137Y-54684476D02*
X158076566Y-54874952D01*
X158076566Y-54874952D02*
X158267042Y-55065428D01*
X161314661Y-56589238D02*
X161886089Y-56779714D01*
X161886089Y-56779714D02*
X162076566Y-56970190D01*
X162076566Y-56970190D02*
X162267042Y-57351142D01*
X162267042Y-57351142D02*
X162267042Y-57922571D01*
X162267042Y-57922571D02*
X162076566Y-58303523D01*
X162076566Y-58303523D02*
X161886089Y-58494000D01*
X161886089Y-58494000D02*
X161505137Y-58684476D01*
X161505137Y-58684476D02*
X159981327Y-58684476D01*
X159981327Y-58684476D02*
X159981327Y-54684476D01*
X159981327Y-54684476D02*
X161314661Y-54684476D01*
X161314661Y-54684476D02*
X161695613Y-54874952D01*
X161695613Y-54874952D02*
X161886089Y-55065428D01*
X161886089Y-55065428D02*
X162076566Y-55446380D01*
X162076566Y-55446380D02*
X162076566Y-55827333D01*
X162076566Y-55827333D02*
X161886089Y-56208285D01*
X161886089Y-56208285D02*
X161695613Y-56398761D01*
X161695613Y-56398761D02*
X161314661Y-56589238D01*
X161314661Y-56589238D02*
X159981327Y-56589238D01*
X167790851Y-54684476D02*
X168552756Y-54684476D01*
X168552756Y-54684476D02*
X168933708Y-54874952D01*
X168933708Y-54874952D02*
X169314661Y-55255904D01*
X169314661Y-55255904D02*
X169505137Y-56017809D01*
X169505137Y-56017809D02*
X169505137Y-57351142D01*
X169505137Y-57351142D02*
X169314661Y-58113047D01*
X169314661Y-58113047D02*
X168933708Y-58494000D01*
X168933708Y-58494000D02*
X168552756Y-58684476D01*
X168552756Y-58684476D02*
X167790851Y-58684476D01*
X167790851Y-58684476D02*
X167409899Y-58494000D01*
X167409899Y-58494000D02*
X167028946Y-58113047D01*
X167028946Y-58113047D02*
X166838470Y-57351142D01*
X166838470Y-57351142D02*
X166838470Y-56017809D01*
X166838470Y-56017809D02*
X167028946Y-55255904D01*
X167028946Y-55255904D02*
X167409899Y-54874952D01*
X167409899Y-54874952D02*
X167790851Y-54684476D01*
X173505137Y-58684476D02*
X172171803Y-56779714D01*
X171219422Y-58684476D02*
X171219422Y-54684476D01*
X171219422Y-54684476D02*
X172743232Y-54684476D01*
X172743232Y-54684476D02*
X173124184Y-54874952D01*
X173124184Y-54874952D02*
X173314661Y-55065428D01*
X173314661Y-55065428D02*
X173505137Y-55446380D01*
X173505137Y-55446380D02*
X173505137Y-56017809D01*
X173505137Y-56017809D02*
X173314661Y-56398761D01*
X173314661Y-56398761D02*
X173124184Y-56589238D01*
X173124184Y-56589238D02*
X172743232Y-56779714D01*
X172743232Y-56779714D02*
X171219422Y-56779714D01*
X175219422Y-58684476D02*
X175219422Y-54684476D01*
X175219422Y-54684476D02*
X176171803Y-54684476D01*
X176171803Y-54684476D02*
X176743232Y-54874952D01*
X176743232Y-54874952D02*
X177124184Y-55255904D01*
X177124184Y-55255904D02*
X177314661Y-55636857D01*
X177314661Y-55636857D02*
X177505137Y-56398761D01*
X177505137Y-56398761D02*
X177505137Y-56970190D01*
X177505137Y-56970190D02*
X177314661Y-57732095D01*
X177314661Y-57732095D02*
X177124184Y-58113047D01*
X177124184Y-58113047D02*
X176743232Y-58494000D01*
X176743232Y-58494000D02*
X176171803Y-58684476D01*
X176171803Y-58684476D02*
X175219422Y-58684476D01*
X179219422Y-56589238D02*
X180552756Y-56589238D01*
X181124184Y-58684476D02*
X179219422Y-58684476D01*
X179219422Y-58684476D02*
X179219422Y-54684476D01*
X179219422Y-54684476D02*
X181124184Y-54684476D01*
X185124185Y-58684476D02*
X183790851Y-56779714D01*
X182838470Y-58684476D02*
X182838470Y-54684476D01*
X182838470Y-54684476D02*
X184362280Y-54684476D01*
X184362280Y-54684476D02*
X184743232Y-54874952D01*
X184743232Y-54874952D02*
X184933709Y-55065428D01*
X184933709Y-55065428D02*
X185124185Y-55446380D01*
X185124185Y-55446380D02*
X185124185Y-56017809D01*
X185124185Y-56017809D02*
X184933709Y-56398761D01*
X184933709Y-56398761D02*
X184743232Y-56589238D01*
X184743232Y-56589238D02*
X184362280Y-56779714D01*
X184362280Y-56779714D02*
X182838470Y-56779714D01*
X189886089Y-58684476D02*
X189886089Y-54684476D01*
X189886089Y-54684476D02*
X192171804Y-58684476D01*
X192171804Y-58684476D02*
X192171804Y-54684476D01*
X194838470Y-54684476D02*
X195600375Y-54684476D01*
X195600375Y-54684476D02*
X195981327Y-54874952D01*
X195981327Y-54874952D02*
X196362280Y-55255904D01*
X196362280Y-55255904D02*
X196552756Y-56017809D01*
X196552756Y-56017809D02*
X196552756Y-57351142D01*
X196552756Y-57351142D02*
X196362280Y-58113047D01*
X196362280Y-58113047D02*
X195981327Y-58494000D01*
X195981327Y-58494000D02*
X195600375Y-58684476D01*
X195600375Y-58684476D02*
X194838470Y-58684476D01*
X194838470Y-58684476D02*
X194457518Y-58494000D01*
X194457518Y-58494000D02*
X194076565Y-58113047D01*
X194076565Y-58113047D02*
X193886089Y-57351142D01*
X193886089Y-57351142D02*
X193886089Y-56017809D01*
X193886089Y-56017809D02*
X194076565Y-55255904D01*
X194076565Y-55255904D02*
X194457518Y-54874952D01*
X194457518Y-54874952D02*
X194838470Y-54684476D01*
X197695613Y-54684476D02*
X199981327Y-54684476D01*
X198838470Y-58684476D02*
X198838470Y-54684476D01*
X201314660Y-56589238D02*
X202647994Y-56589238D01*
X203219422Y-58684476D02*
X201314660Y-58684476D01*
X201314660Y-58684476D02*
X201314660Y-54684476D01*
X201314660Y-54684476D02*
X203219422Y-54684476D01*
X204743232Y-58494000D02*
X205314661Y-58684476D01*
X205314661Y-58684476D02*
X206267042Y-58684476D01*
X206267042Y-58684476D02*
X206647994Y-58494000D01*
X206647994Y-58494000D02*
X206838470Y-58303523D01*
X206838470Y-58303523D02*
X207028947Y-57922571D01*
X207028947Y-57922571D02*
X207028947Y-57541619D01*
X207028947Y-57541619D02*
X206838470Y-57160666D01*
X206838470Y-57160666D02*
X206647994Y-56970190D01*
X206647994Y-56970190D02*
X206267042Y-56779714D01*
X206267042Y-56779714D02*
X205505137Y-56589238D01*
X205505137Y-56589238D02*
X205124185Y-56398761D01*
X205124185Y-56398761D02*
X204933708Y-56208285D01*
X204933708Y-56208285D02*
X204743232Y-55827333D01*
X204743232Y-55827333D02*
X204743232Y-55446380D01*
X204743232Y-55446380D02*
X204933708Y-55065428D01*
X204933708Y-55065428D02*
X205124185Y-54874952D01*
X205124185Y-54874952D02*
X205505137Y-54684476D01*
X205505137Y-54684476D02*
X206457518Y-54684476D01*
X206457518Y-54684476D02*
X207028947Y-54874952D01*
M02*
