%TF.GenerationSoftware,KiCad,Pcbnew,8.0.3*%
%TF.CreationDate,2024-06-18T18:24:58+09:30*%
%TF.ProjectId,esp32c6-internal-module,65737033-3263-4362-9d69-6e7465726e61,1.0*%
%TF.SameCoordinates,Original*%
%TF.FileFunction,Legend,Top*%
%TF.FilePolarity,Positive*%
%FSLAX46Y46*%
G04 Gerber Fmt 4.6, Leading zero omitted, Abs format (unit mm)*
G04 Created by KiCad (PCBNEW 8.0.3) date 2024-06-18 18:24:58*
%MOMM*%
%LPD*%
G01*
G04 APERTURE LIST*
%ADD10C,0.000000*%
%ADD11C,0.120000*%
%ADD12C,0.200000*%
%ADD13C,0.150000*%
%ADD14C,0.100000*%
G04 APERTURE END LIST*
D10*
%TO.C,kibuzzard-66714928*%
G36*
X100963248Y-85555576D02*
G01*
X101043152Y-85589178D01*
X101113531Y-85645181D01*
X101168212Y-85716531D01*
X101201020Y-85796170D01*
X101211956Y-85884100D01*
X101198859Y-85976969D01*
X101159569Y-86061900D01*
X101222672Y-86173422D01*
X101243706Y-86295263D01*
X101231271Y-86390689D01*
X101196081Y-86475885D01*
X101138138Y-86550850D01*
X101064319Y-86609058D01*
X100981504Y-86643983D01*
X100889694Y-86655625D01*
X100646806Y-86655625D01*
X100500756Y-86655625D01*
X100418206Y-86644513D01*
X100373756Y-86608000D01*
X100358675Y-86563550D01*
X100356294Y-86507988D01*
X100356294Y-86365113D01*
X100646806Y-86365113D01*
X100873819Y-86365113D01*
X100896044Y-86363525D01*
X100920650Y-86354794D01*
X100944463Y-86327806D01*
X100953194Y-86277800D01*
X100932556Y-86211919D01*
X100865881Y-86196838D01*
X100845244Y-86196838D01*
X100754756Y-86169056D01*
X100727769Y-86074600D01*
X100756344Y-85983319D01*
X100853181Y-85957125D01*
X100872231Y-85957125D01*
X100910331Y-85946013D01*
X100921444Y-85896800D01*
X100904775Y-85847587D01*
X100838894Y-85834887D01*
X100646806Y-85834887D01*
X100646806Y-86365113D01*
X100356294Y-86365113D01*
X100356294Y-85688837D01*
X100358675Y-85635656D01*
X100373756Y-85592000D01*
X100418206Y-85555487D01*
X100502344Y-85544375D01*
X100873819Y-85544375D01*
X100963248Y-85555576D01*
G37*
%TO.C,kibuzzard-66714909*%
G36*
X100883542Y-88945169D02*
G01*
X100950019Y-88964219D01*
X101016297Y-88995175D01*
X101080194Y-89037244D01*
X101137145Y-89093402D01*
X101182587Y-89166625D01*
X101212353Y-89252548D01*
X101222275Y-89346806D01*
X101206753Y-89465692D01*
X101160186Y-89568351D01*
X101082575Y-89654781D01*
X101196875Y-89807181D01*
X101239738Y-89916719D01*
X101163537Y-90010381D01*
X101050825Y-90054038D01*
X100961925Y-89980219D01*
X100792062Y-89750031D01*
X100644425Y-89750031D01*
X100644425Y-89904019D01*
X100642044Y-89958787D01*
X100626962Y-90001650D01*
X100582512Y-90037369D01*
X100498375Y-90048481D01*
X100415825Y-90037369D01*
X100371375Y-90000856D01*
X100356294Y-89957200D01*
X100353912Y-89902431D01*
X100353912Y-89461106D01*
X100644425Y-89461106D01*
X100819050Y-89461106D01*
X100895250Y-89432531D01*
X100931763Y-89345219D01*
X100897631Y-89262669D01*
X100815875Y-89229331D01*
X100644425Y-89229331D01*
X100644425Y-89461106D01*
X100353912Y-89461106D01*
X100353912Y-89083281D01*
X100356294Y-89030100D01*
X100371375Y-88986444D01*
X100415825Y-88949931D01*
X100499962Y-88938819D01*
X100819050Y-88938819D01*
X100883542Y-88945169D01*
G37*
D11*
%TO.C,C5*%
X102800000Y-82335000D02*
X101200000Y-82335000D01*
X102800000Y-83665000D02*
X101200000Y-83665000D01*
%TO.C,R7*%
X104450000Y-82330000D02*
X106050000Y-82330000D01*
X104450000Y-83670000D02*
X106050000Y-83670000D01*
%TO.C,C1*%
X100335000Y-63700000D02*
X100335000Y-65300000D01*
X101665000Y-63700000D02*
X101665000Y-65300000D01*
%TO.C,D3*%
X102855000Y-92200000D02*
X102855000Y-94395000D01*
X102855000Y-94395000D02*
X104145000Y-94395000D01*
X104145000Y-94395000D02*
X104145000Y-92200000D01*
%TO.C,U1*%
X101700000Y-72800000D02*
X101700000Y-73600000D01*
X101700000Y-73600000D02*
X102500000Y-73600000D01*
X101900000Y-56800000D02*
X115100000Y-56800000D01*
X101900000Y-62200000D02*
X115100000Y-62200000D01*
X101900000Y-73400000D02*
X101900000Y-56800000D01*
X102575000Y-56600000D02*
X101725000Y-56600000D01*
X114550000Y-56600000D02*
X115300000Y-56600000D01*
X115100000Y-56800000D02*
X115100000Y-73400000D01*
X115100000Y-73400000D02*
X101900000Y-73400000D01*
X115300000Y-56600000D02*
X115300000Y-57200000D01*
X115300000Y-72800000D02*
X115300000Y-73600000D01*
X115300000Y-73600000D02*
X114500000Y-73600000D01*
%TO.C,U3*%
X107210000Y-82400000D02*
X107210000Y-79620000D01*
X107220000Y-79620000D02*
X107340000Y-79620000D01*
X110160000Y-81380000D02*
X110280000Y-81380000D01*
X110280000Y-79620000D02*
X110160000Y-79620000D01*
X110280000Y-81380000D02*
X110280000Y-79620000D01*
D12*
X107886920Y-82770000D02*
G75*
G02*
X107673080Y-82770000I-106920J0D01*
G01*
X107673080Y-82770000D02*
G75*
G02*
X107886920Y-82770000I106920J0D01*
G01*
D11*
%TO.C,R6*%
X104450000Y-80580000D02*
X106050000Y-80580000D01*
X104450000Y-81920000D02*
X106050000Y-81920000D01*
%TO.C,C3*%
X111250000Y-76085000D02*
X113250000Y-76085000D01*
X111250000Y-77915000D02*
X113250000Y-77915000D01*
D13*
%TO.C,SW1*%
X105000000Y-84750000D02*
X102000000Y-84750000D01*
X105000000Y-87250000D02*
X102000000Y-87250000D01*
D11*
%TO.C,D2*%
X100855000Y-92200000D02*
X100855000Y-94395000D01*
X100855000Y-94395000D02*
X102145000Y-94395000D01*
X102145000Y-94395000D02*
X102145000Y-92200000D01*
%TO.C,C6*%
X111400000Y-82085000D02*
X113400000Y-82085000D01*
X111400000Y-83915000D02*
X113400000Y-83915000D01*
D13*
%TO.C,J1*%
X107840000Y-94466750D02*
X107840000Y-85516750D01*
X114500000Y-89991750D02*
X113230000Y-89991750D01*
X114500000Y-94616750D02*
X114500000Y-85366750D01*
D11*
%TO.C,R3*%
X106050000Y-77080000D02*
X104450000Y-77080000D01*
X106050000Y-78420000D02*
X104450000Y-78420000D01*
%TO.C,C4*%
X102800000Y-80585000D02*
X101200000Y-80585000D01*
X102800000Y-81915000D02*
X101200000Y-81915000D01*
%TO.C,C2*%
X101085000Y-75750000D02*
X101085000Y-77750000D01*
X102915000Y-75750000D02*
X102915000Y-77750000D01*
%TO.C,U2*%
X111250000Y-79000000D02*
X111250000Y-81000000D01*
X111300000Y-79000000D02*
X111250000Y-79000000D01*
X111300000Y-81000000D02*
X111250000Y-81000000D01*
X113250000Y-78750000D02*
X113250000Y-81000000D01*
X113250000Y-81000000D02*
X113200000Y-81000000D01*
D13*
%TO.C,SW2*%
X105000000Y-88250000D02*
X102000000Y-88250000D01*
X105000000Y-90750000D02*
X102000000Y-90750000D01*
D11*
%TO.C,R4*%
X101200000Y-78830000D02*
X102800000Y-78830000D01*
X101200000Y-80170000D02*
X102800000Y-80170000D01*
%TO.C,R2*%
X106050000Y-75330000D02*
X104450000Y-75330000D01*
X106050000Y-76670000D02*
X104450000Y-76670000D01*
D14*
%TO.C,D1*%
X114250000Y-80150000D02*
X114250000Y-83780000D01*
X114250000Y-83780000D02*
X115950000Y-83780000D01*
X115950000Y-83780000D02*
X115950000Y-80150000D01*
D13*
X115175000Y-84030000D02*
G75*
G02*
X115025000Y-84030000I-75000J0D01*
G01*
X115025000Y-84030000D02*
G75*
G02*
X115175000Y-84030000I75000J0D01*
G01*
D11*
%TO.C,R5*%
X106050000Y-78830000D02*
X104450000Y-78830000D01*
X106050000Y-80170000D02*
X104450000Y-80170000D01*
%TO.C,R1*%
X111450000Y-74330000D02*
X113050000Y-74330000D01*
X111450000Y-75670000D02*
X113050000Y-75670000D01*
%TO.C,D4*%
X104855000Y-92200000D02*
X104855000Y-94395000D01*
X104855000Y-94395000D02*
X106145000Y-94395000D01*
X106145000Y-94395000D02*
X106145000Y-92200000D01*
%TD*%
M02*
