M48
;DRILL file {KiCad (5.0.0-rc2-dev-296-g4594fedc2)} date 04/30/18 23:59:00
;FORMAT={-:-/ absolute / metric / decimal}
FMAT,2
METRIC,TZ
T1C0.400
T2C1.000
T3C1.016
T4C1.020
T5C1.200
T6C1.400
T7C1.780
T8C3.200
%
G90
G05
M71
T1
X62.Y-54.
X62.Y-68.5
X63.Y-53.
X63.Y-69.6
X64.Y-54.
X64.Y-68.5
X65.Y-69.6
X65.1Y-53.
X66.Y-54.
X66.Y-68.5
X67.Y-69.6
X67.1Y-53.
X68.Y-54.
X68.Y-68.5
X69.Y-69.6
X70.Y-54.
X70.Y-56.
X70.Y-58.
X70.Y-60.
X70.Y-64.
X70.Y-65.5
X70.Y-67.
X70.Y-68.5
X71.1Y-55.
X71.1Y-57.
X71.1Y-59.
X71.1Y-64.8
X71.1Y-66.3
X71.1Y-67.8
X76.8Y-69.6
X76.8Y-73.
X77.4Y-52.8
X77.4Y-53.8
X77.4Y-54.8
X77.4Y-55.8
X77.8Y-62.8
X78.Y-59.8
X78.5Y-52.7
X78.5Y-53.8
X78.6Y-80.4
X80.8Y-71.
X81.413Y-59.387
X82.25Y-62.75
X84.8Y-67.4
X84.8Y-70.4
X85.Y-74.8
X85.6Y-65.2
X88.3Y-83.2
X88.5Y-84.5
X88.8Y-85.8
X89.8Y-84.
X90.Y-66.
X90.1Y-85.3
X90.2Y-67.8
X90.2Y-69.4
X90.2Y-70.8
X90.2Y-77.2
X90.8Y-79.2
X91.5Y-84.8
X92.Y-68.
X92.Y-69.4
X92.Y-70.8
X92.Y-78.8
X92.3Y-80.
X92.75Y-61.
X93.Y-53.
X93.Y-54.5
X93.Y-56.
X93.2Y-78.3
X93.5Y-62.
X93.5Y-79.5
X93.7Y-80.8
X95.7Y-87.2
X95.8Y-88.4
X95.9Y-89.7
X96.9Y-87.9
X97.Y-70.7
X97.1Y-89.1
X97.2Y-76.4
X97.7Y-83.1
X97.8Y-69.95
X97.8Y-72.6
X98.2Y-88.6
X98.8Y-82.6
X99.Y-76.4
X99.Y-83.8
X99.25Y-62.
X99.9Y-82.
X100.1Y-83.3
X100.3Y-84.5
X100.6Y-76.4
X101.8Y-68.2
X101.8Y-72.2
X102.Y-73.6
X102.6Y-69.2
X102.8Y-65.
X105.2Y-66.2
X105.2Y-80.5
X105.2Y-81.6
X105.2Y-82.8
X105.2Y-83.9
X105.2Y-85.
X105.2Y-86.2
X105.2Y-87.3
X105.2Y-88.4
X105.2Y-89.5
X105.2Y-90.6
X105.2Y-91.8
X105.2Y-92.9
X105.2Y-94.
X105.2Y-95.1
X105.2Y-97.6
X105.8Y-75.2
X108.2Y-68.4
X112.4Y-52.8
X112.4Y-53.8
X112.4Y-54.8
X112.4Y-62.
X113.2Y-59.8
X113.2Y-77.2
X113.2Y-80.5
X113.2Y-81.6
X113.2Y-82.8
X113.2Y-83.9
X113.2Y-85.
X113.2Y-86.1
X113.2Y-87.3
X113.2Y-88.4
X113.2Y-89.5
X113.2Y-94.
X113.2Y-95.
X113.2Y-96.1
X113.2Y-102.4
X113.5Y-52.8
X113.5Y-53.8
X115.Y-103.6
X116.4Y-59.6
X116.812Y-75.387
X117.Y-76.6
X117.Y-104.8
X117.25Y-64.
X120.3Y-106.3
X121.8Y-73.
X124.4Y-80.8
X124.4Y-83.5
X124.4Y-86.3
X124.4Y-89.
X124.4Y-91.8
X124.4Y-94.6
X124.4Y-95.9
X124.4Y-97.3
X124.4Y-98.7
X124.4Y-101.6
X125.2Y-109.2
X126.Y-62.75
X126.4Y-77.2
X127.3Y-62.5
X128.Y-51.6
X128.Y-53.
X128.Y-54.5
X128.Y-96.4
X128.Y-97.2
X128.Y-98.
X129.Y-111.2
X131.Y-70.
X131.Y-96.4
X131.Y-97.2
X131.Y-98.
X132.25Y-81.75
X133.7Y-114.3
X134.2Y-62.4
X134.2Y-101.8
X134.2Y-102.8
X135.2Y-95.6
X135.2Y-96.6
X135.2Y-97.6
X135.2Y-99.8
X137.Y-103.
X137.Y-109.2
X137.Y-116.
X137.8Y-95.
X138.Y-85.5
X138.009Y-97.189
X138.8Y-103.
X138.8Y-109.2
X140.5Y-109.2
X140.6Y-117.4
X141.8Y-95.
X142.Y-101.8
X142.Y-102.8
X142.5Y-85.5
X144.Y-96.4
X144.Y-97.2
X144.Y-98.
X144.4Y-67.4
X144.4Y-70.8
X144.9Y-117.5
X147.Y-62.75
X147.Y-96.4
X147.Y-97.2
X147.Y-98.
X147.4Y-52.6
X147.4Y-53.7
X147.4Y-54.8
X148.2Y-59.8
X148.5Y-52.6
X148.5Y-53.7
X148.75Y-83.
X149.2Y-90.
X149.3Y-80.
X149.4Y-82.
X149.5Y-84.
X149.6Y-117.4
X150.2Y-101.8
X150.2Y-102.8
X150.4Y-79.2
X150.6Y-80.8
X150.8Y-90.
X151.2Y-95.4
X151.2Y-96.4
X151.2Y-97.6
X151.4Y-59.6
X151.4Y-99.8
X151.8Y-65.8
X152.6Y-73.8
X152.6Y-75.2
X153.Y-68.6
X153.Y-103.
X153.Y-109.2
X153.Y-117.4
X153.8Y-95.
X154.Y-97.2
X154.2Y-73.2
X154.8Y-103.
X154.8Y-109.2
X155.2Y-93.4
X156.5Y-87.7
X156.775Y-92.413
X157.4Y-68.4
X158.4Y-69.2
X158.4Y-72.4
X159.2Y-67.4
X159.2Y-71.6
X159.2Y-104.4
X160.2Y-87.8
X160.4Y-76.2
X160.5Y-84.1
X161.2Y-103.9
X161.2Y-62.8
X161.2Y-102.3
X161.2Y-117.4
X161.9Y-85.2
X161.9Y-86.3
X162.Y-68.4
X162.Y-104.7
X162.3Y-115.4
X162.4Y-103.6
X163.Y-51.6
X163.Y-53.
X163.Y-54.5
X163.2Y-62.8
X163.275Y-92.
X163.4Y-84.
X163.5Y-110.1
X164.8Y-98.
X164.8Y-99.2
X166.3Y-114.
X166.5Y-112.9
X168.4Y-68.6
X169.2Y-62.4
X170.5Y-92.3
X170.5Y-93.3
X171.6Y-66.8
X172.025Y-78.737
X172.4Y-65.8
X172.8Y-68.6
X172.8Y-78.
X173.Y-76.5
X173.Y-96.6
X173.013Y-83.787
X173.4Y-71.4
X173.7Y-104.7
X174.Y-117.9
X174.013Y-81.763
X174.1Y-114.4
X174.2Y-83.8
X174.4Y-68.6
X174.5Y-96.75
X175.4Y-71.
X176.2Y-93.8
X176.2Y-95.
X177.1Y-108.8
X177.487Y-83.263
X178.Y-77.5
X178.1Y-108.1
X178.6Y-105.2
X178.8Y-73.4
X179.5Y-77.75
X180.25Y-78.75
X180.9Y-84.6
X181.25Y-77.75
X181.6Y-70.9
X182.25Y-78.75
X182.4Y-52.6
X182.4Y-53.7
X182.4Y-54.8
X182.8Y-62.6
X183.Y-106.
X183.Y-89.4
X183.2Y-59.8
X183.4Y-52.6
X183.4Y-53.7
X184.187Y-92.813
X184.6Y-105.
X184.8Y-85.6
X185.6Y-88.4
X186.4Y-59.6
X186.9Y-62.8
X187.2Y-88.8
X188.4Y-70.8
X188.4Y-79.6
X189.8Y-88.6
X189.8Y-92.4
X190.2Y-75.6
X190.4Y-85.6
X190.8Y-106.8
X191.Y-88.8
X192.Y-80.
X192.9Y-70.8
X193.Y-75.7
X193.4Y-77.4
X193.4Y-105.6
X194.Y-93.
X195.Y-85.8
X196.2Y-62.8
X197.49Y-77.285
X197.7Y-63.
X198.Y-54.5
X198.1Y-53.
X198.1Y-78.2
X198.6Y-100.6
X200.Y-101.8
X200.1Y-69.7
X201.Y-91.4
X203.35Y-95.025
X203.9Y-71.1
X204.2Y-62.4
X210.4Y-80.925
X213.6Y-85.2
X214.Y-86.2
X215.325Y-85.449
X215.8Y-86.4
X217.Y-85.2
X218.1Y-61.9
X218.4Y-67.6
X219.9Y-66.3
X220.2Y-70.
X220.6Y-62.
X222.15Y-70.03
X222.4Y-80.4
X223.8Y-80.5
X223.9Y-63.8
X223.9Y-66.3
X224.1Y-59.8
X225.2Y-75.
X225.7Y-59.8
X226.7Y-67.
X227.Y-68.4
X227.1Y-77.5
X227.2Y-71.6
X227.6Y-80.5
X227.7Y-63.8
X227.7Y-66.3
X227.7Y-73.8
X227.8Y-59.8
X231.Y-80.
X231.1Y-70.8
X231.3Y-68.1
X235.7Y-62.5
X235.7Y-64.2
X235.7Y-65.9
X235.7Y-67.6
X235.7Y-69.3
X235.7Y-72.
X235.7Y-73.7
X235.7Y-75.4
X235.7Y-77.1
X239.9Y-62.5
T2
X145.4Y-114.2
X133.4Y-110.8
X112.Y-98.4
X123.4Y-104.4
X102.8Y-92.8
T3
X161.Y-107.1
X163.54Y-107.1
X166.08Y-107.1
X168.62Y-107.1
X171.16Y-107.1
X173.7Y-107.1
X182.56Y-68.6
X185.1Y-68.6
T4
X213.201Y-93.01
X215.401Y-91.74
X217.6Y-90.47
X219.8Y-89.2
T5
X228.5Y-55.
X228.5Y-57.5
X231.Y-55.
X231.Y-57.5
X233.5Y-55.
X233.5Y-57.5
X205.7Y-75.6
X226.105Y-86.35
X203.2Y-75.6
X228.27Y-85.1
X230.435Y-83.85
X203.2Y-73.1
X205.7Y-73.1
X234.765Y-81.35
X208.2Y-73.1
X208.2Y-75.6
X210.7Y-73.1
X210.7Y-75.6
X213.2Y-73.1
X213.2Y-75.6
X232.6Y-82.6
X236.93Y-80.1
X242.8Y-62.3
X242.8Y-64.8
X242.8Y-67.3
X242.8Y-69.8
X245.3Y-62.3
X245.3Y-64.8
X245.3Y-67.3
X245.3Y-69.8
T6
X202.Y-60.5
X97.Y-55.
X97.Y-60.5
X101.2Y-55.
X101.2Y-60.5
X105.4Y-60.5
X109.6Y-55.
X109.6Y-60.5
X85.Y-55.
X85.Y-60.5
X89.2Y-55.
X89.2Y-60.5
X105.4Y-55.
X159.2Y-55.
X190.Y-55.
X190.Y-60.5
X194.2Y-55.
X194.2Y-60.5
X155.Y-55.
X155.Y-60.5
X159.2Y-60.5
X120.Y-55.
X120.Y-60.5
X124.2Y-55.
X124.2Y-60.5
X202.Y-55.
X206.2Y-55.
X206.2Y-60.5
X210.4Y-55.
X210.4Y-60.5
X214.6Y-60.5
X132.Y-55.
X179.6Y-60.5
X214.6Y-55.
X167.Y-55.
X167.Y-60.5
X171.2Y-55.
X171.2Y-60.5
X175.4Y-55.
X175.4Y-60.5
X179.6Y-55.
X132.Y-60.5
X136.2Y-55.
X136.2Y-60.5
X140.4Y-55.
X140.4Y-60.5
X144.6Y-55.
X144.6Y-60.5
T7
X63.3Y-57.7
X63.3Y-65.19
X66.48Y-57.7
X66.48Y-65.19
T8
X53.977Y-54.
X157.9Y-114.
X244.Y-54.
T0
M30
