G04 #@! TF.GenerationSoftware,KiCad,Pcbnew,(5.0.0-rc2-dev-296-g4594fedc2)*
G04 #@! TF.CreationDate,2018-05-02T00:47:15+09:30*
G04 #@! TF.ProjectId,zaphod-controller,7A6170686F642D636F6E74726F6C6C65,1.0*
G04 #@! TF.SameCoordinates,Original*
G04 #@! TF.FileFunction,Drawing*
%FSLAX46Y46*%
G04 Gerber Fmt 4.6, Leading zero omitted, Abs format (unit mm)*
G04 Created by KiCad (PCBNEW (5.0.0-rc2-dev-296-g4594fedc2)) date 05/02/18 00:47:15*
%MOMM*%
%LPD*%
G01*
G04 APERTURE LIST*
%ADD10C,0.300000*%
G04 APERTURE END LIST*
D10*
X37078571Y-89500000D02*
X37078571Y-89785714D01*
X37150000Y-89928571D01*
X37221428Y-90000000D01*
X37435714Y-90142857D01*
X37721428Y-90214285D01*
X38292857Y-90214285D01*
X38435714Y-90142857D01*
X38507142Y-90071428D01*
X38578571Y-89928571D01*
X38578571Y-89642857D01*
X38507142Y-89500000D01*
X38435714Y-89428571D01*
X38292857Y-89357142D01*
X37935714Y-89357142D01*
X37792857Y-89428571D01*
X37721428Y-89500000D01*
X37650000Y-89642857D01*
X37650000Y-89928571D01*
X37721428Y-90071428D01*
X37792857Y-90142857D01*
X37935714Y-90214285D01*
X37078571Y-88428571D02*
X37078571Y-88285714D01*
X37150000Y-88142857D01*
X37221428Y-88071428D01*
X37364285Y-88000000D01*
X37650000Y-87928571D01*
X38007142Y-87928571D01*
X38292857Y-88000000D01*
X38435714Y-88071428D01*
X38507142Y-88142857D01*
X38578571Y-88285714D01*
X38578571Y-88428571D01*
X38507142Y-88571428D01*
X38435714Y-88642857D01*
X38292857Y-88714285D01*
X38007142Y-88785714D01*
X37650000Y-88785714D01*
X37364285Y-88714285D01*
X37221428Y-88642857D01*
X37150000Y-88571428D01*
X37078571Y-88428571D01*
X38435714Y-87285714D02*
X38507142Y-87214285D01*
X38578571Y-87285714D01*
X38507142Y-87357142D01*
X38435714Y-87285714D01*
X38578571Y-87285714D01*
X37078571Y-86285714D02*
X37078571Y-86142857D01*
X37150000Y-86000000D01*
X37221428Y-85928571D01*
X37364285Y-85857142D01*
X37650000Y-85785714D01*
X38007142Y-85785714D01*
X38292857Y-85857142D01*
X38435714Y-85928571D01*
X38507142Y-86000000D01*
X38578571Y-86142857D01*
X38578571Y-86285714D01*
X38507142Y-86428571D01*
X38435714Y-86500000D01*
X38292857Y-86571428D01*
X38007142Y-86642857D01*
X37650000Y-86642857D01*
X37364285Y-86571428D01*
X37221428Y-86500000D01*
X37150000Y-86428571D01*
X37078571Y-86285714D01*
X37078571Y-84857142D02*
X37078571Y-84714285D01*
X37150000Y-84571428D01*
X37221428Y-84500000D01*
X37364285Y-84428571D01*
X37650000Y-84357142D01*
X38007142Y-84357142D01*
X38292857Y-84428571D01*
X38435714Y-84500000D01*
X38507142Y-84571428D01*
X38578571Y-84714285D01*
X38578571Y-84857142D01*
X38507142Y-85000000D01*
X38435714Y-85071428D01*
X38292857Y-85142857D01*
X38007142Y-85214285D01*
X37650000Y-85214285D01*
X37364285Y-85142857D01*
X37221428Y-85071428D01*
X37150000Y-85000000D01*
X37078571Y-84857142D01*
X37078571Y-83428571D02*
X37078571Y-83285714D01*
X37150000Y-83142857D01*
X37221428Y-83071428D01*
X37364285Y-83000000D01*
X37650000Y-82928571D01*
X38007142Y-82928571D01*
X38292857Y-83000000D01*
X38435714Y-83071428D01*
X38507142Y-83142857D01*
X38578571Y-83285714D01*
X38578571Y-83428571D01*
X38507142Y-83571428D01*
X38435714Y-83642857D01*
X38292857Y-83714285D01*
X38007142Y-83785714D01*
X37650000Y-83785714D01*
X37364285Y-83714285D01*
X37221428Y-83642857D01*
X37150000Y-83571428D01*
X37078571Y-83428571D01*
X38578571Y-81142857D02*
X37578571Y-81142857D01*
X37721428Y-81142857D02*
X37650000Y-81071428D01*
X37578571Y-80928571D01*
X37578571Y-80714285D01*
X37650000Y-80571428D01*
X37792857Y-80500000D01*
X38578571Y-80500000D01*
X37792857Y-80500000D02*
X37650000Y-80428571D01*
X37578571Y-80285714D01*
X37578571Y-80071428D01*
X37650000Y-79928571D01*
X37792857Y-79857142D01*
X38578571Y-79857142D01*
X38578571Y-79142857D02*
X37578571Y-79142857D01*
X37721428Y-79142857D02*
X37650000Y-79071428D01*
X37578571Y-78928571D01*
X37578571Y-78714285D01*
X37650000Y-78571428D01*
X37792857Y-78500000D01*
X38578571Y-78500000D01*
X37792857Y-78500000D02*
X37650000Y-78428571D01*
X37578571Y-78285714D01*
X37578571Y-78071428D01*
X37650000Y-77928571D01*
X37792857Y-77857142D01*
X38578571Y-77857142D01*
X40000000Y-114000000D02*
X40000000Y-54000000D01*
X50000000Y-114000000D02*
X39413579Y-114000000D01*
X50000000Y-54000000D02*
X39413579Y-54000000D01*
X40000000Y-54000000D02*
X40586421Y-55126504D01*
X40000000Y-54000000D02*
X39413579Y-55126504D01*
X40000000Y-114000000D02*
X40586421Y-112873496D01*
X40000000Y-114000000D02*
X39413579Y-112873496D01*
X142928571Y-43578571D02*
X142071428Y-43578571D01*
X142500000Y-43578571D02*
X142500000Y-42078571D01*
X142357142Y-42292857D01*
X142214285Y-42435714D01*
X142071428Y-42507142D01*
X143642857Y-43578571D02*
X143928571Y-43578571D01*
X144071428Y-43507142D01*
X144142857Y-43435714D01*
X144285714Y-43221428D01*
X144357142Y-42935714D01*
X144357142Y-42364285D01*
X144285714Y-42221428D01*
X144214285Y-42150000D01*
X144071428Y-42078571D01*
X143785714Y-42078571D01*
X143642857Y-42150000D01*
X143571428Y-42221428D01*
X143500000Y-42364285D01*
X143500000Y-42721428D01*
X143571428Y-42864285D01*
X143642857Y-42935714D01*
X143785714Y-43007142D01*
X144071428Y-43007142D01*
X144214285Y-42935714D01*
X144285714Y-42864285D01*
X144357142Y-42721428D01*
X145285714Y-42078571D02*
X145428571Y-42078571D01*
X145571428Y-42150000D01*
X145642857Y-42221428D01*
X145714285Y-42364285D01*
X145785714Y-42650000D01*
X145785714Y-43007142D01*
X145714285Y-43292857D01*
X145642857Y-43435714D01*
X145571428Y-43507142D01*
X145428571Y-43578571D01*
X145285714Y-43578571D01*
X145142857Y-43507142D01*
X145071428Y-43435714D01*
X145000000Y-43292857D01*
X144928571Y-43007142D01*
X144928571Y-42650000D01*
X145000000Y-42364285D01*
X145071428Y-42221428D01*
X145142857Y-42150000D01*
X145285714Y-42078571D01*
X146428571Y-43435714D02*
X146500000Y-43507142D01*
X146428571Y-43578571D01*
X146357142Y-43507142D01*
X146428571Y-43435714D01*
X146428571Y-43578571D01*
X147428571Y-42078571D02*
X147571428Y-42078571D01*
X147714285Y-42150000D01*
X147785714Y-42221428D01*
X147857142Y-42364285D01*
X147928571Y-42650000D01*
X147928571Y-43007142D01*
X147857142Y-43292857D01*
X147785714Y-43435714D01*
X147714285Y-43507142D01*
X147571428Y-43578571D01*
X147428571Y-43578571D01*
X147285714Y-43507142D01*
X147214285Y-43435714D01*
X147142857Y-43292857D01*
X147071428Y-43007142D01*
X147071428Y-42650000D01*
X147142857Y-42364285D01*
X147214285Y-42221428D01*
X147285714Y-42150000D01*
X147428571Y-42078571D01*
X148857142Y-42078571D02*
X149000000Y-42078571D01*
X149142857Y-42150000D01*
X149214285Y-42221428D01*
X149285714Y-42364285D01*
X149357142Y-42650000D01*
X149357142Y-43007142D01*
X149285714Y-43292857D01*
X149214285Y-43435714D01*
X149142857Y-43507142D01*
X149000000Y-43578571D01*
X148857142Y-43578571D01*
X148714285Y-43507142D01*
X148642857Y-43435714D01*
X148571428Y-43292857D01*
X148500000Y-43007142D01*
X148500000Y-42650000D01*
X148571428Y-42364285D01*
X148642857Y-42221428D01*
X148714285Y-42150000D01*
X148857142Y-42078571D01*
X150285714Y-42078571D02*
X150428571Y-42078571D01*
X150571428Y-42150000D01*
X150642857Y-42221428D01*
X150714285Y-42364285D01*
X150785714Y-42650000D01*
X150785714Y-43007142D01*
X150714285Y-43292857D01*
X150642857Y-43435714D01*
X150571428Y-43507142D01*
X150428571Y-43578571D01*
X150285714Y-43578571D01*
X150142857Y-43507142D01*
X150071428Y-43435714D01*
X150000000Y-43292857D01*
X149928571Y-43007142D01*
X149928571Y-42650000D01*
X150000000Y-42364285D01*
X150071428Y-42221428D01*
X150142857Y-42150000D01*
X150285714Y-42078571D01*
X152571428Y-43578571D02*
X152571428Y-42578571D01*
X152571428Y-42721428D02*
X152642857Y-42650000D01*
X152785714Y-42578571D01*
X153000000Y-42578571D01*
X153142857Y-42650000D01*
X153214285Y-42792857D01*
X153214285Y-43578571D01*
X153214285Y-42792857D02*
X153285714Y-42650000D01*
X153428571Y-42578571D01*
X153642857Y-42578571D01*
X153785714Y-42650000D01*
X153857142Y-42792857D01*
X153857142Y-43578571D01*
X154571428Y-43578571D02*
X154571428Y-42578571D01*
X154571428Y-42721428D02*
X154642857Y-42650000D01*
X154785714Y-42578571D01*
X155000000Y-42578571D01*
X155142857Y-42650000D01*
X155214285Y-42792857D01*
X155214285Y-43578571D01*
X155214285Y-42792857D02*
X155285714Y-42650000D01*
X155428571Y-42578571D01*
X155642857Y-42578571D01*
X155785714Y-42650000D01*
X155857142Y-42792857D01*
X155857142Y-43578571D01*
X54000000Y-45000000D02*
X244000000Y-45000000D01*
X54000000Y-49500000D02*
X54000000Y-44413579D01*
X244000000Y-49500000D02*
X244000000Y-44413579D01*
X244000000Y-45000000D02*
X242873496Y-45586421D01*
X244000000Y-45000000D02*
X242873496Y-44413579D01*
X54000000Y-45000000D02*
X55126504Y-45586421D01*
X54000000Y-45000000D02*
X55126504Y-44413579D01*
X33721429Y-79250000D02*
X33721429Y-78964285D01*
X33650001Y-78821428D01*
X33578572Y-78750000D01*
X33364286Y-78607142D01*
X33078572Y-78535714D01*
X32507143Y-78535714D01*
X32364286Y-78607142D01*
X32292858Y-78678571D01*
X32221429Y-78821428D01*
X32221429Y-79107142D01*
X32292858Y-79250000D01*
X32364286Y-79321428D01*
X32507143Y-79392857D01*
X32864286Y-79392857D01*
X33007143Y-79321428D01*
X33078572Y-79250000D01*
X33150001Y-79107142D01*
X33150001Y-78821428D01*
X33078572Y-78678571D01*
X33007143Y-78607142D01*
X32864286Y-78535714D01*
X32221429Y-80107142D02*
X32221429Y-80392857D01*
X32292858Y-80535714D01*
X32364286Y-80607142D01*
X32578572Y-80750000D01*
X32864286Y-80821428D01*
X33435715Y-80821428D01*
X33578572Y-80750000D01*
X33650001Y-80678571D01*
X33721429Y-80535714D01*
X33721429Y-80250000D01*
X33650001Y-80107142D01*
X33578572Y-80035714D01*
X33435715Y-79964285D01*
X33078572Y-79964285D01*
X32935715Y-80035714D01*
X32864286Y-80107142D01*
X32792858Y-80250000D01*
X32792858Y-80535714D01*
X32864286Y-80678571D01*
X32935715Y-80750000D01*
X33078572Y-80821428D01*
X32364286Y-81464285D02*
X32292858Y-81535714D01*
X32221429Y-81464285D01*
X32292858Y-81392857D01*
X32364286Y-81464285D01*
X32221429Y-81464285D01*
X33721429Y-82892857D02*
X33721429Y-82178571D01*
X33007143Y-82107142D01*
X33078572Y-82178571D01*
X33150001Y-82321428D01*
X33150001Y-82678571D01*
X33078572Y-82821428D01*
X33007143Y-82892857D01*
X32864286Y-82964285D01*
X32507143Y-82964285D01*
X32364286Y-82892857D01*
X32292858Y-82821428D01*
X32221429Y-82678571D01*
X32221429Y-82321428D01*
X32292858Y-82178571D01*
X32364286Y-82107142D01*
X33721429Y-83892857D02*
X33721429Y-84035714D01*
X33650001Y-84178571D01*
X33578572Y-84250000D01*
X33435715Y-84321428D01*
X33150001Y-84392857D01*
X32792858Y-84392857D01*
X32507143Y-84321428D01*
X32364286Y-84250000D01*
X32292858Y-84178571D01*
X32221429Y-84035714D01*
X32221429Y-83892857D01*
X32292858Y-83750000D01*
X32364286Y-83678571D01*
X32507143Y-83607142D01*
X32792858Y-83535714D01*
X33150001Y-83535714D01*
X33435715Y-83607142D01*
X33578572Y-83678571D01*
X33650001Y-83750000D01*
X33721429Y-83892857D01*
X33721429Y-85321428D02*
X33721429Y-85464285D01*
X33650001Y-85607142D01*
X33578572Y-85678571D01*
X33435715Y-85750000D01*
X33150001Y-85821428D01*
X32792858Y-85821428D01*
X32507143Y-85750000D01*
X32364286Y-85678571D01*
X32292858Y-85607142D01*
X32221429Y-85464285D01*
X32221429Y-85321428D01*
X32292858Y-85178571D01*
X32364286Y-85107142D01*
X32507143Y-85035714D01*
X32792858Y-84964285D01*
X33150001Y-84964285D01*
X33435715Y-85035714D01*
X33578572Y-85107142D01*
X33650001Y-85178571D01*
X33721429Y-85321428D01*
X32221429Y-87607142D02*
X33221429Y-87607142D01*
X33078572Y-87607142D02*
X33150001Y-87678571D01*
X33221429Y-87821428D01*
X33221429Y-88035714D01*
X33150001Y-88178571D01*
X33007143Y-88250000D01*
X32221429Y-88250000D01*
X33007143Y-88250000D02*
X33150001Y-88321428D01*
X33221429Y-88464285D01*
X33221429Y-88678571D01*
X33150001Y-88821428D01*
X33007143Y-88892857D01*
X32221429Y-88892857D01*
X32221429Y-89607142D02*
X33221429Y-89607142D01*
X33078572Y-89607142D02*
X33150001Y-89678571D01*
X33221429Y-89821428D01*
X33221429Y-90035714D01*
X33150001Y-90178571D01*
X33007143Y-90250000D01*
X32221429Y-90250000D01*
X33007143Y-90250000D02*
X33150001Y-90321428D01*
X33221429Y-90464285D01*
X33221429Y-90678571D01*
X33150001Y-90821428D01*
X33007143Y-90892857D01*
X32221429Y-90892857D01*
X35000001Y-50000000D02*
X35000001Y-119500000D01*
X50000000Y-50000000D02*
X34413580Y-50000000D01*
X50000000Y-119500000D02*
X34413580Y-119500000D01*
X35000001Y-119500000D02*
X34413580Y-118373496D01*
X35000001Y-119500000D02*
X35586422Y-118373496D01*
X35000001Y-50000000D02*
X34413580Y-51126504D01*
X35000001Y-50000000D02*
X35586422Y-51126504D01*
X143071428Y-37221428D02*
X143142857Y-37150000D01*
X143285714Y-37078571D01*
X143642857Y-37078571D01*
X143785714Y-37150000D01*
X143857142Y-37221428D01*
X143928571Y-37364285D01*
X143928571Y-37507142D01*
X143857142Y-37721428D01*
X143000000Y-38578571D01*
X143928571Y-38578571D01*
X144857142Y-37078571D02*
X145000000Y-37078571D01*
X145142857Y-37150000D01*
X145214285Y-37221428D01*
X145285714Y-37364285D01*
X145357142Y-37650000D01*
X145357142Y-38007142D01*
X145285714Y-38292857D01*
X145214285Y-38435714D01*
X145142857Y-38507142D01*
X145000000Y-38578571D01*
X144857142Y-38578571D01*
X144714285Y-38507142D01*
X144642857Y-38435714D01*
X144571428Y-38292857D01*
X144500000Y-38007142D01*
X144500000Y-37650000D01*
X144571428Y-37364285D01*
X144642857Y-37221428D01*
X144714285Y-37150000D01*
X144857142Y-37078571D01*
X146285714Y-37078571D02*
X146428571Y-37078571D01*
X146571428Y-37150000D01*
X146642857Y-37221428D01*
X146714285Y-37364285D01*
X146785714Y-37650000D01*
X146785714Y-38007142D01*
X146714285Y-38292857D01*
X146642857Y-38435714D01*
X146571428Y-38507142D01*
X146428571Y-38578571D01*
X146285714Y-38578571D01*
X146142857Y-38507142D01*
X146071428Y-38435714D01*
X146000000Y-38292857D01*
X145928571Y-38007142D01*
X145928571Y-37650000D01*
X146000000Y-37364285D01*
X146071428Y-37221428D01*
X146142857Y-37150000D01*
X146285714Y-37078571D01*
X147428571Y-38435714D02*
X147500000Y-38507142D01*
X147428571Y-38578571D01*
X147357142Y-38507142D01*
X147428571Y-38435714D01*
X147428571Y-38578571D01*
X148428571Y-37078571D02*
X148571428Y-37078571D01*
X148714285Y-37150000D01*
X148785714Y-37221428D01*
X148857142Y-37364285D01*
X148928571Y-37650000D01*
X148928571Y-38007142D01*
X148857142Y-38292857D01*
X148785714Y-38435714D01*
X148714285Y-38507142D01*
X148571428Y-38578571D01*
X148428571Y-38578571D01*
X148285714Y-38507142D01*
X148214285Y-38435714D01*
X148142857Y-38292857D01*
X148071428Y-38007142D01*
X148071428Y-37650000D01*
X148142857Y-37364285D01*
X148214285Y-37221428D01*
X148285714Y-37150000D01*
X148428571Y-37078571D01*
X149857142Y-37078571D02*
X150000000Y-37078571D01*
X150142857Y-37150000D01*
X150214285Y-37221428D01*
X150285714Y-37364285D01*
X150357142Y-37650000D01*
X150357142Y-38007142D01*
X150285714Y-38292857D01*
X150214285Y-38435714D01*
X150142857Y-38507142D01*
X150000000Y-38578571D01*
X149857142Y-38578571D01*
X149714285Y-38507142D01*
X149642857Y-38435714D01*
X149571428Y-38292857D01*
X149500000Y-38007142D01*
X149500000Y-37650000D01*
X149571428Y-37364285D01*
X149642857Y-37221428D01*
X149714285Y-37150000D01*
X149857142Y-37078571D01*
X151285714Y-37078571D02*
X151428571Y-37078571D01*
X151571428Y-37150000D01*
X151642857Y-37221428D01*
X151714285Y-37364285D01*
X151785714Y-37650000D01*
X151785714Y-38007142D01*
X151714285Y-38292857D01*
X151642857Y-38435714D01*
X151571428Y-38507142D01*
X151428571Y-38578571D01*
X151285714Y-38578571D01*
X151142857Y-38507142D01*
X151071428Y-38435714D01*
X151000000Y-38292857D01*
X150928571Y-38007142D01*
X150928571Y-37650000D01*
X151000000Y-37364285D01*
X151071428Y-37221428D01*
X151142857Y-37150000D01*
X151285714Y-37078571D01*
X153571428Y-38578571D02*
X153571428Y-37578571D01*
X153571428Y-37721428D02*
X153642857Y-37650000D01*
X153785714Y-37578571D01*
X154000000Y-37578571D01*
X154142857Y-37650000D01*
X154214285Y-37792857D01*
X154214285Y-38578571D01*
X154214285Y-37792857D02*
X154285714Y-37650000D01*
X154428571Y-37578571D01*
X154642857Y-37578571D01*
X154785714Y-37650000D01*
X154857142Y-37792857D01*
X154857142Y-38578571D01*
X155571428Y-38578571D02*
X155571428Y-37578571D01*
X155571428Y-37721428D02*
X155642857Y-37650000D01*
X155785714Y-37578571D01*
X156000000Y-37578571D01*
X156142857Y-37650000D01*
X156214285Y-37792857D01*
X156214285Y-38578571D01*
X156214285Y-37792857D02*
X156285714Y-37650000D01*
X156428571Y-37578571D01*
X156642857Y-37578571D01*
X156785714Y-37650000D01*
X156857142Y-37792857D01*
X156857142Y-38578571D01*
X50000000Y-40000000D02*
X250000000Y-40000000D01*
X50000000Y-50000000D02*
X50000000Y-39413579D01*
X250000000Y-50000000D02*
X250000000Y-39413579D01*
X250000000Y-40000000D02*
X248873496Y-40586421D01*
X250000000Y-40000000D02*
X248873496Y-39413579D01*
X50000000Y-40000000D02*
X51126504Y-40586421D01*
X50000000Y-40000000D02*
X51126504Y-39413579D01*
M02*
